<?xml version="1.0" encoding="utf-8"?>
<svg width="1024px" height="1024px" viewBox="0 0 1024 1024" version="1.1" xmlns:xlink="http://www.w3.org/1999/xlink" xmlns="http://www.w3.org/2000/svg">
  <g id="miku">
    <path d="M0 0L1024 0L1024 1024L0 1024L0 0Z" id="background" fill="none" fill-rule="evenodd" stroke="none" />
    <g id="miku" transform="translate(0 130)">
      <path d="M1024 306.773L1024 161.163C1023.79 142.277 1008.31 127.134 989.423 127.342C989.149 127.345 988.875 127.351 988.601 127.362L648.599 127.362L531.8 234.966L531.8 347.772L684.999 207.763L933.594 207.763L933.594 277.368L408.801 764.997L468.801 825L1024 306.773L1024 306.773L1024 306.773Z" id="4" fill="#009AB4" fill-rule="evenodd" stroke="none" />
      <path d="M402.997 733.981L493.198 648.375L493.198 493.765C493.46 474.879 478.358 459.357 459.472 459.096C458.581 459.082 457.69 459.105 456.799 459.162L0 459.162L0 539.168L402.997 539.168L402.997 733.981L402.997 733.981L402.997 733.981Z" id="3" fill="#009AB4" fill-rule="evenodd" stroke="none" />
      <path d="M468.502 334.896C470.6 315.011 456.185 297.193 436.305 295.092C435.108 294.965 433.905 294.898 432.703 294.891L20.105 294.891L20.105 374.897L432.703 374.897C453.34 374.066 469.398 356.657 468.566 336.018C468.549 335.643 468.529 335.271 468.502 334.896" id="2" fill="#009AB4" fill-rule="evenodd" stroke="none" />
      <path d="M492.997 164.409C494.985 144.402 480.381 126.572 460.377 124.585C459.255 124.474 458.125 124.414 457 124.407L89.1992 124.407L89.1992 34.4017C89.1992 34.4017 88.5998 0 44.0002 0C-0.599437 0 0.000415183 34.2007 0.000415183 34.2007L0.000415183 204.812L456.999 204.812C477.855 203.853 493.982 186.17 493.028 165.317C493.021 165.149 493.011 164.978 493.001 164.811" id="1" fill="#009AB4" fill-rule="evenodd" stroke="none" />
    </g>
  </g>
</svg>