<?xml version="1.0" standalone="no"?>
<!DOCTYPE svg PUBLIC "-//W3C//DTD SVG 20010904//EN"
 "http://www.w3.org/TR/2001/REC-SVG-20010904/DTD/svg10.dtd">
<svg version="1.0" xmlns="http://www.w3.org/2000/svg"
 width="700.000000pt" height="700.000000pt" viewBox="0 0 700.000000 700.000000"
 preserveAspectRatio="xMidYMid meet">
<metadata>
Created by potrace 1.14, written by Peter Selinger 2001-2017
</metadata>
<g transform="translate(0.000000,700.000000) scale(0.100000,-0.100000)"
fill="#000000" stroke="none">
<path d="M150 6083 c-70 -31 -97 -56 -126 -118 l-24 -50 0 -602 0 -603 1573 0
c1774 0 1629 -7 1717 79 58 55 80 114 80 210 0 54 -6 78 -28 122 -30 60 -91
112 -150 129 -25 6 -464 10 -1309 10 l-1273 0 -1 323 c0 221 -4 331 -12 352
-23 58 -50 93 -95 121 -64 41 -111 52 -210 52 -70 -1 -98 -6 -142 -25z"/>
<path d="M4517 5242 c-79 -3 -90 -5 -115 -30 -16 -15 -80 -74 -143 -132 -141
-131 -211 -195 -260 -240 -20 -19 -75 -70 -122 -112 -46 -43 -98 -90 -114
-105 -17 -15 -52 -48 -79 -73 l-49 -45 0 -382 c0 -211 2 -383 5 -383 3 0 30
23 60 52 30 28 75 69 100 92 25 23 97 88 160 146 63 58 120 110 126 115 6 6
57 53 114 105 132 121 140 128 234 213 44 40 84 77 90 82 6 6 44 41 84 78 l74
67 849 0 849 0 1 -27 c0 -16 1 -122 1 -238 l0 -209 -59 -56 c-33 -30 -110
-102 -173 -160 -62 -58 -125 -116 -140 -130 -81 -77 -276 -257 -292 -272 -11
-9 -73 -67 -138 -128 -65 -61 -127 -119 -138 -128 -11 -10 -71 -65 -133 -124
-63 -58 -127 -118 -144 -133 -16 -15 -59 -55 -95 -89 -87 -81 -308 -287 -341
-317 -43 -39 -228 -211 -268 -249 -21 -19 -91 -84 -156 -145 -126 -117 -127
-118 -291 -270 -60 -55 -140 -130 -179 -166 -38 -36 -83 -79 -100 -94 -83 -76
-221 -204 -254 -235 -41 -38 -258 -241 -306 -284 -39 -36 -230 -214 -314 -293
l-66 -62 205 -205 205 -205 60 56 c33 31 114 107 180 169 66 62 139 130 161
151 23 21 92 85 154 143 62 58 124 116 139 129 14 13 87 81 161 151 74 69 166
155 204 191 38 35 106 98 150 140 45 41 122 113 171 159 50 46 99 93 111 104
11 12 70 66 129 121 60 55 123 114 141 130 17 17 85 80 150 140 65 61 150 140
189 176 38 37 86 81 105 99 41 38 262 244 300 280 15 14 87 81 160 150 73 69
141 132 150 140 9 8 68 63 131 122 63 58 128 118 144 133 17 15 62 57 100 94
39 36 129 121 200 187 72 67 148 138 170 159 22 21 84 78 138 128 l98 91 -3
530 c-3 490 -4 534 -21 564 -43 79 -104 120 -191 129 -55 5 -2123 10 -2269 5z"/>
<path d="M139 4075 c-1 -25 -1 -507 0 -517 1 -5 646 -8 1434 -8 l1433 0 52 26
c93 46 142 128 144 241 1 37 -5 86 -12 108 -18 58 -72 119 -127 146 l-48 23
-1437 0 c-1434 1 -1438 1 -1439 -19z"/>
<path d="M0 2700 l0 -275 1377 0 1378 0 0 -662 c0 -506 2 -660 11 -655 11 6
149 136 423 399 53 50 115 109 139 130 l42 38 0 557 c0 626 2 609 -75 677 -78
68 53 63 -1702 65 l-1593 1 0 -275z"/>
</g>
</svg>
