<?xml version="1.0" encoding="utf-8"?>
<svg width="1415px" height="1415px" viewBox="0 0 1415 1415" version="1.1" xmlns:xlink="http://www.w3.org/1999/xlink" xmlns="http://www.w3.org/2000/svg">
  <g id="360">
    <path d="M0 707.5C0 316.759 316.759 0 707.5 0C1098.24 0 1415 316.759 1415 707.5C1415 1098.24 1098.24 1415 707.5 1415C316.759 1415 0 1098.24 0 707.5Z" id="BG" fill="none" fill-rule="evenodd" stroke="none" />
    <path d="M1031 1060.4C1031 1011.8 1070.4 972.4 1119 972.4C1167.6 972.4 1207 1011.8 1207 1060.4C1207 1109 1167.6 1148.4 1119 1148.4C1070.4 1148.4 1031 1109 1031 1060.4Z" id="Ellipse" fill="#FF9932" fill-rule="evenodd" stroke="none" />
    <path d="M1032 879.235L904.059 827.765C893.765 823.353 893.765 816 898.176 805.706C909.941 774.824 915.824 741 915.824 707.176C915.824 563.059 793.765 439.529 648.176 439.529C502.588 439.529 380.529 563.059 380.529 707.176C380.529 741 389.353 776.294 401.118 807.176C404.059 813.059 404.059 820.412 401.118 826.294C398.176 830.706 395.235 826.294 390.824 827.765L259.941 870.412C258.471 871.882 255.529 871.882 254.059 871.882C245.235 871.882 239.353 867.471 236.412 858.647C217.294 808.647 207 758.647 207 707.176C207 464.529 405.529 266 648.176 266C890.824 266 1089.35 463.059 1089.35 705.706C1089.35 763.059 1079.06 817.471 1058.47 868.941C1057 873.353 1052.59 877.765 1046.71 879.235C1043.76 880.706 1042.29 880.706 1039.35 880.706C1036.41 880.706 1034.94 880.706 1032 879.235L1032 879.235Z" id="Shape" fill="#0FB264" fill-rule="evenodd" stroke="none" />
    <path d="M255.529 910.118C248.176 895.412 242.294 879.235 236.412 864.53C233.47 857.177 233.47 851.294 233.47 848.353C233.47 799.824 273.176 761.588 323.176 761.588C359.941 761.588 390.823 783.647 405.529 816C407 818.941 411.412 827.765 414.353 832.177C459.941 918.941 549.647 974.824 648.176 974.824C745.235 974.824 833.47 920.412 880.529 836.588C884.941 827.765 896.706 807.177 898.176 805.706C912.882 776.294 940.823 761.588 973.176 761.588C1023.18 761.588 1062.88 801.294 1062.88 848.353C1062.88 854.236 1062.88 861.589 1058.47 870.412C1055.53 877.765 1052.59 885.118 1049.65 892.471L1049.65 893.941C1048.18 898.353 1046.71 901.294 1043.76 905.706C968.765 1055.71 817.294 1148.35 648.176 1148.35C482 1148.35 332 1057.18 255.529 910.118L255.529 910.118Z" id="Shape" fill="#FF9932" fill-rule="evenodd" stroke="none" />
  </g>
</svg>