<svg id="图层_1" data-name="图层 1" xmlns="http://www.w3.org/2000/svg" viewBox="0 0 1000 1000"><title>99cankao</title><rect width="1000" height="1000" style="fill:none"/><path d="M645.461,459.0452a26.58,26.58,0,0,0-26.3372-26.3372H429.7567a26.1964,26.1964,0,0,0-26.12,26.12h0a26.1964,26.1964,0,0,0,26.12,26.12H593.2218v175.872a26.1964,26.1964,0,0,0,26.12,26.12h0a26.1964,26.1964,0,0,0,26.12-26.12Z" style="fill:#face0b"/><path d="M352.7039,711.0994a26.58,26.58,0,0,0,26.3372,26.3372H568.4082a26.1964,26.1964,0,0,0,26.12-26.12h0a26.1964,26.1964,0,0,0-26.12-26.12H404.9431V509.3255a26.1965,26.1965,0,0,0-26.12-26.12h0a26.1962,26.1962,0,0,0-26.12,26.12Z" style="fill:#a6c939"/><path d="M699.2239,713.929a26.1964,26.1964,0,0,0-26.12-26.12h0a26.1964,26.1964,0,0,0-26.12,26.12V821.89H240.39V445.7678H380.5648a26.1964,26.1964,0,0,0,26.12-26.12h0a26.1964,26.1964,0,0,0-26.12-26.12H214.27a26.1964,26.1964,0,0,0-26.12,26.12h0V848.01h0a26.1964,26.1964,0,0,0,26.12,26.12H666.44a25.9217,25.9217,0,0,0,6.6644.8708h0a26.1963,26.1963,0,0,0,26.12-26.12Z" style="fill:#ed7f24"/><path d="M616.1352,279.4784l-146.8613-146.86a26.1963,26.1963,0,0,0-36.9383,0h0l-.0226.0239c-.0138.0137-.0283.0262-.042.04L139.4879,425.4657a26.1963,26.1963,0,0,0,0,36.9386h0a26.1964,26.1964,0,0,0,36.9387,0L450.8044,188.0261,579.1967,316.4173a26.1964,26.1964,0,0,0,36.9384,0h0A26.1963,26.1963,0,0,0,616.1352,279.4784Z" style="fill:#ed7f24"/><path d="M868.1307,599.8734c0-113.9611-38.9805-206.3448-87.0654-206.3448S694,485.9123,694,599.8734c0,92.3929,25.6229,170.5972,60.9457,196.8918V848.88a26.12,26.12,0,0,0,52.2392,0V796.7652C842.5077,770.4706,868.1307,692.2663,868.1307,599.8734Z" style="fill:#ed7f24"/></svg>