<?xml version="1.0" encoding="UTF-8"?>
<!-- Generator: Adobe Illustrator 19.0.0, SVG Export Plug-In . SVG Version: 6.00 Build 0)  -->
<svg version="1.1" id="Layer_2" xmlns="http://www.w3.org/2000/svg" xmlns:xlink="http://www.w3.org/1999/xlink" x="0px" y="0px" width="550.2px" height="229.2px" viewBox="0 0 550.2 229.2" enable-background="new 0 0 550.2 229.2" xml:space="preserve">
<path fill="#BE3326" d="M94.8,165.8c-0.3,7.4-4.7,9.8-7.9,9.3c0,0-2.2-1.8-1.7-4.2c0,0-3.5,1.8-2.9,5.2c0,0-5.6,2-8.2-1.9  c-0.6-0.9-1.4-1.8-2.2-2.6C79.5,167.7,87.1,165.9,94.8,165.8z"/>
<path fill="#EC7A23" d="M83.2,99.3c-0.4,1.2-0.7,2.3-1,3.4c0.1-1.2,0-2.3,0-3.5C82.6,99.3,82.9,99.3,83.2,99.3z"/>
<path fill="#EC7A23" d="M83.5,127.5c-2.5,0.2-5,0.4-7.4,0.6c2.1-4.4,3.7-9,4.7-13.7C81,118.9,81.9,123.2,83.5,127.5z"/>
<path fill="#EC7A23" d="M102.6,110.1c0,3.7-3,6.6-6.6,6.6c-3.7,0-6.6-3-6.6-6.6c0-3.7,3-6.6,6.6-6.6  C99.6,103.4,102.6,106.4,102.6,110.1z"/>
<path fill="#EC7A23" d="M109.7,98.9c-0.1,1.3-0.1,2.6-0.1,3.8c-0.2-1.2-0.6-2.5-1.1-3.8C108.9,99,109.3,98.9,109.7,98.9z"/>
<path fill="#EC7A23" d="M116,128.7c-2.4-0.3-4.9-0.6-7.4-0.8c-0.1-0.1-0.2-0.2-0.4-0.2c1.7-4.3,2.6-8.7,2.7-13.1  C112.1,119.4,113.8,124.2,116,128.7z"/>
<path fill="#FAC113" d="M121.1,62.6c-7.4,12.2-11,24.6-11.4,36.3c-0.4,0-0.8,0.1-1.2,0.1c-2.4-6.8-6.6-13.8-12.6-21  c-6.1,7.3-10.3,14.3-12.7,21.3c-0.3,0-0.6-0.1-1-0.1c-0.3-11.9-4-24.4-11.5-36.6c5.2-3.1,10.2-6,14.4-8.4c6.7-3.8,14.9-3.8,21.6,0  C110.9,56.6,115.9,59.5,121.1,62.6z"/>
<path fill="#F5AF1B" d="M153.9,85.6c-10.6,7-26.7,11.6-44.2,13.4c0.4-11.8,4-24.2,11.4-36.3C133.6,70.1,147.4,79.1,153.9,85.6z"/>
<path fill="#EB6724" d="M157.8,91.6v47c0,1.9-0.1,3.6-0.3,5.3c-9.1-7.5-24.3-12.7-41.4-15.1c-2.2-4.5-3.9-9.3-5-14.2  c0.2-3.9-0.2-7.8-1.4-11.8c0-1.3,0-2.6,0.1-3.8c17.5-1.8,33.7-6.3,44.2-13.4C156.3,88,157.8,90.1,157.8,91.6z"/>
<path fill="#D84C27" d="M143.7,157.6c-6.3-0.3-12.9,3.9-15.4,11.1c-2.6-1.5-6,0.3-8.6,3c-7.6-3.6-15.2-5.6-22.7-5.8  c-0.1-0.4-0.1-0.8-0.1-1.2c0-8.4,2.2-19,2.2-19c-2.2-0.6-4.4-0.6-6.6,0c0,0,2.2,10.6,2.2,19c0,0.4,0,0.7-0.1,1.1  c-7.7,0.1-15.3,1.9-22.9,5.8c-2.6-2.6-5.9-4.3-8.4-2.9c-2.5-7.2-9-11.4-15.4-11.1c12.7-7.3,22.3-17.5,28-29.4  c2.4-0.2,4.9-0.5,7.4-0.6c0,0.1,0.1,0.1,0.1,0.2c-8.6,4.5-9.4,14.1-4.2,27.7c2.3-7.5,5.4-13.5,10.1-16.2c0.5,2.4,2.6,4.2,6.5,4.2  c3.8,0,5.9-1.8,6.5-4.2c4.7,2.6,7.8,8.6,10.1,16.2c5-13.4,4.3-22.9-3.8-27.4c2.5,0.2,5,0.5,7.4,0.8  C121.7,140.4,131.1,150.4,143.7,157.6z"/>
<path fill="#EB6724" d="M76.2,128.1c-5.7,11.9-15.3,22.2-28,29.4c-2.6,0.1-5.2,1-7.5,2.6c0,0-5.4-4.8-6.4-17.5  C44.3,134.8,59.6,130,76.2,128.1z"/>
<path fill="#F18F21" d="M82.3,99.3c0,1.2,0.1,2.3,0,3.5c-1.1,3.9-1.5,7.8-1.4,11.7c-1,4.7-2.6,9.3-4.7,13.7  c-16.6,1.8-31.8,6.6-41.9,14.6c-0.1-1.3-0.2-2.7-0.2-4.2v-47c0-1.4,1.1-3.2,3.1-5.3C48.6,93.8,65,98.1,82.3,99.3z"/>
<path fill="#BE3326" d="M119.8,171.7c-0.7,0.7-1.4,1.6-2,2.4c-2.6,3.9-8.2,1.9-8.2,1.9c0.6-3.4-2.9-5.2-2.9-5.2  c0.5,2.4-1.7,4.2-1.7,4.2c-3.3,0.5-7.5-1.8-7.9-9.2C104.6,166.1,112.2,168.1,119.8,171.7z"/>
<path fill="#F5AF1B" d="M82.3,99.3c-17.3-1.2-33.7-5.4-45-13c6.2-6.6,20.6-15.8,33.5-23.7C78.3,74.9,81.9,87.3,82.3,99.3z"/>
<path fill="#F29A1F" d="M157.5,143.8c-1.2,11.8-6.3,16.4-6.3,16.4c-2.2-1.7-4.7-2.6-7.4-2.6c-0.1,0-0.1,0-0.1,0  c-12.6-7.2-22-17.2-27.7-28.9C133.1,131.1,148.3,136.3,157.5,143.8z"/>
<g>
	<path fill="#BCDEF5" d="M170.8,124.4c0-4.9,0.9-9.6,2.8-14c1.9-4.4,4.4-8.2,7.7-11.5c3.3-3.3,7.1-5.8,11.4-7.7   c4.3-1.9,9-2.8,13.9-2.8c4.8,0,9.5,0.9,13.8,2.8c4.4,1.9,8.2,4.4,11.5,7.6c3.3,3.2,5.8,7,7.8,11.3c1.9,4.3,2.9,9,2.9,13.9v33.7   c0,1.6-0.8,2.4-2.4,2.4c-1.6,0-2.4-0.8-2.4-2.4v-16.3c-3.2,5.4-7.5,9.9-13,13.4c-5.5,3.5-11.6,5.3-18.3,5.3   c-4.9,0-9.6-0.9-13.9-2.8c-4.3-1.9-8.1-4.4-11.4-7.7c-3.3-3.3-5.8-7.1-7.7-11.4C171.8,134,170.8,129.3,170.8,124.4z M175.6,124.4   c0,4.2,0.8,8.3,2.4,12.1c1.6,3.8,3.8,7.1,6.7,9.9c2.8,2.8,6.1,5,9.9,6.7c3.8,1.6,7.8,2.4,12.1,2.4c4.2,0,8.3-0.8,12.1-2.4   c3.8-1.6,7.1-3.8,9.9-6.7c2.8-2.8,5.1-6.1,6.7-9.9c1.7-3.8,2.5-7.8,2.5-12.1c0-4.2-0.8-8.3-2.5-12.1c-1.7-3.8-3.9-7.1-6.7-9.9   s-6.1-5.1-9.9-6.7c-3.8-1.7-7.8-2.5-12.1-2.5c-4.2,0-8.3,0.8-12.1,2.5c-3.8,1.7-7.1,3.9-9.9,6.7s-5,6.1-6.7,9.9   C176.4,116.1,175.6,120.2,175.6,124.4z"/>
	<path fill="#BCDEF5" d="M260,84.6c0-2.5,0.5-4.8,1.4-7.1c0.9-2.3,2.2-4.3,3.8-6c1.6-1.7,3.6-3.1,5.8-4.1c2.2-1,4.6-1.5,7.2-1.5   c0.7,0,1.3,0.3,1.7,0.7c0.4,0.5,0.7,1,0.7,1.6c0,1.6-0.8,2.4-2.4,2.4c-3.9,0-7.2,1.3-9.7,4c-2.5,2.7-3.8,6-3.8,9.9v3.8h13.2   c1.6,0,2.4,0.8,2.4,2.4c0,0.6-0.2,1.1-0.7,1.6c-0.4,0.5-1,0.7-1.7,0.7h-13.2v64.7c0,1.6-0.8,2.4-2.4,2.4c-1.6,0-2.4-0.8-2.4-2.4   V93.2h-8.7c-0.7,0-1.3-0.2-1.7-0.7c-0.4-0.5-0.7-1-0.7-1.6c0-1.6,0.8-2.4,2.4-2.4h8.7V84.6z"/>
	<path fill="#BCDEF5" d="M296.7,84.6c0-2.5,0.5-4.8,1.4-7.1c0.9-2.3,2.2-4.3,3.8-6c1.6-1.7,3.6-3.1,5.8-4.1c2.2-1,4.6-1.5,7.2-1.5   c0.7,0,1.3,0.3,1.7,0.7c0.4,0.5,0.7,1,0.7,1.6c0,1.6-0.8,2.4-2.4,2.4c-3.9,0-7.2,1.3-9.7,4c-2.5,2.7-3.8,6-3.8,9.9v3.8h13.2   c1.6,0,2.4,0.8,2.4,2.4c0,0.6-0.2,1.1-0.7,1.6c-0.4,0.5-1,0.7-1.7,0.7h-13.2v64.7c0,1.6-0.8,2.4-2.4,2.4c-1.6,0-2.4-0.8-2.4-2.4   V93.2h-8.7c-0.7,0-1.3-0.2-1.7-0.7c-0.4-0.5-0.7-1-0.7-1.6c0-1.6,0.8-2.4,2.4-2.4h8.7V84.6z"/>
	<path fill="#FFFFFF" d="M322.1,70.2c0-1.3,0.4-2.4,1.3-3.3c0.9-0.9,2-1.3,3.3-1.3c1.3,0,2.4,0.4,3.3,1.3c0.9,0.9,1.3,2,1.3,3.3V151   h37.6c1.3,0,2.4,0.4,3.3,1.3c0.9,0.9,1.3,2,1.3,3.3c0,1.3-0.4,2.4-1.3,3.3c-0.9,0.9-2,1.3-3.3,1.3h-42.2c-1.3,0-2.4-0.4-3.3-1.3   c-0.9-0.9-1.3-2-1.3-3.3V70.2z"/>
	<path fill="#FFFFFF" d="M377.3,70.2c0-1.3,0.4-2.4,1.3-3.3c0.9-0.9,2-1.3,3.3-1.3c1.3,0,2.4,0.4,3.3,1.3c0.9,0.9,1.3,2,1.3,3.3   v85.4c0,1.3-0.4,2.4-1.3,3.3c-0.9,0.9-2,1.3-3.3,1.3c-1.3,0-2.4-0.4-3.3-1.3c-0.9-0.9-1.3-2-1.3-3.3V70.2z"/>
	<path fill="#FFFFFF" d="M395.6,70.2c0-1.3,0.4-2.4,1.3-3.3c0.9-0.9,2-1.3,3.3-1.3h45.1c1.3,0,2.4,0.4,3.3,1.3   c0.9,0.9,1.3,2,1.3,3.3c0,1.3-0.4,2.4-1.3,3.3c-0.9,0.9-2,1.3-3.3,1.3h-40.6v33h25.6c1.3,0,2.4,0.4,3.3,1.3c0.9,0.9,1.3,2,1.3,3.3   c0,1.3-0.4,2.4-1.3,3.3c-0.9,0.9-2,1.3-3.3,1.3h-25.6v38.6c0,1.3-0.4,2.4-1.3,3.3c-0.9,0.9-2,1.3-3.3,1.3c-1.3,0-2.4-0.4-3.3-1.3   c-0.9-0.9-1.3-2-1.3-3.3V70.2z"/>
	<path fill="#FFFFFF" d="M460.1,74.8c-1.3,0-2.4-0.4-3.3-1.3c-0.9-0.9-1.3-2-1.3-3.3c0-1.3,0.4-2.4,1.3-3.3c0.9-0.9,2-1.3,3.3-1.3   h51.4c1.3,0,2.4,0.4,3.3,1.3c0.9,0.9,1.3,2,1.3,3.3c0,1.3-0.4,2.4-1.3,3.3c-0.9,0.9-2,1.3-3.3,1.3h-21v80.8c0,1.3-0.4,2.4-1.3,3.3   c-0.9,0.9-2,1.3-3.3,1.3s-2.4-0.4-3.3-1.3c-0.9-0.9-1.3-2-1.3-3.3V74.8H460.1z"/>
</g>
</svg>