<svg id="图层_1" data-name="图层 1" xmlns="http://www.w3.org/2000/svg" viewBox="0 0 1000 1000"><title>Airportal</title><path d="M250,875A125,125,0,0,1,125,750V625H375V875Z" style="fill:#064a8c"/><path d="M750,875A125,125,0,0,0,875,750V625H625V875Z" style="fill:#0078d4"/><rect x="125" y="375" width="250" height="250" style="fill:#0364b8"/><rect x="625" y="375" width="250" height="250" style="fill:#28a8ea"/><rect x="375" y="125" width="250" height="250" style="fill:#28a8ea"/><rect x="375" y="625" width="250" height="250" style="fill:#0364b8"/><path d="M250,125A125,125,0,0,0,125,250V375H375V125Z" style="fill:#0078d4"/><path d="M750,125A125,125,0,0,1,875,250V375H625V125Z" style="fill:#50d9ff"/><rect width="1000" height="1000" style="fill:none"/><rect x="375" y="375" width="250" height="250" style="fill:#0076d0"/><path d="M382.2611,391.8508c8.2772-15.6525,20.7437-23.6719,35.891-33.4158,32.74-21.061,67.7289-22.5942,82.9209-22.2772,7.8889.1646,57.1565,1.9184,99.01,38.3663,18.5851,16.1845,32.4217,28.2342,37.1287,48.2673,2.8321,12.0525,1.7143,24.25,11.1386,32.1782,7.1476,6.013,14.7044,4.8126,23.5149,6.1882,31.2939,4.8857,51.0434,37.9966,55.6931,45.7921,19.0725,31.9763,14.9532,63.523,13.6138,71.7821-1.5353,9.4673-7.844,40.2953-33.4158,61.8812-13.1737,11.12-30.7214,19.1646-111.3861,22.2772-26.5225,1.0234-61.4658,1.575-102.7228,0-18.6487.1617-45.0225.2715-76.7325,0-56.8889-.4875-63.4777-1.6241-70.5445-3.7128-30.4164-8.99-68.2432-35.1864-82.9209-80.4456-13.8716-42.7738-2.0391-87.0713,21.04-115.099,10.9956-13.3535,27.8045-33.767,53.2179-38.3663,9.7683-1.7679,20.99-1.2323,30.94-9.901C376.5425,408.4881,377.1969,401.4275,382.2611,391.8508Z" style="fill:#fff"/></svg>