<?xml version="1.0" encoding="utf-8"?>
<svg width="1000px" height="1000px" viewBox="0 0 1000 1000" version="1.1" xmlns:xlink="http://www.w3.org/1999/xlink" xmlns="http://www.w3.org/2000/svg">
  <path d="M0 0L1000 0L1000 1000L0 1000L0 0Z" id="矩形" fill="none" fill-rule="evenodd" stroke="none" />
  <g id="编组" transform="translate(100.34047 148)">
    <path d="M320.969 0L14.1544 589.324C14.1544 589.324 -17.693 654.784 14.1543 680.454C46.0016 706.125 83.9414 704.624 83.9414 704.624L202.495 704.624L512.348 565.022C512.348 565.022 522.981 583.248 533.613 589.324C544.246 595.4 569.503 570.291 576.137 558.944C612.342 497.01 603.481 446.549 603.481 446.549L178.194 634.89C178.194 634.89 139.522 641.389 123.513 622.736C110.571 607.657 120.475 580.208 120.475 580.208L372.611 82.0193L491.083 82.0193L570.066 246.058L451.592 306.813L424.252 261.247L343.752 446.549L682.459 297.7L533.613 0L320.969 0Z" id="矢量图" fill="#6262D2" fill-rule="evenodd" stroke="none" />
    <path d="M712.833 385.792L627.777 434.396L684.672 568.057C684.672 568.057 698.958 599.953 694.607 616.66C690.255 633.368 667.267 634.887 667.267 634.887L554.871 634.888C554.871 634.888 552.343 663.983 560.946 683.491C569.549 703 579.173 704.755 579.173 704.755L718.909 704.755C718.909 704.755 771.765 708.325 791.814 668.302C811.863 628.279 788.776 568.057 788.776 568.057L712.833 385.792Z" id="矢量图-2" fill="#6262D2" fill-rule="evenodd" stroke="none" />
  </g>
</svg>