<svg id="图层_1" data-name="图层 1" xmlns="http://www.w3.org/2000/svg" viewBox="0 0 1000 1000"><title>Ali-Drive</title><rect x="125" y="125" width="750" height="750" rx="90.0638" style="fill:#6a7dfd"/><path d="M687.9255,536.5488a219.7649,219.7649,0,0,0,1.0725-92.2465c-5.9514-29.025-23.36-83.3755-75.0844-124.4255-14.5191-11.5229-61.6687-45.7486-128.716-45.0506-74.5629.7763-141.0632,44.4043-175.9119,101.9-53.9867,89.0717-29.78,207.7465,40.76,278.8847,57.622,58.1106,144.0534,82.3756,225.253,62.2125,84.3145-20.9363,150.9846-86.7939,173.7666-171.6213Zm-53.6317,52.5591c-5.8131,6.92-46.7675,54.2145-112.6265,55.7769C457.8087,646.4,396.7509,604.6494,374.7166,544.0572c-15.8539-43.5965-14.1768-104.2917,24.67-145.8781,6.4538-6.9089,37.5366-38.5575,86.8833-39.6875,65.0684-1.49,102.4623,51.8508,105.1181,55.777,30.5152,45.1125,20.1675,93.5313,18.2347,101.9L665.4,529.04A156.8763,156.8763,0,0,1,634.2938,589.1079Z" style="fill:#fff"/><rect width="1000" height="1000" style="fill:none"/></svg>