<?xml version="1.0" encoding="utf-8"?>
<!-- Generator: Adobe Illustrator 23.0.1, SVG Export Plug-In . SVG Version: 6.00 Build 0)  -->
<svg version="1.1" id="图层_1" xmlns="http://www.w3.org/2000/svg" xmlns:xlink="http://www.w3.org/1999/xlink" x="0px" y="0px"
	 viewBox="0 0 1000 1000" style="enable-background:new 0 0 1000 1000;" xml:space="preserve">
<style type="text/css">
	.st0{fill:none;}
	.st1{fill:#FF6A00;}
</style>
<title>Ali-cloud</title>
<rect class="st0" width="1000" height="1000"/>
<path class="st1" d="M249.8,266.1h165.3l-39.9,56.5l-120.6,37c-21.8,6.9-36.5,27.2-36.4,50v180.9c-0.1,22.8,14.7,43.1,36.4,50
	l120.6,37l39.9,56.5H249.8c-69,0-124.8-55.9-124.8-124.8V391C125,322,180.9,266.1,249.8,266.1L249.8,266.1 M750.1,266.1H584.8
	l39.9,56.5l120.6,37c21.8,6.9,36.5,27.2,36.4,50v180.9c0.1,22.8-14.7,43.1-36.4,50l-120.6,37l-39.9,56.5h165.3
	c69,0,124.8-55.9,124.8-124.8V391C875.1,322,819.1,266.1,750.1,266.1L750.1,266.1 M624.9,526.9H375.1v-56.4h249.9V526.9z"/>
</svg>
