<svg id="图层_1" data-name="图层 1" xmlns="http://www.w3.org/2000/svg" viewBox="0 0 1000 1000"><title>AllHistory</title><circle cx="500" cy="500" r="500" style="fill:none"/><path id="Combined-Shape" d="M81.5209,763.7606h82.2266a12.0267,12.0267,0,0,0,9.9671-5.2963L475.12,312.1192a30.0671,30.0671,0,0,1,49.8376.003L828.07,761.1118a6.0132,6.0132,0,0,0,4.984,2.6488H918.48a9.02,9.02,0,0,0,7.3834-14.2016L536.9978,195.4365a45.1,45.1,0,0,0-73.8291-.0071L74.1385,749.5576a9.02,9.02,0,0,0,7.3824,14.203Z" style="fill-rule:evenodd"/><path d="M274.4476,763.7606h83.9672a9.02,9.02,0,0,0,8.0547-4.96l44.0191-87.3259H590.5737l47.57,92.2858h87.4083a6.0135,6.0135,0,0,0,5.2342-8.9739l-149.59-264.4784a12.1748,12.1748,0,0,0-22.7715,5.8824l-.95,103.8371H442.5808l-2.1183-104.9017a12.1748,12.1748,0,0,0-22.7975-5.6983L269.2,754.8113a6.0133,6.0133,0,0,0,5.2479,8.9493Z" style="fill:#fc644a;fill-rule:evenodd"/></svg>