<?xml version="1.0" encoding="utf-8"?>
<svg width="1000px" height="1000px" viewBox="0 0 1000 1000" version="1.1" xmlns:xlink="http://www.w3.org/1999/xlink" xmlns="http://www.w3.org/2000/svg">
  <path d="M0 0L1000 0L1000 1000L0 1000L0 0Z" id="矩形" fill="none" fill-rule="evenodd" stroke="none" />
  <g id="Group" transform="translate(161.99197 54.162292)">
    <path d="M49.354 276.604L49.424 276.26L49.124 276.078C46.715 274.616 45.141 273.348 44.037 271.726C43.134 270.401 42.524 268.808 42.06 266.615C43.445 267.796 45.055 268.594 46.412 269.118C47.298 269.459 48.087 269.688 48.657 269.832C48.942 269.904 49.172 269.955 49.332 269.988C49.413 270.005 49.475 270.017 49.519 270.025L49.569 270.034L49.583 270.036L49.587 270.037L49.588 270.037L49.589 270.037C49.589 270.037 49.589 270.037 49.672 269.544L49.589 270.037L50.48 270.187L50.134 269.354L50.134 269.353L50.134 269.353L50.134 269.353L50.134 269.353L50.132 269.348L50.121 269.321C50.112 269.296 50.097 269.257 50.079 269.206C50.042 269.102 49.99 268.947 49.933 268.745C49.818 268.343 49.68 267.76 49.594 267.047C49.46 265.942 49.45 264.534 49.832 263.007C50.454 264.511 51.255 265.691 52.334 266.558C53.722 267.673 55.509 268.221 57.81 268.346C62.746 269.525 68.884 273.792 74.835 279.423C80.639 284.915 86.199 291.64 90.203 297.879C88.132 298.772 85.066 299.064 82.557 298.273C80.95 295.476 78.476 292.605 75.794 290.12C73.057 287.584 70.074 285.424 67.524 284.144L66.916 283.839L66.806 284.51C66.333 287.402 64.669 292.064 62.313 295.7C61.136 297.519 59.808 299.043 58.404 299.97C57.013 300.888 55.579 301.201 54.116 300.68C51.723 299.828 49.849 297.188 48.916 292.982C47.988 288.798 48.026 283.179 49.354 276.604L49.354 276.604Z" id="形状" fill="#000000" stroke="#000000" stroke-width="1" />
    <path d="M151.937 558.832C162.358 579.331 190.029 598.618 218.136 604.423L218.087 604.233C186.172 590.735 158.82 565.23 152.937 545.832C163.287 562.779 188.034 580.154 213.835 587.771L181.437 462.332L68.437 469.832C92.666 531.576 139.496 574.384 184.102 598.016C167.728 585.526 155.622 570.981 151.937 558.832L151.937 558.832Z" id="形状" fill="#000000" fill-rule="evenodd" stroke="none" />
    <path d="M218.136 604.423L218.035 604.912L218.82 605.075L218.62 604.298L218.136 604.423L218.136 604.423ZM151.937 558.832L152.382 558.605L151.458 558.977L151.937 558.832L151.937 558.832ZM218.087 604.233L218.571 604.108L218.509 603.869L218.282 603.773L218.087 604.233L218.087 604.233ZM152.937 545.832L153.363 545.571L152.458 545.977L152.937 545.832L152.937 545.832ZM213.835 587.771L213.693 588.251L214.54 588.5L214.319 587.646L213.835 587.771L213.835 587.771ZM181.437 462.332L181.921 462.207L181.817 461.805L181.404 461.833L181.437 462.332L181.437 462.332ZM68.437 469.832L68.404 469.333L67.722 469.378L67.971 470.014L68.437 469.832L68.437 469.832ZM184.102 598.016L183.868 598.458L184.405 597.619L184.102 598.016L184.102 598.016ZM218.237 603.933C204.255 601.046 190.372 594.802 178.689 586.726C167.001 578.648 157.545 568.76 152.382 558.605L151.491 559.058C156.75 569.403 166.34 579.407 178.12 587.549C189.904 595.693 203.91 601.995 218.035 604.912L218.237 603.933L218.237 603.933ZM217.603 604.358L217.652 604.548L218.62 604.298L218.571 604.108L217.603 604.358L217.603 604.358ZM218.282 603.773C202.378 597.046 187.608 587.326 176.086 576.875C164.552 566.413 156.319 555.26 153.415 545.687L152.458 545.977C155.438 555.801 163.822 567.101 175.414 577.615C187.017 588.14 201.881 597.922 217.892 604.694L218.282 603.773L218.282 603.773ZM152.51 546.092C162.942 563.173 187.81 580.609 213.693 588.251L213.977 587.292C188.259 579.699 163.632 562.384 153.363 545.571L152.51 546.092L152.51 546.092ZM180.953 462.457L213.351 587.896L214.319 587.646L181.921 462.207L180.953 462.457L180.953 462.457ZM68.47 470.331L181.47 462.831L181.404 461.833L68.404 469.333L68.47 470.331L68.47 470.331ZM184.336 597.574C139.815 573.987 93.08 531.262 68.902 469.649L67.971 470.014C92.251 531.89 139.177 574.78 183.868 598.458L184.336 597.574L184.336 597.574ZM151.458 558.977C155.188 571.275 167.393 585.899 183.799 598.414L184.405 597.619C168.063 585.153 156.055 570.687 152.415 558.687L151.458 558.977L151.458 558.977Z" id="形状" fill="#000000" fill-rule="evenodd" stroke="none" />
    <path d="M51.684 186.048C60.931 144.264 88.184 99.5477 168.684 67.0476C222.452 45.34 345.476 50.5318 402.184 110.548C473.522 186.048 445.918 301.312 411.684 367.548C388.684 412.048 352.587 426.403 343.111 460.403C326.111 521.402 343.111 596.426 392.111 651.403C441.111 706.379 481.508 775.338 488.611 877.403L109.611 877.403C132.008 784.838 169.508 735.838 169.508 735.838C169.508 735.838 206.513 695.161 207.508 690.338C220.508 627.338 174.184 533.048 143.684 510.048C113.184 487.048 75.184 515.178 55.184 496.048C43.684 485.048 39.684 475.548 44.183 439.048C38.184 430.048 28.184 423.048 28.184 423.048C27.991 413.447 32.184 404.048 32.184 404.048C32.184 404.048 22.184 397.548 20.183 386.048C38.184 363.548 -3.06308 362.332 0.183022 325.548C13.184 319.548 39.437 302.832 48.184 284.548C62.879 253.832 42.437 227.832 51.684 186.048L51.684 186.048Z" id="形状" fill="#FFFFFF" stroke="#000000" stroke-width="6" />
    <path d="M43.116 212.565C2.33102 142.803 51.38 55.2176 128.437 53.3314C92.12 96.9637 42.438 156.703 48.437 220.832C47.768 219.883 47.118 218.931 46.485 217.975C40.248 194.213 42.45 177.717 47.117 163.519C37.158 167.988 36.392 194.949 43.116 212.565L43.116 212.565Z" id="形状" fill="#000000" fill-rule="evenodd" stroke="none" />
    <path d="M128.437 53.3314L128.821 53.6512L129.526 52.8045L128.424 52.8315L128.437 53.3314L128.437 53.3314ZM43.116 212.565L42.684 212.817L43.583 212.387L43.116 212.565L43.116 212.565ZM48.436 220.832L48.028 221.12L49.109 222.654L48.934 220.785L48.436 220.832L48.436 220.832ZM46.485 217.975L46.001 218.101L46.022 218.181L46.068 218.25L46.485 217.975L46.485 217.975ZM47.117 163.519L47.592 163.675L47.945 162.599L46.912 163.062L47.117 163.519L47.117 163.519ZM128.424 52.8315C50.974 54.7274 1.71402 142.738 42.684 212.817L43.548 212.313C2.94802 142.868 51.786 55.7078 128.449 53.8312L128.424 52.8315L128.424 52.8315ZM48.934 220.785C45.948 188.864 56.818 158.003 73.002 129.643C89.187 101.282 110.658 75.4722 128.821 53.6512L128.052 53.0115C109.898 74.8225 88.369 100.698 72.134 129.147C55.898 157.597 44.926 188.67 47.939 220.878L48.934 220.785L48.934 220.785ZM46.068 218.25C46.703 219.211 47.357 220.168 48.028 221.12L48.845 220.544C48.18 219.599 47.532 218.651 46.901 217.699L46.068 218.25L46.068 218.25ZM46.968 217.848C40.758 194.186 42.953 177.788 47.592 163.675L46.642 163.363C41.947 177.646 39.738 194.241 46.001 218.101L46.968 217.848L46.968 217.848ZM46.912 163.062C44.252 164.256 42.269 166.919 40.88 170.405C39.487 173.902 38.661 178.298 38.361 183.081C37.761 192.646 39.259 203.862 42.649 212.743L43.583 212.387C40.249 203.652 38.768 192.58 39.359 183.143C39.655 178.426 40.468 174.142 41.809 170.776C43.154 167.399 45.002 165.016 47.321 163.975L46.912 163.062L46.912 163.062Z" id="形状" fill="#000000" fill-rule="evenodd" stroke="none" />
    <path d="M665.776 295.745C640.958 308.65 603.076 310.145 584.937 304.675C583.561 303.937 582.188 303.196 580.815 302.456C579.188 301.578 577.562 300.702 575.937 299.832C577.617 301.781 580.751 303.413 584.937 304.675C611.922 319.151 639.781 332.528 675.736 317.922C658.759 346.52 613.918 349.231 607.937 338.832C607.354 348.17 641.13 378.688 676.182 376.452C672.002 402.193 661.103 417.832 642.437 417.832C646.622 425.968 652.949 429.647 661.697 430.915C652.766 439.437 642.599 445.025 627.438 440.832C627.438 454.298 636.346 468.41 649.047 477.393C647.227 480.382 645.328 483.297 643.35 486.14C640.821 487.429 638.042 490.127 634.768 493.307C627.663 500.205 618.223 509.371 603.936 511.332C596.907 510.25 592.972 516.906 588.787 523.984C584.422 531.367 579.785 539.209 571.081 539.209C565.95 539.209 560.684 538.445 555.366 537.674C546.485 536.385 537.459 535.075 528.681 537.27C523.938 538.456 519.778 540.748 515.677 543.007C510.016 546.127 504.466 549.186 497.644 549.186C496.391 549.186 495.149 549.167 493.918 549.148C487.413 549.049 481.193 548.954 475.059 551.68C472.199 552.951 470.571 556.148 468.985 559.262C467.289 562.593 465.641 565.827 462.589 566.506C458.964 567.311 454.775 564.332 450.916 561.588C448.901 560.154 446.976 558.785 445.269 558.054C443.051 557.103 436.551 568.609 444.437 577.332C439.715 578.748 413.762 573.098 407.854 571.812C407.505 571.736 407.227 571.676 407.026 571.632C391.437 568.278 389.849 574.648 398.99 583.332C395.34 582.743 390.24 581.335 384.956 579.877C369.308 575.559 352.061 570.799 366.205 585.579C358.241 585.749 350.151 585.831 341.937 585.831C210.437 511.332 184.437 375.332 160.437 220.332C68.937 220.332 44.437 184.832 68.437 82.3314C124.394 -8.00065 331.937 -32.1688 426.437 53.8313C459.836 84.2257 480.494 130.235 500.352 174.463C535.656 253.089 568.434 326.09 665.776 295.745L665.776 295.745Z" id="形状" fill="#000000" fill-rule="evenodd" stroke="none" />
    <path d="M665.776 295.745L666.007 296.189L665.627 295.268L665.776 295.745L665.776 295.745ZM580.816 302.456L581.053 302.016L580.816 302.456L580.816 302.456ZM575.937 299.832L576.173 299.391L575.558 300.158L575.937 299.832L575.937 299.832ZM675.736 317.922L676.166 318.178L676.925 316.9L675.548 317.459L675.736 317.922L675.736 317.922ZM607.937 338.832L608.37 338.582L607.541 337.141L607.438 338.801L607.937 338.832L607.937 338.832ZM676.182 376.452L676.676 376.532L676.776 375.913L676.15 375.953L676.182 376.452L676.182 376.452ZM642.437 417.832L642.437 417.332L641.618 417.332L641.992 418.06L642.437 417.832L642.437 417.832ZM661.697 430.915L662.042 431.277L662.786 430.568L661.769 430.42L661.697 430.915L661.697 430.915ZM627.438 440.832L627.571 440.35L626.938 440.175L626.938 440.832L627.438 440.832L627.438 440.832ZM649.047 477.393L649.474 477.653L649.716 477.255L649.335 476.985L649.047 477.393L649.047 477.393ZM643.35 486.14L643.577 486.585L643.689 486.528L643.76 486.426L643.35 486.14L643.35 486.14ZM634.768 493.307L635.116 493.665L634.768 493.307L634.768 493.307ZM603.936 511.332L603.86 511.826L603.932 511.837L604.004 511.827L603.936 511.332L603.936 511.332ZM588.787 523.984L588.357 523.729L588.787 523.984L588.787 523.984ZM555.366 537.674L555.438 537.179L555.366 537.674L555.366 537.674ZM528.681 537.27L528.803 537.755L528.681 537.27L528.681 537.27ZM515.677 543.007L515.919 543.445L515.677 543.007L515.677 543.007ZM493.918 549.148L493.91 549.648L493.918 549.148L493.918 549.148ZM475.059 551.68L475.262 552.137L475.059 551.68L475.059 551.68ZM468.985 559.262L468.54 559.035L468.985 559.262L468.985 559.262ZM462.589 566.506L462.697 566.994L462.697 566.994L462.589 566.506L462.589 566.506ZM450.917 561.588L450.627 561.995L450.917 561.588L450.917 561.588ZM445.269 558.054L445.072 558.513L445.072 558.513L445.269 558.054L445.269 558.054ZM444.437 577.332L444.581 577.811L445.338 577.583L444.808 576.996L444.437 577.332L444.437 577.332ZM407.854 571.812L407.96 571.324L407.96 571.324L407.854 571.812L407.854 571.812ZM407.026 571.632L406.921 572.121L407.026 571.632L407.026 571.632ZM398.99 583.332L398.91 583.825L400.506 584.083L399.334 582.969L398.99 583.332L398.99 583.332ZM384.956 579.877L384.823 580.359L384.956 579.877L384.956 579.877ZM366.205 585.579L366.216 586.079L367.352 586.055L366.566 585.234L366.205 585.579L366.205 585.579ZM341.937 585.831L341.691 586.266L341.805 586.331L341.937 586.331L341.937 585.831L341.937 585.831ZM160.437 220.332L160.931 220.255L160.865 219.832L160.437 219.832L160.437 220.332L160.437 220.332ZM68.437 82.3314L68.012 82.0681L67.969 82.1377L67.95 82.2174L68.437 82.3314L68.437 82.3314ZM426.437 53.8313L426.774 53.4615L426.437 53.8313L426.437 53.8313ZM500.352 174.463L499.896 174.668L500.352 174.463L500.352 174.463ZM584.793 305.154C593.945 307.914 608.02 308.905 622.896 307.599C637.776 306.292 653.521 302.681 666.007 296.189L665.545 295.301C653.213 301.714 637.608 305.303 622.808 306.602C608.004 307.902 594.068 306.906 585.081 304.197L584.793 305.154L584.793 305.154ZM580.578 302.896C581.95 303.636 583.324 304.378 584.701 305.116L585.173 304.235C583.798 303.497 582.425 302.756 581.053 302.016L580.578 302.896L580.578 302.896ZM575.701 300.273C577.326 301.142 578.951 302.018 580.578 302.896L581.053 302.016C579.426 301.138 577.799 300.261 576.173 299.391L575.701 300.273L575.701 300.273ZM585.081 304.197C580.921 302.942 577.901 301.344 576.316 299.505L575.558 300.158C577.334 302.217 580.582 303.884 584.793 305.154L585.081 304.197L585.081 304.197ZM675.548 317.459C639.824 331.971 612.155 318.708 585.173 304.235L584.701 305.116C611.689 319.593 639.738 333.085 675.924 318.386L675.548 317.459L675.548 317.459ZM607.503 339.081C608.32 340.5 609.772 341.653 611.657 342.544C613.547 343.437 615.907 344.083 618.595 344.468C623.973 345.239 630.729 344.976 637.815 343.49C651.979 340.52 667.582 332.637 676.166 318.178L675.306 317.667C666.913 331.805 651.606 339.576 637.61 342.511C630.616 343.978 623.98 344.23 618.737 343.478C616.116 343.103 613.859 342.478 612.084 341.64C610.306 340.8 609.049 339.763 608.37 338.582L607.503 339.081L607.503 339.081ZM676.15 375.953C658.772 377.062 641.673 370.048 628.974 361.567C622.628 357.328 617.4 352.736 613.801 348.634C612.001 346.583 610.617 344.664 609.704 342.982C608.783 341.287 608.372 339.89 608.436 338.863L607.438 338.801C607.356 340.108 607.873 341.707 608.825 343.46C609.784 345.226 611.217 347.206 613.049 349.294C616.715 353.471 622.012 358.119 628.419 362.398C641.225 370.951 658.541 378.079 676.214 376.951L676.15 375.953L676.15 375.953ZM642.437 418.332C651.933 418.332 659.466 414.344 665.136 407.103C670.789 399.883 674.579 389.445 676.676 376.532L675.689 376.372C673.606 389.2 669.856 399.452 664.348 406.486C658.856 413.5 651.607 417.332 642.437 417.332L642.437 418.332L642.437 418.332ZM661.769 430.42C657.445 429.794 653.751 428.576 650.63 426.531C647.512 424.489 644.939 421.604 642.882 417.603L641.992 418.06C644.12 422.196 646.803 425.219 650.082 427.368C653.357 429.513 657.201 430.769 661.625 431.41L661.769 430.42L661.769 430.42ZM627.304 441.314C634.975 443.435 641.411 443.088 647.068 441.114C652.716 439.143 657.55 435.563 662.042 431.277L661.352 430.553C656.912 434.789 652.198 438.264 646.739 440.17C641.29 442.072 635.062 442.422 627.571 440.35L627.304 441.314L627.304 441.314ZM649.335 476.985C636.726 468.066 627.938 454.09 627.938 440.832L626.938 440.832C626.938 454.506 635.967 468.754 648.758 477.802L649.335 476.985L649.335 476.985ZM643.76 486.426C645.744 483.574 647.649 480.65 649.474 477.653L648.62 477.133C646.805 480.113 644.912 483.019 642.939 485.854L643.76 486.426L643.76 486.426ZM643.123 485.695C640.511 487.026 637.67 489.791 634.419 492.948L635.116 493.665C638.414 490.463 641.131 487.832 643.577 486.585L643.123 485.695L643.123 485.695ZM634.419 492.948C627.305 499.855 617.973 508.9 603.868 510.836L604.004 511.827C618.473 509.841 628.02 500.555 635.116 493.665L634.419 492.948L634.419 492.948ZM604.012 510.838C600.291 510.265 597.399 511.758 594.939 514.246C592.502 516.713 590.44 520.206 588.357 523.729L589.218 524.238C591.319 520.683 593.317 517.31 595.651 514.949C597.962 512.611 600.552 511.317 603.86 511.826L604.012 510.838L604.012 510.838ZM588.357 523.729C586.167 527.433 583.946 531.184 581.202 534.017C578.473 536.835 575.259 538.709 571.081 538.709L571.081 539.709C575.607 539.709 579.064 537.662 581.92 534.713C584.762 531.779 587.042 527.917 589.218 524.238L588.357 523.729L588.357 523.729ZM571.081 538.709C565.993 538.709 560.763 537.951 555.438 537.179L555.294 538.168C560.605 538.939 565.908 539.709 571.081 539.709L571.081 538.709L571.081 538.709ZM555.438 537.179C546.575 535.893 537.449 534.562 528.56 536.785L528.803 537.755C537.469 535.588 546.395 536.877 555.294 538.168L555.438 537.179L555.438 537.179ZM528.56 536.785C523.743 537.989 519.528 540.314 515.436 542.569L515.919 543.445C520.028 541.181 524.132 538.922 528.803 537.755L528.56 536.785L528.56 536.785ZM515.436 542.569C509.758 545.698 504.318 548.686 497.644 548.686L497.644 549.686C504.614 549.686 510.273 546.556 515.919 543.445L515.436 542.569L515.436 542.569ZM497.644 548.686C496.395 548.686 495.157 548.667 493.925 548.648L493.91 549.648C495.141 549.667 496.386 549.686 497.644 549.686L497.644 548.686L497.644 548.686ZM493.925 548.648C487.436 548.549 481.106 548.445 474.856 551.223L475.262 552.137C481.28 549.462 487.389 549.548 493.91 549.648L493.925 548.648L493.925 548.648ZM474.856 551.223C473.314 551.908 472.128 553.102 471.138 554.489C470.149 555.873 469.329 557.485 468.54 559.035L469.431 559.489C470.227 557.925 471.014 556.382 471.951 555.07C472.886 553.762 473.944 552.722 475.262 552.137L474.856 551.223L474.856 551.223ZM468.54 559.035C467.686 560.711 466.871 562.308 465.899 563.574C464.933 564.833 463.849 565.713 462.48 566.018L462.697 566.994C464.381 566.62 465.648 565.544 466.692 564.183C467.731 562.829 468.588 561.144 469.431 559.489L468.54 559.035L468.54 559.035ZM462.48 566.018C460.835 566.383 459.009 565.899 457.063 564.93C455.122 563.964 453.143 562.558 451.206 561.18L450.627 561.995C452.548 563.362 454.593 564.817 456.617 565.825C458.637 566.831 460.718 567.434 462.697 566.994L462.48 566.018L462.48 566.018ZM451.206 561.18C449.206 559.758 447.233 558.351 445.466 557.594L445.072 558.513C446.719 559.219 448.595 560.551 450.627 561.995L451.206 561.18L451.206 561.18ZM445.466 557.594C444.963 557.379 444.433 557.554 444.002 557.831C443.558 558.116 443.111 558.573 442.692 559.141C441.849 560.283 441.049 561.969 440.577 563.949C439.632 567.919 439.988 573.157 444.066 577.667L444.808 576.996C441 572.784 440.663 567.907 441.55 564.181C441.995 562.314 442.743 560.755 443.496 559.735C443.875 559.222 444.238 558.868 444.543 558.672C444.861 558.467 445.02 558.491 445.072 558.513L445.466 557.594L445.466 557.594ZM444.293 576.853C443.783 577.006 442.927 577.075 441.761 577.054C440.609 577.033 439.201 576.925 437.614 576.751C434.441 576.402 430.583 575.791 426.678 575.093C418.872 573.699 410.914 571.967 407.96 571.324L407.748 572.301C410.702 572.944 418.675 574.68 426.503 576.078C430.415 576.777 434.299 577.392 437.505 577.745C439.108 577.921 440.548 578.032 441.743 578.054C442.922 578.075 443.911 578.012 444.581 577.811L444.293 576.853L444.293 576.853ZM407.96 571.324C407.612 571.248 407.333 571.187 407.131 571.144L406.921 572.121C407.121 572.164 407.399 572.225 407.748 572.301L407.96 571.324L407.96 571.324ZM407.131 571.144C403.208 570.299 400.125 570.057 397.849 570.328C395.587 570.596 394.008 571.389 393.293 572.733C392.578 574.075 392.828 575.77 393.751 577.594C394.679 579.431 396.338 581.503 398.645 583.694L399.334 582.969C397.071 580.819 395.5 578.838 394.643 577.143C393.779 575.435 393.687 574.119 394.175 573.203C394.663 572.288 395.833 571.574 397.967 571.321C400.088 571.069 403.049 571.288 406.921 572.121L407.131 571.144L407.131 571.144ZM399.069 582.838C395.454 582.255 390.384 580.857 385.09 579.395L384.823 580.359C390.095 581.814 395.227 583.231 398.91 583.825L399.069 582.838L399.069 582.838ZM385.09 579.395C381.18 578.317 377.157 577.206 373.547 576.381C369.949 575.558 366.714 575.006 364.395 575.066C363.243 575.096 362.243 575.278 361.534 575.716C361.17 575.94 360.876 576.236 360.687 576.614C360.499 576.993 360.431 577.421 360.469 577.886C360.543 578.797 361.026 579.893 361.892 581.191C362.766 582.501 364.065 584.066 365.844 585.925L366.566 585.234C364.809 583.397 363.553 581.878 362.724 580.636C361.887 579.382 361.519 578.459 361.466 577.805C361.44 577.487 361.489 577.247 361.582 577.061C361.675 576.875 361.827 576.709 362.059 576.567C362.54 576.27 363.324 576.095 364.421 576.066C366.602 576.009 369.729 576.533 373.324 577.355C376.908 578.175 380.909 579.279 384.823 580.359L385.09 579.395L385.09 579.395ZM341.937 586.331C350.155 586.331 358.248 586.249 366.216 586.079L366.194 585.079C358.235 585.249 350.148 585.331 341.937 585.331L341.937 586.331L341.937 586.331ZM159.943 220.408C183.937 375.371 209.951 511.631 341.691 586.266L342.184 585.396C210.922 511.032 184.937 375.292 160.931 220.255L159.943 220.408L159.943 220.408ZM67.95 82.2174C55.95 133.469 56.017 168.166 70.709 190.048C85.424 211.962 114.667 220.832 160.437 220.832L160.437 219.832C114.707 219.832 85.95 210.951 71.54 189.49C57.107 167.997 56.924 133.695 68.924 82.4454L67.95 82.2174L67.95 82.2174ZM426.774 53.4615C379.382 10.3322 303.709 -5.13189 232.937 1.45901C162.181 8.04841 96.112 36.7058 68.012 82.0681L68.862 82.5947C96.719 37.625 162.4 9.03231 233.03 2.45461C303.644 -4.12149 378.992 11.3303 426.1 54.2011L426.774 53.4615L426.774 53.4615ZM500.809 174.258C480.961 130.054 460.264 83.9397 426.774 53.4615L426.1 54.2011C459.408 84.5127 480.027 130.415 499.896 174.668L500.809 174.258L500.809 174.258ZM665.627 295.268C641.353 302.835 621.143 303.947 603.934 300.165C586.728 296.384 572.483 287.701 560.15 275.611C535.456 251.406 518.473 213.599 500.809 174.258L499.896 174.668C517.536 213.953 534.593 251.96 559.45 276.325C571.892 288.521 586.299 297.313 603.719 301.142C621.137 304.97 641.527 303.828 665.925 296.222L665.627 295.268L665.627 295.268Z" id="形状" fill="#000000" fill-rule="evenodd" stroke="none" />
    <path d="M177.437 325.332C149.437 300.832 134.937 248.186 131.437 216.332L144.437 216.332C144.437 216.332 156.937 299.332 177.437 325.332L177.437 325.332Z" id="形状" fill="#000000" stroke="none" />
    <path d="M124.437 221.332C100.694 221.483 77.777 203.925 72.437 190.567C72.942 190.188 80.479 186.79 80.479 186.79C79.522 189.708 103.264 219.479 124.437 221.332L124.437 221.332Z" id="形状" fill="#000000" stroke="none" />
    <path d="M177.437 297.332C154.103 278.451 147.687 247.646 142.437 218.332L162.853 218.332C162.853 218.332 164.603 262.552 177.437 297.332L177.437 297.332Z" id="形状" fill="#000000" stroke="none" />
    <path d="M51.911 408.181C51.695 408.139 51.472 408.096 51.241 408.054C49.07 407.653 46.25 407.23 43.297 407.158C43.51 406.944 43.714 406.84 43.85 406.832C47.052 407.128 49.878 407.651 51.911 408.181L51.911 408.181Z" id="形状" fill="#000000" stroke="#000000" stroke-width="1" />
    <path d="M27.163 357.698C27.116 357.739 27.072 357.774 27.033 357.8C24.607 356.225 22.413 353.797 20.898 351.636C20.582 351.185 20.297 350.748 20.047 350.337C21.332 351.912 23.527 354.22 27.353 357.491C27.303 357.56 27.237 357.632 27.163 357.698L27.163 357.698Z" id="形状" fill="#000000" stroke="#000000" stroke-width="1" />
    <path d="M24.015 356.193C24.226 356.362 24.455 356.542 24.702 356.734C24.701 356.735 24.699 356.737 24.698 356.738C24.461 356.567 24.233 356.383 24.015 356.193L24.015 356.193Z" id="形状" fill="#000000" stroke="#000000" stroke-width="1" />
    <path d="M253.393 291.709C301.989 284.118 297.999 323.527 273.654 364.377C273.654 364.377 262.239 360.879 261.013 357.488C252.724 334.558 253.393 291.709 253.393 291.709L253.393 291.709Z" id="形状" fill="#FFFFFF" stroke="#000000" stroke-width="3" />
    <path d="M508.437 888.831C420.937 895.331 103.008 888.831 103.008 888.831C103.008 888.831 103.008 833.838 155.008 737.338C160.508 730.338 181.008 715.338 207.008 683.338C207.008 695.338 189.464 714.26 196.508 718.338C215.508 729.338 261.008 645.838 378.508 627.338C439.008 691.838 508.437 810.831 508.437 888.831L508.437 888.831Z" id="形状" fill="#FFFFFF" stroke="#000000" stroke-width="4" />
    <path d="M177.008 718.338C179.008 716.338 188.008 706.838 190.508 704.338C182.508 715.838 183.508 725.284 192.508 730.338C217.508 744.377 281.508 643.838 384.508 634.838C386.508 637.338 395.008 646.338 397.508 649.338C275.508 666.838 224.008 774.837 180.008 745.109C172.508 740.042 169.008 728.838 177.008 718.338L177.008 718.338Z" id="形状" fill="#000000" stroke="#000000" stroke-width="1" />
    <path d="M81.769 275.703L81.858 275.363L81.568 275.165C79.245 273.571 77.744 272.218 76.731 270.537C75.904 269.164 75.383 267.539 75.041 265.324C76.358 266.581 77.921 267.466 79.247 268.064C80.113 268.455 80.889 268.727 81.449 268.903C81.73 268.99 81.957 269.054 82.115 269.096C82.194 269.117 82.256 269.132 82.299 269.143L82.349 269.155L82.363 269.158L82.367 269.159L82.368 269.159L82.368 269.159C82.368 269.159 82.369 269.159 82.479 268.672L82.369 269.159L83.25 269.358L82.951 268.507L82.951 268.507L82.951 268.506L82.951 268.506L82.951 268.506L82.949 268.501L82.94 268.474C82.932 268.448 82.919 268.409 82.904 268.356C82.873 268.251 82.83 268.093 82.784 267.889C82.691 267.48 82.586 266.89 82.539 266.174C82.467 265.063 82.535 263.657 83.002 262.153C83.539 263.689 84.273 264.912 85.303 265.838C86.626 267.028 88.38 267.675 90.671 267.927C95.534 269.379 101.425 273.98 107.055 279.933C112.544 285.738 117.722 292.763 121.374 299.214C119.255 299.991 116.178 300.112 113.717 299.182C112.268 296.301 109.958 293.297 107.417 290.667C104.826 287.983 101.967 285.661 99.492 284.241L98.902 283.902L98.755 284.566C98.122 287.427 96.202 291.99 93.648 295.49C92.371 297.24 90.961 298.688 89.507 299.535C88.067 300.374 86.618 300.608 85.186 300.006C82.845 299.022 81.119 296.282 80.422 292.031C79.728 287.802 80.078 282.194 81.769 275.703L81.769 275.703Z" id="形状" fill="#000000" stroke="#000000" stroke-width="1" />
    <path d="M103.618 268.709C108.885 272.226 112.205 275.483 115.269 279.557C111.807 275.992 107.895 272.756 102.586 268.847C102.621 268.828 102.658 268.809 102.696 268.791C103.093 268.597 103.407 268.568 103.618 268.709L103.618 268.709Z" id="形状" fill="#000000" stroke="#000000" stroke-width="1" />
    <path d="M136.807 251.852C127.876 246.367 115.214 240.447 102.804 236.203C96.387 234.008 90.027 232.258 84.277 231.249C78.774 230.284 73.795 229.99 69.849 230.658C69.837 230.564 69.824 230.459 69.812 230.344C69.761 229.843 69.723 229.155 69.777 228.405C69.887 226.882 70.365 225.217 71.729 224.238L71.437 223.832L71.729 224.238C72.403 223.753 73.661 223.482 75.501 223.498C77.313 223.514 79.595 223.807 82.226 224.35C87.486 225.436 94.082 227.509 101 230.294C114.169 235.593 128.411 243.431 136.807 251.852L136.807 251.852Z" id="形状" fill="#000000" stroke="#000000" stroke-width="1" />
  </g>
</svg>