<svg id="图层_1" data-name="图层 1" xmlns="http://www.w3.org/2000/svg" viewBox="0 0 1000 1000"><title>Baidu-Translator</title><rect x="125" y="125" width="750" height="750" rx="90.0638" style="fill:#1488f5"/><path d="M312.5375,435.35h59.775l12.9-16.2,24.225,21-14.55,11.325V598.55l51.75-54.975,4.875,3.225q-22.6125,35.55-37.2,56.55c-9.675,14.025-17.25,27.45-22.65,40.4251l-24.225-24.225c5.4-5.4,7.5-12.375,6.45-21V445.025h-16.2c-8.625,0-18.9,1.65-30.675,4.875Zm40.425-116.4,4.875-3.225c17.25,10.8,29.85,20.25,37.95,28.275,8.1,8.1,11.025,16.425,8.925,25.05-2.175,8.625-6.45,15.075-12.9,19.425s-10.8-1.05-12.9-16.2q-4.95-20.925-25.95-53.325Zm84,12.975h163.275l14.55-16.2,27.45,25.875-16.2,6.45q-38.8125,51.75-61.425,74.325,46.9125,29.1375,122.85,32.325v6.45q-24.3,3.2625-29.1,22.65Q600.2,469.2875,546.8375,435.275a352.29,352.29,0,0,1-135.75,61.425l-1.65-4.875q72.7875-25.875,121.2-69.525-35.55-37.125-56.55-80.85c-5.4,0-12.9,1.65-22.65,4.875Zm100.275,352.35q1.575-53.325,1.65-101.85h-48.525a138.8355,138.8355,0,0,0-37.2,4.875l-14.55-14.55h100.2V517.775h-37.2c-8.625,0-18.9,1.65-30.675,4.875l-14.55-14.55h82.425q0-37.125-1.65-53.325l37.2,16.2-12.9,12.9V508.1h46.875l21-19.425,27.45,29.1h-95.325V572.75h74.325l22.65-21,27.45,30.675H561.4625q0,59.85,1.65,90.525ZM482.2625,341.6q22.6125,35.55,64.65,67.875Q579.2,377.1875,600.2375,341.6Z" style="fill:#fff"/><rect width="1000" height="1000" style="fill:none"/></svg>