<svg id="图层_1" data-name="图层 1" xmlns="http://www.w3.org/2000/svg" viewBox="0 0 1000 1000"><title>Baidu</title><rect width="1000" height="1000" style="fill:none"/><path d="M336.0678,152c-45.125,0-81.6875,51.8126-81.6875,115.8439,0,64.0938,36.5937,115.9376,81.7188,115.9376,45.1875,0,81.6876-51.8438,81.6876-115.9376C417.7554,203.8126,381.2554,152,336.0678,152Zm219.5315,18.5625c-41.2188-.4375-88.5,62.3438-93.0938,104.1564-5.8438,54.5313,7.8125,108.9688,68.0938,116.7188C591.0056,399.25,629.8181,335,637.5368,286.3126c7.8751-48.5938-31.0938-105.1251-73.8125-114.8126a38.0592,38.0592,0,0,0-8.1563-.9375ZM161.9427,324.9689q-2.4405.0573-4.875.25c-66.1876,5.9375-75.8751,101.25-75.8751,101.25C72.2238,470.5315,102.63,564.75,184.2239,547.2189c81.7814-17.5312,70.6876-115,68.2189-136.3126C248.5365,379.094,212.0677,324.25,161.9427,324.9689ZM678.6307,379.75c-72.1251,0-81.7813,66.2188-81.7813,113,0,44.6876,3.7812,107.0314,93.375,105.0627s79.7813-101.1876,79.7813-124.6252C770.0057,449.9066,750.6307,379.75,678.6307,379.75Zm-258.25,77.4376c-44.5.4375-84.6251,28.9063-103.8439,60.8438-34.9375,58.375-89.4688,95.3126-97.25,105.0938-7.8125,9.6563-112.8126,66.1251-89.5,169.3752,23.3122,103.1565,105.156,101.1565,105.156,101.1565s60.3125,5.9375,130.3438-9.6875c70-15.4688,130.3127,3.8437,130.3127,3.8437s163.5314,54.6251,208.2814-50.5c44.6875-105.1251-25.25-159.6564-25.25-159.6564s-93.4375-72.0625-148-149.9376c-33.5-52.0313-73.3753-70.8751-110.25-70.5313Zm-69.8126,120,48.1875.75V834.0944H292.4428c-45.9375-9.0938-64.2188-40.375-66.5626-45.6875-2.25-5.4063-15.25-30.5-8.375-73.2189,19.8438-64.0313,76.4688-68.625,76.4688-68.625h56.5626ZM474.443,651.8755V773.1569c3,12.9062,19.125,15.25,19.125,15.25h50.4376V652.688h52.7812V833.3757H474.443c-47.4063-12.1875-49.6876-45.7813-49.6876-45.7813V652.688ZM303.88,687.7193c-20.625,6.1562-30.5625,22.125-32.8125,29-2.375,6.875-7.7188,24.375-3.125,39.6563,9.1875,34.2188,39,35.75,39,35.75h42.8126V687.7506Z" transform="translate(75 -27)" style="fill:#2932e1"/></svg>