<svg id="图层_1" data-name="图层 1" xmlns="http://www.w3.org/2000/svg" viewBox="0 0 1000 1000"><title>Baidu-Drive</title><path d="M723.7453,420.9826a210.8257,210.8257,0,0,0,5.1835-46.5519c0-116.067-94.0908-210.1578-210.1578-210.1578S308.6132,258.3637,308.6132,374.4307a211.1373,211.1373,0,0,0,4.0125,41.012c-.8229-.01-1.6428-.0312-2.4679-.0312C194.0908,415.4115,100,509.5023,100,625.5693s94.0908,210.1578,210.1578,210.1578c94.0141,0,173.6019-61.7363,200.4545-146.8774,18.0912-40.7979,19.4163-58.0229,30.7191-77.9914a112.0086,112.0086,0,0,1,27.8969-32.3823,210.1569,210.1569,0,0,0,110.9062-69.414,76.1774,76.1774,0,0,0,9.7866,1.9507c64.1923,8.5316,115.4349,36.6105,114.8023,120.0459s-94.6476,113.5526-164.67,60.12c-28.6455-21.8588-58.6532-14.7352-71.6557,16.3522s5.2474,53.302,34.0074,75.0221c127.822,96.5334,298.134-5.0365,297.5933-146.1528C899.51,508.8874,826.959,440.3175,723.7453,420.9826ZM310.1578,741.1561A115.5868,115.5868,0,1,1,425.7446,625.5693,115.5868,115.5868,0,0,1,310.1578,741.1561ZM518.771,490.0175A115.5868,115.5868,0,1,1,634.3578,374.4307,115.5868,115.5868,0,0,1,518.771,490.0175Z" style="fill:#2fc9ff"/><path d="M681.0864,327.1452a47.2855,47.2855,0,0,0-47.2855,47.2855,115.5868,115.5868,0,1,1-231.1736,0,47.2856,47.2856,0,0,0-94.5711,0c0,116.0669,94.0908,210.1578,210.1579,210.1578s210.1578-94.0909,210.1578-210.1578A47.2855,47.2855,0,0,0,681.0864,327.1452Z" style="fill:#ff5b75;isolation:isolate"/><rect width="1000" height="1000" style="fill:none"/></svg>