<svg id="图层_1" data-name="图层 1" xmlns="http://www.w3.org/2000/svg" viewBox="0 0 1415 1415"><title>Beautiful.ai</title><circle cx="707.5" cy="707.5" r="707.5" style="fill:none"/><rect x="207.5" y="207.5" width="1000" height="1000" style="fill:#168ef9"/><path d="M592.7864,598.8685q0,100.5658-48.5148,150.9194-48.5856,50.2828-117.9633,50.3536c-25.46,0-47.3833-4.6676-65.9123-13.8614s-34.6534-24.1867-48.5148-45.12v52.0509H242.5743V200h69.3069V456.7185c13.8614-20.7921,30.1273-36.3508,48.5148-46.8175,18.529-10.4668,40.4526-15.5587,65.9123-15.5587q69.3777,0,117.9633,52.0509Q592.6449,498.1612,592.7864,598.8685Zm-76.379,0c0-43.8472-8.6281-78.6421-26.0255-104.1019s-43.4229-38.19-78.0764-38.19q-41.5842,0-71.1457,38.19c-19.6605,25.46-29.5615,60.1132-29.42,104.1019q0,65.9829,29.42,102.2631c19.6606,24.3281,43.2815,36.3508,71.1457,36.3508q51.98,0,78.0764-36.3508C507.7794,676.9448,516.4074,642.7157,516.4074,598.8685Z" transform="translate(207.5 207.5)" style="fill:#fff"/><circle cx="955.0248" cy="957.5707" r="49.9293" style="fill:#fff"/></svg>