<?xml version="1.0" encoding="utf-8"?>
<!-- Generator: Adobe Illustrator 23.0.1, SVG Export Plug-In . SVG Version: 6.00 Build 0)  -->
<svg version="1.1" id="图层_1" xmlns="http://www.w3.org/2000/svg" xmlns:xlink="http://www.w3.org/1999/xlink" x="0px" y="0px"
	 viewBox="0 0 1000 1000" style="enable-background:new 0 0 1000 1000;" xml:space="preserve">
<style type="text/css">
	.st0{fill:none;}
	.st1{fill:#00A1D6;}
</style>
<title>Bilibili</title>
<circle class="st0" cx="500" cy="500" r="500"/>
<path class="st1" d="M693.8,255.1h28.5c50.3,1.8,92.3,19.3,125.8,52.5c33.5,33.2,50.8,74.9,52,125.3v245.3
	c-1.2,50.3-18.5,92.3-52,125.8c-33.5,33.5-75.4,50.8-125.8,52H277.8c-50.3-1.2-92.3-18.5-125.8-52c-33.5-33.5-50.8-75.4-52-125.8
	V432.9c1.2-50.4,18.5-92.1,52-125.3c33.5-33.2,75.4-50.7,125.8-52.5h25.8l-39.1-37.3c-16.6-16.7-16.6-43.7,0-60.4l0.9-0.9
	c8.9-8.3,19.1-12.4,30.7-12.4c11.6,0,21.8,4.1,30.7,12.4l95.1,91.6c2.2,2.2,4.3,4.6,6.2,7.1h142.2c1.4-2.6,3.2-5,5.3-7.1l95.1-91.6
	c8.9-8.3,19.1-12.4,30.7-12.4c11.6,0,22.1,5,31,13.3s13,18.4,13,30.2c0.2,11.4-4.3,22.3-12.4,30.2L693.8,255.1z M277.8,341.3
	c-24.9,0.6-45.8,9.2-62.7,25.8c-16.9,16.6-25.6,37.6-26.2,63.1v250.7c0.6,25.5,9.3,46.5,26.2,63.1s37.8,25.2,62.7,25.8h444.5
	c24.9-0.6,45.8-9.2,62.7-25.8c16.9-16.6,25.6-37.6,26.2-63.1V430.2c-0.6-25.5-9.3-46.5-26.2-63.1c-16.9-16.6-37.8-25.2-62.7-25.8
	H277.8z M366.7,470.2c12.4,0,22.8,4.1,31.1,12.4c8.3,8.3,12.8,19,13.3,32v39.1c-0.6,13-5,23.7-13.3,32c-8.3,8.3-18.7,12.5-31.1,12.5
	c-12.4,0-22.8-4.2-31.1-12.5c-8.3-8.3-12.8-19-13.3-32v-39.1c-0.3-24.3,19.2-44.2,43.4-44.4C366,470.2,366.3,470.2,366.7,470.2
	L366.7,470.2z M633.3,470.2c12.4,0,22.8,4.1,31.1,12.4c8.3,8.3,12.8,19,13.3,32v39.1c-0.6,13-5,23.7-13.3,32
	c-8.3,8.3-18.7,12.5-31.1,12.5c-12.4,0-22.8-4.2-31.1-12.5c-8.3-8.3-12.8-19-13.3-32v-39.1c0.6-13,5-23.7,13.3-32
	C610.5,474.4,620.9,470.2,633.3,470.2z"/>
</svg>
