<svg id="图层_1" data-name="图层 1" xmlns="http://www.w3.org/2000/svg" viewBox="0 0 1000 1000"><title>Caoliao-QRcode</title><rect width="1000" height="1000" style="fill:none"/><path d="M462.6093,174.23a94.6129,94.6129,0,0,0-21.0782-28.5157,98.6315,98.6315,0,0,0-33.7252-20.3685H180.161a58.0625,58.0625,0,0,0-12.6469,0c-5.7991.6385-19.0312,2.0956-29.51,12.2211s-11.9862,22.912-12.6469,28.5158a52.41,52.41,0,0,0,0,12.221V398.2822a66.7091,66.7091,0,0,0,21.0782,36.6632A70.3331,70.3331,0,0,0,180.161,451.24l307.7422,36.6631ZM248.0781,351.233a27.6507,27.6507,0,0,1-13.2586-6.4059,26.2278,26.2278,0,0,1-8.2864-14.4135v-86.48a20.594,20.594,0,0,1,0-4.8044c.26-2.203.8525-7.23,4.9719-11.21s9.3213-4.5535,11.6012-4.8044a22.8117,22.8117,0,0,1,4.9719,0h89.4942a38.7707,38.7707,0,0,1,13.2583,8.0074,37.1927,37.1927,0,0,1,8.2865,11.21q4.9717,61.6576,9.9439,123.3149Q308.5693,358.4394,248.0781,351.233Z" style="fill:#00a13b"/><path d="M537.3907,174.23a94.6129,94.6129,0,0,1,21.0782-28.5157,98.6315,98.6315,0,0,1,33.7252-20.3685H819.839a58.0625,58.0625,0,0,1,12.6469,0c5.7991.6385,19.0312,2.0956,29.51,12.2211s11.9862,22.912,12.6469,28.5158a52.41,52.41,0,0,1,0,12.221V398.2822a66.7091,66.7091,0,0,1-21.0782,36.6632A70.3331,70.3331,0,0,1,819.839,451.24L512.0968,487.9032ZM751.9219,351.233a27.6507,27.6507,0,0,0,13.2586-6.4059,26.2278,26.2278,0,0,0,8.2864-14.4135v-86.48a20.594,20.594,0,0,0,0-4.8044c-.26-2.203-.8525-7.23-4.9719-11.21s-9.3213-4.5535-11.6012-4.8044a22.8117,22.8117,0,0,0-4.9719,0H662.4277a38.7707,38.7707,0,0,0-13.2583,8.0074,37.1927,37.1927,0,0,0-8.2865,11.21q-4.9717,61.6576-9.9439,123.3149Q691.4307,358.4394,751.9219,351.233Z" style="fill:#77be31"/><path d="M462.6093,825.77a94.6129,94.6129,0,0,1-21.0782,28.5157,98.6315,98.6315,0,0,1-33.7252,20.3685H180.161a58.0625,58.0625,0,0,1-12.6469,0c-5.7991-.6385-19.0312-2.0956-29.51-12.2211s-11.9862-22.912-12.6469-28.5158a52.41,52.41,0,0,1,0-12.221V601.7178a66.7091,66.7091,0,0,1,21.0782-36.6632A70.3331,70.3331,0,0,1,180.161,548.76l307.7422-36.6631ZM248.0781,648.767a27.6507,27.6507,0,0,0-13.2586,6.4059,26.2278,26.2278,0,0,0-8.2864,14.4135v86.4805a20.594,20.594,0,0,0,0,4.8044c.26,2.203.8525,7.23,4.9719,11.21s9.3213,4.5535,11.6012,4.8044a22.8117,22.8117,0,0,0,4.9719,0h89.4942a38.7707,38.7707,0,0,0,13.2583-8.0074,37.1927,37.1927,0,0,0,8.2865-11.21q4.9717-61.6576,9.9439-123.3149Q308.5693,641.5605,248.0781,648.767Z" style="fill:#94c55e"/><path d="M874.6424,821.6966V601.7177a66.7105,66.7105,0,0,0-21.0782-36.6631A70.3331,70.3331,0,0,0,819.839,548.76L512.0968,512.0968Q524.7436,668.9335,537.3906,825.77a94.6143,94.6143,0,0,0,21.0783,28.5158,98.6354,98.6354,0,0,0,33.7251,20.3685H819.839a58.0625,58.0625,0,0,0,12.6469,0c5.7992-.6385,19.0312-2.0956,29.51-12.2211s11.9863-22.912,12.647-28.5158A52.41,52.41,0,0,0,874.6424,821.6966Z" style="fill:#b8db7c"/></svg>