<svg xmlns="http://www.w3.org/2000/svg" viewBox="0 0 1000 1000"><rect width="1000" height="1000" style="fill:none"/><path d="M440.83394,196.32267a302.59325,302.59325,0,0,1,211.3823,85.94359,217.81772,217.81772,0,0,0-74.19647,23.538A236.51821,236.51821,0,0,0,440.834,262.08458c-131.18819,0-237.91175,106.73086-237.91175,237.91175S309.64574,737.9081,440.83394,737.9081a236.56221,236.56221,0,0,0,137.18577-43.71235A217.89837,217.89837,0,0,0,652.20889,717.741a302.55614,302.55614,0,0,1-211.375,85.93629c-167.451,0-303.68095-136.23-303.68095-303.681,0-167.4437,136.23-303.67366,303.681-303.67366m422.0057,303.67366c0,82.14949-54.59123,151.742-129.386,174.52847a339.96438,339.96438,0,0,0,0-349.04229c74.79478,22.78646,129.386,92.37166,129.386,174.51385m-184.094,0A237.171,237.171,0,0,0,609.175,332.04194a181.4454,181.4454,0,0,1,71.21958-14.48324c1.0653,0,2.09407.13862,3.15931.16051a302.9873,302.9873,0,0,1-.00735,364.56165c-1.05794.02917-2.08678.16054-3.152.16054A181.42086,181.42086,0,0,1,609.175,667.95087a237.14545,237.14545,0,0,0,69.57057-167.95443M544.1647,672.05133a199.59874,199.59874,0,0,1-103.33076,28.70379c-110.69277,0-200.75879-90.05874-200.75879-200.75879,0-110.69278,90.066-200.7515,200.75879-200.7515a199.57682,199.57682,0,0,1,103.33076,28.7038,219.26678,219.26678,0,0,0-83.37529,172.0477c0,69.65816,32.63652,131.78646,83.37529,172.055m-46.215-172.055c0-61.47166,30.65192-115.8294,77.385-148.89641a200.43946,200.43946,0,0,1-.00729,297.80739c-46.72576-33.07432-77.37769-87.43206-77.37769-148.911M440.834,840.83753c104.84111,0,198.7377-47.61592,261.31114-122.31584C813.064,707.56259,900,613.75353,900,499.9963c0-113.74265-86.9359-207.55168-197.84754-218.51079-62.57349-74.70718-156.47741-122.3231-261.31852-122.3231C252.89481,159.16241,100,312.06451,100,499.99635c0,187.93913,152.89481,340.84124,340.83394,340.84124" style="fill:#ffae5f"/></svg>