<?xml version="1.0" encoding="utf-8"?>
<!-- Generator: Adobe Illustrator 23.0.1, SVG Export Plug-In . SVG Version: 6.00 Build 0)  -->
<svg version="1.1" id="图层_1" xmlns="http://www.w3.org/2000/svg" xmlns:xlink="http://www.w3.org/1999/xlink" x="0px" y="0px"
	 viewBox="0 0 1000 1000" style="enable-background:new 0 0 1000 1000;" xml:space="preserve">
<style type="text/css">
	.st0{fill:#4DDEBD;}
	.st1{fill:#FFFFFF;}
</style>
<title>Chaipip</title>
<rect class="st0" width="1000" height="1000"/>
<g>
	<path class="st1" d="M361.3,728H300V272h61.3V728z"/>
	<path class="st1" d="M750,410.7c0,42.7-12.4,76.4-37.3,101.3c-24.9,24.9-59.6,37.4-104,37.3h-77.3V728H470V272h138.7
		c44.4,0,79.1,12.4,104,37.3C737.5,334.2,750,368,750,410.7z M688.7,410.7c0-33.8-8-56.9-24-69.3c-16-12.4-40-18.6-72-18.7h-61.3
		v176h61.3c32,0,56-6.2,72-18.7C680.7,467.6,688.7,444.5,688.7,410.7z"/>
</g>
</svg>
