<svg id="图层_1" data-name="图层 1" xmlns="http://www.w3.org/2000/svg" viewBox="0 0 1000 1000"><title>China-Cehui</title><path d="M408.4181,937.6458a354.1344,354.1344,0,0,0-81.9739,31.4255,502.463,502.463,0,0,0,344.4921.9619C621.9011,946.4043,522.5892,909.6027,408.4181,937.6458Z" style="fill:#034bf8"/><path d="M330.4851,72.1518,285.0342,48.4136a500.6854,500.6854,0,0,0-109.0461,70.7023,553.4691,553.4691,0,0,0,47.8357,30.7982A408.9139,408.9139,0,0,1,330.4851,72.1518Z" style="fill:#034bf8"/><path d="M252.4529,165.213a532.7844,532.7844,0,0,0,49.3,21.4733c26.6462-39.8446,58.3472-71.5322,93.4638-92.4555L373.69,88.3042C329.0228,105.4212,288.0424,131.7144,252.4529,165.213Z" style="fill:#034bf8"/><path d="M538.7015,101.3414a386.0232,386.0232,0,0,1-92.2786,1.7114c-43.3648,14.3568-82.6181,47.4587-114.5475,93.9426a513.792,513.792,0,0,0,71.8463,16.62c95.9016,15.0195,181.5968.5783,250.7222-22.7389C621.9483,145.6992,582.3005,114.0862,538.7015,101.3414Z" style="fill:#034bf8"/><path d="M760.187,143.4186A592.0676,592.0676,0,0,0,812.79,109.8591,500.0027,500.0027,0,0,0,703.07,42.9375l-50.0647,25.75A405.5454,405.5454,0,0,1,760.187,143.4186Z" style="fill:#034bf8"/><path d="M599.2107,88.3059q-5.2268,1.5333-10.2765,2.8791c35.3052,19.7622,67.313,50.3144,94.3888,89.1068,17.28-6.85,33.2857-14.1281,47.9061-21.4333-36.1058-32.4139-77.4371-57.5739-122.327-73.5178Q604.17,86.8488,599.2107,88.3059Z" style="fill:#034bf8"/><path d="M671.5343,217.0119c-70.3771,24.5234-157.6445,40.3031-256.0715,27.12A543.3828,543.3828,0,0,1,316.5586,221.29c-24.63,42.5554-43.737,93.8837-55.4193,150.8678a640.0752,640.0752,0,0,0,139.06,38.64c126.7314,20.1653,239.4542-1.0684,330.075-34.646C718.2925,315.6388,697.9614,261.3663,671.5343,217.0119Z" style="fill:#034bf8"/><path d="M155.7084,137.3479a502.1331,502.1331,0,0,0-89.74,114.0078A697.1082,697.1082,0,0,0,125.24,298.01a475.1431,475.1431,0,0,1,79.69-127.8559A582.392,582.392,0,0,1,155.7084,137.3479Z" style="fill:#034bf8"/><path d="M230.9611,359.0958c12.227-55.4391,31.444-105.8012,56.0017-148.55a567.0564,567.0564,0,0,1-54.5866-25.0374c-33.9,36.7289-61.9086,80.4773-82.2432,129.2158A677.61,677.61,0,0,0,230.9611,359.0958Z" style="fill:#034bf8"/><path d="M938.3949,259.1423A502.1908,502.1908,0,0,0,836.4137,130.0409a604.3557,604.3557,0,0,1-54.4981,35.8873c36.3188,40.3908,66.1165,88.39,87.4282,141.7473A744.2373,744.2373,0,0,0,938.3949,259.1423Z" style="fill:#034bf8"/><path d="M699.9873,206.2893c26.5594,45.0258,47.11,98.803,59.6563,158.2541a771.8685,771.8685,0,0,0,84.1678-41.621c-21.3205-53.9675-51.9684-102.0849-89.5875-141.6955C737.851,189.75,719.7251,198.2883,699.9873,206.2893Z" style="fill:#034bf8"/><path d="M248.3471,487.0892h493.91a659.4962,659.4962,0,0,0-7.0187-82.3161c-89.383,32.3386-199.2794,52.8383-323.2978,36.5415a677.7268,677.7268,0,0,1-156.0663-39.8481A658.3773,658.3773,0,0,0,248.3471,487.0892Z" style="fill:#034bf8"/><path d="M216.0084,487.0892a664.1561,664.1561,0,0,1,9.173-98.326,716.034,716.034,0,0,1-85.9587-45.251,488.9157,488.9157,0,0,0-25.8487,143.577Z" style="fill:#034bf8"/><path d="M50.9357,279.6081A497.3969,497.3969,0,0,0,0,487.0892H84.5909A525.3277,525.3277,0,0,1,113.93,327.2,731.0706,731.0706,0,0,1,50.9357,279.6081Z" style="fill:#034bf8"/><path d="M1000,487.0892a497.4534,497.4534,0,0,0-48.3944-202.25,771.5571,771.5571,0,0,1-72.2433,50.1932,526.2593,526.2593,0,0,1,26.6508,152.0572Z" style="fill:#034bf8"/><path d="M765,393.2824a665.4391,665.4391,0,0,1,8.422,93.8068H877.23A489.7289,489.7289,0,0,0,853.6183,350.216,790.0533,790.0533,0,0,1,765,393.2824Z" style="fill:#034bf8"/><path d="M773.4217,514.0845a664.7465,664.7465,0,0,1-8.828,96.2845,787.6917,787.6917,0,0,1,89.4649,42.7555,490.2764,490.2764,0,0,0,23.2663-139.04Z" style="fill:#034bf8"/><path d="M999.9743,514.0845h-93.873a526.8475,526.8475,0,0,1-26.2254,154.0507,779.0011,779.0011,0,0,1,71.0072,48.5314A497.4222,497.4222,0,0,0,999.9743,514.0845Z" style="fill:#034bf8"/><path d="M226.258,618.5724a662.3338,662.3338,0,0,1-10.2488-104.4879H113.28a488.9532,488.9532,0,0,0,27.0573,150.3519A717.1511,717.1511,0,0,1,226.258,618.5724Z" style="fill:#034bf8"/><path d="M.0285,514.0845a497.3131,497.3131,0,0,0,54.3139,213.123,730.2491,730.2491,0,0,1,60.7892-46.3165A525.311,525.311,0,0,1,84.5039,514.0845Z" style="fill:#034bf8"/><path d="M248.2522,514.0845a659.1211,659.1211,0,0,0,7.8728,91.9107,677.969,677.969,0,0,1,160.5119-41.5889C538.608,548.3785,646.92,567.942,735.4925,599.3557a661.2644,661.2644,0,0,0,6.8607-85.2712Z" style="fill:#034bf8"/><path d="M408.4181,792.1059a513.8251,513.8251,0,0,0-75.7874,17.8614c31.989,46.1923,71.2512,79.0073,114.591,93.11l93.2491.9173c43.344-13.21,82.7192-45.091,114.96-90.3883C586.9592,791.0217,502.6119,777.3539,408.4181,792.1059Z" style="fill:#034bf8"/><path d="M402.2029,910.941c-36.3944-19.9533-69.3251-51.3619-97.0339-91.43a533.2637,533.2637,0,0,0-50.372,22.16c36.0051,33.35,77.416,59.38,122.5065,76.0861Z" style="fill:#034bf8"/><path d="M333.806,934.18a407.5306,407.5306,0,0,1-107.6145-77.0376c-16.9481,9.8273-31.7688,19.6289-44.3615,28.6363A500.2152,500.2152,0,0,0,293.0452,955.32C305.0915,948.17,333.941,934.1193,333.806,934.18Z" style="fill:#034bf8"/><path d="M732.156,844.9984c-15.3523-7.54-32.1763-15.0156-50.34-21.983-27.8269,39.2924-60.7584,69.9548-97.0642,89.259,8.77,2.1375,17.2128,4.4977,25.3209,7.0056-.1734-.0537-.342-.1094-.5157-.1629C654.5782,903.0242,696.0066,877.657,732.156,844.9984Z" style="fill:#034bf8"/><path d="M700.171,958.35A499.8608,499.8608,0,0,0,811.2,891.4223c-12.5494-8.7346-29.3781-19.67-49.9522-31.1643a406.069,406.069,0,0,1-107.1333,75.2225" style="fill:#034bf8"/><path d="M69.7824,755.1419a502.4465,502.4465,0,0,0,91.4194,112.6408c12.8343-9.4994,28.19-20.0423,45.9475-30.7413A473.94,473.94,0,0,1,126.67,710.0208,696.3744,696.3744,0,0,0,69.7824,755.1419Z" style="fill:#034bf8"/><path d="M289.9946,795.8214c-25.09-42.29-44.857-92.3649-57.6466-147.6466a679.2025,679.2025,0,0,0-80.87,44.9823c20.6585,48.4962,48.9428,91.9641,83.0761,128.3746A566.8372,566.8372,0,0,1,289.9946,795.8214Z" style="fill:#034bf8"/><path d="M404.8958,594.9228A640.3315,640.3315,0,0,0,261.47,635.3508c11.8206,56.8577,31.05,108.027,55.7747,150.4061a543.8671,543.8671,0,0,1,102.9144-24.1675c96.6512-12.9457,182.5385,2.0376,252.242,25.8019,26.256-44.5081,46.4123-98.8632,58.2178-159.409C640.75,595.3325,529.6116,575.0783,404.8958,594.9228Z" style="fill:#034bf8"/><path d="M759.132,639.0152c-12.7942,59.4546-33.6033,113.1665-60.4248,158.0286,20.5249,8.0715,39.3745,16.7635,56.4047,25.4845,37.5235-39.7594,68.0455-88.0156,89.22-142.1A769.5557,769.5557,0,0,0,759.132,639.0152Z" style="fill:#034bf8"/><path d="M869.9394,695.5134c-21.1553,53.466-50.812,101.5986-87.0157,142.1363a612.9365,612.9365,0,0,1,52.0986,33.5815A502.25,502.25,0,0,0,937.6145,742.2735,754.2635,754.2635,0,0,0,869.9394,695.5134Z" style="fill:#034bf8"/><path d="M499.9991,0A499.0409,499.0409,0,0,0,317.47,34.3442a354.8467,354.8467,0,0,0,86.2519,33.7309C525.0523,97.8766,629.6044,54.446,674.8641,31.4174A499.2474,499.2474,0,0,0,499.9991,0Z" style="fill:#034bf8"/><path d="M457.65,54.6,71.41,702.4428c-19.5937,32.8646,4.0868,74.5525,42.349,74.5525h772.48c38.2623,0,61.9428-41.6879,42.349-74.5525L542.3481,54.6C523.2253,22.5256,476.7728,22.5256,457.65,54.6Z" style="fill:#4176ec"/><path d="M479.2605,72.7613,101.1252,707.01a26.8786,26.8786,0,0,0,23.0868,40.6428H880.4825A26.8786,26.8786,0,0,0,903.5694,707.01L525.4341,72.7613A26.8784,26.8784,0,0,0,479.2605,72.7613Z" style="fill:#fefffe"/><path d="M645.5893,433.0986l62.2281-26.9953c-48.1831-94.018-151.668-145.4517-252.4347-126.7606-112.07,20.7877-190.5161,122.701-190.2066,232.3944.277,98.1457,63.559,187.6049,152.6349,219.4836,112.0364,40.0958,247.8405-16.9961,305.27-139.6714l-62.2281-31.69c-25.7913,71.4113-92.1376,118.3977-163.202,117.3708-89.2642-1.29-164.197-78.02-165.55-165.4929-1.63-105.3537,104.1229-184.5253,194.903-170.1878C600.54,353.1633,639.6624,422.2518,645.5893,433.0986Z" style="fill:#034bf8"/><path d="M390.8064,428.4038V600.939a46.0516,46.0516,0,0,0,14.0894,21.1267c15.283,12.661,40.2335,15.1858,52.8351,4.6949,19.5084-16.2409-.8007-55.1641,18.7859-68.0752,7.6189-5.0222,19.3382-4.8322,27.0046,0,20.3186,12.8072,1.0234,51.1988,21.1341,68.0752,14.1933,11.9106,42.7545,8.69,59.88-5.8686a50.6584,50.6584,0,0,0,14.0894-19.953V428.4038c-.8862-2.5155-9.0043-24.436-30.527-30.5165-19.9643-5.64-41.49,5.1662-50.4869,19.9531-14.28,23.4687,7.2287,50.0139-7.0447,63.38-8.57,8.0257-26.5882,8.0667-35.2234,0-14.509-13.5538,7.0714-41.0269-8.2188-64.554-7.8378-12.06-23.7547-20.6075-39.92-18.7794C411.1076,399.7077,397.02,411.5605,390.8064,428.4038Z" style="fill:#034bf8"/><path d="M189.28,652.5822q-.303,8.4285-.3011,15.95h26.1918q-.303,6.0228-.3011,16.5523,0,10.2342.3011,15.3485h-6.6232v-4.5143H188.9791V708.86q0,3.6114.3011,13.5428h-7.2254a116.3034,116.3034,0,0,0,.6021-12.64V695.9191H163.0884v4.5143h-6.6232q.2962-4.5143.301-15.3485,0-11.1315-.301-16.5523h26.1917q0-8.1258-.301-15.95Zm-6.6233,38.5217V673.3478H163.0884v17.7561Zm25.8908,0V673.3478H188.9791v17.7561Z" style="fill:#034bf8"/><path d="M293.7463,672.144v32.2017q0,9.3314.301,18.358h-6.0211V718.49H238.0511v4.5143H232.03q.2962-9.3313.301-19.2609v-31.6q0-9.0285-.301-16.8533h62.0173Q293.7444,662.8164,293.7463,672.144Zm-5.72,41.8322V659.805H238.0511v54.1712Zm-15.6549-46.0455q4.5159,0,9.6338-.301v5.4171q-4.5158-.2971-9.6338-.3009H264.845v9.9314h5.419q5.4189,0,10.2358-.301v5.4171q-4.8187-.2972-10.2358-.3009h-5.419v13.5428h8.4295q5.4191,0,10.2359-.301v5.4171q-4.5159-.2971-10.2359-.3009H252.8028q-5.1226,0-10.2359.3009v-5.4171q5.1161.3029,10.2359.301h6.6232V687.4925h-4.2148q-5.1226,0-9.6337.3009v-5.4171q4.5158.3029,9.6337.301h4.2148v-9.9314H254.91q-5.419,0-10.537.3009V667.63q5.116.3029,10.537.301Zm6.9243,27.9884q-3.0124,1.8057-5.1179,3.3105-.9032-1.2-5.118-6.32,2.4066-1.8057,4.2148-3.31Q274.7779,691.1076,279.2956,695.9191Z" style="fill:#034bf8"/><path d="M710.7955,709.8571q-3.1746,7.1046-4.6864,10.73a39.1068,39.1068,0,0,0-6.3493-4.5337,58.3535,58.3535,0,0,0,6.8028-10.5785,94.7955,94.7955,0,0,0,5.8958-13.9031q2.7212,2.1175,5.4422,3.9291Q713.97,702.7545,710.7955,709.8571Zm4.6864-27.6552a45.4843,45.4843,0,0,0-4.2329,4.8359,52.3483,52.3483,0,0,0-10.28-9.3695,29.7215,29.7215,0,0,0,3.6282-4.5336Q710.9466,677.9724,715.4819,682.2019Zm-12.3963-22.97q1.8141-2.1118,3.6282-4.5336a109.8152,109.8152,0,0,1,10.8845,8.16,14.8978,14.8978,0,0,0-3.93,4.5336A70.4859,70.4859,0,0,0,703.0856,659.2315Zm32.9559,28.4108q-.3024,12.9984-4.3841,21.4592a54.6362,54.6362,0,0,1-9.2216,13.9032,15.24,15.24,0,0,0-5.7445-3.3247,42.8485,42.8485,0,0,0,10.5821-15.5655,52.6882,52.6882,0,0,0,3.477-18.2856,149.6462,149.6462,0,0,0-.4535-16.0189q3.3258.6083,6.6516.9067A168.1157,168.1157,0,0,0,736.0415,687.6423Zm9.6751-20.25v21.4593q0,5.44.3023,10.5785h-5.7446V663.4629H725.7617V699.732h-5.4423q.2987-5.44.3024-10.8807V667.392q0-2.4161-.3024-8.765h25.7Q745.7167,661.6513,745.7166,667.392Zm3.6281,49.87a20.439,20.439,0,0,0-5.14,3.9291,70.642,70.642,0,0,0-10.28-14.5076,25.473,25.473,0,0,0,4.5352-3.6269A88.4744,88.4744,0,0,1,749.3447,717.2621Zm7.5587-44.7319v21.157q0,6.3471.3024,11.7874h-6.047q.2986-3.6269.3024-11.7874V672.53q0-5.1363-.3024-8.4628h6.047Q756.9034,667.3957,756.9034,672.53Zm11.4892-9.6718v52.8925q0,3.9253-2.7211,5.1381a35.8812,35.8812,0,0,1-8.1634,2.1157,22.1772,22.1772,0,0,0-2.4188-6.6493,38.7186,38.7186,0,0,0,5.8958-.3023q1.6591-.304,1.6629-3.3247v-49.87q0-4.8321-.3023-8.4628h6.3493Q768.3926,657.7241,768.3926,662.8584Z" style="fill:#034bf8"/><path d="M793.1851,665.4275a105.4163,105.4163,0,0,1-7.5587,13.1475h9.9775a66.7594,66.7594,0,0,0,3.9305-9.974,27.0939,27.0939,0,0,0,6.3493,3.3247,36.661,36.661,0,0,0-4.5353,6.9516q-3.0234,5.44-5.5934,9.37-2.57,3.931-5.8957,8.765,8.768-1.2051,13.6056-1.8134a15.16,15.16,0,0,0-.3024,5.44,88.744,88.744,0,0,0-9.07.7556q-6.3492.7575-11.1868,1.6624a19.6254,19.6254,0,0,0-2.1165-6.0449,16.8192,16.8192,0,0,0,6.6517-5.5915,91.43,91.43,0,0,0,5.4422-8.6139q-1.8141,0-5.7446.3023a53.13,53.13,0,0,0-7.861,1.2089q-.9071-3.3226-1.8141-6.3471,3.9267-1.8134,7.5587-8.765a72.7471,72.7471,0,0,0,5.7446-14.81,27.7543,27.7543,0,0,0,7.2563,3.0224A32.6467,32.6467,0,0,0,793.1851,665.4275Zm10.28,47.3009q-4.5352.9068-10.7333,2.2669t-11.9428,3.1735a42.1425,42.1425,0,0,1-2.7211-6.6493q3.6282-.6027,6.5005-.9068,2.8722-.2983,5.8958-.7556,3.02-.4533,6.3492-.9067a45.8818,45.8818,0,0,0,7.2564-1.6623A24.8442,24.8442,0,0,0,803.4649,712.7284ZM828.862,678.575q4.2328,0,7.5587-.3022a33.0345,33.0345,0,0,1-4.5352-4.8359,103.5016,103.5016,0,0,1-7.2563-11.183,56.6561,56.6561,0,0,1-7.5587,13.2987q-3.93,4.8378-9.3728,11.4852a49.7569,49.7569,0,0,0-5.14-4.2314,43.1,43.1,0,0,0,7.8611-7.4049,61.8223,61.8223,0,0,0,5.291-7.7072,60.2259,60.2259,0,0,0,3.7794-7.7072,57.46,57.46,0,0,0,2.4188-7.4049q2.721.9066,6.9539,2.1157a9.4747,9.4747,0,0,0-1.2094,3.0224q4.5353,9.0672,9.9775,13.6009a45.9443,45.9443,0,0,0,12.0939,7.2538,29.4454,29.4454,0,0,0-4.5352,6.0449,76.3994,76.3994,0,0,1-8.4657-6.0449v5.44a77.304,77.304,0,0,0-7.8611-.3022h-7.5586q-2.7212,0-6.047.3022v-5.7426q3.3258.3041,6.047.3022Zm8.1634,13.6009q3.3258,0,7.861-.3022v5.7426q-4.2366-.2985-6.0469-.3022H827.048q-2.7212,4.5336-5.5935,9.0672a78.2708,78.2708,0,0,1-5.8957,8.1606q5.7408,0,19.0478-1.209l-4.5352-9.0672a38.2857,38.2857,0,0,1,5.14-2.72q2.7211,5.44,9.3728,18.4368-3.0236,1.5093-5.7446,3.0224-1.2095-3.0243-2.4188-5.7426-14.214,1.2051-17.3849,1.6623a79.1311,79.1311,0,0,0-9.524,2.2668,54.3242,54.3242,0,0,0-2.4188-6.9515q4.233-1.8135,7.5587-7.1027,3.3258-5.2855,5.7446-9.8229h-4.8375q-4.2368,0-7.8611.3022v-5.7426q3.3259.3042,7.8611.3022Z" style="fill:#034bf8"/></svg>