<svg id="图层_1" data-name="图层 1" xmlns="http://www.w3.org/2000/svg" viewBox="0 0 1000 1000"><title>Cloud</title><rect width="1000" height="1000" style="fill:#fff"/><path d="M735.8853,406.6014c-4.7314-18.9849-21.2775-74.6585-74.8785-115.7192-42.7391-32.74-86.1842-38.6835-95.997-39.8491-8.291-.9849-64.4207-6.725-119.9962,24.9057C396,303.8345,367.7954,349.5076,340.0169,394.49c-4.3009,6.9646-7.6986,12.8546-10,16.9358C221.0392,396.369,126.7363,480.093,125.0237,576.5521,123.4606,664.5921,199.3283,746.4484,299.123,750H700.8955C797.0718,750,875,672.3644,875,576.5521,875,492.6614,815.2353,422.6966,735.8853,406.6014Zm9.8355,281.48a115.6358,115.6358,0,0,1-44.8253,8.5507H299.123a120.6267,120.6267,0,0,1-44.9194-8.59c-46.8814-18.8409-64.7908-61.284-66.9891-66.7379-4.39-10.89-16.7239-46.1471-1.339-86.0321,16.7785-43.4976,54.9917-60.9639,66.2559-65.9258,55.9351-24.6395,108.65-.1461,116.8846,3.8452,5.59-14.2765,59.77-147.8117,157.995-161.3888a136.6413,136.6413,0,0,1,46.9985,1.9925c71.5307,16.6684,103.8443,90.5578,109.3942,103.8155l7.2832,34.272,34.4865,7.0037c9.6736,1.9955,42.9112,10.0822,68.7188,41.2788,5.8183,7.0333,27.8369,35.2808,27.5392,76.3867C821.0668,626.9063,787.4005,670.8722,745.7208,688.0811Zm40.3861-26.6417" style="fill:#2c2c2c"/><rect width="1000" height="1000" style="fill:none"/></svg>