<svg id="图层_1" data-name="图层 1" xmlns="http://www.w3.org/2000/svg" viewBox="0 0 1000 1000"><title>Codepen</title><circle cx="500" cy="500" r="500" style="fill:#fff"/><path d="M809.1667,594.2083a26.6555,26.6555,0,0,1-.25,3.4584l-.2083,1.1666-.4583,2.2084-.4166,1.2916a18.4689,18.4689,0,0,1-.7084,1.9584l-.5833,1.25c-.275.6041-.5667,1.2041-.875,1.7916l-.7917,1.25a23.7826,23.7826,0,0,1-3.3334,4.1667l-1.0832,1.0417q-.7251.6563-1.5,1.25l-1.2083.9166-.4167.3334L514.75,804.7083a26.546,26.546,0,0,1-29.5,0L202.6667,616.25l-.4167-.3334a24.9907,24.9907,0,0,1-2.7083-2.1666l-1.0834-1.0417-1.3333-1.4167-.875-1.1666a24.525,24.525,0,0,1-2.7917-4.5833l-.5833-1.2917q-.392-.9625-.7083-1.9583l-.4167-1.25a21.3288,21.3288,0,0,1-.4167-2.25l-.25-1.1667a26.1693,26.1693,0,0,1-.25-3.4583V405.7917a24.1494,24.1494,0,0,1,.25-3.4584l.2084-1.125.4583-2.25.4167-1.25a23.92,23.92,0,0,1,5-9.0416l1.2916-1.4167,1.0834-1.0417a25.8352,25.8352,0,0,1,2.7083-2.1666l.4167-.3334L485.25,195.3333a26.5835,26.5835,0,0,1,29.5,0l282.5833,188.375.4167.3334,1.25.9166,1.4584,1.25a12.7947,12.7947,0,0,1,1.0832,1.0417,22.6338,22.6338,0,0,1,3.3334,4.1667l.7917,1.25q.4688.8787.875,1.7916l.5833,1.25c.2917.6667.5,1.3334.7084,1.9584l.4166,1.2916a21.3288,21.3288,0,0,1,.4167,2.25l.25,1.125a25.2679,25.2679,0,0,1,.25,3.4584Z" style="fill-rule:evenodd"/><polygon points="756 544.458 756 455.542 689.583 500 756 544.458" style="fill:#fff;fill-rule:evenodd"/><polygon points="500 437.167 406.042 500 500 562.917 593.958 500 500 437.167" style="fill:#fff;fill-rule:evenodd"/><polygon points="526.583 609 526.583 732.958 734.75 594.208 641.75 532 526.583 609" style="fill:#fff;fill-rule:evenodd"/><polygon points="265.25 594.167 473.417 732.917 473.417 609 358.25 531.958 265.25 594.167" style="fill:#fff;fill-rule:evenodd"/><polygon points="734.75 405.833 526.583 267.083 526.583 391 641.75 468.083 734.75 405.833" style="fill:#fff;fill-rule:evenodd"/><polygon points="473.417 391 473.417 267.083 265.25 405.833 358.25 468.042 473.417 391" style="fill:#fff;fill-rule:evenodd"/><polygon points="244 455.542 244 544.458 310.417 500 244 455.542" style="fill:#fff;fill-rule:evenodd"/></svg>