<svg id="图层_1" data-name="图层 1" xmlns="http://www.w3.org/2000/svg" viewBox="0 0 1000 1000"><title>Coding</title><path d="M500.10894,827.43671c-171.59292-.33343-310.51208-81.47017-310.51208-197.84027,0-2.55635.22227-4.89046.22227-7.2245a8.32211,8.32211,0,0,1,.22227-2.334,37.41839,37.41839,0,0,0,.33341-4.89046c.22227-2.22293.55567-4.33473.88908-6.55766a.81657.81657,0,0,1,.22227-.66685c3.55633-22.89609,12.22489-57.796,25.67227-77.80235,32.11812-46.68141,89.35281-77.6912,154.58922-77.6912,50.23318,0,95.79866,18.45028,128.69469,48.23745,32.896-29.78717,78.3504-48.23745,128.69469-48.23745,65.34755,0,122.47113,31.12094,154.5892,77.6912,13.44735,20.11744,22.22706,54.90626,25.67223,77.80235a.81651.81651,0,0,0,.22229.66685c.33339,2.22293.55567,4.33473.88906,6.55766a36.15555,36.15555,0,0,1,.3334,4.89046c0,.88915.22228,1.55607.22228,2.334.22229,2.334.22229,4.89046.22229,7.2245-.4445,116.25892-139.47476,197.50684-311.17884,197.84027Z" style="fill:#fff"/><circle cx="500" cy="500" r="500" style="fill:none"/><path d="M304.17739,544.23616c9.11311,0,16.3369,8.78058,16.3369,19.6729S313.2905,583.582,304.17739,583.582s-16.33691-8.78058-16.33691-19.67289S295.06428,544.23616,304.17739,544.23616Zm387.19542,0c9.1131,0,16.3369,8.78058,16.3369,19.6729s-7.2238,19.67289-16.3369,19.67289-16.33691-8.78058-16.33691-19.67289,7.22386-19.6729,16.33691-19.6729Z" style="fill:#2c2c2c"/><path d="M925.97951,437.5358c-26.67248,0-50.23318,17.00535-63.34713,42.569C818.06714,382.963,725.38025,293.04572,610.68859,255.92285c-61.79121-24.78559-105.24516-72.57846-110.57965-128.04042-5.33448,55.68426-48.78839,103.14371-110.57964,127.9293C274.94878,292.82341,182.15078,382.85184,137.58553,479.99366c-13.114-25.56363-36.45239-42.569-63.34713-42.569C33.22946,437.42468,0,477.54847,0,527.11969s33.22946,89.695,74.2384,89.695a65.42946,65.42946,0,0,0,34.56309-10.22547c3.55633,160.82859,177.26085,265.19484,391.19635,265.52834,213.93549-.33343,387.64-104.69975,391.19633-265.52834a63.78231,63.78231,0,0,0,34.563,10.22547c41.009,0,74.23839-40.12376,74.23839-89.695.44456-49.46014-32.896-89.58389-74.0161-89.58389ZM108.2458,555.35078c-3.55633,12.89294-19.00415,18.45025-34.56309,12.22609-15.67008-6.00192-25.56112-21.56239-22.00479-34.45533S70.68206,514.6713,86.241,520.89546C101.8,526.89731,111.57986,542.34666,108.2458,555.35078ZM500.10894,827.43671c-171.59292-.33343-310.51208-81.47017-310.51208-197.84027,0-2.55635.22227-4.89046.22227-7.2245a8.32211,8.32211,0,0,1,.22227-2.334,37.41839,37.41839,0,0,0,.33341-4.89046c.22227-2.22293.55567-4.33473.88908-6.55766a.81657.81657,0,0,1,.22227-.66685c3.55633-22.89609,12.22489-57.796,25.67227-77.80235,32.11812-46.68141,89.35281-77.6912,154.58922-77.6912,50.23318,0,95.79866,18.45028,128.69469,48.23745,32.896-29.78717,78.3504-48.23745,128.69469-48.23745,65.34755,0,122.47113,31.12094,154.5892,77.6912,13.44735,20.11744,22.22706,54.90626,25.67223,77.80235a.81651.81651,0,0,0,.22229.66685c.33339,2.22293.55567,4.33473.88906,6.55766a36.15555,36.15555,0,0,1,.3334,4.89046c0,.88915.22228,1.55607.22228,2.334.22229,2.334.22229,4.89046.22229,7.2245-.4445,116.25892-139.47476,197.50684-311.17884,197.84027ZM926.75747,567.57687c-15.67005,6.00192-31.11789.66685-34.56306-12.22609-3.55634-12.89293,6.33473-28.4534,22.00478-34.45532s31.11789-.66685,34.56306,12.22608C952.20742,545.90336,942.42752,561.35264,926.75747,567.57687Z" style="fill:#2c2c2c"/><path d="M108.2458,555.35078c-3.55633,12.89294-19.00415,18.45025-34.56309,12.22609-15.67008-6.00192-25.56112-21.56239-22.00479-34.45533S70.68206,514.6713,86.241,520.89546C101.8,526.89731,111.57986,542.34666,108.2458,555.35078Z" style="fill:#fff"/><path d="M926.75747,567.57687c-15.67005,6.00192-31.11789.66685-34.56306-12.22609-3.55634-12.89293,6.33473-28.4534,22.00478-34.45532s31.11789-.66685,34.56306,12.22608C952.20742,545.90336,942.42752,561.35264,926.75747,567.57687Z" style="fill:#fff"/></svg>