<svg id="图层_1" data-name="图层 1" xmlns="http://www.w3.org/2000/svg" viewBox="0 0 1000 1000"><title>Cowtransfer</title><rect width="1000" height="1000" style="fill:none"/><rect x="125" y="125" width="750" height="750" rx="90.0638" style="fill:#fdda66"/><path d="M342.5245,273.3984c1.785-3.963,6.2418-8.7274,11.6422-8.5785,6.2126.1715,9.9782,6.7439,11.0294,8.5785,4.2474,7.4134,1.3391,12.333,2.451,22.0588,1.2044,10.5354,6.0959,17.6994,14.0931,29.4118,4.7058,6.892,9.3886,13.75,17.77,20.2206a70.1811,70.1811,0,0,0,31.8628,13.48H573.5294c10.65-2.6932,26.82-8.805,39.2157-23.2843,12.4767-14.5732,22.0305-38.6734,20.2206-52.0833a17.1513,17.1513,0,0,1,1.2255-9.8039c.3675-.7752,4.1-8.3322,11.6421-8.5785,7.6055-.2484,11.822,7.1739,12.255,7.9657a16.8368,16.8368,0,0,1,1.8383,9.1912c-1.3726,23.2667-2.0589,34.9-6.74,45.9559-13.2531,31.2993-41.0925,47.9831-53.9216,52.0833-5.9075,1.888-23.6925,7.3528-17.77,5.5147H432.598a102.0994,102.0994,0,0,1-49.6323-18.9951A107.9775,107.9775,0,0,1,350.49,326.7072a115.9138,115.9138,0,0,1-9.1912-47.7941A14.1476,14.1476,0,0,1,342.5245,273.3984Z"/><circle cx="403.799" cy="452.9327" r="21.4461"/><circle cx="403.799" cy="625.1141" r="21.4461"/><circle cx="588.2353" cy="625.1141" r="21.4461"/><rect x="558.2108" y="445.1077" width="60.0491" height="20.5521" rx="10.2412"/><path d="M596.27,533.8844H403.73c-50.1767,0-91.23,41.0533-91.23,91.23h0c0,50.1763,41.0533,91.23,91.23,91.23H596.2708c50.1762,0,91.23-41.0534,91.23-91.23h0C687.5,574.9377,646.4467,533.8844,596.27,533.8844Zm62.4305,91.23a59.9181,59.9181,0,0,1-59.7426,59.7426H401.0416a59.9182,59.9182,0,0,1-59.7426-59.7426h0a59.9183,59.9183,0,0,1,59.7426-59.7426H598.9584a59.9183,59.9183,0,0,1,59.7426,59.7426Z"/></svg>