<svg id="图层_1" data-name="图层 1" xmlns="http://www.w3.org/2000/svg" viewBox="0 0 1000 1000"><title>CSS.JS</title><rect width="1000" height="1000" style="fill:#fbbc05;isolation:isolate"/><path d="M500.085,486.2324c5.6149-6.3638,154.18-175.6166,153.4656-267.1487-.0669-8.5761-.1384-30.5309-14.7928-46.3508-9.0394-9.7584-21.2436-14.62-26.6271-16.7652a95.2344,95.2344,0,0,0-31.3936-6.2507c-8.7685-.29-21.5984-.7137-35.6672,5.2645-13.9821,5.9413-20.4,14.4722-39.4491,18.7376-2.3636.5292-4.3274.86-5.6208,1.0569-1.2933-.1971-3.2572-.5277-5.6208-1.0569-19.0488-4.2654-25.467-12.7963-39.4491-18.7376-14.0687-5.9782-26.8987-5.5542-35.6672-5.2645a95.2344,95.2344,0,0,0-31.3936,6.2507c-5.3835,2.1447-17.5876,7.0068-26.6271,16.7652-14.6543,15.82-14.7259,37.7747-14.7928,46.3508C345.7349,310.6158,494.3,479.8686,499.9151,486.2324v.1923l.0849-.096.085.096Z" style="fill:#fff"/><path d="M481.0633,526.9756c-8.2832,1.8481-227.9592,51.452-281.1824,125.923-4.9868,6.9776-17.8337,24.7815-15.2767,46.1937,1.5772,13.2079,8.5927,24.3148,11.6874,29.2143a95.2376,95.2376,0,0,0,21.7239,23.51c6.9236,5.3884,17.0541,13.2726,31.95,16.7056,14.8039,3.4118,25.0108.2827,42.9286,8.0286,2.2233.9611,4.0064,1.8479,5.1686,2.4487.93.92,2.325,2.3415,3.9261,4.1589C314.8923,797.8053,315.07,808.48,322.89,821.5046c7.868,13.1059,18.4968,20.3042,25.761,25.2238a95.2362,95.2362,0,0,0,29.072,13.3957c5.6161,1.4293,18.3472,4.6692,31.3961,2.0877,21.1543-4.1849,34.117-21.9047,39.212-28.8036,54.3793-73.631,33.6718-297.8838,32.87-306.3327l.113-.1555-.1251.0277-.0123-.1276Z" style="fill:#fff"/><path d="M518.9367,526.9756c8.2832,1.8481,227.9592,51.452,281.1824,125.923,4.9868,6.9776,17.8337,24.7815,15.2767,46.1937-1.5772,13.2079-8.5927,24.3148-11.6874,29.2143a95.2376,95.2376,0,0,1-21.7239,23.51c-6.9236,5.3884-17.0541,13.2726-31.95,16.7056-14.8039,3.4118-25.0108.2827-42.9286,8.0286-2.2233.9611-4.0064,1.8479-5.1686,2.4487-.9305.92-2.325,2.3415-3.9261,4.1589C685.1077,797.8053,684.93,808.48,677.11,821.5046c-7.868,13.1059-18.4968,20.3042-25.761,25.2238a95.2362,95.2362,0,0,1-29.072,13.3957c-5.6161,1.4293-18.3472,4.6692-31.3961,2.0877-21.1543-4.1849-34.117-21.9047-39.212-28.8036-54.3793-73.631-33.6718-297.8838-32.87-306.3327l-.113-.1555.1251.0277.0123-.1276Z" style="fill:#fff"/><path d="M525.6287,499.995c4.3173-7.3067,119.377-200.9026,206.65-228.5081,8.177-2.5865,29.0794-9.3029,48.6535-.2544,12.0741,5.5815,20.4694,15.6859,24.1728,20.1431a95.2346,95.2346,0,0,1,15.6459,27.9255c2.9853,8.25,7.3531,20.3209,6.015,35.5484-1.33,15.1337-7.46,23.874-5.63,43.3085.227,2.4115.5195,4.3814.7317,5.6723.5871,1.1692,1.5084,2.9348,2.7421,5.0191,9.943,16.7984,20.04,20.2663,30.011,31.7281,10.0331,11.5328,13.5945,23.8658,16.0286,32.2948a95.2354,95.2354,0,0,1,3.7564,31.7886c-.3762,5.7828-1.2289,18.892-7.7164,30.5046-10.5171,18.8257-31.3753,25.6782-39.511,28.392-86.8314,28.9646-293.71-60.0273-301.4971-63.4009l-.1828.0594.0651-.1105-.1176-.0511Z" style="fill:#fff"/><path d="M474.3713,499.995c-4.3173-7.3067-119.377-200.9026-206.65-228.5081-8.177-2.5865-29.0794-9.3029-48.6535-.2544-12.0741,5.5815-20.4694,15.6859-24.1728,20.1431a95.2346,95.2346,0,0,0-15.6459,27.9255c-2.9853,8.25-7.3531,20.3209-6.015,35.5484,1.33,15.1337,7.46,23.874,5.63,43.3085-.227,2.4115-.5195,4.3814-.7317,5.6723-.5871,1.1692-1.5084,2.9348-2.7421,5.0191-9.943,16.7984-20.04,20.2663-30.011,31.7281-10.0331,11.5328-13.5945,23.8658-16.0286,32.2948a95.2354,95.2354,0,0,0-3.7564,31.7886c.3762,5.7828,1.2289,18.892,7.7164,30.5046,10.5171,18.8257,31.3753,25.6782,39.511,28.392,86.8314,28.9646,293.71-60.0273,301.4971-63.4009l.1828.0594-.0651-.1105.1176-.0511Z" style="fill:#fff"/></svg>