<svg id="图层_1" data-name="图层 1" xmlns="http://www.w3.org/2000/svg" viewBox="0 0 1000 1000"><title>DeepL</title><circle cx="500" cy="500" r="500" style="fill:none"/><path d="M855.1735,217.7182,527.3207,27.4247a53.9784,53.9784,0,0,0-54.6414,0L144.8262,218.2683a55.0343,55.0343,0,0,0-27.3212,47.2976V646.7026A55.26,55.26,0,0,0,144.8262,694.55L472.6793,884.8435c.7374.431,1.4845.8363,2.2358,1.23L636.605,980l-.5459-82.4973.3309-46.0074.2122.9076v-15.4a27.6326,27.6326,0,0,1,11.9493-22.5245l9.5493-5.5427,5.8228-3.2815-.3054.0792L855.1735,694.55a55.2594,55.2594,0,0,0,27.3215-47.8476V265.5659A55.2559,55.2559,0,0,0,855.1735,217.7182Z" style="fill:#142c46"/><path d="M692.32,426.1694a56.1493,56.1493,0,0,0-78.6847,0c-.2637.253-.5086.5176-.7663.7744L462.0326,338.8893a57.0563,57.0563,0,0,0-15.6029-56.26,56.1523,56.1523,0,0,0-78.6847,0,57.0876,57.0876,0,0,0,0,82.4974,56.1521,56.1521,0,0,0,78.6847,0q1.1313-1.0857,2.188-2.2172l149.7267,86.9052.564-.3178a57.0672,57.0672,0,0,0,14.7266,59.1686,56.15,56.15,0,0,0,78.6847,0A57.0857,57.0857,0,0,0,692.32,426.1694Z" style="fill:#fff"/><path d="M609.2736,519.6612l-27.3214-15.4-132.676,76.6632c-.9119-1.0073-1.85-1.9993-2.8465-2.9554a56.1521,56.1521,0,0,0-78.6847,0,57.0875,57.0875,0,0,0,0,82.4973,56.1523,56.1523,0,0,0,78.6847,0A57.0629,57.0629,0,0,0,462.291,605.137Z" style="fill:#fff"/></svg>