<?xml version="1.0" encoding="utf-8"?>
<svg width="1415px" height="1415px" viewBox="0 0 1415 1415" version="1.1" xmlns:xlink="http://www.w3.org/1999/xlink" xmlns="http://www.w3.org/2000/svg">
  <path d="M0 707.5C0 316.759 316.759 0 707.5 0C1098.24 0 1415 316.759 1415 707.5C1415 1098.24 1098.24 1415 707.5 1415C316.759 1415 0 1098.24 0 707.5Z" id="椭圆" fill="none" fill-rule="evenodd" stroke="none" />
  <g id="编组" transform="translate(207 207)">
    <path d="M900 0C955.236 0 1000 44.764 1000 100L1000 900C1000 955.236 955.236 1000 900 1000L100 1000C44.764 1000 0 955.236 0 900L0 100C0 44.764 44.764 0 100 0L900 0Z" id="bg" fill="#000000" stroke="none" />
    <path d="M305.556 227.778L305.556 150L150 150L150 305.556L227.778 305.556L227.778 227.778L305.556 227.778ZM538.889 227.778L538.889 150L383.333 150L383.333 227.778L538.889 227.778ZM694.444 305.556L772.222 305.556L772.222 150L616.667 150L616.667 227.778L694.444 227.778L694.444 305.556ZM227.778 383.334L150 383.334L150 538.889L227.778 538.889L227.778 383.334ZM694.444 538.889L772.222 538.889L772.222 383.334L694.444 383.334L694.444 538.889ZM616.667 694.444L616.667 772.222L694.444 772.222L694.444 850L772.222 850L772.222 772.222L850 772.222L850 694.444L772.222 694.444L772.222 616.668L694.444 616.668L694.444 694.444L616.667 694.444ZM227.778 616.668L150 616.668L150 772.222L305.556 772.222L305.556 694.444L227.778 694.444L227.778 616.668ZM383.333 694.444L383.333 772.222L538.889 772.222L538.889 694.444L383.333 694.444Z" id="main+others" fill="#FFFFFF" fill-rule="evenodd" stroke="none" />
  </g>
</svg>