<svg id="图层_1" data-name="图层 1" xmlns="http://www.w3.org/2000/svg" viewBox="0 0 1000 1000"><title>Diagrams</title><rect x="125" y="125" width="750" height="750" style="fill:#f2992b"/><polygon points="240.5 737.75 377.75 875 875 875 875 541.856 590.822 257.678 240.5 737.75" style="fill:#df6c0c"/><path d="M734.4715,568.9909H657.3448L575.9876,430.0328a39.4066,39.4066,0,0,0,31.5666-39.0514V286.5187a39.7227,39.7227,0,0,0-39.7023-40.0277H431.8227a39.7228,39.7228,0,0,0-40.0278,39.7023v104.788a39.73,39.73,0,0,0,31.5666,39.0515L342.0043,568.9909H265.2031a39.7228,39.7228,0,0,0-40.0277,39.7023V713.4813a39.7228,39.7228,0,0,0,39.7023,40.0277H400.907a39.7228,39.7228,0,0,0,40.0277-39.7023V609.0186a39.7229,39.7229,0,0,0-39.7023-40.0277H387.89l80.7063-137.9818h62.8078l81.0318,137.9818H599.0931a39.7228,39.7228,0,0,0-40.0278,39.7023V713.4813a39.7227,39.7227,0,0,0,39.7023,40.0277H734.7969a39.7228,39.7228,0,0,0,40.0277-39.7023V609.0186a39.7228,39.7228,0,0,0-39.7023-40.0277Z" style="fill:#fff"/><rect width="1000" height="1000" style="fill:none"/></svg>