<svg id="图层_1" data-name="图层 1" xmlns="http://www.w3.org/2000/svg" viewBox="0 0 1000 1000"><title>Dimensions</title><circle cx="500" cy="500" r="500" style="fill:none"/><rect x="115" y="115" width="770" height="770" rx="115.5" style="fill:#1b7fff"/><path d="M291.9977,416.59a11.876,11.876,0,1,0,16.82-16.7706l-42.3838-42.608a11.9112,11.9112,0,0,0-8.3868-3.5h-.1153a11.82,11.82,0,0,0-9.1944,4.3774L207.08,399.6228a11.876,11.876,0,0,0,16.7505,16.84l22.2417-22.176v346.246L223.8306,718.16a11.876,11.876,0,1,0-16.82,16.7706l42.3723,42.608a11.8268,11.8268,0,0,0,8.3752,3.5111h.0231a11.871,11.871,0,0,0,8.3752-3.465L308.7136,735.15a11.876,11.876,0,0,0-16.75-16.84l-22.161,22.1067V394.2752Z" style="fill:#fff"/><path d="M399.434,308.84a11.876,11.876,0,1,0,16.82-16.7706l-22.08-22.1875H739.9006l-22.2879,22.2222a11.8761,11.8761,0,1,0,16.7506,16.84L776.92,266.5091a11.8783,11.8783,0,0,0,3.4955-8.4546v-.0578a11.9055,11.9055,0,0,0-4.3607-9.2053l-41.4956-41.7071a11.876,11.876,0,1,0-16.82,16.7706l22.1494,22.2684H394.0466l22.3455-22.2684a11.876,11.876,0,0,0-16.7505-16.84l-42.5569,42.4232a11.8888,11.8888,0,0,0-.0346,16.8052Z" style="fill:#fff"/><path d="M735.5976,353.0763h-335.91a45.5316,45.5316,0,0,0-45.4524,45.507V734.8846a45.5315,45.5315,0,0,0,45.4524,45.507h335.91a45.5316,45.5316,0,0,0,45.4524-45.507V398.5833A45.5316,45.5316,0,0,0,735.5976,353.0763Zm21.7225,381.82a21.7645,21.7645,0,0,1-21.7225,21.7487h-335.91a21.7645,21.7645,0,0,1-21.7225-21.7487V398.5833a21.7645,21.7645,0,0,1,21.7225-21.7486h335.91A21.7645,21.7645,0,0,1,757.32,398.5833Z" style="fill:#fff"/></svg>