<?xml version="1.0" encoding="utf-8"?>
<svg width="1000px" height="1000px" viewBox="0 0 1000 1000" version="1.1" xmlns:xlink="http://www.w3.org/1999/xlink" xmlns="http://www.w3.org/2000/svg">
  <path d="M0 0L1000 0L1000 1000L0 1000L0 0Z" id="矩形" fill="none" fill-rule="evenodd" stroke="none" />
  <g id="编组" transform="translate(100.16934 177.29135)">
    <g id="dimmy">
      <path d="M544.846 168.482C650.333 282.341 722.391 499.008 559.454 596.803C473.883 648.161 369.546 648.745 273.034 643.683C185.108 639.067 87.4824 614.443 33.4793 537.507C-51.5753 416.344 40.3831 221.546 142.572 137.576C262.517 38.9947 441.444 56.8798 544.846 168.482L544.846 168.482Z" id="fill" fill="#0CC5BA" fill-rule="evenodd" stroke="none" />
      <path d="M284.54 499.753C284.54 499.753 306.267 508.485 327.669 508.485C349.393 508.485 370.796 499.753 370.796 499.753" id="mouth" fill="none" fill-rule="evenodd" stroke="#000000" stroke-width="10" stroke-linecap="round" />
      <path d="M490.596 468.046C467.704 468.046 449.143 442.411 449.143 410.79C449.143 379.171 467.704 353.539 490.596 353.539C513.493 353.539 532.052 379.171 532.052 410.79C532.052 442.411 513.493 468.046 490.596 468.046L490.596 468.046Z" id="eye-2" fill="#000000" fill-rule="evenodd" stroke="none" />
      <path d="M168.778 469.876C147.044 469.876 129.421 444.554 129.421 413.319C129.421 382.086 147.044 356.763 168.778 356.763C190.516 356.763 208.142 382.086 208.142 413.319C208.142 444.554 190.516 469.876 168.778 469.876L168.778 469.876Z" id="eye-1" fill="#000000" fill-rule="evenodd" stroke="none" />
      <path d="M360.917 78.429C360.917 22.8389 318.112 -11.0224 256.152 3.27613" id="hair-2" fill="none" fill-rule="evenodd" stroke="#0CC5BA" stroke-width="8" stroke-linecap="round" stroke-linejoin="round" />
      <path d="M284.54 75.8808C284.54 40.7994 230.756 41.6383 208.141 59.7521" id="hair-1" fill="none" fill-rule="evenodd" stroke="#0CC5BA" stroke-width="8" stroke-linecap="round" stroke-linejoin="round" />
    </g>
    <g id="phone" transform="matrix(0.79863554 0.601815 -0.601815 0.79863554 684.6472 360.20602)">
      <path d="M7.14929 59.5775L7.14929 33.3634C7.14929 26.1246 9.7086 19.9459 14.8272 14.8272C19.9458 9.70861 26.1245 7.1493 33.3634 7.1493L111.076 7.1493C118.315 7.1493 124.494 9.70861 129.612 14.8272C134.731 19.9459 137.29 26.1246 137.29 33.3634L137.29 191.148C137.29 198.387 134.731 204.565 129.612 209.684C124.494 214.803 118.315 217.362 111.076 217.362L33.3634 217.362C26.1245 217.362 19.9458 214.803 14.8272 209.684C9.7086 204.565 7.14929 198.387 7.14929 191.148L7.14929 59.5775Z" id="2" fill="#000000" fill-rule="evenodd" stroke="none" />
      <path d="M0 52.4282L0 26.2141C0 18.9753 2.55931 12.7966 7.67793 7.67793C12.7965 2.55931 18.9753 0 26.2141 0L118.225 0C125.464 0 131.643 2.55931 136.762 7.67793C141.88 12.7966 144.44 18.9753 144.44 26.2141L144.44 198.297C144.44 205.536 141.88 211.715 136.762 216.833C131.643 221.952 125.464 224.511 118.225 224.511L26.2141 224.511C18.9753 224.511 12.7965 221.952 7.67793 216.833C2.55931 211.715 0 205.536 0 198.297L0 52.4282Z" id="1" fill="none" fill-rule="evenodd" stroke="#EFEDD1" stroke-width="6" />
    </g>
  </g>
</svg>