<svg id="图层_1" data-name="图层 1" xmlns="http://www.w3.org/2000/svg" viewBox="0 0 1000 1000"><title>DNSchecker</title><circle cx="346.4612" cy="390.107" r="158.105" style="fill:#1fa2d8;isolation:isolate"/><rect width="1000" height="1000" style="fill:none"/><path d="M251.7123,271.3856c.8614,1.33,12.2426-8.2542,18.2649-4.5662,3.84,2.3513,3.6884,8.9836,3.4246,20.5479-.21,9.2168-.3153,13.8252-3.4246,18.2649-2.5543,3.6471-5.1571,4.4708-6.8493,9.1324-.7865,2.1663-.9048,4.4884-1.1416,9.1324-.2845,5.5808-.3954,8.4093,1.1416,10.274,1.7106,2.0755,3.3323,1.148,5.7077,3.4246,2.12,2.0322,2.6932,4.5584,3.4247,7.9909,1.3053,6.125-.2135,7.1848,1.1415,11.4155,1.5969,4.9858,5.2306,8.2736,5.7078,7.9909.4014-.2378-1.4291-3.0026-2.2831-7.9909-.1518-.8866-1.1052-6.4555,0-6.8493,1.7929-.6389,8.3094,12.59,11.4155,19.4064,4.9593,10.8832,3.9,11.8618,6.8493,14.84,4.2214,4.2637,16.142,7.9882,21.69,10.274,4.757,1.96,15.1144,4.0122,19.4064,6.8493,7.9514,5.2559,6.2142,11.622,12.5571,13.6986,6.0979,1.9964,10.4523-2.2637,15.9817,1.1416.6112.3763,3.7331,2.2989,4.5662,5.7077,1.0926,4.47-2.806,7.1807-5.7077,13.6986-.5688,1.2776-4.3725,10.1071-2.2831,19.4064,1.7979,8.0018,7.2327,13.1186,10.2739,15.9818,8.3976,7.9059,13.3675,6.1142,17.1233,12.557,4.268,7.3215,1.7135,16.2629,1.1416,18.2649-2.1732,7.6067-5.5736,6.6984-9.1324,15.9817-.7208,1.88-1.6221,7.3418-3.4247,18.2649-1.0656,6.4572-1.4449,9.406,0,10.2739,1.4141.8494,4.194-.5234,5.7078-2.2831,1.5681-1.8228,1.0208-3.1813,2.2831-5.7077,1.2936-2.5894,2.5533-2.5333,5.7077-5.7078,4.4564-4.4845,5.7129-8.3907,6.8494-7.9909,1.1093.39,1.1375,4.5434,1.1415,4.5662h0L453.7671,428.92s-2.5215.2039-5.3519.1632c-3.99-.0575-5.9818-.2149-7.2052-1.3047-2.5429-2.2654.4182-6.3291-1.1415-10.274-1.9072-4.8239-8.2429-3.5733-19.4064-7.9909C408.6365,404.7547,406.21,399.4339,396.69,399.24a22.14,22.14,0,0,0-7.9909,1.1415c-5.777,1.9978-6.0814,4.9894-11.4155,7.9909a25.021,25.021,0,0,1-18.2648,2.2831c-2.69-.7109-6.1035-1.6131-7.9909-4.5662-1.5807-2.4733-.6048-4.06-2.2831-9.1324-1.0848-3.2788-1.7212-5.2021-3.4247-6.8494-3.963-3.8322-9.9153-2.5093-10.2739-4.5662-.17-.9723,1.1564-1.2914,2.2831-3.4246,1.4829-2.808,1.6412-6.9046,0-7.9909-1.3435-.8893-3.6176.421-6.8493,2.2831-5.587,3.2192-6.18,5.3345-9.1325,5.7078-3.9818.5034-7.3358-2.7828-7.9908-3.4247-3.793-3.7163-4.5193-9.4326-3.4247-13.6986,1.9153-7.4647,9.4675-10.7285,13.6986-12.5571a24.9285,24.9285,0,0,1,11.4156-2.2831,21.79,21.79,0,0,1,9.1324,2.2831c6.7245,3.4544,9.1991,9.7024,10.274,9.1324.5455-.2893.0241-1.96-1.1416-7.9908-.8128-4.2046-1.2191-6.307-1.1416-6.8494.7947-5.5568,8.0143-5.3067,10.274-11.4155,1.9169-5.182-2.2793-7.5224,0-12.5571,1.9766-4.3659,5.4122-3.2247,9.1324-9.1324,2.2982-3.6494,2.24-6.0752,4.5663-6.8493,2.1468-.7146,3.5512.9013,6.8493,0,.8222-.2247,3.0972-.8464,3.4246-2.2831.3907-1.7141-2.2038-3.6535-3.4246-4.5662-3.306-2.4713-5.3242-2.0483-5.7078-3.4247-.5638-2.0227,3.235-4.9463,5.7078-6.8493,3.7717-2.9027,5.503-3.0728,5.7077-4.5662.183-1.3348-1.0078-2.6028-6.8493-6.8493-5.9118-4.2977-8.8678-6.4465-10.274-6.8493-6.7411-1.9311-11.862,1.5265-13.6986-1.1416a2.99,2.99,0,0,1,0-3.4246c1.009-1.009,4.6988,1.009,5.7078,0,1.2108-1.2108.8594-5.3683,0-6.8493-2.31-3.98-11.5342-7.9513-15.9818-9.1325-5.881-1.5618-12.3735-1.04-12.557,0-.1356.7682,3.1274,2.0092,6.8493,3.4247,6.5623,2.4958,7.6368,1.9062,9.1324,3.4247,1.347,1.3675,1.6852,3.0741,1.1415,13.6986-.6081,11.8842-1.2005,13.0548-2.2831,13.6986-2.8141,1.6736-7.2913-1.1938-12.557-4.5662-4.3546-2.7889-9.7808-6.2641-9.1325-9.1324.8068-3.5691,10.1354-2.29,12.5571-7.9909.1146-.27,1.2184-2.9554,0-4.5662-1.7863-2.3617-6.175.8273-11.4155-1.1415-4.4136-1.6582-3.8685-4.885-9.1324-6.8494-.9432-.352-5.5571-2.0737-7.9909,0-2.0583,1.7538-.66,4.6053-2.2831,5.7078-2.3434,1.5914-6.4853-3.5159-13.6986-5.7078-6.26-1.9022-11.7763-.6793-14.84,0-6.0236,1.3356-9.8055,3.9527-17.1233,9.1325C258.01,264.4,251.0144,270.3078,251.7123,271.3856Z" style="fill:#fff"/><path d="M335.0457,247.413c1.0207,1.2232,3.8314.964,5.7077,0,2.5286-1.2992,3.0071-3.6969,5.7078-4.5662a2.9747,2.9747,0,0,1,2.2831,0,2.7,2.7,0,0,1,1.1415,1.1415c1.2418,2.0443,8.5107,1.0561,11.4156,1.1416,2.1767.064,3.3537.7736,13.6986,9.1324,11.52,9.3083,15.2156,12.5937,17.1233,11.4155,1.16-.7162,1.5323-3.0039,1.1415-4.5662-.4052-1.62-1.4816-1.8614-2.2831-3.4246-1.2865-2.51.4892-4.0509,0-6.8494-.861-4.9253-6.6876-7.8889-9.1324-9.1324A26.1011,26.1011,0,0,0,375,239.4221c-4.8957-1.0187-5.9569.0013-10.274-1.1415-4.3981-1.1644-4.7377-2.7911-6.8493-2.2831-2.8064.675-3.089,3.6653-6.8493,4.5662a6.3087,6.3087,0,0,1-3.4247,0c-1.8288-.5685-1.9962-1.7179-3.4246-2.2831-2.2929-.9075-5.2539.7115-6.8493,2.2831C335.406,242.4576,333.8018,245.9223,335.0457,247.413Z" style="fill:#fff"/><path d="M351.0274,370.7006c.773-.4156,3.5993-1.7669,9.1324,0,2.7767.8868,3.2592,1.6085,10.274,5.7078,5.533,3.2334,6.61,3.5893,7.9909,3.4247,3.6987-.4412,5.5646-4.1412,6.8493-3.4247.9086.5068,1.1207,2.9967,0,4.5662-2.5807,3.6141-11.9791,1.9983-18.2649-1.1415-3.1475-1.5723-2.6491-2.0953-5.7077-3.4247-6.6309-2.8821-12.2759-1.8593-12.5571-3.4246C348.5714,372.0211,350.5814,370.94,351.0274,370.7006Z" style="fill:#fff"/><path d="M209.4749,465.45a112.8784,112.8784,0,0,1,49.0867-11.4155c10.2176-.0074,26.212.1643,43.379,9.1324,21.54,11.2525,31.4407,29.8622,36.53,37.6712,10.3928,15.9478,17.1233,44.5206,17.1233,44.5206a147.6214,147.6214,0,0,1-35.3881-1.1416c-49.7565-7.67-80.4445-38.8124-87.9-46.8036A152.2584,152.2584,0,0,1,209.4749,465.45Z" style="fill:#ffb200;isolation:isolate"/><path d="M500.5708,363.8513a153.2643,153.2643,0,0,1,1.1415,45.6621,156.5912,156.5912,0,0,1-15.9817,51.37c-5.01,9.8014-23.6142,45.0179-63.9269,66.21a139.4617,139.4617,0,0,1-18.2649,7.9909Z" style="fill:#ffb200"/><path d="M170.6621,485.9975c10.2214,19.4745,33.076,56.1526,76.484,81.05C319.382,608.48,421.1807,601.6284,485.7306,540.792c71.63-67.5095,61.0069-167.2005,59.3607-182.6484a220.1773,220.1773,0,0,0-9.1324-43.379A482.1032,482.1032,0,0,1,595.32,237.139c16.3472-17.3876,46.7048-49.6774,81.05-68.4931,76.4836-41.9006,166.9364-13.8013,198.63-2.2831A1586.3555,1586.3555,0,0,0,662.6712,361.5682c-76.76,84.6654-126.6107,158.0237-165.5251,215.7535C453.6921,641.7861,330.48,853.5774,330.48,853.5774c-19.041-41.5595-41.2191-89.5048-66.21-142.6941-27.15-57.7834-37.7071-79.3771-57.0776-106.1644A410.2582,410.2582,0,0,0,125,520.244Z" style="fill:#ffb200;isolation:isolate"/></svg>