<svg id="图层_1" data-name="图层 1" xmlns="http://www.w3.org/2000/svg" xmlns:xlink="http://www.w3.org/1999/xlink" viewBox="0 0 1000 1000"><defs><linearGradient id="未命名的渐变_11" x1="227.43" y1="188.3969" x2="772.57" y2="188.3969" gradientUnits="userSpaceOnUse"><stop offset="0" stop-color="#666"/><stop offset="0.5" stop-color="#fff"/><stop offset="1" stop-color="#666"/></linearGradient></defs><title>Encycolorpedia</title><circle cx="500" cy="500" r="500" style="fill:none"/><polygon points="734.198 110.331 500 229.415 265.802 110.331 227.43 110.331 227.43 189.72 421.934 266.463 500 266.463 578.066 266.463 772.57 189.72 772.57 110.331 734.198 110.331" style="fill:url(#未命名的渐变_11)"/><polygon points="110 228.092 110 811.33 149.033 820.034 149.033 236.796 110 228.092" style="fill:#1c0133"/><polygon points="188.066 245.5 188.066 828.739 227.099 837.443 227.099 254.205 188.066 245.5" style="fill:#4501ab"/><polygon points="266.132 262.909 266.132 846.147 305.165 854.852 305.165 271.613 266.132 262.909" style="fill:#201fe7"/><polygon points="344.198 280.318 344.198 863.556 383.232 872.261 383.232 289.022 344.198 280.318" style="fill:#04b5c9"/><polygon points="461.298 306.431 422.265 297.726 422.265 880.965 461.298 889.669 461.298 306.431" style="fill:#45d366"/><polygon points="383.232 289.022 383.232 872.261 422.265 880.965 422.265 297.726 383.232 289.022" style="fill:#01da75"/><polygon points="305.165 271.613 305.165 854.852 344.198 863.556 344.198 280.318 305.165 271.613" style="fill:#0e6add"/><polygon points="227.099 254.205 227.099 837.443 266.132 846.147 266.132 262.909 227.099 254.205" style="fill:#3106cc"/><polygon points="149.033 236.796 149.033 820.034 188.066 828.739 188.066 245.5 149.033 236.796" style="fill:#40038b"/><polygon points="890 228.092 890 811.33 850.967 820.034 850.967 236.796 890 228.092" style="fill:#2b010c"/><polygon points="811.934 245.5 811.934 828.739 772.901 837.443 772.901 254.205 811.934 245.5" style="fill:#e21b01"/><polygon points="733.868 262.909 733.868 846.147 694.835 854.852 694.835 271.613 733.868 262.909" style="fill:#fb5d02"/><polygon points="655.802 280.318 655.802 863.556 616.768 872.261 616.768 289.022 655.802 280.318" style="fill:#d2be04"/><polygon points="538.702 306.431 577.735 297.726 577.735 880.965 538.702 889.669 538.702 306.431" style="fill:#71d34c"/><polygon points="616.768 289.022 616.768 872.261 577.735 880.965 577.735 297.726 616.768 289.022" style="fill:#9ad800"/><polygon points="694.835 271.613 694.835 854.852 655.802 863.556 655.802 280.318 694.835 271.613" style="fill:#fc8e01"/><polygon points="772.901 254.205 772.901 837.443 733.868 846.147 733.868 262.909 772.901 254.205" style="fill:#f12f00"/><polygon points="850.967 236.796 850.967 820.034 811.934 828.739 811.934 245.5 850.967 236.796" style="fill:#940301"/></svg>