<?xml version="1.0" encoding="utf-8"?>
<svg width="1000px" height="1000px" viewBox="0 0 1000 1000" version="1.1" xmlns:xlink="http://www.w3.org/1999/xlink" xmlns="http://www.w3.org/2000/svg">
  <g id="EpicGames">
    <path d="M0 0L1000 0L1000 1000L0 1000L0 0Z" id="矩形" fill="none" fill-rule="evenodd" stroke="none" />
    <path d="M229.567 100.033C183.835 100.033 167.002 116.9 167.002 162.666L167.002 714.692C166.979 719.509 167.201 724.326 167.668 729.123C168.702 739.125 168.902 748.791 178.201 759.791C179.101 760.891 188.568 767.958 188.568 767.958C193.668 770.458 197.168 772.291 202.901 774.624L480.731 890.989C495.164 897.623 501.197 900.189 511.664 899.989L511.73 899.989C522.197 900.189 528.23 897.623 542.663 890.989L820.493 774.591C826.226 772.258 829.726 770.458 834.826 767.924C834.826 767.924 844.292 760.891 845.192 759.824C854.526 748.825 854.692 739.125 855.726 729.158C856.194 724.351 856.416 719.522 856.392 714.692L856.392 162.666C856.392 116.9 839.526 100 793.793 100L229.567 100.033Z" id="形状-小路" fill="#000000" stroke="none" />
    <path d="M378.965 790.424L646.095 790.424L509.764 835.357L378.965 790.424Z" id="形状-小路" fill="#FFFFFF" stroke="none" />
    <path d="M716.861 586.027C723.782 586.009 730.664 587.066 737.26 589.16C743.404 591.194 749.13 594.322 754.16 598.393L741.294 616.593C737.305 613.713 732.928 611.412 728.294 609.76C724.145 608.261 719.772 607.472 715.361 607.427C712.925 607.258 710.498 607.865 708.428 609.16C706.992 610.094 706.117 611.681 706.094 613.393L706.094 613.66C706.072 614.643 706.326 615.613 706.828 616.46C707.468 617.399 708.341 618.157 709.361 618.66C710.927 619.481 712.567 620.151 714.261 620.66C716.327 621.326 718.927 621.993 722.127 622.693C726.989 623.732 731.778 625.09 736.461 626.76C740.358 628.115 744.04 630.023 747.394 632.426C750.293 634.51 752.658 637.252 754.294 640.426C755.956 643.932 756.767 647.781 756.66 651.659L756.66 651.926C756.742 656.32 755.819 660.676 753.96 664.659C752.163 668.36 749.554 671.607 746.327 674.159C742.829 676.9 738.833 678.938 734.56 680.159C729.575 681.575 724.41 682.26 719.227 682.192C711.178 682.235 703.178 680.928 695.561 678.326C688.263 675.85 681.54 671.928 675.795 666.792L690.128 649.659C699.361 657.093 709.394 660.826 720.127 660.826C722.852 660.985 725.568 660.409 727.994 659.159C729.722 658.22 730.778 656.392 730.727 654.426L730.727 654.159C730.74 653.259 730.51 652.373 730.061 651.593C729.441 650.672 728.606 649.917 727.627 649.393C726.114 648.541 724.517 647.848 722.861 647.326C720.307 646.51 717.715 645.82 715.094 645.259C710.454 644.2 705.861 642.943 701.328 641.493C697.409 640.264 693.692 638.467 690.295 636.159C687.236 634.067 684.703 631.295 682.895 628.06C680.97 624.36 680.029 620.228 680.161 616.06L680.161 615.793C680.117 611.673 680.958 607.593 682.628 603.826C684.264 600.184 686.702 596.959 689.761 594.393C693.105 591.624 696.953 589.53 701.094 588.227C705.923 586.701 710.964 585.958 716.028 586.027C716.306 586.025 716.583 586.025 716.862 586.027L716.861 586.027Z" id="s" fill="#FFFFFF" stroke="none" />
    <path d="M593.796 587.527L668.295 587.527L668.295 609.46L619.196 609.46L619.196 623.526L663.662 623.526L663.662 643.859L619.196 643.859L619.196 658.592L668.962 658.592L668.962 680.526L593.796 680.526L593.796 587.527Z" id="e" fill="#FFFFFF" stroke="none" />
    <path d="M478.164 587.527L505.297 587.527L527.397 623.526L549.496 587.527L576.629 587.527L576.629 680.526L551.096 680.526L551.096 627.126L527.397 663.492L526.863 663.492L503.297 627.393L503.297 680.492L478.164 680.492L478.164 587.527Z" id="m" fill="#FFFFFF" stroke="none" />
    <path d="M429.665 586.86L404.932 586.86L365.499 680.492L392.499 680.492L399.098 663.892L434.831 663.892L441.598 680.526L469.097 680.526L429.665 586.86ZM400.632 646.759L417.458 613.426L433.965 646.759L400.632 646.759Z" id="a" fill="#FFFFFF" fill-rule="evenodd" stroke="none" />
    <path d="M318.1 585.76C324.827 585.787 331.497 587.006 337.799 589.36C343.757 591.758 349.276 595.126 354.132 599.327L339.066 617.526C335.981 614.868 332.521 612.678 328.799 611.026C324.963 609.452 320.845 608.68 316.7 608.76C313.479 608.733 310.293 609.416 307.366 610.76C304.542 612.058 302.004 613.905 299.9 616.193C297.739 618.561 296.033 621.307 294.866 624.293C293.612 627.465 292.978 630.848 293 634.259L293 634.526C292.974 638.057 293.607 641.561 294.867 644.859C296.02 647.918 297.803 650.7 300.1 653.026C302.369 655.307 305.064 657.119 308.033 658.359C311.236 659.675 314.671 660.332 318.133 660.292C323.351 660.503 328.514 659.157 332.966 656.426L332.966 645.126L314.7 645.126L314.7 626.293L357.332 626.293L357.332 668.126C352.059 672.398 346.171 675.848 339.866 678.359C332.617 681.198 324.883 682.591 317.1 682.459C310.246 682.537 303.44 681.327 297.033 678.892C291.122 676.627 285.71 673.23 281.1 668.892C276.57 664.613 272.962 659.451 270.5 653.726C267.897 647.617 266.592 641.033 266.667 634.393L266.667 634.126C266.605 627.601 267.887 621.134 270.434 615.126C272.878 609.392 276.41 604.185 280.833 599.793C285.355 595.333 290.728 591.83 296.633 589.493C302.975 586.981 309.745 585.724 316.566 585.793C317.066 585.787 317.567 585.787 318.067 585.794L318.1 585.76Z" id="g" fill="#FFFFFF" stroke="none" />
    <path d="M675.095 203.699L697.761 203.699C735.694 203.699 754.027 222.132 754.027 260.231L754.027 322.897L708.228 322.897L708.228 262.898C708.228 250.598 702.561 244.898 690.794 244.898L682.961 244.898C670.728 244.898 665.061 250.565 665.061 262.864L665.061 456.529C665.061 468.828 670.728 474.528 682.961 474.528L691.694 474.528C703.461 474.528 709.128 468.828 709.128 456.529L709.128 387.329L754.894 387.329L754.894 458.762C754.894 496.895 736.161 515.761 698.228 515.761L675.095 515.761C637.162 515.761 618.429 496.895 618.429 458.762L618.429 260.698C618.429 222.565 637.162 203.732 675.095 203.732L675.095 203.699Z" id="C" fill="#FFFFFF" stroke="none" />
    <path d="M547.096 206.365L593.762 206.365L593.762 513.061L547.096 513.061L547.096 206.365Z" id="I" fill="#FFFFFF" stroke="none" />
    <path d="M469.364 206.365L396.099 206.365L396.065 513.061L442.731 513.061L442.731 401.796L469.364 401.796C507.297 401.796 526.03 382.93 526.03 344.797L526.03 263.298C526.03 225.165 507.297 206.365 469.364 206.365ZM442.765 360.596L442.765 247.531L461.931 247.531C473.697 247.531 479.364 253.265 479.364 265.531L479.364 342.597C479.364 354.897 473.731 360.596 461.931 360.596L442.765 360.596Z" id="P" fill="#FFFFFF" fill-rule="evenodd" stroke="none" />
    <path d="M268.9 206.365L372.699 206.365L372.699 248.831L315.566 248.831L315.566 335.597L370.499 335.597L370.499 378.096L315.566 378.096L315.566 470.562L373.565 470.562L373.565 513.061L268.9 513.061L268.9 206.365Z" id="E" fill="#FFFFFF" stroke="none" />
  </g>
</svg>