<svg id="图层_1" data-name="图层 1" xmlns="http://www.w3.org/2000/svg" viewBox="0 0 1000 1000"><defs><style>.cls-1{fill:none;}.cls-2{fill:#fff;}.cls-3{fill:#5ecfdb;}.cls-4{fill:#886ff4;}.cls-5{fill:#3d3c9d;}</style></defs><rect class="cls-1" width="1000" height="1000"/><rect class="cls-2" x="125" y="125" width="750" height="750" rx="120"/><path class="cls-3" d="M530.56545,592.67477l-64.75566,20.72179-91.694,34.32052s-25.90226,6.86408-25.90226,26.80884A44.29278,44.29278,0,0,0,359.74,705.22008l-4.92141-2.20167h0l151.78724,60.99987c13.85771,5.569,24.99569-12.95113,24.73666-40.92557Z"/><path class="cls-4" d="M669.53111,270.58017c0-25.90227-19.29721-41.1846-42.73873-33.67294L371.52555,318.49935a51.80545,51.80545,0,0,0-7.77068,3.3673,22.535,22.535,0,0,0-6.86411,16.18891,23.1825,23.1825,0,0,0,11.397,21.36936l25.25472,10.10189,110.86168,44.5519c13.8577,5.569,25.90226,33.02538,25.90226,61.12933V592.41579l98.29908-31.47125a66.56878,66.56878,0,0,0,42.47975-61.12936Z"/><path class="cls-5" d="M529.9179,475.46707c0-28.104-11.656-55.56034-25.90226-61.12933L393.54248,370.30387,368.28777,360.202a23.18251,23.18251,0,0,1-11.397-21.36936,22.535,22.535,0,0,1,6.86411-16.18891h0l-4.5329,2.71974a61.77683,61.77683,0,0,0-24.47763,30.43515,90.65822,90.65822,0,0,0-5.569,38.85339L330.341,642.27763c0,36.52218,5.18046,48.04868,22.40547,59.44569h0l2.20169,1.03611,4.92142,2.20167a44.29279,44.29279,0,0,1-11.5265-30.69416c0-19.94476,25.90226-26.80884,25.90226-26.80884l91.694-34.32052h0L530.695,592.41579Z"/></svg>