<?xml version="1.0" encoding="utf-8"?>
<!-- Generator: Adobe Illustrator 23.0.1, SVG Export Plug-In . SVG Version: 6.00 Build 0)  -->
<svg version="1.1" id="图层_1" xmlns="http://www.w3.org/2000/svg" xmlns:xlink="http://www.w3.org/1999/xlink" x="0px" y="0px"
	 viewBox="0 0 1000 1000" style="enable-background:new 0 0 1000 1000;" xml:space="preserve">
<style type="text/css">
	.st0{fill:none;}
	.st1{fill-rule:evenodd;clip-rule:evenodd;fill:#228BE6;}
	.st2{fill-rule:evenodd;clip-rule:evenodd;fill:#FFFFFF;}
</style>
<title>FontAwesome5</title>
<rect class="st0" width="1000" height="1000"/>
<path class="st1" d="M205.3,125c-44.4,0-80.3,36-80.3,80.3v589.3c0,44.4,36,80.3,80.3,80.3h589.3c44.4,0,80.3-36,80.3-80.3V205.3
	c0-44.4-36-80.3-80.3-80.3H205.3z"/>
<path class="st2" d="M338.3,246.7c31.3-0.1,56.7,25.2,56.8,56.5c0,0.1,0,0.1,0,0.2c0.3,17.6-8,34.3-22.3,44.6v31.4
	c4.1-1.4,58.1-28.4,113.5-28.4c64.6,0,96.7,27.4,125.7,27.4c38.5,0,81.1-27.4,91.2-27.4c8.1,0,15.2,6.1,15.2,13.2v238.2
	c0,7.1-6,10.1-13.1,13.2c-28.4,12.2-58.8,23.3-91.2,23.3c-45.6,0-66.9-28.4-121.6-28.4c-39.5,0-81.1,14.2-114.5,29.4
	c-2,1-4.1,1-6.1,2v77c0,21.2-15.9,34.5-33.4,34.5c-18.9,0.1-34.3-15.1-34.5-33.9c0-0.2,0-0.3,0-0.5V348
	c-24.8-18.8-29.6-54.2-10.8-79C303.8,254.8,320.6,246.6,338.3,246.7L338.3,246.7z"/>
</svg>
