<?xml version="1.0" encoding="utf-8"?>
<svg width="1000px" height="1000px" viewBox="0 0 1000 1000" version="1.1" xmlns:xlink="http://www.w3.org/1999/xlink" xmlns="http://www.w3.org/2000/svg">
  <defs>
    <linearGradient gradientUnits="objectBoundingBox" x1="0.5" y1="1" x2="0.5" y2="0" id="gradient_1">
      <stop offset="0%" stop-color="#EB6352" />
      <stop offset="100%" stop-color="#F6B645" />
    </linearGradient>
  </defs>
  <path d="M606.893 576.753C607.374 577.071 696.147 577.706 804.148 577.865C919.165 577.991 975.705 577.815 994.105 577.016C997.986 551.912 1000 526.191 1000 500C1000 410.551 976.511 326.587 935.365 253.942L934.887 254.42C924.17 264.301 895.526 292.012 862.315 324.55C820.492 365.684 745.821 439.058 696.307 487.656C646.633 536.096 606.413 576.277 606.893 576.753ZM902.869 203.808L768.735 335.985C692.301 411.265 629.006 473.045 628.045 473.363C627.869 473.403 627.709 473.495 627.562 473.476C625.976 473.266 626.124 459.92 627.885 224.336C628.526 137.462 629.007 53.9241 629.167 38.8364C629.167 28.0408 629.335 21.1457 629.691 16.984C740.74 46.7261 836.543 113.745 902.869 203.808ZM575.717 5.69594C551.025 1.94496 525.74 0 500 0C409.274 0 324.191 24.1642 250.838 66.4077C252.554 68.5421 255.264 71.2049 258.897 74.7739C260.648 76.4933 262.612 78.4232 264.783 80.6056C275.198 91.0876 285.774 102.046 288.338 105.064C293.145 111.099 297.631 115.546 454.986 273.093C513.154 331.38 563.629 381.883 566.833 385.06C570.038 388.395 573.243 391.095 574.044 391.095C575.006 391.095 575.647 374.895 575.807 350.12C575.807 327.726 575.967 239.741 576.288 154.932C576.635 53.0066 576.648 17.6795 575.717 5.69594ZM202.461 98.1268C113.67 163.974 47.4619 258.549 17.5786 368.109L88.0383 368.384C132.745 368.384 238.343 369.02 322.308 369.496L475.337 370.29L449.378 344.561C435.277 330.426 372.463 267.852 310.13 205.595L202.461 98.1268ZM4.99706 429.037C1.70366 452.218 0 475.91 0 500C0 591.631 24.6486 677.505 67.677 751.354L148.769 671.726C196.36 625.034 271.192 551.501 315.098 508.303L395.057 429.847L253.405 429.37C175.529 429.053 87.718 428.894 58.3942 428.735C36.6737 428.617 17.1623 428.761 7.8475 429.037L4.99706 429.037ZM93.8368 791.666C158.738 881.885 252.955 949.601 362.543 980.868C363.165 967.815 363.534 937.254 363.65 887.719C363.81 832.609 364.291 728.265 364.772 655.844C365.092 583.582 365.252 524.503 365.092 524.502C363.002 526.285 361.022 528.195 359.163 530.219C356.119 533.396 293.305 595.493 219.435 668.073L93.8368 791.666ZM429.684 995.094C452.658 998.328 476.134 1000 500 1000C592.067 1000 678.322 975.116 752.407 931.708C738.103 916.917 701.948 880.337 659.772 838.168C605.131 783.375 531.1 709.207 495.206 673.314L429.989 607.881L429.829 741.289C429.668 814.662 429.348 902.806 429.348 937.27C429.169 971.601 429.14 987.102 429.684 994.182L429.684 995.094ZM799.778 900.204C888.357 833.746 954.15 738.567 983.337 628.487L871.609 628.051C804.469 627.892 699.191 627.416 637.659 626.939C534.145 626.304 525.812 626.463 527.895 628.845C529.017 630.275 591.51 692.849 666.823 767.811L799.778 900.204Z" id="圆-减去" fill="url(#gradient_1)" fill-rule="evenodd" stroke="none" />
</svg>