<svg id="图层_1" data-name="图层 1" xmlns="http://www.w3.org/2000/svg" viewBox="0 0 1000 1000"><title>Foxit-CloudEdit</title><path d="M750,0V200l49,49h201v751H0V0Z" style="fill:#f6891d;isolation:isolate"/><path d="M773,344c.7853-.5458-37.7782-134.86-152-179-148.1172-57.2381-349.0147,73.7749-392,230-5.0834,18.4749-24.0223,90.1186,10,166C275.47,642.34,357.71,695.0585,442,703c102.9094,9.6957,221.6511-46.15,257-152,27.5363-82.4557-8.0948-157.6357-18-177a110.1161,110.1161,0,0,1-3,46c-1.0594,3.6758-7.574,25.5239-14,25-5.3245-.4341-4.92-15.766-15-34a89.3091,89.3091,0,0,0-22-26c1.028,8.775,4.4464,46.4113-21,79-25.0208,32.0437-68.154,46.6628-111,38,10.0212,14.3425,25.9093,32.2105,50,43,32.0741,14.3651,57.5961,6.7363,60,15,3.3109,11.3818-39.4787,45.1947-89,48-47.64,2.6988-104.115-23.1744-128-74-27.2606-58.0085,4.01-115.2309,17-139,30.1017-55.0824,94.5411-110.5421,161-105,66.5643,5.5509,116,60,116,60A161.1768,161.1768,0,0,0,566,231s41.4668-11.5791,81,0C731.496,255.7486,772.3293,344.4662,773,344Z" style="fill:#fff;isolation:isolate"/><polygon points="799 0 799 200 1000 200 799 0" style="fill:#f6891d;isolation:isolate"/><path d="M417.9737,820.99q0,14.0524-6.3342,24.6983a42.8638,42.8638,0,0,1-18.4174,16.6076q-12.0829,5.9616-28.5841,5.9616H342.0688V925H316.3059V775h47.2676q26.1886,0,40.2945,11.9766T417.9737,820.99Zm-25.9758.2129q0-12.9879-7.8247-20.2271t-23.5806-7.2392H342.0688v55.9972h19.3755q14.4761,0,22.516-7.3989Q391.9979,834.9361,391.9979,821.203Z" style="fill:#fff"/><path d="M570.4223,848.7757q0,23.4208-8.73,40.6672a61.325,61.325,0,0,1-24.9645,26.4017Q520.4933,925,498.9886,925H443.7367V775h50.3549q37.26,0,56.7956,18.8432T570.4223,848.7757Zm-26.0823,0q0-53.2292-50.7807-53.2292H469.5v108.907h27.36q22.4605,0,34.9716-14.5848Q544.34,875.2839,544.34,848.7757Z" style="fill:#fff"/><path d="M625.8872,925h-25.87V775h83.6764v20.7594H625.8872v45.4578h55.3584v20.1206H625.8872Z" style="fill:#fff"/></svg>