<svg id="图层_1" data-name="图层 1" xmlns="http://www.w3.org/2000/svg" viewBox="0 0 1000 1000"><title>FreeMockups</title><circle id="Oval" cx="500" cy="500" r="500"/><path id="Combined-Shape" d="M535.01,482.0064c-7.3334-10.1387-12.5491-17.6374-17.6142-25.5061-13.5764-20.34-17.5616-42.4835-13.5406-67.1645l.2951-1.5845a93.7618,93.7618,0,0,1,6.6258-19.9748,99.3014,99.3014,0,0,1,10.1863-17.2029,104.8994,104.8994,0,0,1,18.1193-18.985c23.6139-18.7466,51.553-24.6931,82.8286-21.046,20.9115,2.4386,38.397,7.6972,68.5663,18.8958L669.488,393.1092c-49.8967-18.5212-74.5419-21.4466-92.1138-7.6781a38.3208,38.3208,0,0,0-6.3235,6.674,31.0322,31.0322,0,0,0-3.1793,5.3218,23.8928,23.8928,0,0,0-1.521,4.3075c-1.0649,7.19-.2693,11.044,3.3853,16.4872,4.3169,6.7187,8.9425,13.3732,15.6989,22.714-.6984-.9655,9.5537,13.1447,12.3773,17.0958,12.1539,17.0072,20.2841,29.8474,27.1743,43.9529a167.7134,167.7134,0,0,1,16.69,57.15,154.0162,154.0162,0,0,1,.384,24.0884,148.6379,148.6379,0,0,1-11.7435,49.1706,128.78,128.78,0,0,1-11.19,20.7325,135.4271,135.4271,0,0,1-49.1809,44.3769,145.59,145.59,0,0,1-24.7319,10.37c-60.7948,17.5518-128.647-1.5958-170.9764-49.2415L420.49,612.36c25.88,29.1307,69.2187,41.4433,107.5986,30.5505A82.5024,82.5024,0,0,0,541.34,637.265a70.8381,70.8381,0,0,0,25.8233-22.991A60.2367,60.2367,0,0,0,572.41,604.57a77.8521,77.8521,0,0,0,6.227-25.8681,82.3945,82.3945,0,0,0-.1973-12.7011c-2.2587-21.0945-10.8292-38.5974-31.2773-67.211C544.52,495.0922,534.4552,481.24,535.01,482.0064Zm-67.7887-137.83V510.1331h38.8865v67.4537H403.6548V344.1762ZM371.532,493.6123c0,25.1509-19.2075,45.5388-42.9071,45.5388-23.7031,0-42.9106-20.3879-42.9106-45.5388,0-25.1453,19.2075-45.5294,42.9106-45.5294C352.3245,448.0829,371.532,468.467,371.532,493.6123Z" style="fill:#fff"/></svg>