<svg id="图层_1" data-name="图层 1" xmlns="http://www.w3.org/2000/svg" viewBox="0 0 1415 1415"><title>Gaoding</title><circle cx="707.5" cy="707.5" r="707.5" style="fill:none"/><rect x="207.5" y="207.5" width="1000" height="1000" style="fill:#2054f5"/><path d="M574.5847,142.7783q80.754,49.7264,134.5894,87.4829L697.21,247.8325h81.875q27.2856.3772,77.3887-6.3554v68.416q-48.9814-6.73-76.6406-6.3555H517.7585q-29.915,0-79.6318,6.3555V258.6748a23.68,23.68,0,0,1-6.3559-1.4956q-2.2428-.7449-3.3648-1.1216a62.1124,62.1124,0,0,0-13.4585-1.4956,69.0168,69.0168,0,0,0-14.207,1.4956q-19.82,4.486-37.3858,7.1035V374.1968H394.759q27.6621.3771,77.3887-6.3555v69.1636q-59.8206-7.8509-76.6411-7.103H363.3547v27.6655q50.8389,51.2241,78.8843,83.37c0-.9927-.1284-2.6167-.374-4.86q-1.1214-22.0546-2.2432-33.2734a539.567,539.567,0,0,0,78.8843,8.2251H771.2346q14.9487.753,78.8838-6.7295-6.3618,50.8476-5.9814,78.8838V776.0947q1.49,40.377-23.5537,53.4619-22.8076,15.3252-108.045,25.4219-5.9838-34.0239-32.1513-75.8926,5.9751.3678,21.6836,1.8692,38.1327,3.7324,46.3584,3.7383,31.0268,1.49,28.413-23.1788V567.1079h-263.57V786.1885q0,25.7973,5.2339,69.5381H439.6218q5.9759-46.7388,5.6079-70.2852V580.1929q.3684-1.1214-.7475-7.8511l-42.2461,39.2554a272.302,272.302,0,0,1-13.8325-25.4224q-10.4715-22.0546-25.0489-37.3862V776.8428q-.3764,30.2827,5.2339,80.3789H288.9568q6.353-53.4669,5.9819-80.3789V594.7734a1164.77,1164.77,0,0,1-65.7993,122.2515q-37.0114-22.8-85.6133-32.8994,90.8475-90.0937,143.1875-254.2236H261.2913q-25.7959-.3684-79.6319,7.103V367.8413q51.2162,6.7295,81.1275,6.3555h32.1518V274.7505q-5.608,1.1213-17.9453,2.9907-39.2549,7.1067-63.1821,10.4683Q201.842,257.9268,174.93,216.4287q19.812,1.875,30.2827,2.6172,9.3406.3765,17.9454.3735,122.2514-5.231,192.163-45.2368l35.8907,50.4707q9.717,14.2126,10.8418,20.1885,32.1489,2.997,56.4526,2.9907H622.0647a827.06,827.06,0,0,0-84.1182-53.8354ZM495.7,490.4668q5.6082-41.8659,5.982-70.2852V394.7593q.3684-16.4473-5.982-72.9029,49.7176,6.73,78.1368,6.356H714.0344q20.5562.7536,74.7715-6.356-5.6088,49.7263-5.2344,73.65v25.4224q-.3764,24.6746,5.9815,70.2852-26.5488-3.7325-43.3672-5.2339-15.7017-1.49-32.1514-1.4951H573.8372Q539.8131,484.8618,495.7,490.4668Zm40.751,261.7012q3.3648-28.0394,4.86-43.3677,1.122-14.58,1.1216-27.6655V662.0679q.3684-10.8392-5.9815-73.65,50.8389,7.4824,77.0147,7.103h68.416q25.043.3773,73.2763-7.103-6.3618,51.2241-5.9814,74.3974v19.0669q-.3765,21.31,6.73,69.5376-57.5772-6.3529-74.7725-5.9814H613.4661Q593.646,745.4385,536.4514,752.168Zm33.647-367.503v43.7413H715.53V384.665Zm40.3769,266.5611v38.5073h71.4068V651.2261Z" transform="translate(207.5 207.5)" style="fill:#fff"/></svg>