<svg id="图层_1" data-name="图层 1" xmlns="http://www.w3.org/2000/svg" viewBox="0 0 1415 1415"><title>1</title><circle cx="707.5" cy="707.5" r="707.5" style="fill:none"/><rect x="207.5" y="207.5" width="1000" height="1000"/><rect x="223.5" y="223.5" width="312" height="312" style="fill:#fff"/><rect x="551.5" y="223.5" width="312" height="312" style="fill:#fff"/><rect x="879.5" y="223.5" width="312" height="312" style="fill:#fff"/><rect x="223.5" y="551.5" width="312" height="312" style="fill:#fff"/><rect x="551.5" y="551.5" width="312" height="312" style="fill:#fff"/><rect x="879.5" y="551.5" width="312" height="312" style="fill:#fff"/><rect x="223.5" y="879.5" width="312" height="312" style="fill:#fff"/><rect x="551.5" y="879.5" width="312" height="312" style="fill:#fff"/><rect x="879.5" y="879.5" width="312" height="312" style="fill:#fff"/><rect x="582.5" y="254.5" width="250" height="250"/><rect x="582.5" y="910.5" width="250" height="250"/><rect x="254.5" y="910.5" width="250" height="250"/><rect x="910.5" y="910.5" width="250" height="250"/><rect x="910.5" y="582.5" width="250" height="250"/></svg>