<svg id="Gitee" xmlns="http://www.w3.org/2000/svg" viewBox="0 0 1000 1000"><path id="Shape-path" d="M499.368,0C223.474.31579,0,224.105,0,500c0,276.105,223.895,500,500,500s500-223.895,500-500S776.105,0,500,0Z" style="fill:#c71d23;fill-rule:evenodd"/><path id="Shape-path-2" data-name="Shape-path" d="M753.053,222.211a24.66222,24.66222,0,0,1,24.631,24.631v61.895a24.685,24.685,0,0,1-24.737,24.631H407.368a74.07969,74.07969,0,0,0-74.105,74.106V642.105A24.61947,24.61947,0,0,0,358,666.737H592.632a74.0795,74.0795,0,0,0,74.105-74.105V580.316a24.75393,24.75393,0,0,0-24.632-24.737H469.053a24.66391,24.66391,0,0,1-24.632-24.632h0V469.158a24.68646,24.68646,0,0,1,24.737-24.632h284a24.68647,24.68647,0,0,1,24.737,24.632v142A166.66741,166.66741,0,0,1,611.263,777.789H247.053a24.70724,24.70724,0,0,1-24.737-24.736h0V407.368c0-102.315,82.947-185.157,185.158-185.157Z" style="fill:#fff;fill-rule:evenodd"/></svg>