<svg id="Github" xmlns="http://www.w3.org/2000/svg" viewBox="0 0 1000 1000"><circle cx="500" cy="500" r="500"/><path d="M623.083,833.688c0-48.022-16.25-79.468-33.75-94.848,111.25-12.605,228.125-55.97,228.125-252.931,0-55.97-19.375-101.685-51.25-137.574,5-12.946,21.875-65.06995-5-135.694,0,0-41.875-13.757-136.875,52.552-40-11.408-82.5-17.048-125-17.304-42.5.256-85,5.896-125,17.304-95.625-66.309-137.5-52.552-137.5-52.552-26.875,70.624-10,122.748-4.375,135.694C200.375,384.224,181,429.939,181,485.909c0,196.448,116.708,240.54,227.75,253.357-14.292,12.818-27.167,35.42-31.667,68.574C348.5,820.956,276.042,843.6,231.458,765.2c0,0-26.375-49.218-76.583-52.808,0,0-48.792-.64-3.5,31.147,0,0,32.875,15.808,55.625,74.982,0,0,29.333,99.719,168.417,68.786.208,42.725.625,74.983.625,87.159a29.58081,29.58081,0,0,1-1.5982,9.63471,503.68606,503.68606,0,0,0,249.04809.52539A51.531,51.531,0,0,1,622.458,974.082C622.458,957.419,623.083,902.304,623.083,833.688Z" style="fill:#fff;fill-rule:evenodd"/></svg>