<svg id="图层_1" data-name="图层 1" xmlns="http://www.w3.org/2000/svg" viewBox="0 0 1415 1415"><title>Gnoosic</title><rect x="207.5" y="207.5" width="1000" height="1000" style="fill:#fff"/><circle cx="707.5" cy="707.5" r="707.5" style="fill:none"/><path d="M335.0485,100,457.4357,336.0945a24.0933,24.0933,0,0,1-43.4,17.36Q374.5422,226.7272,335.0485,100Z" transform="translate(207.5 207.5)"/><path d="M97.97,333.3618l254.2348,78a24.0932,24.0932,0,0,1-18.0054,43.1359Z" transform="translate(207.5 207.5)"/><path d="M667.5555,900,545.1683,663.9055a24.0933,24.0933,0,0,1,43.4-17.36Q628.0618,773.2728,667.5555,900Z" transform="translate(207.5 207.5)"/><path d="M902.03,664.9023l-254.2348-78a24.0932,24.0932,0,0,1,18.0054-43.1359Z" transform="translate(207.5 207.5)"/><path d="M902.03,333.3618l-254.2348,78a24.0932,24.0932,0,0,0,18.0054,43.1359Z" transform="translate(207.5 207.5)"/><path d="M335.9165,900,458.3037,663.9055a24.0933,24.0933,0,0,0-43.4-17.36Q375.41,773.2728,335.9165,900Z" transform="translate(207.5 207.5)"/><path d="M98.8377,666.6382l254.2348-78a24.0933,24.0933,0,0,0-18.0054-43.1359Z" transform="translate(207.5 207.5)"/><path d="M575.4829,493.2015V178.12a115.5955,115.5955,0,0,0,19.9639,13.8879c20.2024,11.0843,28.9007,7.85,47.74,18.2279,10.2285,5.6347,26.5893,14.6477,27.7758,28.6438.58,6.8433-2.34,16.3744-7.8119,23.4359-5.0778,6.5533-11.0116,9.2491-10.4159,13.8879.422,3.2868,3.9521,6.2244,6.9439,6.9439,13.4891,3.2444,44.7612-31.689,41.6637-65.9675-2.01-22.2457-17.8592-37.1775-21.7-40.7958-29.5229-27.8141-63.9243-14.4673-91.1394-43.4a74.3124,74.3124,0,0,1-14.756-23.4359H539.8952v350.67c-47.13-23.642-92.768-17.0428-110.2353,7.812-8.0607,11.47-11.143,28.28-5.208,41.6637,16.2719,36.6949,99.4748,45.72,135.4071,9.548A66.4044,66.4044,0,0,0,575.4829,493.2015Z" transform="translate(207.5 207.5)"/></svg>