<svg id="图层_1" data-name="图层 1" xmlns="http://www.w3.org/2000/svg" xmlns:xlink="http://www.w3.org/1999/xlink" viewBox="0 0 1415 1415"><defs><linearGradient id="未命名的渐变_7" x1="467.2259" y1="454.9688" x2="525.7383" y2="451.6916" gradientTransform="matrix(0.9698, -0.2441, -0.2441, -0.9698, 265.9282, 1178.5263)" gradientUnits="userSpaceOnUse"><stop offset="0" stop-color="#549ff3" stop-opacity="0"/><stop offset="0.145" stop-color="#549ff3" stop-opacity="0.145"/><stop offset="1" stop-color="#549ff3"/></linearGradient><linearGradient id="未命名的渐变_2" x1="665.1426" y1="432.6626" x2="606.9922" y2="382.9927" gradientTransform="matrix(1, 0, 0, -1, 0, 1002)" gradientUnits="userSpaceOnUse"><stop offset="0" stop-color="#3ae4da"/><stop offset="0.945" stop-color="#3ae4da" stop-opacity="0.055"/><stop offset="1" stop-color="#3ae4da" stop-opacity="0"/></linearGradient><linearGradient id="未命名的渐变_3" x1="620.7465" y1="435.0488" x2="601.8274" y2="386.3997" gradientTransform="matrix(1, 0, 0, -1, 0, 1002)" gradientUnits="userSpaceOnUse"><stop offset="0" stop-color="#85e65a"/><stop offset="0.8625" stop-color="#85e65a" stop-opacity="0.1375"/><stop offset="1" stop-color="#85e65a" stop-opacity="0"/></linearGradient><linearGradient id="未命名的渐变_4" x1="588.1829" y1="462.7717" x2="595.2217" y2="388.1596" gradientTransform="matrix(1, 0, 0, -1, 0, 1002)" gradientUnits="userSpaceOnUse"><stop offset="0" stop-color="#efdb4e"/><stop offset="1" stop-color="#efdb4e" stop-opacity="0"/></linearGradient><linearGradient id="未命名的渐变_5" x1="567.2616" y1="420.0173" x2="590.1319" y2="385.496" gradientTransform="matrix(1, 0, 0, -1, 0, 1002)" gradientUnits="userSpaceOnUse"><stop offset="0" stop-color="#fc9759"/><stop offset="1" stop-color="#fb965a" stop-opacity="0"/></linearGradient><linearGradient id="未命名的渐变_6" x1="533.7765" y1="409.956" x2="587.2242" y2="381.2769" gradientTransform="matrix(1, 0, 0, -1, 0, 1002)" gradientUnits="userSpaceOnUse"><stop offset="0.005" stop-color="#ff5b62"/><stop offset="0.4051" stop-color="#f96066" stop-opacity="0.5979"/><stop offset="0.9276" stop-color="#e96d71" stop-opacity="0.0728"/><stop offset="1" stop-color="#e66f73" stop-opacity="0"/></linearGradient></defs><title>Hanabi-dataV</title><rect x="207.5" y="207.5" width="1000" height="1000" style="fill:#0e308d"/><path d="M144.61,318.1131a16.17,16.17,0,0,0-14.2941,8.6393L100,383.3006h24.033V444.09h37.8559V355.0265h-6.9115l20.42-36.9134Z" transform="translate(207.5 207.5)" style="fill:#fff"/><path d="M255.6646,410.161V376.5462l49.0085-4.2411V354.084l-49.0085,4.2412v-24.033a16.1561,16.1561,0,0,0-16.179-16.1791h-21.991v43.3536h0l-39.8979,3.2987v18.221l39.8979-3.2986v30.9444a33.3175,33.3175,0,0,0,33.3006,33.3006h58.7473V426.8113H272.472A16.6929,16.6929,0,0,1,255.6646,410.161Z" transform="translate(207.5 207.5)" style="fill:#fff"/><path d="M272.472,272.2462a17.2289,17.2289,0,0,0-17.2786-17.2786H233.9878v17.2786H176.183a17.2289,17.2289,0,0,0-17.2786-17.2786H137.6988v17.2786h-20.42A17.2289,17.2289,0,0,0,100,289.5248v.3142h37.6988v21.0485H176.183V289.839h57.6477v21.0485h38.4842V289.839h19.7919A17.2288,17.2288,0,0,0,309.3854,272.56v-.3142Z" transform="translate(207.5 207.5)" style="fill:#fff"/><path d="M380.699,339.79s-8.7964-31.4157-13.5088-48.5372a14.4751,14.4751,0,0,0-14.137-10.6813H331.3764L347.87,339.947H380.699Z" transform="translate(207.5 207.5)" style="fill:#fff"/><path d="M518.3,280.4143H497.094a14.6558,14.6558,0,0,0-14.137,10.6813L468.977,339.79h32.3582Z" transform="translate(207.5 207.5)" style="fill:#fff"/><path d="M441.4883,333.6639h0v-62.36a16.5428,16.5428,0,0,0-4.7124-11.4668,16.0933,16.0933,0,0,0-6.5972-4.084,16.6329,16.6329,0,0,0-4.87-.7854H408.1877v78.5392c0,42.4111-34.4,81.0524-76.8113,81.0524v29.2166a110.2823,110.2823,0,0,0,93.4616-51.993A109.9263,109.9263,0,0,0,518.3,443.7758V414.5592C475.8885,414.7163,441.4883,376.075,441.4883,333.6639Z" transform="translate(207.5 207.5)" style="fill:#fff"/><path d="M884.6063,259.68H736.4814V444.09h8.7964v-8.011H891.2036v8.011A8.7819,8.7819,0,0,0,900,435.2935v-160.22A15.4187,15.4187,0,0,0,884.6063,259.68Zm6.44,167.6026H745.1207V268.6334h136.344a9.62,9.62,0,0,1,9.5818,9.5818Z" transform="translate(207.5 207.5)" style="fill:#fff"/><path d="M829.0006,340.7324c3.2986-2.3562,6.44-4.8694,9.5818-7.3827,17.9069-14.9224,32.201-33.3006,32.201-38.6413a4.5948,4.5948,0,0,0-4.5552-4.7123H790.2023a23.1749,23.1749,0,0,0,.157-2.5133v-4.084a8.7819,8.7819,0,0,0-8.7964-8.7964v12.88c0,.1571-.3141,22.3052-27.8028,36.1281l-.6283.3141,3.9269,7.8539.6283-.3141a68.1515,68.1515,0,0,0,21.2056-16.3362,293.0993,293.0993,0,0,0,30.4732,23.7188,35.5429,35.5429,0,0,0,3.1415,2.0421c-18.5352,10.8384-37.6988,16.4932-56.7052,16.4932h-.7854v8.7964h.7854c22.148,0,43.9819-6.7544,65.03-19.949,22.3051,13.3517,42.4111,19.949,59.8468,19.949h.7854v-8.7964h-.7854C865.7569,357.3827,848.4783,351.7279,829.0006,340.7324Zm-8.3252-5.0265a285.4618,285.4618,0,0,1-36.7563-27.8029,42.6928,42.6928,0,0,0,4.084-9.1105h70.8424A149.8056,149.8056,0,0,1,831.2,327.852C827.901,330.5223,824.2882,333.1926,820.6754,335.7059Z" transform="translate(207.5 207.5)" style="fill:#fff"/><path d="M846.1221,385.0285,805.5959,367.75a8.8288,8.8288,0,0,0-11.6238,4.7123l40.5262,17.2786A8.9352,8.9352,0,0,0,846.1221,385.0285Z" transform="translate(207.5 207.5)" style="fill:#fff"/><path d="M784.0762,396.181,837.64,418.9574a8.829,8.829,0,0,0,11.6238-4.7124L795.7,391.4687A8.9618,8.9618,0,0,0,784.0762,396.181Z" transform="translate(207.5 207.5)" style="fill:#fff"/><path d="M576.5757,291.2527,553.171,267.848a8.7222,8.7222,0,0,0-12.4092,0l23.4047,23.4047A9.017,9.017,0,0,0,576.5757,291.2527Z" transform="translate(207.5 207.5)" style="fill:#fff"/><path d="M609.0909,291.2527l23.4047-23.5617a8.722,8.722,0,0,0-12.4092,0l-23.4047,23.4046A8.8657,8.8657,0,0,0,609.0909,291.2527Z" transform="translate(207.5 207.5)" style="fill:#fff"/><path d="M540.6047,344.5023a8.7222,8.7222,0,0,0,12.4092,0l23.4047-23.4047a8.7222,8.7222,0,0,0-12.4092,0Z" transform="translate(207.5 207.5)" style="fill:#fff"/><path d="M596.5246,321.0976l23.4047,23.4047a8.7222,8.7222,0,0,0,12.4092,0l-23.4047-23.4047A8.7222,8.7222,0,0,0,596.5246,321.0976Z" transform="translate(207.5 207.5)" style="fill:#fff"/><path d="M581.9163,357.2256a8.7819,8.7819,0,0,0,8.7964-8.7964V310.5733h33.3006a8.7818,8.7818,0,0,0,8.7964-8.7963H590.7128V255.1247h-8.7964v46.6522H548.6157a8.782,8.782,0,0,0-8.7964,8.7964h42.097Z" transform="translate(207.5 207.5)" style="fill:#fff"/><path d="M621.343,370.106a9.3448,9.3448,0,0,0-5.0265-1.4137H573.4341l4.5553-9.5818-8.011-3.77-6.44,13.3516h-24.19a8.7819,8.7819,0,0,0,8.7964,8.7964H559.14L552.7,390.84a11.4575,11.4575,0,0,0,4.7124,14.7653L584.43,420.6852c-11.1526,7.6969-25.7609,13.1946-44.7673,13.1946v8.7964c23.2475,0,40.5261-7.2256,53.4066-17.1215l24.9754,13.98,4.2412-7.6968L599.98,419.4286c13.98-13.5087,21.2056-29.5307,24.6613-39.1125A8.2081,8.2081,0,0,0,621.343,370.106Zm-29.2166,44.7674-30.159-16.8074a2.3384,2.3384,0,0,1-.9425-3.1416l8.3251-17.2786h47.2806C613.1749,386.7563,605.9493,402.4642,592.1264,414.8734Z" transform="translate(207.5 207.5)" style="fill:#fff"/><path d="M705.8512,303.1907a8.782,8.782,0,0,0,8.7964-8.7964v-.1571H649.303a.7461.7461,0,0,1-.7854-.4712.7011.7011,0,0,1,0-.7854l32.201-25.4467a8.7316,8.7316,0,0,0,1.4137-12.2521h-.1571l-39.4266,31.1015-.6283.4712a9.7337,9.7337,0,0,0-1.7279,10.21,10.0074,10.0074,0,0,0,9.4247,5.969h47.4377v48.38c0,20.42-8.6393,41.3116-21.0485,57.0195l-8.011-6.1261c-14.2942-12.2521-14.2942-15.2366-14.2942-26.5462V325.3387a8.7819,8.7819,0,0,0-8.7964-8.7964V376.075c0,13.6658.7854,19.1636,17.5928,33.3006l7.854,5.969c-10.9955,11.31-24.3472,18.6923-37.2276,18.6923v8.7964c15.7078,0,31.4156-8.6393,44.2961-22.1481l32.0439,24.3472,5.3407-7.0685L683.2318,414.088c13.6659-17.1216,22.7764-39.8979,22.7764-62.36V303.1907Z" transform="translate(207.5 207.5)" style="fill:#fff"/><path d="M614.1887,690.159h0a9.0566,9.0566,0,1,1,9.0566,9.0566,9.0833,9.0833,0,0,1-9.0566-9.0566" transform="translate(207.5 207.5)" style="fill:#fff"/><path d="M760.3019,699.97Z" transform="translate(207.5 207.5)" style="fill:#fff"/><path d="M796.6793,662.8383a36.3836,36.3836,0,0,0-54.49-30.7925v-4.83H723.9246V699.97h18.2641v-37.132h0a18.13,18.13,0,0,1,36.2264,0h0v36.9811h18.2641V662.8383Z" transform="translate(207.5 207.5)" style="fill:#fff"/><path d="M696.9057,670.9892a18.3178,18.3178,0,1,1,.1509-14.6415l15.849-9.0566a36.3805,36.3805,0,1,0-32.6037,52.5283,35.9453,35.9453,0,0,0,32.3019-19.7736Z" transform="translate(207.5 207.5)" style="fill:#fff"/><path d="M608,624.9515l50.1133-3.4717a5.4421,5.4421,0,0,0,3.0188-.9057.5273.5273,0,0,0,.302-.1509,7.108,7.108,0,0,0,2.2641-1.9623,7.8532,7.8532,0,0,0-2.2641-11.6226,7.779,7.779,0,0,0-6.34-.6038l-47.5472,16.3019c.1509.9056.3018,1.66.4528,2.4151" transform="translate(207.5 207.5)" style="fill:url(#未命名的渐变_7)"/><path d="M650.4151,568.9515,604.3774,618.159a7.9085,7.9085,0,0,1,1.5094,1.66l57.0566-35.6227a8.3671,8.3671,0,0,0,1.2075-.9056,10.2287,10.2287,0,0,0,3.4717-6.0377,9.8386,9.8386,0,0,0-2.1132-7.8491h0a9.5188,9.5188,0,0,0-7.3963-3.6227,11.1645,11.1645,0,0,0-5.4339,1.3585,6.6838,6.6838,0,0,0-2.2641,1.8114" transform="translate(207.5 207.5)" style="fill:url(#未命名的渐变_2)"/><path d="M611.4717,571.3666,599.5472,615.442a11.8344,11.8344,0,0,1,2.1132.7548L624.4528,576.65a7.0215,7.0215,0,0,0,.6038-5.7359,6.6672,6.6672,0,0,0-4.0755-4.2264,7.2585,7.2585,0,0,0-5.8868.151c-.1509,0-.3019.1509-.4528.3018a7.571,7.571,0,0,0-3.17,4.2265" transform="translate(207.5 207.5)" style="fill:url(#未命名的渐变_3)"/><path d="M580.83,541.48a10.4223,10.4223,0,0,0-1.66,8.1509l15.0943,65.66a11.6477,11.6477,0,0,1,2.2642-.3019l2.415-67.3208a9.9321,9.9321,0,0,0-3.17-7.6981h0a10.3211,10.3211,0,0,0-7.6981-2.717h-.1509a9.3289,9.3289,0,0,0-4.0755,1.3585,10.8767,10.8767,0,0,0-3.019,2.868" transform="translate(207.5 207.5)" style="fill:url(#未命名的渐变_4)"/><path d="M566.6415,580.876h0a6.5186,6.5186,0,0,0-2.717,4.2264,5.9578,5.9578,0,0,0,1.3586,4.6793l24.1509,27.7735,1.3585-.9056c.151-.151.302-.151.4529-.3019l-16-33.0566a6.0787,6.0787,0,0,0-3.7736-3.17,5.9442,5.9442,0,0,0-4.5283.6038c0,.1509-.1509.1509-.3019.1509" transform="translate(207.5 207.5)" style="fill:url(#未命名的渐变_5)"/><path d="M531.3208,590.5364h0a8.34,8.34,0,0,0-.6038,6.7924,8.714,8.714,0,0,0,4.83,4.9812l50.566,19.4717a12.4882,12.4882,0,0,1,1.0567-1.9623l-43.9245-32a8.3228,8.3228,0,0,0-6.7925-1.3585h0a7.1154,7.1154,0,0,0-2.2641.9056,14.3619,14.3619,0,0,0-2.868,3.17" transform="translate(207.5 207.5)" style="fill:url(#未命名的渐变_6)"/><path d="M328.3019,699.2156v-5.4339l-1.0566.6038a35.6045,35.6045,0,0,1-17.9623,4.83,35.9245,35.9245,0,1,1,35.9245-35.9245v35.9245Zm-19.17-54.9434a19.0189,19.0189,0,1,0,19.0188,19.0189A18.8452,18.8452,0,0,0,309.1321,644.2722Z" transform="translate(207.5 207.5)" style="fill:#fff"/><path d="M254.9433,699.2156V663.2911a19.0358,19.0358,0,0,0-19.0188-19.0189,20.3833,20.3833,0,0,0-19.0188,20.0755v34.8679H200V590.6873a17.7074,17.7074,0,0,1,16.9057,17.51v24.6037l1.0566-.6037a34.012,34.012,0,0,1,15.3963-4.6793h.3019c.7547,0,1.5094-.1509,2.2641-.1509h2.1133s1.66.1509,1.9622.1509.7547.151,1.0566.151l.7547.1509c.4528,0,.7548.1509,1.2076.1509l.3019.151c1.8113.4528,3.3207.9056,4.83,1.3585.4528.1509,1.0566.4528,1.5094.6037l.3019.151c.4528.1509.9056.4528,1.3585.6038a40.9784,40.9784,0,0,1,7.3963,4.6792,35.0377,35.0377,0,0,1,6.0377,6.4906l.151.3019a40.5762,40.5762,0,0,1,4.2264,7.5471,40.3683,40.3683,0,0,0-2.1133,13.434,41.7845,41.7845,0,0,0,4.83,19.4717v11.0189l.1509.1509v5.434H254.9433Z" transform="translate(207.5 207.5)" style="fill:#fff"/><path d="M482.2642,699.2156v-5.4339l-1.0566.6038a35.6048,35.6048,0,0,1-17.9623,4.83A35.9245,35.9245,0,1,1,499.17,663.2911v35.9245Zm-19.0189-54.9434a19.0189,19.0189,0,1,0,19.0188,19.0189A19.0358,19.0358,0,0,0,463.2453,644.2722Z" transform="translate(207.5 207.5)" style="fill:#fff"/><path d="M408.9056,699.2156V663.2911a11.4286,11.4286,0,0,0-.1509-2.2642,19.0853,19.0853,0,0,0-16.9057-16.6037h-1.9622A19.0357,19.0357,0,0,0,370.868,663.442v35.9246H353.9623v-72H370.717v5.4339l1.0566-.6038a40.3175,40.3175,0,0,1,12.9811-4.5283h.3019a7.3508,7.3508,0,0,1,1.8113-.1509h.6038c.7548,0,1.51-.1509,2.2642-.1509h2.7171a4.18,4.18,0,0,1,1.3585.1509l.7547.1509c.4528,0,.9056.151,1.3585.151l.6038.1509a6.4179,6.4179,0,0,0,1.66.3019,36.1174,36.1174,0,0,1,24.7547,21.434,41.3832,41.3832,0,0,0-2.2641,13.5849,42.3877,42.3877,0,0,0,4.83,19.6226v16.3019Z" transform="translate(207.5 207.5)" style="fill:#fff"/><path d="M605.434,699.2156h0V662.5364a18.3917,18.3917,0,0,0-18.4151-18.4151v36.6792a18.4884,18.4884,0,0,0,18.4151,18.4151" transform="translate(207.5 207.5)" style="fill:#fff"/><path d="M596.6793,617.5552a9.2076,9.2076,0,1,0,9.2075,9.2076A9.1482,9.1482,0,0,0,596.6793,617.5552Z" transform="translate(207.5 207.5)" style="fill:#fff"/><path d="M579.6227,660.2722c0-.6037-.1509-1.2075-.1509-1.8113,0-.4528-.1509-.7547-.1509-1.2075-.1509-.6038-.1509-1.2076-.3019-1.8114A35.7889,35.7889,0,0,0,544,627.2156h-.1509a20.2224,20.2224,0,0,0-3.0189.151,2.5694,2.5694,0,0,0-1.0566.1509c-.7547.151-1.3585.151-2.1133.3019a11.3038,11.3038,0,0,0-2.415.6038c-.3019,0-.4528.1509-.7547.1509a36.9775,36.9775,0,0,0-8.4528,3.4717l-.7547.4529-.3019.1509V608.1968a17.5025,17.5025,0,0,0-16.9057-17.51V699.3666h16.9057v-5.434l.3019.151.7547.4528a34.3952,34.3952,0,0,0,8.4528,3.4717c.3019,0,.4528.151.7547.151.7547.1509,1.66.3018,2.415.4528a10.1973,10.1973,0,0,0,2.1133.3019c.3019,0,.7547.1509,1.0566.1509a20.2357,20.2357,0,0,0,3.0189.1509H544a24.4643,24.4643,0,0,0,3.3208-.1509,1.361,1.361,0,0,0,.7547-.1509,42.9287,42.9287,0,0,0,6.34-1.3585c.1509,0,.4528-.151.6038-.151a36.2969,36.2969,0,0,0,6.0378-2.566h.1509a36.0935,36.0935,0,0,0,18.566-27.7736v-.1509a24.4636,24.4636,0,0,0,.1509-3.3208v-.3019A20.4491,20.4491,0,0,1,579.6227,660.2722ZM544.151,682.9137A19.7736,19.7736,0,1,1,563.9245,663.14,19.7444,19.7444,0,0,1,544.151,682.9137Z" transform="translate(207.5 207.5)" style="fill:#fff"/><path d="M215.0943,726.3855c5.7359,0,10.4152,1.66,13.7359,4.83s4.9811,7.6982,4.9811,13.2831-1.66,9.9622-4.9811,13.132-7.8491,4.6793-13.7359,4.6793H203.7736V726.3855Zm-6.6415,32.1509h6.6415c4.5283,0,8-1.2075,10.4152-3.7736q3.6225-3.6226,3.6227-10.4151,0-6.5659-3.6227-10.4151c-2.4151-2.4151-5.8869-3.7735-10.4152-3.7735h-6.6415Z" transform="translate(207.5 207.5)" style="fill:#fff"/><path d="M269.7358,762.159l-2.868-7.849h-16L248,762.159h-4.83l12.9811-35.9245h5.1321L274.264,762.159Zm-17.3585-11.4717H265.66l-6.6416-18.566Z" transform="translate(207.5 207.5)" style="fill:#fff"/><path d="M284.3773,730.159v-3.7735h23.6982v3.7735h-9.51V762.31h-4.83V730.159Z" transform="translate(207.5 207.5)" style="fill:#fff"/><path d="M344.151,762.159l-2.868-7.849H325.4339l-2.8679,7.849h-4.83l12.9811-35.9245h5.1321L348.83,762.159Zm-17.51-11.4717h13.283l-6.6416-18.566Z" transform="translate(207.5 207.5)" style="fill:#fff"/><path d="M392.151,762.159l-13.8869-35.9245h4.9812l11.3207,30.7924,11.3208-30.7924h4.9811L396.9811,762.159Z" transform="translate(207.5 207.5)" style="fill:#fff"/><path d="M421.4339,762.159V726.2345h4.6792V762.159Z" transform="translate(207.5 207.5)" style="fill:#fff"/><path d="M442.8679,735.8949a4.8782,4.8782,0,0,0,1.0566,3.3207,6.5083,6.5083,0,0,0,2.868,1.9623,27.5367,27.5367,0,0,0,3.7736,1.0566,43.24,43.24,0,0,1,4.2264,1.0566,21.8432,21.8432,0,0,1,3.7736,1.5094,6.5727,6.5727,0,0,1,2.8679,2.868,8.6042,8.6042,0,0,1,1.0566,4.6792,9.4993,9.4993,0,0,1-3.17,7.2453,11.6259,11.6259,0,0,1-8.6038,3.17,14.8269,14.8269,0,0,1-8.9057-2.566,8.041,8.041,0,0,1-3.4717-6.7925h4.9811a5.5085,5.5085,0,0,0,1.9623,3.9246,7.4491,7.4491,0,0,0,5.1321,1.5094,7.8779,7.8779,0,0,0,5.4339-1.8113,5.2747,5.2747,0,0,0,1.9622-4.0755,5.4527,5.4527,0,0,0-1.0566-3.6226,6.5088,6.5088,0,0,0-2.8679-1.9623,27.5447,27.5447,0,0,0-3.7736-1.0566,43.1968,43.1968,0,0,1-4.2264-1.0566,21.8288,21.8288,0,0,1-3.7736-1.5094,7.4773,7.4773,0,0,1-2.868-2.8679,8.9513,8.9513,0,0,1-1.0566-4.6793,9.5921,9.5921,0,0,1,3.17-7.3962,12.6349,12.6349,0,0,1,8.4528-2.717c3.4717,0,6.1886.7547,8.3019,2.4151a9.05,9.05,0,0,1,3.4716,6.6415h-5.283a5.4656,5.4656,0,0,0-1.9622-3.6226,7.128,7.128,0,0,0-4.83-1.5094,7.8231,7.8231,0,0,0-4.9811,1.5094A5.57,5.57,0,0,0,442.8679,735.8949Z" transform="translate(207.5 207.5)" style="fill:#fff"/><path d="M474.566,749.6307V726.3855h4.83v23.2452c0,3.0189.7547,5.1321,2.4151,6.6415a10.435,10.435,0,0,0,12.9811,0c1.66-1.5094,2.415-3.6226,2.415-6.6415V726.3855h4.6793v23.2452c0,4.2265-1.3586,7.3962-3.9245,9.66a16.1543,16.1543,0,0,1-19.6227,0C475.9246,757.027,474.566,753.8572,474.566,749.6307Z" transform="translate(207.5 207.5)" style="fill:#fff"/><path d="M539.3208,762.159l-2.868-7.849h-16l-2.868,7.849h-4.83l12.9811-35.9245h5.1321L543.849,762.159Zm-17.3585-11.4717h13.283l-6.6415-18.566Z" transform="translate(207.5 207.5)" style="fill:#fff"/><path d="M555.6227,726.3855h4.6792v32.3018H572.83V762.31H555.4717V726.3855Z" transform="translate(207.5 207.5)" style="fill:#fff"/><path d="M582.9434,762.159V726.2345h4.6792V762.159Z" transform="translate(207.5 207.5)" style="fill:#fff"/><path d="M622.1887,726.3855v3.7735l-17.5094,28.3774h17.5094V762.31H599.2453v-3.7736l17.5094-28.3774H599.2453v-3.7735Z" transform="translate(207.5 207.5)" style="fill:#fff"/><path d="M658.5661,762.159l-2.868-7.849h-16l-2.868,7.849H632l12.9811-35.9245h5.1321l12.9811,35.9245Zm-17.3585-11.4717h13.283l-6.6415-18.566Z" transform="translate(207.5 207.5)" style="fill:#fff"/><path d="M673.2076,730.159v-3.7735h23.6982v3.7735h-9.51V762.31h-4.6792V730.159Z" transform="translate(207.5 207.5)" style="fill:#fff"/><path d="M708.2264,762.159V726.2345h4.6792V762.159Z" transform="translate(207.5 207.5)" style="fill:#fff"/><path d="M742.34,762.6119a17.6348,17.6348,0,0,1-12.9811-5.1321,18.9628,18.9628,0,0,1,0-26.2641,18.9832,18.9832,0,0,1,25.9622,0,18.9628,18.9628,0,0,1,0,26.2641A18.2489,18.2489,0,0,1,742.34,762.6119Zm9.66-8.151c2.5661-2.566,3.7736-6.0377,3.7736-10.2641s-1.2075-7.6982-3.7736-10.2642a13.8521,13.8521,0,0,0-19.3208,0c-2.5661,2.5661-3.7736,6.0377-3.7736,10.2642s1.2075,7.6981,3.7736,10.2641a13.8518,13.8518,0,0,0,19.3208,0Z" transform="translate(207.5 207.5)" style="fill:#fff"/><path d="M795.3208,726.3855H800V762.31h-4.6792L776.302,733.7817V762.31h-4.6793V726.3855h4.6793l19.0188,28.5283Z" transform="translate(207.5 207.5)" style="fill:#fff"/><circle cx="707.5" cy="707.5" r="707.5" style="fill:none"/></svg>