<svg id="图层_1" data-name="图层 1" xmlns="http://www.w3.org/2000/svg" xmlns:xlink="http://www.w3.org/1999/xlink" viewBox="0 0 1000 1000"><defs><mask id="mask" x="100" y="184.3408" width="799.988" height="435.8975" maskUnits="userSpaceOnUse"><g id="mask-2"><polygon id="path-1" points="899.988 184.342 100.001 184.342 100.001 620.238 899.988 620.238 899.988 184.342" style="fill:#fff;fill-rule:evenodd"/></g></mask><mask id="mask-2-2" x="136.2701" y="184.2996" width="763.7196" height="522.9588" maskUnits="userSpaceOnUse"><g id="mask-4"><polygon id="path-3" points="899.99 184.301 136.27 184.301 136.27 707.258 899.99 707.258 899.99 184.301" style="fill:#fff;fill-rule:evenodd"/></g></mask><mask id="mask-3" x="193.4492" y="184.3338" width="706.5508" height="631.3665" maskUnits="userSpaceOnUse"><g id="mask-6"><polygon id="path-5" points="900 184.335 193.449 184.335 193.449 815.7 900 815.7 900 184.335" style="fill:#fff;fill-rule:evenodd"/></g></mask></defs><title>HelloFont</title><circle cx="500" cy="500" r="500" style="fill:#fff"/><g id="Page-1"><g id="Group-3"><g style="mask:url(#mask)"><path id="Fill-1" d="M843.3275,318.658c-276.5357,196.55-474.743,280.4834-735.9356,301.58L100,615.4306c380.95-174.6133,494.6117-431.09,494.6117-431.09S764.5423,234.7063,899.988,306.6772l-9.8761,14.3914Z" style="fill:#d0d2d3;fill-rule:evenodd"/></g></g><g id="Group-6"><g style="mask:url(#mask-2-2)"><path id="Fill-4" d="M843.3863,316.257C584.3387,531.3466,431.132,632.4087,143.6406,707.2585l-7.37-4.71C477.9344,446.23,594.9219,184.3,594.9219,184.3S764.6808,233.78,899.99,304.4867l-9.8661,14.1386Z" style="fill:#929496;fill-rule:evenodd"/></g></g><g id="Group-9"><g style="mask:url(#mask-3)"><path id="Fill-7" d="M843.7482,318.2532C633.5015,564.6,479.4973,684.18,200.7739,815.7l-7.3247-4.7664c256.7076-279.8383,403.3778-626.6,403.3778-626.6S765.5315,234.55,900,306.3079l-9.8048,14.3489Z" style="fill:#403f41;fill-rule:evenodd"/></g></g></g></svg>