<svg id="图层_1" data-name="图层 1" xmlns="http://www.w3.org/2000/svg" xmlns:xlink="http://www.w3.org/1999/xlink" viewBox="0 0 1415 1415"><defs><linearGradient id="未命名的渐变_79" x1="500" y1="800" x2="500" y2="200" gradientUnits="userSpaceOnUse"><stop offset="0" stop-color="#ec6370"/><stop offset="0.4743" stop-color="#fbd8db"/><stop offset="1" stop-color="#f9d0d4"/></linearGradient><linearGradient id="未命名的渐变_49" x1="567" y1="668" x2="567" y2="198" gradientUnits="userSpaceOnUse"><stop offset="0" stop-color="#f8c5ca"/><stop offset="0.5011" stop-color="#fbdfe2"/><stop offset="1" stop-color="#fef4f5"/></linearGradient></defs><title>HuaBan</title><rect x="207.5" y="207.5" width="1000" height="1000" style="fill:#e3162a"/><circle cx="707.5" cy="707.5" r="707.5" style="fill:none"/><path d="M200,200H365c42.1389,5.6649,176.0648,29.0648,291,144S794.3351,592.8611,800,635V800H635c-34.6135-1.3063-177.2708-10.6357-297-126C210.8147,551.4514,201.3928,397.7907,200.1336,365.5807l-.05-.2177c-.0279-.121-.0613-.2662-.0835-.363Z" transform="translate(207.5 207.5)" style="opacity:0.8;fill:url(#未命名的渐变_79)"/><path d="M802,198H672.75c-33.0088,4.4375-137.9174,22.7674-227.95,112.8S336.4375,505.7412,332,538.75V668H461.25c27.1139-1.0232,138.8621-8.3313,232.65-98.7,99.6285-95.9964,107.009-216.3639,107.9954-241.5951l.0392-.1706L802,327.25Z" transform="translate(207.5 207.5)" style="opacity:0.8;fill:url(#未命名的渐变_49)"/></svg>