<svg id="图层_1" data-name="图层 1" xmlns="http://www.w3.org/2000/svg" xmlns:xlink="http://www.w3.org/1999/xlink" viewBox="0 0 1000 1000"><defs><clipPath id="clip-path" transform="translate(0)"><rect id="SVGID" x="100" y="100" width="800" height="800" style="fill:none"/></clipPath></defs><title>Huawei</title><rect width="1000" height="1000" style="fill:none"/><g id="huawei"><path id="Background" d="M100,100H900V900H100Z" transform="translate(0)" style="fill:none"/><g style="clip-path:url(#clip-path)"><path id="Shape" d="M222.3333,304.6667s-61.6666,59-65,121.3333v11.6667C160,488,198,517.6667,198,517.6667c61,59.6666,208.6667,134.6666,243.3333,151.6666,0,0,2,1,3.3334-.3333l.6666-1.3333v-1.3334c-94.6666-206.3333-223-361.6666-223-361.6666ZM421.6667,720a3.5175,3.5175,0,0,0-3.3334-2.6667l-246,8.6667C199,773.6667,244,810.3333,291,799.3333,323,791,396.3333,740,420.3333,722.6667c2-1.6667,1.3334-3,1.3334-3Zm2.6666-26C316.3333,621,107,509.3333,107,509.3333a150.2641,150.2641,0,0,0-7,43.3334V555c0,35.6667,13.3333,60.6667,13.3333,60.6667C140,672,191.3333,689,191.3333,689A137.8535,137.8535,0,0,0,238,699.3333c4,.6667,146.6667,0,184.6667,0a3.5135,3.5135,0,0,0,2.6666-1.6666v-2a2.2988,2.2988,0,0,0-1-1.6667ZM402,206.3333a114,114,0,0,0-85.6667,105V325a170.1814,170.1814,0,0,0,5.3334,35c22,96.6667,128.6666,255,151.6666,288.3333a3.1958,3.1958,0,0,0,3.3334,1,3.3315,3.3315,0,0,0,2-3.3333c35.3333-353.3333-37-447.3333-37-447.3333C431,199.3334,402,206.3334,402,206.3334ZM678.6333,282S662.3,222,597.3,206c0,0-19-4.6667-39-7.3333,0,0-72.6667,93.6666-37.3333,447.6666a2.88,2.88,0,0,0,2,2.6667,2.4588,2.4588,0,0,0,3.3333-1c24-34.3333,130-192,151.6667-288,0,0,12-46.6667.6666-78ZM581.3,717.6667s-2.3333,0-3,1.6666c0,0-.3333,2.3334,1,3.3334,23.3333,17,95,66.6666,129.3334,76.6666a60.2022,60.2022,0,0,0,14.3332,2h4.6667c23-.6666,63.3334-12.3333,100-75.3333l-246.6666-8.3333Zm261-280.3334C846.9667,368.6667,777.6333,305,777.6333,304.6667c0,0-128.3333,155.3333-222.3333,360,0,0-1,2.6666.6667,4.3333l1.3333.3333h2C594.6333,651.6667,741.3,577,801.9667,518c0,0,38.3333-31,40.3333-80.6667Zm50.6667,71.3334S683.6334,621,575.6333,693.6667a3.5105,3.5105,0,0,0-1,3.6666s1,2,2.3334,2c38.6666,0,185.3333,0,189-.6666,0,0,19-.6667,42.3333-9.6667,0,0,52-16.6667,79-75.6667,0,0,24.3334-48.3333,5.6667-104.6666Z" transform="translate(0)" style="fill:red;fill-rule:evenodd"/></g></g></svg>