<svg id="图层_1" data-name="图层 1" xmlns="http://www.w3.org/2000/svg" viewBox="0 0 1000 1000"><title>Icons8-Bgremover</title><rect x="100" y="100" width="800" height="800" rx="190.2199"/><path d="M619.4293,663.0683c-2.8279-19.71-14.2437-81.553-67.74-134.2909-52.0318-51.2944-111.9422-62.4982-131.9141-65.3627,20.5819-3.3935,80.1129-15.9385,131.914-67.74,14.75-14.75,55.8224-59.6319,67.74-131.9141,2.8645,19.972,14.0683,79.8823,65.3628,131.9141,52.7379,53.4959,114.5807,64.9116,134.2909,67.74-18.7818,2.2751-81.1174,12.1894-134.2909,65.3628C671.4143,542.1552,628.4722,588.4154,619.4293,663.0683Z" style="fill:#fff"/><path d="M298.5573,411.1244a112.0333,112.0333,0,0,0-95.0732-95.0731,115.38,115.38,0,0,0,95.0732-95.0732,112.0331,112.0331,0,0,0,95.0732,95.0731,108.9677,108.9677,0,0,0-95.0732,95.0732Z" style="fill:#fff"/><path d="M363.92,830.6348c-2.02-14.0787-10.1741-58.2521-48.3855-95.922-37.1655-36.6389-79.9587-44.6416-94.2243-46.6877a173.0692,173.0692,0,0,0,142.61-142.61c2.0461,14.2656,10.0489,57.0587,46.6878,94.2243,37.67,38.2114,81.8433,46.3654,95.922,48.3854-13.4155,1.6251-57.941,8.7067-95.922,46.6878C401.0523,744.2683,370.3794,777.3114,363.92,830.6348Z" style="fill:#fff"/><circle cx="500" cy="500" r="500" style="fill:none"/></svg>