<svg id="图层_1" data-name="图层 1" xmlns="http://www.w3.org/2000/svg" viewBox="0 0 1000 1000"><title>iData</title><circle cx="500" cy="500" r="500" style="fill:none"/><path d="M191.0144,191.3792H815.3762a80,80,0,0,1,80,80V714.2751a80,80,0,0,1-80,80H191.0144a0,0,0,0,1,0,0V191.3792a0,0,0,0,1,0,0Z" transform="translate(-73.394 95.6404) rotate(-9.4283)" style="fill:#a5d110"/><path d="M188.79,256.2442h7.5736a0,0,0,0,1,0,0V859.14a0,0,0,0,1,0,0H188.79a80,80,0,0,1-80-80V336.2442A80,80,0,0,1,188.79,256.2442Z" transform="translate(-89.2966 32.5279) rotate(-9.4283)"/><path d="M582.3525,494.2184a60.3784,60.3784,0,0,1,22.408,6.1108v-5.4321a21.156,21.156,0,0,0-21.05-21.05c-11.5434,0-20.3715,9.5064-20.3715,21.05,0,0,6.1108-1.3587,19.0124-.6792ZM421.4213,364.5238c.6792-14.939,1.3587-29.1984,1.3587-29.1984l-57.7184,59.0754s19.0124-2.7156,30.5566-3.3947c12.2228-.6792,24.4453-.6792,24.4453-.6792s.6791-10.8646,1.3587-25.8031Zm112.72-12.9021s86.2373-4.0743,106.6088,16.2964c13.58,14.26,9.5064,22.408,10.8646,46.1742s7.4691,80.8048,4.0743,126.3c-4.0743,59.0754-18.3337,116.7943-33.9521,133.77-16.2964,16.9758-82.1626,19.6928-103.8923,6.1108-16.2964-10.1855-15.6181-60.4345-3.3948-75.3735,12.2229-15.618,47.5329-9.5064,47.5329-9.5064L559.9454,619.16s-15.6181-2.7157-21.73,3.3947-2.7156,23.0876,2.7157,26.4819,38.7043,5.4321,51.6064-2.7156c12.9016-7.4691,5.4321-48.2116,1.3586-59.7546-3.3948-11.5429-20.3715-14.9389-20.3715-14.9389s-33.2726-.6791-49.569-8.8273-17.6546-46.853-17.6546-46.853-1.3586,61.1141-18.3337,65.8658c-16.9759,4.7539-99.1388-14.26-105.93-23.0875-11.543-15.6181-27.841-104.5718-27.841-128.3377s14.939-25.124,23.7663-27.1618,45.4955,1.3587,52.2863-4.0743c6.1108-5.4321.6791-51.6064,6.1108-60.4345,6.1108-8.8273,11.5429-19.0124,52.2863-16.9759,41.4213,2.7156,45.4956,29.8775,45.4956,29.8775Z"/></svg>