<svg id="图层_1" data-name="图层 1" xmlns="http://www.w3.org/2000/svg" xmlns:xlink="http://www.w3.org/1999/xlink" viewBox="0 0 1000 1000"><defs><linearGradient id="未命名的渐变_3" x1="500" y1="907.5" x2="500" y2="92.5" gradientUnits="userSpaceOnUse"><stop offset="0" stop-color="#fb2e66"/><stop offset="1" stop-color="#ff5939"/></linearGradient><linearGradient id="未命名的渐变_20" x1="310.7163" y1="362.0613" x2="826.4473" y2="877.7923" gradientUnits="userSpaceOnUse"><stop offset="0" stop-color="#bc3b32"/><stop offset="1" stop-color="#fb3262"/></linearGradient></defs><title>iiilab</title><circle cx="500" cy="500" r="500" style="fill:none"/><path d="M718.42,92.5H281.58C177.154,92.5,92.5,177.154,92.5,281.58V718.42c0,104.426,84.654,189.08,189.08,189.08H469.03L321.515,763.245h356.97v-42.38H568.46L436.0225,588.4275V236.755H575.795L907.5,571.72V281.58C907.5,177.154,822.846,92.5,718.42,92.5Z" style="fill:url(#未命名的渐变_3)"/><path d="M436.0225,236.755V588.4275L568.46,720.865H678.485v42.38H321.515L469.03,907.5H718.42c104.426,0,189.08-84.654,189.08-189.08V571.72L575.795,236.755Z" style="fill:url(#未命名的渐变_20)"/><polygon points="575.795 236.755 576.202 237.167 576.202 236.347 431.948 236.347 431.948 261.613 436.023 261.613 436.023 236.755 575.795 236.755" style="fill:#fff"/><polygon points="576.202 237.167 575.795 236.755 436.023 236.755 436.023 261.613 576.202 261.613 576.202 237.167" style="fill:#fff"/><rect x="431.9475" y="279.5425" width="4.075" height="25.265" style="fill:#fff"/><rect x="436.0225" y="279.5425" width="140.18" height="25.265" style="fill:#fff"/><polygon points="678.485 720.865 568.46 720.865 321.515 720.865 321.515 763.245 678.485 763.245 678.485 720.865" style="fill:#fff"/><polygon points="436.023 330.073 431.948 330.073 431.948 482.885 321.515 482.885 504.075 665.445 508.557 660.962 436.023 588.427 436.023 330.073" style="fill:#fff"/><polygon points="576.202 482.885 576.202 330.073 436.023 330.073 436.023 588.427 508.557 660.962 686.635 482.885 576.202 482.885" style="fill:#fff"/></svg>