<svg id="图层_1" data-name="图层 1" xmlns="http://www.w3.org/2000/svg" viewBox="0 0 1000 1000"><title>IKnow</title><circle cx="500" cy="500" r="425" style="fill:#7ac943"/><path d="M764.993,464.05,569.2426,125l-82.4713,47.6148L637.7941,434.194q36.5493,63.3049,25.9381,119.9693-10.5947,56.6688-63.496,87.1975-48.3184,27.8965-96.9738,12.3965Q454.5957,638.25,422.3878,582.44L261.0242,302.95l-81.2263,46.896L511.8633,925,593.09,878.104,502.7042,721.5519l1.6634-.96q61.1184,34.6825,132.3431-6.4391Q722.5036,664.62,710.115,558.4909l2.0819-1.202q24.7708,42.9044,53.452,68.5416l84.5532-48.8168Q815.2489,551.12,764.993,464.05Z" style="fill:#fff"/><path d="M500,0C223.8576,0,0,223.8576,0,500s223.8576,500,500,500,500-223.8577,500-500S776.1424,0,500,0ZM75,500C75,265.279,265.279,75,500,75a423.1814,423.1814,0,0,1,263.0874,91.2019L166.2019,763.0874A423.1814,423.1814,0,0,1,75,500ZM500,925a423.1814,423.1814,0,0,1-263.0874-91.2019L833.7981,236.9126A423.1814,423.1814,0,0,1,925,500C925,734.721,734.721,925,500,925Z" style="fill:red"/></svg>