<svg id="图层_1" data-name="图层 1" xmlns="http://www.w3.org/2000/svg" viewBox="0 0 1010 1010"><title>illustrio</title><circle cx="505" cy="505" r="500" style="fill:none;stroke:#ed463c;stroke-miterlimit:10;stroke-width:10px"/><circle cx="505" cy="505" r="400" style="fill:#ed463c"/><path d="M772,711c-16.78,1.19-59.4506-.7152-63-15-1.634-6.5761,5.5794-13.535,8-16,31.7983-32.3824,58.97-126.8319,60-193,.45-28.8935,1.554-99.8556-48-148-9.1735-8.9126-39.8415-38.7084-85-38-45.9184.72-75.96,32.4957-84,41-39.5588,41.8422-40.3372,97.02-41,144-.7,49.646,10.27,97.27,23,126,23.6575,53.3913,29,61,29,61,7.7626,7.9184,8.6463,13.4387,8,17-3.8552,21.2431-71.4031,23.7649-79,24-7.5969-.2351-75.1448-2.7569-79-24-.6463-3.5613.2374-9.0816,8-17,0,0,5.3425-7.6087,29-61,12.73-28.73,23.7-76.354,23-126-.6627-46.98-1.4412-102.1578-41-144-8.04-8.5043-38.0816-40.28-84-41-45.1584-.7084-75.8265,29.0874-85,38-49.554,48.1444-48.45,119.1065-48,148,1.03,66.1681,28.2017,160.6176,60,193,2.4207,2.465,9.634,9.4239,8,16-3.5494,14.2848-46.22,16.19-63,15-71.564-5.077-120.1227-98.2416-134-127,10.2306,118.1316,66.8129,206.2881,124,214,14.879,2.0064,83.9084,5.8642,116-23,3.6972-3.3254,12.9081-12.4853,26-13,12.8134-.5038,18,7.72,35,18,29.8618,18.0582,60.9949,21.1892,79,23a210.499,210.499,0,0,0,26,1,210.499,210.499,0,0,0,26-1c18.0051-1.8108,49.1382-4.9418,79-23,17-10.28,22.1866-18.5038,35-18,13.0919.5147,22.3028,9.6746,26,13,32.0916,28.8642,101.121,25.0064,116,23,57.1872-7.7119,113.7694-95.8684,124-214C892.1227,612.7585,843.5641,705.9231,772,711ZM391,482c-.5789,10.779-2.6441,39.0593-14,79a454.64,454.64,0,0,1-24,65,364.8724,364.8724,0,0,1-25-63c-5.067-17.3481-12.7473-44.3531-13-80-.2457-34.6766,6.72-51.7748,9-57,3.9256-8.9958,15.9158-36.4719,32-36,15.4517.4533,25.6409,26.4347,29,35C388.2327,433.243,392.8179,448.1528,391,482Zm294,1c-.2526,35.6469-7.9329,62.6519-13,80a364.8579,364.8579,0,0,1-25,63,454.6477,454.6477,0,0,1-24-65c-11.3559-39.9406-13.421-68.2209-14-79-1.8179-33.8473,2.7673-48.757,6-57,3.3591-8.5652,13.5483-34.5467,29-35,16.0842-.4719,28.0744,27.0043,32,36C678.28,431.2252,685.246,448.3235,685,483Z" transform="translate(5 5)" style="fill:#fff"/></svg>