<?xml version="1.0" encoding="utf-8"?>
<svg width="1000px" height="1000px" viewBox="0 0 1000 1000" version="1.1" xmlns:xlink="http://www.w3.org/1999/xlink" xmlns="http://www.w3.org/2000/svg">
  <g id="编组">
    <path d="M0 500C0 223.858 223.858 0 500 0C776.142 0 1000 223.858 1000 500C1000 776.142 776.142 1000 500 1000C223.858 1000 0 776.142 0 500Z" id="椭圆" fill="none" fill-rule="evenodd" stroke="none" />
    <path d="M831.563 838L168.438 838L168.438 803.938L831.563 803.938L831.563 838ZM806.563 738.625L194.688 738.625L194.688 785.813L806.563 785.813L806.563 738.625ZM799.375 202.375L190.625 202.375L190.625 267.688L799.375 267.688L799.375 202.375ZM495 88L176.25 162.688L194.688 181.75L795.625 181.75L812.5 162.688L495 88ZM240.938 719.563C251.497 719.751 262.027 718.382 272.188 715.5C277.188 661.125 280 562.375 280 500.813C280 439.25 277.188 344.563 272.5 289.563C272.208 287.327 270.609 285.482 268.438 284.875C259.843 282.794 251.031 281.745 242.188 281.75C233.451 281.806 224.75 282.854 216.25 284.875C214.079 285.482 212.48 287.327 212.188 289.563C207.188 344.563 204.688 440.188 204.688 500.813C204.688 561.438 207.5 661.125 212.5 715.5C221.747 718.158 231.316 719.526 240.938 719.563L240.938 719.563ZM406.875 719.563C417.436 719.783 427.971 718.414 438.125 715.5C443.125 661.125 445.938 562.375 445.938 500.813C445.938 439.25 443.125 344.563 438.438 289.563C438.145 287.327 436.546 285.482 434.375 284.875C425.172 282.634 415.72 281.583 406.25 281.75C397.411 281.809 388.606 282.857 380 284.875C377.829 285.482 376.23 287.327 375.938 289.563C371.25 344.563 368.438 440.188 368.438 500.813C368.438 561.438 371.25 661.125 376.25 715.5C386.001 718.296 396.106 719.665 406.25 719.563L406.875 719.563ZM599.063 719.563C609.624 719.783 620.159 718.414 630.313 715.5C635.313 661.125 638.125 562.375 638.125 500.813C638.125 439.25 635.625 344.563 630.625 289.563C630.298 286.751 627.824 284.69 625 284.875C616.508 282.813 607.801 281.764 599.062 281.75C590.325 281.787 581.621 282.835 573.125 284.875C570.832 285.372 569.088 287.24 568.75 289.563C564.062 344.563 561.25 440.188 561.25 500.813C561.25 561.438 564.063 661.125 569.375 715.5C579.018 718.301 589.021 719.67 599.063 719.563L599.063 719.563ZM760.938 719.563C770.976 719.63 780.973 718.262 790.625 715.5C795.625 661.125 798.437 562.375 798.437 500.813C798.437 439.25 795.937 344.563 790.937 289.563C790.645 287.327 789.046 285.482 786.875 284.875C778.383 282.813 769.677 281.764 760.938 281.75C752.098 281.809 743.293 282.857 734.687 284.875C732.516 285.482 730.917 287.327 730.625 289.563C725.937 344.563 723.125 440.188 723.125 500.813C723.125 561.438 725.938 661.125 730.938 715.5C740.689 718.296 750.794 719.665 760.937 719.563L760.938 719.563Z" id="形状" fill="#000000" fill-rule="evenodd" stroke="none" />
  </g>
</svg>