<svg id="图层_1" data-name="图层 1" xmlns="http://www.w3.org/2000/svg" viewBox="0 0 1000 1000"><title>ISO</title><rect width="1000" height="1000" style="fill:none"/><rect x="125" y="125" width="750" height="750" rx="100" style="fill:#32cb8f"/><path d="M328.7456,632.3534H293.1424V367.6481h35.6032Z" style="fill:#fff"/><path d="M543.7613,558.0507q0,35.6274-22.4456,56.5011Q498.8575,635.45,460.17,635.45q-38.7117,0-60.3708-21.6723-21.6969-21.6591-21.6722-54.179V548.7628H413.73v9.2879q0,23.2194,13.9319,35.6032A47.3282,47.3282,0,0,0,460.17,606.0381q24.7433,0,36.3775-13.1576,11.61-13.1343,11.61-31.7345,0-15.4559-13.9319-28.6372-13.932-13.1343-40.2472-23.9932-37.1512-13.9327-53.4057-30.9607-16.2534-17.0154-16.254-40.2476,0-32.5077,22.4456-52.6315,22.4219-20.1,53.4058-20.1235,40.2354,0,58.05,23.9937,17.7773,24.0177,17.8016,51.8576H500.4178a42.7131,42.7131,0,0,0-9.288-30.96q-10.8477-13.932-30.96-13.9319-18.5749,0-29.4116,10.0618-10.8477,10.0864-10.8356,27.09a35.8832,35.8832,0,0,0,8.5136,23.9937q8.49,10.0858,44.1178,23.9937,34.0308,13.932,52.6315,33.2817Q543.7617,533.3069,543.7613,558.0507Z" style="fill:#fff"/><path d="M746.8576,499.2271q0,72.78-22.4466,104.4891-22.4581,31.7456-62.6927,31.7335-40.2718,0-63.468-31.7335-23.2194-31.7092-23.22-104.4891,0-72.7439,23.22-103.7151,23.2194-30.9481,63.468-30.96,40.2356,0,62.6927,30.96Q746.8329,426.4957,746.8576,499.2271Zm-37.1518,0q0-65.0159-13.932-85.1392-13.9319-20.1-34.0555-20.1241-20.1367,0-34.83,20.1241-14.731,20.1359-14.7063,85.1392,0,65.0145,14.7063,85.9131,14.6931,20.898,34.83,20.8979,20.0988,0,34.0555-20.8979Q709.7058,564.2424,709.7058,499.2271Z" style="fill:#fff"/></svg>