<svg id="图层_1" data-name="图层 1" xmlns="http://www.w3.org/2000/svg" xmlns:xlink="http://www.w3.org/1999/xlink" viewBox="0 0 1000 1000"><defs><linearGradient id="未命名的渐变_8" x1="520.5" y1="122.2219" x2="520.5" y2="881.7781" gradientUnits="userSpaceOnUse"><stop offset="0" stop-color="#ff3477"/><stop offset="0.5011" stop-color="#ff3e58"/><stop offset="1" stop-color="#ff4d24"/></linearGradient></defs><title>JinriRebang</title><path d="M718.5888,642.6905l9.4944-6.905c20.1921-12.931,49.0621-34.9743,73.3662-69.9137,67.3447-96.8142,71.804-252.6373-17.2626-353.021-65.9529-74.3331-155.9691-87.5895-185.5734-90.6289H170.5V881.7781H409.5875v-201.11h66.4612l117.3859,201.11H870.5ZM589.119,445.0333c-12.6249,40.9211-57.1116,77.4657-107.8915,77.6819-63.9643.2722-114.2343-57.1984-116.5228-107.8915-1.8567-41.1294,27.7786-79.775,35.3884-77.6819,3.59.9874,1.5066,10.8838,9.4944,26.7571,4.8756,9.6884,13.9307,22.2214,18.1258,20.7152,4.9911-1.7921-2.6348-21.4013,0-50.0617.8678-9.44,3.2963-33.0169,18.1258-55.24,16.5714-24.8341,45.0155-42.5635,51.7879-37.1147,2.6062,2.0968.3968,6.3337-.8631,18.1258a147.1957,147.1957,0,0,0,6.905,56.1035c5.5745,16.63,15.2767,33.1548,19.8521,31.9359,4.26-1.1348-.2754-16.4888,10.3575-29.3465,3.7622-4.5493,8.004-7.07,12.0839-9.4944,7.0067-4.1637,18.9528-9.2974,21.5783-6.0419,1.0053,1.2464.3045,3.3017,0,4.3156-1.92,6.39.1588,13.7545,4.3157,28.4834,4.8007,17.0106,13.4368,32.7587,17.2626,42.2934C600.7106,407.4612,591.4638,437.4331,589.119,445.0333Z" style="fill:url(#未命名的渐变_8)"/><rect width="1000" height="1000" style="fill:none"/></svg>