<svg id="图层_1" data-name="图层 1" xmlns="http://www.w3.org/2000/svg" viewBox="0 0 1000 1000"><title>jsDelivr</title><rect width="1000" height="1000" style="fill:none"/><rect x="275" y="254" width="450" height="450" style="fill:#fff"/><path d="M495.3237,124.6481,150,250.391l48.7957,459.806L495.2925,875.3519,795.574,710.197,850,248.5142Zm1.9394,144.5731a206.4132,206.4132,0,0,1,83.3906,17.8917A391.2086,391.2086,0,0,0,499.64,348.1076a36.553,36.553,0,0,0-4.3165-1.4076,36.9417,36.9417,0,0,0-10.8227-1.7516,41.7441,41.7441,0,0,0-6.5686.6568A278.6988,278.6988,0,0,1,458.6957,273.1a206.1167,206.1167,0,0,1,36.6281-3.8161Q496.2933,269.2478,497.2631,269.2212ZM435.0172,278.98A305.3818,305.3818,0,0,0,456.6,357.3037a37.465,37.465,0,0,0-4.6293,45.5114c-29.3087,40.4755-51.7986,87.676-59.5871,134.8139-.3128,1.7516-.4066,3.4407-.6256,5.1924a35.84,35.84,0,0,0-20.5192,16.8908c-30.8727-10.416-58.9616-30.2784-81.7955-63.2468q-.71-8.0358-.8132-16.1089C288.6978,388.0561,347.9847,306.4987,435.0172,278.98Zm172.2552,22.177a210.3352,210.3352,0,0,1,79.1368,90.71c-11.7924,29.8092-32.8121,59.18-59.2118,85.2987a38.2722,38.2722,0,0,0-44.1664,2.69,346.5816,346.5816,0,0,1-41.2261-36.5342,337.9463,337.9463,0,0,1-28.8083-35.1267A36.8722,36.8722,0,0,0,517.72,364.78c33.0933-31.53,66.0617-52.237,89.5524-63.6227ZM484.5011,363.153a19.9406,19.9406,0,1,1-19.956,20.1757q-.0007-.11,0-.22a19.8512,19.8512,0,0,1,19.7462-19.9557Q484.3962,363.1524,484.5011,363.153Zm-13.7942,55.3956a37.6919,37.6919,0,0,0,21.1136,1.9394c1.126,1.5639,2.3459,3.0341,3.5033,4.6293a357.7685,357.7685,0,0,0,28.8082,35.0016,378.5847,378.5847,0,0,0,45.23,39.9437,38.2361,38.2361,0,0,0-1.689,10.6975,38.6606,38.6606,0,0,0,2.0644,11.8862,309.9848,309.9848,0,0,1-66.25,32.593c-2.7213.9071-5.4114,1.6265-8.1639,2.44a241.9389,241.9389,0,0,1-58.4924,10.3847,35.9711,35.9711,0,0,0-20.6444-24.1789c.1251-.7507.1564-1.5327.3128-2.2834C423.35,499.9062,443.8068,456.209,470.7069,418.5486ZM698.17,424.4917a209.778,209.778,0,0,1-.4379,113.9193,312.5741,312.5741,0,0,1-52.1114-19.706,38.8793,38.8793,0,0,0-2.0332-22.3021A295.0929,295.0929,0,0,0,698.17,424.46ZM607.0535,490.21a20.4131,20.4131,0,1,1-.3388,0Q606.884,490.2085,607.0535,490.21Zm26.1808,49.7341a337.499,337.499,0,0,0,56.3653,21.52c-32.3278,78.6531-108.182,129.9339-192.3365,130.0282q-.97-.0579-1.9394-.1251-.6567.0021-1.3137,0c-2.7213-1.3137-5.2549-2.5023-8.32-4.035-9.7591-4.817-20.8633-11.01-26.4623-15.64a118.7359,118.7359,0,0,1-40.4754-63.497,35.864,35.864,0,0,0,15.233-15.4833,263.62,263.62,0,0,0,61.3075-9.5714q8.0922-2.1721,16.0463-4.8171a346.6651,346.6651,0,0,0,73.2249-35.3456,38.6311,38.6311,0,0,0,48.6706-3.0654Zm-334.9077,3.6284a180.2014,180.2014,0,0,0,69.19,40.6006,35.8464,35.8464,0,0,0,26.8064,27.213,143.9482,143.9482,0,0,0,38.7864,69.5026c-64.2417-20.99-114.4755-72.1562-134.8139-137.3162Zm104.0663,14.5136a18.6269,18.6269,0,1,1-18.6422,18.9882q-.0018-.173,0-.3457a18.486,18.486,0,0,1,18.3281-18.6425h0q.1568-.0018.3138,0Z" style="fill:#e84d3d"/></svg>