<svg id="图层_1" data-name="图层 1" xmlns="http://www.w3.org/2000/svg" viewBox="0 0 1415 1415"><title>Keybr</title><path d="M278.8478,60.5161l58.2084,135.9617A20.0061,20.0061,0,0,0,363.31,206.9915L689.701,67.484a19.9777,19.9777,0,0,0,10.5223-26.2328L682.5629,0,369.5784,0,289.37,34.2833A19.9777,19.9777,0,0,0,278.8478,60.5161Z" transform="translate(207.5 207.5)" style="fill:silver"/><path d="M777.4733,271.23,397.7568,433.53a19.9775,19.9775,0,0,0-10.5222,26.2328l58.2083,135.9617a20.0062,20.0062,0,0,0,26.2542,10.5137l379.7165-162.3a19.9776,19.9776,0,0,0,10.5222-26.2328L803.7275,281.7438A20.0061,20.0061,0,0,0,777.4733,271.23Z" transform="translate(207.5 207.5)" style="fill:silver"/><path d="M858.8863,461.3929l-467.98,200.0262a19.9776,19.9776,0,0,0-10.5222,26.2328l58.2083,135.9617a20.0062,20.0062,0,0,0,26.2542,10.5137l467.98-200.0263a19.9776,19.9776,0,0,0,10.5222-26.2328L885.1405,471.9065A20.006,20.006,0,0,0,858.8863,461.3929Z" transform="translate(207.5 207.5)" style="fill:silver"/><path d="M966.16,661.1506a20.0061,20.0061,0,0,0-26.2542-10.5137L700.8593,752.8114a19.9776,19.9776,0,0,0-10.5222,26.2328L748.5454,915.006A20.0062,20.0062,0,0,0,774.8,925.52L1000,829.2635V740.1924Z" transform="translate(207.5 207.5)" style="fill:silver"/><polygon points="1207.5 1156.308 1089.638 1206.685 1207.5 1206.685 1207.5 1156.308" style="fill:#f0f0ef"/><path d="M731.47,923.3912,673.2616,787.43a20.0061,20.0061,0,0,0-26.2542-10.5137L408.88,878.6973A19.9777,19.9777,0,0,0,398.3579,904.93L438.71,999.1847H604.9957l115.952-49.5608A19.9775,19.9775,0,0,0,731.47,923.3912Z" transform="translate(207.5 207.5)" style="fill:silver"/><path d="M354.6349,901.8831,126.9892,999.1845l291.0558,0-37.1559-86.788A20.0062,20.0062,0,0,0,354.6349,901.8831Z" transform="translate(207.5 207.5)" style="fill:#f0f0ef"/><path d="M890.8088.0006,829.2419,26.3158A19.9776,19.9776,0,0,0,818.72,52.5486L876.9281,188.51a20.006,20.006,0,0,0,26.2542,10.5136L1000,157.6416l0-157.641Z" transform="translate(207.5 207.5)" style="fill:#f0f0ef"/><polygon points="207.5 207.5 207.5 243.749 292.309 207.5 207.5 207.5" style="fill:#f0f0ef"/><path d="M235.5845,57.2725,99.5118,115.4334A19.9776,19.9776,0,0,0,88.99,141.6662L147.1979,277.628a20.0062,20.0062,0,0,0,26.2542,10.5136l136.0728-58.1609a19.9777,19.9777,0,0,0,10.5222-26.2328L261.8387,67.7862A20.006,20.006,0,0,0,235.5845,57.2725Z" transform="translate(207.5 207.5)" style="fill:#f0f0ef"/><path d="M129.7291,285.0946,71.5208,149.1328a20.006,20.006,0,0,0-26.2542-10.5136L0,157.9672V362.2793l119.2068-50.952A19.9774,19.9774,0,0,0,129.7291,285.0946Z" transform="translate(207.5 207.5)" style="fill:#f0f0ef"/><path d="M229.7864,282.538,93.7136,340.6988a19.9777,19.9777,0,0,0-10.5222,26.2328L141.4,502.8934A20.0061,20.0061,0,0,0,167.654,513.407l136.0727-58.1609a19.9775,19.9775,0,0,0,10.5222-26.2327L256.0406,293.0516A20.006,20.006,0,0,0,229.7864,282.538Z" transform="translate(207.5 207.5)" style="fill:#f0f0ef"/><path d="M342.5922,457.1091,206.5194,515.27a19.9776,19.9776,0,0,0-10.5222,26.2328l58.2083,135.9617A20.0062,20.0062,0,0,0,280.46,687.9782l136.0728-58.1609a19.9777,19.9777,0,0,0,10.5222-26.2328L368.8464,467.6227A20.0062,20.0062,0,0,0,342.5922,457.1091Z" transform="translate(207.5 207.5)" style="fill:#f0f0ef"/><path d="M155.0324,537.2768,18.96,595.4377A19.9775,19.9775,0,0,0,8.4375,621.67L66.6458,757.6322A20.0061,20.0061,0,0,0,92.9,768.1458L228.9728,709.985a19.9777,19.9777,0,0,0,10.5222-26.2328L181.2866,547.79A20.0061,20.0061,0,0,0,155.0324,537.2768Z" transform="translate(207.5 207.5)" style="fill:#f0f0ef"/><path d="M47.3382,765.8848,0,655.3129V807.8537L36.816,792.1175A19.9775,19.9775,0,0,0,47.3382,765.8848Z" transform="translate(207.5 207.5)" style="fill:#f0f0ef"/><path d="M332.0641,686.57,195.9914,744.7306a19.9776,19.9776,0,0,0-10.5222,26.2328l58.2083,135.9617a20.0062,20.0062,0,0,0,26.2542,10.5137l136.0728-58.1609a19.9777,19.9777,0,0,0,10.5222-26.2328L358.3183,697.0834A20.006,20.006,0,0,0,332.0641,686.57Z" transform="translate(207.5 207.5)" style="fill:#f0f0ef"/><path d="M67.0062,999.1845a19.922,19.922,0,0,0,11.2834,0Z" transform="translate(207.5 207.5)" style="fill:#f0f0ef"/><path d="M80.5332,998.3924l136.0727-58.1609a19.9775,19.9775,0,0,0,10.5222-26.2328L168.92,778.037a20.006,20.006,0,0,0-26.2542-10.5136L6.5929,825.6842A19.928,19.928,0,0,0,0,830.2489v30.8456L54.279,987.8788a19.9524,19.9524,0,0,0,12.7272,11.3057H78.29A20.1363,20.1363,0,0,0,80.5332,998.3924Z" transform="translate(207.5 207.5)" style="fill:#f0f0ef"/><path d="M0,909.3643v89.82H38.0159a20.0669,20.0669,0,0,0-1.2057-3.8391Z" transform="translate(207.5 207.5)" style="fill:#f0f0ef"/><path d="M123.931,510.36,65.7226,374.3982a20.006,20.006,0,0,0-26.2542-10.5136L0,380.7544V585.0665l113.4089-48.4737A19.9777,19.9777,0,0,0,123.931,510.36Z" transform="translate(207.5 207.5)" style="fill:#f0f0ef"/><path d="M420.1043,201.1913,284.0316,259.3522a19.9775,19.9775,0,0,0-10.5222,26.2328l58.2083,135.9618A20.0062,20.0062,0,0,0,357.9719,432.06L494.0446,373.9a19.9777,19.9777,0,0,0,10.5223-26.2328L446.3585,211.705A20.0061,20.0061,0,0,0,420.1043,201.1913Z" transform="translate(207.5 207.5)" style="fill:#f0f0ef"/><path d="M696.8468,82.9047,471.1316,179.381a19.9776,19.9776,0,0,0-10.5222,26.2328l58.2083,135.9618a20.0062,20.0062,0,0,0,26.2542,10.5136l225.7153-96.4763A19.9777,19.9777,0,0,0,781.3094,229.38L723.101,93.4184A20.006,20.006,0,0,0,696.8468,82.9047Z" transform="translate(207.5 207.5)" style="fill:#f0f0ef"/><path d="M387.0782,88.4723a9.35,9.35,0,0,0,3.7123-4.9389,8.6684,8.6684,0,0,0-.504-5.9888q-3.65-8.5248-16.3118-3.1134l-9.876,4.2213,14.9935,35.0214,11.3686-4.8593q6.2437-2.6686,8.6251-6.73a9.25,9.25,0,0,0,.37-8.7588,8.6057,8.6057,0,0,0-4.8177-4.8948A11.2017,11.2017,0,0,0,387.0782,88.4723Zm-15.0614-8.0291,3.5323-1.51a9.9,9.9,0,0,1,5.6974-1.0238,4.6411,4.6411,0,0,1,3.3108,3.0249,5.2055,5.2055,0,0,1-.0334,4.7336,8.78,8.78,0,0,1-4.509,3.5591l-3.582,1.5311Zm21.08,20.2319q-1.2751,2.3828-5.2305,4.0733l-4.602,1.967-5.0439-11.7815,4.2537-1.8181a11.6334,11.6334,0,0,1,6.6549-1.1244,5.2706,5.2706,0,0,1,3.9874,3.3679A5.8815,5.8815,0,0,1,393.097,100.6751Z" transform="translate(207.5 207.5)"/><path d="M407.6885,70.6947a14.4369,14.4369,0,0,0-6.1472,4.3035,7.5246,7.5246,0,0,0-1.1214,6.0072l5.8949-1.49a4.2929,4.2929,0,0,1,.3-2.907,5.181,5.181,0,0,1,2.6481-2.0287,4.06,4.06,0,0,1,3.8157-.0578A8.1283,8.1283,0,0,1,415.8722,78.4l.34.7953-4.2894,2.01q-5.448,2.5343-7.3793,5.8592a7.7534,7.7534,0,0,0-.2287,7.3017,8.2461,8.2461,0,0,0,4.5033,4.7792q2.9495,1.15,6.88-.53a9.546,9.546,0,0,0,3.9667-2.901,8.7909,8.7909,0,0,0,1.5593-4.8124l1.9229,3.9415,5.5224-2.36-6.8955-16.1064q-2.1708-5.0706-5.5786-6.4661T407.6885,70.6947Zm10.9434,14.0822a7.8155,7.8155,0,0,1,.4955,5.419,5.63,5.63,0,0,1-3.4113,3.6486q-3.8308,1.6376-5.5547-2.3891a4.3215,4.3215,0,0,1,.104-4.19q1.1257-1.8042,4.7079-3.5412l2.6689-1.2584Z" transform="translate(207.5 207.5)"/><path d="M436.0934,63.4936a4.2577,4.2577,0,0,1,3.2258-.1291,5.52,5.52,0,0,1,2.7623,2.5683l5.5193-2.9178q-4.663-7.386-13.3449-3.6759-5.3235,2.2754-6.7388,7.0116t1.33,11.1489q2.6712,6.2394,6.9878,8.4514T445.4,85.92q8.7563-3.7426,6.5667-12.5689L446.14,75.1365q1.29,5.0061-2.4665,6.6116a4.6425,4.6425,0,0,1-4.8472-.6334q-2.3346-1.7073-4.314-6.33-1.9473-4.5486-1.5884-7.319A4.8181,4.8181,0,0,1,436.0934,63.4936Z" transform="translate(207.5 207.5)"/><polygon points="678.92 251.572 672.378 254.368 667.045 270.232 657.564 248.086 651.817 250.542 667.29 286.682 673.036 284.226 669.173 275.203 671.03 271.704 683.708 279.664 690.374 276.815 673.528 266.403 678.92 251.572"/><path d="M494.6709,48.6152a18.443,18.443,0,0,0-5.42.1258,24.7956,24.7956,0,0,1-4.3523.3166,3.8764,3.8764,0,0,1-1.7422-.5638,3.1312,3.1312,0,0,1-1.1376-1.4544q-1.3193-3.0816,2.188-4.5813a5.0555,5.0555,0,0,1,2.78-.4827,3.1991,3.1991,0,0,1,2.09,1.5474l4.7517-2.6485a7.1167,7.1167,0,0,0-4.5842-3.3185,11.6655,11.6655,0,0,0-6.7046,1.1456q-4.2787,1.8288-5.6591,4.7564a7.62,7.62,0,0,0,.1413,6.482,7.8975,7.8975,0,0,0,2.1739,3.0844,6.7869,6.7869,0,0,0,3.0312,1.41,14.8061,14.8061,0,0,0,4.7643-.11,25.31,25.31,0,0,1,4.5867-.3873,4.6486,4.6486,0,0,1,2.0975.6031,3.3878,3.3878,0,0,1,1.3151,1.6284,3.269,3.269,0,0,1-.043,3.1646,5.7872,5.7872,0,0,1-2.7459,2.1439,6.4152,6.4152,0,0,1-3.5655.642,3.9726,3.9726,0,0,1-2.5336-1.8281l-4.5955,2.8757a7.8233,7.8233,0,0,0,4.9074,3.4892q2.817.5309,7.4935-1.4681,4.5027-1.9245,6.1141-5.0684a7.6869,7.6869,0,0,0,.0365-6.8227,8.2447,8.2447,0,0,0-2.268-3.2354A7.0175,7.0175,0,0,0,494.6709,48.6152Z" transform="translate(207.5 207.5)"/><path d="M511.52,26.3144q-5.995,2.5625-6.3081,8.43l-.1.0425a39.1089,39.1089,0,0,0-2.175-4.1867l-5.5224,2.36q1.5184,2.997,2.6252,5.582l12.6737,29.603L518.46,65.69l-4.2139-9.8428q-.4257-.9942-.878-1.9476t-.9277-1.9264l.1243-.0532a8.9068,8.9068,0,0,0,4.4857,2.0229,10.2815,10.2815,0,0,0,5.39-.9513,10.7983,10.7983,0,0,0,6.6-7.0259q1.4013-4.8036-1.28-11.0672-2.7135-6.3383-6.9023-8.5614T511.52,26.3144Zm7.7932,23.0149a6.37,6.37,0,0,1-6.0394-.1532q-2.6813-1.5885-4.5647-5.9879t-1.1318-7.4553a6.5078,6.5078,0,0,1,4.11-4.4913q6.2935-2.69,10.1244,6.258Q525.7066,46.5968,519.3134,49.3293Z" transform="translate(207.5 207.5)"/><path d="M537.64,15.15a14.4354,14.4354,0,0,0-6.1472,4.3035,7.5246,7.5246,0,0,0-1.1214,6.0072l5.8949-1.49a4.2929,4.2929,0,0,1,.3-2.907,5.1808,5.1808,0,0,1,2.6482-2.0287,4.0591,4.0591,0,0,1,3.8156-.0578,8.1284,8.1284,0,0,1,2.7933,3.8782l.3405.7954-4.2894,2.01q-5.448,2.5343-7.3793,5.8592a7.7536,7.7536,0,0,0-.2288,7.3017,8.2469,8.2469,0,0,0,4.5034,4.7792q2.95,1.15,6.88-.53a9.5475,9.5475,0,0,0,3.9667-2.901,8.791,8.791,0,0,0,1.5593-4.8125l1.9229,3.9416,5.5224-2.36-6.8955-16.1064q-2.1708-5.0706-5.5786-6.4661T537.64,15.15Zm10.9434,14.0822a7.8155,7.8155,0,0,1,.4955,5.419A5.63,5.63,0,0,1,545.6674,38.3q-3.8309,1.6374-5.5548-2.3891a4.3217,4.3217,0,0,1,.1041-4.19q1.1258-1.8042,4.7079-3.5412l2.6689-1.2584Z" transform="translate(207.5 207.5)"/><path d="M573.6244,26.2036a4.6423,4.6423,0,0,1-4.8472-.6333q-2.3347-1.7073-4.314-6.33-1.9473-4.5486-1.5884-7.3189a4.8181,4.8181,0,0,1,3.17-3.9718,4.2584,4.2584,0,0,1,3.2259-.1292,5.5211,5.5211,0,0,1,2.7622,2.5683l5.5193-2.9177q-4.663-7.3861-13.3449-3.6759-5.3233,2.2754-6.7388,7.0116t1.33,11.1489q2.6712,6.2394,6.9877,8.4514t9.5656-.0308q8.7563-3.7427,6.5667-12.5689l-5.8275,1.7852Q577.3806,24.5982,573.6244,26.2036Z" transform="translate(207.5 207.5)"/><path d="M582.651,11.4072q2.7242,6.363,7.2648,8.5829t10.1376-.1725a17.0312,17.0312,0,0,0,4.3787-2.5919,10.7821,10.7821,0,0,0,2.6382-3.2888,15.9968,15.9968,0,0,0,1.403-4.8339l-5.4282-.2379A8.9964,8.9964,0,0,1,601.733,13.19a6.66,6.66,0,0,1-2.9664,2.3852,5.6845,5.6845,0,0,1-5.29-.2236,11.1979,11.1979,0,0,1-4.2987-5.2637l17.09-7.3046L605.97,2.087C605.6526,1.3458,605.3136.66,604.9647,0h-7.19a17.304,17.304,0,0,1,.9832,1.67L587.6636,6.4125A8.7129,8.7129,0,0,1,587.163.7751,5.643,5.643,0,0,1,587.4647,0h-5.68c-.04.0982-.0892.19-.1264.29Q579.9056,4.9944,582.651,11.4072Z" transform="translate(207.5 207.5)"/><polygon points="392.786 328.4 387.776 330.542 392.708 342.061 381.341 346.92 383.461 351.872 394.828 347.013 399.76 358.532 404.77 356.391 399.838 344.872 411.232 340.002 409.112 335.05 397.718 339.92 392.786 328.4"/><rect x="208.4109" y="213.8047" width="30.2013" height="5.4162" transform="translate(140.3911 312.77) rotate(-23.1431)"/><rect x="202.2867" y="199.5146" width="30.2013" height="5.3869" transform="translate(145.5205 309.2118) rotate(-23.1431)"/><path d="M172.7169,338.6488q-1.2753,3.0126.5567,7.2919l3.4222,7.9934a7.1216,7.1216,0,0,1,.5388,5.2778,6.797,6.797,0,0,1-3.7954,3.5644l1.8436,4.3063a6.8378,6.8378,0,0,1,5.2454-.2521,7.133,7.133,0,0,1,3.3922,3.9786l3.4221,7.9934a9.4516,9.4516,0,0,0,4.7762,5.3134,8.5864,8.5864,0,0,0,6.9765-.3393l3.1784-1.3586-1.8436-4.3062-.9158.3914a4.454,4.454,0,0,1-4.1393.0818,7.8323,7.8323,0,0,1-2.8825-3.83l-3.2148-7.509a8.5645,8.5645,0,0,0-3.5094-4.1036,6.9445,6.9445,0,0,0-4.958-.9374l-.0461-.1076a7.3233,7.3233,0,0,0,2.43-9.0619l-3.4337-8.02a7.7458,7.7458,0,0,1-.7681-4.7341,4.4557,4.4557,0,0,1,2.9044-2.9289l.9158-.3914-1.8436-4.3063-2.505,1.0708Q173.9922,335.6362,172.7169,338.6488Z" transform="translate(207.5 207.5)"/><polygon points="425.763 670.025 439.446 664.176 437.614 659.897 429.803 663.236 412.162 622.031 419.973 618.692 418.141 614.413 404.458 620.261 425.763 670.025"/><path d="M372.374,270.2964l-3.4222-7.9934a9.4536,9.4536,0,0,0-4.7762-5.3134,8.5876,8.5876,0,0,0-6.9765.3394l-3.1784,1.3585,1.8436,4.3062.9158-.3914a4.4787,4.4787,0,0,1,4.1585-.0741,7.8251,7.8251,0,0,1,2.9018,3.838l3.2033,7.4821a8.65,8.65,0,0,0,3.4882,4.1286,6.8453,6.8453,0,0,0,4.9522.9239l.0461.1076a7.2844,7.2844,0,0,0-2.4027,9.05l3.4337,8.02a7.6786,7.6786,0,0,1,.7546,4.74,4.4983,4.4983,0,0,1-2.9179,2.9346l-.9158.3914,1.8436,4.3063,2.505-1.0707q4.4708-1.911,5.7467-4.9238t-.5567-7.292l-3.4222-7.9934a7.1846,7.1846,0,0,1-.5408-5.2451,6.7154,6.7154,0,0,1,3.7974-3.5971l-1.8436-4.3063a6.8319,6.8319,0,0,1-5.2454.2521A7.1288,7.1288,0,0,1,372.374,270.2964Z" transform="translate(207.5 207.5)"/><polygon points="596.594 543.2 604.406 539.861 622.047 581.066 614.235 584.405 616.067 588.684 629.778 582.824 608.473 533.06 594.762 538.92 596.594 543.2"/><path d="M926.5191,69.8064q-7.2759-2.7626-17.1,1.4364l-13.2765,5.6747,16.9181,39.5168,14.5677-6.2266a21.6579,21.6579,0,0,0,8.9178-6.665A17.56,17.56,0,0,0,940.15,93.774a25.483,25.483,0,0,0-2.285-11.6974Q933.795,72.569,926.5191,69.8064Zm5.8061,27.445q-1.6528,5.2525-7.5756,7.7834l-7.2138,3.0833-12.2832-28.691,6.3436-2.7114q13.3889-5.7227,19.3925,8.3Q933.9784,91.9993,932.3252,97.2514Z" transform="translate(207.5 207.5)"/><path d="M971.8759,74.8057q-3.1456-7.3475-8.1248-9.981t-11.1261-.0055q-6.2033,2.6514-8.1811,7.9593t1.12,12.5437q3.0738,7.18,8.1972,9.6846T965.2,94.8122a19.2146,19.2146,0,0,0,4.9407-2.9247,12.1679,12.1679,0,0,0,2.977-3.711,18.0522,18.0522,0,0,0,1.583-5.4542l-6.125-.2685a10.1493,10.1493,0,0,1-1.4806,4.88,7.5136,7.5136,0,0,1-3.347,2.6913,6.4139,6.4139,0,0,1-5.9687-.2523q-2.8251-1.5962-4.8505-5.9393l19.2832-8.2421ZM951.22,79.6863a9.8314,9.8314,0,0,1-.565-6.3609,6.067,6.067,0,0,1,3.6546-3.9509,5.7106,5.7106,0,0,1,5.2453-.0025,11.5386,11.5386,0,0,1,4.1838,4.9636Z" transform="translate(207.5 207.5)"/><rect x="975.1473" y="42.0966" width="7.0208" height="44.3588" transform="translate(261.1861 597.8587) rotate(-23.1769)"/><path d="M996.7757,60.2147a9.8317,9.8317,0,0,1-.565-6.361,6.0669,6.0669,0,0,1,3.6547-3.9509c.0456-.02.0893-.0326.1348-.0512V44.69a18.2027,18.2027,0,0,0-1.82.658Q991.9775,47.999,990,53.3068t1.12,12.5437q3.0738,7.18,8.1972,9.6846c.2246.11.4555.1917.6835.2865V67.055a19.1122,19.1122,0,0,1-1.5157-2.6936L1000,63.7136V58.8365Z" transform="translate(207.5 207.5)"/><polygon points="766.255 677.052 781.15 670.686 778.563 664.643 763.668 671.01 758.108 658.024 774.998 650.805 772.342 644.601 747.635 655.161 767.025 700.452 793.05 689.327 790.422 683.188 772.214 690.971 766.255 677.052"/><path d="M596.6022,437.329a12.4485,12.4485,0,0,0-5.75,4.4352,15.0547,15.0547,0,0,0-2.1091,7.2518l-.1287.055q-.66-1.5429-3.0786-6.2132l-7.0452,3.0113q1.9,3.637,3.5373,7.4621l10.8577,25.3612,7.399-3.1625-7.4587-17.4218q-2.05-4.7893-1.1727-8.4727a7.3022,7.3022,0,0,1,4.5129-5.2371q3.3778-1.4439,5.8738.075t4.6428,6.5333l7.8852,18.4182,7.4312-3.1763-8.7109-20.3468q-2.9032-6.7813-7.044-8.8531T596.6022,437.329Z" transform="translate(207.5 207.5)"/><path d="M635.913,448.7035l-7.61-17.7754,7.9459-3.3963-2.2981-5.3679-7.9459,3.3963-3.4128-7.9716-4.922,2.1037,1.0644,8.9754-4.9541,2.1175,2.2981,5.3679,4.8577-2.0762,8.4082,19.64q1.7618,4.1152,4.94,5.3606a9.0432,9.0432,0,0,0,7.0388-.4038,31.5016,31.5016,0,0,0,6.9862-4.1269l-2.1193-4.95a25.1939,25.1939,0,0,1-4.0353,2.2191Q638.0047,453.5893,635.913,448.7035Z" transform="translate(207.5 207.5)"/><path d="M653.993,412.7988q-7.11,3.0387-9.3763,9.1221T645.9,436.2972q3.5229,8.2287,9.3948,11.1t13.11-.223a22.0218,22.0218,0,0,0,5.6625-3.3519,13.9469,13.9469,0,0,0,3.4119-4.2532,20.6876,20.6876,0,0,0,1.8144-6.2512l-7.02-.3076a11.6328,11.6328,0,0,1-1.6967,5.5924,8.6122,8.6122,0,0,1-3.8361,3.0846,7.3511,7.3511,0,0,1-6.8408-.2892q-3.2378-1.8293-5.5592-6.807l22.1006-9.4463-.3853-.9q-3.6051-8.4207-9.3119-11.4391Q661.0386,409.7883,653.993,412.7988Zm-1.61,17.0392a11.2675,11.2675,0,0,1-.6475-7.29,6.9527,6.9527,0,0,1,4.1885-4.5281,6.545,6.545,0,0,1,6.0117-.0029q2.6018,1.4547,4.7949,5.6887Z" transform="translate(207.5 207.5)"/><path d="M687.28,400.6813q-1.263,2.65-.8529,7.8746l-.1287.055q-1.541-3.5992-3.5144-7.32l-7.0451,3.0113q1.4775,2.8287,3.7068,8.036L690.07,437.1532l7.3991-3.1625-6.7568-15.7824q-2.2982-5.3681-1.4983-9.4554a7.229,7.229,0,0,1,4.4029-5.6274,17.388,17.388,0,0,1,3.5292-1.09l-2.6009-6.0751a7.1113,7.1113,0,0,0-2.6882.6547A8.4629,8.4629,0,0,0,687.28,400.6813Z" transform="translate(207.5 207.5)"/><polygon points="497.998 752.438 502.82 750.377 498.543 738.451 492.374 741.087 497.998 752.438"/><polygon points="508.692 747.867 513.54 745.795 509.236 733.88 503.068 736.517 508.692 747.867"/><polygon points="534.809 823.645 539.631 821.585 535.353 809.658 529.185 812.295 534.809 823.645"/><rect x="109.1809" y="622.8638" width="7.0597" height="7.1142" transform="translate(-29.631 302.2089) rotate(-23.1431)"/><rect x="100.228" y="601.9517" width="7.0597" height="7.1142" transform="translate(-22.1324 297.0073) rotate(-23.1431)"/><path d="M140.7312,700.6533,143.64,699.41q1.59,3.7141.2863,9.0791l4.1211-1.7615a15.269,15.269,0,0,0,.1284-5.0218,21.9447,21.9447,0,0,0-1.6216-5.3881l-2.1317-4.979-6.4915,2.7746Z" transform="translate(207.5 207.5)"/><rect x="130.1" y="671.5256" width="7.0597" height="7.1435" transform="translate(-47.0787 314.3479) rotate(-23.1431)"/><polygon points="285.501 1050.348 312.706 1049.736 293.475 1068.972 295.652 1074.059 318.768 1051.316 315.749 1044.264 283.312 1045.234 285.501 1050.348"/><rect x="123.8015" y="915.8691" width="7.0597" height="7.6705" transform="translate(-143.7231 331.5568) rotate(-23.1431)"/><path d="M277.289,745.9185a12.3281,12.3281,0,0,0-6.8343,6.3279q-1.852,4.1984-.051,9.8918l6.1489-2.31a8.194,8.194,0,0,1-.3521-5.5486,5.5108,5.5108,0,0,1,3.1894-3.3054,5.6569,5.6569,0,0,1,4.4183-.2488,6.067,6.067,0,0,1,3.1693,3.5326,6.9947,6.9947,0,0,1,.5888,2.5661,9.0645,9.0645,0,0,1-.3114,2.5847,28.26,28.26,0,0,1-1.6416,4.0925,15.2316,15.2316,0,0,0-1.712,6.0488,14.81,14.81,0,0,0,1.0349,5.5434L290.35,772.78q-1.2944-3.1721.5972-7.1643l1.0363-2.1941a17.5847,17.5847,0,0,0,1.8933-6.5561,12.4561,12.4561,0,0,0-1.0311-5.4973q-2.0971-4.8982-6.1873-6.3021T277.289,745.9185Z" transform="translate(207.5 207.5)"/><rect x="287.6172" y="778.3056" width="7.0889" height="6.88" transform="translate(-76.3174 384.8447) rotate(-23.1431)"/><polygon points="521.393 1072.186 527.184 1069.711 527.067 1020.315 521.303 1022.779 521.393 1072.186"/><path d="M626.238,665.542a13.6591,13.6591,0,0,0-4.587-1.1807,46.9324,46.9324,0,0,0-8.4632.3292,34.1171,34.1171,0,0,1-6.8319.2748,7.0855,7.0855,0,0,1-3.1953-1.1509,6.3405,6.3405,0,0,1-2.0978-2.7957,5.95,5.95,0,0,1-.1342-4.9944,7.5472,7.5472,0,0,1,4.1751-3.6032q6.0913-2.6036,10.057,2.7922l6.5727-4.3156q-3.597-4.7084-8.1507-5.6828t-10.77,1.6826q-6.5271,2.79-8.8786,7.4322t.002,10.1393a14.1147,14.1147,0,0,0,3.7807,5.4382,11.7258,11.7258,0,0,0,5.2141,2.474,28.6356,28.6356,0,0,0,8.6851-.1117q2.3795-.2821,4.4749-.4982a15.4721,15.4721,0,0,1,3.8219.0381,7.0247,7.0247,0,0,1,3.0356,1.1641,6.4792,6.4792,0,0,1,2.1465,2.8667q2.9119,6.8015-4.983,10.1759-7.2429,3.0958-11.81-3.3655l-6.506,4.2137q3.6489,5.3474,8.6938,6.6079,5.0433,1.2612,11.6957-1.5822,7.553-3.2283,10.1177-8.2741t-.1211-11.3192a15.1629,15.1629,0,0,0-2.5674-4.1932A10.8193,10.8193,0,0,0,626.238,665.542Z" transform="translate(207.5 207.5)"/><path d="M647.7344,641.8048a11.9932,11.9932,0,0,0-5.5783,4.2765,13.9776,13.9776,0,0,0-1.9444,6.838l-.1244.0532q-.5361-1.4241-1.0812-2.8261t-1.1434-2.7995l-5.9034-13.7892-7.1489,3.0556L644.1429,681.77l7.1489-3.0556L643.979,661.633a11.4091,11.4091,0,0,1-.867-7.8224,7.7969,7.7969,0,0,1,4.7509-5.0066,5.5576,5.5576,0,0,1,5.34.1057q2.2932,1.4077,4.3948,6.3145l7.5256,17.5781,7.1489-3.0556-8.4431-19.7211q-2.7921-6.5219-6.7859-8.5072T647.7344,641.8048Z" transform="translate(207.5 207.5)"/><rect x="662.8896" y="618.9742" width="7.7407" height="6.6553" transform="translate(16.5743 519.6345) rotate(-23.1431)"/><rect x="674.0969" y="631.1622" width="7.7745" height="34.6279" transform="translate(7.1903 526.1523) rotate(-23.1431)"/><path d="M684.2932,613.7422q-1.4338,3.35.64,8.1949l1.7152,4.0063-5.5948,2.3914,2.22,5.1865,5.5948-2.3914,11.4081,26.6468,7.1489-3.0556-11.4081-26.6468,6.9-2.9493-2.2205-5.1865-6.9,2.9493-1.29-3.0125q-1.3827-3.23-.9311-4.8374a4.1289,4.1289,0,0,1,2.6274-2.5375,19.6351,19.6351,0,0,1,4.218-1.3988l-2.0476-4.7828a35.3985,35.3985,0,0,0-5.7055,1.9611Q685.7271,610.3924,684.2932,613.7422Z" transform="translate(207.5 207.5)"/><path d="M724.227,636.3343,716.8743,619.16l7.6772-3.2815-2.22-5.1865-7.6773,3.2815-3.2974-7.7021-4.7556,2.0327,1.0284,8.6719-4.7866,2.0459,2.22,5.1865,4.6934-2.0061,8.124,18.9757a8.91,8.91,0,0,0,4.7729,5.1794,8.7354,8.7354,0,0,0,6.8008-.39,30.4377,30.4377,0,0,0,6.75-3.9874l-2.0476-4.7827a24.3313,24.3313,0,0,1-3.899,2.1441Q726.2481,641.055,724.227,636.3343Z" transform="translate(207.5 207.5)"/><path d="M536.4133,904.3419l2.0669,43.9775,6.5723-2.8092-.692-11.9621,15.3265-6.551,8.2071,8.75,6.5724-2.8092L544.09,901.0607Zm7.3509,23.5708-.8179-13.5958q-.0994-1.8678-.244-3.398t-.3286-3.2981q2.51,3.0343,4.4359,5.0767l9.2912,9.9423Z" transform="translate(207.5 207.5)"/><rect x="570.4785" y="888.7717" width="6.7374" height="42.5683" transform="translate(-103.9982 506.2738) rotate(-23.1431)"/><path d="M597.3762,913.4349l-6.3719-14.8833,6.6531-2.8438-1.9242-4.4946-6.6532,2.8437-2.8575-6.6746-4.1212,1.7615.8912,7.5151-4.1481,1.773,1.9243,4.4946,4.0673-1.7385,7.04,16.4444a7.7185,7.7185,0,0,0,4.1362,4.4884,7.5694,7.5694,0,0,0,5.8936-.3381,26.3743,26.3743,0,0,0,5.85-3.4554l-1.7745-4.1447a21.09,21.09,0,0,1-3.3788,1.8581Q599.1277,917.5259,597.3762,913.4349Z" transform="translate(207.5 207.5)"/><path d="M840.7425,812.707a9.5662,9.5662,0,0,1-5.0274,4.674,9.945,9.945,0,0,1-9.9675-1.0481q-4.8528-3.2343-8.1881-11.0248-3.3619-7.8528-2.3138-13.3329a10.892,10.892,0,0,1,13.0584-8.3647,11.543,11.543,0,0,1,5.85,4.0983l5.66-5.221q-4.5087-4.93-9.6637-5.8967a19.4623,19.4623,0,0,0-11.2989,1.6591q-8.8884,3.7991-11.201,11.755t2.2368,18.5821q4.5761,10.6887,12.0762,14.6346t16.2952.1868q11.976-5.1189,11.366-18.6086l-7.826.2484A13.6357,13.6357,0,0,1,840.7425,812.707Z" transform="translate(207.5 207.5)"/><path d="M865.017,799.9906l-7.3778-17.2327,7.7034-3.2926-2.228-5.204-7.7033,3.2926-3.3087-7.7283-4.7717,2.04,1.032,8.7013-4.803,2.0529,2.228,5.2041,4.7094-2.0129,8.1514,19.04q1.7078,3.9887,4.7891,5.1968a8.7646,8.7646,0,0,0,6.824-.3915,30.5364,30.5364,0,0,0,6.7729-4.0008l-2.0546-4.799a24.4136,24.4136,0,0,1-3.9121,2.1514Q867.0449,804.7272,865.017,799.9906Z" transform="translate(207.5 207.5)"/><path d="M880.884,767.938q-1.2245,2.5693-.8269,7.6341l-.1249.0534q-1.4941-3.49-3.4069-7.0963l-6.83,2.9194q1.4322,2.7423,3.5936,7.7907l10.2994,24.0571,7.1732-3.066-6.55-15.3006q-2.2281-5.2039-1.4526-9.1667a7.0072,7.0072,0,0,1,4.2685-5.4556,16.86,16.86,0,0,1,3.4214-1.0569l-2.5215-5.89a6.8822,6.8822,0,0,0-2.606.6347A8.2038,8.2038,0,0,0,880.884,767.938Z" transform="translate(207.5 207.5)"/><rect x="897.2779" y="744.3337" width="7.8009" height="49.2875" transform="translate(-22.4169 624.2385) rotate(-23.1769)"/><rect x="602.093" y="153.6842" width="6.2687" height="54.1326" transform="translate(185.1648 459.9172) rotate(-23.1431)"/><polygon points="824.636 446.955 857.497 479.203 863.747 476.532 830.724 444.353 824.636 446.955"/><rect x="16.9701" y="289.4534" width="25.9245" height="2.6935" transform="translate(95.6161 242.666) rotate(-23.1431)"/><polygon points="232.571 410.73 207.5 421.446 207.5 426.859 234.53 415.306 232.571 410.73"/><path d="M10.981,510.82,2.0543,489.9691l8.3-3.5477a25.5653,25.5653,0,0,0,9.5744-6.6839,17.126,17.126,0,0,0,4.1605-8.9978,18.9275,18.9275,0,0,0-1.556-10.0714q-3.467-8.0978-10.5386-10.2815A21.0148,21.0148,0,0,0,0,450.6425v8.02a11.4459,11.4459,0,0,1,6.954-.0354q4.0168,1.4311,6.06,6.2028,2.16,5.0463.3685,9.0286t-7.1165,6.2582L0,482.7947V511.351L1.5063,514.87Z" transform="translate(207.5 207.5)"/><circle cx="707.5" cy="707.5" r="707.5" style="fill:none"/></svg>