<svg id="图层_1" data-name="图层 1" xmlns="http://www.w3.org/2000/svg" viewBox="0 0 1415 1415"><title>kt1</title><circle cx="707.5" cy="707.5" r="707.5" style="fill:none"/><rect x="207.5" y="207.5" width="1000" height="1000" style="fill:#262696"/><path d="M251.358,389.9455C201.6308,380.353,113.95,466.5736,110.13,563.7646c-3.2562,82.844,55.1562,154.8493,122.2166,184.6828,64.1084,28.52,156.4354,27.5372,192.8306-19.0115,26.87-34.3666,15.6747-83.8771,28.5171-85.5516,16.4737-2.1478,21.5641,81.0565,78.7618,111.3529,15.886,8.4145,29.0856,9.1957,78.7618,8.1478,103.6914-2.1873,155.537-3.281,171.1032-9.5058,64.4121-25.7581,129.2933-100.1747,127.6484-186.0407C907.806,454.9078,791.3653,363.6992,752.4458,379.0818c-11.0393,4.3632-20.8886,19.297-19.0114,31.2331,2.5083,15.95,25.0765,20.9553,46.1706,32.5911,38.7124,21.3543,71.88,64.7207,78.7618,108.6369,6.8266,43.5613-12.04,88.7433-40.7388,116.7848-30.2912,29.597-69.9861,33.311-149.3758,40.7388-66.03,6.1779-88.9661-3.4609-101.8471-10.8637-21.8337-12.548-34.7743-30.1651-47.5287-47.5286-18.58-25.294-34.1873-46.542-28.5172-67.8981,6.3171-23.7931,35.6367-34.8829,47.5287-39.3809,54.0489-20.4435,99.354,6.8692,114.0688-14.9376,5.0969-7.5535,4.4393-17.9116,1.3579-24.4433-10.7345-22.7547-64.8219-28.6171-105.921-14.9376-12.2053,4.0625-19.8385,8.7078-23.0853,5.4319-9.9428-10.0319,47.2808-68.0787,32.591-89.6255-5.8347-8.5583-21.6431-9.3464-32.591-6.79-17.0535,3.9822-34.2476,18.8664-78.7618,138.5121-14.3035,38.4449-31.07,75.93-46.1707,114.0688-10.17,25.6859-14.24,36.3539-25.8013,46.1706-31.3145,26.59-83.7027,18.16-115.4267,4.0739-53.47-23.7418-93.8912-83.8257-86.91-139.87,5.0909-40.8669,34.4328-71.9273,43.4548-81.4777,33.4176-35.3749,69.3134-42.9454,67.8981-62.4663C281.6852,404.6107,265.8959,392.75,251.358,389.9455Z" transform="translate(207.5 207.5)" style="fill:#fff"/><path d="M331.4777,418.4627c18.398,2.25,23.7671-47.8354,66.54-86.9095,46.18-42.1864,105.1585-43.4006,114.0688-43.4548,13.3728-.0814,62.8236-.3823,101.8471,32.5911,43.4227,36.69,44.9317,90.074,67.8981,89.6254,11.2223-.2191,22.686-13.1962,25.8013-25.8012,12.1018-48.9662-87.3944-150.5211-195.5465-152.0917-106.3177-1.5441-208.183,93.7192-200.9783,153.45C312.7833,399.7588,321.0125,417.183,331.4777,418.4627Z" transform="translate(207.5 207.5)" style="fill:#fff"/></svg>