<svg id="图层_1" data-name="图层 1" xmlns="http://www.w3.org/2000/svg" viewBox="0 0 1415 1415"><title>Lanzou-Drive</title><rect x="207.5" y="207.5" width="1000" height="1000" style="fill:#f60"/><path d="M998,159c-69.3141-33.1175-213.1261-5.493-304,63-29.63,22.3328-64.07,48.2906-84,95-25.0731,58.7636-11.9338,114.6384-33,121-13.7319,4.1468-24.7306-17.9591-49-35-52.7914-37.0679-146.1482-34.5637-208,12-67.8891,51.1087-94.9893,146.2833-73,193,2.9769,6.3245,9.9407,18.3244,6,31-6.6879,21.5125-38.9628,26.2452-68,35-65.535,19.7589-117.0641,60.7542-143,93C27.5112,785.0138,7.2352,817.4225,0,871.0939V999c.1125.3337.2429.6664.3582,1H1000V159.9965C999.3349,159.6606,998.6716,159.3209,998,159Z" transform="translate(207.5 207.5)" style="fill:#fff"/><circle cx="707.5" cy="707.5" r="707.5" style="fill:none"/></svg>