<svg id="图层_1" data-name="图层 1" xmlns="http://www.w3.org/2000/svg" viewBox="0 0 1000 1000"><title>Leetcode</title><rect width="1000" height="1000" style="fill:#fff"/><path d="M699.6321,686.76a43.062,43.062,0,0,0-60.8987-.1629l-.0693.0692L563.79,761.4157a94.4049,94.4049,0,0,1-131.4046,1.1875l-.625-.5937-16.569-16.2473-61.0083,61.0083L371.48,823.7274l1.2188,1.1875c70.2492,67.6555,182.8729,66.6555,251.9658-2.3124l74.8742-74.7492A43.2765,43.2765,0,0,0,699.6321,686.76Z" style="fill:#ffa116"/><path d="M502.6077,153.4564q.9129-.9786,1.79-1.9857L380.15,284.4978c.69-.6858,1.3894-1.3632,2.0527-2.0741Z" style="fill:#ffa116"/><path d="M712.3194,391.17,602.9456,302.7023c-24.969-20.1937-55.1131-32.6236-86.5706-37.5423L445.14,341.423l-32.7646,35.08c33.7109-33.4986,98.84-36.9915,136.3837-6.6136l109.4049,88.4677A43.1477,43.1477,0,0,0,712.3194,391.17Z" style="fill:#ffa116"/><path d="M577.0113,136.58a42.8166,42.8166,0,0,0-60.69,2.1245l-11.924,12.7666q-.8777,1.0065-1.79,1.9857L382.2029,282.4237c-.6633.7109-1.3625,1.3883-2.0527,2.0741L347.3861,319.577,276.1507,395.84,226.95,448.513c-1.4063,1.4974-2.7718,3.0282-4.1184,4.574a164.875,164.875,0,0,0-33.6624,61.1752q-2.3478,7.9143-3.9062,16.0311a172.7169,172.7169,0,0,0,1.9375,73.8116,182.1771,182.1771,0,0,0,10.9061,31.7809,185.5568,185.5568,0,0,0,39.7184,56.8119L278.4863,732.56l75.6966,74.21,61.0083-61.0083-75.6879-74.2188L318.043,650.5l-19.9063-19.52c-20.3747-20-30.3747-45.9058-29.6247-70.718a83.7552,83.7552,0,0,1,2.0625-16.3436,79.53,79.53,0,0,1,17.5547-34.39q.877-1.0059,1.7888-1.9844L410.3229,378.5764c.6632-.7108,1.3622-1.3881,2.0522-2.0738l32.7646-35.08L516.375,265.16c-.0388-.006-.0771-.0137-.1159-.02l53.4355-57.2278,9.5325-10.209a43.2517,43.2517,0,0,0-2.2158-61.1238Z"/><path d="M774.7561,525.4809H456.791a43.1246,43.1246,0,0,0-43.1245,43.1245v.0626a43.1247,43.1247,0,0,0,43.062,43.1869H774.6936A43.1244,43.1244,0,0,0,817.8181,568.73v-.0625A43.1244,43.1244,0,0,0,774.7561,525.4809Z" style="fill:#bfbcbb"/></svg>