<svg id="图层_1" data-name="图层 1" xmlns="http://www.w3.org/2000/svg" viewBox="0 0 1000 1000"><title>Liu</title><circle cx="500" cy="500" r="500" style="fill:#fff"/><path d="M433.3147,380.5014Q308.4486,408.85,278.5793,408.8445q-29.8749,0-45.578-5.7454-15.7089-5.745-15.7034-11.1075,0-5.3494,21.8314-6.5111,21.8316-1.1487,75.07-12.6392,53.2322-11.49,84.6449-20.6824,80.432-24.5067,111.8385-24.5124,14.542,0,23.3635,5.7448,8.797,5.7459,8.809,11.8733,0,10.7364-21.8313,14.9376-21.8318,4.2188-73.9206,17.2355,39.8208,29.8741,39.8327,37.5348a22.3913,22.3913,0,0,1-4.5958,13.7881q-9.9647,13.7883-16.0866,33.7047a879.294,879.294,0,0,1-35.2368,81.198q52.8552,45.2068,71.2394,71.2394,18.3847,26.0511,18.3845,52.09,0,26.05-13.7881,26.0446-10.7364,0-24.5124-20.6824-28.3486-42.12-70.4737-91.9224-35.2431,58.9951-73.92,95.7519-38.69,36.77-72.7721,53.2381Q231.08,745.8858,218.83,745.8914c-2.5612,0-3.83-1.029-3.83-3.0632q0-3.07,11.49-9.9591,46.7153-29.1015,89.2412-76.6011a502.2746,502.2746,0,0,0,71.6227-103.4125q-62.82-67.3974-98.05-99.5825-6.8946-6.1219-6.8943-11.49c0-3.5667,2.0347-5.3621,6.128-5.3621q17.6128,0,113.3711,82.73,32.1723-71.9939,32.1725-121.797Q434.081,388.9335,433.3147,380.5014Zm12.2565-102.6462q0,13.7884-5.3622,23.3635-5.3682,9.5877-16.8523,9.5754-11.49,0-27.1936-17.2355-15.71-17.2353-33.322-38.6837-17.63-21.4368-17.6182-25.2788,0-3.8238,9.1923-3.83,41.365,0,66.26,14.5544Q445.5593,254.8807,445.5712,277.8552Zm192.27,83.496a34.403,34.403,0,0,1-1.5316,9.1922q-7.6663,21.4548-7.6606,79.6659l1.5321,91.156q0,44.4351-6.128,60.1325-6.14,15.7087-13.4054,15.7034-7.2886,0-15.7034-14.9376-8.4381-14.9371-6.128-38.6837,6.8938-55.9072,6.8943-82.73,0-26.8041-3.4474-72.7715-3.4468-45.9607-9.958-56.3024-6.5169-10.3407-6.5112-18.0013,0-7.6485,11.49-7.66,11.49,0,31.0236,10.7244Q637.8413,347.5751,637.8413,361.3512Zm112.6048-20.6824q0,85.8,7.2775,225.9748Q764.9943,706.8246,765,716.0173q0,45.1881-16.4692,75.4521Q732.05,821.722,718.273,821.7272q-9.1911,0-17.6181-16.0865-8.4375-16.085-27.9594-40.2158-19.5335-24.1282-32.9389-36.0027-13.4114-11.8669-13.4054-15.7028c0-2.5492,1.652-3.8306,4.979-3.8306q4.9733,0,27.1935,9.1928,22.2093,9.1911,36.0027,9.1917,13.7891,0,18.0018-8.4265,4.2008-8.42,5.7448-67.792,1.5264-59.3541,1.5327-115.6685,0-56.303-6.1285-158.1828-6.14-101.8686-13.7887-132.1377-7.6647-30.2517-16.086-41.7479-8.4381-11.4911-8.4259-18.7677,0-7.2714,8.8091-7.2774,8.797,0,44.8117,19.9166Q764.9943,218.1176,765,231.894q0,6.1409-5.3622,16.0866Q750.4467,265.6107,750.4461,340.6688Z"/></svg>