<svg id="图层_1" data-name="图层 1" xmlns="http://www.w3.org/2000/svg" xmlns:xlink="http://www.w3.org/1999/xlink" viewBox="0 0 1000 1000"><defs><linearGradient id="未命名的渐变_72" x1="270.0734" y1="677.4645" x2="127.0079" y2="370.6596" gradientUnits="userSpaceOnUse"><stop offset="0" stop-color="#9851f7"/><stop offset="1" stop-color="#ec508c"/></linearGradient><linearGradient id="未命名的渐变_57" x1="540.1877" y1="676.1076" x2="389.962" y2="353.9475" gradientUnits="userSpaceOnUse"><stop offset="0" stop-color="#3cc3f1"/><stop offset="0.25" stop-color="#5397ed"/><stop offset="0.5" stop-color="#d34cc4"/><stop offset="0.75" stop-color="#fd5955"/><stop offset="1" stop-color="#ff5c53"/></linearGradient><linearGradient id="未命名的渐变_88" x1="812.112" y1="633.8915" x2="697.5822" y2="388.2815" gradientUnits="userSpaceOnUse"><stop offset="0" stop-color="#46bbea"/><stop offset="0.5" stop-color="#64a9de"/><stop offset="1" stop-color="#b47bb7"/></linearGradient><linearGradient id="未命名的渐变_49" x1="750.0417" y1="933.085" x2="249.9583" y2="66.915" gradientUnits="userSpaceOnUse"><stop offset="0" stop-color="#21c8ff"/><stop offset="0.25" stop-color="#696dff"/><stop offset="0.5" stop-color="#a14ef4"/><stop offset="0.75" stop-color="#d64cbf"/><stop offset="1" stop-color="#ff5c53"/></linearGradient></defs><title>LRC-Maker</title><path d="M336.4153,646.5149A463.0154,463.0154,0,0,1,191.3229,672.12c-32.7169,0-49.0754-14.2248-49.0754-41.9631q10.098-126.341,9.2461-253.2c0-7.8236,2.1337-14.2248,7.1124-19.2034a26.3155,26.3155,0,0,1,19.9146-7.8236,27.027,27.027,0,0,1,28.4121,25.567q.0384.7293.0374,1.46-.1188,121.0406-9.2461,241.8207a458.7488,458.7488,0,0,0,128.0228-24.182,27.7381,27.7381,0,0,1,27.027,27.027C352.7738,633.7126,347.7952,641.5362,336.4153,646.5149Z" style="fill-rule:evenodd;fill:url(#未命名的渐变_72)"/><path d="M596.7283,611.6642c-17.781-19.9146-43.3855-39.8292-78.9474-59.0327,23.4709-9.246,41.2518-19.9146,53.3428-34.1394,11.38-12.8022,17.781-28.45,17.781-45.5192,0-41.963-28.45-76.8136-84.6373-104.5519-12.8023-7.1123-28.45-11.38-46.9417-14.2247L408.25,350.64c-12.0911-.7112-21.3372,2.8449-28.4495,12.091-4.9787,7.1124-7.8236,14.936-7.8236,23.4709V545.5192q-.9454,44.4456-.7113,88.9047a25.6046,25.6046,0,0,0,7.8236,19.2034,31.4366,31.4366,0,0,0,39.8293,0,27.48,27.48,0,0,0,7.8237-19.2034l-2.1337-64.0114a332.1486,332.1486,0,0,1,131.5789,78.2362,28.4491,28.4491,0,0,0,19.2034,7.8236,27.0273,27.0273,0,0,0,19.9146-7.8237A26.3159,26.3159,0,0,0,596.7283,611.6642ZM434.5661,511.38h-8.5348V406.1166l22.76,1.4225v.7112a113.7976,113.7976,0,0,1,56.1877,22.0484q27.7383,21.337,27.7383,42.6742c0,2.845-2.1337,7.1124-7.8236,12.8023A72.1747,72.1747,0,0,1,505.69,499.2887C490.7539,507.8235,466.5718,511.38,434.5661,511.38Z" style="fill-rule:evenodd;fill:url(#未命名的渐变_57)"/><path d="M830.0142,443.8122c-11.38,0-20.6259-6.4011-26.3158-18.4922-2.1337-6.4011-4.9786-9.9573-7.1124-10.6685a50.4958,50.4958,0,0,0-16.3584-1.4225c-16.3584,0-35.5619,12.8022-56.899,38.4068-30.5832,35.5619-46.23,69.7012-46.23,101.707,0,14.2247,4.9786,26.3158,14.2247,36.9844,9.9574,9.9573,21.3371,14.936,35.5619,14.936a81.9545,81.9545,0,0,0,39.1181-9.9574l29.8719-19.2034q16.0029-10.6686,23.4709-10.6686c7.8236,0,14.2247,2.845,19.9146,8.5349a26.3157,26.3157,0,0,1-2.8449,39.118,170.6968,170.6968,0,0,1-110.2419,46.2305,99.5732,99.5732,0,0,1-74.68-32.717c-19.9147-21.3371-29.872-45.5192-29.872-73.2574a213.37,213.37,0,0,1,58.3215-135.1351c32.7169-39.1181,66.1451-59.0328,100.2844-59.0328a174.2552,174.2552,0,0,1,28.45,2.845,28.4492,28.4492,0,0,1,21.3371-8.5348c12.8023,0,21.3372,7.1123,24.1821,22.76a209.7835,209.7835,0,0,1,3.5562,39.118c0,6.4012-2.1337,12.0911-5.69,17.781a24.893,24.893,0,0,1-21.3371,10.6685Z" style="fill-rule:evenodd;fill:url(#未命名的渐变_88)"/><path d="M500,0C223.8576,0,0,223.8576,0,500s223.8576,500,500,500,500-223.8576,500-500S776.1423,0,500,0Zm.159,960.8818H500C245.462,960.838,39.1537,754.4585,39.1976,499.92,39.2415,245.4445,245.524,39.1619,500,39.118,754.538,39.0742,960.9175,245.3824,960.9614,499.92S754.6971,960.838,500.159,960.8818Z" style="fill-rule:evenodd;fill:url(#未命名的渐变_49)"/></svg>