<svg id="图层_1" data-name="图层 1" xmlns="http://www.w3.org/2000/svg" viewBox="0 0 1415 1415"><title>Magdeleine</title><rect x="207.5" y="207.5" width="1000" height="1000" style="fill:#fff"/><circle cx="707.5" cy="707.5" r="707.5" style="fill:none"/><path d="M489.5834,739.97,459.49,334.1053q-10.814,120.369-45.91,221.8366-35.1206,101.4715-83.7191,147.7628Q281.2488,750.0007,226.4652,750q-21.6108,0-32.7936-8.1005-11.1938-8.1018-11.188-20.4477,0-10.0179,7.7163-17.7471,7.7038-7.7049,23.1477-7.7157a85.65,85.65,0,0,1,23.92,3.8579,81.0933,81.0933,0,0,0,25.4634,4.6288q36.2589,0,74.0739-50.9255,37.7971-50.9262,65.5871-153.164,27.7772-102.2311,33.1791-197.9173A277.4266,277.4266,0,0,0,351.08,315.5858q-41.2869,13.1291-69.0587,43.21Q254.2427,388.89,254.243,417.4381q0,23.9268,20.8332,47.84,10.7967,11.5734,10.8025,23.9193A19.1492,19.1492,0,0,1,279.32,504.244q-6.5645,5.7867-14.2747,5.7874-15.4441,0-28.55-20.0615-13.1291-20.056-13.1169-47.84,0-38.5749,25.0773-77.933,25.065-39.3507,76.7744-62.1142,51.6856-22.75,126.5441-24.3055,39.3507,0,58.6411-6.1723-.7757,37.8134,0,51.6965L532.7932,609.568Q609.1815,474.5488,686.3435,377.7,763.4912,280.8769,817.5164,250q-26.24,70.9984-55.5557,189.0431L696.3749,704.4757q29.3145,6.1859,52.4689,6.1736a232.4654,232.4654,0,0,0,40.8954-3.8578l-4.63,21.6049a182.1006,182.1006,0,0,1-32.4074,3.0868q-13.8885,0-41.6664-3.0868-30.0923-3.0928-42.4388-3.0868-18.5189,0-44.7533,7.7157,17.7411-46.296,43.21-145.8332L696.3749,471.45q16.9632-72.5175,31.635-101.8523-13.8886,15.4442-35.4942,44.7532-21.6117,29.3348-48.2249,68.2878-26.6207,38.9719-43.596,65.5871-16.9815,26.6207-37.0362,62.1142Z" transform="translate(207.5 207.5)"/></svg>