<svg id="图层_1" data-name="图层 1" xmlns="http://www.w3.org/2000/svg" viewBox="0 0 1000 1000"><title>ManyPixels</title><g id="surface1"><path d="M228.2614,148.8026H771.7386A103.2608,103.2608,0,0,1,875,252.064V747.9305A103.262,103.262,0,0,1,771.7386,851.1974H228.2614A103.2655,103.2655,0,0,1,125,747.9305V252.064A103.2643,103.2643,0,0,1,228.2614,148.8026Z" style="fill:#07122b"/><path d="M671.2783,281.17H744.95v72.9H671.2783Z" style="fill:#0099f6"/><path d="M764.62,532.029H838.29v72.8841H764.62Z" style="fill:#0099f6"/><path d="M406.2537,385.1753c-64.4152,0-68.5065,35.9345-68.5065,36.3024,0-.5041-12.3512-36.3024-67.1431-36.3024-34.2778,0-41.1266,16.2291-40.9455,16.3358V383.6393H160.3842V605.0479h69.1874v-123.92c0-24.0846,18.1961-36.33,34.9362-36.33a34.6446,34.6446,0,0,1,34.4786,35.0008c.5265,1.0151-.5714,125.25-.5714,125.25h67.3326s.8368-116.0986.8368-118.5991c0-23.4907,14.5766-42.4871,34.254-42.4871s35.6172,19.0245,35.6172,42.4871c0,2.6072-.5406,118.5991-.5406,118.5991h65.961V468.4689C501.8058,419.7521,463.7975,385.1753,406.2537,385.1753Z" style="fill:#f2f2f2"/><path d="M748.2636,494.352c0,70.8259-41.8469,118.49-91.5689,118.49-24.27,0-36.5734-8.2163-51.1261-23.7953v91.9311H538.6277V382.5413h67.23V400.36c14.5836-15.6521,26.661-24.4974,50.9309-24.4974C706.4167,375.8624,748.2636,423.9487,748.2636,494.352Zm-60.9289,0c0-32.6154-18.1962-55.0559-42.9912-55.0559-23.0849,0-43.6651,22.44-43.6651,55.0559,0,33.0128,20.4707,55.0377,43.6651,55.0377C669.2326,549.39,687.3347,527.3648,687.3347,494.352Z" style="fill:#f2f2f2"/></g><rect width="1000" height="1000" style="fill:none"/></svg>