<svg id="图层_1" data-name="图层 1" xmlns="http://www.w3.org/2000/svg" viewBox="0 0 1000 1000"><title>MDN</title><rect width="1000" height="1000" style="fill:#fff"/><g id="MDN"><path id="Shape" d="M0,0V1000H1000V0ZM440.1667,207.0417c27.7916-1.9584,41.7083,2.75,66.25,10.0833l18.1666,5.4167,6.3334,1.9166,23.2083,7.0834a93.8146,93.8146,0,0,0,46.4583.7083A84.7089,84.7089,0,0,1,662.25,239.5a61.5681,61.5681,0,0,1,30.7084,46.4583,55.0006,55.0006,0,0,0,27,41.2084,452.3,452.3,0,0,0,69.6667,30.6666c16.9583,6.5,33.9584,13.7917,50.7917,20.3334a51.5705,51.5705,0,0,1,21.4166,15.4166A36.2328,36.2328,0,0,1,870.0417,414c1.0416,14.9583,2.8333,30.0833,3.5833,45.1667h-.0833a113.2847,113.2847,0,0,1-13.2083,59.9583c-3.625,6.875-7.6251,13.375-10.9584,20.25a25.6684,25.6684,0,0,1-26.4583,15.2917,17.3741,17.3741,0,0,0-11.5417,3.75c-10.25,6.7083-20.7083,13.3333-31.25,19.625a54.5923,54.5923,0,0,1-47.5416,2.5,223.3439,223.3439,0,0,0-79.5-14.625A87.9169,87.9169,0,0,0,582.25,598.2083a109.2545,109.2545,0,0,0-15.8333,32.0834c-9.2917,22.9166-17.25,159.9166-17.25,194.8333,0,0-131.7084-25.625-255.4167-152.2083L326,588.3333H225L298.0833,511H172.5l73-77.4167H126.2083L259.0417,292.625a306.21,306.21,0,0,1,147.875-81.25,327.301,327.301,0,0,1,33.25-4.3333Z" style="fill-rule:evenodd"/></g></svg>