<?xml version="1.0" encoding="utf-8"?>
<svg width="1000px" height="1000px" viewBox="0 0 1000 1000" version="1.1" xmlns:xlink="http://www.w3.org/1999/xlink" xmlns="http://www.w3.org/2000/svg">
  <path d="M0 0L1000 0L1000 1000L0 1000L0 0Z" id="矩形" fill="none" fill-rule="evenodd" stroke="none" />
  <path d="M330.5 235.063C264.9 235.063 207.733 277.729 168.133 338.829C123.467 407.663 100 496.829 100 582.363C100 605.896 102.333 627.996 107 648.129C109.291 657.874 112.242 667.452 115.833 676.796C119.272 685.568 123.408 694.05 128.2 702.162C151.4 740.796 188.8 766.396 247.967 766.396C297.867 766.396 335.733 744.029 380.133 684.929C405.467 651.196 418.267 630.729 468.9 540.929L494.1 496.296L500.3 485.462C502.333 488.796 504.333 491.996 506.4 495.462L578.133 615.296C602.267 655.629 633.633 700.496 660.467 725.762C695.333 758.662 726.867 766.429 762.467 766.429C798.3 766.429 825 754.596 844.3 738.329C855.076 729.13 864.207 718.162 871.3 705.896C889.367 674.596 900 634.996 900 581.063C900 490.396 877.3 402.496 830.533 332.729C787.8 268.996 731.967 235.062 673.333 235.062C638.433 235.062 603.733 250.629 571.567 278.662C549.833 297.662 529.667 321.662 510.9 346.996C487.9 317.829 466.4 295.429 445.633 278.462C406.233 246.262 368.467 235.029 330.5 235.029L330.5 235.063ZM669.167 303.496L669.201 303.496C707.421 303.511 742.108 328.775 768.9 370.129C806.634 428.396 823.8 509.963 823.8 583.463C823.8 635.063 811.534 680.129 762.5 680.129C743.167 680.129 728.267 672.463 707.034 646.663C690.5 626.629 662.267 584.063 612.634 501.396L592.067 467.129C578.699 444.769 564.75 422.762 550.234 401.13C552.567 397.496 554.934 393.663 557.267 390.23C594.59 334.678 627.849 303.513 669.167 303.496ZM418.3 370.129C397.733 348.296 371.3 321.929 329.133 321.929C316.438 321.995 303.964 325.262 292.867 331.429C273.9 341.662 256.9 359.629 241.767 382.529C207.433 434.296 186.433 511.429 186.433 585.463C186.433 615.996 193.133 639.463 201.9 653.662C213.4 672.229 230.533 680.129 248 680.129C270.533 680.129 291.167 674.529 330.867 619.563C362.7 575.529 400.2 513.729 425.433 474.963L459.433 422.763C442.867 399.163 428.533 381.029 418.3 370.129Z" id="meta" fill="#0467DF" fill-rule="evenodd" stroke="none" />
</svg>