<?xml version="1.0" encoding="utf-8"?>
<svg width="1000px" height="1000px" viewBox="0 0 1000 1000" version="1.1" xmlns:xlink="http://www.w3.org/1999/xlink" xmlns="http://www.w3.org/2000/svg">
  <path d="M0 500C0 223.858 223.858 0 500 0C776.142 0 1000 223.858 1000 500C1000 776.142 776.142 1000 500 1000C223.858 1000 0 776.142 0 500Z" id="椭圆" fill="none" fill-rule="evenodd" stroke="none" />
  <g id="编组" transform="translate(125.00009 135)">
    <path d="M747 68.4611L691.973 6.72289C683.076 -1.70234 669.329 -2.27519 659.762 5.38069L545.68 106.041L532.259 49.6709C526.56 39.1251 513.873 34.5114 502.732 38.9338L432.94 61.7501C433.367 61.4508 424.683 66.0187 420.861 71.1451C418.728 74.0059 416.558 79.1212 418.177 88.5929L450.388 197.306L414.151 338.23L402.072 338.23C384.436 325.433 381.292 313.288 380.597 307.361C379.69 299.617 382.217 292.25 387.308 277.834C395.195 255.502 401.715 247.959 398.045 242.939C395.759 239.811 391.283 240.076 377.913 240.254C363.266 240.45 351.429 240.361 343.689 240.254L343.689 125.502L363.15 106.041L341.676 18.8021L321.543 18.8021L300.74 105.37L321.543 126.173L321.543 240.254C321.503 240.254 306.46 239.944 292.016 240.254C277.869 240.559 270.763 240.756 269.2 242.939C265.52 248.078 272.785 255.7 281.279 279.176C286.046 292.351 288.421 299.107 287.99 307.361C287.254 321.446 278.998 332.159 273.226 338.23L249.068 338.23L216.857 255.018C239.793 215.161 241.015 212.07 241.015 212.07C255.283 175.988 243.955 140.064 241.015 131.541C235.32 115.037 226.168 99.9377 214.173 87.2515C173.17 44.4528 112.505 48.8195 102.775 49.6715L143.04 148.989L90.6966 169.121C76.8275 136.91 62.9586 104.699 49.0899 72.4875C38.8749 80.1199 19.8705 96.5011 8.8259 123.489C-11.781 173.842 4.52589 238.629 49.0899 272.466C74.8251 292.007 102.98 295.908 118.881 296.624C123.802 310.493 128.723 324.362 133.645 338.23L109.486 338.23C104.025 337.834 98.6534 339.787 94.7225 343.599C91.2349 347.191 89.3056 352.014 89.3539 357.02L89.3539 707.318C91.9063 726.156 99.8269 743.861 112.17 758.319C132.83 782.353 158.81 788.807 167.198 790.53L526.89 790.53C564.677 781.38 593.575 750.906 600.707 712.687L600.707 359.705C600.963 354.899 599.54 350.154 596.681 346.283C593.081 341.678 587.739 338.764 581.918 338.23L555.075 338.23C557.312 314.072 559.549 289.914 561.786 265.755L580.576 213.412L740.29 115.436C750.185 101.862 752.699 84.2626 747.001 68.4611L747 68.4611Z" id="形状-小路" fill="#000000" stroke="none" />
    <path d="M576.549 359.705L576.549 707.318C569.993 736.125 548.466 759.189 520.179 767.714L173.909 767.714C143.908 760.344 120.884 736.274 114.855 705.976L114.855 359.705L576.549 359.705Z" id="形状-小路" fill="#FFFFFF" stroke="none" />
    <g id="MiKu-Tools" transform="translate(242.98358 606.6421)">
      <path d="M197.383 17.2263C197.505 19.1837 196.715 21.0873 195.242 22.3829C193.454 23.6898 191.262 24.324 189.052 24.1741C187.064 24.2869 185.094 23.7424 183.446 22.6246C182.004 21.4531 181.055 19.7817 180.789 17.9429L184.554 17.2928C184.836 19.6232 186.914 21.3109 189.252 21.1083C192.074 21.1083 193.484 19.892 193.484 17.4595C193.51 16.8596 193.365 16.2648 193.068 15.7433C192.777 15.2864 192.383 14.9041 191.918 14.6271C191.377 14.304 190.797 14.0494 190.193 13.8691C189.532 13.6636 188.824 13.4498 188.069 13.2277C186.675 12.8879 185.34 12.3373 184.112 11.5948C183.316 11.052 182.669 10.3189 182.229 9.46222C181.76 8.46307 181.534 7.36664 181.571 6.26324C181.479 4.50873 182.205 2.81067 183.537 1.66486C185.105 0.4823 187.042 -0.102722 189.002 0.0148315C190.833 -0.090332 192.651 0.372314 194.209 1.33942C195.549 2.36365 196.47 3.84161 196.799 5.49634L192.984 6.17944C192.648 4.80811 191.649 3.6955 190.321 3.21503C188.994 2.73456 187.514 2.94983 186.378 3.7887C185.754 4.38232 185.422 5.21973 185.47 6.07947C185.447 6.66479 185.588 7.24499 185.878 7.75397C186.188 8.22803 186.608 8.61969 187.103 8.89508C188.11 9.3996 189.164 9.80157 190.252 10.0951C191.594 10.4736 192.898 10.9727 194.15 11.5863C194.845 11.9496 195.471 12.4317 196 13.0108C196.46 13.5422 196.812 14.1594 197.033 14.827C197.279 15.6024 197.398 16.4128 197.383 17.2264L197.383 17.2263Z" id="形状" fill="#000000" stroke="none" />
      <path d="M170.176 0.365417L170.176 20.6254L179.206 20.6254L179.206 23.841L166.111 23.841L166.111 0.365417L170.176 0.365417Z" id="形状" fill="#000000" stroke="none" />
      <path d="M161.579 11.9948C161.63 14.2336 161.165 16.4543 160.221 18.4848C159.384 20.2603 158.023 21.7371 156.322 22.7166C154.473 23.7273 152.389 24.2303 150.282 24.1745C146.706 24.1745 143.935 23.1054 141.969 20.9672C140.002 18.8291 139.019 15.8384 139.02 11.9953C139.02 8.18549 140.008 5.23651 141.985 3.14832C143.962 1.06006 146.739 0.0159302 150.316 0.0159912C153.892 0.0159912 156.663 1.07117 158.63 3.18158C160.596 5.29199 161.579 8.22974 161.579 11.9948L161.579 11.9948ZM157.447 11.9948C157.595 9.69098 156.948 7.40619 155.614 5.52203C154.308 3.96722 152.343 3.12354 150.316 3.24786C148.272 3.11377 146.284 3.95026 144.951 5.50543C143.729 7.01056 143.118 9.17389 143.118 11.9954C142.978 14.3411 143.632 16.6656 144.976 18.5931C146.259 20.1921 148.236 21.0732 150.283 20.959C152.327 21.0946 154.314 20.2467 155.631 18.6765C156.842 17.1542 157.447 14.927 157.447 11.9948L157.447 11.9948Z" id="形状" fill="#000000" fill-rule="evenodd" stroke="none" />
      <path d="M135.788 11.9948C135.839 14.2336 135.374 16.4543 134.43 18.4848C133.593 20.2604 132.232 21.7371 130.531 22.7166C128.682 23.7273 126.598 24.2303 124.491 24.1745C120.915 24.1745 118.143 23.1054 116.177 20.9672C114.211 18.8291 113.228 15.8384 113.228 11.9953C113.228 8.18549 114.217 5.23651 116.194 3.14832C118.171 1.06006 120.948 0.0159302 124.524 0.0159912C128.101 0.0159912 130.872 1.07117 132.838 3.18158C134.804 5.29199 135.787 8.22974 135.788 11.9948L135.788 11.9948ZM131.656 11.9948C131.804 9.69098 131.157 7.40613 129.823 5.52203C128.517 3.96716 126.551 3.12341 124.525 3.24786C122.481 3.11383 120.493 3.95026 119.16 5.50543C117.938 7.01056 117.327 9.17389 117.327 11.9954C117.186 14.341 117.841 16.6656 119.185 18.5931C120.468 20.1921 122.444 21.0732 124.491 20.959C126.536 21.0946 128.523 20.2467 129.84 18.6765C131.05 17.1542 131.656 14.927 131.656 11.9948L131.656 11.9948Z" id="形状" fill="#000000" fill-rule="evenodd" stroke="none" />
      <path d="M111.179 0.365417L111.179 3.63104L104.165 3.63104L104.165 23.8411L100.133 23.8411L100.133 3.63104L93.2187 3.63104L93.2187 0.365417L111.179 0.365417Z" id="形状" fill="#000000" stroke="none" />
      <path d="M71.2263 24.174C68.194 24.174 65.8837 23.4076 64.2953 21.8748C62.707 20.342 61.9128 18.1094 61.9128 15.177L61.9128 0.365417L65.9614 0.365417L65.9614 14.8771C65.8585 16.4993 66.3668 18.1011 67.386 19.3671C68.4044 20.4572 69.8535 21.0399 71.343 20.9583C72.8886 21.0586 74.3963 20.4519 75.4415 19.3088C76.4583 17.9871 76.9615 16.3415 76.8577 14.6771L76.8577 0.365417L80.8897 0.365417L80.8897 14.9105C80.8897 17.8983 80.0595 20.1892 78.3989 21.7831C76.7384 23.3771 74.3475 24.1741 71.2263 24.174L71.2263 24.174Z" id="形状" fill="#000000" stroke="none" />
      <path d="M54.6485 23.8408L47.7675 13.1108L45.5516 15.26L45.5516 23.8405L41.503 23.8405L41.503 0.365417L45.5516 0.365417L45.5516 11.2117L53.9654 0.365417L58.7804 0.365417L50.7498 10.4786L59.5469 23.8408L54.6485 23.8408Z" id="形状" fill="#000000" stroke="none" />
      <path d="M35.6217 23.8408L31.5563 23.8408L31.5563 0.365417L35.6216 0.365417L35.6217 23.8408Z" id="形状" fill="#000000" stroke="none" />
      <path d="M5.51523 0.365417L11.13 14.1607C11.4188 14.8383 12.0131 16.51 12.9128 19.1757C13.2461 18.0983 13.8681 16.4266 14.7788 14.1607L20.2269 0.365417L25.7084 0.365417L25.7084 23.8408L22.0263 23.8408L22.0263 8.27942C22.0263 7.5907 22.0374 6.89929 22.0596 6.20514C22.0818 5.51099 22.1041 4.81396 22.1263 4.11414C21.8708 4.82507 21.6597 5.40546 21.4931 5.85522C21.3265 6.30499 20.9599 7.25745 20.3931 8.71265L14.4451 23.8408L11.3795 23.8408L5.2149 8.5293C4.55957 6.87433 4.01535 5.40259 3.58221 4.11407C3.6044 4.8028 3.62384 5.4859 3.6405 6.16339C3.65717 6.84088 3.6655 7.52399 3.6655 8.21271L3.6655 23.8408L0 23.8408L0 0.365417L5.51523 0.365417Z" id="形状" fill="#000000" stroke="none" />
    </g>
    <path d="M368.763 524.248C370.949 529.614 369.755 535.765 365.721 539.924C361.3 544.464 354.357 545.414 348.879 542.228L345 546.557L347.767 549.395L349.421 547.705C349.823 547.291 350.375 547.057 350.952 547.057C351.53 547.057 352.082 547.291 352.484 547.705L365.902 561.551C366.748 562.422 366.748 563.808 365.902 564.679L359.776 570.937C359.375 571.351 358.822 571.585 358.245 571.585C357.668 571.585 357.116 571.351 356.714 570.937L343.296 557.091C342.451 556.22 342.451 554.834 343.296 553.963L344.807 552.42L342.168 549.718L323.61 570.428C322.807 571.257 321.702 571.725 320.548 571.725C319.393 571.725 318.288 571.257 317.485 570.428L315.954 568.864C314.262 567.121 314.262 564.349 315.954 562.606L337.094 544.519L323.053 530.138L318.62 530.136L313.491 521.707L317.623 517.481L326.061 522.755L326.118 527.192L340.32 541.758L344.453 538.222C340.342 532.499 340.915 524.654 345.814 519.588C349.777 515.503 355.835 514.256 361.089 516.443L351.989 525.611L359.645 533.433L368.763 524.248ZM321.038 564.811C320.636 564.397 320.083 564.163 319.506 564.163C318.929 564.163 318.377 564.397 317.975 564.811C317.13 565.684 317.13 567.069 317.975 567.941C318.377 568.356 318.929 568.589 319.506 568.589C320.083 568.589 320.636 568.356 321.038 567.941C321.884 567.07 321.884 565.683 321.038 564.811L321.038 564.811Z" id="形状" fill="#000000" fill-rule="evenodd" stroke="none" />
    <path d="M559.102 195.964C554.079 206.006 549.599 216.311 545.68 226.833C538.281 246.828 532.886 267.509 529.574 288.571C526.974 304.998 525.628 321.599 525.548 338.23L440.993 338.23L479.915 194.622C468.731 158.831 457.546 123.041 446.362 87.2508L506.758 64.4352L529.574 157.043L674.525 30.8813L726.869 89.9353L559.102 195.964Z" id="形状-小路" fill="#FFFFFF" stroke="none" />
    <path d="M529.575 157.042L506.758 64.4352L446.362 87.2515C457.546 123.042 468.731 158.832 479.915 194.622C474.994 211.623 470.073 228.623 465.152 245.624L540.312 245.624L559.102 195.965L726.869 89.9352L674.525 30.8812L529.575 157.042Z" id="形状" fill="#7CC164" stroke="none" />
    <path d="M302.754 264.413C305.7 260.269 311.871 263.045 333.623 263.071C356.302 263.098 362.657 260.096 365.834 264.413C371.017 271.457 355.929 281.942 356.439 301.993C356.939 321.635 371.925 331.459 367.176 338.231C364.252 342.401 357.923 339.598 336.307 339.573C313.77 339.546 307.256 342.577 304.096 338.231C299.117 331.382 313.563 321.488 313.491 301.993C313.416 281.774 297.801 271.377 302.754 264.413L302.754 264.413Z" id="形状-小路" fill="#FFFFFF" stroke="none" />
    <path d="M132.302 268.439C122.375 269.744 99.543 271.306 75.9323 259.044C44.4153 242.677 25.7553 209.073 24.9311 175.832C24.2327 147.663 36.5168 126.791 42.3789 118.12L78.6168 202.675L176.593 161.069L141.697 76.5144C165.739 80.9994 180.437 91.9515 187.33 97.9886C223.975 130.086 229.994 189.695 210.146 218.781C209.894 219.151 201.925 228.869 185.988 248.308L224.91 338.23L160.487 338.23L132.302 268.439Z" id="形状-小路" fill="#FFFFFF" stroke="none" />
  </g>
</svg>