<?xml version="1.0" encoding="utf-8"?>
<svg width="1000px" height="1000px" viewBox="0 0 1000 1000" version="1.1" xmlns:xlink="http://www.w3.org/1999/xlink" xmlns="http://www.w3.org/2000/svg">
  <path d="M0 500C0 223.858 223.858 0 500 0C776.142 0 1000 223.858 1000 500C1000 776.142 776.142 1000 500 1000C223.858 1000 0 776.142 0 500Z" id="椭圆" fill="none" fill-rule="evenodd" stroke="none" />
  <g id="编组" transform="translate(149.99998 150.508)">
    <path d="M700 12.527C700 12.527 583.636 -23.9388 499.54 27.5624C415.445 79.0637 389.285 142.834 389.285 142.834C389.285 142.834 133.063 127.798 38.4691 348.317C-56.1249 568.836 53.5039 699.143 53.5039 699.143C53.5039 699.143 120.158 710.901 208.864 608.91C285.527 520.765 302.831 464.331 344.178 333.276C385.524 202.22 409.33 167.893 409.33 167.893C409.33 167.893 453.182 164.134 504.551 187.94C555.921 211.746 614.808 263.116 614.808 263.116C614.808 263.116 602.029 228.034 604.784 142.834C607.54 57.6338 700 12.527 700 12.527Z" id="轮廓" fill="#000000" fill-rule="evenodd" stroke="none" />
    <path d="M639.863 22.5499C639.863 22.5499 599.269 59.8865 584.735 102.736C570.201 145.585 579.724 207.98 579.724 207.98C579.724 207.98 535.371 171.896 489.514 157.864C443.658 143.831 419.352 142.829 419.352 142.829C419.352 142.829 450.674 72.0397 519.584 42.5964C588.494 13.153 639.863 22.5499 639.863 22.5499Z" id="尾" fill="#3597C7" fill-rule="evenodd" stroke="none" />
    <path d="M379.259 167.887C379.259 167.887 312.255 349.341 284.038 433.506C255.821 517.672 199.467 591.682 153.736 628.956C108.005 666.231 63.5269 679.076 63.5269 679.076C63.5269 679.076 37.2159 627.709 28.4455 568.822C19.6752 509.936 28.4455 443.53 28.4455 443.53C28.4455 443.53 42.6191 519.659 138.701 518.704C234.783 517.749 258.98 453.552 258.98 453.552C258.98 453.552 176.288 509.934 123.666 498.658C71.0443 487.381 48.492 441.291 48.492 408.447C48.492 375.604 67.4421 320.9 158.748 238.05C250.053 155.201 379.259 167.887 379.259 167.887Z" id="身" fill="#3597C7" fill-rule="evenodd" stroke="none" />
    <path d="M53.5036 558.793C53.5036 544.954 64.7225 533.735 78.5617 533.735C92.4009 533.735 103.62 544.954 103.62 558.793C103.62 572.632 92.4009 583.851 78.5617 583.851C64.7225 583.851 53.5036 572.632 53.5036 558.793Z" id="眼" fill="#000000" fill-rule="evenodd" stroke="none" />
  </g>
</svg>