<svg id="图层_1" data-name="图层 1" xmlns="http://www.w3.org/2000/svg" viewBox="0 0 1000 1000"><title>NASA</title><path d="M782.6783,499.9961c0,169.9115-139.9693,309.7493-310.0438,309.7493S162.5881,669.9075,162.5881,499.9961c0-169.9036,139.9719-309.7415,310.0464-309.7415,170.0693,0,310.0438,139.8405,310.0438,309.7415" style="fill:#0066b2"/><path d="M542.5705,663.0162c132.0921,54.3471,109.5671-83.0587,38.85-188.6371-40.0044-59.745-92.19-109.504-125.1061-133.5224C346.7476,260.8979,279.922,309.8,356.8492,466.6148c24.9177,50.7976,56.9238,85.0754,81.9334,117.3944,19.0833,24.6652,56.2743,37.0228,43.1753,48.7283-14.766,13.21-50.511-45.021-50.511-45.021-26.4163-31.83-51.5758-65.8159-77.5083-112.42-59.2559-106.4961-50.7055-215.18,56.532-167.8212,91.01,40.191,177.9413,152.929,212.9027,232.9851,16.2068,37.11,59.84,183.1025-80.0219,124.1121" style="fill:#fff"/><path d="M130.6477,591.8234c58.2831-38.8159,113.5241-63.8808,207.5521-94.93,132.1131-43.63,231.5653-72.9728,353.5636-134.3006,59.4084-29.8632,147.21-87.6862,182.6056-143.6161-10.1332,20.7187-40.9246,62.1192-55.17,79.9588-165.5206,207.2708-518.1218,195.5259-686.23,295.0491" style="fill:#ec1c24"/><path d="M215.184,440.3247c53.08.4154,48.1052-.1051,48.7257.518.936,0,42.5811,71.7265,42.5811,72.3444,0,.3155-.3129-25.48-.3129-57.752,0-3.7256-10.2515-14.5924-9.9413-14.5924,15.2288,0,35.1219.31,35.1219.31-7.454,8.695-8.9448,7.9772-9.0106,13.3567-.2156,17.2822-.4075,49.2148,0,85.0833.0553,5.3689,4.036,7.4566,10.5645,16.7616H284.1131c-15.8545-26.3927-44.8975-75.9019-44.7608-75.7651.2262.2314-.6257,31.0543.3077,55.9009.3128,8.2034,4.0438,10.8668,10.8825,18.3155,0,0,7.8747-.21-38.2349.31,13.9878-7.454,12.1315-16.7695,12.1236-17.0771-.5048-34.3146-.1025-63.6574-.1025-82.6013,0-3.1051-.21-2.7922-9.844-14.5924m167.3795,52.47c4.47-15.5443,8.2979-29.4426,10.1043-38.5.3181-1.5565-3.4155-7.1411-9.3182-12.7335l-.4207-.8572c28.48.0868,58.2279.2393,58.2279.2393,7.7721,18.9413,25.4881,72.0394,38.8527,104.6477,3.5364,8.6213,9.6337,10.2436,9.6337,10.2436-24.2471-.31-69.2393-.11-68.9974-.31,12.1184-10.8588,10.5645-10.8588,5.28-26.7055H387.3068c-7.7748,18.0184,2.4189,26.4715,3.7256,26.3979-8.6319.447-37.9193,0-37.9193,0,15.8519-11.177,14.9211-14.5977,14.9211-14.5977,4.3594-15.4917,9.41-32.4558,13.83-47.8239l15.5469.0053-6.6863,21.4207H420.88l-16.7853-42.8519-6.6836,21.4259H381.8642m260.4688,1.554c4.4724-15.5417,8.298-29.44,10.1122-38.5005.3077-1.5539-3.41-7.1463-9.3181-12.7335l-.4181-.8651c28.483.0894,58.2253.2446,58.2253.2446,7.7721,18.9413,25.4829,72.0315,38.85,104.645,3.5443,8.6267,9.6442,10.2463,9.6442,10.2463-24.2445-.3024-69.2393-.1026-69.0027-.3129,12.121-10.8694,10.5644-10.8694,5.28-26.7h-37.922c-7.7669,18.0183,2.4242,26.4583,3.7283,26.39-8.624.4443-37.9194,0-37.9194,0,15.8519-11.1744,14.9211-14.59,14.9211-14.59,4.3515-15.4916,9.4023-32.4609,13.8195-47.8238l15.55.0053-6.681,21.4206h30.1447l-16.7774-42.8492L657.88,494.869H642.333m-48.9412-25.4566c-.6232-22.0518,0-29.1928,0-29.1928-9.6284,7.7642-4.7748,6.7782-28.9063,2.7922-69.6283-11.49-74.9105,53.4058-36.9859,68.0062,31.7695,12.2235,43.0043,14.6214,38.23,26.08-1.5513,3.7283-30.46,17.39-60.3024-10.241l.6179,38.5c3.7283-3.8413,13.993-10.872,13.993-10.872.3129,0,32.3348,14.1139,61.2305-.6179,44.45-22.6748,22.2673-59.3505-25.1753-73.9062-39.4759-12.1078-2.18-40.3672,36.9912-10.2436" style="fill:#fff"/><path d="M875,220.0863C827.7493,360.2607,638.46,468.49,479.1236,571.8409c-96.1341,62.348-191.5662,134.1219-257.2691,195.192-17.3243,16.1069,3.539-6.0132-3.1025.7782,91.688-105.5758,197.1586-168.45,255.4338-208.0438,98.5793-66.9623,154.6354-83.8343,324.6731-240.4811" style="fill:#ec1c24"/><path d="M542.5705,663.0162c132.0921,54.3471,109.5671-83.0587,38.85-188.6371-40.0044-59.745-89.3637-107.13-125.1061-133.5224-41.7528-30.8256-45.844-33.3786-45.844-33.3786,93.2445,44.2454,177.9413,152.929,212.9027,232.9851,16.2068,37.11,59.84,183.1025-80.0219,124.1122M476.91,218.3957a2.5254,2.5254,0,1,1-2.532-2.5241,2.5406,2.5406,0,0,1,2.532,2.5241m17.4794,38.23a3.1091,3.1091,0,1,1-3.11-3.1025,3.1289,3.1289,0,0,1,3.11,3.1025m45.4628,62.4926a3.11,3.11,0,1,1-3.1157-3.1052,3.129,3.129,0,0,1,3.1157,3.1052M466.808,278.167a2.5267,2.5267,0,1,1-2.5293-2.5189,2.54,2.54,0,0,1,2.5293,2.5189m27.1894,14.3637a2.5228,2.5228,0,1,1-2.5189-2.5241,2.5321,2.5321,0,0,1,2.5189,2.5241M458.6442,252.358a3.11,3.11,0,1,1-3.1105-3.1025,3.12,3.12,0,0,1,3.1105,3.1025m-41.1823,25.036a2.5268,2.5268,0,1,1-2.5268-2.5215,2.5372,2.5372,0,0,1,2.5268,2.5215m7.38,5.0455a2.5254,2.5254,0,1,1-2.5214-2.5214,2.5346,2.5346,0,0,1,2.5214,2.5214m7.3857,5.0456a2.5255,2.5255,0,1,1-2.5268-2.5267,2.5348,2.5348,0,0,1,2.5268,2.5267m-11.2691,9.702a2.5228,2.5228,0,1,1-2.5215-2.5214,2.5321,2.5321,0,0,1,2.5215,2.5214M362.2918,338.33a2.5228,2.5228,0,1,1-2.5241-2.5215,2.5372,2.5372,0,0,1,2.5241,2.5215m10.8826,13.1989a2.5268,2.5268,0,1,1-2.5294-2.5241,2.5373,2.5373,0,0,1,2.5294,2.5241m-8.5556,213.0947a2.5189,2.5189,0,1,1-2.5189-2.5215,2.5379,2.5379,0,0,1,2.5189,2.5215m1.5591,58.801a3.1091,3.1091,0,1,1-3.11-3.1051,3.1246,3.1246,0,0,1,3.11,3.1051M332.76,653.5088a2.5241,2.5241,0,1,1-2.5214-2.5215,2.5372,2.5372,0,0,1,2.5214,2.5215M292.74,665.74a3.1078,3.1078,0,1,1-3.1025-3.1078A3.1219,3.1219,0,0,1,292.74,665.74m-8.1534-27.1788a3.1091,3.1091,0,1,1-3.11-3.11,3.1253,3.1253,0,0,1,3.11,3.11m-4.6617,17.277a2.5254,2.5254,0,1,1-2.5293-2.5189,2.5377,2.5377,0,0,1,2.5293,2.5189m-29.9158-14.3611a2.5255,2.5255,0,1,1-2.5268-2.5189,2.5372,2.5372,0,0,1,2.5268,2.5189M354.52,689.9952a2.5241,2.5241,0,1,1-2.5267-2.5241,2.5372,2.5372,0,0,1,2.5267,2.5241m31.4724-23.0929a3.1078,3.1078,0,1,1-3.1078-3.11,3.1156,3.1156,0,0,1,3.1078,3.11m3.4943,29.6871a2.5241,2.5241,0,1,1-2.5267-2.5214,2.5424,2.5424,0,0,1,2.5267,2.5214m129.3865-28.3278a2.5241,2.5241,0,1,1-2.5241-2.5241,2.5373,2.5373,0,0,1,2.5241,2.5241m-60.2287,21.3471a2.5268,2.5268,0,1,1-2.5241-2.5294,2.5373,2.5373,0,0,1,2.5241,2.5294m162.021,30.6678a2.5241,2.5241,0,1,1-2.5241-2.5241,2.5347,2.5347,0,0,1,2.5241,2.5241" style="fill:#fff"/><path d="M633.8773,600.9181a3.1118,3.1118,0,1,1-3.1078-3.1157,3.123,3.123,0,0,1,3.1078,3.1157m-24.8782,16.8825a2.5189,2.5189,0,1,1-2.5109-2.5267,2.5216,2.5216,0,0,1,2.5109,2.5267m24.4917,4.851a3.1157,3.1157,0,1,1-3.1131-3.1025,3.1354,3.1354,0,0,1,3.1131,3.1025m-24.4917,30.0736a2.5189,2.5189,0,1,1-2.5109-2.5188,2.5242,2.5242,0,0,1,2.5109,2.5188m63.3366-68.6923a2.5242,2.5242,0,1,1-2.5241-2.5242,2.532,2.532,0,0,1,2.5241,2.5242m6.2155,15.3286a3.1091,3.1091,0,1,1-3.1025-3.1025,3.1234,3.1234,0,0,1,3.1025,3.1025m43.525,18.2472a3.1091,3.1091,0,1,1-3.1156-3.1052,3.11,3.11,0,0,1,3.1156,3.1052m-44.2981,32.4084a2.5267,2.5267,0,1,1-2.5293-2.5215,2.5371,2.5371,0,0,1,2.5293,2.5215m27.9729-26.3953A2.5228,2.5228,0,1,1,703.23,621.1a2.5373,2.5373,0,0,1,2.5215,2.5214m-5.0482,40.7511a2.5281,2.5281,0,1,1-2.5268-2.5214,2.5426,2.5426,0,0,1,2.5268,2.5214m11.7581-67.7274a3.8874,3.8874,0,1,1-3.8913-3.8808,3.9057,3.9057,0,0,1,3.8913,3.8808" style="fill:#fff"/><path d="M708.57,584.8006l-1.1648,10.68-10.5881,1.1647,10.688,1.1569,1.1674,11.0693,1.16-11.0693,10.496-1.3462-10.5933-.9754-1.1648-10.68m-23.3085,79.383a3.8874,3.8874,0,1,1-3.8914-3.8887,3.9052,3.9052,0,0,1,3.8914,3.8887" style="fill:#fff"/><path d="M681.3672,652.344l-1.1542,10.6722-10.5881,1.1674,10.6722,1.1674,1.1674,11.0561,1.1727-11.0561,10.4934-1.3646-10.5933-.97-1.17-10.6722M395.418,343.5727a3.89,3.89,0,1,1-3.8939-3.8808,3.9062,3.9062,0,0,1,3.8939,3.8808" style="fill:#fff"/><path d="M391.5241,331.7358l-1.1622,10.6722-10.5854,1.1648,10.6775,1.1621,1.1674,11.064,1.1674-11.064,10.4908-1.3567-10.5881-.97-1.1674-10.6722m148.4224-82.0912a3.8874,3.8874,0,1,1-3.8887-3.886,3.9085,3.9085,0,0,1,3.8887,3.886" style="fill:#fff"/><path d="M536.0578,237.805l-1.1621,10.6722-10.5829,1.1674,10.6775,1.16,1.1727,11.064,1.1621-11.064,10.4934-1.3593-10.588-.9676-1.1727-10.6722M364.3269,726.29a3.8821,3.8821,0,1,1-3.8808-3.886,3.8972,3.8972,0,0,1,3.8808,3.886" style="fill:#fff"/><path d="M360.4461,714.4527l-1.1674,10.6722L348.6933,726.29l10.6827,1.16,1.1674,11.0666,1.1621-11.0666,10.4961-1.3541-10.5934-.97-1.1621-10.6722" style="fill:#fff"/><path d="M170.0657,567.3712c-16.9693,8.3032-32.1691,16.5065-45.0657,24.5153l7.8431,2.8449A345.5388,345.5388,0,0,1,171.93,574.16m87.72,150.063q-24.2169,21.1169-47.624,43.1359l-.7126,10.6985c14.7266-15.1683,32.8081-31.5486,53.6872-48.9281" style="fill:#ec1c24"/><rect width="1000" height="1000" style="fill:none"/></svg>