<svg id="图层_1" data-name="图层 1" xmlns="http://www.w3.org/2000/svg" viewBox="0 0 1000 1000"><title>Nowcoder</title><rect width="1000" height="1000" style="fill:#31363d;isolation:isolate"/><rect x="404.1458" y="464.8955" width="136.2139" height="28.5881" rx="14.294" style="fill:#fff"/><rect x="404.1458" y="543.0924" width="68.107" height="28.5881" rx="14.294" style="fill:#fff"/><rect x="404.1458" y="621.2892" width="58.017" height="28.5881" rx="14.294" style="fill:#fff"/><rect x="384.3863" y="318.5917" width="29.4289" height="79.0377" rx="14.7145" style="fill:#fff"/><rect x="452.4933" y="318.5917" width="29.4289" height="79.0377" rx="14.7145" style="fill:#fff"/><polygon points="646.322 428.758 491.405 583.676 489.91 585.134 481.502 622.971 517.244 612.165 517.388 612.309 673.631 456.067 646.322 428.758" style="fill:#fe5000;isolation:isolate"/><rect x="520.6003" y="318.5917" width="29.4289" height="79.0377" rx="14.7145" style="fill:#fff"/><rect x="588.7072" y="318.5917" width="29.4289" height="79.0377" rx="14.7145" style="fill:#fff"/><path d="M660.258,340.4532H341.4237a13.8336,13.8336,0,0,0-13.7931,13.7931v387.782a13.8337,13.8337,0,0,0,13.7931,13.7932H660.258a13.8337,13.8337,0,0,0,13.7931-13.7932V354.2463A13.8337,13.8337,0,0,0,660.258,340.4532ZM645.463,712.5994A13.8337,13.8337,0,0,1,631.67,726.3926H370.0118a13.8337,13.8337,0,0,1-13.7931-13.7932V383.6752a13.8336,13.8336,0,0,1,13.7931-13.7931H631.67a13.8337,13.8337,0,0,1,13.7931,13.7931Z" style="fill:#fff"/><path d="M270.7135,416.6133l-163.12,93.3318a12.92,12.92,0,0,0,0,23.5431l163.12,94.1726c8.55,3.4887,18.1732.4483,22.7023-6.7266a18.3464,18.3464,0,0,0-.8408-20.18L158.8836,522.5575l131.1689-75.6744a18.1536,18.1536,0,0,0-19.339-30.27Z" style="fill:#fe5000"/><path d="M729.2865,416.6133l163.12,93.3318a12.92,12.92,0,0,1,0,23.5431l-163.12,94.1726c-8.55,3.4887-18.1732.4483-22.7023-6.7266a18.3464,18.3464,0,0,1,.8408-20.18l133.6914-78.1968L709.9475,446.8831a18.1536,18.1536,0,0,1,19.339-30.27Z" style="fill:#fe5000"/><path d="M728.0819,364.4167a94.5349,94.5349,0,0,0,31.9514-32.7922,97.816,97.816,0,0,0,12.6124-42.8822c1.4025-25.2683-7.7693-41.0828-8.4082-42.0413l-1.6817-2.5225h0a110.5541,110.5541,0,0,1,17.985,10.26,118.6046,118.6046,0,0,1,30.783,32.6217c25.8487,41.16,15.5016,87.5175,13.4532,96.695a140.3362,140.3362,0,0,1-10.9308,31.1106Z" style="fill:#fff"/><path d="M273.6,364.4167a94.5358,94.5358,0,0,1-31.9514-32.7922,97.8175,97.8175,0,0,1-12.6124-42.8822c-1.4025-25.2683,7.7693-41.0828,8.4083-42.0413l1.6816-2.5225h0a110.5539,110.5539,0,0,0-17.9849,10.26,118.6015,118.6015,0,0,0-30.783,32.6217c-25.8488,41.16-15.5017,87.5175-13.4532,96.695a140.3318,140.3318,0,0,0,10.9307,31.1106Z" style="fill:#fff"/></svg>