<?xml version="1.0" encoding="utf-8"?>
<svg width="1000px" height="1000px" viewBox="0 0 1000 1000" version="1.1" xmlns:xlink="http://www.w3.org/1999/xlink" xmlns="http://www.w3.org/2000/svg">
  <g id="OneDrive">
    <path d="M0 0L1000 0L1000 1000L0 1000L0 0Z" id="矩形" fill="none" fill-rule="evenodd" stroke="none" />
    <g id="OneDrive" transform="translate(100 244)">
      <path d="M638.634 342.136L597.134 317.285L502.007 260.285L473.007 242.934L396.431 275.135L249.854 336.836L183.978 364.536L35.8755 426.862C73.2398 480.577 134.545 512.584 199.978 512.538L637.484 512.538C697.256 512.56 752.212 479.758 780.561 427.137L638.634 342.136Z" id="形状" fill="#28A8EA" stroke="none" />
      <path d="M648.459 187.934C644.806 187.678 641.146 187.545 637.484 187.534C615.333 187.515 593.414 192.042 573.083 200.834L472.981 242.934L502.007 260.31L597.133 317.285L638.634 342.136L780.561 427.137C806.765 378.495 806.459 319.872 779.749 271.506C753.039 223.141 703.584 191.66 648.459 187.934L648.459 187.934Z" id="形状" fill="#1490DF" stroke="none" />
      <path d="M305.054 142.333C273.494 122.794 237.097 112.472 199.978 112.532L197.428 112.607C123.402 113.533 55.9479 155.289 22.1088 221.134C-11.7304 286.979 -6.41442 366.133 35.9255 426.862L183.978 364.536L249.829 336.836L396.406 275.135L472.957 242.934L305.054 142.333Z" id="形状" fill="#0078D4" stroke="none" />
      <path d="M305.029 142.358L305.029 142.333L472.982 242.934L573.058 200.809C593.399 192.022 615.327 187.504 637.484 187.533C641.184 187.533 644.834 187.708 648.46 187.933C623.886 92.0706 545.079 19.7258 447.468 3.42401C349.858 -12.8778 251.819 29.9323 197.428 112.607L199.978 112.532C237.091 112.484 273.479 122.815 305.029 142.358L305.029 142.358Z" id="形状" fill="#0364B8" stroke="none" />
    </g>
  </g>
</svg>