<svg id="图层_1" data-name="图层 1" xmlns="http://www.w3.org/2000/svg" viewBox="0 0 1000 1000"><title>Ostagram</title><circle cx="500" cy="500" r="500" style="fill:none;opacity:0.19"/><path d="M508.0759,239.5991v31.1514c117.1481,4.424,210.7655,100.7724,210.7655,219.0029a218.77,218.77,0,0,1-12.8007,73.9443l25.9862,19.2656a249.5973,249.5973,0,0,0,17.9455-93.21C749.9724,354.328,642.4213,244.0386,508.0759,239.5991Z"/><path d="M280.4828,489.7534a219.1111,219.1111,0,0,1,113.264-191.92l-12.482-28.6624a250.5253,250.5253,0,0,0-115.136,310.8045l29.0606-11.14A218.6216,218.6216,0,0,1,280.4828,489.7534Z"/><path d="M651.2931,647.9937A219.1768,219.1768,0,0,1,372.525,668.3079L326.18,670.1805a250.2622,250.2622,0,0,0,357.937-11.2457Z"/><path d="M505.5517,307.1741c-19.0006-19.521-26.102-30.9573-26.9241-44.5931a48.8358,48.8358,0,0,1,1.6827-15.1448c3.5367-15.1128,9.0413-37.8461,16.8276-67.31A166.2864,166.2864,0,0,0,467.69,238.181,227.4693,227.4693,0,0,1,455.91,154.0431a220.8033,220.8033,0,0,1,3.3656-28.6069A320.4577,320.4577,0,0,0,431.51,270.1534a372.3493,372.3493,0,0,1-30.29-85.8206,189.6281,189.6281,0,0,0,2.5241,58.8965c10.537,51.6229,40.8784,86.0836,81.6138,131.2552a665.3812,665.3812,0,0,0,67.31,64.7862v-90.869A395.3248,395.3248,0,0,1,505.5517,307.1741Z"/><path d="M430.669,351.7672a143.4709,143.4709,0,0,0-64.7862,61.4207H483.6759Z"/><path d="M357.469,432.54h88.3448l-94.6552,94.6551a150.4743,150.4743,0,0,1-4.6276-30.71A154.1734,154.1734,0,0,1,357.469,432.54Z"/><circle cx="495.8759" cy="489.3328" r="45.4345"/><path d="M344.0069,562.9534c-40.9235,32.5013-53.386,39.2016-68.9931,39.5449-32.2942.71-56.9848-26.2609-66.469-37.8621a77.8136,77.8136,0,0,0,21.8759,37.0207L169,573.05a195.1907,195.1907,0,0,0,39.5448,35.3379,197.2494,197.2494,0,0,0,74.8828,30.29A94.1142,94.1142,0,0,0,248.09,675.6983a125.7821,125.7821,0,0,1,38.7034-24.4c24.26-9.545,40.4191-6.6509,68.1517-10.938a234.4244,234.4244,0,0,0,64.7862-20.1931V499.0086C389.5726,526.043,363.4593,547.5045,344.0069,562.9534Z"/><path d="M439.9241,539.3948v90.0276A157.3474,157.3474,0,0,0,535,635.3121Z"/><path d="M571.1793,357.6569V477.1328L632.6,425.8086a145.9756,145.9756,0,0,0-61.4207-68.1517Z"/><path d="M546.7793,544.4431,641.8552,451.05a135.7092,135.7092,0,0,1-5.0483,93.3931Z"/><path d="M729.3586,648.7741,779,684.9534c-8.0854-18.4753-26.7936-54.2716-65.6276-83.2965-12.5206-9.358-36.9465-27.2363-72.3586-34.4966-12.7413-2.6122-20.4606-2.5292-115.269-2.5241H508.0759L561.0828,627.74c12.931-4.7389,67.8973-23.2328,125.3655,3.3655a156.6264,156.6264,0,0,1,56.3724,44.5931,43.9163,43.9163,0,0,0-13.4621-26.9242Z"/></svg>