<svg id="图层_1" data-name="图层 1" xmlns="http://www.w3.org/2000/svg" viewBox="0 0 1000 1000"><title>PDFpai</title><rect width="1000" height="1000" style="fill:none"/><path d="M322.1429,224.3062H653.2143c9.9566,4.1682,32.66,15.3093,48.2143,40.1786,15.1453,24.2151,15.0637,47.936,15,66.4286-.0469,13.6149-.48,41.1959-17.1429,70.7143a133.6761,133.6761,0,0,1-36.4286,41.25H515v91.0714H692.8571v56.7857H515v150a194.7367,194.7367,0,0,0,72.8571-14.4643c13.7409-5.694,54.2208-24.4275,106.0715-98.5714,60.8006-86.942,53.1042-129.77,107.1428-171.4286C828.5076,435.12,856.7877,425.8875,875,421.4491v99.6428c-36.736,69.87-79.61,116.4137-109.2857,144.1072-42.0419,39.2335-78.4355,60.0829-87.8572,65.3571-23.4207,13.1109-55.0052,30.5642-99.6428,39.6429-28.93,5.8839-50.6949,5.6929-88.9286,5.3571-32.13-.2821-65.0369-.5711-94.2857-6.4285-62.9634-12.6094-104.3583-50.0993-142.5-84.6429-61.7762-55.9485-122.5788-140.4856-125.3571-202.5,0,0-.0156-.3469-2.1429-60.5357a138.9917,138.9917,0,0,1,47.1429,13.3928c42.1758,20.8067,57.0847,54.43,101.7857,131.7858,61.1834,105.8791,82.3292,126.6212,105,141.4285,29.22,19.0852,58.3761,26.6144,78.2143,30q.926-78.8106,0-160.7143-1.2153-103.43-5.3572-201.9642H630.7143a74.6133,74.6133,0,0,0,2.1428-86.7858H384.2857V575.7348H323.2143Z" style="fill:#2674db;isolation:isolate"/></svg>