<?xml version="1.0" encoding="utf-8"?>
<svg width="1000px" height="1000px" viewBox="0 0 1000 1000" version="1.1" xmlns:xlink="http://www.w3.org/1999/xlink" xmlns="http://www.w3.org/2000/svg">
  <defs>
    <linearGradient gradientUnits="objectBoundingBox" x1="0.33881396" y1="0.09228839" x2="1" y2="0.6990595" id="gradient_1">
      <stop offset="0%" stop-color="#FB931D" />
      <stop offset="100%" stop-color="#FF2B00" />
    </linearGradient>
    <linearGradient gradientUnits="objectBoundingBox" x1="0.0726408" y1="0.15258284" x2="0.8826572" y2="0.89403975" id="gradient_2">
      <stop offset="0%" stop-color="#E98C1F" />
      <stop offset="100%" stop-color="#FD4A0B" />
    </linearGradient>
    <linearGradient gradientUnits="objectBoundingBox" x1="0" y1="0" x2="1.206679" y2="0.83663166" id="gradient_3">
      <stop offset="0%" stop-color="#FC951D" />
      <stop offset="100%" stop-color="#FE2A04" />
    </linearGradient>
  </defs>
  <path d="M0 0L1000 0L1000 1000L0 1000L0 0Z" id="矩形" fill="none" fill-rule="evenodd" stroke="none" />
  <g id="编组" transform="translate(187.46562 108)">
    <path d="M390.599 515.79C390.599 515.79 499.66 430.636 548.493 414.737C595.628 399.391 626.388 425.263 626.388 425.263C626.388 425.263 619.019 421.579 580.072 442.105C541.125 462.632 517.967 488.947 470.598 507.368C423.23 525.79 390.599 515.79 390.599 515.79Z" id="right-3" fill="#FE2D05" fill-rule="evenodd" stroke="none" />
    <path d="M441.125 400C441.125 400 434.809 428.947 424.283 452.631C413.756 476.315 399.02 494.737 399.02 494.737C399.02 494.737 539.086 408.181 588.493 338.947C620.493 294.105 601.125 221.053 601.125 221.053C601.125 221.053 589.546 260.526 549.546 305.263C509.546 350 441.125 400 441.125 400Z" id="right-2" fill="#FE3206" fill-rule="evenodd" stroke="none" />
    <path d="M432.704 305.265C432.704 305.265 438.493 320.527 441.125 341.052C443.756 361.578 443.23 387.368 443.23 387.368C443.23 387.368 543.156 314.933 575.862 227.37C631.468 78.4932 544.283 0 544.283 0C544.283 0 576.388 79.4743 548.493 155.791C520.599 232.107 432.704 305.265 432.704 305.265Z" id="right-1" fill="#FE4009" fill-rule="evenodd" stroke="none" />
    <path d="M356.919 717.894C356.919 717.894 335.077 661.842 342.181 625.263C349.286 588.684 347.134 573.487 380.072 511.579C413.011 449.671 421.08 418.882 426.391 391.579C431.621 364.684 427.398 305.684 392.705 265.263C379.388 249.747 371.656 225.263 371.656 225.263C371.656 225.263 379.107 216.905 388.495 197.895C397.884 178.884 397.273 168.52 403.232 168.421C414.506 168.233 424.289 172.632 424.289 172.632C424.289 172.632 413.966 149.474 396.92 149.474C379.874 149.474 365.34 176.842 365.34 176.842C365.34 176.842 349.025 174.737 333.761 191.579C318.496 208.421 320.289 236.789 304.284 244.21C299.313 246.516 285.339 242.105 285.339 242.105C285.339 242.105 290.413 257.242 308.496 261.053C319.323 263.334 325.339 261.053 325.339 261.053L314.813 269.474L329.55 269.474L319.023 275.79L335.866 275.79L325.339 282.105L337.971 282.105C337.971 282.105 358.367 287.237 356.919 317.895C356.121 334.792 344.287 349.474 344.287 349.474C344.287 349.474 343.996 319.896 316.917 290.526C280.491 251.016 253.346 240.349 199.02 185.263C137.606 122.991 180.073 46.3158 180.073 46.3158C180.073 46.3158 136.856 75.7496 137.967 136.842C138.667 175.346 149.596 209.612 203.231 250.526C234.151 274.114 298.33 312.338 319.023 385.263C336.366 446.378 311.458 485.245 302.181 568.421C289.76 679.79 356.919 717.894 356.919 717.894Z" id="body" fill="url(#gradient_1)" fill-rule="evenodd" stroke="none" />
    <path d="M241.128 423.158C241.128 423.158 241.376 398.713 213.76 368.421C192.423 345.018 126.103 315.076 74.8102 265.263C14.9577 207.138 26.3885 105.263 26.3885 105.263C26.3885 105.263 -6.4121 151.343 1.12507 214.737C9.61191 286.118 71.314 353.521 123.232 368.421C190.728 387.792 241.128 423.158 241.128 423.158Z" id="left-2" fill="url(#gradient_2)" fill-rule="evenodd" stroke="none" />
    <path d="M279.021 800C279.021 800 308.757 777.369 310.599 728.422C312.443 679.475 286.389 678.159 286.389 604.211C286.389 530.265 314.201 503.106 310.599 432.632C309.677 414.584 306.601 382.958 294.81 361.053C276.268 326.605 254.336 308.43 196.915 265.264C130.33 215.207 101.652 165.263 97.9674 110.527C94.2832 55.7896 131.652 0 131.652 0C131.652 0 70.3358 50.0003 61.1252 110.527C51.9147 171.053 73.4094 203.989 94.8095 242.105C116.21 280.221 181.934 317.557 226.389 358.947C261.271 391.425 253.757 454.738 253.757 454.738C253.757 454.738 236.863 431.949 188.494 412.632C140.125 393.316 125.599 394.211 86.3884 371.579C47.1778 348.947 30.5987 324.21 30.5987 324.21C30.5987 324.21 43.4936 379.211 73.7568 412.632C104.02 446.054 173.526 459.591 209.547 491.579C244.44 522.566 232.55 574.743 241.125 631.579C246.546 667.515 284.323 707.032 289.546 743.158C294.172 775.155 279.021 800 279.021 800Z" id="left-1" fill="url(#gradient_3)" fill-rule="evenodd" stroke="none" />
    <path d="M350.599 191.579C350.599 191.579 354.066 198.842 350.599 202.105C344.377 207.961 335.862 210.526 335.862 210.526L350.599 191.579Z" id="eye" fill="#FFFFFF" fill-rule="evenodd" stroke="none" />
  </g>
</svg>