<svg id="图层_1" data-name="图层 1" xmlns="http://www.w3.org/2000/svg" viewBox="0 0 1415 1415"><title>Picdie</title><circle cx="707.5" cy="707.5" r="707.5" style="fill:none"/><polygon points="1207.5 348.921 1107.5 448.921 1107.5 1107.5 448.921 1107.5 348.921 1207.5 1207.5 1207.5 1207.5 348.921" style="fill:#0074ff"/><polygon points="307.5 307.5 966.079 307.5 1066.079 207.5 207.5 207.5 207.5 1066.079 307.5 966.079 307.5 307.5" style="fill:#0074ff"/><polygon points="597.1 818.15 374.029 877.922 420.323 924.216 208.545 1135.995 279.255 1206.705 491.034 994.927 537.328 1041.221 597.1 818.15" style="fill:#0074ff"/><polygon points="818.545 596.705 1041.616 536.934 995.321 490.639 1207.1 278.861 1136.389 208.15 924.611 419.929 878.316 373.634 818.545 596.705" style="fill:#0074ff"/></svg>