<svg id="图层_1" data-name="图层 1" xmlns="http://www.w3.org/2000/svg" viewBox="0 0 1415 1415"><title>Pixabay</title><polygon points="207.5 707.5 207.5 1207.5 1207.5 1207.5 1207.5 207.5 207.5 207.5 207.5 707.5" style="fill:#4ba74b"/><path d="M678.2693,326.9231c36.9231,55.3846,51.7307,76.3461,53.4615,75,1.1538-.9616,24.6153-35.5769,52.1154-76.9231l49.8076-74.8077,52.5-.1923h52.5L866.5384,357.6923c-39.8077,59.2308-72.3077,108.2692-72.3077,108.8462,0,.3846,36.3462,51.9231,80.7692,114.2307s80.7693,113.8462,80.7693,114.4231-23.2693.9615-51.7308.9615H852.5l-60-82.6923c-33.077-45.5769-61.1539-82.6923-62.3077-82.5-1.3462,0-29.0385,37.1153-61.9231,82.5l-59.6154,82.6923H556.923c-41.5384,0-51.3461-.5769-50.5769-2.5.5769-1.3462,36.7308-52.6923,80.3846-113.8462,43.6539-61.3461,79.2308-112.3077,79.2308-113.4615,0-.9616-31.5384-49.0385-70.1923-106.7308C557.3077,301.9231,525,253.6538,524.2307,252.3077,523.0769,250.5769,533.8461,250,574.8076,250h52.1155Z" transform="translate(207.5 207.5)" style="fill:#fff"/><path d="M383.2693,255.9616C464.8077,272.5,531.7308,339.4231,551.3462,424.0385c2.6923,12.1154,3.4615,22.8846,3.2692,50.9615,0,32.1154-.5769,37.5-5.1923,54.4231C527.3077,612.1154,468.2693,670.5769,384.6154,692.5c-5.5769,1.5384-37.3077,2.6922-91.3461,3.4615l-82.6923,1.1538L210,785.9615,209.6154,875H125V665.7693c0-174.6154.5769-212.1154,2.8846-227.8847,13.4616-89.6154,82.3077-163.8461,168.4616-181.923,25.3846-5.1924,61.1538-5.3847,86.923,0Z" transform="translate(207.5 207.5)" style="fill:#fff"/><path d="M314.4231,341.7308c-38.077,9.2307-72.3077,36.1538-89.0385,70.1923-13.8461,27.8846-14.2308,31.3461-15.1923,118.2692l-.9615,77.5h74.8077c83.8461,0,86.5384-.3846,113.0769-13.4615C424.0385,580.9616,442.5,562.5,455.7692,535.5769,460,527.1154,465,514.6154,466.7308,507.6923c4.0384-15.3846,4.423-50.3846.7692-65.3846-3.4616-14.6154-15.3846-39.2308-24.8077-51.9231-16.5385-22.1154-45-40.7692-71.5385-46.923-11.7307-2.8847-47.6923-3.8462-56.7307-1.7308Z" transform="translate(207.5 207.5)" style="fill:#4ba74b"/><circle cx="707.5" cy="707.5" r="707.5" style="fill:none"/></svg>