<svg id="图层_1" data-name="图层 1" xmlns="http://www.w3.org/2000/svg" viewBox="0 0 1000 1000"><title>PixelSquid</title><circle cx="500" cy="500" r="500" style="fill:none"/><path d="M628.2176,446.2562l-14.5015-3.6254h-2.4169l-14.5015-3.6254c-32.6283,20.5437-83.3837,50.7552-83.3837,50.7552-22.9607,13.293-35.0453,36.2538-35.0453,62.84,0,0-2.4169,64.0484-2.4169,100.3022,22.9608-19.3353,44.713-39.8792,68.8821-58.0061a477.996,477.996,0,0,1,41.0877-26.586c14.5015-7.2508,30.2115-13.2931,45.9215-15.71s32.6283-2.4168,48.3383,2.4169,30.2115,12.0846,42.2961,24.1692c3.6254,3.6254,6.0423,6.0423,8.4592,9.6677,16.9184,19.3354,26.5861,47.13,21.7523,78.55-1.2084-15.71-9.6677-31.42-26.5861-37.4622-22.9607-8.4592-58.0061,0-95.4683,43.5045-25.3776,27.7946-50.7552,72.5075-85.8006,137.7644-6.0423,12.0845-13.293,24.1691-19.3353,36.2537l236.858-136.5559c29.003-16.9185,30.2115-49.5468,30.2115-55.5891V512.7213c-31.42-24.1692-87.009-42.2961-129.3051-54.3807-12.0846-6.0423-25.3776-8.4592-35.0454-12.0846Z" style="fill:#ec1a5c"/><path d="M747.855,619.0658c-4.8338-14.5015-14.5014-29.003-25.3776-39.8792A96.9391,96.9391,0,0,0,681.39,557.4343a103.4737,103.4737,0,0,0-47.13,0c-15.71,2.4169-30.2115,8.4592-43.5046,16.9185-13.293,7.2507-26.586,16.9184-38.6706,26.586-25.3776,19.3353-48.3384,42.2961-71.2991,64.0484s-45.9215,44.713-70.0907,66.4653c-31.42,32.6283-80.9667,61.6314-107.5529,67.6737-30.2115,6.0423-56.7976,1.2084-59.2145-22.9608-1.2085,0-2.4169-1.2084-3.6254-1.2084l-4.8338-2.4169-10.8762-6.0423c-14.5015-7.2507-27.7946-14.5015-42.2961-22.9608-10.8761,43.5046,1.2085,78.55,20.5438,100.3022,8.4593,9.6677,20.5439,16.9185,33.8369,21.7523,25.3776,9.6677,54.3806,8.4592,82.1752,1.2085a156.7618,156.7618,0,0,0,38.6707-16.9185,329.88,329.88,0,0,0,36.2538-25.3776c22.9607-18.1269,44.7129-38.6707,65.2568-59.2145s39.8792-43.5046,60.4229-65.2569c19.3354-21.7523,38.6707-44.7129,60.423-65.2568,10.8762-9.6677,21.7523-20.5438,35.0453-27.7946,6.0423-3.6254,13.2931-7.2507,19.3354-10.8761,7.2507-2.4169,14.5014-4.8339,21.7523-6.0423,14.5014-2.4169,30.2115-2.4169,44.7129,1.2084,7.2508,2.4169,14.5015,4.8339,20.5438,9.6677a48.7788,48.7788,0,0,1,15.71,15.71c-4.8338-6.0423-9.6677-10.8761-16.9184-14.5014-6.0423-3.6255-13.2931-7.2508-20.5438-8.4592-14.5015-3.6254-29.0031-2.4169-43.5045,0a59.4982,59.4982,0,0,0-20.5438,7.2507c-6.0423,3.6253-13.293,7.2507-19.3353,10.8762a186.8083,186.8083,0,0,0-32.6284,29.003c-20.5438,20.5438-38.6707,43.5045-58.0061,66.4653s-38.6706,44.7129-58.0061,67.6737c-20.5437,21.7523-41.0876,43.5045-64.0483,61.6314-12.0846,9.6677-24.1692,18.1269-36.2538,26.586-13.293,8.4592-26.5861,15.71-41.0876,20.5438-29.0031,9.6677-61.6315,12.0846-93.0514,1.2084-2.4169-1.2084-3.6254-1.2084-6.0423-2.4168,42.296,37.4622,108.7613,45.9215,167.9758,8.4591a191.3823,191.3823,0,0,0,38.6707-32.6283c13.293-12.0846,25.3776-27.7946,38.6706-43.5045,21.7523-25.3777,43.5045-55.5891,66.4653-87.0091,38.6706-50.7552,66.4652-84.5921,94.26-102.719,41.0877-27.7946,76.133-22.9607,99.0937-6.0423,15.71,12.0846,25.3776,31.42,25.3776,48.3384-2.4169-16.9185-3.6254-32.6284-9.6677-48.3384Z" style="fill:#ec1a5c"/><path d="M193.1722,720.5764c14.5015,8.4592,29.0031,15.71,43.5045,24.1692l20.5439,10.8761a53.3924,53.3924,0,0,0,19.3353,7.2508,124.2152,124.2152,0,0,0,42.2961,0c14.5015-3.6254,29.003-8.4592,42.2961-15.71a104.3726,104.3726,0,0,0,19.3353-12.0846L398.61,720.5764c20.5438-18.1269,41.0876-36.2538,61.6314-55.5891,0-30.2115-3.6254-112.3868-3.6254-112.3868,0-26.586-12.0846-49.5468-35.0453-62.84,0,0-80.9668-50.7553-105.136-65.2568s-48.3383-29.0031-72.5075-44.713c-18.1269-12.0846-37.4622-22.9607-55.5891-35.0453-4.8339-3.6254-10.8762-7.2508-15.71-10.8762,25.3776,13.2931,50.7553,26.5861,74.9245,39.8792,25.3776,13.2931,49.5468,26.5861,74.9244,41.0876,25.3777,13.293,107.5529,58.006,107.5529,58.006a73.1161,73.1161,0,0,0,73.716,0s38.6707-20.5437,71.2991-38.6706c-18.1269-4.8339-36.2537-8.4592-55.5891-13.293C405.861,394.2925,275.3475,362.8725,212.5076,306.0749l-10.8762-10.8761L200.423,293.99l-7.2508-7.2507-18.1269,9.6677a125.5725,125.5725,0,0,0-12.0846,7.2507,45.1858,45.1858,0,0,0-16.9184,16.9184v1.2085C142.4169,327.8272,140,336.2864,140,347.1625V650.4858c0,38.6707,16.9184,50.7553,30.2115,59.2145L184.713,718.16Z" style="fill:#ec1a5c"/><path d="M329.7282,213.0235c10.8761,2.4169,22.9607,3.6254,35.0453,4.8339,6.0423,0,12.0846,1.2084,18.1269,1.2084l18.1269,1.2084c48.3383,1.2085,96.6767,0,145.0151-1.2084,26.5861,0,51.9638-1.2084,78.55-1.2084L500.1209,145.35c-12.0846-7.2507-35.0453-13.293-59.2145,0l-24.1692,13.293-90.6345,53.1723C327.3112,211.8151,328.52,213.0235,329.7282,213.0235Z" style="fill:#ec1a5c"/><path d="M365.9819,174.3528a153.8871,153.8871,0,0,0-22.9607-15.71,83.9083,83.9083,0,0,0-15.71-6.0423,71.3213,71.3213,0,0,0-16.9185-2.4169c-10.8761,0-21.7523,2.4169-29.003,8.4592a17.5976,17.5976,0,0,0-7.2507,10.8761c-1.2085,3.6254,0,8.4593,1.2084,12.0846,3.6254,8.4593,12.0846,14.5015,21.7523,19.3354,1.2084-1.2085,3.6254-1.2085,4.8339-2.417,0-13.293,19.3353-25.3776,47.13-18.1269C353.8973,179.1867,359.94,176.77,365.9819,174.3528Z" style="fill:#ec1a5c"/><path d="M925.4985,359.2471a175.7547,175.7547,0,0,0-39.8792-54.3807,200.9808,200.9808,0,0,0-58.006-35.0453c-43.5046-16.9184-90.6345-24.1692-137.7644-26.5861-47.13-3.6254-95.4683-3.6254-143.8067-2.4169-48.3384,0-96.6767,1.2084-145.0151-1.2085L382.9,238.4012c-6.0423,0-12.0846-1.2085-18.1269-1.2085-12.0846-1.2084-24.1692-3.6253-37.4622-6.0423-12.0846-2.4169-24.1692-7.2507-36.2538-13.293-6.0423-3.6254-10.8761-7.2507-16.9184-10.8761-4.8339-4.8339-9.6677-9.6677-13.2931-16.9185s-4.8338-15.71-2.4169-22.9607,7.2507-14.5016,13.2931-18.1269c12.0846-8.4593,26.5861-10.8762,39.8792-9.6677,6.0423,1.2084,13.293,2.4169,19.3353,4.8339a77.0527,77.0527,0,0,1,16.9185,9.6676c8.4591,6.0423,15.71,13.2931,20.5437,21.7523,15.71-6.0423,31.42-12.0846,44.713-16.9185C359.94,70.4253,245.1358,65.5915,190.7552,121.1806c-39.8792,39.8792-47.13,114.8036,14.5015,169.1843,3.6253,3.6254,7.2507,7.2508,12.0846,9.6677,84.5921,66.4652,282.7794,71.2991,413.2931,93.0514,9.6677,1.2084,21.7523,3.6254,36.2537,6.0422,62.84,10.8762,154.6829,30.2115,154.6829,76.133V581.6037c21.7523-10.8762,42.296-24.1692,59.2145-38.6707,16.9184-15.71,32.6283-32.6283,42.2961-53.1722A134.58,134.58,0,0,0,940,424.504,155.3758,155.3758,0,0,0,925.4985,359.2471ZM855.4079,499.4284c-4.8339,18.1269-14.5015,33.8369-26.5861,47.13,6.0423-16.9184,10.8761-33.8369,13.293-49.5468a170.1924,170.1924,0,0,0,0-49.5468c-3.6254-15.71-10.8761-30.2115-20.5438-43.5045C810.6949,391.8756,797.4019,381,782.9,373.7487s-31.42-12.0846-48.3384-15.71-33.8369-6.0423-50.7552-8.4593c-33.8369-3.6253-70.0907-3.6253-103.9275-4.8338-70.0907-2.417-140.1813-3.6254-210.2719-13.2931-35.0454-4.8338-70.0907-12.0846-102.7191-24.1691-16.9184-6.0423-32.6284-13.2931-47.13-22.9608s-27.7946-21.7522-37.4622-36.2538c10.8761,14.5016,24.1692,25.3777,38.6707,33.8369A215.53,215.53,0,0,0,269.3052,302.45c32.6284,10.8762,67.6737,15.71,102.719,19.3353s70.0907,4.8339,105.136,6.0423,70.0906,1.2085,105.1359,2.417c18.1269,0,35.0453,0,53.1722,1.2084,18.1269,0,35.0453,1.2084,53.1722,2.4169a401.3013,401.3013,0,0,1,53.1723,7.2508c18.1268,3.6253,35.0453,8.4592,51.9637,16.9184s31.42,19.3353,43.5046,33.8369A110.2369,110.2369,0,0,1,861.45,442.6309C861.45,461.9662,860.2418,481.3015,855.4079,499.4284Z" style="fill:#ec1a5c"/></svg>