<svg id="图层_1" data-name="图层 1" xmlns="http://www.w3.org/2000/svg" viewBox="0 0 1000 1000"><title>Planet</title><circle cx="500" cy="500" r="500" style="fill:none"/><path d="M255.6948,568.4935,455.2273,441.8442V217.2208l143.3766-59.74,93.1948,52.3567V170.6234L486.2922,38,57.3571,310.4156V508.7532c.5608,3.6169,1.2406,7.1423,2.0169,10.58l61.3078-96.6063Z" style="fill:#74be69"/><path d="M691.7987,254.26v-14.86L666.7078,281.74l-75.2727-39.4286L488.6818,284.13V476.4935L291.539,605.5325,156.526,496.8052l-25.2506,89.2186-7.0092,140.184L487.487,958,647.879,852.479c-4.2279-38.7494-10.035-153.61,67.8158-255.31,41.8216-54.6332,91.7611-84.5368,124.26-100.0751V347.4545Z" style="fill:#59c5ff"/><path d="M291.539,605.5325l197.1428-129.039V284.13l102.7533-41.8182L666.7078,281.74l25.0909-42.3409V209.8372l-93.1948-52.3567-143.3766,59.74V441.8442L255.6948,568.4935,120.6818,422.7273,59.374,519.3336c8.2589,36.5819,28.3065,62.4951,51.7494,65.8872a41.4412,41.4412,0,0,0,20.3117-2.39l-.16,3.1926,25.2506-89.2186Z" style="fill:#437353"/><path d="M877.3857,527.8391a438.7545,438.7545,0,0,0-36.2363,28.7064C734.98,650.2246,697.5372,774.97,683.0362,852.4583l35.0482,35.0482L911.6429,757.2727V552.961Z" style="fill:#74be69"/><path d="M839.9545,500.39v-3.2959c-32.4986,15.5383-82.4381,45.4419-124.26,100.0751-77.8508,101.7-72.0437,216.5608-67.8158,255.31l21.2184-13.96,13.9388,13.9388C697.5372,774.97,734.98,650.2246,841.1494,556.5455a438.7545,438.7545,0,0,1,36.2363-28.7064Z" style="fill:#437353"/></svg>