<svg id="图层_1" data-name="图层 1" xmlns="http://www.w3.org/2000/svg" viewBox="0 0 1000 1000"><title>PngImg</title><rect width="1000" height="1000" style="fill:none"/><path d="M347.8225,457.235q0,55.9841-26.1028,87.7514-26.107,31.7667-72.5347,31.7683-26.6585,0-43.7639-10.2186-17.11-10.2212-27.3255-29.7689h-1.11q.4417,8.8878.7766,17.55.3338,8.6653.3338,17.5509v87.9739H126.778V395.2538q0-23.1032-1.778-50.6517h49.3193a321.7784,321.7784,0,0,1,2.8873,38.6551h.889q21.3263-43.3206,74.8668-43.32,45.9854,0,70.4229,30.3241T347.8225,457.235Zm-53.3171.4445q0-79.9762-56.2055-79.9761-29.9915,0-45.5418,20.66-15.5537,20.66-15.5515,59.9823,0,39.3219,15.1065,59.9824t45.0978,20.6607Q294.5044,538.9891,294.5054,457.68Z" style="fill:#d90000"/><path d="M550.8731,572.3119V445.0165q0-34.6563-10.7738-49.7627-10.7791-15.1055-34.1015-15.107-25.1073,0-39.4323,19.3278-14.33,19.3276-14.33,52.4286V572.3119H401.1406V397.0307q0-26.4343-2-52.4286h48.6518q2.4428,33.3235,2.4434,43.9869h.8889q13.106-25.5442,30.4354-37.1,17.329-11.5483,44.654-11.5521,37.9875,0,56.9832,22.4377,18.993,22.441,18.994,69.3125V572.3119Z" style="fill:#d90000"/><path d="M652.1775,457.0131q0-56.4259,24.9924-86.6409,24.9929-30.21,71.4232-30.2134,25.3266,0,44.5426,11.4413a73.7436,73.7436,0,0,1,29.2137,32.3236h.888a277.8544,277.8544,0,0,1,2.8884-39.3216H875q-1.78,19.9935-1.7769,50.6517V565.6471q0,38.6551-28.6585,66.5364-28.658,27.876-81.5316,27.88-87.3074,0-100.8594-61.0922l50.8748-7.7753q8.4394,31.3234,51.54,31.3234,28.21,0,43.0984-16.8834a57.6366,57.6366,0,0,0,14.884-39.3221V542.3205q0-7.33.6665-14.6615h-.888q-11.5546,22.8839-30.5466,34.1005-18.9947,11.2162-47.6526,11.2189-44.4355,0-68.202-30.2129Q652.1727,512.5548,652.1775,457.0131Zm53.54,0q0,78.201,57.7609,78.1986,29.1,0,44.2089-20.7709,15.1038-20.77,15.1065-58.5387,0-37.7651-15.1065-58.0936-15.11-20.3274-43.7649-20.3276-27.7727,0-42.9872,19.4391Q705.7151,416.362,705.7171,457.0131Z" style="fill:#d90000"/></svg>