<?xml version="1.0" encoding="utf-8"?>
<!-- Generator: Adobe Illustrator 23.0.1, SVG Export Plug-In . SVG Version: 6.00 Build 0)  -->
<svg version="1.1" id="图层_1" xmlns="http://www.w3.org/2000/svg" xmlns:xlink="http://www.w3.org/1999/xlink" x="0px" y="0px"
	 viewBox="0 0 1000 1000" style="enable-background:new 0 0 1000 1000;" xml:space="preserve">
<style type="text/css">
	.st0{fill:none;}
	.st1{fill:#8B89CC;}
</style>
<title>Protonmail</title>
<circle class="st0" cx="500" cy="500" r="500"/>
<path class="st1" d="M500,743.4c0,0-36.5-3.6-65.2-23.5C406.2,700,215.5,563.6,215.5,563.6v269.9c0,0,1.6,31.5,36.2,31.5h496.7
	c34.5,0,36.2-31.4,36.2-31.4v-270c0,0-190.8,136.4-219.3,156.3C536.5,739.8,500,743.4,500,743.4L500,743.4z M500,65
	c0,0-235.8-7.7-284.5,254.1v178.3c0,0,2,19.1,55.7,57.8c53.6,38.7,192.4,147.9,228.9,147.9c36.3,0,175.1-109.1,228.8-147.9
	c53.6-38.8,55.6-57.9,55.6-57.9V319C735.8,57.4,500,65.1,500,65L500,65z M661.5,416.2h-323v-97.1C371.3,189.1,500,187.3,500,187.3
	s128.8,1.8,161.5,131.8V416.2z"/>
</svg>
