<svg id="图层_1" data-name="图层 1" xmlns="http://www.w3.org/2000/svg" viewBox="0 0 1000 1000"><title>QQ</title><rect width="1000" height="1000" style="fill:#fff"/><path d="M259.2213,875H441.6524s.5876-.3824,1.2329-.79c8.7093-5.5007,27.8526-17.5911,52.8208-17.791,25.0547-.2007,44.4726,11.664,53.6593,17.2771,1.0891.6655,2.0835,1.3038,2.0835,1.3038H732.1908a121.6732,121.6732,0,0,0-68.868-65.3614H337.492A93.4,93.4,0,0,0,259.2213,875Z" style="fill:#f9ae08"/><path d="M313.275,212.8428c42.3075-59.3185,118.68-88.3059,184.12-87.8372,67.1464.4809,140.2714,32.0987,182.4311,89.5264,65.827,89.6658-.1131,179.75,77.7021,302.3626,11.1415,17.5556,23.3709,32.9232,35.4727,62.5,32.4732,79.3624,24.336,164.0233,8.4459,167.2285-16.552,3.3386-36.977-82.622-60.81-79.3913-18.6445,2.5274-11.0441,55.7966-40.54,103.04-52.8882,84.7094-185.17,86.2127-201.012,86.148-13.5972-.0556-147.6148-2.411-206.0795-91.2156-30.705-46.639-28.3342-98.5358-47.297-99.6614-24.0243-1.4261-40.1552,80.1892-52.3645,77.7021-12.102-2.4652-15.7216-86.6862,16.8918-172.296,11.9468-31.36,21.8961-44.9007,33.7835-67.5671C313.55,370.8027,254.5251,295.2148,313.275,212.8428Z"/><ellipse cx="433.2065" cy="273.6531" rx="45.6078" ry="64.1887" style="fill:#fff"/><ellipse cx="561.5839" cy="273.6531" rx="45.6078" ry="64.1887" style="fill:#fff"/><ellipse cx="450.0983" cy="273.6531" rx="12.6688" ry="28.716"/><path d="M578.06,283.4859c-10.4969-7.1492-23.4017-5.639-33.55,1.7462-5.3388,3.8852-10.3928,1.6591-12.3848-3.791h0c-1.992-5.45-1.3066-9.8857,5.9384-14.3809,13.7717-8.5446,32.5164-9.5013,46.5967-1.2038,7.4075,4.3653,8.7446,9.6079,6.0942,14.8734h0C588.1043,285.9954,583.5823,287.247,578.06,283.4859Z"/><path d="M348.7477,386.828c.0978-2.16,1.5156-9.8526,37.1619-20.27,31.1619-9.107,58.7355-11.603,108.1073-11.8242,57.5131-.2577,83.5832,2.8449,111.4856,11.8242,14.838,4.7751,37.1535,12.1564,37.1619,21.9593.0086,9.9933-23.1688,17.4125-54.0536,27.0269-43.9657,13.6865-65.9485,20.53-96.2831,20.27-32.9131-.2817-55.7109-7.8774-87.8372-18.581C378.9135,408.7115,348.22,398.4852,348.7477,386.828Z" style="fill:#f9ae08"/><path d="M310.9447,565.8807c-.8078,17.9773-4.3193,96.1193,0,126.6882,8.9806,63.5569,84.0776,149.8121,182.4311,150.3367,98.5052.5255,176.5886-85.1774,184.12-148.6475,1.4351-12.0935,1.52-50.2918,1.6891-126.6882.0271-12.2022.0146-22.2125,0-28.716l-366.5513-3.3784C312.16,542.6233,311.5168,553.15,310.9447,565.8807Z" style="fill:#fff"/><path d="M271.0456,435.8141c22.3966,6.4066,53.5577,14.5547,91.2155,21.9593,49.7965,9.7914,84.2361,16.5632,130.0666,16.8917,51.6443.37,91.1308-7.6319,136.8233-16.8917,38.3684-7.7756,70.0644-16.6122,92.9047-23.6485a256.0653,256.0653,0,0,0,37.1619,86.148c-19.3727,6.7319-44.52,14.6575-74.3238,21.9593-63.1969,15.483-111.6409,19.4925-121.6207,20.27a697.9924,697.9924,0,0,1-108.1073,0V668.9205H350.4369V554.0564c-9.671-2.5054-23.7257-6.2679-40.7046-11.2586-14.5706-4.2828-22.0672-6.2843-28.5517-9.0115-14.4415-6.0737-42.23-20.27-42.2294-20.27a297.2545,297.2545,0,0,0,18.581-37.1619A297.2594,297.2594,0,0,0,271.0456,435.8141Z" style="fill:#ea1c27"/></svg>