<svg id="图层_1" data-name="图层 1" xmlns="http://www.w3.org/2000/svg" xmlns:xlink="http://www.w3.org/1999/xlink" viewBox="0 0 1000 1000"><defs><linearGradient id="未命名的渐变_11" x1="500" y1="877.5" x2="500" y2="122.5" gradientUnits="userSpaceOnUse"><stop offset="0" stop-color="#f9671b"/><stop offset="0.5" stop-color="#f1c500"/><stop offset="1" stop-color="#c7e100"/></linearGradient></defs><title>QQMail</title><circle cx="500" cy="500" r="500" style="fill:none"/><rect x="122.5" y="122.5" width="755" height="755" rx="90.6" style="isolation:isolate;fill:url(#未命名的渐变_11)"/><path d="M701.2075,311.25H298.7925a46.055,46.055,0,0,0-46.055,46.055v273.31a46.055,46.055,0,0,0,46.055,46.055h402.415a46.055,46.055,0,0,0,46.055-46.055V357.305A46.055,46.055,0,0,0,701.2075,311.25Zm-42.0727,45.3L500,486.41,340.8652,356.55Zm42.45,238.7576A36.0624,36.0624,0,0,1,665.5226,631.37H334.4774a36.0624,36.0624,0,0,1-36.0624-36.0624V392.6124a36.0607,36.0607,0,0,1,1.3624-9.812L484.346,532.5953a24.8409,24.8409,0,0,0,31.308,0L700.2226,382.8a36.0607,36.0607,0,0,1,1.3624,9.812Z" style="fill:#fff;isolation:isolate"/></svg>