<svg id="图层_1" data-name="图层 1" xmlns="http://www.w3.org/2000/svg" viewBox="0 0 1000 1000"><title>Quqi-Drive</title><rect width="1000" height="1000" style="fill:none"/><rect x="125" y="125" width="750" height="750" rx="90.0638" style="fill:#ffd01e"/><path d="M576.361,300.0345c-58.675-35.1176-121.8015-13.5214-126.4319-11.853-13.335,4.8045-45.7355,17.016-67.9575,51.363-20.3429,31.443-20.3488,63.1885-19.755,75.069a150.0437,150.0437,0,0,0-45.8316,6.3215c-10.2075,3.0821-54.4215,16.4325-79.81,57.6846-25.7331,41.8116-21.7158,95.3717,0,134.3339,31.6761,56.8329,101.6335,83.7259,159.62,67.9575,29.4069-7.9968,49.5842-25.29,60.7247-36.8631l26.03,19.6147.1909-84.06L402.39,602.9559,427.1439,621.61a87.2979,87.2979,0,0,1-29.368,19.7912c-41.8542,16.8417-100.7533.147-127.2225-44.2512-16.4179-27.5388-21.6-67.8178-2.3706-98.775,17.7253-28.5359,48.8722-37.3662,64.7964-41.8806a140.4131,140.4131,0,0,1,61.6356-3.1608c-8.7846-46.1082,6.7109-91.6419,40.3-116.1593,29.84-21.7805,64.0492-19.7415,72.6984-18.9648,3.5583.32,38.4756,3.9075,64.7963,28.4475,8.9325,8.3277,15.9458,14.8666,21.3354,26.0766,5.055,10.5134,4.823,17.111,11.853,22.1256,6.4436,4.5962,16.6717,6.21,22.9158,1.58,5.4236-4.0215,6.0771-11.4455,6.3216-14.2236C636.5481,362.7625,615.7108,323.5856,576.361,300.0345Z" style="fill:#fff"/><path d="M427.8035,449.3825c-9.0634-11.35-4.1353-48.8475,19.755-75.069,16.61-18.23,39.1033-27.4088,58.4748-26.8668,6.555.1834,16.5975.61,21.3354,7.902,3.6652,5.641,3.6417,14.6-.79,18.9648-5.0681,4.9912-11.598-.2636-26.0766,2.3706-11.829,2.1522-20.0753,7.9529-24.4962,11.0625-6.0776,4.275-13.4762,9.48-18.1746,18.9648-4.043,8.162-4.9558,17.2106-5.5314,22.9158-.9578,9.4945.2014,13.296-3.1608,18.1746-2.52,3.6564-7.3918,7.6454-12.6432,7.1118C431.8431,454.4409,428.7842,450.61,427.8035,449.3825Z" style="fill:#fff"/><path d="M496.5509,551.318c1.083,3.7995,3.3075,11.6035,10.2726,15.0138a16.0622,16.0622,0,0,0,14.2236,0c2.4348-1.2975,5.4967-3.9062,8.6925-13.4334a74.9926,74.9926,0,0,0,3.951-22.9158c-.3231-20.74,44.2034-84.0426,109.0472-81.3905,4.5825.1875,54.3908,3.0744,81.3906,45.8316,23.6048,37.3807,17.355,85.5648-7.1118,116.1593-1.9394,2.4251-24.9613,30.4222-60.0552,35.559-.4153.0608-.135.0163-33.1884,0h-80.6c-7.4693-.3568-9.7417-.81-14.2236,0-4.6358.8381-14.7375,2.6645-18.9648,11.0625-3.1644,6.2869-1.2692,12.7459-.79,14.2236.3815,1.1765,2.1865,6.3556,8.6926,11.0625,12.012,8.6911,28.6992,7.5612,36.3491,7.1118,27.6107-1.6222,55.341.4591,82.971-.79,22.4287-1.0142,33.65-1.5225,33.9786-1.58,46.6454-8.2225,76.172-43.7057,79.81-48.2025,38.1907-47.2,30.0119-102.7284,28.4475-112.2084-1.7973-10.8885-8.8809-50.1675-43.461-81.3905-39.3729-35.55-87.105-36.018-105.8869-34.7688-62.7021,4.17-106.47,47.6735-124.0613,81.3906C492.3487,518.2822,493.4817,540.5508,496.5509,551.318Z" style="fill:#fff"/><path d="M575.5708,557.64c-1.3079,3.5266-2.6337,7.1013-.79,10.2726,1.6762,2.8834,5.5675,4.737,8.6926,3.951,3.2385-.8146,3.4106-3.9,7.902-9.4824,1.7745-2.2055,5.5828-6.9384,11.0625-9.4824a24.263,24.263,0,0,1,14.2236-1.58c14.0511,2.3749,14.5457,14.9175,30.8175,22.9158,3.6591,1.7986,13.5382,6.6546,25.2864,3.951,13.5566-3.12,20.4433-14.1975,22.9158-18.1746,2.3949-3.8523,6.7691-10.8887,3.951-15.804a8.2229,8.2229,0,0,0-6.3216-3.951c-2.4643-.162-4.6011,1.05-7.902,3.951-8.486,7.4573-8.5778,11.9361-13.4334,14.2236-4.6751,2.2025-9.7339.4739-13.4334-.79-10.778-3.6825-10.7257-11.014-23.706-18.9648a39.5417,39.5417,0,0,0-16.5942-6.3216,37.7668,37.7668,0,0,0-15.804,1.58,43.5464,43.5464,0,0,0-18.9648,11.853A33.6029,33.6029,0,0,0,575.5708,557.64Z" style="fill:#fff"/></svg>