<svg id="图层_1" data-name="图层 1" xmlns="http://www.w3.org/2000/svg" xmlns:xlink="http://www.w3.org/1999/xlink" viewBox="0 0 1000 1000"><defs><linearGradient id="未命名的渐变_4" x1="20.0445" y1="994.7821" x2="20.0445" y2="967.0043" gradientTransform="matrix(26.5, 0, 0, -26, -22.5, 26031)" gradientUnits="userSpaceOnUse"><stop offset="0" stop-color="#08b1fa"/><stop offset="1" stop-color="#4f8eff"/></linearGradient><linearGradient id="未命名的渐变_2" x1="20.1437" y1="994.7821" x2="20.1437" y2="967.0043" gradientTransform="matrix(26, 0, 0, -26, -22, 26031)" gradientUnits="userSpaceOnUse"><stop offset="0" stop-color="#0090ff"/><stop offset="1" stop-color="#0059ff"/></linearGradient><linearGradient id="未命名的渐变_3" x1="95.5642" y1="987.4861" x2="95.5642" y2="959.7083" gradientTransform="matrix(8, 0, 0, -8, 15, 8011)" gradientUnits="userSpaceOnUse"><stop offset="0" stop-color="#ff3a50"/><stop offset="1" stop-color="#ed306b"/></linearGradient></defs><title>RemixIcon</title><path d="M0,0H1000V1000H0Z" style="fill:none"/><path d="M594.2917,166.8056a212.8348,212.8348,0,0,0-9.2223,62.6388c0,100.1667,87.0556,187.2223,201.6667,187.2223a179.8883,179.8883,0,0,0,83.3056-20.8334,293.2938,293.2938,0,0,1,6.6944,62.5C876.7361,619.4167,746.1528,750,585.0694,750V888.8889H140.625V166.6667H585.0694C588.1528,166.6667,591.2361,166.7222,594.2917,166.8056Z" style="fill-rule:evenodd;fill:url(#未命名的渐变_4)"/><path id="b" d="M140.625,166.6667,862.8472,888.8889H140.625Z" style="fill-rule:evenodd;fill:url(#未命名的渐变_2)"/><circle cx="779.5139" cy="222.2222" r="111.1111" style="fill:url(#未命名的渐变_3)"/></svg>