<svg id="图层_1" data-name="图层 1" xmlns="http://www.w3.org/2000/svg" viewBox="0 0 1000 1000"><title>Savieo</title><rect width="1000" height="1000" style="fill:#ed1c24"/><path d="M755,220V407H585V336c-61.2948-10.9287-110.38-6.6658-123,12a39.9962,39.9962,0,0,0-7,21c.2336,14.0622,10.3093,24.2633,14,28,33.851,34.2725,157.45,12.2944,245,72,11.4056,7.7782,28.3793,19.5871,43,41,47.4909,69.553,20.5927,167.8445,1,205-54.1989,102.7822-263.2568,137.4209-509,59V587H419v78c7.8617,1.1212,141.65,19.29,158-23,3.1776-8.2194,1.983-18.8879-2-27-13.341-27.1714-59.6328-29.0581-82-31-55.7893-4.8435-155.4151-13.4929-208-82-43.29-56.3976-41.1507-135.7113-20-190,0,0,13.294-34.1226,39-62C371.4648,176.8362,548.75,167.4454,755,220Z" style="fill:#fff"/></svg>