<svg id="图层_1" data-name="图层 1" xmlns="http://www.w3.org/2000/svg" viewBox="0 0 1000 1000"><title>BaoGaoChaYiCha</title><path d="M463.1255,128.0607C276.3839,128.0607,125,279.4447,125,466.1862S276.3839,804.3117,463.1255,804.3117s338.1254-151.384,338.1254-338.1255S649.867,128.0607,463.1255,128.0607Zm6.0786,511.3673c-74.5927-22.88-135.4531-83.415-159.5648-157.2853-7.1142-21.7957-31.32-95.9547,10.6377-167.1632,31.1-52.7808,89.6068-88.4951,151.9665-89.66,13.2431-.2474,72.7082-1.3585,117.774,44.07,8.394,8.4616,44.43,44.7879,41.7908,97.2585-2.9127,57.9051-51.9714,116.47-110.1757,117.7741-30.3108.6791-66.4958-14.0947-85.1013-45.59-3.2752-5.5444-25.6094-44.7928-4.559-79.7824.8855-1.4717,22.8953-36.6888,60.7866-32.6728,25.35,2.6868,45.1839,21.5961,51.6686,42.5506,1.3078,4.2259,7.3691,23.812-3.0393,39.5113-5.9557,8.9832-17.1859,16.516-28.8736,18.9958-9.8256,2.0848-16.13-.1751-19.7557,4.559-3.237,4.2273-2.503,11.9475,1.52,15.9565,1.2726,1.2683,5.1381,4.4214,16.7163,2.2795,36.91-6.8281,51.6686-34.1924,51.6686-34.1924,16.0043-29.6923,3.1337-68.3826-19.7556-90.42-19.5011-18.7754-48.2091-27.3262-75.2234-21.2753-33.7383,7.5569-50.3276,34.64-54.708,41.7908-12.2081,19.93-11.1739,34.8382-15.1966,68.3849-10.0707,83.9815-27.8684,84.9174-19.7557,112.4552,16.657,56.54,98.484,75.6758,119.2937,80.5422,22.6359,5.2935,55.5179,12.9831,77.5029-4.559,13.63-10.8752,12.3418-22.887,23.5548-60.7866,15.51-52.4221,24.1852-50.4361,42.5507-110.1757,15.1385-49.2428,14.6567-68.1993,13.677-79.0225-.1421-1.57-2.9136-29.6189-16.7164-56.2277-26.98-52.0125-93.291-93.0891-164.1238-93.4593-93.0384-.4864-163.614,69.4146-184.6393,125.3723-5.975,15.9023-12.227,42.066-15.9565,66.1054a412.8171,412.8171,0,0,0-4.559,79.7825c1.1649,36.6114-.914,101.5544-15.9564,225.67a207.0843,207.0843,0,0,1-19.7557-15.1966c-94.9984-82.648-85.4773-228.1329-84.3414-242.3866,1.7426-21.8656,14.7382-155.7637,135.25-238.5874,119.0857-81.8435,246.9253-47.756,265.1815-42.5506,10.9061,3.11,159.0336,47.9829,208.954,191.4778,9.766,28.0721,33.9785,99.3468,2.2795,170.9623C713.7635,628.89,576.0505,672.2011,469.2041,639.428Z" style="fill:#467dd0"/><path d="M874.9547,802.0322a19.0832,19.0832,0,0,0-7.2184-13.2971l-96.8787-96.8787-79.7824,79.7825,91.18,91.94a28.4271,28.4271,0,0,0,40.2711,0l45.21-45.59C868.3556,817.504,875.6391,811.5974,874.9547,802.0322Zm-21.0854-.95a6.4776,6.4776,0,0,1-9.1338,0L768.52,724.8663a6.4774,6.4774,0,0,1,0-9.1337h0a6.4776,6.4776,0,0,1,9.1338,0l76.216,76.2161A6.4776,6.4776,0,0,1,853.8693,801.0824Z" style="fill:#467dd0"/><rect width="1000" height="1000" style="fill:none"/></svg>