<svg id="图层_1" data-name="图层 1" xmlns="http://www.w3.org/2000/svg" viewBox="0 0 1000 1000"><title>Shuge</title><circle cx="500" cy="500" r="500" style="fill:#fff"/><path d="M792.405,334.3671c3.1645,3.7975,5.063,6.9621,5.063,8.8606,0,3.1645-3.1645,5.0635-8.2276,5.0635H678.4811c0,27.2152.6325,48.7339,1.8985,70.2531v4.43c0,9.4936-2.5311,11.3921-14.5566,15.8226-5.6965,1.899-9.4936,3.1645-12.0256,3.1645-3.7971,0-4.4305-2.5315-4.4305-7.595v-19.62H517.0893v50h165.19l22.1517-27.2152,29.7468,27.2152c5.063,4.43,6.9616,7.5951,6.9616,10.1266s-3.1645,3.7975-10.1262,3.7975H517.0893v46.8354H726.5824l26.5822-30.38,32.2787,31.0127c5.0631,4.4305,6.9617,7.595,6.9617,9.4936,0,2.5319-3.1646,3.7975-10.1262,3.7975H260.1269c-12.6581,0-31.0127,2.532-40.5063,6.329L202.532,522.9746c14.5571,1.2659,30.38,2.5315,44.3038,2.5315H486.7091V478.6707H320.8864c-12.6581,0-31.0128,2.532-40.5063,6.3291l-17.0887-22.7847c14.5571,1.266,30.38,2.5315,44.3039,2.5315H486.7091v-50H340.5065c-13.2911,0-31.6453,2.5316-42.4048,6.9621L280.38,397.6581c15.823,1.266,31.6457,2.532,46.2023,2.532H486.7091V348.2912H263.2914c-12.6581,0-31.0127,2.5315-40.5063,6.3291l-17.0886-22.7847c14.5571,1.2655,30.38,2.5315,44.3038,2.5315H486.7091V276.1392H335.4435c-13.2911,0-31.6458,2.532-42.4053,6.962L275.317,259.6836c15.8226,1.2659,31.6453,2.5315,46.2024,2.5315h165.19c0-32.9113,0-44.3034-1.8985-77.2151l49.3673,27.2152c5.6956,3.1645,8.2276,5.0635,8.2276,6.9621s-2.532,3.7975-7.595,6.329l-17.7212,10.76v25.9492H637.9748l20.2531-24.05,38.6078,25.3162c3.7971,2.5315,5.6965,4.43,5.6965,6.329s-1.8994,4.43-5.6965,6.3291l-18.3546,10.1266v48.1013h50.6333l32.2778-31.6457ZM700,586.2655c3.7971,2.532,5.6965,4.4306,5.6965,6.3291s-1.266,3.7975-4.43,5.0635l-18.3546,10.1266v97.4687c0,8.2276,1.266,49.3664,1.266,58.2275,0,6.329-2.532,8.2276-15.19,13.9241q-8.5447,3.7967-11.3921,3.797c-3.798,0-4.4305-2.5311-4.4305-8.86v-30.38H346.203c0,29.1142,0,32.2787-13.2911,38.6078C326.5824,783.734,322.7853,785,319.6208,785c-3.7975,0-5.0635-3.1645-5.0635-12.0256,0-7.595,1.899-46.8353,1.899-55.6963v-108.86c0-17.0886,0-37.3418-1.266-53.1644l41.7723,31.0122H644.3038l15.8227-22.7846ZM653.1649,656.519V600.19H346.203V656.519Zm0,72.1521V670.4427H346.203v58.2284Zm-3.798-394.304V276.1392H517.0893v58.2279Zm0,65.823V348.2912H517.0893V400.19Z"/><path d="M518.8158,656.4808v14h451.36q2.5215-6.9525,4.8406-14Z" style="fill:#b1b2b2"/><path d="M518.8158,700.6643v-74.367l-52.2793,30.1835H24.9835q2.32,7.0464,4.8406,14H466.5364Z" style="fill:#e60012"/></svg>