<svg id="图层_1" data-name="图层 1" xmlns="http://www.w3.org/2000/svg" viewBox="0 0 1415 1415"><title>Sigoo</title><rect x="207.5" y="207.5" width="1000" height="1000" style="fill:#d65b1f"/><circle cx="707.5" cy="707.5" r="707.5" style="fill:none"/><path d="M500,56C254.7856,56,56,254.7856,56,500S254.7856,944,500,944,944,745.2144,944,500,745.2144,56,500,56Zm0,794c-193.3,0-350-156.7-350-350S306.7,150,500,150,850,306.7,850,500,693.3,850,500,850Z" transform="translate(207.5 207.5)" style="fill:#fff"/><circle cx="707.5" cy="707.5" r="175" style="fill:#fff"/><path d="M233,385.7021,274.2979,427A468.04,468.04,0,0,1,433,268.2979Q412.351,247.6491,391.7021,227A355.2817,355.2817,0,0,0,233,385.7021Z" transform="translate(207.5 207.5)" style="fill:#fff"/></svg>