<svg id="图层_1" data-name="图层 1" xmlns="http://www.w3.org/2000/svg" viewBox="0 0 1415 1415"><title>SimpleIcons</title><circle cx="707.5" cy="707.5" r="707.5" style="fill:none"/><rect x="207.5" y="207.5" width="1000" height="1000"/><path d="M500,100c-110.4,0-200,89.6-200,200s89.6,200,200,200c110.5334,0,200,89.6,200,200.1333a199.8845,199.8845,0,0,1-27.4666,101.2h56A250.827,250.827,0,0,0,750,700.4c.1333-138.1333-111.8667-250.1334-250-250.2667a150.0547,150.0547,0,0,1-150-150C350,217.3333,417.2,150,500,150A150.0547,150.0547,0,0,1,650,300h50C700,189.6,610.4,100,500,100Zm0,100a100.0355,100.0355,0,1,0,97.3333,102.6667h0A99.9018,99.9018,0,0,0,500,200Zm0,50a50.0182,50.0182,0,0,1,50,50v.1333A49.9336,49.9336,0,1,1,500,250ZM350,600v50h50V850H250v50H750V850H600V650h50V600Zm100,50H550V850H450ZM250,699.0667V700a245.6759,245.6759,0,0,0,21.4667,101.3333H327.6A197.515,197.515,0,0,1,300,700v-.9333Z" transform="translate(207.5 207.5)" style="fill:#fff"/></svg>