<svg id="图层_1" data-name="图层 1" xmlns="http://www.w3.org/2000/svg" viewBox="0 0 1415 1415"><title>Sitapix</title><rect x="207.5" y="207.5" width="1000" height="1000" style="fill:#fff"/><circle cx="707.5" cy="707.5" r="707.5" style="fill:none"/><rect x="316.5299" y="321.529" width="890.9701" height="885.971"/><path d="M550.2991,325.1767c-129.1367,0-233.8228,104.686-233.8228,233.8228S421.1624,792.8222,550.2991,792.8222a233.7055,233.7055,0,0,0,68.356-10.18l-28.6142-93.6179a135.9508,135.9508,0,1,1,72.78-53.7226L743.8367,690.24A232.7307,232.7307,0,0,0,784.1218,559C784.1218,429.8627,679.4358,325.1767,550.2991,325.1767Z" transform="translate(207.5 207.5)" style="fill:#fff"/><rect x="1077.5381" y="210.7626" width="76.1283" height="39.1517"/><rect x="968.7833" y="210.7626" width="76.1283" height="39.1517"/><rect x="860.0285" y="210.7626" width="76.1283" height="39.1517"/><rect x="751.2738" y="210.7626" width="76.1283" height="39.1517"/><rect x="642.519" y="210.7626" width="76.1283" height="39.1517"/><rect x="425.0095" y="210.7626" width="76.1283" height="39.1517"/><rect x="533.7643" y="210.7626" width="76.1283" height="39.1517"/><rect x="316.2548" y="210.7626" width="76.1283" height="39.1517"/><rect x="-18.4883" y="131.5933" width="76.1283" height="39.1517" transform="translate(75.9067 378.245) rotate(-90)"/><rect x="-18.4883" y="240.348" width="76.1283" height="39.1517" transform="translate(-32.848 486.9997) rotate(-90)"/><rect x="-18.4883" y="349.1028" width="76.1283" height="39.1517" transform="translate(-141.6028 595.7545) rotate(-90)"/><rect x="-18.4883" y="457.8575" width="76.1283" height="39.1517" transform="translate(-250.3575 704.5092) rotate(-90)"/><rect x="-18.4883" y="566.6123" width="76.1283" height="39.1517" transform="translate(-359.1123 813.264) rotate(-90)"/><rect x="-18.4883" y="784.1218" width="76.1283" height="39.1517" transform="translate(-576.6218 1030.7735) rotate(-90)"/><rect x="-18.4883" y="675.367" width="76.1283" height="39.1517" transform="translate(-467.867 922.0188) rotate(-90)"/><rect x="-18.4883" y="892.8766" width="76.1283" height="39.1517" transform="translate(-685.3766 1139.5283) rotate(-90)"/><polygon points="283.628 210.763 246.652 210.763 207.5 210.763 207.5 249.914 207.5 286.891 246.652 286.891 246.652 249.914 283.628 249.914 283.628 210.763"/></svg>