<svg id="图层_1" data-name="图层 1" xmlns="http://www.w3.org/2000/svg" xmlns:xlink="http://www.w3.org/1999/xlink" viewBox="0 0 1000 1000"><defs><linearGradient id="未命名的渐变_4" x1="17.634" y1="939.5141" x2="17.634" y2="970.182" gradientTransform="matrix(29.9988, 0, 0, -14.5153, -28.9988, 14542.6887)" gradientUnits="userSpaceOnUse"><stop offset="0" stop-color="#626262"/><stop offset="1"/></linearGradient><linearGradient id="未命名的渐变_2" x1="17.634" y1="951.6974" x2="17.634" y2="982.3653" gradientTransform="matrix(29.9988, 0, 0, -14.5145, -28.9988, 14535.9513)" gradientUnits="userSpaceOnUse"><stop offset="0" stop-color="#00baff"/><stop offset="1" stop-color="#009ad3"/></linearGradient><linearGradient id="未命名的渐变_3" x1="17.634" y1="963.8839" x2="17.634" y2="994.5518" gradientTransform="matrix(29.9988, 0, 0, -14.5147, -28.9988, 14530.2146)" gradientUnits="userSpaceOnUse"><stop offset="0" stop-color="#fff"/><stop offset="1" stop-color="#dcdcdc"/></linearGradient></defs><title>SmartMockups</title><circle cx="500" cy="500" r="500" style="fill:none"/><path id="Shape" d="M71.35,646.2245l352.9889-170.79c41.8-20.2408,109.5427-20.2408,151.3124,0l353.0212,170.82c41.77,20.21,41.77,52.9634,0,73.1736l-352.9906,170.82c-41.8,20.21-109.5457,20.21-151.3123,0L71.35,719.4288c-41.8-20.21-41.8-52.9635,0-73.2043Z" style="fill-rule:evenodd;fill:url(#未命名的渐变_4)"/><path d="M71.35,463.4132l352.9889-170.82c41.8-20.21,109.5427-20.21,151.3124,0l353.0212,170.82c41.77,20.21,41.77,52.9635,0,73.2043L575.6822,707.4085c-41.8,20.2071-109.5457,20.2071-151.3123,0L71.35,536.5868c-41.8-20.21-41.8-52.9635,0-73.1736Z" style="fill-opacity:0.949999988079071;fill-rule:evenodd;fill:url(#未命名的渐变_2)"/><path d="M71.35,280.5712l352.9889-170.82c41.8-20.21,109.5427-20.21,151.3124,0l353.0212,170.82c41.77,20.21,41.77,52.9942,0,73.2043L575.6822,524.5941c-41.8,20.1795-109.5457,20.1795-151.3154,0L71.35,353.7448c-41.8-20.2408-41.8-52.9941,0-73.2042Z" style="fill-opacity:0.30000001192092896;fill-rule:evenodd;fill:url(#未命名的渐变_3)"/></svg>