<svg id="图层_1" data-name="图层 1" xmlns="http://www.w3.org/2000/svg" viewBox="0 0 1000 1000"><title>SMSreceivefree</title><path d="M403.1875,741.5a40.5,40.5,0,1,0,40.5,40.5A40.5,40.5,0,0,0,403.1875,741.5Zm0,57a16.5,16.5,0,1,1,16.5-16.5A16.5,16.5,0,0,1,403.1875,798.5Z" style="fill:#d4a6ec"/><path d="M847.9375,286.25H614.3125V159.1729A34.2734,34.2734,0,0,0,580.14,125H226.2354a34.2734,34.2734,0,0,0-34.1729,34.1729V840.8271A34.2734,34.2734,0,0,0,226.2354,875H580.14a34.2734,34.2734,0,0,0,34.1729-34.1729V561.2018h233.625Zm-610.875-87.6662A28.6678,28.6678,0,0,1,265.6463,170H540.7287a28.6678,28.6678,0,0,1,28.5838,28.5838v20.2h-332.25ZM569.3125,781.25v20.2a28.6678,28.6678,0,0,1-28.5838,28.5838H265.6463A28.6678,28.6678,0,0,1,237.0625,801.45V732.5h332.25Zm0-93.75h-332.25V263.75h332.25v22.5H366.5875V561.2018h47.5217v92.1421l131.3073-92.1421h23.896Zm233.66-172.7378H616.1875V515h-54v-.2378H537.1953L450.8092,572.996V514.7622H411.5528V329.741h157.76v.009h45v-.009h188.66Z" style="fill:#d4a6ec"/><rect x="457.2553" y="376.1806" width="138.5816" height="23.5884" style="fill:#9271b2"/><rect x="457.2553" y="445.4714" width="299.2773" height="23.5884" style="fill:#9271b2"/><rect width="1000" height="1000" style="fill:none"/></svg>