<?xml version="1.0" encoding="utf-8"?>
<svg width="1415px" height="1415px" viewBox="0 0 1415 1415" version="1.1" xmlns:xlink="http://www.w3.org/1999/xlink" xmlns="http://www.w3.org/2000/svg">
  <defs>
    <linearGradient x1="0" y1="0" x2="1" y2="1" id="gradient_1">
      <stop offset="0%" stop-color="#FF8D2D" />
      <stop offset="100%" stop-color="#FE5705" />
    </linearGradient>
  </defs>
  <g id="Sogou">
    <path d="M0 707.5C0 316.759 316.759 0 707.5 0C1098.24 0 1415 316.759 1415 707.5C1415 1098.24 1098.24 1415 707.5 1415C316.759 1415 0 1098.24 0 707.5Z" id="Ellipse" fill="none" fill-rule="evenodd" stroke="none" />
    <path d="M957 733.917C863.25 656.417 734.5 646.375 631.958 585.75C600.708 565.792 625.792 527.625 657.042 526.375C769.5 507.625 880.75 552.625 985.75 588.875L992.042 478.25C860.75 430.75 718.292 400.125 579.5 422C529.5 434.5 479.5 450.125 443.917 487C395.125 537 403.875 627 460.125 667C553.292 740.125 675.792 750.792 777.667 807C817.667 823.25 800.792 877 761.375 880.75C639.5 903.875 519.5 850.708 414.5 793.25C413.25 835.75 412 877 412 918.25C545.125 976.958 693.25 1004.46 837 981.958C885.75 972.583 935.75 956.958 971.375 921.375C1022.58 871.375 1017.67 775.083 957.625 733.875L957 733.875L957 733.917Z" id="Shape-path" fill="url(#gradient_1)" stroke="none" />
    <path d="M707 1131.96C466.375 1131.96 271.375 939.5 271.375 700.708C271.375 463.25 466.375 270.75 707 270.75C947.625 270.75 1142.67 464.5 1142.67 702C1142.67 808.25 1103.25 905.792 1038.21 980.75L1077.58 1033.29C1157.04 945.708 1207 829.458 1207 702C1207 427.625 983.25 207 707 207C430.75 207 207 428.292 207 700.75C207 974.5 430.75 1195.75 707 1195.75C778.25 1195.75 845.75 1181.33 907.042 1154.5L867 1102C817 1120.75 763.25 1131.96 707 1131.96L707 1131.96Z" id="Shape-path" fill="url(#gradient_1)" stroke="none" />
    <path d="M907.042 1154.5L948.25 1207C1013.29 1178.83 1070.17 1139.5 1117.04 1088.21L1077.63 1033.29C1031.38 1087 974.5 1128.25 907.625 1154.5L907.042 1154.5L907.042 1154.5Z" id="Shape-path" fill="#FE5705" stroke="none" />
  </g>
</svg>