<svg id="图层_1" data-name="图层 1" xmlns="http://www.w3.org/2000/svg" viewBox="0 0 1415 1415"><title>SooGIF</title><rect x="207.5" y="207.5" width="1000" height="1000" style="fill:#fff"/><circle cx="707.5" cy="707.5" r="707.5" style="fill:none"/><path d="M530.3416,127.29l131.7157,31.2546a23.7734,23.7734,0,0,1,16.074,13.12L735.9266,296.147a23.7734,23.7734,0,0,1,.0938,19.818l-43.3995,95.8406a23.7734,23.7734,0,0,1-38.4668,7.0036l-98.5507-98.5506a23.7733,23.7733,0,0,0-33.6206,0l-6.4656,6.4656a23.7733,23.7733,0,0,0,0,33.6206L741.3128,586.14a23.7733,23.7733,0,0,1,6.9631,16.81V709.98a23.7735,23.7735,0,0,1-6.9631,16.81L668.2245,799.879a23.7741,23.7741,0,0,1-9.3737,5.77L456.3129,872.3531a23.7734,23.7734,0,0,1-15.9391-.3794l-103.972-39.8191a23.7734,23.7734,0,0,1-13.5494-13.319L257.3508,656.2109a23.7732,23.7732,0,0,1,4.6-25.0251L330.63,556.9383a23.7734,23.7734,0,0,1,34.2623-.6672l78.2117,78.2117a23.7733,23.7733,0,0,0,33.6206,0h0a23.7735,23.7735,0,0,0,0-33.6206L346.282,470.42a23.774,23.774,0,0,1-5.8035-9.4761l-54.574-168.27a23.7734,23.7734,0,0,1,10.0334-27.5062L512.2725,130.2494A23.7737,23.7737,0,0,1,530.3416,127.29Z" transform="translate(207.5 207.5)" style="fill:#020000"/></svg>