<?xml version="1.0" encoding="utf-8"?>
<svg width="1000px" height="1000px" viewBox="0 0 1000 1000" version="1.1" xmlns:xlink="http://www.w3.org/1999/xlink" xmlns="http://www.w3.org/2000/svg">
  <path d="M0 500C0 223.858 223.858 0 500 0C776.142 0 1000 223.858 1000 500C1000 776.142 776.142 1000 500 1000C223.858 1000 0 776.142 0 500Z" id="椭圆" fill="none" fill-rule="evenodd" stroke="none" />
  <path d="M484.655 601.561L400.216 513.286L680.345 267.725L730.258 321.432L484.655 601.561ZM849.181 851C937.456 762.725 995 639.924 995 501.778C995 229.363 772.456 6.77761 500 6.77761C227.544 6.77761 5 229.363 5 501.778C5 639.965 58.7075 762.725 150.819 851L219.871 781.906C146.983 709.018 104.784 613.07 104.784 501.819C104.442 283.843 280.869 106.862 498.844 106.52C499.229 106.52 499.615 106.52 500 106.52C717.976 106.224 894.92 282.687 895.216 500.663C895.216 501.021 895.216 501.379 895.216 501.736C895.216 609.193 849.181 708.976 780.129 781.865L849.181 851Z" id="形状" fill="#000000" fill-rule="evenodd" stroke="none" />
</svg>