<svg id="图层_1" data-name="图层 1" xmlns="http://www.w3.org/2000/svg" viewBox="0 0 1000 1000"><title>StackOverflow</title><rect width="1000" height="1000" style="fill:none"/><polygon points="184.047 608.438 184.047 875 783.734 875 783.734 608.438 717.078 608.438 717.078 808.344 250.641 808.344 250.641 608.469 184.047 608.469 184.047 608.438" style="fill:#bcbbbb"/><polygon points="616.391 125 562.641 164.906 762.328 433.281 815.953 393.375 616.391 125" style="fill:#f58025"/><polygon points="493.266 231.812 450.484 283.188 707.516 497.25 750.297 445.875 493.266 231.812" style="fill:#f58025"/><polygon points="394.828 371.344 366.547 431.969 669.734 573.125 697.984 512.5 394.828 371.344" style="fill:#f58025"/><polygon points="337.016 523.219 323.266 588.625 650.547 657.406 664.297 592.031 337.016 523.188 337.016 523.219" style="fill:#f58025"/><polygon points="317.328 675.094 317.328 741.656 650.453 741.656 650.453 675.094 317.297 675.094 317.328 675.094" style="fill:#f58025"/></svg>