<?xml version="1.0" encoding="utf-8"?>
<svg width="1000px" height="1000px" viewBox="0 0 1000 1000" version="1.1" xmlns:xlink="http://www.w3.org/1999/xlink" xmlns="http://www.w3.org/2000/svg">
  <path d="M0 500C0 223.858 223.858 0 500 0C776.142 0 1000 223.858 1000 500C1000 776.142 776.142 1000 500 1000C223.858 1000 0 776.142 0 500Z" id="圆" fill="#FFFFFF" fill-rule="evenodd" stroke="none" />
  <g id="编组" transform="translate(150.07892 240.99997)">
    <path d="M681.122 518.62L18.425 518.62C8.23602 518.55 0.010426 510.275 0 500.086L0 92.6695C0.0105513 82.48 8.2363 74.2059 18.4253 74.1357L183.344 74.1357L239.374 6.68811C242.85 2.42513 248.07 -0.0339226 253.571 0.000356108L446.429 0.000356108C451.915 0.0311133 457.109 2.47761 460.626 6.6878L516.656 74.1354L681.575 74.1354C691.764 74.2058 699.99 82.48 700 92.6692L700 500.086C699.547 510.265 691.392 518.62 681.122 518.62L681.122 518.62ZM36.8501 481.552L662.848 481.552L662.848 111.197L507.745 111.197C502.26 111.169 497.067 108.725 493.549 104.516L437.519 37.0682L262.028 37.0682L205.998 104.516C202.521 108.777 197.301 111.233 191.801 111.197L36.8501 111.197L36.8501 481.552L36.8501 481.552Z" id="形状" fill="#2E323F" fill-rule="evenodd" stroke="none" />
    <path d="M349.79 413.637C274.543 413.637 213.422 352.018 213.422 276.475C213.422 200.925 274.543 139.306 349.79 139.306C425.038 139.306 486.159 200.925 486.159 276.475C486.159 352.013 425.038 413.637 349.79 413.637L349.79 413.637ZM349.79 173.495C293.425 173.495 247.549 219.639 247.549 276.335C247.549 333.03 293.425 379.175 349.79 379.175C406.156 379.175 452.032 333.03 452.032 276.335C452.032 219.639 406.156 173.495 349.79 173.495L349.79 173.495Z" id="形状" fill="#2E323F" fill-rule="evenodd" stroke="none" />
  </g>
</svg>