<svg id="图层_1" data-name="图层 1" xmlns="http://www.w3.org/2000/svg" viewBox="0 0 1000 1000"><title>SwissTransfer</title><g id="Group-3"><path id="Rectangle-Copy-15" d="M387.2536,83.2575,845.5869,224.2832A41.6665,41.6665,0,0,1,875,264.1073V718.585a41.6668,41.6668,0,0,1-53.92,39.8242L362.7464,617.3835a41.6667,41.6667,0,0,1-29.4131-39.8241V123.0816a41.6668,41.6668,0,0,1,53.92-39.8241Z" style="fill:#a9e0c2;fill-rule:evenodd"/><path id="Rectangle-Copy-10" d="M283.0869,162.4242,741.42,303.45a41.6667,41.6667,0,0,1,29.4131,39.8242V797.7517a41.6665,41.6665,0,0,1-53.92,39.8241L258.58,696.55a41.6667,41.6667,0,0,1-29.4131-39.8241V202.2483a41.6665,41.6665,0,0,1,53.92-39.8241Z" style="fill:#61cb90;fill-rule:evenodd"/><path d="M178.92,241.5908,637.2536,382.6165a41.6665,41.6665,0,0,1,29.4131,39.8241V876.9184a41.6668,41.6668,0,0,1-53.92,39.8241L154.4131,775.7169A41.6667,41.6667,0,0,1,125,735.8927V281.415a41.6667,41.6667,0,0,1,53.92-39.8242Z" style="fill:#3cb572;fill-rule:evenodd"/><path id="Combined-Shape" d="M454.987,437.5067a36.2074,36.2074,0,0,1,9.2464,12.1619l82.0957,294.3556c6.1375,13.2422,1.9977,26.252-9.2464,29.0583a20.9305,20.9305,0,0,1-11.1128-.4967l-74.5246-22.5827,3.5417-103.19-67.4062,85.1851L249.1873,688.7238c-12.81-3.8814-23.1947-17.54-23.1947-30.5083a19.3647,19.3647,0,0,1,2.4037-9.6808L275.074,532.739c5.6788-9.9034,19.5909-10.451,31.0734-1.2231a36.1069,36.1069,0,0,1,10.5086,13.822l25.4494,43.3212,81.41-151.3278C429.6523,427.8083,443.7429,427.8868,454.987,437.5067Z" style="fill:#fff;fill-rule:evenodd"/></g><rect width="1000" height="1000" style="fill:none"/></svg>