<svg id="图层_1" data-name="图层 1" xmlns="http://www.w3.org/2000/svg" viewBox="0 0 1000 1000"><title>techDomain</title><rect width="1000" height="1000" style="fill:#fff"/><circle cx="138.9866" cy="607.0313" r="38.9866" style="fill:#0daf4a"/><path d="M323.222,636.65a157.798,157.798,0,0,1-20.7453,5.8856q-11.5875,2.5217-30.2512,2.5164-30.5842-.0085-45.83-16.8458-15.2781-16.8108-9.0467-47.1345L238.0134,480.08l-57.77-.0163,5.5106-26.931,57.77.0163,13.4322-65.6443,33.9824.01-13.4322,65.6443,69.6639.02-5.5107,26.931-69.6638-.02L250.9864,582.7641q-2.7606,13.4919,2.1469,22.725,4.872,9.2771,23.5925,9.2647,18.6771.0054,31.273-3.3577a105.4608,105.4608,0,0,0,22.1115-8.41Z"/><path d="M512.0818,577.7881q-9.6242,30.2964-37.1739,48.8048Q447.3,645.1275,415.0484,645.0921q-40.7789-.0116-61.7768-26.1084-21.028-26.0793-11.6987-71.543,9.2991-45.4461,40.974-71.528,31.6578-26.0644,72.4536-26.07,35.6816.01,53.97,22.74t7.6117,74.9084l-137.6287-.0389q-7.5807,37.0478,5.4648,52.1834,13.0285,15.1533,36.8295,15.16,18.6771.0052,32.4785-9.2489,13.7562-9.2278,20.9749-27.7683Zm-29.0687-57.24q1.3933-23.548-8.576-32.8265-10.0182-9.2346-28.69-9.2661a62.4594,62.4594,0,0,0-32.4784,9.2488q-15.5174,9.2713-27.1055,32.8165Z"/><path d="M708.2417,566.0605q-7.2327,35.3469-36.3474,57.2214-29.1315,21.8921-66.4952,21.864-37.394-.0107-59.2281-26.1077-21.8645-26.08-12.5483-71.5432,9.2992-45.4461,41.8236-71.5278,32.4942-26.0643,69.9049-26.0712,37.3541.0105,55.5084,19.3735,18.0977,19.38,12.6172,46.2939l-37.3807-.0106q2.4207-20.1987-8.76-27.7767-11.1936-7.5778-28.1847-7.5827-20.3895-.0059-40.6526,15.98-20.2818,16.0118-27.4959,51.3325-7.2327,35.3469,6.4866,51.342,13.6872,16.0213,34.1087,16.0009,22.062.0062,38.0924-11.7723,15.9852-11.7521,21.17-37.0263Z"/><path d="M871.223,641.8544l-33.9824-.01,24.7979-121.19q4.133-20.1983-3.6509-31.9834-7.7891-11.759-24.775-11.79-22.1018-.0063-46.278,22.7113-24.2028,22.7175-31.0778,56.3812L738.6917,641.817l-33.9824-.01,58.8949-287.8253,33.9824.01L770.0334,488.6468q17.3647-18.4937,35.59-28.6058,18.1949-10.0945,43.6949-10.0874,30.5841.0087,42.4321,16.8449,11.8443,16.8537,6.6817,42.084Z"/></svg>