<?xml version="1.0" encoding="utf-8"?>
<svg width="1000px" height="1000px" viewBox="0 0 1000 1000" version="1.1" xmlns:xlink="http://www.w3.org/1999/xlink" xmlns="http://www.w3.org/2000/svg">
  <g id="Tencent-Security">
    <path d="M500 0C500 -4.37114e-05 500 -4.37114e-05 500 -4.37114e-05C598.059 0.0328586 696.119 -0.0180703 794.178 0.0986633C806.74 0.113618 819.302 0.234293 831.863 0.39502C839.92 0.498112 847.977 0.663361 856.031 0.890106C866.772 1.19249 878 1.68201 888.75 2.48376C892.839 2.78873 896.924 3.15562 901.002 3.58792C904.528 3.96183 908.049 4.39856 911.56 4.90204C914.658 5.34642 917.748 5.85463 920.825 6.43094C923.584 6.94773 926.331 7.52947 929.062 8.18048C941.653 11.1827 954.117 15.8431 964.46 23.8023C965.928 24.9326 967.35 26.1266 968.717 27.3789C971.446 29.8802 973.939 32.6057 976.197 35.5394C982.585 43.84 986.867 53.5521 989.842 63.5437C992.264 71.6796 993.893 80.0424 995.098 88.4381C996.176 95.9568 996.952 103.682 997.516 111.247C997.879 116.108 998.177 120.975 998.414 125.844C999.085 139.622 999.43 154.441 999.605 168.13C999.766 180.69 999.886 193.25 999.901 205.811C1000.02 303.874 999.967 401.937 1000 500C1000 500 1000 500 1000 500C999.967 598.059 1000.02 696.119 999.901 794.178C999.886 806.74 999.766 819.302 999.605 831.863C999.502 839.92 999.337 847.977 999.11 856.031C998.807 866.779 998.318 877.994 997.516 888.75C997.211 892.839 996.844 896.924 996.412 901.002C996.038 904.528 995.602 908.049 995.098 911.56C994.654 914.658 994.145 917.748 993.569 920.825C993.052 923.584 992.471 926.331 991.82 929.062C988.817 941.653 984.157 954.117 976.198 964.46C973.94 967.394 971.447 970.118 968.718 972.62C967.351 973.873 965.929 975.067 964.461 976.197C954.118 984.156 941.655 988.817 929.063 991.819C926.333 992.47 923.586 993.052 920.827 993.569C917.75 994.145 914.66 994.653 911.562 995.098C908.051 995.601 904.531 996.038 901.004 996.412C896.927 996.844 892.842 997.211 888.753 997.516C878.005 998.318 866.773 998.807 856.036 999.11C847.982 999.336 839.926 999.502 831.87 999.605C819.31 999.766 806.75 999.886 794.189 999.901C696.126 1000.02 598.063 999.967 500 1000C500 1000 500 1000 500 1000C401.941 999.967 303.881 1000.02 205.822 999.901C193.26 999.886 180.698 999.766 168.136 999.605C154.423 999.43 139.643 999.086 125.847 998.414C113.348 997.806 100.834 996.875 88.4403 995.098C80.0444 993.894 71.6814 992.264 63.5453 989.842C53.5536 986.868 43.8412 982.586 35.5403 976.198C32.6062 973.94 29.8815 971.447 27.3797 968.718C26.1274 967.351 24.9334 965.929 23.8031 964.461C15.8436 954.118 11.1833 941.655 8.18085 929.063C7.52983 926.333 6.94808 923.586 6.43127 920.827C5.85496 917.75 5.34673 914.66 4.90234 911.562C4.39885 908.051 3.96211 904.531 3.5882 901.004C3.15588 896.927 2.78899 892.842 2.48401 888.753C1.68224 878.003 1.19263 866.776 0.890228 856.036C0.663466 847.982 0.49822 839.926 0.395111 831.869C0.23437 819.31 0.113649 806.749 0.0986938 794.189C-0.0180625 696.126 0.0328834 598.063 -2.18557e-05 500C-2.18557e-05 500 -2.18557e-05 500 -2.18557e-05 500C0.0328732 401.94 -0.0180639 303.881 0.0986633 205.821C0.113617 193.259 0.234293 180.697 0.39502 168.136C0.570393 154.431 0.91384 139.637 1.58554 125.847C1.82271 120.978 2.12122 116.111 2.4838 111.25C3.0479 103.686 3.82393 95.9576 4.90207 88.4402C6.10619 80.0443 7.73564 71.6813 10.1576 63.5452C13.132 53.5535 17.4145 43.8411 23.8023 35.5403C26.0606 32.6057 28.5526 29.882 31.2825 27.3797C32.6487 26.1273 34.0707 24.9333 35.5394 23.803C45.8822 15.8437 58.3451 11.1832 70.9367 8.18082C73.667 7.5298 76.4146 6.94804 79.1734 6.43124C82.25 5.85493 85.3399 5.34672 88.4383 4.90234C91.9488 4.39886 95.4694 3.96211 98.996 3.5882C103.073 3.15588 107.158 2.78896 111.247 2.48398C121.998 1.68214 133.223 1.19265 143.965 0.890228C152.018 0.663474 160.074 0.498219 168.13 0.395111C180.69 0.234369 193.25 0.113648 205.811 0.0986938C303.874 -0.0180561 401.937 0.0328979 500 0Z" id="Rectangle" fill="#2371F3" fill-rule="evenodd" stroke="none" />
    <path d="M792.069 270.732C769.843 251.706 669.044 179 500 179C330.864 179 230.249 251.706 208.023 270.732C207.193 271.468 200 277.81 200 277.81L200.369 312.646C200.461 316.139 202.951 398.22 239.102 500.706C287.15 637.202 371.165 745.295 484.783 812.854L500.092 821.861L515.586 812.854C629.204 745.295 712.85 637.202 760.898 500.706C796.957 398.22 799.631 316.139 799.631 312.646L800 277.81C799.908 277.902 792.899 271.468 792.069 270.732L792.069 270.732ZM499.908 753.292C327.175 642.166 278.85 438.296 264.464 342.886L500 575.986L735.997 342.886C721.518 438.296 671.442 642.166 499.908 753.292L499.908 753.292ZM499.908 474.143L260.129 305.385C265.939 301.156 355.211 238.654 499.908 235.161C644.882 238.654 734.338 301.157 740.148 305.385L499.908 474.143L499.908 474.143Z" id="Shape" fill="#FFFFFF" fill-rule="evenodd" stroke="none" />
  </g>
</svg>