<svg id="图层_1" data-name="图层 1" xmlns="http://www.w3.org/2000/svg" viewBox="0 0 1000 1000"><title>Tencent-HABO</title><circle cx="500" cy="500" r="500" style="fill:none"/><path d="M61.0018,630.2744l362.8657-184.53c38.7688-19.7152,62.7279-60.885,62.7279-107.7875V40L99.0921,237.0586C75.5505,249.03,61.0018,274.03,61.0018,302.51Z" style="fill:#c3d7f3"/><path d="M938.9981,630.2744l-362.8657-184.53c-38.7688-19.7152-62.7279-60.885-62.7279-107.7875V40L900.9079,237.0586c23.5416,11.9716,38.09,36.9711,38.09,65.4517Z" style="fill:#c3d7f3"/><path d="M61.0018,301.3882a128.02,128.02,0,0,0,94.9487,94.9487V530.3822L370.4229,667.7786V529.2651a83.0386,83.0386,0,0,1,17.8727,1.1171c62.2485,10.7728,92.6952,90.6783,98.3,106.1191V959.327a107.8359,107.8359,0,0,1-20.1068-1.1171c-37.45-5.64-62.501-29.8163-73.7249-42.4476V778.3659l-237.93-148.5668V792.8875c-17.059-5.553-54.4471-20.5558-79.31-58.0863a134.9573,134.9573,0,0,1-14.5216-29.0431Z" style="fill:#266bca"/><path d="M790.4314,435.4335c-95.0551,54.91-170.5059,67.7014-237.93,147.45a343.0942,343.0942,0,0,0-40.2136,59.2034v317.24a145.2541,145.2541,0,0,0,27.9261,0,169.98,169.98,0,0,0,37.9795-8.9364c23.7491-8.845,167.5344-97.0924,360.8051-224.5258V320.378C881.9152,377.6086,828.7163,413.3178,790.4314,435.4335ZM869.1,669.9034a11.1812,11.1812,0,0,1-5.4047,9.5735L624.1939,823.9862a11.1813,11.1813,0,0,1-16.9577-9.5735V782.4442a11.181,11.181,0,0,1,5.4048-9.5735L852.142,628.3614A11.1813,11.1813,0,0,1,869.1,637.935Zm0-131.8107a11.1811,11.1811,0,0,1-5.4048,9.5735L624.1942,692.1755a11.1813,11.1813,0,0,1-16.9577-9.5736V650.6335a11.181,11.181,0,0,1,5.4048-9.5735l239.501-144.5093A11.1813,11.1813,0,0,1,869.1,506.1243Z" style="fill:#266bca"/></svg>