<svg id="图层_1" data-name="图层 1" xmlns="http://www.w3.org/2000/svg" viewBox="0 0 1000 1000"><title>ThreatBook</title><path d="M500,48.5327c145.1519,0,274.2983,68.5058,356.8882,174.9436h59.741C827.0482,88.7773,673.8945,0,500,0,223.8576,0,0,223.8576,0,500A499.4393,499.4393,0,0,0,25.8657,659.1422H77.3876A450.4606,450.4606,0,0,1,48.5327,500C48.5327,250.6614,250.6616,48.5327,500,48.5327Z" style="fill:#2b75c8"/><path d="M974.1343,340.8578H922.6124A450.4606,450.4606,0,0,1,951.4673,500c0,249.3384-202.1289,451.4672-451.4673,451.4672-145.1519,0-274.2983-68.5058-356.8882-174.9435H83.3708C172.9519,911.2225,326.1055,1000,500,1000c276.1424,0,500-223.8577,500-500A499.4383,499.4383,0,0,0,974.1343,340.8578Z" style="fill:#2b75c8"/><path d="M635.393,611.5476v-6.3909a47.7416,47.7416,0,0,0-27.4423-43.08H389.564c-70.4715,0-129.3648-52.0723-140.12-119.6388a141.4134,141.4134,0,0,1-1.7609-22.2423V365.3573c0-78.0345,63.8465-141.881,141.8811-141.881H789.96A399.5306,399.5306,0,0,0,500,99.3228C278.7121,99.3228,99.3228,278.712,99.3228,500a399.3389,399.3389,0,0,0,32.8554,159.1422h455.62A47.7346,47.7346,0,0,0,635.393,611.5476Z" style="fill:#2b75c8"/><path d="M500,900.6772c221.2879,0,400.6772-179.3893,400.6772-400.6772a399.3385,399.3385,0,0,0-32.8554-159.1422h-455.62a47.7346,47.7346,0,0,0-47.5947,47.5946v6.3908a47.7414,47.7414,0,0,0,27.4423,43.08H610.436c70.4715,0,129.3648,52.0724,140.12,119.6389a141.4122,141.4122,0,0,1,1.7609,22.2422v54.8383c0,78.0346-63.8465,141.8811-141.8811,141.8811H210.04A399.5306,399.5306,0,0,0,500,900.6772Z" style="fill:#2b75c8"/></svg>