<svg id="图层_1" data-name="图层 1" xmlns="http://www.w3.org/2000/svg" viewBox="0 0 1000 1000"><title>Tianyi-Drive</title><path d="M228.6929,657.0559c-38.0427-19.8891-83.764-69.58-72.7714-126.7631,11.2818-58.6864,73.9227-81.6871,78.64-83.3352,50.4794-17.6349,94.1676,4.0863,102.1147,8.2163,5.9059-69.017,50.9771-122.5507,104.4623-131.4582,54.1917-9.0251,100.3426,30.54,105.636,35.212a144.989,144.989,0,0,1,37.5594,52.818c24.4412-32.1733,70.2575-38.3047,100.9411-15.2585,28.5791,21.4656,36.8426,62.8455,17.6056,95.0726,4.9562-1.7471,60.0767-20.1506,105.6361,14.0848,7.3328,5.51,33.5711,26.7766,39.9069,64.5553,5.6695,33.806-6.6052,68.8644-30.5171,90.3775-24.5458,22.0833-55.3843,24.5225-79.2271,26.409a181.384,181.384,0,0,1-34.6251-.5869,92.5908,92.5908,0,0,0,12.8445,16.4111c30.77,31.2424,86.7183,42.55,131.5248,22.3218,40.26-18.1758,56.5862-55.0686,63.3816-70.4239,23.9038-54.0147,8.8447-104.2571,4.695-117.3734-2.3254-7.35-26.8912-80.9236-98.5936-107.9835a150.9718,150.9718,0,0,0-44.6018-9.39c-.5024-5.646-6.3132-60.1042-56.3393-90.3775-49.7051-30.0794-100.2939-10.4027-105.6359-8.2161A189.1458,189.1458,0,0,0,434.096,246.2494c-15.2058,1.956-56.9783,7.8868-96.2462,41.0806a180.2985,180.2985,0,0,0-55.165,83.335,186.8174,186.8174,0,0,0-79.8138,7.0425c-9.1269,2.8983-79.82,26.7107-112.6782,98.5936-35.638,77.9635-3.9226,169.097,46.9493,218.3145,30.1672,29.1858,64.3544,41.0036,75.1188,44.6018,31.92,10.67,42.9391,5.3792,111.5047,7.0424,58.6694,1.4238,117.4238-2.4341,176.06,0,7.65.3176,28.0966,1.28,41.0806-11.7373A39.083,39.083,0,0,0,551.47,712.2216,42.8619,42.8619,0,0,0,544.4275,686.4c-12.6571-18.67-45.32-18.3387-78.64-17.6056-87.6388,1.9267-110.9278,3.3116-140.848,2.3475C275.7005,669.5541,251.0812,668.7607,228.6929,657.0559Z" style="fill:#23bafb"/><path d="M704.055,686.3993c-19.7268-9.8048-31.6936-19.4569-41.0807-30.5171a115.0153,115.0153,0,0,1-22.1754-41.0807h57.6279l-96.833-129.1106L504.7609,614.8015h68.6923c2.91,22.5114,14.4742,77.6144,62.5253,112.6782,55.0042,40.1381,120.6408,26.8879,148.07,21.3508A231.9634,231.9634,0,0,0,853.12,722.7847C829.0253,720.7108,758.0962,713.2589,704.055,686.3993Z" style="fill:#ff5876"/><rect width="1000" height="1000" style="fill:none"/></svg>