<svg id="图层_1" data-name="图层 1" xmlns="http://www.w3.org/2000/svg" viewBox="0 0 1000 1000"><title>TuneFind</title><circle cx="500" cy="500" r="500" style="fill:none"/><rect x="75" y="75" width="850" height="850" rx="255"/><path d="M495.75,177c-178.388,0-323,144.612-323,323a321.6588,321.6588,0,0,0,72.8074,204.2926l-32.26,32.26a61.82,61.82,0,0,0-54.5722,17.1722l-47.4373,47.4373a256.2731,256.2731,0,0,0,87.55,87.55l47.4373-47.4373a61.8653,61.8653,0,0,0,16.1068-59.4568l30.48-30.48A321.6476,321.6476,0,0,0,495.75,823c178.388,0,323-144.6121,323-323S674.138,177,495.75,177Zm0,590.75C347.8757,767.75,228,647.8742,228,500S347.8757,232.25,495.75,232.25,763.5,352.1257,763.5,500,643.6243,767.75,495.75,767.75Z" style="fill:#fff"/><path d="M497.45,538.25V299.4H528.9a80.8833,80.8833,0,0,0,10.2,16.15c15.5206,19.083,32.5453,21.7173,53.55,33.15,12.8891,7.0155,38.9069,21.1767,51,46.75,10.833,22.9084,6.1106,45.7088,2.55,62.9-8.8914,42.9291-34.4757,71.7485-49.3,85.85a77.4825,77.4825,0,0,0,5.95-11.9c5.6862-14.3447,5.1619-25.7114,5.1-39.95-.1912-43.9309,4.3127-47.6619-1.7-63.75a69.8243,69.8243,0,0,0-11.9-21.25c-21.352-25.3945-57.327-24.943-65.45-24.65V587.55a86.3392,86.3392,0,0,1-14.45,39.1c-18.0163,26-55.86,47.8233-93.5,35.7-26.4473-8.5183-54.5058-34.3468-53.55-68,1.027-36.16,34.8949-58.2093,58.65-65.45C461.3256,518.1479,491.5014,534.8076,497.45,538.25Z" style="fill:#fff"/></svg>