<svg id="图层_1" data-name="图层 1" xmlns="http://www.w3.org/2000/svg" viewBox="0 0 1000 1000"><title>Tuyu</title><path d="M867.177,434.5855c-2.5252-20.1911-19.1644-33.3552-26.4484-38.9548C532.2992,158.5213,359.5153,190.5662,359.5152,190.5662c-11.5624,2.1444-47.4932,10.0613-80.08-8.0849-22.8655-12.733-35.8485-33.7122-43.3459-49.98H132.5V867.4993H506.4506s33.2514.0046,34.53,0c33.3175-.1192,176.25-84.5452,271.83-253.5743,0,0,29.3265-51.8622,53.6314-164.6395A43.1171,43.1171,0,0,0,867.177,434.5855ZM562.286,610.25A124.95,124.95,0,1,1,687.1811,485.3,124.9225,124.9225,0,0,1,562.286,610.25Z" style="fill:#303f9f"/><ellipse cx="562.286" cy="485.3004" rx="62.4475" ry="62.4748" style="fill:#303f9f"/><rect width="1000" height="1000" style="fill:none"/></svg>