<svg id="图层_1" data-name="图层 1" xmlns="http://www.w3.org/2000/svg" viewBox="0 0 1000 1000.037"><title>unDraw</title><path d="M0,499.9813A498.3035,498.3035,0,0,0,40.2666,696.8747l1.6569,3.8166a500.8268,500.8268,0,0,0,544.8371,291.79q4.5044-.7987,8.9941-1.6568a495.543,495.543,0,0,0,90.4437-26.6716q7.1229-2.8624,14.142-5.932c3.1953-1.39,6.3906-2.8254,9.5562-4.3047A500.6126,500.6126,0,0,0,1000,499.9813c0-276.1389-223.8609-500-500-500S0,223.8423,0,499.9813Z" transform="translate(0 0.0185)" style="fill:#6c63ff"/><path d="M586.7606,992.4811q4.5044-.7987,8.9941-1.6568c1.9526-56.6716,8.6538-172.9881,31.5089-294.8076,12.5-66.6715,29.8519-135.0147,53.92-196.1093a610.3736,610.3736,0,0,1,28.21-61.8935c24.32-45.9319,53.8166-84.6006,89.5858-110.7988l-5.2663-7.1893q-44.6228,32.707-80.207,91.8343-10.6731,17.7072-20.5031,37.7811Q682.4631,471.12,672.9,495.2476q-6.102,15.3552-11.79,31.7752Q636.3462,598.317,619.009,689.7151q-3.839,20.1922-7.3077,41.3756C593.7872,840.5137,588.3878,941.6823,586.7606,992.4811Z" transform="translate(0 0.0185)" style="opacity:0.20000000298023224;isolation:isolate"/><path d="M700.34,958.2208c3.1952-1.3906,6.39-2.8254,9.5562-4.3047,3.0917-33.58,8.7721-75.2366,19.1568-114.7781a376.5567,376.5567,0,0,1,17.47-52.071C758.3729,759.33,773.7131,735.75,793.55,721.209l-5.2663-7.1745c-20.7692,15.2071-36.79,39.2456-49.1715,67.3668-13.95,31.6863-23.2545,68.565-29.4527,103.8017C705.0593,911.3716,702.16,936.6527,700.34,958.2208Z" transform="translate(0 0.0185)" style="opacity:0.20000000298023224;isolation:isolate"/><circle cx="848.7253" cy="282.5171" r="44.5097" style="opacity:0.20000000298023224;isolation:isolate"/><circle cx="834.3915" cy="665.6482" r="44.5097" transform="translate(-45.088 60.8423) rotate(-4.0651)" style="opacity:0.20000000298023224;isolation:isolate"/><path d="M672.02,357.2615c9.4386,53.25-11.3972,101.4678-11.3972,101.4678s-36.1387-38.1187-45.5773-91.3691,11.3973-101.4678,11.3973-101.4678S662.5816,304.0111,672.02,357.2615Z" transform="translate(0 0.0185)" style="opacity:0.20000000298023224;isolation:isolate"/><path d="M819.9444,483.6665C769.1531,502.239,718.1149,490.32,718.1149,490.32s31.3108-42.0308,82.1021-60.6033,101.83-6.6538,101.83-6.6538S870.7357,465.094,819.9444,483.6665Z" transform="translate(0 0.0185)" style="opacity:0.20000000298023224;isolation:isolate"/><path d="M828.5572,822.959c-35.6005,13.0179-71.4247,4.5257-71.4247,4.5257s21.8959-29.5982,57.4965-42.6161,71.4247-4.5257,71.4247-4.5257S864.1579,809.9411,828.5572,822.959Z" transform="translate(0 0.0185)" style="opacity:0.20000000298023224;isolation:isolate"/><path d="M287.8479,263.6c70.88-120.8115,211.1082-126.4419,211.1082-126.4419s136.6452-17.6266,224.3022,166.37c81.7035,171.5006,194.4647,337.0881,18.1536,377.2351l-31.8468-99.9884L689.8424,688.2074a683.9654,683.9654,0,0,1-75.4369,1.3006c-188.8147-6.1494-368.6322,1.7992-362.8424-66.5481C259.26,532.102,219.6474,379.8444,287.8479,263.6Z" transform="translate(0 0.0185)" style="fill:#2f2e41"/><path d="M574,558a226.2889,226.2889,0,0,0-17,101c4.2664,66.71,37.4437,112.2746,51,129L472,843,307,722c16.5114-9.6963,66.6406-42.0189,89-106a193.2943,193.2943,0,0,0,10-79Z" transform="translate(0 0.0185)" style="fill:#fff"/><circle cx="511.1588" cy="421.1917" r="172.1701" style="fill:#fff"/><path d="M58,733A500.6382,500.6382,0,0,0,204,903c100.3892,73.8091,202.7491,90.63,255,95,49.5405,4.1437,139.7167,4.2622,238-38a485.0194,485.0194,0,0,0,89-50c-2.44-12.4062-15.7259-73.1249-74-113-50.8722-34.81-103.4321-31.43-118-30-16.0152,14.2058-45.1493,35.9357-84,40C404.0292,818.0858,349.4677,684.7979,230,672,193.3258,668.0713,135.4051,673.8763,58,733Z" transform="translate(0 0.0185)" style="fill:#2f2e41"/><polygon points="318.092 257.94 459.207 184.018 654.08 214.259 694.399 392.337 594.035 388.475 566 323.05 566 387.394 519.683 385.615 492.809 281.458 476.002 392.337 311.369 388.976 318.092 257.94" style="fill:#2f2e41"/></svg>