<svg id="图层_1" data-name="图层 1" xmlns="http://www.w3.org/2000/svg" viewBox="0 0 1415 1415"><title>Vectorizer</title><rect x="207.5" y="207.5" width="1000" height="1000" style="fill:#337ab7"/><rect x="230.8541" y="275.1263" width="99.9368" height="99.9368" transform="translate(104.5347 339.5798) rotate(-22.4802)" style="fill:#fff"/><rect x="153.9463" y="90.3091" width="99.9368" height="99.9368" transform="translate(169.358 296.1291) rotate(-22.4802)" style="fill:#fff"/><rect x="307.1657" y="459.9435" width="99.9368" height="99.9368" transform="translate(39.666 382.8026) rotate(-22.4802)" style="fill:#fff"/><polygon points="802.964 1131.979 1023.876 598.129 931.533 559.917 742.75 1016.126 668.112 835.759 575.77 873.971 682.535 1131.978 682.535 1132.382 682.702 1132.382 682.751 1132.5 683.036 1132.382 802.464 1132.382 802.749 1132.5 802.797 1132.382 802.964 1132.382 802.964 1131.979" style="fill:#fff"/><path d="M861.3628,557.6325V121.8216L579.0694,427.0826A288.4922,288.4922,0,0,1,727.8174,445.55C806.3771,477.7376,847.3766,535.6752,861.3628,557.6325Z" transform="translate(207.5 207.5)" style="fill:#fff"/><circle cx="707.5" cy="707.5" r="707.5" style="fill:none"/></svg>