<svg id="图层_1" data-name="图层 1" xmlns="http://www.w3.org/2000/svg" viewBox="0 0 1000 1000"><title>Vranks</title><circle cx="500" cy="500" r="500" style="fill:none"/><path d="M807.6672,437.1556H189.3924V838.9139A36.0861,36.0861,0,0,0,225.4785,875H807.6672a36.0861,36.0861,0,0,0,36.086-36.0861V473.2417A36.0861,36.0861,0,0,0,807.6672,437.1556ZM817.29,812.4508a36.0861,36.0861,0,0,1-36.086,36.0861H251.9416a36.086,36.086,0,0,1-36.086-36.0861V499.7048a36.086,36.086,0,0,1,36.086-36.0861H781.2041a36.0861,36.0861,0,0,1,36.086,36.0861Z" transform="translate(0 0)" style="fill:#009a61"/><path d="M773.3309,128.7537a36.0862,36.0862,0,0,0-46.252-21.5676l-547.0784,199.12a36.0862,36.0862,0,0,0-21.5677,46.252l41.552,114.163,614.898-223.8045ZM215.8068,432.8189l-22.36-61.4333c-7.6018-20.8859,2.5589-42.6758,23.4449-50.2776l3.686-1.3416,119.32,67.887Zm152.347-55.4568L248.836,309.4812l94.6021-34.4323,119.3124,67.8828Zm122.8666-44.72L371.6963,264.7637l94.6021-34.4323,119.3124,67.8828Zm122.86-44.7175-119.324-67.8786,94.6021-34.4323,119.3187,67.8805Zm3.5363-112.596,90.9222-33.093c20.88-7.6,42.67,2.5612,50.2691,23.4408l22.36,61.4333-44.2334,16.1Z" transform="translate(0 0)" style="fill:#009a61"/><path d="M414.2,564.5528c0-22.2263,18.3036-32.6846,39.2269-32.6846,6.5356,0,14.3809,1.31,20.9232,5.2258l149.0489,86.2925a37.0417,37.0417,0,0,1,0,65.3692L474.3429,775.0549c-6.5356,3.9227-13.0711,5.2325-20.9232,5.2325-20.9166,0-39.2269-10.4583-39.2269-32.6846v-183.05Z" transform="translate(0 0)" style="fill:#009a61"/></svg>