<svg id="图层_1" data-name="图层 1" xmlns="http://www.w3.org/2000/svg" viewBox="0 0 1000 1000"><title>W3School</title><rect width="1000" height="1000" style="fill:none"/><path d="M150.6083,336.46,518.0866,125,849.3917,311.1054V687.3733L520.7911,875,187.12,687.2042V516.65h87.8972V640.044l243.07,139.6213L760.6491,640.72V358.7728L518.0866,219.8275,317.9514,335.9533l66.43,40.5684L530.933,295.8929l35.497,56.288-27.3833,103.448c49.5614-14.8536,101.9188,1.3407,129.9865,39.49,42.2826,57.47,2.4856,128.12-.9931,134.0644-29.7435,50.8239-85.67,64.0133-113.21,70.508a221.1235,221.1235,0,0,1-75.1141,4.4159V629.5639s42.3722,2.0906,56.2879,0c21.0259-3.1587,39.2522-6.3874,54.26-21.2981,3.54-3.5175,25.4206-25.2569,18.1922-50.5833-7.38-25.8573-38.5071-32.3463-40.7158-32.7713-20.03-3.8545-36.1116,5.0042-48.66,11.9169a109.1612,109.1612,0,0,0-36.8281,33.4052l-31.947-52.2314L476.1663,413.54,379.8174,469.32Z" style="fill:#c1272d"/></svg>