<svg id="图层_1" data-name="图层 1" xmlns="http://www.w3.org/2000/svg" viewBox="0 0 1000 1000"><title>Wallhaven</title><rect x="125" y="125" width="750" height="750" rx="100" style="fill:#f2f2f2"/><rect width="1000" height="1000" style="fill:none"/><path d="M632.3327,668.2639l-3.5923,16.764a175.2391,175.2391,0,0,1-23.3541,1.8q-10.7767,0-32.9335-2.3949a308.32,308.32,0,0,0-31.736-1.8q-22.1567,0-32.3306,4.1952,10.1739-29.3412,26.938-93.4163l22.76-88.0236-79.0387,2.9978q-12.5856.6029-42.5213,2.9894-28.7384,113.1822-66.1684,150.9012T293.4183,700a69.1452,69.1452,0,0,1-36.2327-9.8809q-16.4667-9.885-16.4625-23.0526a15.0229,15.0229,0,0,1,5.6857-11.9743q5.6772-4.7855,11.6812-4.79,11.3671,0,23.3457,16.1611,6.5815,8.9932,11.0783,11.9827a19.6387,19.6387,0,0,0,11.0783,2.9894q16.7682,0,31.7361-19.7618,14.972-19.7576,28.7383-59.2769,13.7662-39.5153,40.7209-140.116l28.7467-106.588q-59.8883,0-88.3251,19.46Q316.76,394.6221,316.764,416.77q0,11.38,7.7875,22.1566,7.1846,9.5836,7.1846,19.7618a17.9164,17.9164,0,0,1-5.3927,13.1717,18.6394,18.6394,0,0,1-13.7662,5.3843q-12.5856,0-18.8658-10.7769t-6.28-27.5409a81.6963,81.6963,0,0,1,11.3714-42.5129q11.38-19.1673,35.63-34.7338a143.6649,143.6649,0,0,1,53.5912-20.6578q29.3412-5.087,102.3928-5.0911-21.5538,44.3132-47.9056,150.8928,76.6438,0,121.56-5.3843,33.524-113.17,65.2641-147.3Q661.0626,300,707.7791,300q24.5432,0,38.0247,9.8809,13.4647,9.885,13.4731,22.4581a16.6912,16.6912,0,0,1-4.1952,11.38q-4.1951,4.7982-11.3713,4.79-12.5856,0-25.1544-14.3691Q705.38,319.1672,695.21,319.1672q-31.74,0-62.8776,87.4291-31.1373,87.4208-68.2619,259.8673,6.5817,0,21.5538,2.9978a94.448,94.448,0,0,0,18.5643,1.7919A150.6311,150.6311,0,0,0,632.3327,668.2639Z"/></svg>