<?xml version="1.0" encoding="utf-8"?>
<!-- Generator: Adobe Illustrator 23.0.1, SVG Export Plug-In . SVG Version: 6.00 Build 0)  -->
<svg version="1.1" id="图层_1" xmlns="http://www.w3.org/2000/svg" xmlns:xlink="http://www.w3.org/1999/xlink" x="0px" y="0px"
	 viewBox="0 0 1000 1000" style="enable-background:new 0 0 1000 1000;" xml:space="preserve">
<style type="text/css">
	.st0{fill:none;}
	.st1{fill:#FF0000;}
</style>
<title>Netease</title>
<circle class="st0" cx="500" cy="500" r="500"/>
<path class="st1" d="M390.1,449.5c-102.6-4.4-136.3-37.8-139.9-131.6c-1.3-34.9-5.6-71.3,2.2-104.4c4.6-19.3,30.6-33.5,46.9-50
	c11,18.2,25.1,35.3,32,55c4.8,13.6-0.2,30.7-0.7,46.3c-3,94.2,22.1,113.3,113.1,99.2c61.8-9.6,125.1-10.7,187.9-12
	c35.3-0.7,47.3-18,51.5-49c12.8-94.3-18.2-137.5-111-139.4c-62.5-1.3-125.2,11.1-187.9,12.6c-19.1,0.5-38.5-15-57.8-23.1
	c12.3-14.6,23.7-41,37-41.9c86.3-6.1,174.5-17.7,259.3-6.4c113.5,15.1,139.6,55.4,151.6,175.6c10,100.1-28.1,145.1-129,151.2
	c-30.8,1.9-61.7,1.6-92.6,2.7c-32.5,1.2-57.2,8.8-82.5,37.5C406.5,544.2,318,577.1,225.3,597.4c-31.7,7-63.1,0.8-66.7-36.4
	c-3.9-40.3,28.7-45.5,60-43.6C283.3,521.3,340.2,506.7,390.1,449.5z"/>
<path class="st1" d="M497.2,780.6c16.8-1.4,35.2-8,50.1-3.4c83.5,26,125.9,16.4,181.9-51.3c18.9-22.8,39.2-50,44.1-77.7
	c9.8-56.2-28.3-85.6-94.2-80.6c-21.4-57.4-67.8-67.3-118.5-28c-75.9,58.8-151.8,117.8-230.8,172.2c-29.4,20.2-66.6,33.6-102,38.9
	c-20.7,3.1-44.8-15.7-67.3-24.6c14.4-15.1,26.9-40.7,43.6-43.7c116.1-20.9,199.4-99.9,293.2-159.9c8.6-5.5,20.9-16.3,20.2-23.5
	c-5.8-60.4,36-50.5,72.8-54.3c83.8-8.6,155.4,24.4,211.4,77.7c27.4,26.1,36.2,79.6,39.4,121.7C850,760.8,727,892.4,608.6,899.8
	c-55,3.4-86.8-31.2-109.8-119.8L497.2,780.6z"/>
<path class="st1" d="M498.8,780c-27.4,14.3-54.6,29-82.3,42.9c-50,25.1-98.6,54.6-151.2,71.8c-19.4,6.4-48.4-16.7-73-26.4
	c12.9-20.3,22.2-54.2,39.4-58.8C366,773.6,476,697.1,584,614.7c21.2-16.2,71.2-32.4,76.8-24.9c31.5,41.3-18.6,53.5-38.3,74.1
	c-39.3,41-83,77.9-125.1,116.7C497.2,780.6,498.8,780,498.8,780z"/>
<path class="st1" d="M494.3,230.3c32.4,0,65.7-4.5,96.8,1.9c15.6,3.2,27.1,26.1,40.4,40.1c-16,10-31.3,26.9-48.1,28.6
	c-52.4,5.2-105.5,7.4-158.1,4.9c-20.4-1-54.2-14.7-57.2-28.2c-8.1-35.5,20.3-42.6,51.6-42.4c24.9,0.1,49.8-5.4,74.6-8.3
	C494.3,228,494.3,229.1,494.3,230.3z"/>
</svg>
