<svg id="图层_1" data-name="图层 1" xmlns="http://www.w3.org/2000/svg" viewBox="0 0 1000 1000"><title>WDL</title><circle cx="500" cy="500" r="500" style="fill:#fff"/><path d="M665.8326,488.3334c-22.5-15.8333-44.1666-27.5-65-35.8333,23.3333-39.1666,35-76.6665,39.1666-110h89.1665C726.6658,399.1669,702.4992,450,665.8326,488.3334Zm-96.6665,267.5L539.9994,755c2.5-30,5.8334-26.6665,9.1667-39.1665,2.2917-9.1667,13.3333-34.1666-11.6667-53.3333-6.2916-6.6666,27.5-15,20.8333-43.3332-6.875-32.5-65-38.3332-69.1665,3.3333a21.2494,21.2494,0,0,0,2.5,3.3334h-3.6334l-.825-1.6667H468.3745l-.7583-1.6666h-18.45c-4.0416-3.3333-5.8333,0-5.8333.8333H423.7s-8.7-5.8333-10.3666,0l-1.6667-.8333c-1.2083,0-4.1667,1.6666-4.1667,1.6666H389.1663L341.7914,523.3334C384.958,559.1667,440,580,500,580c57.7915,0,110.8331-19.1667,153.333-58.3333L569.366,755.833Zm-78.3832-86.6666c-.75,0-27.45-5-34.1166-13.3332-.625-.8334,6.6666-10,5-18.3333a17.8024,17.8024,0,0,1,6.6666-.8333L469.1246,635l18.4166-.8333.7417-1.6666h3.0083a11.3244,11.3244,0,0,1-2.125,2.5c-.55,1.6666-3.3333,2.5-3.3333,4.1666a2.7,2.7,0,0,0,.8333,2.5c1.2833.8333,3.3333,2.5,3.3333,2.5.1167,0,.8334,1.6666,0,1.6666l-.8333,1.6667A2.6723,2.6723,0,0,0,490,649.1665l.8334.8333c.2916,0-.8334,1.6667.8333,2.5,1.0333,1.6667,0,3.3334,1.6667,5.8333.7916,1.6667,9.1666,3.3334,9.1666,3.3334-.375,0,2.5,8.3333-11.6666,7.5h-.05Zm-27.4166,17.5,17.6749,5L466.1246,690ZM443.208,645.833S435,638.333,435,636.6664h6.875c-.3333,2.5,1.4584,9.1666,1.4584,9.1666ZM479.7,731.6662c-2.4084,9.1667-1.3667,21.6666-1.3667,23.3333H448.1246L395.2914,638.3331c5,0,14.7083-.8333,16.3749-.8333,1.3667,1.6666,3.3334,7.5,12.5,9.1666,1.45,0,0-.8333.8334,1.6667-.2084,1.6666,15.8333,23.3333,16.6666,25,1.1167.8333,1.6667,4.1667,1.6667,15C443.708,700,447.5,702.5,449.1663,705c12.875,9.1667,38.3333.8334,30.8333,26.6666ZM271.95,342.5h83.6749c4.75,35,17.7083,70,38.5416,105a259.21,259.21,0,0,0-65.8332,34.1666c-32.875-37.5-54.1666-85.8332-56.6666-139.1664Zm53.3416-156.6664c8.4167,5.8333,25.5416,18.3333,50.5416,29.1666A219.82,219.82,0,0,0,355,290a148.8589,148.8589,0,0,0-1.6667,21.6666c.2083,3.3333,0,6.6667,0,10H271.8666A226.9709,226.9709,0,0,1,325,185.8339ZM460.95,107.5007c-22.5,19.1667-52.6166,48.3333-75.95,88.3332-21.3833-9.1667-36.6666-20-45-25.8333a230.5136,230.5136,0,0,1,120.8331-62.5ZM430.033,211.6672c-8.6667-2.5-16.7-5-24.2-7.5,25.2083-43.3332,60.8333-74.1665,80.8332-90l-.05,105a334.0147,334.0147,0,0,1-56.6165-7.5Zm-55.0749,110c-.0833-3.3333.0417-6.6667.0417-10a114.0163,114.0163,0,0,1,.8333-19.1666,196.1541,196.1541,0,0,1,20-69.1666c8.4584,2.5,18.3334,5.8334,28.3333,8.3334a327.899,327.899,0,0,0,62.5,8.3333l-.05,81.6665ZM423.95,437.5l-9.7833,2.5c-19.7167-32.5-32.5-65-36.6666-97.5H486.6162V430a270.9512,270.9512,0,0,0-62.45,7.5Zm61.9165,120.8331C430.958,555,380.8331,532.5,343.3332,496.6666c11.95-7.5,33.3332-20.8333,61.6665-30.8333,21.0333,30.8333,47.5,61.6666,80.8332,92.5Zm-59.3249-99.1665A5.8212,5.8212,0,0,1,430,458.3334a218.9233,218.9233,0,0,1,56.6665-7.5L486.6162,530c-23.8249-24.1666-44.1166-47.5-59.95-70.8332Zm81.3332-8.3333a271.7466,271.7466,0,0,1,61.2916,12.5A513.7566,513.7566,0,0,1,507.5,535Zm81.5,20c20.5,7.5,40.6249,19.1666,61.4582,32.5-37.4666,31.6666-85,52.5-137.5,55,32.2082-30,57.5-60,75.8331-87.5ZM507.8745,342.5H619.1993c-4.4916,34.1666-17.5333,68.3332-38.3666,102.5-25.8832-8.3333-50-13.3333-73.3331-15Zm0-103.3332a268.98,268.98,0,0,0,88.7915-20.8333c11.9584,23.3333,20.8333,49.1666,23.3333,77.5A162.5031,162.5031,0,0,1,620.8326,315l.2084,6.6667H507.8745Zm0-124.1664c19.6583,15,52.9583,44.1666,78.7916,85A245.298,245.298,0,0,1,507.5,218.3338Zm146.7414,49.1666a324.0679,324.0679,0,0,1-48.7832,27.5c-18.375-30.8333-40.8333-55-58.3332-71.6665-.375,0-7.5-5.8333-15.8333-13.3333,46.9582,5.8333,89.1665,26.6666,123.3331,57.5Zm74.3416,157.5h-87L642.4993,315a227.4476,227.4476,0,0,0-21.6666-95c-1.3-3.3333-2.5-6.6667-4.1667-10a421.8758,421.8758,0,0,0,53.3333-30.8333,224.9272,224.9272,0,0,1,59.1665,142.5ZM500.3745,83.3341C362.5415,83.3341,250,195.0005,250,331.6669A249.6947,249.6947,0,0,0,316.6665,500L375.7,625c-5.1584,0-8.2.8334-14.0333.8334h.2083c-1.3333,0-2.7083,3.3333-1.875,7.5-.0417,3.3333.8333,6.6666,2.5,6.6666h.0417c.7416,0,15.7916-.8333,19.1249-.8333L434.45,755h-21.5l44.1749,161.6664h96.5L599.7077,755H580.6244l90.25-249.1662c48.9083-38.3332,79.1249-102.5,79.1249-174.1663C750.374,195.0006,638.3326,83.3341,500,83.3341Z"/></svg>