<svg id="图层_1" data-name="图层 1" xmlns="http://www.w3.org/2000/svg" xmlns:xlink="http://www.w3.org/1999/xlink" viewBox="0 0 1000 1000"><defs><linearGradient id="未命名的渐变_21" x1="378.3269" y1="707.8212" x2="378.3269" y2="144.315" gradientUnits="userSpaceOnUse"><stop offset="0" stop-color="#7bd635"/><stop offset="1" stop-color="#9ded67"/></linearGradient><linearGradient id="未命名的渐变_25" x1="672.7467" y1="855.685" x2="672.7467" y2="385.9834" gradientUnits="userSpaceOnUse"><stop offset="0" stop-color="#e5e7e8"/><stop offset="1" stop-color="#f5f5fe"/></linearGradient></defs><title>WeChat</title><circle cx="500" cy="500" r="500" style="fill:none"/><path d="M380.0487,144.315C206.0488,144.315,65,263.505,65,410.4625c0,80.1849,42.4125,152.3587,108.8225,201.1875a21.3874,21.3874,0,0,1,7.7213,24.1062l-14.1375,53.65c-.6888,2.5375-1.74,5.1113-1.74,7.7213a10.6063,10.6063,0,0,0,10.5125,10.6937,11.8178,11.8178,0,0,0,6.0537-1.9575l68.9838-40.3825a31.32,31.32,0,0,1,25.9912-3.5525,368.2975,368.2975,0,0,0,102.8412,14.6087c10.0051,0,19.6838-.9787,29.3988-1.8124-31.0663-93.4526,5.6912-180.2351,70.035-233.6676,61.7338-51.2937,140.7225-71.775,212.1713-66.6275C670.7738,244.5462,539.5488,144.3149,380.0487,144.315Z" style="fill:url(#未命名的渐变_21)"/><path d="M274.7062,282.1737c23.2726,0,42.1225,19.1763,42.1225,42.775a42.4125,42.4125,0,0,1-42.1205,42.7025h-.002a42.4125,42.4125,0,0,1-42.1227-42.7l0-.0384c0-23.5988,18.85-42.775,42.1224-42.775Z" style="fill:#858c8c"/><path d="M485.4275,282.1737c23.2725,0,42.1225,19.1763,42.1225,42.775a42.4125,42.4125,0,0,1-42.12,42.7025h-.002a42.4125,42.4125,0,0,1-42.1225-42.7005v-.002C443.305,301.35,462.155,282.1737,485.4275,282.1737Z" style="fill:#858c8c"/><path d="M679.0025,386.1025c-65.1413-1.885-135.7925,18.56-191.4,64.7425-62.35,51.765-97.4038,134.85-64.525,225.475C457.225,765.2413,555.97,829.6212,672.6225,829.6212a305.3784,305.3784,0,0,0,85.5862-12.18,26.1726,26.1726,0,0,1,21.6775,2.9725l57.42,33.5676a9.86,9.86,0,0,0,5.075,1.7037,8.8053,8.8053,0,0,0,8.7-8.9537c0-2.175-.8338-4.35-1.3775-6.4163L837.85,795.6188a21.1052,21.1052,0,0,1-.8338-5.655,17.7626,17.7626,0,0,1,7.2863-14.4275C899.62,734.9,935,674.725,935,608.0249c0-116.3625-106.2487-211.5912-241.28-220.69v-.0725c-4.8938-.3625-9.7875-.9788-14.7537-1.0875Z" style="fill:url(#未命名的渐变_25)"/><path d="M587.29,504.785c19.3937,0,35.1262,15.95,35.1262,35.5975a35.38,35.38,0,0,1-35.1244,35.6337H587.29a35.38,35.38,0,0,1-35.1262-35.6319v-.0018a35.3834,35.3834,0,0,1,35.1625-35.5975Z" style="fill:#858c8c"/><path d="M762.885,504.785c19.3937,0,35.1262,15.95,35.1262,35.5975a35.38,35.38,0,0,1-35.1244,35.6337h-.0018a35.38,35.38,0,0,1-35.1263-35.6319v-.0018C727.7587,520.735,743.4912,504.785,762.885,504.785Z" style="fill:#858c8c"/></svg>