<?xml version="1.0" encoding="utf-8"?>
<svg width="1000px" height="1000px" viewBox="0 0 1000 1000" version="1.1" xmlns:xlink="http://www.w3.org/1999/xlink" xmlns="http://www.w3.org/2000/svg">
  <defs>
    <path d="M1000 0L1000 0L1000 1000L0 1000L0 0L1000 0Z" id="path_1" />
    <clipPath id="clip_1">
      <use xlink:href="#path_1" />
    </clipPath>
  </defs>
  <g id="Wormhole" clip-path="url(#clip_1)">
    <path d="M1000 0L1000 0L1000 1000L0 1000L0 0L1000 0Z" id="Wormhole" fill="none" stroke="none" />
    <path d="M0 0L1000 0L1000 1000L0 1000L0 0Z" id="矩形" fill="none" fill-rule="evenodd" stroke="none" />
    <path d="M436 103C446.2 93.5 475.4 108.7 489.5 118C502.9 126.8 535.5 151.7 554.8 213.2C590.3 326.2 542.3 439.8 534.3 438.6C530.5 438 534.7 411.1 528.4 317.4C525.7 276.9 523.9 265.7 518.3 251.7C504.1 216 474.2 184.4 470.1 179.9C456.2 165.4 444.1 156.1 436.9 136C435.1 130.7 427.9 110.5 436 103L436 103Z" id="形状" fill="#FF9FE0" stroke="none" />
    <path d="M564 897C553.8 906.5 524.6 891.3 510.5 882C497.1 873.2 464.5 848.3 445.2 786.8C409.7 673.8 457.7 560.2 465.7 561.4C469.5 562 465.3 588.9 471.6 682.6C474.3 723.1 476.1 734.3 481.7 748.3C495.9 784 525.8 815.6 529.9 820.1C543.8 834.6 555.9 843.9 563.1 864C564.9 869.3 572.1 889.5 564 897L564 897Z" id="形状" fill="#FF9FE0" stroke="none" />
    <path d="M897 436C906.5 446.2 891.3 475.4 882 489.5C873.2 502.9 848.3 535.5 786.8 554.8C673.8 590.3 560.2 542.3 561.4 534.3C562 530.5 588.9 534.7 682.6 528.4C723.1 525.7 734.3 523.9 748.3 518.3C784 504.1 815.6 474.2 820.1 470.1C834.6 456.2 843.9 444.1 864 436.9C869.3 435.1 889.5 427.9 897 436L897 436Z" id="形状" fill="#FF9FE0" stroke="none" />
    <path d="M103 564C93.5 553.8 108.7 524.6 118 510.5C126.8 497.1 151.7 464.5 213.2 445.2C326.2 409.7 439.8 457.7 438.6 465.7C438 469.5 411.1 465.3 317.4 471.6C276.9 474.3 265.7 476.1 251.7 481.7C216 495.9 184.4 525.8 179.9 529.9C165.4 543.8 156.1 555.9 136 563.1C130.7 564.9 110.5 572.1 103 564L103 564Z" id="形状" fill="#FF9FE0" stroke="none" />
    <path d="M124.2 356.9C121.1 343.4 148.8 325.6 163.9 318.1C178.1 310.9 216.1 295.1 279.1 309.1C394.7 334.9 469.1 433.3 464 439.5C461.6 442.5 440.4 425.4 356.2 384C319.9 366.1 309.1 362.1 294.2 359.9C256.1 354.3 213.9 364.3 208 365.8C188.4 370.5 174.3 376.4 153.4 372.6C147.7 371.5 126.7 367.7 124.2 356.9L124.2 356.9Z" id="形状" fill="#FF9FE0" stroke="none" />
    <path d="M875.8 643.1C878.9 656.6 851.2 674.4 836.1 681.9C821.9 689.1 783.9 704.9 720.9 690.9C605.3 665.1 530.9 566.7 536 560.5C538.4 557.5 559.6 574.6 643.8 616C680.1 633.9 690.9 637.9 705.8 640.1C743.9 645.7 786.1 635.7 792 634.2C811.6 629.5 825.7 623.6 846.6 627.4C852.3 628.5 873.3 632.3 875.8 643.1L875.8 643.1Z" id="形状" fill="#FF9FE0" stroke="none" />
    <path d="M643.1 124.2C656.6 121.1 674.4 148.8 681.9 163.9C689.1 178.1 704.9 216.1 690.9 279.1C665.1 394.7 566.7 469.1 560.5 464C557.5 461.6 574.6 440.4 616 356.2C633.9 319.9 637.9 309.1 640.1 294.2C645.7 256.1 635.7 213.9 634.2 208C629.5 188.4 623.6 174.3 627.4 153.4C628.5 147.7 632.3 126.7 643.1 124.2L643.1 124.2Z" id="形状" fill="#FF9FE0" stroke="none" />
    <path d="M356.9 875.8C343.4 878.9 325.6 851.2 318.1 836.1C310.9 821.9 295.1 783.9 309.1 720.9C334.9 605.3 433.3 530.9 439.5 536C442.5 538.4 425.4 559.6 384 643.8C366.1 680.1 362.1 690.9 359.9 705.8C354.3 743.9 364.3 786.1 365.8 792C370.5 811.6 376.4 825.7 372.6 846.6C371.5 852.3 367.7 873.3 356.9 875.8L356.9 875.8Z" id="形状" fill="#FF9FE0" stroke="none" />
    <path d="M188.2 753.9C174.9 749.9 173.5 716.9 174.4 700.1C175.3 684.1 180.6 643.5 224.2 595.9C304.4 508.7 426.7 493.4 429.6 500.9C431 504.5 405.6 514.3 327.6 566.5C294 589 285.1 596.2 275.9 608C252 638.3 239.6 679.8 237.9 685.6C232.2 705 230.3 720 216.5 736.3C212.7 740.8 198.8 757.2 188.2 753.9L188.2 753.9Z" id="形状" fill="#FF9FE0" stroke="none" />
    <path d="M811.8 246.1C825.1 250.1 826.5 283.1 825.6 299.9C824.7 315.9 819.4 356.5 775.8 404.1C695.6 491.3 573.3 506.6 570.4 499.1C569 495.5 594.4 485.7 672.4 433.5C706.1 411 714.9 403.7 724.2 391.9C748.1 361.6 760.5 320.1 762.2 314.3C767.9 294.9 769.8 279.9 783.6 263.6C787.3 259.2 801.2 242.8 811.8 246.1L811.8 246.1Z" id="形状" fill="#FF9FE0" stroke="none" />
    <path d="M246.1 188.2C250.1 174.9 283.1 173.5 299.9 174.4C315.9 175.3 356.5 180.6 404.1 224.2C491.3 304.4 506.6 426.7 499.1 429.6C495.5 431 485.7 405.6 433.5 327.6C411 294 403.8 285.1 392 275.9C361.7 252 320.2 239.6 314.4 237.9C295 232.2 280 230.3 263.7 216.5C259.2 212.7 242.8 198.8 246.1 188.2L246.1 188.2Z" id="形状" fill="#FF9FE0" stroke="none" />
    <path d="M753.9 811.8C749.9 825.1 716.9 826.5 700.1 825.6C684.1 824.7 643.5 819.4 595.9 775.8C508.7 695.6 493.4 573.3 500.9 570.4C504.5 569 514.3 594.4 566.5 672.4C589 706.1 596.3 714.9 608.1 724.2C638.4 748.1 679.9 760.5 685.7 762.2C705.1 767.9 720.1 769.8 736.4 783.6C740.8 787.3 757.2 801.2 753.9 811.8L753.9 811.8Z" id="形状" fill="#FF9FE0" stroke="none" />
  </g>
</svg>