<svg id="图层_1" data-name="图层 1" xmlns="http://www.w3.org/2000/svg" viewBox="0 0 1000 1000"><title>WPS-Cloud</title><path d="M0,0V1000H1000V0ZM860,494,495,706V500L860,286Z" style="fill:none"/><polygon points="494.527 712.126 875 491.14 875 274.322 494.527 497.394 494.527 712.126" style="fill:none"/><polygon points="494.527 502.889 494.006 502.606 125 708.999 494.006 932.071 494.527 931.765 494.527 712.126 494.527 502.889" style="fill:#0157e4;isolation:isolate"/><polygon points="684.513 386.005 494.006 282.662 125 489.055 494.006 712.126 494.527 711.821 494.527 497.394 684.513 386.005" style="fill:#017fff;isolation:isolate"/><polygon points="875 274.322 739.489 274.322 739.489 567.491 674.858 607.386 869.145 712.126 875 708.999 875 274.322" style="fill:#0062d3;isolation:isolate"/><polygon points="494.006 67.929 125 274.322 494.006 497.394 874.479 274.322 494.006 67.929" style="fill:#2cacfc;isolation:isolate"/><polygon points="875 708.999 739.489 567.234 672.716 608.63 672.716 608.63 494.527 712.126 494.527 931.765 867.803 712.913 875 708.999" style="fill:#1950d3;isolation:isolate"/></svg>