<svg id="图层_1" data-name="图层 1" xmlns="http://www.w3.org/2000/svg" viewBox="0 0 1000 1000"><title>XunGuShiCi</title><circle cx="500" cy="500" r="500" style="fill:#1a6840"/><path id="诗" d="M377.6138,302.2921q21.9309-5.8242,34.4472-7.3691,12.5076-1.5425,18.3374-3.4278a33.3439,33.3439,0,0,1,9.94-1.8852q4.1133,0,12.6821,3.0849,8.5635,3.085,8.5689,9.2544a9.2838,9.2838,0,0,1-3.2559,6.855,16.93,16.93,0,0,1-8.7407,4.1133q-10.9733,2.0566-34.6187,20.5654a19.4817,19.4817,0,0,0,1.3711,7.8838q10.9659,3.43,17.1382,5.9981,6.1692,2.5707,6.1694,7.7119a24.7036,24.7036,0,0,1-1.3711,8.7407q-1.3732,3.5984-7.7119,3.5986a139.0792,139.0792,0,0,1-16.9663-1.3711q0,23.313,1.542,35.3042a196.2444,196.2444,0,0,1,1.5425,25.0215q0,26.735-6.855,43.7017-6.8606,16.9665-13.71,16.9668a4.2216,4.2216,0,0,1-3.4278-1.7139q-3.7756-5.4873-15.5952-14.396a49.67,49.67,0,0,1-16.9668-22.622,23.4586,23.4586,0,0,0-4.2842-7.712,66.4544,66.4544,0,0,0-6.3413-6.17q-3.7756-3.2534-3.77-3.77c0-.3428.2246-.5142.6856-.5142q1.3651,0,11.14,5.6553,9.7683,5.6558,15.938,7.1978a46.3654,46.3654,0,0,0,11.14,1.5424q4.9651,0,5.6558-2.2275.6826-2.2339.6855-23.1362,0-20.9034-1.371-48.6719-37.3638,10.2825-46.2725,18.166a46.7985,46.7985,0,0,1-13.3677,7.8838q-7.1982,2.7473-9.2544,2.7417-2.0567,0-2.0566-3.9414a108.8375,108.8375,0,0,1,1.2-12.8535q1.1967-8.9093,2.7422-11.9966,1.5425-3.0849,7.0263-3.7705a19.5439,19.5439,0,0,0,9.2544-3.4273q11.6486-9.2548,34.2759-22.9648,6.5069-9.9375,11.4824-13.3677,4.9651-3.4226,17.31-4.7988,8.5635-5.1408,8.5689-6.5122c0-.9107-.8033-1.3711-2.3995-1.3711q-8.5714,0-32.2192,8.3975-23.6507,8.403-58.9546,26.9067-9.2541,4.8039-17.48,4.7983-13.713,0-16.7954-11.9965-4.1133,7.5439-8.226,30.6772-4.1133,23.1357-4.1133,33.59,0,10.4591,1.7138,10.4541,1.0284,0,3.5992-4.2846,2.5707-4.2818,11.6538-15.938a159.297,159.297,0,0,0,15.2524-23.3076c.9107-1.5962,1.7139-2.3995,2.3994-2.3995s1.0284,1.66,1.0284,4.97q0,4.9731-4.4556,18.3379-4.459,13.3674-20.2232,48.3286-4.8039,10.6207-4.7983,16.2812,0,5.6557-1.8853,8.2261a5.5872,5.5872,0,0,1-4.6274,2.5708q-6.8606,0-12.6821-14.91-5.8316-14.91-5.8267-20.2226a76.4652,76.4652,0,0,1,1.0283-11.8252,80.1578,80.1578,0,0,0,.857-14.2241q-.1765-7.7124-.1714-15.4243,0-7.7124.6855-19.3658l1.0284-18.5092c0-1.1407-.3428-1.7139-1.0284-1.7139s-2.63,1.7139-5.8271,5.1416q-18.5091,19.8823-32.2193,19.88-10.2824,0-16.7949-11.9966a53.0258,53.0258,0,0,1-6.5127-25.7066q0-16.1073,4.4561-16.11c1.5957,0,2.5117,1.146,2.7422,3.4277q.6825,13.7131,6.8549,13.71,2.3943,0,8.3975-3.0845a117.76,117.76,0,0,1,17.31-6.6841q11.3108-3.5983,14.0527-5.6552,2.74-2.0566,2.7422-6.6841,0-4.6267,7.8838-6.855a53.9,53.9,0,0,1,14.5669-2.228q6.684,0,10.4541,6.3413,3.7676,6.3464,5.8271,17.9946l35.3042-14.396q21.5932-8.5635,28.106-23.65-18.1714-5.8242-25.1929-13.71-7.029-7.881-7.0263-11.6539,0-3.7676,6.1694-4.456,15.079-1.7109,34.6186-9.94,1.7118-27.763,1.7139-39.76,0-11.9942-1.8852-17.1382a20.4659,20.4659,0,0,0-6.1695-8.74q-4.29-3.5992-4.2846-7.5406a7.7424,7.7424,0,0,1,2.5708-6.17,10.3746,10.3746,0,0,1,7.0263-2.228q8.9092,0,21.08,7.8838,12.1626,7.8882,12.1675,19.5371a19.4184,19.4184,0,0,1-1.0279,6.1694q-2.748,9.9456-2.7421,26.05a7.943,7.943,0,0,0,1.8852,5.3125,6.5576,6.5576,0,0,0,5.3125,2.2281q13.705,0,21.08,5.9985,7.3667,6.0007,7.37,14.91,0,8.9172-14.7387,12.3393-9.2542,2.0566-24.336,9.2549A163.8054,163.8054,0,0,1,377.6138,302.2921ZM229.542,291.6666q18.509-12.6766,27.2495-20.5654,8.74-7.8808,10.9683-10.7969a9.0587,9.0587,0,0,0,2.2275-5.313q0-2.3935-2.7417-6.5122-11.3115-16.1074-11.311-17.6523,0-1.5417,2.0561-1.542a152.67,152.67,0,0,1,23.1363,2.0561q13.1909,2.0566,17.8237,4.7989a26.2891,26.2891,0,0,1,8.3974,8.5688q3.7677,5.8323,3.7706,9.083a24.3549,24.3549,0,0,1-1.8853,8.2266q-1.8882,4.9724-3.4277,6.5122-1.5426,1.5425-9.4258,2.5708-7.889,1.0283-27.4209,9.94-4.4583,2.0567-18.68,6.17Q236.0515,291.3239,229.542,291.6666Zm127.8491,106.94a31.6608,31.6608,0,0,1,15.0811,4.2846q7.8808,4.29,7.8838,10.1114,0,5.8322-2.3995,8.5688a8.6168,8.6168,0,0,1-6.8554,2.7422l-5.1411-.6856a19.9647,19.9647,0,0,0-7.0269,1.7139,20.3161,20.3161,0,0,1-5.6553,1.7139q-3.0849,0-12.5107-5.4844-9.4314-5.4785-9.4258-8.9116,0-3.4219,8.5689-8.74A32.8139,32.8139,0,0,1,357.3911,398.6071Z" style="fill:#fff"/><path id="寻" d="M721.2717,317.545q17.4814-1.7109,29.65-1.7138,12.1611,0,15.7656-1.0283A21.7366,21.7366,0,0,1,772,313.7745q6.5069,0,20.9082,10.2828,14.3965,10.2831,14.3965,16.7954,0,7.5432-13.0254,7.54a57.414,57.414,0,0,1-14.3945-2.0567q-31.5409-8.2257-42.16-8.226a153.4934,153.4934,0,0,0-18.8516,1.0283q-.3457,22.6223.8574,43.7017,1.1954,21.08,1.1992,36.5039,0,15.424-5.8261,42.8447-5.833,27.4182-13.711,27.42-3.0849,0-6.6836-4.1128-3.6006-4.1133-11.1406-8.2261a151.4232,151.4232,0,0,1-43.1875-35.99q-18.51-22.2766-18.5083-27.4209c0-.6856.2246-1.0283.6851-1.0283q1.7116,0,5.8271,4.7988a84.4529,84.4529,0,0,0,26.9063,21.5937q15.9375,8.2259,28.6211,8.2261,5.1415,0,7.3691-3.4272,2.2236-3.4307,3.2559-16.11,1.0282-12.6768,1.0273-34.9614a290.9343,290.9343,0,0,0-4.7969-49.7,268.8025,268.8025,0,0,0-42.16,10.9682q-23.3115,7.8882-73.0074,29.4771-10.6281,4.8039-17.1381,4.7988-11.6565,0-11.6539-16.11,0-12.3391,10.2828-12.3394l7.8838,1.0283a27.9466,27.9466,0,0,0,9.5971-2.0566q31.8765-12.3392,55.1841-19.88,23.3057-7.5351,59.2969-15.7671,1.0283-8.2258-3.9414-9.4258a42.3665,42.3665,0,0,0-9.9395-1.2q-4.9746,0-13.7109,2.5708a56.692,56.692,0,0,0-15.252,6.855q-6.5156,4.29-8.2265,4.2847c-1.1465,0-1.7149-.1123-1.7149-.3428q0-.6827,3.4278-3.085,20.5664-11.9934,29.1347-19.88-13.7139,1.719-29.1347,12.3394a26.4209,26.4209,0,0,1-15.7666,5.4844,22.1173,22.1173,0,0,1-14.91-5.8272q-6.6841-5.8242-6.6841-11.4824,0-5.6558,3.4277-8.9116a12.7615,12.7615,0,0,1,8.0547-3.5991q4.6275-.3369,15.253-8.0547a215.926,215.926,0,0,0,19.8808-16.2813q-10.9746,3.7756-17.1387,3.77-6.17,0-15.767-8.226-9.6-8.2266-9.5972-12.3394,0-7.5351,27.5928-15.5957,27.5859-8.0493,37.0175-8.0547,9.4219,0,20.5645,6.3408,11.1357,6.3465,11.1406,12.5108,0,10.9738-26.0508,19.5376-26.0508,8.5714-56.2114,28.4487,5.1409.6908,14.7388-3.085,26.3905-10.2823,42.8437-13.0249a31.419,31.419,0,0,0,14.3965-5.8266,35.0924,35.0924,0,0,0,9.7695-12.168q3.9347-7.7116,7.0254-23.65,3.0851-15.9382,3.086-23.8218,0-5.4784-5.4844-5.4838a8.2175,8.2175,0,0,0-4.7988,1.7138q-19.5381,13.7124-34.1055,13.71-14.5722,0-19.0215-3.5986-4.4589-3.5993-13.1972-12.3394t-8.74-11.311q0-2.5709,5.3125-2.5708t7.7129-1.0284q28.0986-9.2541,49.0137-9.94,5.4784,0,12.5117-3.77a28.6223,28.6223,0,0,1,13.5391-3.77q14.3935,0,28.1054,11.6538,13.7051,11.6565,13.711,23.65a14.68,14.68,0,0,1-5.1426,11.6538q-5.1415,4.4583-9.7676,13.1958-4.6289,8.7407-12.5117,27.5923-7.8867,18.8539-7.8828,20.0512c0,.8033.7383,1.8316,2.2285,3.085q2.2236,1.8875,2.2266,5.998,0,6.8607-6.5118,6.8555-6.5156,0-8.5683,5.8267Q722.6389,310.35,721.2717,317.545Zm-73.35,55.5269a39.2433,39.2433,0,0,1,21.252,6.5122q10.28,6.5157,10.2812,16.11,0,12.0014-16.1094,16.1093a9.7432,9.7432,0,0,0-4.7988,4.6275Q656.49,420.03,646.8948,420.03a91.3991,91.3991,0,0,1-10.9688-1.0283q-7.544-1.0284-7.541-2.5708,0-1.5425,7.8828-8.3975,2.7393-2.3943,2.7422-4.7988,0-5.1408-14.0527-6.5122-5.4865-.6834-5.4839-5.8272,0-5.1408,8.5679-11.4824A32.53,32.53,0,0,1,647.9221,373.0719Z" style="fill:#fff"/><path id="词" d="M308.0332,650.75q0,3.7749-3.0845,9.9394-11.3115,22.2847-15.4243,34.1045-4.1133,11.8257-4.1133,20.3945,0,8.5708,1.7139,8.5684,1.0282,0,2.9136-5.3125,1.88-5.31,3.5991-5.6553,3.7676-1.3652,5.1411-6.5127,1.3661-5.1415,2.228-5.1416c.5679,0,1.0821.5733,1.5425,1.7139a10.618,10.618,0,0,1,.6856,3.9424q0,2.2325-3.9419,10.4541-3.9441,8.2251-7.8833,26.5635-3.9448,18.34-3.9419,26.05,0,7.7124,1.2,9.9394a9.9835,9.9835,0,0,1,1.2,4.7988,4.703,4.703,0,0,1-2.3994,4.1133,8.3732,8.3732,0,0,1-4.4556,1.542q-6.17,0-14.396-12.6816-8.2266-12.6768-8.2261-40.1026a272.2963,272.2963,0,0,1,1.7134-30.163l3.085-26.05c0-.91-.23-1.371-.6856-1.371q-2.4015,0-13.3676,9.5976-17.4809,15.769-31.02,15.7666-13.5439,0-21.4223-15.2529-7.8889-15.2476-7.8833-22.45,0-7.1982,7.0263-13.1963,7.0211-5.9927,8.74-5.998,1.7117,0,1.7138,1.5419,0,1.5426-2.7422,4.7989a11.3522,11.3522,0,0,0-2.7417,7.541,10.6485,10.6485,0,0,0,2.0567,6.8545,6.6642,6.6642,0,0,0,5.4839,2.5713q5.4785,0,31.3623-11.6543,25.8757-11.6485,27.935-17.48,1.0284-3.4218,5.4839-5.6553a24.3761,24.3761,0,0,1,10.9683-2.2285q6.5076,0,14.2246,5.1416Q308.0337,644.9233,308.0332,650.75Zm-25.7065-99.7432q5.1408,0,22.4506,2.9131,17.3035,2.9164,23.1363,10.626,5.8242,7.7124,5.8266,13.0244,0,5.3188-4.97,8.9121a21.499,21.499,0,0,1-11.8247,3.9414,48.729,48.729,0,0,0-13.0249,2.3994q-6.17,2.0566-26.2212,10.2832t-23.8218,8.2256c-.9155,0-1.3711-.2246-1.3711-.6855q0-1.3653,5.8272-6.3409,5.8242-4.9643,16.9663-15.9384,11.1343-10.9644,12.168-13.0245a9.1271,9.1271,0,0,0,1.0283-4.1132q0-5.1417-7.5405-14.0528-2.4024-3.0849-2.3994-4.6279C278.5562,551.5219,279.81,551.0072,282.3267,551.0072ZM333.74,692.224q39.4116-18.51,49.8716-18.5088,10.4509,0,21.08,7.7119,10.62,7.7124,10.6255,15.253,0,3.7749-3.9419,6.1689-3.9441,2.4024-8.0547,12.34-4.1133,9.9448-4.1133,14.5674,0,4.626.6856,5.8262a5.1378,5.1378,0,0,1,.6855,2.5713q0,4.8032-7.8833,6.3408-7.889,1.5424-33.59,10.1113-9.9456,3.4307-16.9668,3.4278-7.029,0-11.4824-7.7119-4.4583-7.7124-9.4258-28.1065-4.9723-20.3892-4.97-30.6767,0-10.2833,5.4839-13.711l11.311-8.5683a80.0963,80.0963,0,0,0,6.3413-5.4844,3.0673,3.0673,0,0,0,.5137-1.8848q0-1.1982-2.2276-2.5713-2.233-1.3652-5.9985-10.2822-3.7757-8.9093-3.77-10.4541c0-1.0283.5674-1.543,1.7134-1.543l3.4277.3428q6.8524,0,20.7368-3.2559,13.8816-3.2534,20.394-7.0263,2.3943-1.3668,8.9122-1.3711a57.1464,57.1464,0,0,1,14.7382,2.2275q8.2266,2.2339,10.2828,7.7119a27.0852,27.0852,0,0,1,2.0566,9.083,5.6121,5.6121,0,0,1-3.4273,5.3135,20.3947,20.3947,0,0,1-9.0834,1.7139q-5.6551,0-16.2808,4.7978A183.4366,183.4366,0,0,0,359.79,668.2308q-10.9739,6.86-15.0815,8.9112a36.7,36.7,0,0,1-9.2544,3.0849q-5.1415,1.0284-5.1416,4.4561Q330.3125,688.1137,333.74,692.224ZM330.6553,678.17q1.3659,0,6.3413-4.2842a49.6731,49.6731,0,0,0,6.5122-6.3408q1.5424-2.0566.3428-2.0567-1.205,0-7.3692,3.9415-6.17,3.9447-6.17,8.0546C330.3125,677.9457,330.4253,678.17,330.6553,678.17Zm18.852,52.4424q14.7327-2.3935,22.1079-11.6533,7.3668-9.255,7.3692-13.0254,0-3.7677-1.5425-3.77a6.4428,6.4428,0,0,0-2.9136.6855q-10.6281,5.833-28.7915,10.9687A108.0665,108.0665,0,0,1,349.5073,730.6127Zm113.7959-125.792a16.4465,16.4465,0,0,1-1.0283,5.8262q-2.0566,5.1416-3.5991,27.4208-1.5425,22.2848-1.5425,44.2159,0,21.9389,1.0283,36.8466,1.0284,14.9108,1.0283,27.2491,0,33.5961-7.541,49.5293-7.5432,15.9375-12.6816,15.9375-2.0566,0-4.7988-2.3985-9.9456-9.2549-18.1661-13.7109a196.1964,196.1964,0,0,1-20.9082-13.71q-12.6848-9.2548-12.6821-11.997c0-1.8262,1.2529-2.7422,3.77-2.7422a50.9238,50.9238,0,0,1,10.1114,1.3711,62.97,62.97,0,0,0,13.3676,1.3711,39.1044,39.1044,0,0,0,11.8252-1.542,19.9792,19.9792,0,0,0,7.7124-4.2842,10.1172,10.1172,0,0,0,3.2559-6.6846q.3376-3.936.6855-12.3388.3376-8.3951.3428-18.6807l-1.7139-61.3535q0-9.9375,1.5425-29.1348,1.5425-19.1909,1.5425-27.7627,0-8.5648-1.5425-11.4824-1.5425-2.9092-7.8833-5.6563a32.9639,32.9639,0,0,0-13.1963-2.7421q-14.058,0-19.1943,8.5693a27.4907,27.4907,0,0,1-8.3975,8.2266q-4.9731,3.0849-8.0551,3.0849c-2.0567,0-3.315-.2256-3.77-.6855q-4.4589-3.4234-15.4243-3.4278-4.8039,0-5.8271,1.0284-3.0843,3.0849-4.2842,3.0849c-.8032,0-1.2-.7988-1.2-2.3994q0-11.6484,7.1977-16.624,7.1983-4.9644,27.0782-12.168,19.8743-7.1982,34.4472-7.1982,14.5642,0,31.5337,11.4824Q463.3031,592.83,463.3032,604.8207Z" style="fill:#fff"/><path id="古" d="M721.4438,549.4652Q742.3472,579.6308,760.69,599.85a309.61,309.61,0,0,0,43.3594,39.0752q5.1417,4.1118,5.1406,8.9111a10.0552,10.0552,0,0,1-3.9414,8.0547q-3.9434,3.2622-10.9687,2.3994a143.884,143.884,0,0,0-16.9668-.8564,218.7255,218.7255,0,0,0-49.6992,5.998q-25.708,6.0015-45.2442,16.2813-12.6855,30.1655-12.6816,54.498,24.331-13.7051,38.2168-19.5371,13.8808-5.8242,24.85-5.8272,10.9657,0,23.4805,12.34,12.5068,12.34,12.51,21.5937a10.9521,10.9521,0,0,1-2.7422,7.5411q-16.7988,18.5082-30.8476,44.2158,8.9091,11.9927,8.9121,18.166,0,6.17-3.0859,9.083a9.7839,9.7839,0,0,1-6.8555,2.9131,14.4326,14.4326,0,0,1-6.5117-1.3711q-10.9746-5.8315-37.3614-8.5684a19.1352,19.1352,0,0,1-10.9668-4.6279,12.3407,12.3407,0,0,1-4.457-9.5967q0-5.6557,3.4277-8.5693,3.4219-2.9151,15.4239-6.3408,22.2772-6.8526,30.6777-23.3077,8.3936-16.4515,8.3965-21.9365,0-5.4785-4.627-5.4843-4.6259,0-16.9668,7.1982a114.2373,114.2373,0,0,0-24.5058,19.88q-12.1728,12.6855-15.2539,23.9931.6827,14.3965.6855,24.6788,0,10.2831-1.3711,13.1962-1.374,2.9077-5.1406,2.9131-7.1982,0-18.166-14.5674Q636.4341,797.6166,636.44,787.682q0-27.4175,17.4805-89.46-38.3913,20.9108-49.0141,29.82-5.1417,4.4574-16.2813,4.455-11.1423,0-22.6221-7.0263-11.4873-7.0211-16.2807-17.4805-4.8041-10.4517-4.7989-13.8818c0-2.2813.3965-3.8243,1.2-4.627q1.1968-1.1967,6.3409-1.8857,47.9838-6.5068,109.3393-25.3633,3.4248-17.4814,5.8281-39.0752a263.9,263.9,0,0,1,6.8555-38.3887q4.45-16.79,11.1387-28.1064,6.6855-11.31,13.7109-15.9385,7.02-4.626,11.4824-4.627Q719.3823,536.097,721.4438,549.4652Zm40.1036,83.9756q-5.1417-16.1074-43.1875-75.75-6.17,7.1982-6.17,21.9365a62.8955,62.8955,0,0,0,1.0274,10.4541,72.9527,72.9527,0,0,1,1.0293,12.34q0,6.3456-5.3125,17.9941-5.32,11.6573-15.2539,30.1631A255.3275,255.3275,0,0,1,761.5474,633.4408Z" style="fill:#fff"/></svg>