<svg id="图层_1" data-name="图层 1" xmlns="http://www.w3.org/2000/svg" viewBox="0 0 1000 1000"><title>8kmm</title><rect width="1000" height="1000" style="fill:#3180c4"/><path d="M625,269.82V0H375V269.82C280.26,316.1346,215,413.4406,215,526c0,144.095,106.9439,263.1923,245.7863,282.3023A287.2045,287.2045,0,0,1,345,765V551L500,431,655,551V765a288.0687,288.0687,0,0,1-122.708,44.1682C674.4861,793.129,785,672.4806,785,526,785,413.4406,719.74,316.1346,625,269.82Z" transform="translate(0 0)"/><path d="M0,0V1000H1000V0ZM635,765c-21.27,13.8155-79.1826,47.42-160,46a286.1,286.1,0,0,1-150-46V551L480,431,635,551Z" transform="translate(0 0)" style="fill:none"/><path d="M325,551V765a286.1,286.1,0,0,0,150,46c80.8174,1.42,138.73-32.1845,160-46V551L480,431Z" transform="translate(0 0)" style="fill:none"/><path d="M445.7255,808.9416c-1.2544-.1536-2.5116-.3044-3.7508-.473Q443.8461,808.718,445.7255,808.9416Z" transform="translate(0 0)" style="opacity:0.33"/><path d="M510.427,809.3814c-1.0556.1151-2.1273.2125-3.1932.3164C508.3,809.5967,509.3647,809.4942,510.427,809.3814Z" transform="translate(0 0)" style="opacity:0.33"/><path d="M451.4886,809.5844c-.4527-.046-.906-.0912-1.3568-.1391Q450.81,809.516,451.4886,809.5844Z" transform="translate(0 0)" style="opacity:0.33"/><path d="M501.6347,810.1876c.1655-.0125.3314-.024.4968-.0367C501.9667,810.1639,501.8,810.1748,501.6347,810.1876Z" transform="translate(0 0)" style="opacity:0.33"/><path d="M451.4886,809.5844c7.5841.77,15.4148,1.2733,23.5114,1.4156,9.1864.1614,18.06-.1493,26.6347-.8124Q490.9222,810.9916,480,811,465.5649,811,451.4886,809.5844Z" transform="translate(0 0)" style="opacity:0.33"/><path d="M450.1318,809.4453c-1.4732-.1534-2.94-.3279-4.4063-.5037Q447.9136,809.2095,450.1318,809.4453Z" transform="translate(0 0)" style="opacity:0.33"/><path d="M512.292,809.1682c-.622.07-1.2418.147-1.865.2132C511.0516,809.3134,511.671,809.24,512.292,809.1682Z" transform="translate(0 0)" style="opacity:0.33"/><path d="M507.2338,809.6978c-1.6979.161-3.3958.322-5.1023.4531Q504.7034,809.9474,507.2338,809.6978Z" transform="translate(0 0)" style="opacity:0.33"/><path d="M441.9747,808.4686c-.3969-.053-.792-.1117-1.1884-.1663C441.1824,808.3579,441.5771,808.4144,441.9747,808.4686Z" transform="translate(0 0)" style="opacity:0.33"/><path d="M655,766.7579V551.6316L500,431,345,551.6316V766.7579a282.8952,282.8952,0,0,0,310,0Z" transform="translate(0 0)" style="fill:#3180c4"/><rect x="448" y="594" width="44" height="44"/><rect x="508" y="594" width="44" height="44"/><rect x="448" y="654" width="44" height="44"/><rect x="508" y="654" width="44" height="44"/></svg>