<svg id="图层_1" data-name="图层 1" xmlns="http://www.w3.org/2000/svg" viewBox="0 0 1000 1000"><title>Yinsiduanxin</title><rect width="1000" height="1000" style="fill:none"/><polygon points="500 145.121 157.651 420.711 500 695.447 842.349 420.711 500 145.121" style="fill:#f0a124"/><polygon points="400.366 100 261.816 617.075 662.004 724.305 775.339 301.334 706.451 182.015 400.366 100" style="fill:#fff"/><polygon points="775.339 301.334 706.451 182.015 681.236 276.119 775.339 301.334" style="fill:#f8ce24"/><polygon points="500 695.447 157.651 420.711 157.651 900 842.349 900 842.349 420.711 500 695.447" style="fill:#f8ce24"/><polygon points="500 624.409 157.651 900 842.349 900 500 624.409" style="fill:#f0a124"/><path d="M369.177,380.5237l13.9548,2.4616a31.1575,31.1575,0,0,0,.9044,14.6573q2.13,6.2013,8.7146,11.4393a43.0823,43.0823,0,0,0,15.8966,7.7336,41.5908,41.5908,0,0,0,15.2631,1.4541,20.9721,20.9721,0,0,0,11.2325-4.2177,16.1962,16.1962,0,0,0,5.5978-8.5228,14.7229,14.7229,0,0,0-.5746-9.7769q-1.9527-4.6358-8.1087-9.0808-3.938-2.8919-18.02-10.5386-14.0838-7.6467-19.26-12.4681a30.5953,30.5953,0,0,1-8.9358-13.2953,25.7967,25.7967,0,0,1-.1936-14.6265,28.7427,28.7427,0,0,1,8.837-14.2035,30.0994,30.0994,0,0,1,16.6351-7.2423,53.85,53.85,0,0,1,21.0419,1.6453,56.6909,56.6909,0,0,1,20.374,9.6519,31.988,31.988,0,0,1,11.1842,15.3351,34.2438,34.2438,0,0,1,.7527,18.65l-14.1386-2.67q1.657-10.6554-3.37-17.6739-5.0281-7.0167-17.62-10.3915-13.1158-3.5143-20.4-.3151-7.2864,3.1986-9.1027,9.9793a12.86,12.86,0,0,0,1.6514,10.8248q3.1539,4.9173,19.7084,13.6262,16.5525,8.7079,22.3121,13.4456,8.3591,6.9525,11.0979,14.913a28.1025,28.1025,0,0,1,.3825,16.7534,30.7648,30.7648,0,0,1-9.3944,15.092,34.0349,34.0349,0,0,1-17.558,8.1533,51.7444,51.7444,0,0,1-22.1976-1.3558q-14.8287-3.9732-23.6917-10.98a36.0229,36.0229,0,0,1-12.238-17.2152A38.1537,38.1537,0,0,1,369.177,380.5237Z" style="fill:#3f8df5"/><path d="M466.0268,444.0894,495.296,334.8552l21.7576,5.83,5.1312,84.2712q.6816,11.7629.8833,17.5664,3.4592-5.4617,10.5039-15.9529l46.5186-68.994,19.4471,5.2108L570.2684,472.0209l-13.9337-3.7335,24.4974-91.4257-56.2389,82.9205-13.04-3.4939-6.6762-101.456L479.9605,447.823Z" style="fill:#3f8df5"/><path d="M598.0769,441.8573l13.9553,2.4617q-1.2288,8.4564.9036,14.6571t8.715,11.4394a43.0857,43.0857,0,0,0,15.8965,7.7336A41.584,41.584,0,0,0,652.81,479.603q6.9912-.7622,11.2325-4.2176a16.1942,16.1942,0,0,0,5.5985-8.5226,14.7234,14.7234,0,0,0-.5749-9.7771q-1.9533-4.6359-8.1087-9.0808-3.938-2.8917-18.0195-10.5384-14.0845-7.647-19.2607-12.4683a30.5937,30.5937,0,0,1-8.9351-13.2952,25.7947,25.7947,0,0,1-.1944-14.6267,28.7456,28.7456,0,0,1,8.8375-14.2033,30.0944,30.0944,0,0,1,16.635-7.2423,53.848,53.848,0,0,1,21.0419,1.6452,56.6857,56.6857,0,0,1,20.3736,9.6519,31.9851,31.9851,0,0,1,11.1851,15.3353,34.2523,34.2523,0,0,1,.7527,18.65l-14.139-2.6706q1.6571-10.6553-3.37-17.6738-5.0277-7.0165-17.62-10.3916-13.1151-3.5142-20.4-.315-7.287,3.1983-9.103,9.9792a12.86,12.86,0,0,0,1.6518,10.8248q3.1537,4.9174,19.7084,13.6262Q666.6545,433,672.4135,437.7377q8.3583,6.9525,11.0982,14.9132a28.1056,28.1056,0,0,1,.3826,16.7534,30.7693,30.7693,0,0,1-9.3949,15.0919,34.0348,34.0348,0,0,1-17.5583,8.1531,51.739,51.739,0,0,1-22.1976-1.3557q-14.8275-3.9731-23.691-10.98a36.02,36.02,0,0,1-12.238-17.2152A38.1558,38.1558,0,0,1,598.0769,441.8573Z" style="fill:#3f8df5"/></svg>