<svg id="图层_1" data-name="图层 1" xmlns="http://www.w3.org/2000/svg" viewBox="0 0 1000 1000"><title>Yunduanxin</title><rect width="1000" height="1000" style="fill:none"/><rect x="90" y="90" width="820" height="820" rx="231.9149" style="fill:#ffc232"/><path d="M736.16,397.5c-40.7716-81.9935-132.1625-133.9334-235.34-137.76-16.3793-.6522-113.4875-2.9086-189.42,72.98-10.5587,10.5526-88.47,91.032-71.34,202.54,12.27,79.8732,65.9066,127.5109,84.46,143.5,13.1655,11.3459,59.142,49.9724,126.28,59.04,56.828,7.6752,118.3433-7.2418,122.18-8.2,30.2666-7.559,43.3391-15.4273,68.88-12.3,38.0426,4.658,59.2928,28.2673,68.06,20.5,9.0233-7.9942-15.2792-31.4145-9.02-66.42,3.15-17.6149,10.7922-20.0115,31.16-59.04,0,0,10.3751-19.88,20.5-44.28C770.0427,525.93,764.0972,453.6828,736.16,397.5ZM672.2,550.02c-.98,36.06-86.9586,75.8426-166.46,76.26-81.0317.4254-168.7619-39.9734-168.92-74.62-.0563-12.3341,10.9759-26.1253,22.96-29.52,15.2159-4.31,28.4484,9.1361,46.74,20.5,42.36,26.3165,87.3723,26.2577,100.86,26.24,14.4575-.0189,60.9507-.08,103.32-27.88,16.471-10.8073,30.0447-24.3146,43.46-19.68C664.6556,524.9459,672.5049,538.7956,672.2,550.02Z" style="fill:#fff"/></svg>