<svg id="图层_1" data-name="图层 1" xmlns="http://www.w3.org/2000/svg" xmlns:xlink="http://www.w3.org/1999/xlink" viewBox="0 0 1000 1000"><defs><clipPath id="clip-path" transform="translate(0 0)"><rect id="SVGID" x="312.5" y="314.0375" width="375" height="371.925" style="fill:none"/></clipPath></defs><title>Zhihu</title><rect x="125" y="125" width="750" height="750" rx="90.0638" style="fill:#0084ff"/><g style="clip-path:url(#clip-path)"><path d="M531.5,643.7375h27.825l10.125,35.25,49.05-35.25h69v-281.25h-156Zm33-249.975h91.125v217.875h-32.25l-41.4,31.575-9-31.575H564.5Zm-252.075,287.4a72.7007,72.7007,0,0,0,60.225-5.025c29.625-17.475,51.525-94.65,51.525-94.65l70.05,86.325s6.375-41.1-1.125-52.65c-7.5-11.625-48.15-58.275-48.15-58.275l-17.85,15.6,12.675-51.075h75.75s0-30.075-14.85-31.725c-14.85-1.725-60.975,0-60.975,0V396.1625h68.1s-.75-31.125-14.025-31.125H382.55l17.25-50.925s-28.05,1.65-37.875,19.125c-9.9,17.475-42,107.775-42,107.775s10.65,4.95,28.8-8.4a71.88,71.88,0,0,0,24-36.75l33-1.65.9,95.55s-56.85-.825-68.4,0-18.15,31.7249-18.15,31.7249h86.55S399.2,574.0625,377,612.5374c-22.35,38.6251-64.575,68.6251-64.575,68.6251Z" transform="translate(0 0)" style="fill:#fff"/></g><rect width="1000" height="1000" style="fill:none"/></svg>