<svg id="图层_1" data-name="图层 1" xmlns="http://www.w3.org/2000/svg" viewBox="0 0 1415 1415"><title>ZhiJianShang</title><rect x="207.5" y="207.5" width="1000" height="1000" style="fill:#d73234"/><path d="M167.5581,534.1726q44.86,6.6621,80.6133,6.3086H449.7041A462.8323,462.8323,0,0,0,446.9,473.5378l82.7163,9.4629q16.8222,2.4565,18.5762,10.5152,1.0516,8.4119-13.67,18.2256-8.4111,4.9123-10.164,19.2768-.3531,1.7579-.7012,4.5567a40.1147,40.1147,0,0,1-.7012,4.9062h206.09q36.8027,0,80.2627-6.3086v67.9961q-43.8165-6.3105-80.2627-6.3086H541.8843Q647.3765,736.4119,832.4419,757.0867a280.0952,280.0952,0,0,0-64.49,71.85Q556.6039,750.4206,493.5151,631.61q-39.257,127.5821-271.28,204.6875-15.7721-30.8466-50.1206-71.8516Q385.2109,736.4,438.4883,595.86H248.1714q-24.8907,0-80.6133,6.3086Zm135.29-290.2075,70.7994,29.4414q13.3161,5.61,12.2671,13.8447-1.051,8.2391-15.772,14.1948-13.3242,5.2573-22.0811,23.8335a1574.3614,1574.3614,0,0,1-79.9121,136.3413l-70.0986-35.4Q271.654,357.1771,302.8481,243.9651Zm233.7784,213.8h-77.459a547.7312,547.7312,0,0,0,5.6079-78.8609V246.7693q-1.7578-41.0076-6.3091-83.0669l76.0566,10.5146q14.7217,2.4565,15.5977,6.3091a36.6667,36.6667,0,0,1,.876,4.5562q0,6.309-10.8653,15.0713-9.4642,6.6621-9.1123,43.1108v135.64A502.4667,502.4667,0,0,0,536.6265,457.7654ZM593.4058,282.87,644.228,239.759q64.8369,70.8025,128.63,154.2168l-59.583,48.0176Q671.56,364.5369,593.4058,282.87Z" transform="translate(207.5 207.5)" style="fill:#fff"/><circle cx="707.5" cy="707.5" r="707.5" style="fill:none"/></svg>