<svg id="图层_1" data-name="图层 1" xmlns="http://www.w3.org/2000/svg" xmlns:xlink="http://www.w3.org/1999/xlink" viewBox="0 0 1000 1000"><defs><radialGradient id="未命名的渐变_59" cx="499.5962" cy="498.8921" r="200" gradientUnits="userSpaceOnUse"><stop offset="0" stop-color="#f33092"/><stop offset="1" stop-color="#d9d9d9"/></radialGradient><radialGradient id="未命名的渐变_78" cx="499.5962" cy="498.8921" r="95.2381" gradientUnits="userSpaceOnUse"><stop offset="0" stop-color="#c90046"/><stop offset="1" stop-color="#e781b4"/></radialGradient></defs><title>ZhongGuoSe</title><rect width="1000" height="1000" style="fill:#d9d9d9"/><circle cx="499.5962" cy="498.8921" r="200" style="fill:url(#未命名的渐变_59)"/><circle cx="499.5962" cy="498.8921" r="95.2381" style="fill:url(#未命名的渐变_78)"/><path d="M516.5559,471.8987V282.112c.5139-9.499,4.3113-63.2291,48.4561-98.5276,47.4629-37.9515,116.5331-34.58,161.5206-1.6152,39.2668,28.7729,57.7245,78.2871,54.1094,117.91C773.1684,381.7926,667.9124,459.2131,516.5559,471.8987Z" style="fill:#fff"/><path d="M481.8419,472.46,301.3441,413.8128c-8.8753-3.4241-58.8022-23.6392-78.7315-76.5312-21.4273-56.8675,3.1232-121.5153,48.3764-154.1143,39.4987-28.4537,92.2933-30.7073,128.86-15.0249C475.4436,200.5628,516.549,324.5915,481.8419,472.46Z" style="fill:#fff"/><path d="M471.3154,505.3738,359.7616,658.9144c-5.9991,7.3828-40.6532,48.6193-97.1149,51.2287-60.7057,2.8055-114.6028-40.5207-131.6223-93.6327-14.8553-46.3581-.6842-97.2652,25.53-127.1959C210.7484,427.4381,341.409,426.6715,471.3154,505.3738Z" style="fill:#fff"/><path d="M527.9129,505.1525l180.4979-58.6473c9.1928-2.4466,61.4667-15.4385,108.679,15.6379,50.761,33.4121,68.8982,100.1437,51.4488,153.116-15.2305,46.2363-56.6176,79.0914-95.4184,87.8973C692.9066,721.3612,586.7493,645.1811,527.9129,505.1525Z" style="fill:#fff"/><path d="M500.0011,525.8407,611.5549,679.3814c5.1676,7.9869,33.6772,53.6876,18.7112,108.1923-16.0909,58.6014-73.9517,96.4722-129.7235,96.2461-48.68-.1972-92.7161-29.4059-113.0812-63.5865C345.36,749.5712,385.0075,625.0687,500.0011,525.8407Z" style="fill:#fff"/></svg>