<svg id="图层_1" data-name="图层 1" xmlns="http://www.w3.org/2000/svg" viewBox="0 0 1000 1000"><title>ZUSMS</title><rect width="1000" height="1000" style="fill:none"/><path d="M910.4707,425.811C868.839,232.9451,671.0723,157.8322,650.3633,150.3468c-190.4627-68.844-427.8582,7.6254-519.2548,167.9659-44.841,78.6664-58.95,185.26-42.2314,257.2279,12.91,55.57,33.5931,88.3021,33.5931,88.3022,23.9364,37.88,35.9047,56.8192,46.0707,65.2667,6.8786,5.7158,17.8032,13.6247,17.2765,23.9952-.4916,9.68-10.5026,12.4929-19.1961,23.9951-11.4837,15.1939-15.3981,38.5768-8.6382,57.5884,11.5721,32.546,50.0586,39.9976,51.8295,40.3118H543.8249a449.3049,449.3049,0,0,0,184.2827-61.4276c34.9939-21.0489,100.0113-61.2545,144.9306-142.0512C882.46,654.575,937.6518,551.7327,910.4707,425.811ZM807.7715,602.4152c-41.0883,99.663-132.6322,139.75-164.1268,153.5689a339.43,339.43,0,0,1-87.3423,24.9549l-266.826.96a34.775,34.775,0,0,0,2.8794-2.88c10.4776-11.783,9.7523-27.2541,9.5981-29.7539a44.9834,44.9834,0,0,0-4.799-17.2765c-10.1871-20.8979-29.8029-31.9526-32.6334-33.5932-32.4852-18.829-66.7478-79.5057-79.6639-110.3777-39.6568-94.7872,4.376-189.898,7.6785-196.76,17.3457-36.0424,40.1121-59.1055,55.6687-74.8649a339.5538,339.5538,0,0,1,104.6188-71.9854c11.2419-4.9481,69.2089-29.7292,143.9708-28.7942,16.5634.2072,228.9055,6.2815,305.2182,170.8454C808.0791,399.541,851.3038,496.8238,807.7715,602.4152Z" style="fill:#f4ea2a"/><rect x="274.1195" y="380.7001" width="456.8675" height="89.2619" rx="37.3771" style="fill:#1afa29"/><rect x="389.2962" y="534.269" width="341.6908" height="89.2619" rx="37.3771" style="fill:#1afa29"/></svg>