<?xml version="1.0" encoding="utf-8"?>
<svg width="256px" height="256px" viewBox="0 0 256 256" version="1.1" xmlns:xlink="http://www.w3.org/1999/xlink" xmlns="http://www.w3.org/2000/svg">
  <g id="编组">
    <path d="M0 128C0 57.3075 57.3075 0 128 0C198.693 0 256 57.3075 256 128C256 198.693 198.693 256 128 256C57.3075 256 0 198.693 0 128L0 128Z" id="椭圆" fill="#009AB4" fill-rule="evenodd" stroke="none" />
    <path d="M211.84 121.084L211.84 97.7861C211.806 94.7643 209.33 92.3414 206.307 92.3747C206.264 92.3752 206.221 92.3762 206.176 92.3779L151.776 92.3779L133.088 109.595L133.088 127.644L157.6 105.242L197.374 105.242L197.374 116.379L113.408 194.4L123.008 204L211.84 121.084L211.84 121.084L211.84 121.084L211.84 121.084L211.84 121.084ZM112.48 189.437L126.912 175.741L126.912 151.002C126.954 147.981 124.537 145.497 121.516 145.455C121.373 145.453 121.23 145.457 121.088 145.466L48 145.466L48 158.267L112.48 158.267L112.48 189.437L112.48 189.437L112.48 189.437L112.48 189.437L112.48 189.437ZM122.96 125.583C123.296 122.402 120.99 119.551 117.809 119.215C117.617 119.194 117.425 119.184 117.232 119.183L51.2168 119.183L51.2168 131.984L117.232 131.984C120.534 131.851 123.104 129.065 122.971 125.763C122.968 125.703 122.965 125.643 122.96 125.583M126.88 98.3054C127.198 95.1043 124.861 92.2515 121.66 91.9336C121.481 91.9158 121.3 91.9062 121.12 91.9051L62.2718 91.9051L62.2718 77.5043C62.2718 77.5043 62.176 72 55.04 72C47.9042 72 48 77.4722 48 77.4722L48 104.77L121.12 104.77C124.457 104.616 127.037 101.787 126.884 98.4507C126.883 98.4238 126.882 98.3965 126.88 98.3698" id="miku" fill="#FFFFFF" fill-rule="evenodd" stroke="none" />
  </g>
</svg>