<?xml version="1.0" encoding="utf-8"?>
<svg width="760px" height="160px" viewBox="0 0 760 160" version="1.1" xmlns:xlink="http://www.w3.org/1999/xlink" xmlns="http://www.w3.org/2000/svg">
  <g id="编组">
    <path d="M0 0L760 0L760 160L0 160L0 0Z" id="矩形" fill="none" fill-rule="evenodd" stroke="none" />
    <g id="MiKu" transform="translate(60 0)">
      <path d="M0 80C0 35.8172 35.8172 0 80 0C124.183 0 160 35.8172 160 80C160 124.183 124.183 160 80 160C35.8172 160 0 124.183 0 80L0 80L0 80Z" id="椭圆" fill="#009AB4" fill-rule="evenodd" stroke="none" />
      <path d="M132.4 75.6773L132.4 61.1163C132.379 59.2277 130.831 57.7134 128.942 57.7342C128.915 57.7345 128.888 57.7351 128.86 57.7362L94.8596 57.7362L83.18 68.4966L83.18 79.7772L98.4996 65.7763L123.359 65.7763L123.359 72.7368L70.8801 121.5L76.8801 127.5L132.4 75.6773L132.4 75.6773L132.4 75.6773L132.4 75.6773L132.4 75.6773L132.4 75.6773ZM70.2996 118.398L79.3197 109.838L79.3197 94.3769C79.346 92.488 77.8357 90.936 75.9472 90.9093C75.858 90.9084 75.769 90.9102 75.6799 90.9164L30 90.9164L30 98.9164L70.2996 98.9164L70.2996 118.398L70.2996 118.398L70.2996 118.398L70.2996 118.398L70.2996 118.398L70.2996 118.398ZM76.8502 78.4896C77.06 76.5011 75.6185 74.7193 73.6305 74.5092C73.5108 74.4965 73.3905 74.4898 73.2703 74.4891L32.0105 74.4891L32.0105 82.4897L73.2703 82.4897C75.334 82.4066 76.9398 80.6657 76.8566 78.6018C76.8548 78.5643 76.8529 78.5271 76.8502 78.4896M79.2996 61.4409C79.4985 59.4402 78.038 57.6572 76.0377 57.4585C75.9255 57.4474 75.8124 57.4414 75.7 57.4407L38.9199 57.4407L38.9199 48.4402C38.9199 48.4402 38.86 45 34.4 45C29.9401 45 30 48.4201 30 48.4201L30 65.4812L75.6999 65.4812C77.7855 65.3853 79.3982 63.617 79.3028 61.5317C79.302 61.5149 79.3011 61.4978 79.3001 61.4811" id="miku" fill="#FFFFFF" fill-rule="evenodd" stroke="none" />
    </g>
    <path d="M353.51 58.089C353.51 54.5742 352.604 52.1333 350.793 50.7665C348.983 49.3996 346.32 48.7162 342.805 48.7162C336.806 48.7162 331.24 50.1807 326.109 53.1097C320.98 56.0388 318.415 59.2607 318.415 62.7755C318.415 65.0123 319.382 66.9206 321.317 68.5004C323.252 70.0804 328.249 72.0419 336.308 74.3851C344.758 76.8349 351.033 79.5244 355.134 82.4533C359.235 85.3824 361.284 88.9059 361.284 93.0243C361.284 99.877 356.066 106.152 345.628 111.85C335.19 117.549 324.344 120.398 313.089 120.398C309.432 120.398 306.504 119.634 304.301 118.107C302.1 116.581 301 114.699 301 112.462C301 110.688 301.497 109.036 302.491 107.509C303.486 105.984 304.674 105.22 306.06 105.22C306.911 105.22 307.692 105.362 308.402 105.646C312.13 107.243 315.609 108.043 318.84 108.043C324.38 108.043 330.601 106.49 337.507 103.382C344.412 100.276 347.865 97.2321 347.865 94.2491C347.865 93.0068 347.003 91.8082 345.282 90.6543C343.56 89.5004 340.054 88.0541 334.764 86.3145C327.059 83.7935 321.263 81.7167 317.376 80.0835C313.488 78.4504 310.541 76.3112 308.535 73.6663C306.53 71.0212 305.526 67.8348 305.526 64.1069C305.526 57.4678 309.397 51.2901 317.136 45.5741C324.876 39.858 333.965 37 344.403 37C350.403 37 355.134 38.1894 358.596 40.5681C362.057 42.9469 363.788 45.6628 363.788 48.7162C363.788 54.9648 360.362 58.089 353.51 58.089L353.51 58.089L353.51 58.089ZM420.238 97.0183C420.238 100.711 417.132 105.122 410.919 110.252C404.706 115.383 397.694 117.948 389.883 117.948C383.883 117.948 379.16 116.057 375.717 112.277C372.273 108.495 370.552 103.232 370.552 96.4861C370.552 86.5446 374.066 77.2254 381.096 68.5272C388.126 59.8288 395.635 55.4796 403.623 55.4796C407.6 55.4796 410.794 56.74 413.209 59.2607C415.623 61.7815 416.83 64.7815 416.83 68.2608C416.83 74.4385 413.866 80.3232 407.937 85.9149C402.008 91.5072 394.41 95.3681 385.143 97.4982C384.078 97.7469 383.546 98.386 383.546 99.4156C383.546 101.119 384.3 102.743 385.809 104.288C387.318 105.832 389.333 106.604 391.854 106.604C398.99 106.604 406.073 102.93 413.102 95.5808C414.451 94.1608 415.765 93.4508 417.043 93.4508C419.174 93.4508 420.238 94.6396 420.238 97.0183L420.238 97.0183L420.238 97.0183ZM384.505 87.5928C390.114 86.4563 395.058 84.0599 399.336 80.403C403.614 76.7462 405.753 73.4265 405.753 70.4443C405.753 69.2727 405.425 68.2874 404.768 67.4886C404.111 66.6898 403.267 66.2904 402.238 66.2904C399.149 66.2904 395.723 68.5626 391.959 73.1071C388.197 77.6515 385.711 82.4799 384.505 87.5928L384.505 87.5928L384.505 87.5928ZM473.813 107.563C472.109 104.368 470.866 98.4035 470.085 89.6694C469.304 80.5806 467.565 76.0361 464.866 76.0361C462.31 76.0361 457.89 80.7669 451.606 90.2289C445.321 99.6905 441.452 106.675 439.996 111.185C439.676 112.534 439.082 113.652 438.212 114.54C437.342 115.428 436.482 115.871 435.63 115.871C430.233 115.871 427.535 113.403 427.535 108.468C427.535 106.799 428.067 103.001 429.132 97.0718C430.517 89.4033 431.209 80.0302 431.209 68.9532C431.209 67.2844 431.937 65.5004 433.393 63.6009C434.848 61.7015 436.392 60.7518 438.026 60.7518C440.085 60.7518 441.664 61.2667 442.765 62.2963C443.866 63.3259 444.416 66.0596 444.416 70.4975C444.416 73.8703 443.404 80.403 441.381 90.0959C449.085 72.0597 457.677 63.0419 467.157 63.0419C475.393 63.0419 480.222 69.5212 481.642 82.4799C483.062 95.6877 484.695 102.291 486.541 102.291C487.358 102.291 488.299 102.114 489.364 101.758C490.642 101.332 491.654 101.119 492.399 101.119C494.104 101.119 494.956 102.114 494.956 104.101C494.956 105.913 493.784 107.839 491.44 109.879C489.098 111.921 486.151 112.942 482.6 112.942C478.482 112.942 475.535 111.149 473.76 107.563L473.813 107.563L473.813 107.563ZM574.679 47.5446C574.608 47.793 574.323 48.0771 573.826 48.3966C572.762 49.1067 571.705 49.8878 570.658 50.7399C569.611 51.5919 567.009 54.5032 562.856 59.4737C557.53 65.7933 552.711 71.2254 548.397 75.7698C544.084 80.3142 536.654 87.6637 526.109 97.8178L520.571 103.196C523.908 102.912 528.204 102.486 533.459 101.918C540.95 101.102 545.104 100.693 545.921 100.693C548.477 100.693 550.572 100.622 552.205 100.48C553.839 100.373 555.312 100.321 556.625 100.321C566.921 100.321 572.069 102.824 572.069 107.829C572.069 109.853 571.545 111.442 570.498 112.596C569.45 113.749 568.04 114.326 566.264 114.326C564.844 114.326 563.176 114.079 561.258 113.581C558.206 112.764 554.335 112.356 549.649 112.356C547.874 112.356 542.672 112.64 534.045 113.208L534.099 113.208C525.328 113.706 519.56 114.113 516.791 114.433C514.021 114.753 510.861 115.392 507.311 116.35C504.541 117.131 502.766 117.522 501.985 117.522C498.435 117.522 496.66 115.765 496.66 112.249C496.66 109.409 497.618 107.279 499.535 105.859C504.258 102.344 510.399 97.0096 517.962 89.8559C525.524 82.7019 532.642 75.6278 539.317 68.6336C540.382 67.4975 541.643 66.2016 543.099 64.746C548.992 58.8524 553.288 54.2192 555.986 50.8463C555.418 50.8463 548.974 51.5565 536.654 52.9765C528.88 53.8997 523.021 54.3612 519.08 54.3612C516.666 54.3612 514.181 54.0594 511.624 53.4559C507.861 51.7872 505.979 49.6925 505.979 47.1718C505.979 46.0002 506.707 44.651 508.162 43.1243C509.618 41.5977 510.808 40.8343 511.731 40.8343C512.405 40.8343 513.293 41.0297 514.393 41.4201C515.494 41.8463 516.328 42.0593 516.896 42.0593L526.748 42.1657C529.447 42.2013 532.411 42.0771 535.643 41.7929C538.022 41.5799 541.82 41.3491 547.039 41.1007C552.897 40.8167 556.909 40.4793 559.075 40.0888C565.608 38.9882 569.726 38.4379 571.43 38.4379C574.377 38.4379 575.85 40.0178 575.85 43.1776C575.85 44.9528 575.46 46.4084 574.679 47.5446L574.679 47.5446L574.679 47.5446ZM636.934 83.9711C636.366 92.5989 635.363 100.969 633.925 109.081C632.488 117.193 630.375 124.551 627.587 131.155C624.801 137.759 621.8 142.259 618.588 144.655C615.375 147.052 611.549 148.25 607.111 148.25C602.354 148.25 597.791 147.345 593.424 145.534L593.478 145.534C589.715 143.972 586.44 141.877 583.652 139.25C580.865 136.623 579.471 134.404 579.471 132.593C579.471 130.925 579.889 129.593 580.723 128.599C581.558 127.605 582.65 127.108 583.999 127.108C585.17 127.108 586.146 127.605 586.927 128.599C591.472 134.457 598.076 137.386 606.738 137.386C610.253 137.386 613.644 133.712 616.91 126.363C620.176 119.013 622.235 110.19 623.088 99.8944C612.117 108.558 603.668 112.889 597.738 112.889C593.904 112.889 590.868 111.362 588.632 108.309C586.395 105.255 585.277 101.581 585.277 97.2844C585.277 92.9894 586.279 86.7497 588.285 78.5658C590.292 70.3822 591.995 65.3051 593.398 63.3347C594.801 61.3643 597.081 60.3791 600.241 60.379C601.946 60.379 603.259 61.1157 604.183 62.5891C605.105 64.0625 605.567 65.6868 605.567 67.462C605.567 67.9946 604.288 70.9946 601.732 76.4621C598.608 83.1367 597.046 88.8885 597.046 93.7169C597.046 96.2025 597.392 98.0926 598.085 99.3883C598.776 100.684 599.496 101.332 600.241 101.332C601.946 101.332 604.014 100.817 606.446 99.7875C608.878 98.7579 611.735 96.9747 615.019 94.4356C618.303 91.8976 620.425 89.9715 621.383 88.6573C622.342 87.3441 623.106 85.6487 623.674 83.5717C624.241 81.4947 624.685 76.9236 625.005 69.8585C625.182 65.7401 625.386 63.1483 625.617 62.0832C625.848 61.0181 626.478 60.0418 627.508 59.1542C628.537 58.2666 629.922 57.8228 631.662 57.8228C634.005 57.8228 635.665 58.3198 636.641 59.314C637.617 60.308 638.106 62.6513 638.106 66.3436L636.934 83.9711L636.934 83.9711ZM700.095 88.3377C697.716 96.6464 693.198 103.648 686.541 109.347C679.885 115.046 673.236 117.895 666.597 117.895C661.342 117.895 657.011 115.969 653.603 112.116C650.195 108.264 648.491 103.534 648.491 97.9236C648.491 88.7642 651.615 79.7462 657.863 70.8703C664.112 61.9945 671.692 57.5566 680.603 57.5566C686.674 57.5566 691.592 59.8021 695.355 64.2933C699.119 68.7846 701 74.1367 701 80.3498C701 83.0481 700.698 85.6931 700.095 88.2843L700.095 88.3377L700.095 88.3377ZM672.402 71.5094C669.917 73.7106 667.485 77.2254 665.106 82.0539C662.727 86.8828 661.537 91.7286 661.537 96.593C661.537 99.5388 662.08 101.971 663.163 103.888C664.245 105.806 665.674 106.765 667.449 106.765C671.852 106.765 676.432 104.155 681.189 98.9357C685.947 93.7169 688.325 87.8589 688.325 81.3616C688.325 77.7048 687.553 74.6959 686.009 72.3349C684.464 69.9738 682.307 68.7934 679.538 68.7934C676.91 68.7934 674.55 69.6987 672.455 71.5094L672.402 71.5094L672.402 71.5094Z" id="SenZyo" fill="#FFFFFF" fill-rule="evenodd" stroke="none" />
  </g>
</svg>