<svg id="图层_1" data-name="图层 1" xmlns="http://www.w3.org/2000/svg" viewBox="0 0 1415 1415"><title>100font</title><circle cx="707.5" cy="707.5" r="707.5" style="fill:none"/><rect x="207.5" y="207.5" width="1000" height="1000" style="fill:#f7c601"/><path d="M720.8439,380.38v53.1646q-23.676,11.838-67.9325,38.3966Q608.6075,498.5232,552.49,539.8734v26.5823H753.3333q29.4887,0,94.5148-2.9536v59.0717q-65.0025-5.8834-94.5148-5.9071H552.49V767.3q-2.9774,59.0481-38.3967,67.9325Q478.65,844.0928,410.7173,850q-2.9772-29.5595-20.6751-70.8861,67.9089,5.8836,85.654,1.4768,17.7215-4.43,14.7679-39.8734V616.6667H283.7131q-47.281,0-91.5612,2.9536V563.5021q44.3039,2.9772,88.6076,2.9536H490.4641a207.3841,207.3841,0,0,0-5.9071-50.211q26.5822-11.767,59.0717-32.4894,32.4659-20.6291,79.7468-53.1646h-230.38q-53.1646,0-88.6076,2.9536V377.4262q35.4431,2.9772,85.654,2.9535ZM552.49,244.5148H821.2658q-2.9772,44.3037-2.9536,67.9325,0,20.6986,2.9536,59.0717H762.1941V291.7722H268.9451v82.7H209.8734q2.9074-41.3267,2.9536-64.9789,0-23.6051-2.9536-64.9789H484.557a287.2838,287.2838,0,0,0-50.211-59.0718A599.0476,599.0476,0,0,0,484.557,150Q540.6279,223.8633,552.49,244.5148Z" transform="translate(207.5 207.5)"/></svg>