<svg id="图层_1" data-name="图层 1" xmlns="http://www.w3.org/2000/svg" viewBox="0 0 1000 1000"><title>199it</title><rect width="1000" height="1000" style="fill:none"/><path d="M783.4961,715.279a42.2268,42.2268,0,0,0-39.5628,56.9468c-5.8926,6.214-12.6743,12.933-20.3776,19.8782-18.955,17.09-73.1946,64.842-153.65,81.0462-49.098,9.8886-94.5776,5.3333-95.3981-.8443-.8389-6.3164,45.6572-9.47,95.3981-40.5231a241.3553,241.3553,0,0,0,43.4373-34.7607,42.2278,42.2278,0,1,0-24.4069-23.9306,287.1535,287.1535,0,0,1-49.4227,33.3644c-77.472,41.2219-161.4685,39.59-163.7809,29.5481-2.4113-10.4723,86.7851-18.058,164.6251-90.3327a321.762,321.762,0,0,0,61.3585-78.4065,42.2323,42.2323,0,1,0-21.5-20.1753,360.5062,360.5062,0,0,1-31.4165,40.33c-57.1416,63.4619-128.4252,96.87-132.5443,91.177-3.1147-4.3048,34.71-27.4668,75.1366-79.3577a426.4186,426.4186,0,0,0,54.9129-92.9507,42.1918,42.1918,0,1,0-24.3081-5.9392,387.5047,387.5047,0,0,1-54.2433,87.0706c-34.5219,41.7217-66.684,62.4261-73.4481,66.6943-33.8668,21.37-85.2713,43.5336-92.8654,32.925-7.3662-10.29,32.3749-43.1935,88.6443-119.0366,14.8892-20.0685,27.5548-38.5867,37.9676-54.571A42.1828,42.1828,0,1,0,405.49,595.348c-9.6775,14.8976-21.2567,31.7644-34.8224,49.86-21.1392,28.1977-80.1623,106.9291-92.8654,99.6193-12.8937-7.4195,19.2328-105.0336,79.3577-186.5751a485.2466,485.2466,0,0,1,46.5231-54.2028,42.2567,42.2567,0,1,0-12.04-22.52,394.7593,394.7593,0,0,0-39.548,37.8887c-86.0807,94.8332-95.9275,199.6509-105.5289,197.55-8.9681-1.9622-14.117-96.4153,35.4577-184.0423,28.0826-49.6381,65.552-82.64,95.5289-103.4844a42.208,42.208,0,1,0-24.8966-22.231,419.8812,419.8812,0,0,0-73.165,75.0615c-15.6877,20.7619-38.6586,51.6574-54.0308,96.2423-27.7229,80.4072-8.2024,139.88-18.5731,141.8309-11.4705,2.1571-47.6028-68.3036-37.99-143.5193,4.44-34.7442,17.4465-61.153,26.1711-78.5135a304.7307,304.7307,0,0,1,42.3985-63.1356,42.1992,42.1992,0,1,0-17.32-21.9464c-5.0229,6.1062-10.3256,12.8027-15.7914,20.0762-50.0469,66.5992-64.1125,115.2714-70.9155,113.127-8.2362-2.5963-.5319-78.0091,32.9251-153.65a449.38,449.38,0,0,1,68.7976-109.2066,42.2172,42.2172,0,1,0-19.44-20.2585,413.21,413.21,0,0,0-68.7753,97.3843c-16.4276,32.4158-66.335,134.5125-38.8346,257.4905C146.9959,792.0791,309.4334,868.1532,345.34,884.9694c28.8027,13.4891,81.1036,37.2948,152.8058,37.1462,77.9695-.1616,134.6858-28.5563,159.56-41.3674a378.868,378.868,0,0,0,108.9914-84.53,42.2127,42.2127,0,1,0,16.799-80.9393Z" style="fill:gray"/><circle cx="731.1538" cy="641.8309" r="42.2116" style="fill:#00aeef;isolation:isolate"/><circle cx="852.7231" cy="437.527" r="42.2116" style="fill:#00aeef;isolation:isolate"/><circle cx="543.7345" cy="305.8269" r="42.2116" style="fill:#00aeef;isolation:isolate"/><circle cx="381.6422" cy="196.9211" r="42.2116" style="fill:#00aeef;isolation:isolate"/><circle cx="637.4442" cy="196.9211" r="42.2116" style="fill:#00aeef;isolation:isolate"/><circle cx="284.5556" cy="318.4904" r="25.3269" style="fill:gray"/><circle cx="352.0941" cy="293.1635" r="25.3269" style="fill:gray"/><circle cx="449.1806" cy="299.9173" r="29.5481" style="fill:#00aeef;isolation:isolate"/><circle cx="526.8499" cy="390.25" r="25.3269" style="fill:gray"/><circle cx="574.1268" cy="221.4038" r="25.3269" style="fill:gray"/><circle cx="688.9422" cy="293.1635" r="25.3269" style="fill:gray"/><circle cx="762.3903" cy="263.6154" r="25.3269" style="fill:gray"/><circle cx="698.2288" cy="400.3808" r="25.3269" style="fill:gray"/><circle cx="762.3903" cy="369.1443" r="25.3269" style="fill:#00aeef;isolation:isolate"/><circle cx="634.9115" cy="554.0308" r="25.3269" style="fill:gray"/><circle cx="857.7884" cy="280.5" r="25.3269" style="fill:gray"/><circle cx="672.9019" cy="684.0424" r="25.3269" style="fill:gray"/><circle cx="832.4615" cy="658.7155" r="25.3269" style="fill:gray"/><circle cx="773.3653" cy="516.8847" r="29.5481" style="fill:gray"/><circle cx="628.1576" cy="457.7885" r="33.7692" style="fill:gray"/><circle cx="866.2308" cy="599.6193" r="33.7692" style="fill:#00aeef;isolation:isolate"/><circle cx="516.7191" cy="145.423" r="33.7692" style="fill:gray"/><circle cx="819.7981" cy="107.4326" r="29.5481" style="fill:gray"/></svg>