<svg id="图层_1" data-name="图层 1" xmlns="http://www.w3.org/2000/svg" viewBox="0 0 1415 1415"><title>Ageeye</title><circle cx="707.5" cy="707.5" r="707.5" style="fill:none"/><rect x="207.5" y="207.5" width="1000" height="1000" style="fill:#ea1910"/><path d="M100,100V900H900V100ZM525,499.46c23.227,5.5793,52.5089.7755,74-8.46,15.4875-6.6557,22.6934-13.7888,83-78,49.6492-52.8638,50.9994-54.6669,58-58a85.6194,85.6194,0,0,1,39.5349-8.1541A312.3706,312.3706,0,0,0,752,475.5a316.2888,316.2888,0,0,0,2.7859,41.8376C733.1544,518.3253,711.2785,525.2782,694,537c-31.31,21.241-20.5946,39.8227-47,57-38.7814,25.2281-88.4786,2.445-122,.4457ZM225,850H150V550h75Zm0-350H150V150h75ZM350,850H275V700h75Zm0-200H275V475h75Zm0-225H275V150h75ZM475,850H400V625h75Zm0-275H400V350h75Zm0-275H400V150h75ZM664.4591,850H525V650.4559c20.2277.459,52.8644-1.2365,107-.4559,17.7672.2562,35.9067-.5081,50-13,11.8655-10.5173,10.1618-20.2245,21-39,2.8528-4.9421,22.4149-38.83,51-47a48.9867,48.9867,0,0,1,6.8265-1.4271A312.1988,312.1988,0,0,0,815.735,664.9681C796.6076,687.5153,770.5756,728.7251,718,788,690.0931,819.4629,671.6791,836.8929,664.4591,850ZM850,850H776.9622c7.0393-37.7408-8.8152-89.9393,25.0378-119,14.6519-12.5778,32.32-15.4176,48-16.9653Zm0-602.1316c-1.1766,1.1143-2.3582,2.2235-3.5174,3.3557C817.1824,257.9229,789.2916,329.0717,747,323c-16.7681-2.4073-17.72-14.3585-35-15-17.2181-.6393-30.5393,10.6965-78,62-43.1486,46.6422-44.4686,50.6017-56,55-20.1649,7.6913-38.1369,3.9794-53,1.1915V150H850Z" transform="translate(207.5 207.5)" style="fill:#fff"/></svg>