<svg id="图层_1" data-name="图层 1" xmlns="http://www.w3.org/2000/svg" viewBox="0 0 1415 1415"><title>AIDN</title><circle cx="707.5" cy="707.5" r="707.5" style="fill:none"/><rect x="207.5" y="207.5" width="1000" height="1000"/><polygon id="I" points="1107.5 357.5 1107.5 307.5 972.5 307.5 892.5 307.5 757.5 307.5 757.5 357.5 892.5 357.5 892.5 607.5 757.5 607.5 757.5 657.5 892.5 657.5 972.5 657.5 1107.5 657.5 1107.5 607.5 972.5 607.5 972.5 357.5 1107.5 357.5" style="fill:#fff"/><path id="D" d="M275,550H100V900H275A175,175,0,0,0,450,725h0A175,175,0,0,0,275,550ZM380.5714,725a125,125,0,0,1-125,125H180V600h75.5715a125,125,0,0,1,125,125Z" transform="translate(207.5 207.5)" style="fill:#fff"/><path id="N" d="M814.8649,900,610.77,616.5724q.86,16.1487,1.5766,31.9194.7116,15.7766.7164,31.9195V900H550V550h83.1284l206.388,285.4147q-1.1482-13.6587-2.0066-30.057-.86-16.3932-.86-38.9987V550H900V900Z" transform="translate(207.5 207.5)" style="fill:#fff"/><path id="A" d="M312.4626,100,450,450H386.0778l-36.6766-95.6344H200.3368L163.9222,450H100L237.7994,100ZM275.262,145.4583q-4.7158,14.409-8.907,26.8277-4.1938,12.4224-9.9557,27.3246l-41.13,108.8H335.2544L293.8619,199.8583Q285.2173,177.5028,275.262,145.4583Z" transform="translate(207.5 207.5)" style="fill:#fff"/></svg>