<svg id="图层_1" data-name="图层 1" xmlns="http://www.w3.org/2000/svg" viewBox="0 0 1000 1000"><title>Aimwriting</title><rect width="1000" height="1000" style="fill:#507bfc"/><path d="M420.302,650H355.6608l-25.6956-68.1447H212.326L188.0353,650H125L239.6279,350h62.8343ZM310.8941,531.31,270.3424,419.9862,230.5942,531.31Z" style="fill:#fff"/><path d="M451.4186,403.2062V350h56.41v53.2062Zm0,246.7938V432.6741h56.41V650Z" style="fill:#fff"/><path d="M561.4289,432.6741h51.9939v29.6725q27.9018-34.5807,66.4492-34.5841,20.4752,0,35.5323,8.5948,15.0553,8.5951,24.6911,25.9893,14.0514-17.3916,30.314-25.9893a73.2278,73.2278,0,0,1,34.73-8.5948q23.4873,0,39.7482,9.7205,16.2593,9.7218,24.29,28.5472,5.8218,13.9182,5.8227,45.02V650H818.59V525.7846q0-32.3313-5.8227-41.7464-7.83-12.2785-24.09-12.2783a37.9456,37.9456,0,0,0-22.2835,7.3672q-10.44,7.3667-15.0554,21.589-4.6206,14.2257-4.6172,44.9186V650H690.31V530.9q0-31.717-3.0121-40.9274-3.01-9.2088-9.3335-13.7109-6.3238-4.4986-17.1642-4.5021a40.5546,40.5546,0,0,0-23.4881,7.1622q-10.4414,7.1658-14.9556,20.6686-4.5182,13.5065-4.5173,44.8159V650h-56.41Z" style="fill:#fff"/></svg>