<svg id="图层_1" data-name="图层 1" xmlns="http://www.w3.org/2000/svg" viewBox="0 0 1000 1000"><title>AirPano</title><circle cx="500" cy="500" r="500" style="fill:none"/><path d="M831.4732,518.4152c-51.5014,88.7079-55.626,135.65-108.2589,186.3839-20.0142,19.292-50.3832,48.565-68.08,40.1786-36.7582-17.4192,8.2561-184.464,37.9465-294.6429A2993.6678,2993.6678,0,0,1,804.6875,116.63q-22.3669,3.1118-43.5268,7.8125C527.8245,175.9026,374.5033,366.4608,287.9464,507.2545A274.37,274.37,0,0,1,125,439.1741q.5582,48.5492,1.1161,97.0982a228.5141,228.5141,0,0,0,121.6518,51.3393c-27.4775,51.0939-52.4634,113.8449-64.7322,187.5q-2.7485,16.5009-4.4643,32.3661c1.7212,7.67,9.1176,36.3718,36.83,56.92a97.8872,97.8872,0,0,0,56.92,18.9732,791.0011,791.0011,0,0,1,91.5179-301.3392l177.4553-12.2768a389.6916,389.6916,0,0,0-12.2767,108.2589c1.5373,54.5687,1.0386,115.1422,39.0625,141.7411,24.7249,17.2958,55.1041,13.1048,69.1964,11.1607C764.9579,813.3007,860.7385,609.7794,875,578.683V451.4509A790.6788,790.6788,0,0,0,831.4732,518.4152ZM609.375,326.4509a880.991,880.991,0,0,0-52.4554,181.92H404.0179A828.1275,828.1275,0,0,1,649.5536,241.63,876.17,876.17,0,0,0,609.375,326.4509Z" style="fill:#152b5d"/></svg>