<svg id="图层_1" data-name="图层 1" xmlns="http://www.w3.org/2000/svg" xmlns:xlink="http://www.w3.org/1999/xlink" viewBox="0 0 1000 1000"><defs><clipPath id="clip-path" transform="translate(0 0)"><rect id="SVGID" width="1000" height="1000" style="fill:none"/></clipPath></defs><title>Algolia</title><rect x="100" y="100" width="800" height="800" style="fill:#fff"/><g id="Algolia"><path id="Background" d="M0,0H1000V1000H0Z" transform="translate(0 0)" style="fill:none"/><g style="clip-path:url(#clip-path)"><path id="Shape" d="M131.6667,0A131.5,131.5,0,0,0,0,131.3333V868.4166A131.7091,131.7091,0,0,0,131.67,1000H868.3333A131.7585,131.7585,0,0,0,1000,868.3333V131.6667A131.7584,131.7584,0,0,0,868.3333,0ZM459.5833,145.5833H560.7917a43.3329,43.3329,0,0,1,43.375,43.375v34.25a5.834,5.834,0,0,1-7.25,5.8334,321.2014,321.2014,0,0,0-85.125-11.5,316.3791,316.3791,0,0,0-88.0417,12.375,6.0563,6.0563,0,0,1-7.5833-5.8334v-35.125a43.4123,43.4123,0,0,1,43.3541-43.3333Zm-181.25,92.5a43.442,43.442,0,0,1,31.25,12.75l17.25,17.3334c2.4167,2.7083,2.125,6.9583-.9166,8.75a313.9927,313.9927,0,0,0-39.2084,33.375,332.2657,332.2657,0,0,0-33.0416,38.8337c-2.4167,2.7079-6.375,3.3329-9.125.6663l-17-17.0417a43.2451,43.2451,0,0,1,0-61.3333l20.6666-20.5834a43.4359,43.4359,0,0,1,30.125-12.7083Zm233.2084,14.5834a282.5209,282.5209,0,1,1-.0542,565.0416c-156.1125,0-282.8208-126.1666-282.8208-282.375A282.75,282.75,0,0,1,511.5958,252.6667Zm0,83.6666c-109.9521,0-199.1309,89.05-199.2917,199,.1821,109.9334,89.3525,198.9583,199.2875,198.9583A199.0415,199.0415,0,0,0,710.875,535.3333c-.1375-109.975-89.3542-199.045-199.3333-199Zm6.0416,34.9167a164.0471,164.0471,0,0,1,136.7084,82.8333c1.5,3.0417.625,6.6667-2.375,8.1667L520,530.5c-3.875,2.1667-8.5417-.9583-8.5417-5.2083V377.0833h.0834a6.0211,6.0211,0,0,1,6.0416-5.7916Z" transform="translate(0 0)" style="fill:#5468ff;fill-rule:evenodd"/></g></g></svg>