<svg id="图层_1" data-name="图层 1" xmlns="http://www.w3.org/2000/svg" viewBox="0 0 1000 1000"><title>AllToAll</title><polygon points="157.075 694.34 491.981 890.566 491.981 501.887 157.075 308.491 157.075 694.34" style="fill:#c14d4e"/><path d="M364.1509,598.5849l-66.0377-38.6792V396.1L162.7358,317.9245V703.7736L497.6415,900V511.3208L364.1509,434.434ZM400,508.9623l65.0943,38.6792V825L197.17,669.34V391.9811L263.2075,430.66V597.6415L400,676.8868Z" style="fill:#6b1b1a"/><path d="M358.4906,425V589.1509l-66.0378-38.6792V386.6662L157.0755,308.4906V694.34L491.9811,890.566V501.8868L334.33,410.8491Zm35.849,74.5283,65.0944,38.6792V815.566l-267.9246-155.66V382.5472l66.0378,38.6792V588.2075L394.34,667.4528Z" style="fill:#a80e0e"/><polygon points="834.746 308.491 837.695 694.506 508.57 887.073 508.019 499.655 834.746 308.491" style="fill:#fb6767"/><path d="M652.7483,654.7192l-.57-76.1223L513.4718,659.7526l-.223-156.604L839.9764,311.9839l2.9481,386.0153L513.8,890.566l-.0511-154.52Zm-93.3608,96.129,1.03,74.761L795.2778,688.195l-1.24-309.4666-234.86,137.4143.57,76.1222,141.3956-82.729.439,158.1159Z" style="fill:#ac1c1c"/><path d="M508.5193,732.5526l138.9991-81.3268-.57-76.1222L508.2418,656.2592l-.2229-156.6039L834.7465,308.4906l2.9481,386.0152L508.57,887.0727l-.26-182.37Zm45.6383,14.8022,1.03,74.761,234.86-137.4142-1.24-309.4665-234.86,137.4142.57,76.1222,141.3956-82.7289.4391,158.1158Z" style="fill:#ef3332"/><polygon points="498.585 100 164.623 293.396 498.585 487.736 835.377 294.34 498.585 100" style="fill:#ffd8d8"/><path d="M641.9811,183.4906l-100,57.5471-144.34-83.0188L260.8491,236.3208l145.283,83.9622-100,56.6038L498.5849,488.2075l334.9057-194.34ZM484.434,441.9811l-94.34-54.7169,100.9434-58.4906q-72.6414-41.9813-145.283-83.9623l66.0378-38.6792,146.2264,83.9622,100.9434-58.49,95.283,54.717Z" style="fill:#c95555"/><path d="M641.9811,177.83l-100,57.5472-144.34-83.0189L260.8491,230.66l145.283,83.9622-100,56.6038L498.5849,482.5472l334.9057-194.34ZM484.434,436.3208l-94.34-54.717,100.9434-58.4906-145.283-83.9623,66.0378-38.6792L558.0189,284.434l100.9434-58.4906,95.283,54.717Z" style="fill:#f8acac"/><rect width="1000" height="1000" style="fill:none"/></svg>