<svg id="图层_1" data-name="图层 1" xmlns="http://www.w3.org/2000/svg" xmlns:xlink="http://www.w3.org/1999/xlink" viewBox="0 0 1415 1415"><defs><linearGradient id="未命名的渐变_9" x1="207.5" y1="207.5" x2="1207.5" y2="1207.5" gradientUnits="userSpaceOnUse"><stop offset="0" stop-color="#338ce3"/><stop offset="1" stop-color="#001a33"/></linearGradient></defs><title>AlteredQualia</title><rect x="207.5" y="207.5" width="1000" height="1000" style="fill:url(#未命名的渐变_9)"/><path d="M858.7066,704.5771H850.488a159.6359,159.6359,0,0,0,4.2384-36.6168V332.04A159.2038,159.2038,0,0,0,695.5226,172.8358h0A159.2039,159.2039,0,0,0,536.3184,332.04V667.96a159.2051,159.2051,0,0,0,148.63,158.8458,61.927,61.927,0,0,0,6.594.3581H858.7066A61.2935,61.2935,0,0,0,920,765.8706h0A61.2934,61.2934,0,0,0,858.7066,704.5771ZM695.5223,754.7264c-1.516,0-3.0214-.0444-4.52-.1143-.4776-.0223-.9513-.0592-1.427-.0884-1.0285-.0633-2.0537-.1382-3.0731-.2337-.5392-.0506-1.0765-.1075-1.6131-.167q-1.4667-.1625-2.9192-.3709c-.5122-.0728-1.0257-.142-1.5353-.223-1.1074-.1757-2.2065-.3759-3.3008-.5894-.3448-.0672-.6934-.1233-1.0367-.1942q-2.1141-.4368-4.1927-.9677c-.4208-.1071-.8352-.23-1.2538-.3426-.978-.263-1.9522-.5353-2.9175-.8284-.5308-.1612-1.057-.3323-1.5839-.5024q-1.2816-.4139-2.5476-.862c-.5368-.19-1.0732-.3818-1.6057-.5816-.8641-.3241-1.7192-.6656-2.5711-1.0137-.4758-.1944-.9558-.3809-1.4278-.5828q-1.8966-.8112-3.7529-1.6967c-.35-.1682-.6916-.3521-1.04-.5243-.9172-.4541-1.83-.9159-2.73-1.3983-.5128-.2749-1.0177-.5624-1.5248-.8464-.7273-.407-1.4506-.82-2.1658-1.2454q-.7912-.47-1.5723-.9555c-.698-.4335-1.3878-.8786-2.0738-1.3295-.4957-.3258-.9939-.6484-1.4832-.9831-.7885-.54-1.5632-1.0976-2.3344-1.66-.3618-.2638-.7319-.5168-1.09-.7854A95.3741,95.3741,0,0,1,600,659.2041V340.7959a95.5223,95.5223,0,0,1,95.5223-95.5223h0a95.5223,95.5223,0,0,1,95.5223,95.5223V659.2041a95.0921,95.0921,0,0,1-11.448,45.3733c-.1455.2693-.3017.532-.45.8q-.764,1.3809-1.5717,2.7333-.3658.6124-.74,1.2194-.8451,1.3682-1.7342,2.7052c-.1818.2734-.3592.55-.5437.8213-.6905,1.0152-1.4047,2.0126-2.1327,2.9992-.2769.3754-.5588.7467-.8411,1.1179q-.9015,1.185-1.8392,2.34c-.2316.2856-.457.5762-.6918.8591q-1.22,1.47-2.5006,2.8867c-.293.3256-.5922.6454-.89.9669q-.9936,1.0746-2.0193,2.1181c-.2844.2894-.5651.5825-.8531.8684q-1.3641,1.3532-2.7812,2.6516c-.2851.2611-.5771.5146-.8654.7722q-1.12,1.0006-2.27,1.9665c-.3215.27-.6414.5412-.9663.8067q-1.5048,1.2294-3.0565,2.402c-.2446.1838-.4957.3592-.7421.5407q-1.2889.95-2.6105,1.8564c-.3449.2367-.69.473-1.0382.7053-1.0984.7328-2.2072,1.4516-3.3371,2.1394-.13.0792-.2638.1526-.3942.2312q-1.5582.9385-3.1569,1.8151-.5347.2948-1.0737.5824-1.5521.83-3.1365,1.6065c-.1792.0875-.355.1809-.5348.2673-1.2107.5815-2.4391,1.1312-3.6775,1.6625-.3533.1516-.7092.2981-1.0647.4455q-1.5546.6447-3.1361,1.2365c-.2663.1-.53.2051-.797.3022q-1.9166.6967-3.872,1.31c-.3306.1042-.6643.2012-.9964.302q-1.6105.4884-3.2448.9214c-.3227.0855-.6436.1753-.9677.2576q-2.0083.5091-4.049.9344c-.2857.0593-.5744.11-.8609.1667q-1.71.3383-3.4418.6146c-.3608.0577-.7209.1174-1.0831.171-1.3966.2068-2.8009.39-4.2165.5359-.1937.02-.39.0323-.5841.051q-1.8792.1818-3.78.2875c-.3844.0219-.769.0429-1.1546.06-1.4518.0655-2.9091.1107-4.3771.1107Z" transform="translate(207.5 207.5)" style="fill:#fff"/><path d="M443.1841,289.0547a95.5225,95.5225,0,0,0-95.5224-95.5224H215.5224A95.5224,95.5224,0,0,0,120,289.0547v538.11h70.05V620.0163a45.4977,45.4977,0,0,1,45.4977-45.4977h92.0891a45.4977,45.4977,0,0,1,45.4977,45.4977V827.1642h70.05Zm-70.05,228.765a564.54,564.54,0,0,0-183.0845,0V309.5686a45.4977,45.4977,0,0,1,45.4977-45.4977h92.0891a45.4977,45.4977,0,0,1,45.4977,45.4977Z" transform="translate(207.5 207.5)" style="fill:#fff"/><circle cx="707.5" cy="707.5" r="707.5" style="fill:none"/></svg>