<svg id="图层_1" data-name="图层 1" xmlns="http://www.w3.org/2000/svg" viewBox="0 0 1000 1000"><title>ARealMe</title><circle cx="500" cy="500" r="500" style="fill:none"/><polygon points="862.5 157.5 772.01 432.434 728.719 294.967 862.5 157.5" style="fill:#ef8630"/><polygon points="862.5 157.5 728.719 294.967 591.312 251.637 862.5 157.5" style="fill:#e56700"/><polygon points="859.157 522.775 860.687 524.361 591.142 793.744 552.895 793.744 717.217 522.775 859.157 522.775" style="fill:#ffba7b"/><polygon points="859.157 522.775 717.217 522.775 772.01 432.434 859.157 522.775" style="fill:#ffe0b3"/><polygon points="728.719 294.967 772.01 432.434 717.217 522.775 654.208 458.205 728.719 294.967" style="fill:#ff9331"/><polygon points="728.719 294.967 654.208 458.205 347.492 458.205 272.867 294.967 410.445 251.637 591.312 251.637 728.719 294.967" style="fill:#ff7f00"/><polygon points="654.208 458.205 717.217 522.775 552.895 793.744 500.878 793.744 654.208 458.205" style="fill:#ef8630"/><polygon points="654.208 458.205 500.878 793.744 347.492 458.205 654.208 458.205" style="fill:#e56700"/><polygon points="552.895 793.744 499.065 882.5 445.972 793.744 500.878 793.744 552.895 793.744" style="fill:#3d1d1a"/><polygon points="347.492 458.205 500.878 793.744 445.972 793.744 284.313 523.852 347.492 458.205" style="fill:#bc5000"/><polygon points="445.972 793.744 410.501 793.744 137.5 524.475 283.69 524.475 284.313 523.852 445.972 793.744" style="fill:#eaa363"/><polygon points="410.445 251.637 272.867 294.967 137.5 157.5 410.445 251.637" style="fill:#ff7f00"/><polygon points="347.492 458.205 284.313 523.852 229.577 432.434 272.867 294.967 347.492 458.205" style="fill:#d36707"/><polygon points="284.313 523.852 283.69 524.475 137.5 524.475 229.577 432.434 284.313 523.852" style="fill:#ffba7b"/><polygon points="137.5 157.5 272.867 294.967 229.577 432.434 137.5 157.5" style="fill:#bc5000"/></svg>