<svg id="图层_1" data-name="图层 1" xmlns="http://www.w3.org/2000/svg" viewBox="0 0 1000 1000"><title>Baimiao</title><rect width="1000" height="1000" style="fill:#4c9b5e"/><rect x="428" width="572" height="1000" style="fill:#448b56"/><path d="M471.2444,125.2345c5.3027,2.23-1.7435,20.8,4.1865,49.1912,3.323,15.91,5.2945,25.3485,12.56,32.4452,17.6139,17.2062,42.5416-2.6071,84.7763,8.373,11.6513,3.0291,41.0491,10.6719,54.4243,34.5385,11.1544,19.9039.4213,31.92,13.6061,52.3311,12.7473,19.734,29.0731,18.2447,33.4918,33.4919,6.0966,21.0365-18.8389,45.0654-19.8858,46.0513-30.6724,28.8851-62.524,8-121.408,27.2121-15.9846,5.2152-55.9543,18.2559-83.73,55.471-3.3433,4.4794-41.3925,57.0756-24.0723,113.0351,8.9944,29.06,28.6311,45.1674,58.6108,69.077,80.2282,63.9841,138.526,59.1642,154.9,105.7087,10.6813,30.3623-4.3607,60.1731-6.28,63.8439-33.83,64.7132-153.9983,67.585-229.21,49.1912-13.9147-3.403-167.8108-43.4113-199.9046-167.4594-29.0463-112.2688,57.9909-219.692,65.9371-229.21,27.0506-32.4013,60.6118-56.5565,104.6621-118.2682,23.7751-33.3073,35.0626-55.78,41.8649-80.59,3.2623-11.8982,8.4109-34.9765,12.5594-57.5642,4.7155-25.6741,6.1156-39.6986,15.6994-57.5641C452.272,139.18,465.5579,122.8427,471.2444,125.2345Z" transform="translate(0 0)" style="fill:#fff"/><path d="M662.7761,858.916c-6.082-7.86,13.39-25.8218,23.0257-52.3311,11.206-30.83,6.5011-66.0486-5.2331-88.9628-4.8929-9.5546-14.5665-23.9188-84.7764-59.6574-73.9275-37.631-99.0053-39.93-117.2215-70.1236-5.4616-9.0526-18.8219-34.7275-11.5129-62.7973,11.5172-44.2309,65.5184-60.4684,73.2635-62.7973,74.83-22.5,146.8362,33.0437,166.4128,48.1446,22.2933,17.1966,88.0919,67.9521,95.2425,152.8067C810.9331,769.48,721.19,849.8444,682.6619,859.9626,678.9944,860.9258,666.8077,864.1262,662.7761,858.916Z" transform="translate(0 0)" style="fill:#c7dbcd"/></svg>