<svg id="图层_1" data-name="图层 1" xmlns="http://www.w3.org/2000/svg" viewBox="0 0 1000 1000"><title>BTtwo</title><circle cx="500" cy="500" r="500" style="fill:none"/><path d="M545.6729,644.5759c-1.5774-72.9072-52.5263-137.8388-125.43-158.1509,26.27-101.6707,12.2-200.8375-44.9912-244.0431-40.6269-30.6923-106.97-37.023-148.6073-40.9011A481.4183,481.4183,0,0,0,143,201V666l-32.242,24.93V800H447.51C508.4876,771.2417,547.0889,710.0245,545.6729,644.5759ZM226.6444,294.19c13.77-2.082,43.35-4.3465,70.8952,12.27,41.6279,25.1122,61.6154,83.0967,46.3546,143.1538h-117.25ZM421.6063,720.9246H226.6444L226,529h47c26.3857-1.0082,82.3312,1.008,132,38,21.6958,16.1584,53.1728,39.6016,55,78C461.9946,686.9157,427.2157,716.3246,421.6063,720.9246Z" style="fill:#09b2e9"/><path d="M457.0539,200.1174H889.242v92.7091c-21.639-.2274-86.2391,1.9805-132.2468,49.0813a148.4669,148.4669,0,0,0-21.814,28.6308V800H616.5681V370.5386a140.9206,140.9206,0,0,0-21.8139-29.9941c-47.6659-49.9331-118.3041-48.6937-137.7-47.718Z" style="fill:#09b2e9"/></svg>