<svg id="图层_1" data-name="图层 1" xmlns="http://www.w3.org/2000/svg" viewBox="0 0 1000 1000"><title>CCAVA-Music</title><circle cx="500" cy="500" r="500" style="fill:none"/><path d="M580.1221,358.804l-316.27,54.8278a23.0853,23.0853,0,0,0-19.1424,22.746V551.3609q-.0073.4171,0,.8346V711.8441A86.5828,86.5828,0,1,0,290.8807,788.43V571.2322l270.099-46.824v132.031a86.5828,86.5828,0,1,0,46.1708,76.5857V497.4213c.005-.2776.005-.5552,0-.8345V381.55A23.0853,23.0853,0,0,0,580.1221,358.804ZM560.98,477.55,290.8807,524.373V455.8048L560.98,408.9812Z" style="fill:#737476"/><path d="M694.0659,144.5376c-45.4411-41.3214-120.8909-13.9908-120.8909,52.78,0,91.5774,120.8909,144.08,120.8909,144.08s120.8909-57.0319,120.8909-144.08c.0073-66.7713-67.24-92.975-120.8909-52.78Z" style="fill:#c62b79"/><path d="M792.9055,444.5484c-33.5869-30.5419-89.3542-10.3411-89.3542,39.0116,0,67.6877,89.3542,106.4938,89.3542,106.4938S882.26,547.9,882.26,483.56c.0054-49.3527-49.6989-68.7206-89.3541-39.0116Z" style="fill:#c62b79"/></svg>