<?xml version="1.0" encoding="utf-8"?>
<!-- Generator: Adobe Illustrator 23.0.1, SVG Export Plug-In . SVG Version: 6.00 Build 0)  -->
<svg version="1.1" id="图层_1" xmlns="http://www.w3.org/2000/svg" xmlns:xlink="http://www.w3.org/1999/xlink" x="0px" y="0px"
	 viewBox="0 0 1000 1000" style="enable-background:new 0 0 1000 1000;" xml:space="preserve">
<style type="text/css">
	.st0{fill:#8E56FF;}
	.st1{fill:#7521FF;}
	.st2{fill:#FBA813;}
</style>
<g>
	<path class="st0" d="M72,276.6v475.8L483.2,1000V524.2L72,276.6z M417.7,691.8l-92.2,58.1c-8.9,5.6-20.6,2.9-26.2-5.9l0,0
		c-1.9-3-2.9-6.6-2.9-10.2L222,570.1l-82.4,52c-8.9,5.6-20.6,2.9-26.1-6c-5.5-8.8-2.9-20.5,5.9-26.1l100.9-63.6
		c8.9-5.6,20.6-2.9,26.2,5.9l0,0c1,2.8,2.2,5.5,3.8,8.1l75,164.9l72.4-45.6c8.9-5.6,20.6-2.9,26.2,5.9c0,0,0,0,0,0l0,0
		C429.2,674.5,426.6,686.2,417.7,691.8L417.7,691.8z"/>
	<path class="st1" d="M516.8,524.2V1000L928,752.3V276.6L516.8,524.2z M615,831.6c-12.4,0-22.4-10-22.4-22.4
		c0-12.4,10-22.4,22.4-22.4c12.4,0,22.4,10,22.4,22.4c0,0,0,0,0,0C637.4,821.6,627.4,831.6,615,831.6C615,831.6,615,831.6,615,831.6
		L615,831.6z M615,723.6c-12.4,0-22.4-10-22.4-22.4c0-12.4,10-22.4,22.4-22.4c12.4,0,22.4,10,22.4,22.4c0,0,0,0,0,0
		C637.4,713.6,627.4,723.6,615,723.6C615,723.6,615,723.6,615,723.6L615,723.6z M615,615.6c-12.4,0-22.4-10-22.4-22.4
		c0-12.4,10-22.4,22.4-22.4c12.4,0,22.4,10,22.4,22.4c0,0,0,0,0,0C637.4,605.5,627.4,615.6,615,615.6C615,615.6,615,615.6,615,615.6
		L615,615.6z M842,701.3l-128.4,80.9c-8.8,5.6-20.6,3-26.2-5.9c-5.6-8.8-3-20.6,5.9-26.2c0,0,0.1,0,0.1-0.1l128.4-80.9
		c8.9-5.6,20.6-2.9,26.2,5.9c0,0,0,0,0,0l0,0C853.5,684,850.9,695.7,842,701.3z M842,591l-128.4,80.9c-8.8,5.6-20.6,3-26.2-5.9
		c-5.6-8.8-3-20.6,5.9-26.2c0,0,0.1,0,0.1-0.1l128.4-80.9c8.9-5.6,20.6-2.9,26.2,5.9c0,0,0,0,0,0l0,0
		C853.5,573.7,850.9,585.4,842,591L842,591z M842,480.7l-128.4,80.9c-8.8,5.6-20.6,3-26.2-5.9c-5.6-8.8-3-20.6,5.9-26.2
		c0,0,0.1,0,0.1-0.1l128.4-80.9c8.9-5.6,20.6-2.9,26.2,5.9l0,0C853.5,463.4,850.9,475.1,842,480.7L842,480.7z"/>
	<path class="st2" d="M500,0L72,243.8l428,243.8l428-243.8L500,0z M328.3,257.6L328.3,257.6c-5.6-8.9-2.9-20.6,5.9-26.2l157.5-99.3
		c8.8-5.6,20.6-3,26.2,5.9c5.6,8.8,3,20.6-5.9,26.2c0,0-0.1,0-0.1,0l-157.5,99.3C345.6,269.1,333.9,266.4,328.3,257.6
		C328.3,257.6,328.3,257.6,328.3,257.6z M660.2,257.3l-157.5,99.3c-8.9,5.6-20.6,2.9-26.2-5.9c0,0,0,0,0,0l0,0
		c-5.6-8.9-2.9-20.6,5.9-26.2L640,225.2c8.9-5.6,20.6-2.9,26.1,6C671.7,240.1,669,251.7,660.2,257.3L660.2,257.3z"/>
</g>
</svg>
