<svg id="图层_1" data-name="图层 1" xmlns="http://www.w3.org/2000/svg" xmlns:xlink="http://www.w3.org/1999/xlink" viewBox="0 0 1000 1000"><defs><linearGradient id="未命名的渐变_18" x1="844.8506" y1="667.8696" x2="844.8506" y2="319.4808" gradientUnits="userSpaceOnUse"><stop offset="0" stop-color="#9eb0a2"/><stop offset="1" stop-color="#d9dfce"/></linearGradient><linearGradient id="未命名的渐变_18-2" x1="435.2219" y1="1000" x2="435.2219" y2="0" xlink:href="#未命名的渐变_18"/></defs><title>CityGenerator</title><path d="M961.6071,422.9438H915.4016c-21.2054,0-43.5268-16.516-49.8884-36.7147l-26.5625-64.39c-.41-.77-.788-1.56-1.1509-2.3583L689.7012,467.58a193.4045,193.4045,0,0,1,2.7094,32.2531c0,5.5868-.252,11.1136-.7183,16.579L843.15,667.87l22.3631-54.21c6.25-20.1986,28.7946-36.7147,49.8883-36.7147h46.2054a38.5561,38.5561,0,0,0,38.3929-38.5v-77A38.6284,38.6284,0,0,0,961.6071,422.9438Z" style="fill:url(#未命名的渐变_18)"/><path d="M826.2275,119.2947a38.5339,38.5339,0,0,0-54.3527,0L739.174,151.9919c-14.9554,14.9537-42.5224,19.0827-61.1608,9.0392l-64.2857-26.4479c-20.2008-6.2493-36.83-28.68-36.83-49.8828V38.5A38.6516,38.6516,0,0,0,538.3928,0H461.4954A38.58,38.58,0,0,0,422.991,38.5V84.7c0,21.0913-16.5179,43.6335-36.7188,49.8828l-64.3973,26.4479c-18.6384,10.0435-46.0937,6.0262-61.0491-9.0392l-32.8125-32.6972a38.5339,38.5339,0,0,0-54.3527,0L119.308,173.6413a38.3214,38.3214,0,0,0,0,54.3466l32.7009,32.6973c14.9553,14.9537,19.0848,42.5176,9.04,61.0423l-26.451,64.5017c-6.3615,20.1987-28.6829,36.7146-49.8883,36.7146H38.5045A38.58,38.58,0,0,0,0,461.444v76.8888a38.5794,38.5794,0,0,0,38.5045,38.5H84.71c21.2054.1116,43.5268,16.6277,49.7768,36.8263l26.5625,64.39c9.933,18.6363,5.9152,46.2-9.04,61.1538l-32.8125,32.6973a38.6587,38.6587,0,0,0,0,54.4581l54.4643,54.3467a38.5339,38.5339,0,0,0,54.3527,0l32.7008-32.6972c14.8438-14.9538,42.4107-18.9711,61.0492-8.9276L386.2723,865.64c20.2008,6.2493,36.7187,28.68,36.7187,49.7712V961.5a38.6516,38.6516,0,0,0,38.5045,38.5h76.8973a38.6516,38.6516,0,0,0,38.5045-38.5V915.4112c0-21.2029,16.6294-43.5219,36.83-49.7712l64.3973-26.5595c18.6385-10.0435,46.0938-6.0262,61.1607,8.9276l32.5893,32.6972a38.5338,38.5338,0,0,0,54.3527,0l44.2162-44.1207L651.8488,617.99a192.312,192.312,0,1,1-8.0556-245.9236L861.434,154.4252Z" style="fill:url(#未命名的渐变_18-2)"/></svg>