<svg width="100" height="100" xmlns:xlink="http://www.w3.org/1999/xlink" xmlns="http://www.w3.org/2000/svg"><defs><path d="M0 0h100v100H0V0z" id="a"/><path d="M0 50C0 22.386 22.386 0 50 0s50 22.386 50 50-22.386 50-50 50S0 77.614 0 50z" id="b"/><clipPath id="c"><use xlink:href="#a"/></clipPath><clipPath id="d"><use xlink:href="#b"/></clipPath></defs><path d="M0 0h100v100H0V0z" fill="none"/><g clip-path="url(#c)"><path d="M0 50C0 22.386 22.386 0 50 0s50 22.386 50 50-22.386 50-50 50S0 77.614 0 50z" fill="#2674DB"/><path d="M0 50C0 22.386 22.386 0 50 0s50 22.386 50 50-22.386 50-50 50S0 77.614 0 50z" fill="none"/><g fill="#FFF" fill-rule="evenodd" clip-path="url(#d)"><path d="M53.665 50.29v11.185h1.846v-4.22h1.214q1.678 0 2.365-.331c.457-.222.839-.606 1.144-1.152q.458-.82.458-2.034 0-1.335-.53-2.182c-.354-.564-.803-.933-1.347-1.106q-.511-.16-2.174-.16h-2.976zm9.045 0h3.377c.853 0 1.497.095 1.932.286.434.19.834.512 1.2.965.366.453.653 1.04.862 1.763q.312 1.083.312 2.693 0 1.45-.328 2.521c-.218.715-.495 1.28-.83 1.698-.336.417-.741.73-1.216.942q-.713.317-1.833.317H62.71V50.29zm9.778 11.185V50.29h6.286v1.892h-4.44v2.647h3.845v1.893h-3.845v4.753h-1.846zm-7.931-9.293v7.4h1.388q.893 0 1.293-.167a1.56 1.56 0 0 0 .656-.507c.17-.226.312-.583.424-1.07.112-.489.168-1.131.168-1.929q0-1.242-.172-1.959c-.114-.477-.292-.853-.534-1.128q-.362-.411-.881-.54c-.26-.067-.76-.1-1.503-.1h-.84zm-9.046 3.181v-3.181h.903q1.162 0 1.522.13c.24.087.44.257.604.512.163.255.244.569.244.941q0 .55-.237.93c-.158.252-.36.426-.608.523-.247.097-.715.145-1.403.145h-1.025z"/><path d="M51.39 37.947a5.262 5.262 0 0 0-3.727 1.554 5.265 5.265 0 0 0-1.554 3.726l-.129 38.074-.169-.023c-6.739-.919-12.85-3.952-17.67-8.772v-.001a30.915 30.915 0 0 1-6.195-8.844l-43.203.146a13.008 13.008 0 0 1-9.309-3.83 13.01 13.01 0 0 1-3.83-9.308 13.185 13.185 0 0 1 3.893-9.335 13.186 13.186 0 0 1 9.335-3.893l43.224-.145c5.012-10.64 15.83-18.054 28.316-18.096 8.328-.028 16.147 3.189 22.017 9.058a30.832 30.832 0 0 1 6.433 9.388l.093.208-27.525.093zM78.83 62.72l-.093.209c-4.466 9.997-13.962 17.044-24.782 18.393l-.166.02.062-18.538 24.98-.084zM33.594 39.445a1.879 1.879 0 0 1 2.64-.295l5.737 4.605c.806.647.93 1.828.277 2.637a1.88 1.88 0 0 1-2.639.296l-5.737-4.606a1.873 1.873 0 0 1-.278-2.637zm5.99 14.75a1.88 1.88 0 0 0 2.64-.297c.651-.81.527-1.99-.279-2.636l-5.737-4.606a1.88 1.88 0 0 0-2.64.296c-.652.81-.527 1.99.279 2.636l5.737 4.606zm-.025 7.505a1.879 1.879 0 0 0 2.639-.294 1.873 1.873 0 0 0-.278-2.638l-5.737-4.606a1.88 1.88 0 0 0-2.64.296c-.652.81-.527 1.99.278 2.637l5.738 4.605z"/></g></g></svg>