<?xml version="1.0" encoding="utf-8"?>
<!-- Generator: Adobe Illustrator 23.0.1, SVG Export Plug-In . SVG Version: 6.00 Build 0)  -->
<svg version="1.1" id="图层_1" xmlns="http://www.w3.org/2000/svg" xmlns:xlink="http://www.w3.org/1999/xlink" x="0px" y="0px"
	 viewBox="0 0 1000 1000" style="enable-background:new 0 0 1000 1000;" xml:space="preserve">
<style type="text/css">
	.st0{fill:none;}
	.st1{fill:#F38020;}
</style>
<title>Cloudflare</title>
<rect class="st0" width="1000" height="1000"/>
<path class="st1" d="M640.9,651.4c4.6-15.8,2.8-30.3-4.9-41.1c-7-9.9-18.9-15.6-33.2-16.3l-270.6-3.5c-1.7,0-3.3-0.8-4.2-2.2
	c-0.9-1.5-1.1-3.2-0.7-4.9c1-2.7,3.5-4.6,6.4-4.9l273-3.5c32.3-1.5,67.5-27.7,79.8-59.8l15.6-40.7c0.7-1.7,0.9-3.5,0.5-5.3
	c-21.5-95.8-116.5-156.1-212.3-134.6c-60.5,13.5-109.6,57.7-129.5,116.4c-35.3-26.5-85.4-19.4-111.9,15.9
	c-8.7,11.6-14.1,25.4-15.6,39.9c-0.9,9.4-0.2,18.8,2,27.9C173.9,536.6,124.9,587,125,648.5c0,5.5,0.4,11,1.1,16.5
	c0.4,2.6,2.6,4.6,5.3,4.6h499.4c2.9-0.1,5.5-2,6.4-4.9L640.9,651.4L640.9,651.4z M727,477.5c-2.5-0.1-5,0.1-7.4,0.4
	c-1.8,0.1-3.4,1.3-4,3.1l-10.6,36.7c-4.6,15.8-2.9,30.3,4.8,41.1c7.1,9.9,18.9,15.6,33.2,16.2l57.6,3.5c1.7,0,3.2,0.8,4.2,2.2
	c0.9,1.5,1.1,3.2,0.7,4.9c-1,2.7-3.5,4.6-6.4,4.9l-60,3.5c-32.5,1.5-67.4,27.7-79.8,59.8L655,665c-0.7,1.6,0.1,3.5,1.7,4.2
	c0.4,0.2,0.9,0.3,1.4,0.3h206.2c2.4,0,4.6-1.6,5.3-3.9c3.6-13,5.5-26.5,5.5-40c0-81.3-66.4-147.7-147.9-147.7"/>
</svg>
