<?xml version="1.0" encoding="utf-8"?>
<svg width="1000px" height="1000px" viewBox="0 0 1000 1000" version="1.1" xmlns:xlink="http://www.w3.org/1999/xlink" xmlns="http://www.w3.org/2000/svg">
  <path d="M0 0L1000 0L1000 1000L0 1000L0 0Z" id="矩形" fill="none" fill-rule="evenodd" stroke="none" />
  <g id="编组" transform="translate(55.999878 200)">
    <path d="M417.221 0C285.151 0 177.191 92.0375 167.819 208.6C70.7145 233.475 0 309.75 0 400C0 506.45 98.3989 593.913 222.5 600L639.721 600C777.847 600 890 493.638 890 362.5C890 236.075 780.139 133.125 641.609 125.7C600.75 51.3 515.795 0 417.221 0L417.221 0Z" id="cloud" fill="#E5E5E5" stroke="none" />
    <path d="M327.569 297.199L330.628 279.85C347.647 231.252 397.978 200.628 450.341 209.861C467.878 212.953 483.501 220.353 496.715 230.521L476.501 240.303C461.785 247.418 461.842 268.378 476.59 275.428L511.841 292.272L560.457 315.505C572.113 321.076 585.863 313.996 588.083 301.284L596.852 251.147L603.49 213.175C606.223 197.529 590.087 185.355 575.78 192.277L538.572 210.269C517.456 188.758 489.744 173.325 457.777 167.688C383.925 154.666 313.179 198.031 289.775 266.834C289.137 268.716 288.883 270.602 288.799 272.474L288.543 272.429L285.484 289.778C283.457 301.273 291.141 312.241 302.644 314.269L303.069 314.344C314.571 316.372 325.542 308.695 327.569 297.199L327.569 297.199Z" id="形状-小路" fill="#D81E06" stroke="none" />
    <path d="M313.279 478.059L350.482 460.062C371.602 481.575 399.318 497.009 431.281 502.645C505.133 515.667 575.881 472.307 599.287 403.5C599.925 401.621 600.178 399.732 600.258 397.859L600.517 397.904L603.576 380.557C605.603 369.06 597.922 358.095 586.414 356.066L585.992 355.991C574.485 353.962 563.512 361.638 561.484 373.135L558.426 390.483C541.411 439.081 491.077 469.707 438.717 460.475C421.184 457.383 405.558 449.981 392.342 439.814L412.565 430.036C427.273 422.917 427.22 401.956 412.47 394.908L377.22 378.064L328.596 354.827C316.946 349.258 303.199 356.338 300.977 369.05L292.206 419.187L285.569 457.161C282.834 472.806 298.974 484.979 313.279 478.059L313.279 478.059Z" id="形状-小路-2" fill="#D81E06" stroke="none" />
  </g>
</svg>