<svg id="图层_1" data-name="图层 1" xmlns="http://www.w3.org/2000/svg" viewBox="0 0 1000 1000"><title>default</title><circle cx="500" cy="500" r="500" style="fill:none"/><path d="M321.54283,417.64505H212.99919a300.419,300.419,0,0,0,.04323,164.70588H321.582a499.69015,499.69015,0,0,1,0-164.70588Zm41.87614,0a453.76441,453.76441,0,0,0,0,164.70588H479.41175V417.64505Zm60.32111,371.04463a395.65417,395.65417,0,0,1-92.97779-165.16126H228.15286A299.235,299.235,0,0,0,423.74008,788.68968Zm55.67167-2.88213V623.52842H373.71108q29.02761,93.021,105.70067,162.31834Zm-55.67167-574.454a299.22288,299.22288,0,0,0-195.58722,165.118H330.76229a395.62513,395.62513,0,0,1,92.93859-165.16128Zm55.67167,2.88216Q402.702,283.53541,373.71108,376.4716H479.41175V214.23574ZM678.45817,417.64505a499.47458,499.47458,0,0,1,0,164.70588H787.03992a300.36783,300.36783,0,0,0-.03915-164.70588Zm-41.87714,0H520.58923V582.35093H636.581A435.91515,435.91515,0,0,0,644.11763,500a432.53531,432.53531,0,0,0-7.5366-82.35495ZM576.2609,788.68968A299.23565,299.23565,0,0,0,771.84714,623.52842H669.23371a395.581,395.581,0,0,1-92.93363,165.16126Zm-55.67167-2.88213Q597.299,716.38409,626.28892,623.52842H520.58923V785.80755Zm55.67167-574.454a395.57757,395.57757,0,0,1,92.97281,165.118H771.88634A299.23174,299.23174,0,0,0,576.30008,211.31032Zm-55.67167,2.88216V376.4716H626.28892q-29.03364-93.01948-105.69969-162.31833ZM500,850c-193.30121,0-350-156.6988-350-350S306.69879,150,500,150,850,306.69882,850,500,693.30115,850,500,850Zm0,0" style="fill:#5a5a68"/></svg>