<svg id="图层_1" data-name="图层 1" xmlns="http://www.w3.org/2000/svg" viewBox="0 0 1000 1000"><title>EZGIF</title><circle cx="500" cy="500" r="500" style="fill:none"/><path d="M370.1748,613.84h474.159C864.7779,613.84,875,603.3855,875,582.951V225.9632c0-20.2116-10.2221-30.8794-30.6662-30.8794H370.1748c-20.4442-.01-30.8891,10.6678-30.8891,30.8794V582.951c0,20.4442,10.4546,30.8794,30.8891,30.8794Z"/><path d="M386.52,270.233c-6.8115,0-11.5785-4.99-11.5785-11.1232v-25.434c0-7.0441,4.3116-11.8111,11.5785-11.8111h27.4785c6.8212,0,11.3557,4.767,11.3557,11.8111V259.12a10.9121,10.9121,0,0,1-11.3557,11.1232Z" style="fill:#fff"/><path d="M798.2424,270.233c-6.8115,0-11.5786-4.99-11.5786-11.1232v-25.434c0-7.0441,4.5346-11.8111,11.5786-11.8111h27.4785c6.8115,0,11.5785,4.767,11.5785,11.8111V259.12c0,6.1333-4.767,11.1232-11.5785,11.1232Z" style="fill:#fff"/><path d="M475.5445,387.1813c-7.9451,0-12.2665-4.3117-12.2665-12.2568V241.1752c0-7.9451,4.3214-12.4894,12.2665-12.4894H736.4739c7.9451,0,12.4893,4.5539,12.4893,12.4991V374.9342c0,7.9451-4.5539,12.2665-12.499,12.2665Z" style="fill:#96b9ec"/><path d="M386.52,349.49c-6.8115,0-11.5786-4.99-11.5786-11.1232v-25.434c0-7.0441,4.3117-11.8208,11.5786-11.8208h27.4785c6.8212,0,11.3557,4.7767,11.3557,11.8208v25.434A10.9121,10.9121,0,0,1,413.9989,349.49Z" style="fill:#fff"/><path d="M798.2423,349.49c-6.8114,0-11.5785-4.99-11.5785-11.1232v-25.434c0-7.0441,4.5345-11.8208,11.5785-11.8208h27.4785c6.8115,0,11.5786,4.7767,11.5786,11.8208v25.434c0,6.1333-4.7671,11.1232-11.5786,11.1232Z" style="fill:#fff"/><path d="M386.52,428.7576c-6.8115,0-11.5785-5-11.5785-11.1329V392.1906c0-7.0343,4.3116-11.8014,11.5785-11.8014h27.4785c6.8212,0,11.3557,4.7671,11.3557,11.8014v25.4341a10.92,10.92,0,0,1-11.3557,11.1329Z" style="fill:#fff"/><path d="M798.2424,428.7576c-6.8115,0-11.5786-5-11.5786-11.1329V392.1906c0-7.0343,4.5346-11.8014,11.5786-11.8014h27.4785c6.8115,0,11.5785,4.7671,11.5785,11.8014v25.4341c0,6.1332-4.767,11.1329-11.5785,11.1329Z" style="fill:#fff"/><path d="M475.5445,580.4512c-7.9451,0-12.2665-4.5442-12.2665-12.2665V435.1136c0-7.7222,4.3214-12.2664,12.2665-12.2664h260.93c7.9451,0,12.4893,4.5539,12.4893,12.2664V568.1847c0,7.7223-4.5539,12.2665-12.499,12.2665Z" style="fill:#96b9ec"/><path d="M386.52,508.0053c-6.8115,0-11.5785-4.99-11.5785-11.1232V471.448c0-7.044,4.3116-11.8111,11.5785-11.8111h27.4785c6.8212,0,11.3557,4.7671,11.3557,11.8208v25.4244a10.9121,10.9121,0,0,1-11.3557,11.1232Z" style="fill:#fff"/><path d="M798.2424,508.0053c-6.8115,0-11.5786-4.99-11.5786-11.1232V471.448c0-7.044,4.5346-11.8111,11.5786-11.8111h27.4785c6.8115,0,11.5785,4.7671,11.5785,11.8208v25.4244c0,6.1332-4.767,11.1232-11.5785,11.1232Z" style="fill:#fff"/><path d="M386.52,587.2627c-6.8115,0-11.5785-4.99-11.5785-11.1232v-25.434c0-7.0441,4.3116-11.8111,11.5785-11.8111h27.4785c6.8212,0,11.3557,4.767,11.3557,11.8111V576.14a10.9121,10.9121,0,0,1-11.3557,11.1232Z" style="fill:#fff"/><path d="M798.2424,587.2627c-6.8115,0-11.5786-4.99-11.5786-11.1232v-25.434c0-7.0441,4.5346-11.8111,11.5786-11.8111h27.4785c6.8115,0,11.5785,4.767,11.5785,11.8111V576.14c0,6.1333-4.767,11.1232-11.5785,11.1232Z" style="fill:#fff"/><path d="M155.8891,747.7687h474.159c20.4441,0,30.6662-10.4546,30.6662-30.8891V359.8917c0-20.2116-10.2221-30.8793-30.6662-30.8793H155.8891C135.4449,329.0027,125,339.68,125,359.8917V716.88c0,20.4441,10.4546,30.8794,30.8891,30.8794Z"/><path d="M172.2347,404.1616c-6.8115,0-11.5786-4.99-11.5786-11.1232V367.6043c0-7.044,4.3117-11.8111,11.5786-11.8111h27.4785c6.8212,0,11.3557,4.7671,11.3557,11.8111v25.4438a10.9121,10.9121,0,0,1-11.3557,11.1232Z" style="fill:#fff"/><path d="M583.9567,404.1616c-6.8115,0-11.5786-4.99-11.5786-11.1232V367.6043c0-7.044,4.5345-11.8111,11.5786-11.8111h27.4784c6.8115,0,11.5786,4.7671,11.5786,11.8111v25.4438c0,6.1332-4.7671,11.1232-11.5786,11.1232Z" style="fill:#fff"/><path d="M261.2588,521.11c-7.9451,0-12.2665-4.3117-12.2665-12.2568V375.1037c0-7.9451,4.3214-12.4893,12.2665-12.4893H522.1882c7.9451,0,12.4893,4.5539,12.4893,12.499V508.8628c0,7.9451-4.5539,12.2665-12.499,12.2665Z" style="fill:#96b9ec"/><path d="M172.2347,483.419c-6.8115,0-11.5786-4.99-11.5786-11.1232V446.8617c0-7.044,4.3117-11.8208,11.5786-11.8208h27.4785c6.8212,0,11.3557,4.7768,11.3557,11.8208v25.4341a10.9121,10.9121,0,0,1-11.3557,11.1232Z" style="fill:#fff"/><path d="M583.9566,483.419c-6.8115,0-11.5785-4.99-11.5785-11.1232V446.8617c0-7.044,4.5345-11.8208,11.5785-11.8208h27.4785c6.8115,0,11.5786,4.7768,11.5786,11.8208v25.4341c0,6.1333-4.7671,11.1232-11.5786,11.1232Z" style="fill:#fff"/><path d="M172.2347,562.6861c-6.8115,0-11.5786-5-11.5786-11.1328V526.1192c0-7.0343,4.3117-11.8014,11.5786-11.8014h27.4785c6.8212,0,11.3557,4.7671,11.3557,11.8014v25.4341a10.92,10.92,0,0,1-11.3557,11.1328Z" style="fill:#fff"/><path d="M583.9567,562.6861c-6.8115,0-11.5786-5-11.5786-11.1328V526.1192c0-7.0343,4.5345-11.8014,11.5786-11.8014h27.4784c6.8115,0,11.5786,4.7671,11.5786,11.8014v25.4341c0,6.1332-4.7671,11.1329-11.5786,11.1328Z" style="fill:#fff"/><path d="M261.2588,714.38c-7.9451,0-12.2665-4.5442-12.2665-12.2665V569.0422c0-7.7223,4.3214-12.2665,12.2665-12.2665H522.1882c7.9451,0,12.4894,4.5539,12.4894,12.2665V702.1133c0,7.7223-4.5539,12.2665-12.499,12.2665Z" style="fill:#96b9ec"/><path d="M172.2347,641.9339c-6.8115,0-11.5786-4.99-11.5786-11.1232V605.3766c0-7.044,4.3117-11.8111,11.5786-11.8111h27.4785c6.8212,0,11.3557,4.7671,11.3557,11.8208v25.4244a10.9121,10.9121,0,0,1-11.3557,11.1232Z" style="fill:#fff"/><path d="M583.9567,641.9339c-6.8115,0-11.5786-4.99-11.5786-11.1232V605.3766c0-7.044,4.5345-11.8111,11.5786-11.8111h27.4784c6.8115,0,11.5786,4.7671,11.5786,11.8208v25.4244c0,6.1332-4.7671,11.1232-11.5786,11.1232Z" style="fill:#fff"/><path d="M172.2347,721.1913c-6.8115,0-11.5786-4.99-11.5786-11.1232V684.634c0-7.044,4.3117-11.8111,11.5786-11.8111h27.4785c6.8212,0,11.3557,4.7671,11.3557,11.8111v25.4341a10.9121,10.9121,0,0,1-11.3557,11.1232Z" style="fill:#fff"/><path d="M583.9567,721.1913c-6.8115,0-11.5786-4.99-11.5786-11.1232V684.634c0-7.044,4.5345-11.8111,11.5786-11.8111h27.4784c6.8115,0,11.5786,4.7671,11.5786,11.8111v25.4341c0,6.1332-4.7671,11.1232-11.5786,11.1232Z" style="fill:#fff"/><path d="M453.4543,804.9162q-56.5272,0-87.654-35.56-31.1307-35.56-31.1268-99.4766,0-64.2858,30.48-98.553t87.0074-34.2672q38.9778,0,64.101,15.4249t36.761,47.0135l-41.3793,12.5616q-14.4088-39.1626-60.0369-39.1626-35.0985,0-53.2944,25.0308t-18.1958,71.952q0,46.9212,19.489,73.1527t54.2179,26.2315q36.0222,0,60.037-22.9064V700.5443h-61.33V667.4778H555.9789v94.9507q-17.18,19.3967-44.52,30.9422A147.5658,147.5658,0,0,1,453.4543,804.9162Z" style="fill:#fff;stroke:#000;stroke-miterlimit:10;stroke-width:20px"/><path d="M657.0257,801.2216H611.9518V540.9384h45.0739Z" style="fill:#fff;stroke:#000;stroke-miterlimit:10;stroke-width:20px"/><path d="M766.94,801.2216H722.05V540.9384H867.2474v36.0222H766.94V655.84h96.0591v34.9138H766.94Z" style="fill:#fff;stroke:#000;stroke-miterlimit:10;stroke-width:20px"/></svg>