<svg id="图层_1" data-name="图层 1" xmlns="http://www.w3.org/2000/svg" viewBox="0 0 1415 1415"><title>FaviconGenerator</title><circle cx="707.5" cy="707.5" r="707.5" style="fill:none"/><rect x="207.5" y="207.5" width="1000" height="749.3333" style="fill:#418bca"/><rect x="207.5" y="956.8333" width="1000" height="250.6667" style="fill:#efad4d"/><path d="M781.6375,900H669.3567L500.9358,553.8012H379.2983V900H271.6959V100H505.614q112.2809,0,182.4561,53.8012,70.1757,53.8376,70.1755,175.4385,0,93.64-46.7836,145.0294-46.82,51.5349-107.6024,65.497ZM650.6433,329.24q0-65.46-39.7661-102.924-39.8027-37.39-128.655-37.4267H379.2983v276.023H510.2924q56.14,0,98.2456-30.4094Q650.6433,404.13,650.6433,329.24Z" transform="translate(207.5 207.5)" style="fill:#fff"/></svg>