<?xml version="1.0" encoding="utf-8"?>
<svg width="1000px" height="1000px" viewBox="0 0 1000 1000" version="1.1" xmlns:xlink="http://www.w3.org/1999/xlink" xmlns="http://www.w3.org/2000/svg">
  <g id="fontawesome-6">
    <path d="M0 500C0 223.858 223.858 0 500 0C776.142 0 1000 223.858 1000 500C1000 776.142 776.142 1000 500 1000C223.858 1000 0 776.142 0 500Z" id="Ellipse" fill="none" fill-rule="evenodd" stroke="none" />
    <g id="Group" transform="translate(251 250)">
      <path d="M35.7143 500C16.0714 500 0 483.929 0 464.286L0 35.7143C0 16.0714 16.0714 0 35.7143 0C55.3571 0 71.4286 16.0714 71.4286 35.7143L71.4286 464.286C71.4286 483.929 55.3571 500 35.7143 500L35.7143 500Z" id="Shape" fill="#528DD7" stroke="none" />
      <path d="M366.518 53.5714C296.429 53.5714 269.643 17.8571 200 17.8571C143.304 17.8571 116.518 41.0714 71.4286 50L71.4286 121.429C116.518 112.5 143.304 89.2857 200 89.2857C270.089 89.2857 296.429 125 366.518 125C389.286 125 406.25 121.875 428.571 114.732L428.571 329.018C406.25 336.161 389.286 339.286 366.518 339.286C296.429 339.286 269.643 303.571 200 303.571C177.232 303.571 159.375 307.589 142.857 312.5L142.857 383.929C159.375 378.571 177.232 375 200 375C270.089 375 296.429 410.714 366.518 410.714C408.036 410.714 429.464 400 500 375L500 17.8571C429.464 42.8571 408.036 53.5714 366.518 53.5714L366.518 53.5714Z" id="Shape" fill="#528DD7" stroke="none" />
    </g>
  </g>
</svg>