<svg id="图层_1" data-name="图层 1" xmlns="http://www.w3.org/2000/svg" viewBox="0 0 1000 1000"><title>FreeSSL</title><path d="M762.4864,418.1754H724.9687V360.2637c0-124.248-100.7145-224.9707-224.9666-224.9707S275.0273,236.0157,275.0273,360.2637v57.9117H237.5136A37.5129,37.5129,0,0,0,200,455.689v371.5a37.4858,37.4858,0,0,0,37.5136,37.5178H762.4864A37.5112,37.5112,0,0,0,800,827.1892v-371.5a37.5357,37.5357,0,0,0-37.5136-37.5136Zm-112.5052,0H350.0189V360.2637a149.9812,149.9812,0,1,1,299.9623,0Zm0,0" style="fill:#35b232"/><circle cx="500" cy="640" r="125" style="fill:#fff"/><rect x="475.5" y="565" width="49" height="150" rx="12" style="fill:#35b232"/><rect width="1000" height="1000" style="fill:none"/></svg>