<svg id="图层_1" data-name="图层 1" xmlns="http://www.w3.org/2000/svg" viewBox="0 0 1415 1415"><title>Freebiesbug</title><rect x="207.5" y="207.5" width="1000" height="1000" style="fill:#fff"/><circle cx="707.5" cy="707.5" r="707.5" style="fill:none"/><path d="M586.996,195.61c-.8405-6.8919-3.0492-15.5056-9.5181-19.0364-14.3073-7.8089-38.2357,15.3681-57.1092,27.3648-26.3853,16.7716-42.32,11.3289-141.583,10.708-128.6112-.8045-168.0131,7.9187-203.4512,24.9852a255.63,255.63,0,0,0-38.0728,22.6057q26.1752,50.5653,52.35,101.1308a144.0662,144.0662,0,0,1,19.0363-22.6057c25.4294-24.5329,59.11-38.5561,167.7581-52.35,24.5038-3.111,56.4088-6.6659,93.9921-9.5181-20.1167,35.3658-40.3433,73.1905-60.2554,113.4614-21.0661,42.6046-39.75,83.8406-56.3424,123.3034L178.9038,529.9362a183.0349,183.0349,0,0,0,11.8977,55.9194,180.7533,180.7533,0,0,0,11.8978,24.9852l122.5466-24.9852q-8.5471,18.8523-16.6568,39.2625A876.3574,876.3574,0,0,0,270.5163,746.475a145.6687,145.6687,0,0,0,26.1751,39.2625A148.2074,148.2074,0,0,0,358.56,825a620.0084,620.0084,0,0,1,69.0068-254.6115l52.35-9.5182a49.403,49.403,0,0,0-33.3136-51.16q49.3757-114.2183,98.7512-228.4365c8.78,1.1628,14.9382-.4987,19.0364-2.38C584.8625,269.4985,594.71,235.9181,586.996,195.61Z" transform="translate(207.5 207.5)" style="fill:#202226"/><path d="M926.0814,451.4112c-34.9715,11.9964-74.8219,25.3493-122.5466,26.175-4.3754.0757-7.8555.0295-9.5182,0V429.9953c-5.8786-8.242-43.5593-59.9925-74.9557-51.16-5.8707,1.6515-9.546,5.0894-16.6568,11.8977-36.9484,35.3765-41.8807,81.73-55.9194,80.9046-1.6807-.0988-4.2051-.9158-7.1386-4.7591l103.51-242.7137L670.28,188.4713A2078.9258,2078.9258,0,0,0,488.2449,725.059a96.4447,96.4447,0,0,0,5.9488,22.6057c14.1926,35.5549,45.963,52.5341,58.2989,58.2989q1.7847-19.0364,3.5693-38.0727c15.3449,16.3087,40.5258,37.2112,70.1967,35.6932,48.2455-2.4683,78.9682-62.7115,108.2693-120.1671,17.7463-34.7981,39.5041-87.0576,51.16-155.86a188.5717,188.5717,0,0,0,51.16-7.1387c57.7629-16.4318,92.0885-56.5565,105.89-74.9557C935.4062,448.1829,929.527,450.2292,926.0814,451.4112ZM657.1927,653.6726c-41.6591,80.09-58.576,82.41-65.4376,82.0944-10.4-.478-18.8786-7.9824-24.9852-15.4671L685.7472,490.6737a122.8237,122.8237,0,0,1,10.708,32.1239C699.3183,538.3909,701.5833,568.331,657.1927,653.6726Z" transform="translate(207.5 207.5)" style="fill:#202226"/></svg>