<svg id="图层_1" data-name="图层 1" xmlns="http://www.w3.org/2000/svg" viewBox="0 0 1000 1000"><title>GeneratedPhotos</title><circle cx="500" cy="500" r="500" style="fill:none"/><path d="M881.6667,191A166.6612,166.6612,0,0,0,809,118c-35.6666-18-82.3334-18-175.6667-18H366.6667c-93.3334,0-140,0-175.6667,18a166.6663,166.6663,0,0,0-73,73h0c-18,35.6666-18,82.3333-18,175.6666V633.3333c0,93.3333,0,140,18,175.6667a166.663,166.663,0,0,0,73,72.6667C226.6667,900,273.3333,900,366.6667,900H633.3333c93.3333,0,140,0,175.6667-18.3333A166.6485,166.6485,0,0,0,881.6667,809C900,773.3334,900,726.6666,900,633.3333V366.6666C900,273.3333,900,226.6666,881.6667,191ZM552.3333,630,299,763.3333,274.3333,690,482.6666,580,274.3333,470.3333V470L299,396.6666,552.3333,530Z" style="fill:#5061ff;fill-rule:evenodd"/></svg>