<svg id="图层_1" data-name="图层 1" xmlns="http://www.w3.org/2000/svg" viewBox="0 0 1000 1000"><title>Gmail</title><circle cx="500" cy="500" r="500" style="fill:none"/><path d="M163.63634,799.99994h672.7273A63.64092,63.64092,0,0,0,900,736.36364V263.63631A63.64088,63.64088,0,0,0,836.36364,200H163.63634A63.64084,63.64084,0,0,0,100,263.63631V736.36364a63.64088,63.64088,0,0,0,63.63634,63.6363Z" style="fill:#e0e0e0"/><path d="M536.36358,799.99994H836.36364A63.64092,63.64092,0,0,0,900,736.36364V263.63631A63.64088,63.64088,0,0,0,836.36364,200H163.63634A63.64084,63.64084,0,0,0,100,263.63631Z" style="fill:#d9d9d9"/><path d="M186.27089,799.99994H836.36364A63.64092,63.64092,0,0,0,900,736.36364V272.72727Z" style="fill:#eee"/><path d="M531.72541,799.99994H836.36364A63.64092,63.64092,0,0,0,900,736.36364V272.72727L404.92909,638.47271Z" style="fill:#e0e0e0"/><path d="M836.36364,236.36358H163.63634c-35.14186,0-63.63634-7.8691-63.63634,27.27273V736.36364a63.64088,63.64088,0,0,0,63.63634,63.6363h27.27272V281.81813H809.09091V799.99994h27.27273A63.64092,63.64092,0,0,0,900,736.36364V263.63631c0-35.14183-28.49454-27.27273-63.63636-27.27273Z" style="fill:#c03736"/><path d="M836.36364,200H163.63634A63.2796,63.2796,0,0,0,100,263.63631c0,21.92549,27.6,41.051,27.6,41.051L500,568.28907l372.4-263.58S900,285.5618,900,263.65817A63.28444,63.28444,0,0,0,836.36364,200Z" style="fill:#f5f5f5"/><path d="M849.92909,201.49087,500,445.45449,150.07086,201.49087A63.162,63.162,0,0,0,100,263.63631c0,21.92549,27.6,41.051,27.6,41.051L500,568.28907l372.4-263.58S900,285.5618,900,263.65817a63.16835,63.16835,0,0,0-50.07091-62.1673Z" style="fill:#db4e49"/></svg>