<?xml version="1.0" encoding="utf-8"?>
<!-- Generator: Adobe Illustrator 23.0.1, SVG Export Plug-In . SVG Version: 6.00 Build 0)  -->
<svg version="1.1" id="图层_1" xmlns="http://www.w3.org/2000/svg" xmlns:xlink="http://www.w3.org/1999/xlink" x="0px" y="0px"
	 viewBox="0 0 1000 1000" style="enable-background:new 0 0 1000 1000;" xml:space="preserve">
<style type="text/css">
	.st0{fill:#FBBC05;}
	.st1{fill:#EA4335;}
	.st2{fill:#34A853;}
	.st3{fill:#4285F4;}
</style>
<g>
	<path class="st0" d="M209,499.3c0-31.5,5.2-62.8,15.3-92.7L52.3,278.1c-69.9,139.2-69.9,303.2-0.1,442.4l172-128.8
		C214.2,561.9,209,530.7,209,499.3"/>
	<path class="st1" d="M511.3,204.2c68.4-0.2,134.9,23.1,188.2,65.8l148.8-145.3C757.7,47.6,641.4-0.1,511.3-0.1
		c-202.1,0-375.8,113-459,278.2l172.2,128.6C264.1,288.9,377.1,204.2,511.3,204.2"/>
	<path class="st2" d="M511.3,794.5c-134.2,0-247.2-84.7-286.9-202.4L52.3,720.6c83.2,165.2,256.9,278.2,459,278.2
		c124.7,0,243.8-43.3,333.2-124.5L681.1,750.8C635,779.2,577,794.5,511.3,794.5"/>
	<path class="st3" d="M999.5,499.3c0-29.5-4.7-61.3-11.6-90.8H511.2v193h274.3c-13.7,65.8-51,116.4-104.4,149.3l163.4,123.5
		C938.4,789.1,999.5,662.2,999.5,499.3"/>
</g>
</svg>
