<svg id="图层_1" data-name="图层 1" xmlns="http://www.w3.org/2000/svg" viewBox="0 0 1000 1000"><title>Google-SearchConsole</title><rect width="1000" height="1000" style="fill:none"/><path id="Background" d="M50,152H800V902H50Z" transform="translate(75 -27)" style="fill:none"/><rect id="SVGID" x="125" y="125" width="750" height="750" style="fill:none"/><path id="Shape" d="M317.1249,188.125,263.5,241.75v52.5626h53.625Zm0,106.1876v1.0935H263.5v-1.0935H155.8126L50,397.1249V508.906h88.3125V431.3751a29.888,29.888,0,0,1,29.8125-29.8125H683a29.9081,29.9081,0,0,1,29.8125,29.8125v77.5H798.875v-111.75L693.0613,294.3126H590.6263v1.0935H536.9675v-1.0935Zm219.8426,0h53.6588V241.75l-53.6588-53.625ZM321.2187,189.125V240.75H532.8762V189.125Zm358.47,220.9374a26.0263,26.0263,0,0,0-4.125.3127l-16.9688.0623c-163.0013.4376-326.0014-.25-489.0011.3127C156,408.7814,144.7812,424.375,147.2187,438.3437v70.75H703.8425c-.4987-27.75,1.4063-55.6875-1.0612-83.3127-3.2513-10.6875-13.3426-15.6873-23.0925-15.6873ZM197.75,429.8751a21.799,21.799,0,1,1-21.498,22.0959q-.002-.1418-.002-.2836A21.6734,21.6734,0,0,1,197.75,429.8751Zm66.6874,0A21.7989,21.7989,0,1,1,242.94,451.9708q-.002-.1417-.0021-.2834A21.6731,21.6731,0,0,1,264.4374,429.8751ZM51.125,515.9061V802.03a59.77,59.77,0,0,0,59.5939,59.625h27.5936V515.9061Zm661.6875,0V861.655H740.375A59.7761,59.7761,0,0,0,800,802.03V515.9061Zm-536.0314,46.5V776.47H368.5625V562.4061Zm413.8452.6563v118.03L537.2487,711.625,483.875,681.0925V563.6575a125.1875,125.1875,0,0,0,0,225.9375v76.2787h108.03V789.5612a125.1853,125.1853,0,0,0-1.2787-226.4988ZM176.7811,821.1887v44.685H424.4375v-44.685Z" transform="translate(75 -27)" style="fill:#458cf5;fill-rule:evenodd"/></svg>