<svg id="图层_1" data-name="图层 1" xmlns="http://www.w3.org/2000/svg" viewBox="0 0 1000 1000"><title>Graphberry</title><circle cx="500" cy="500" r="500" style="fill:none"/><polygon points="262.399 66.773 344.909 225.618 560.86 225.618 262.399 66.773" style="fill:#26d381"/><polygon points="489.238 548.085 489.238 676.834 573.499 676.834 634.318 548.085 489.238 548.085" style="fill:#ff3822"/><polygon points="232.282 290.295 87.411 290.295 420.807 935 565.699 935 232.282 290.295" style="fill:#ff3822"/><polygon points="232.282 290.295 298.94 419.044 846.035 419.044 912.589 290.295 232.282 290.295" style="fill:#ff3822"/><polygon points="500 807.94 565.699 935 579.235 935 779.335 548.085 634.318 548.085 500 807.94" style="fill:#ff3822"/><polygon points="846.035 419.044 700.997 419.044 667.96 483.179 812.873 483.179 846.035 419.044" style="fill:#ff3822"/><polygon points="233.241 290.295 299.837 419.044 444.709 419.044 233.241 290.295" style="fill:#212a34;opacity:0.5;isolation:isolate"/><polygon points="500 807.878 565.803 935 579.235 935 610.249 874.974 500 807.878" style="fill:#212a34;opacity:0.5;isolation:isolate"/><polygon points="740.604 483.179 846.035 419.044 700.997 419.044 667.96 483.179 740.604 483.179" style="fill:#212a34;opacity:0.5;isolation:isolate"/><polygon points="489.238 636.497 489.238 676.834 567.513 676.834 634.318 548.106 489.238 636.497" style="fill:#212a34;opacity:0.5;isolation:isolate"/><polygon points="540.066 175.249 634.693 225.618 654.966 225.618 738.206 65 540.066 175.249" style="fill:#26d381"/></svg>