<svg id="图层_1" data-name="图层 1" xmlns="http://www.w3.org/2000/svg" viewBox="0 0 1000 1000"><title>GreasyFork</title><rect width="1000" height="1000"/><path d="M357.8175,196.6034l.0354.0021L481.0275,348.2827c9.3292,11.33,9.3965,26.9126.159,36.15-9.2406,9.2373-24.8187,9.17-36.15-.156L293.3185,261.0605l-32.2442,32.2486,123.2141,151.75c9.2506,11.3338,9.2788,26.8511.0668,36.0578-9.2153,9.2035-24.7364,9.1629-36.0638-.0994l-151.6782-123.21-23.0656,23.0238L329.0211,536.3051c27.4875,27.4921,63.5584,44.1443,100.2726,46.3027,26.921,1.5827,52.5679-4.7315,73.9713-17.8429A58.5411,58.5411,0,0,0,517.07,586.1571L740.9927,810.08c17.6639,17.6591,42.2881,21.6678,55.0112,8.9554l23.0213-23.0677c12.7131-12.7184,8.7043-37.3438-8.9547-55.0066L586.1478,517.0382a58.22,58.22,0,0,0-21.3714-13.7828c13.1111-21.4032,19.4279-47.05,17.8452-73.9712C580.463,392.567,563.806,356.5,536.3179,329.0115L380.8443,173.538Z" style="fill:#fff"/></svg>