<?xml version="1.0" encoding="utf-8"?>
<svg width="1000px" height="1000px" viewBox="0 0 1000 1000" version="1.1" xmlns:xlink="http://www.w3.org/1999/xlink" xmlns="http://www.w3.org/2000/svg">
  <g id="Hippopx">
    <path d="M0 500C0 223.858 223.858 0 500 0C776.142 0 1000 223.858 1000 500C1000 776.142 776.142 1000 500 1000C223.858 1000 0 776.142 0 500L0 500Z" id="圆" fill="none" fill-rule="evenodd" stroke="none" />
    <path d="M803.073 636.62C707.553 524.927 626.669 543.464 591.287 461.349C573.797 420.758 572.497 367.341 598.59 326.244C631.627 274.21 704.248 248.744 751.953 267.82C787.336 281.969 791.977 313.811 814.028 311.638C844.568 308.628 881.917 242.988 857.846 194.79C839.798 158.653 794.161 146.21 762.907 150.972C741.816 154.186 724.378 165.677 719.089 169.23C690.967 188.122 689.895 206.395 671.62 209.396C654.872 212.146 651.843 197.444 620.499 187.487C615.965 186.015 611.326 184.891 606.621 184.125C583.498 180.462 570.334 180.937 554.772 180.184C520.779 178.54 523.383 168.397 497 169C472.248 169.566 475.566 178.365 445.228 180.184C429.279 181.14 416.613 180.444 393.379 184.125C388.674 184.891 384.035 186.015 379.501 187.487C348.156 197.444 345.128 212.146 328.38 209.396C310.105 206.395 309.033 188.122 280.911 169.23C275.622 165.677 258.184 154.186 237.093 150.972C205.839 146.21 160.202 158.653 142.154 194.79C118.083 242.988 155.432 308.627 185.972 311.638C208.023 313.811 212.664 281.969 248.047 267.82C295.752 248.743 368.373 274.21 401.41 326.244C427.503 367.341 426.202 420.758 408.713 461.349C373.332 543.464 292.448 524.927 196.927 636.62C196.927 636.62 148.752 692.951 138.503 753.468C136.548 765.012 138.417 785.508 142.154 826.498C142.59 831.27 143.443 839.398 149.457 844.755C158.469 852.782 173.351 849.495 178.669 848.406C251.402 833.518 335.984 861.112 408.713 819.194C418.479 813.565 443.574 797.725 470.788 797.286C470.788 797.286 471.457 797.275 500 797.286C528.543 797.275 529.211 797.286 529.212 797.286C556.427 797.726 581.521 813.566 591.287 819.194C664.016 861.112 748.597 833.518 821.331 848.406C826.649 849.495 841.531 852.782 850.543 844.755C856.557 839.398 857.41 831.27 857.846 826.498C861.584 785.508 863.452 765.013 861.497 753.468C851.248 692.951 803.073 636.62 803.073 636.62L803.073 636.62L803.073 636.62Z" id="形状" fill="#000000" fill-rule="evenodd" stroke="none" />
    <path d="M693.529 395.622C693.529 365.372 718.051 340.849 748.301 340.849C778.551 340.849 803.073 365.372 803.073 395.622C803.073 425.872 778.551 450.394 748.301 450.394C718.051 450.394 693.529 425.872 693.529 395.622L693.529 395.622Z" id="圆#2" fill="#000000" fill-rule="evenodd" stroke="none" />
    <path d="M196.927 395.622C196.927 365.372 221.449 340.849 251.699 340.849C281.949 340.849 306.471 365.372 306.471 395.622C306.471 425.872 281.949 450.394 251.699 450.394C221.449 450.394 196.927 425.872 196.927 395.622L196.927 395.622Z" id="圆#1" fill="#000000" fill-rule="evenodd" stroke="none" />
  </g>
</svg>