<svg id="图层_1" data-name="图层 1" xmlns="http://www.w3.org/2000/svg" viewBox="0 0 1415 1415"><title>Icons8-Upscaler</title><circle cx="707.5" cy="707.5" r="707.5" style="fill:none"/><rect x="207.5" y="207.5" width="1000" height="1000" rx="100"/><rect x="382.5" y="682.5" width="350" height="350" rx="35" style="fill:#fff"/><path d="M826.1053,133.3939H809.7522L809.3583,133l-.3938.3939H583.6687A40.406,40.406,0,0,0,543.2626,173.8h0a40.4061,40.4061,0,0,0,40.4061,40.4061H728.1523l-261.651,261.651L523.6441,533,785.6992,270.9448V416.2366a40.4061,40.4061,0,1,0,80.8122,0V173.8h0A40.406,40.406,0,0,0,826.1053,133.3939Z" transform="translate(207.5 207.5)" style="fill:#fff"/></svg>