<svg id="图层_1" data-name="图层 1" xmlns="http://www.w3.org/2000/svg" xmlns:xlink="http://www.w3.org/1999/xlink" viewBox="0 0 1000 1000"><defs><style>.cls-1{fill:#fff;}.cls-1,.cls-10,.cls-3,.cls-4,.cls-6,.cls-8{fill-rule:evenodd;}.cls-2{fill:none;}.cls-3{fill:#00f9e5;}.cls-4{fill:#1e1e1e;}.cls-5{mask:url(#mask);}.cls-6{fill:url(#未命名的渐变_2);}.cls-7{mask:url(#mask-2);}.cls-8{fill:url(#未命名的渐变_2-2);}.cls-9{mask:url(#mask-3);}.cls-10{fill:#0c6066;}</style><mask id="mask" x="178.34438" y="387.80233" width="272.46905" height="217.00659" maskUnits="userSpaceOnUse"><g id="c"><path id="a" class="cls-1" d="M191.95709,426.14827a155.80719,155.80719,0,0,0-12.95158,12.71105,2.618,2.618,0,0,0,.55507,3.95023L433.53185,604.35278a2.91065,2.91065,0,0,0,4.20926-1.23039,152.44012,152.44012,0,0,0-31.86089-169.823c-30.15869-30.22344-70.4566-45.49706-110.83778-45.49706A156.36574,156.36574,0,0,0,191.9571,426.139"/></g></mask><linearGradient id="未命名的渐变_2" x1="9.29479" y1="984.73243" x2="16.52084" y2="979.04715" gradientTransform="matrix(29.45251, 0, 0, -23.45731, -22.22098, 23510.29821)" gradientUnits="userSpaceOnUse"><stop offset="0" stop-color="#00f9e4"/><stop offset="1" stop-color="#4954ff"/></linearGradient><mask id="mask-2" x="549.19183" y="387.5248" width="272.47679" height="217.01491" maskUnits="userSpaceOnUse"><g id="f"><path id="d" class="cls-1" d="M594.13147,433.03111a152.45864,152.45864,0,0,0-31.8794,169.81374,2.91408,2.91408,0,0,0,4.20927,1.23966L820.44186,442.54127a2.60877,2.60877,0,0,0,.55506-3.95948,154.03138,154.03138,0,0,0-12.95158-12.71106A156.34518,156.34518,0,0,0,704.96,387.5248c-40.38118,0-80.6791,15.27362-110.82853,45.50631"/></g></mask><linearGradient id="未命名的渐变_2-2" x1="24.80578" y1="984.74373" x2="17.57963" y2="979.05835" gradientTransform="matrix(29.45335, 0, 0, -23.4582, 17.8649, 23511.16747)" xlink:href="#未命名的渐变_2"/><mask id="mask-3" x="124.99741" y="130.01955" width="750.00259" height="739.96097" maskUnits="userSpaceOnUse"><g id="h"><path id="g" class="cls-1" d="M124.99741,130.0196H874.99576V869.98052H125.00666Z"/></g></mask></defs><rect class="cls-2" width="1000" height="1000"/><path class="cls-3" d="M809.4145,532.62877a35.32869,35.32869,0,0,1,6.98457,22.75777c-6.91985,166.27059-145.59427,298.96875-315.6208,298.96875-169.98027,0-308.60846-132.6057-315.63006-298.8115a35.42258,35.42258,0,0,1,7.17888-22.98906L474.91216,162.24129a35.9317,35.9317,0,0,1,57.14425.24053Z"/><path class="cls-1" d="M399.67271,655.31726c-63.70328,57.061-162.17231,52.29664-219.93636-10.63881a152.48822,152.48822,0,0,1,10.76831-217.235C254.20794,370.38247,352.677,375.14679,410.441,438.073a152.50132,152.50132,0,0,1-10.76831,217.25351"/><path class="cls-4" d="M238.80481,479.60131A80.68835,80.68835,0,0,0,232.158,593.51812q.46947.52767.9481,1.047c30.56573,33.30405,82.66809,35.80186,116.3792,5.6247a80.91949,80.91949,0,0,0,23.13707-35.45958Z"/><g class="cls-5"><path class="cls-6" d="M191.95709,426.14827a155.80719,155.80719,0,0,0-12.95158,12.71105,2.618,2.618,0,0,0,.55507,3.95023L433.53185,604.35278a2.91065,2.91065,0,0,0,4.20926-1.23039,152.44012,152.44012,0,0,0-31.86089-169.823c-30.15869-30.22344-70.4566-45.49706-110.83778-45.49706A156.36574,156.36574,0,0,0,191.9571,426.139"/></g><path class="cls-1" d="M600.32973,655.03974C664.033,712.09146,762.502,707.34562,820.25686,644.41021a152.50117,152.50117,0,0,0-10.75908-217.25355c-63.70329-57.061-162.1723-52.29664-219.93638,10.63881a152.47491,152.47491,0,0,0,10.76833,217.24431"/><path class="cls-4" d="M761.19763,479.32378a80.69759,80.69759,0,0,1,6.63421,113.93066q-.46329.52062-.93554,1.03315a83.09855,83.09855,0,0,1-116.37924,5.62471A80.83666,80.83666,0,0,1,627.38,564.45271Z"/><g class="cls-7"><path class="cls-8" d="M594.13147,433.03111a152.45864,152.45864,0,0,0-31.8794,169.81374,2.91408,2.91408,0,0,0,4.20927,1.23966L820.44186,442.54127a2.60877,2.60877,0,0,0,.55506-3.95948,154.03138,154.03138,0,0,0-12.95158-12.71106A156.34518,156.34518,0,0,0,704.96,387.5248c-40.38118,0-80.6791,15.27362-110.82853,45.50631"/></g><g class="cls-9"><path class="cls-10" d="M809.52555,634.79825a142.45852,142.45852,0,0,1-199.48211,9.63968,139.25736,139.25736,0,0,1-27.33707-33.48908L819.81281,460.11841a138.374,138.374,0,0,1-10.28726,174.67984M706.09792,759.14271A299.71434,299.71434,0,0,1,246.16876,702.313a173.68227,173.68227,0,0,0,49.00323,7.0956,170.7496,170.7496,0,0,0,114.233-43.48032,167.26038,167.26038,0,0,0,40.39969-54.5539,17.02354,17.02354,0,0,0,1.31364-2.38679l.037-.08325a167.67032,167.67032,0,0,0-82.73286-219.31653l-.62909-.31454c-.8696-.39779-1.74845-.7586-2.62732-1.14715a170.60453,170.60453,0,0,0-34.8305-11.19387L485.27342,166.8206a20.69474,20.69474,0,0,1,16.615-8.18725h.0925a20.71331,20.71331,0,0,1,16.63353,8.326L670.48105,376.4697a170.75027,170.75027,0,0,0-35.65386,11.36964c-.87887.38854-1.7577.74933-2.62732,1.15639-.21277.09251-.41629.20352-.62909.3053a167.67755,167.67755,0,0,0-82.71433,219.32575v.02774a15.42271,15.42271,0,0,0,1.34141,2.42381,167.3434,167.3434,0,0,0,40.39045,54.56315,170.72114,170.72114,0,0,0,114.233,43.48032,173.38675,173.38675,0,0,0,47.86538-6.7811,296.54656,296.54656,0,0,1-46.59793,56.80194M180.1804,460.38669,417.28686,611.20784a139.13662,139.13662,0,0,1-27.33709,33.48908,142.46948,142.46948,0,0,1-199.48212-9.63043A138.37465,138.37465,0,0,1,180.1804,460.38666m21.48112-23.42388a143.12564,143.12564,0,0,1,183.08911-3.17312l.10176.074a136.60828,136.60828,0,0,1,10.352,9.36215l.4163.407c3.2009,3.21939,6.189,6.54056,9.00135,9.96347l.69384.8326c2.70133,3.33966,5.21763,6.78109,7.55817,10.278l.76784,1.14715q3.3304,5.12049,6.17975,10.44454l.85109,1.60045c1.77622,3.42291,3.39516,6.91985,4.86609,10.45379l.84185,2.05375q2.03987,5.16214,3.64495,10.41677l.73083,2.4238a136.8642,136.8642,0,0,1,4.56081,23.47011l.27752,2.81235a144.93555,144.93555,0,0,1,.148,21.92517c-.06476.98061-.185,1.94272-.27753,2.91409A138.758,138.758,0,0,1,429.341,584.139l-.0925.28677L199.94081,438.57255c.58282-.52731,1.11939-1.08239,1.72071-1.60045M704.96,401.98433a141.49469,141.49469,0,0,1,93.37164,34.71024c.60135.52731,1.14715,1.07315,1.72993,1.60045l-229.317,145.86255a138.21255,138.21255,0,0,1-6.189-29.89039c-.111-1.05461-.23129-2.09077-.31454-3.13614q-.40956-5.80944-.333-11.63791.08879-6.57336.7771-13.1181a138.62832,138.62832,0,0,1,14.59827-48.67945l.9251-1.73921c1.88722-3.49692,3.904-6.93835,6.10574-10.315l.8511-1.26741c2.322-3.45993,4.81059-6.86435,7.49343-10.17623.24054-.3053.50881-.60131.7586-.90661,2.79382-3.39517,5.76346-6.707,8.93658-9.89871l.46255-.46255q4.96788-4.95394,10.30575-9.31588l.13876-.111a141.994,141.994,0,0,1,89.699-31.51859m128.3132,28.79877a14.37057,14.37057,0,0,0-1.38769-1.86872,171.83367,171.83367,0,0,0-14.15421-13.8767c-1.37844-1.20264-2.84934-2.23878-4.25552-3.39517l-2.45154-1.94273A169.8234,169.8234,0,0,0,780.403,390.40192c-.85113-.4163-1.6837-.8696-2.56256-1.27666q-6.44881-3.01665-13.13659-5.47668l-.50882-.19427A171.38624,171.38624,0,0,0,703.60011,373.019l-161.719-223.08175a49.53981,49.53981,0,0,0-39.77985-19.91768h-.2313A49.52615,49.52615,0,0,0,462.12707,149.595L297.15168,373.31507a171.40473,171.40473,0,0,0-74.99891,16.08772c-.86961.39779-1.72071.86035-2.59032,1.2859a170.98311,170.98311,0,0,0-30.62124,19.30711c-.80484.64758-1.619,1.27666-2.41454,1.93348-1.41543,1.14715-2.88635,2.18327-4.26477,3.38591a171.60554,171.60554,0,0,0-14.145,13.86743,17.30342,17.30342,0,0,0-1.41542,1.88722,166.80115,166.80115,0,0,0,2.31278,223.22974,169.23141,169.23141,0,0,0,33.47059,28.1142,323.25373,323.25373,0,0,0,70.27159,97.41438c61.23322,58.13407,141.72731,90.15229,226.68967,90.15229,84.98089,0,165.50271-32.03664,226.72665-90.20776a323.29,323.29,0,0,0,69.88305-96.67432,169.69526,169.69526,0,0,0,34.93227-29.07631,166.78085,166.78085,0,0,0,2.29429-223.22975"/></g></svg>