<svg id="图层_1" data-name="图层 1" xmlns="http://www.w3.org/2000/svg" viewBox="0 0 1415 1415"><title>IDEO</title><rect x="207.5" y="207.5" width="1000" height="1000"/><polygon points="657.5 357.5 657.5 307.5 522.5 307.5 442.5 307.5 307.5 307.5 307.5 357.5 442.5 357.5 442.5 607.5 307.5 607.5 307.5 657.5 442.5 657.5 522.5 657.5 657.5 657.5 657.5 607.5 522.5 607.5 522.5 357.5 657.5 357.5" style="fill:#fff"/><path d="M725,100H550V450H725A175,175,0,0,0,900,275v0A175,175,0,0,0,725,100ZM830.5714,275a125,125,0,0,1-125,125H630V150h75.5715a125,125,0,0,1,125,125Z" transform="translate(207.5 207.5)" style="fill:#fff"/><polygon points="652.5 809.854 652.5 762.5 361.071 762.5 312.5 762.5 312.5 809.854 312.5 909.297 312.5 956.65 312.5 1055.146 312.5 1093.976 312.5 1102.5 652.5 1102.5 652.5 1055.146 361.071 1055.146 361.071 956.65 652.5 956.65 652.5 909.297 361.071 909.297 361.071 809.854 652.5 809.854" style="fill:#fff"/><circle cx="932.5" cy="932.5" r="192.5" style="fill:#fff"/><circle cx="932.5" cy="932.5" r="127.5"/><circle cx="707.5" cy="707.5" r="707.5" style="fill:none"/></svg>