<svg id="图层_1" data-name="图层 1" xmlns="http://www.w3.org/2000/svg" xmlns:xlink="http://www.w3.org/1999/xlink" viewBox="0 0 1000 1000"><defs><linearGradient id="未命名的渐变_20" x1="35" y1="500" x2="452.2475" y2="500" gradientUnits="userSpaceOnUse"><stop offset="0" stop-color="#524be8"/><stop offset="1" stop-color="#a03ee4"/></linearGradient><linearGradient id="未命名的渐变_16" x1="458.917" y1="500" x2="965" y2="500" gradientUnits="userSpaceOnUse"><stop offset="0" stop-color="#993ce4"/><stop offset="1" stop-color="#e554e0"/></linearGradient></defs><title>ifkdy</title><circle cx="500" cy="500" r="500" style="fill:none"/><path d="M386.9826,605.2341q-22.1007,69.02-78.4732,105.7462-56.3745,36.7246-140.7375,36.73-74.2983,0-106.65-31.7754Q28.765,684.1587,36.49,619.9255L119.2189,606.6q-8.0483,78.2446,72.85,78.2424,88.18,0,112.1426-74.8252,6.8927-21.5258,2.5892-35.1926a45.1513,45.1513,0,0,0-16.6249-22.8912q-12.3273-9.2255-30.9553-15.546-18.6363-6.3183-40.0525-13.1546-51.8018-16.0557-71.7329-33.4831a76.5292,76.5292,0,0,1-25.2275-43.7338q-5.295-26.306,7.2927-65.6005,19.3647-60.4755,71.1623-94.3Q252.4552,252.29,325.3677,252.29q69.433,0,99.7951,27.1629,30.36,27.1627,26.6894,85.2462l-83.9889,14.0087q5.49-65.937-62.5545-65.9422-35.07,0-59.4015,16.9127-24.3423,16.9127-33.9641,46.9791-6.6745,20.8446-2.49,34.3377,4.18,13.5014,18.0231,23.4043,13.8324,9.9138,57.7393,24.6,51.3546,17.4253,71.4476,30.58,20.0842,13.1565,29.1826,29.2123,9.0876,16.0642,9.6,37.2422Q395.9521,577.2224,386.9826,605.2341Z" style="fill:url(#未命名的渐变_20)"/><path d="M947.3092,497.95Q922.911,574.1448,876.4,631.03q-46.5149,56.888-109.0282,86.7839Q704.8538,747.7066,631.9479,747.71q-111.7941,0-152.1809-65.7718-40.3911-65.7678-2.5359-183.9885Q514.7553,380.7626,597.1224,316.524,679.4812,252.293,791.28,252.29q111.7834,0,152.4531,64.9173Q984.3959,382.1266,947.3092,497.95Zm-86.1,0q27.57-86.1,4.3135-132.7381-23.2608-46.6377-95.4675-46.6378-73.6073,0-126.6166,46.296-53.0208,46.3014-80.8022,133.08-27.79,86.7894-4.6135,135.3008,23.1714,48.5195,95.04,48.5168,73.5994,0,126.4318-46.8086Q832.32,588.1531,861.2092,497.95Z" style="fill:url(#未命名的渐变_16)"/></svg>