<svg id="图层_1" data-name="图层 1" xmlns="http://www.w3.org/2000/svg" viewBox="0 0 1000 1000"><title>ImageCyborg</title><circle cx="500" cy="500" r="500" style="fill:none"/><path d="M580,140a80,80,0,1,0-119.9984,69.2727V353.3349h79.9995V209.2722A79.9562,79.9562,0,0,0,580,140Z" style="fill:#93c7ef"/><path d="M500,60V353.3349h40.0006V209.2722A79.9935,79.9935,0,0,0,500,60Z" style="fill:#5a8bb0"/><path d="M59.9985,433.3344H486.6659v213.332H59.9985Z" style="fill:#93c7ef"/><path d="M513.3341,433.3344H940.0015v213.332H513.3341Z" style="fill:#5a8bb0"/><path d="M380,646.668H620V860H380Z" style="fill:#93c7ef"/><path d="M500,646.668H620V860H500Z" style="fill:#5a8bb0"/><path d="M139.998,300.0019H860.002V780.004H139.998Z" style="fill:#cce9f9"/><path d="M500,300.0019H860.002V780.004H500Z" style="fill:#93c7ef"/><path d="M393.334,486.6674A53.3339,53.3339,0,0,1,340.001,540h0a53.3339,53.3339,0,0,1-53.333-53.333h0a53.3339,53.3339,0,0,1,53.333-53.333h0a53.3328,53.3328,0,0,1,53.333,53.333Z" style="fill:#3c5d76"/><path d="M713.332,486.6674A53.334,53.334,0,0,1,659.999,540h0a53.3328,53.3328,0,0,1-53.333-53.333h0a53.3339,53.3339,0,0,1,53.333-53.333h0a53.334,53.334,0,0,1,53.333,53.333Z" style="fill:#1e2e3b"/><path d="M380,620A120.001,120.001,0,0,0,500,740h0A120.0032,120.0032,0,0,0,620,620Z" style="fill:#3c5d76"/><path d="M500,620V740A120.0032,120.0032,0,0,0,620,620Z" style="fill:#1e2e3b"/></svg>