<svg id="图层_1" data-name="图层 1" xmlns="http://www.w3.org/2000/svg" viewBox="0 0 1000 1000"><title>Inspiral</title><path d="M807.7972,400.9929c-1.4757-16.7518-4.6495-43.4883-25.9685-70.3661-18.63-23.4882-41.1266-34.0536-56.963-41.0469-103.7924-45.8343-215.3709,33.7172-225.3392,41.0469-8.9876-6.7157-121.5573-88.2993-225.3391-41.8846-15.7535,7.0455-38.3024,17.896-56.9631,41.8846-20.0122,25.726-23.5018,51.2211-25.1307,67.8531-7.5343,76.927,51.7381,158.1683,148.2715,206.0722-6.7895,102.9719,29.1356,192.9694,97.1722,228.69,14.419,7.57,35.0116,16.9848,62.8269,16.7538,26.42-.2193,46.1586-9.2763,60.3138-16.7538,67.8886-35.8623,103.4549-125.7679,97.1723-228.69C754.7425,558.4924,814.5692,477.8658,807.7972,400.9929Zm-309.1084-21.78A365.1427,365.1427,0,0,1,615.128,579.4213a366.3967,366.3967,0,0,1-232.0406.8377A368.841,368.841,0,0,1,498.6888,379.2129ZM230.6274,417.7468c-.3165-11.74.4135-26.4581,6.7015-42.7223a88.3133,88.3133,0,0,1,26.8062-36.8585c44.8744-37.5732,126.291-29.98,204.3968,17.5916a408.445,408.445,0,0,0-122.303,208.5853C336.8327,559.6924,233.0211,506.5246,230.6274,417.7468ZM532.7858,803.3136a88.3119,88.3119,0,0,1-45.3234,4.7856c-17.2292-2.6866-30.3408-9.4135-40.3493-15.5575C371.426,746.08,377.2872,629.5924,377.9579,619.13A408.4454,408.4454,0,0,0,619.75,617.505C621.8947,708.9324,587.7624,783.2379,532.7858,803.3136Zm119.9964-238.133a408.445,408.445,0,0,0-122.303-208.5853c78.1058-47.5715,159.5224-55.1648,204.3968-17.5916a88.3124,88.3124,0,0,1,26.8061,36.8585c6.2881,16.2642,7.0181,30.9827,6.7016,42.7223C765.99,507.3623,662.1784,560.53,652.7822,565.1806Z" style="fill:red"/><path d="M909.1579,689.159C899.0533,583.1435,730.0271,494.9146,565.1624,475.3873c65.3741-152.8716,73.8462-343.83-12.8613-405.2827C534.4208,57.4321,515.396,50,499.5265,50s-34.8942,7.4321-52.7746,20.1046c-86.675,61.43-78.2414,252.2678-12.9344,405.1108C270.708,494.0507,101.593,579.8482,90.9209,686.432c-2.5948,25.9141,1.3451,51.0043,13.215,67.2293,7.8654,10.7511,24.1171,20.2181,43.56,27.6438C251.945,821.12,404.9621,717.8235,499.528,589.9176,594.8734,718.88,749.3838,822.6818,851.3572,781.3051c21.9436-8.9039,39.9858-21.3722,48.5861-35.1831C908.52,732.3486,911.2822,711.4462,909.1579,689.159ZM474.3958,98.5861c8.9371-5.468,17.78-9.2146,25.1307-9.2146s16.1937,3.7466,25.1308,9.2146c71.14,43.526,64.5163,226.72-2.5376,373.29q-11.3641-.4969-22.5932-.5172-11.2231-.0145-22.62.46C409.8776,325.258,403.2647,142.1064,474.3958,98.5861Zm25.1307,417.1706q-1.8426-3.1871-3.6407-6.4147,3.6556-.0421,7.2993-.0318Q501.3763,512.5517,499.5265,515.7567ZM153.56,742.7713c-7.3438-3.911-13.5893-7.9982-16.7539-12.5654-5.6278-8.1222-7.8086-20.6138-7.3974-34.0744,2.575-84.2868,162.8448-168.7876,321.5364-184.2974q6.0469,11.8354,12.5609,23.19,5.4795,9.5415,11.4583,19.0117C383.3057,683.9212,227.8125,782.3147,153.56,742.7713Zm691.9335,0C771.4248,782.7419,615.809,684.07,524.0866,554.04q5.9706-9.4677,11.4607-19.0163,6.6035-11.4986,12.73-23.5226c157.2824,14.4276,318.9871,97.8769,323.1846,184.36.5526,11.3827-.4674,21.7064-4.1884,28.4815C863.5147,731.1857,855.3452,737.4547,845.4933,742.7712Z" style="fill:blue;isolation:isolate"/><circle cx="500" cy="500" r="500" style="fill:none"/></svg>