<svg id="图层_1" data-name="图层 1" xmlns="http://www.w3.org/2000/svg" viewBox="0 0 1000 1000"><title>ITellYou</title><rect width="1000" height="1000" style="fill:none"/><path d="M338.3282,309.99c-20.2376-26.9569-31.0382-63.8556-22.0183-70.1325,12.5858-8.7586,47.6422,53.3212,110.0917,55.4536A121.4277,121.4277,0,0,0,449.7268,293.6a138.6666,138.6666,0,1,0-53.6681,62.5081C365.7606,345.71,341.3764,314.05,338.3282,309.99Z" style="fill:#f25222"/><path d="M659.633,309.99c20.2376-26.9569,31.0382-63.8556,22.0184-70.1325-12.5859-8.7586-47.6422,53.3212-110.0918,55.4536A121.4266,121.4266,0,0,1,548.2345,293.6a138.6666,138.6666,0,1,1,53.6681,62.5081C632.2007,345.71,656.5848,314.05,659.633,309.99Z" style="fill:#7fba00"/><path d="M511.213,407.0336H738.736V809.0724c9.27,21.549,20.7968,35.1338,29.7655,43.6289,10.97,10.39,21.1882,16.0806,59.9389,37.9205H697.1458A175.9391,175.9391,0,0,1,591.947,755.25V463.3028H511.213Z" style="fill:#fb0"/><path d="M171.56,480.02l176.1468-67.686V755.6575c.7075,8.4075,4.4985,41.8773,32.62,67.686,22.8267,20.95,48.8869,25.1062,59.5311,26.0958,29.8738,2.7776,52.2807-8.7941,90.52-28.5423a414.913,414.913,0,0,0,53.0071-32.62,129.2493,129.2493,0,0,1-13.0479,30.9888s-28.4223,48.3467-104.3833,75.0254c-.7883.2769-16.2855,5.7-16.31,5.7085H355.0459a189.6492,189.6492,0,0,1-38.3283-10.6014c-61.0841-24.0975-83.9479-70.29-85.6269-75.841-.08-.2648-2.4465-8.1549-2.4465-8.1549h0V531.3965H171.56Z" style="fill:#00a5ef"/></svg>