<svg id="图层_1" data-name="图层 1" xmlns="http://www.w3.org/2000/svg" viewBox="0 0 1000 1000"><title>Jianguo-Drive</title><rect width="1000" height="1000" style="fill:none"/><path d="M590.7459,249.4437c1.3664-15.05-35.9377-31.3831-60.9412-37.825-35.5578-9.162-66.0757-3.4319-79.854,0-18.9381,4.7175-59.0725,14.7156-81.9554,48.3331-16.5037,24.2462-12.1588,43.3322-31.5213,54.6369-14.6421,8.5486-22.2773.6412-44.13,4.2029-44.0112,7.173-91.4117,52.0206-90.361,90.361.3387,12.36,5.7937,26.9982-2.1014,33.6227-3.278,2.75-7.2552.259-16.8114,2.1015-6.994,1.3485-11.779,3.764-16.8114,6.3043-24.8176,12.5276-46.2311,37.825-46.2312,37.825-10.634,12.5628-27.9151,32.9557-37.8257,65.144-13.89,45.1138-4.1472,83.3368,0,98.7668,11.8448,44.0681,36.1754,71.4008,42.0285,77.7525,32.9188,35.7238,71.4744,48.1885,88.26,52.5356H389.01V751.6833H212.49a168.666,168.666,0,0,1-58.84-35.7243c-9.8388-9.2126-30.7426-29.2612-42.0285-63.0426-2.1328-6.3841-15.6559-49.0732,2.1014-96.6653,8.5983-23.0443,21.1813-38.3322,29.42-48.3331,12.387-15.0362,21.6869-26.3247,37.8255-33.6227,23.0664-10.4309,33.624-.7355,44.13-10.5072,15.5959-14.506-4.5-38.8207,8.4056-69.3468,14.5231-34.3518,57.6771-45.4408,60.9412-46.2313,27.14-6.5728,32.9269,5.8108,50.4341-2.1015,28.4334-12.85,17.8631-47.6367,52.5356-79.854,19.7867-18.3856,42.049-24.5437,52.5355-27.3184,9.8929-2.6175,44.2076-11.6962,79.8539,2.1014,24.5571,9.5053,39.1,25.747,52.5356,18.9125C582.7935,259.72,590.1645,255.846,590.7459,249.4437Z" style="fill:#ba601c"/><path d="M918.5675,358.7176c8.8781-5.4484,8.27-27.165,0-42.0284-9.7476-17.5194-30.6225-26.387-48.3331-27.3184-43.7113-2.2993-58.2476,53.1063-94.5639,50.4341-19.693-1.4492-20.1247-17.575-50.4341-39.9271-53.9652-39.7973-115.3686-33.575-157.6066-29.42-4.8054.4728-47.3545,4.98-50.4341,21.0142-1.038,5.4045,2.7731,10.22,0,16.8113-3.8489,9.15-16.2519,11.9238-18.9125,12.6086-30.24,7.7822-79.5225,93.4162-86.1581,105.0706-21.9719,38.5909-47.7887,84.82-60.9412,151.3022-12.6158,63.7693-3.8382,96.9311,0,109.2739,2.2873,7.3557,9.6581,30.3924,25.217,50.4341,51.8105,66.737,161.903,58.3153,237.4606,52.5355,0,0,82.5152-6.3121,138.6938-44.13,19.8533-13.3647,27.3183-25.2169,27.3184-25.2171,6.74-10.7,6.0308-16.4282,12.6085-21.0141,11.6712-8.1372,24.9108,3.3074,37.8256,0,27.4049-7.0184,37.0089-56.2336,42.0284-81.9555,7.0975-36.3693,17.0371-87.3056-4.2029-144.9981-20.175-54.8-53.0486-73.7747-42.0283-98.7667,7.1421-16.1975,29.5163-27.6522,48.3326-27.3185C897.5013,346.518,909.0985,364.5286,918.5675,358.7176Z" style="fill:#4b0b00"/><path d="M586.543,713.8576C685.4316,669.8383,735.2717,593.16,753.92,559.2652c-9.3128-17.3878-24.9118-42.4894-64.4074-95.4762,0,0-67.826-90.995-126.0853-134.4913a71.1,71.1,0,0,0-18.9124-10.5071c-7.6293-2.7637-14.6132-3.2458-24.5722-2.7014-4.3244,7.8037-15.244,10.2618-17.6906,10.8916-29.3609,7.5561-77.2107,90.7-83.6535,102.0164-21.3332,37.4691-46.3993,82.3544-59.1694,146.9036-12.2492,61.9154-3.7266,94.1133,0,106.0971,2.2206,7.1418,9.3771,29.5088,24.4838,48.9678a112.1259,112.1259,0,0,0,8.4974,9.6594C441.3971,747.33,511.7951,747.131,586.543,713.8576Z" style="fill:#f7cd7a"/><path d="M784.0766,631.9022c-7.3111-26.7492-16.75-45.997-25.2171-63.0426-1.4887-2.9972-3.0933-6.1475-4.94-9.5944C735.2715,593.16,685.4312,669.8385,586.543,713.8576,511.7951,747.131,441.3971,747.33,392.41,740.6251,445.49,794.86,544.9981,787.288,614.47,781.9738c0,0,80.1163-6.1285,134.6612-42.8468,19.2761-12.9763,26.5242-24.4838,26.5243-24.4839,6.5434-10.3891,5.8554-15.9508,12.2419-20.4033a15.5424,15.5424,0,0,1,5.8882-2.5151A288.2194,288.2194,0,0,0,784.0766,631.9022Z" style="fill:#b06923"/><path d="M781.9752,526.8312c38.335-53.9827,25.0205-123.5852,15.44-156.8765l-21.67-21.6692c-.7225-.0181-1.4361-.0138-2.176-.0744-31.6114-2.6-38.2653-42.36-98.7668-63.0426a200.9555,200.9555,0,0,0-23.1156-6.3043c-27.4095-5.7916-47.0087-4.13-82.1046-.8507,0,0-43.4864,4.064-43.9806,13.4593a41.5625,41.5625,0,0,1,0,6.3042,30.3734,30.3734,0,0,1-2.1015,8.4057,77.6141,77.6141,0,0,1,56.7384,18.9125c71.35,60.061,121.8823,128.1866,121.8823,128.1866,31.6,42.8851,51.64,70.0888,64.3625,91.5759A130.2754,130.2754,0,0,0,781.9752,526.8312Z" style="fill:#bd7031"/><path d="M861.3493,473.8844C844.42,427.55,819.0026,409.1561,816.2318,388.771l-18.8162-18.8169c9.58,33.2914,22.8947,102.8939-15.44,156.8766a130.2834,130.2834,0,0,1-15.4913,18.0262,184.6328,184.6328,0,0,1,11.2886,21.9008A351.7507,351.7507,0,0,1,805.0908,690.742c4.8075,1.9435,11.5981,3.7538,18.9125,2.1014,26.9025-6.0775,36.45-53.4712,41.4268-78.1765C872.2991,580.567,882.1924,530.9292,861.3493,473.8844Z" style="fill:#652e09"/><path d="M914.3643,325.0949c-6.7707-15.8193-24.76-27.7443-42.0284-29.42-37.17-3.607-53.28,37.655-80.8026,49.5094L818.9186,372.57c8.8643-19.3424,35.5458-34.8653,57.62-32.7648,18.7477,1.7838,30.7283,15.9506,37.8256,10.5071C919.95,346.028,917.83,333.19,914.3643,325.0949Z" style="fill:#bd7031"/></svg>