<svg id="图层_1" data-name="图层 1" xmlns="http://www.w3.org/2000/svg" viewBox="0 0 1000 1000"><title>Jieduanxin</title><rect width="1000" height="1000" style="fill:#42aafd"/><path d="M696.5,470A187.69,187.69,0,0,1,814,511.1085V341.5A81.74,81.74,0,0,0,732.5,260h-427A81.74,81.74,0,0,0,224,341.5v263a81.7346,81.7346,0,0,0,81,81.4872V796L410.6987,686h99.3044A189.999,189.999,0,0,1,508,658.5C508,554.3943,592.3943,470,696.5,470Z" style="fill:#369afd"/><path d="M677.5,440A187.69,187.69,0,0,1,795,481.1085V311.5A81.74,81.74,0,0,0,713.5,230h-427A81.74,81.74,0,0,0,205,311.5v263a81.7346,81.7346,0,0,0,81,81.4872V766L391.6987,656h99.3044A189.999,189.999,0,0,1,489,628.5C489,524.3943,573.3943,440,677.5,440Z" style="fill:#fff"/><rect x="267" y="305" width="465" height="54" rx="10.7766" style="fill:#ebeaeb"/><rect x="268" y="414" width="281" height="54" rx="10.7766" style="fill:#ebeaeb"/><rect x="268" y="524" width="183" height="54" rx="10.7766" style="fill:#ebeaeb"/><circle cx="689" cy="657" r="160" style="fill:#3295fd"/><circle cx="679" cy="628" r="160" style="fill:#fec000"/><path d="M679,585.7512a81,81,0,1,0,81,81A81,81,0,0,0,679,585.7512Zm0,141a60,60,0,1,1,60-60A60,60,0,0,1,679,726.7512Z" style="fill:#fff"/><path d="M679,616.7512a50,50,0,1,0,50,50A50,50,0,0,0,679,616.7512Zm7,48.5273v31.345a3.1369,3.1369,0,0,1-3.1276,3.1277h-7.7447A3.1369,3.1369,0,0,1,672,696.6235v-31.345a13.5,13.5,0,1,1,14,0Z" style="fill:#fff"/><path d="M616.5,606.2512v-45c1.2059-5.4979,6.8556-28.2757,28.5-42.5a61.5427,61.5427,0,0,1,34.5-10.5c20,.178,33.52,10.3973,37.5,13.5a70.042,70.042,0,0,1,24,38v46l-22-17v-27a44.77,44.77,0,0,0-11-19c-2.8448-2.8943-13.1183-13.0186-29-13-15.144.0177-24.94,9.1458-28,12-3.1276,2.9176-11.7472,10.9587-12,22-.01.42-.0054.767,0,1v23Z" style="fill:#fff"/></svg>