<?xml version="1.0" encoding="utf-8"?>
<!-- Generator: Adobe Illustrator 23.0.1, SVG Export Plug-In . SVG Version: 6.00 Build 0)  -->
<svg version="1.1" id="图层_1" xmlns="http://www.w3.org/2000/svg" xmlns:xlink="http://www.w3.org/1999/xlink" x="0px" y="0px"
	 viewBox="0 0 1000 1000" style="enable-background:new 0 0 1000 1000;" xml:space="preserve">
<style type="text/css">
	.st0{fill:none;}
	.st1{fill:#1296DB;}
</style>
<title>Jisuanqi</title>
<rect class="st0" width="1000" height="1000"/>
<path class="st1" d="M715.9,100H284.1c-42.1,0-76.2,34.1-76.2,76.2v647.6c0,42.1,34.1,76.2,76.2,76.2h431.7
	c42.1,0,76.2-34.1,76.2-76.2V176.2C792,134.1,757.9,100,715.9,100z M360.3,798.4c0,7-5.7,12.7-12.7,12.7h-38.1
	c-7,0-12.7-5.7-12.7-12.7v-38.1c0-7,5.7-12.7,12.7-12.7h38.1c7,0,12.7,5.7,12.7,12.7L360.3,798.4z M360.3,684.1
	c0,7-5.7,12.7-12.7,12.7h-38.1c-7,0-12.7-5.7-12.7-12.7V646c0-7,5.7-12.7,12.7-12.7h38.1c7,0,12.7,5.7,12.7,12.7L360.3,684.1z
	 M360.3,569.8c0,7-5.7,12.7-12.7,12.7h-38.1c-7,0-12.7-5.7-12.7-12.7v-38.1c0-7,5.7-12.7,12.7-12.7h38.1c7,0,12.7,5.7,12.7,12.7
	L360.3,569.8z M360.3,455.6c0,7-5.7,12.7-12.7,12.7h-38.1c-7,0-12.7-5.7-12.7-12.7v-38.1c0-7,5.7-12.7,12.7-12.7h38.1
	c7,0,12.7,5.7,12.7,12.7L360.3,455.6z M474.6,798.4c0,7-5.7,12.7-12.7,12.7h-38.1c-7,0-12.7-5.7-12.7-12.7v-38.1
	c0-7,5.7-12.7,12.7-12.7h38.1c7,0,12.7,5.7,12.7,12.7L474.6,798.4z M474.6,684.1c0,7-5.7,12.7-12.7,12.7h-38.1
	c-7,0-12.7-5.7-12.7-12.7V646c0-7,5.7-12.7,12.7-12.7h38.1c7,0,12.7,5.7,12.7,12.7L474.6,684.1z M474.6,569.8
	c0,7-5.7,12.7-12.7,12.7h-38.1c-7,0-12.7-5.7-12.7-12.7v-38.1c0-7,5.7-12.7,12.7-12.7h38.1c7,0,12.7,5.7,12.7,12.7L474.6,569.8z
	 M474.6,455.6c0,7-5.7,12.7-12.7,12.7h-38.1c-7,0-12.7-5.7-12.7-12.7v-38.1c0-7,5.7-12.7,12.7-12.7h38.1c7,0,12.7,5.7,12.7,12.7
	L474.6,455.6z M588.9,798.4c0,7-5.7,12.7-12.7,12.7h-38.1c-7,0-12.7-5.7-12.7-12.7v-38.1c0-7,5.7-12.7,12.7-12.7h38.1
	c7,0,12.7,5.7,12.7,12.7L588.9,798.4z M588.9,684.1c0,7-5.7,12.7-12.7,12.7h-38.1c-7,0-12.7-5.7-12.7-12.7V646
	c0-7,5.7-12.7,12.7-12.7h38.1c7,0,12.7,5.7,12.7,12.7L588.9,684.1z M588.9,569.8c0,7-5.7,12.7-12.7,12.7h-38.1
	c-7,0-12.7-5.7-12.7-12.7v-38.1c0-7,5.7-12.7,12.7-12.7h38.1c7,0,12.7,5.7,12.7,12.7L588.9,569.8z M588.9,455.6
	c0,7-5.7,12.7-12.7,12.7h-38.1c-7,0-12.7-5.7-12.7-12.7v-38.1c0-7,5.7-12.7,12.7-12.7h38.1c7,0,12.7,5.7,12.7,12.7L588.9,455.6z
	 M703.2,798.4c0,7-5.7,12.7-12.7,12.7h-38.1c-7,0-12.7-5.7-12.7-12.7V646c0-7,5.7-12.7,12.7-12.7h38.1c7,0,12.7,5.7,12.7,12.7
	L703.2,798.4z M703.2,569.8c0,7-5.7,12.7-12.7,12.7h-38.1c-7,0-12.7-5.7-12.7-12.7v-38.1c0-7,5.7-12.7,12.7-12.7h38.1
	c7,0,12.7,5.7,12.7,12.7L703.2,569.8z M703.2,455.6c0,7-5.7,12.7-12.7,12.7h-38.1c-7,0-12.7-5.7-12.7-12.7v-38.1
	c0-7,5.7-12.7,12.7-12.7h38.1c7,0,12.7,5.7,12.7,12.7L703.2,455.6z M728.6,290.5c0,14-11.4,25.4-25.4,25.4H296.8
	c-14,0-25.4-11.4-25.4-25.4v-88.9c0-14,11.4-25.4,25.4-25.4h406.4c14,0,25.4,11.4,25.4,25.4L728.6,290.5z"/>
</svg>
