<svg id="图层_1" data-name="图层 1" xmlns="http://www.w3.org/2000/svg" viewBox="0 0 1000 1000"><title>Kanxue</title><path d="M596.749,465.5352l72.9581,19.5535a16.5118,16.5118,0,0,0,4.6434.6228,17.85,17.85,0,0,0,4.6389-35.0858l-38.4821-10.2679,19.8215-11.4308,154.6628,41.43a16.635,16.635,0,0,0,4.639.6239,17.8512,17.8512,0,0,0,4.6445-35.087L704.0827,403.6592l36.2542-20.8917,84.3869,22.5871a16.5443,16.5443,0,0,0,4.6434.6282,17.8541,17.8541,0,0,0,4.6433-35.0914l-49.827-13.3929,65.8993-38.0335a17.8417,17.8417,0,1,0-17.8592-30.8927l-65.8994,38.0345,13.3944-49.8224a17.848,17.848,0,0,0-34.4671-9.2858l-22.5942,84.376-33.6656,19.4666,32.2391-120.1784a17.85,17.85,0,0,0-34.4715-9.2857l-41.43,154.64-22.324,12.9487,10.2679-38.4832a17.85,17.85,0,0,0-34.4705-9.2857l-19.5558,72.9452-49.98,28.8316L546.674,494.42Z" style="fill:#5fc2ff"/><path d="M839.9041,675.6265l-65.9-38.0379,49.8282-13.3929a17.8463,17.8463,0,0,0-9.2868-34.4632L730.1583,612.32l-33.5731-19.4609,120.1009-32.1439a17.8464,17.8464,0,1,0-9.2879-34.4632L652.74,567.6768l-22.3239-12.9442,38.4866-10.2712a17.8462,17.8462,0,1,0-9.2869-34.4631L586.749,529.4648l-51.0751-29.4676,1-.5769L519.2666,468.474l-1.0947.6315V410.18l53.399-53.3973a17.8673,17.8673,0,1,0-25.2719-25.2644l-28.4843,28.1249V336.7853L631.0386,223.57a17.8669,17.8669,0,1,0-25.2663-25.2689l-87.9576,87.9474v-41.875l61.7917-61.7845A17.8685,17.8685,0,1,0,554.3356,157.32l-36.5209,36.6082V117.8572a17.8592,17.8592,0,0,0-35.7184,0v76.0713l-36.5209-36.5167a17.8669,17.8669,0,0,0-25.2708,25.2645l61.7917,61.7889v38.9274l-87.9577-87.9463a17.8681,17.8681,0,1,0-25.2707,25.2678L482.0963,333.839v25.8046l-28.1271-28.1249a17.8673,17.8673,0,0,0-25.2719,25.2644l53.399,53.3973v58.9251l-51.0795-29.4631-19.4632-72.9452a17.85,17.85,0,0,0-34.4716,9.2857l10.2724,38.4832-19.826-11.4308L326.094,248.3938a17.848,17.848,0,0,0-34.4671,9.2857l32.1476,120L287.52,356.7831,264.9252,272.41a17.8477,17.8477,0,1,0-34.4661,9.2869l13.3944,49.8214-65.9-38.0379a17.8418,17.8418,0,1,0-17.8592,30.8928l65.9,38.0379L176.166,375.8043a17.8519,17.8519,0,0,0,4.6434,35.0871,16.7054,16.7054,0,0,0,4.6435-.6239L269.84,387.68l33.6645,19.4609-120.2838,32.144a17.8535,17.8535,0,0,0,4.6433,35.09,16.55,16.55,0,0,0,4.6445-.6271l154.6629-41.4252,22.324,12.9431-38.4866,10.2678a17.8529,17.8529,0,0,0,4.6434,35.09,16.6823,16.6823,0,0,0,4.6434-.6239l72.9537-19.5524,51.0751,29.462-51.0751,29.4631L340.2954,509.82a17.8462,17.8462,0,1,0-9.2868,34.4631l38.4866,10.2712-19.8259,11.4274L195.0109,524.5508a17.8485,17.8485,0,1,0-9.2879,34.4675l120.1923,32.231-36.2541,20.8918-84.387-22.5871a17.8463,17.8463,0,0,0-9.2867,34.4632L225.8146,637.41l-65.8993,38.0379a17.852,17.852,0,0,0,8.93,33.3024,18.156,18.156,0,0,0,8.93-2.4108l65.8993-38.0378-13.3944,49.8224A17.8656,17.8656,0,0,0,242.8724,740a16.654,16.654,0,0,0,4.6433.6239A17.9049,17.9049,0,0,0,264.751,727.41l22.59-84.376,33.6657-19.4621L288.7716,743.75a17.8576,17.8576,0,0,0,12.5874,21.8716,16.5014,16.5014,0,0,0,4.6434.6284,17.9076,17.9076,0,0,0,17.2364-13.2143l41.4344-154.6448,22.324-12.9443-10.0023,38.6618A17.86,17.86,0,0,0,389.5868,645.98a16.4793,16.4793,0,0,0,4.6434.6283,17.9024,17.9024,0,0,0,17.2319-13.2143l19.5547-72.95,51.0795-29.463v58.93l-53.399,53.3928a17.8685,17.8685,0,0,0,25.2719,25.2678l28.1271-28.1284v22.8583L368.8679,776.4254a17.8684,17.8684,0,1,0,25.2707,25.2689l87.9577-87.943v41.8739l-61.7917,61.7856a17.8681,17.8681,0,0,0,25.2708,25.2678l36.5209-36.52v75.9843a17.8592,17.8592,0,0,0,35.7184,0V806.0715l36.5209,36.5157a17.8374,17.8374,0,0,0,25.1837-25.2679l-61.7046-61.6941V716.6945l87.9576,87.9462a17.8357,17.8357,0,0,0,25.1792-25.2678L517.8147,666.1611V640.3564L545.9418,668.48a17.8361,17.8361,0,0,0,25.18-25.2678L517.8147,589.82V530.89L568.89,560.3565l19.5591,72.9463a17.8972,17.8972,0,0,0,17.2319,13.2143,16.665,16.665,0,0,0,4.6434-.6239,17.7976,17.7976,0,0,0,12.5918-21.876l-10.2679-38.4833L632.47,596.9647,673.904,751.6062a17.8972,17.8972,0,0,0,17.2353,13.2143,16.62,16.62,0,0,0,4.6389-.6239,17.7939,17.7939,0,0,0,12.5929-21.876l-32.2347-120,36.2542,20.8917,22.5907,84.376a17.9042,17.9042,0,0,0,17.2353,13.2143,16.6994,16.6994,0,0,0,4.6434-.6228,17.7943,17.7943,0,0,0,12.5873-21.8772L756.0529,668.48l65.9039,38.0379a18.1522,18.1522,0,0,0,8.93,2.4118,17.8808,17.8808,0,0,0,9.0177-33.3034Z" style="fill:#09e"/><rect width="1000" height="1000" style="fill:none"/></svg>