<?xml version="1.0" encoding="utf-8"?>
<svg width="1000px" height="1000px" viewBox="0 0 1000 1000" version="1.1" xmlns:xlink="http://www.w3.org/1999/xlink" xmlns="http://www.w3.org/2000/svg">
  <g id="Group">
    <path d="M0 500C0 223.858 223.858 0 500 0C776.142 0 1000 223.858 1000 500C1000 776.142 776.142 1000 500 1000C223.858 1000 0 776.142 0 500Z" id="Ellipse-4" fill="none" fill-rule="evenodd" stroke="none" />
    <path d="M219.999 120L780.001 120Q782.456 120 784.908 120.12Q787.36 120.241 789.803 120.482Q792.246 120.722 794.674 121.082Q797.102 121.443 799.51 121.921Q801.917 122.4 804.299 122.997Q806.68 123.593 809.029 124.306Q811.378 125.019 813.69 125.846Q816.001 126.673 818.269 127.612Q820.537 128.551 822.756 129.601Q824.975 130.651 827.14 131.808Q829.305 132.965 831.411 134.227Q833.516 135.489 835.557 136.853Q837.598 138.217 839.57 139.679Q841.542 141.141 843.44 142.699Q845.337 144.256 847.156 145.905Q848.975 147.553 850.711 149.289Q852.447 151.025 854.095 152.844Q855.744 154.663 857.301 156.56Q858.859 158.458 860.321 160.43Q861.783 162.401 863.147 164.443Q864.511 166.484 865.773 168.589Q867.035 170.695 868.192 172.86Q869.349 175.025 870.399 177.244Q871.448 179.463 872.388 181.731Q873.327 183.999 874.154 186.31Q874.981 188.622 875.694 190.971Q876.407 193.32 877.003 195.701Q877.599 198.082 878.078 200.49Q878.557 202.898 878.918 205.326Q879.278 207.754 879.518 210.197Q879.759 212.64 879.88 215.092Q880 217.544 880 219.999L880 780.001Q880 782.456 879.88 784.908Q879.759 787.36 879.518 789.803Q879.278 792.246 878.918 794.674Q878.557 797.102 878.078 799.51Q877.599 801.917 877.003 804.299Q876.407 806.68 875.694 809.029Q874.981 811.378 874.154 813.69Q873.327 816.001 872.388 818.269Q871.448 820.537 870.399 822.756Q869.349 824.975 868.192 827.14Q867.035 829.305 865.773 831.411Q864.511 833.516 863.147 835.557Q861.783 837.598 860.321 839.57Q858.859 841.542 857.301 843.44Q855.744 845.337 854.095 847.156Q852.447 848.975 850.711 850.711Q848.975 852.447 847.156 854.095Q845.337 855.744 843.44 857.301Q841.542 858.859 839.57 860.321Q837.598 861.783 835.557 863.147Q833.516 864.511 831.411 865.773Q829.305 867.035 827.14 868.192Q824.975 869.349 822.756 870.399Q820.537 871.448 818.269 872.388Q816.001 873.327 813.69 874.154Q811.378 874.981 809.029 875.694Q806.68 876.407 804.299 877.003Q801.917 877.599 799.51 878.078Q797.102 878.557 794.674 878.918Q792.246 879.278 789.803 879.518Q787.36 879.759 784.908 879.88Q782.456 880 780.001 880L219.999 880Q217.544 880 215.092 879.88Q212.64 879.759 210.197 879.518Q207.754 879.278 205.326 878.918Q202.898 878.557 200.49 878.078Q198.082 877.599 195.701 877.003Q193.32 876.407 190.971 875.694Q188.622 874.981 186.31 874.154Q183.999 873.327 181.731 872.388Q179.463 871.448 177.244 870.399Q175.025 869.349 172.86 868.192Q170.695 867.035 168.589 865.773Q166.484 864.511 164.443 863.147Q162.401 861.783 160.43 860.321Q158.458 858.859 156.56 857.301Q154.663 855.744 152.844 854.095Q151.025 852.447 149.289 850.711Q147.553 848.975 145.905 847.156Q144.256 845.337 142.699 843.44Q141.141 841.542 139.679 839.57Q138.217 837.598 136.853 835.557Q135.489 833.516 134.227 831.411Q132.965 829.305 131.808 827.14Q130.651 824.975 129.601 822.756Q128.551 820.537 127.612 818.269Q126.673 816.001 125.846 813.69Q125.019 811.378 124.306 809.029Q123.593 806.68 122.997 804.299Q122.4 801.917 121.921 799.51Q121.443 797.102 121.082 794.674Q120.722 792.246 120.482 789.803Q120.241 787.36 120.12 784.908Q120 782.456 120 780.001L120 219.999Q120 217.544 120.12 215.092Q120.241 212.64 120.482 210.197Q120.722 207.754 121.082 205.326Q121.443 202.898 121.921 200.49Q122.4 198.082 122.997 195.701Q123.593 193.32 124.306 190.971Q125.019 188.622 125.846 186.31Q126.673 183.999 127.612 181.731Q128.551 179.463 129.601 177.244Q130.651 175.025 131.808 172.86Q132.965 170.695 134.227 168.589Q135.489 166.484 136.853 164.443Q138.217 162.401 139.679 160.43Q141.141 158.458 142.699 156.56Q144.256 154.663 145.905 152.844Q147.553 151.025 149.289 149.289Q151.025 147.553 152.844 145.905Q154.663 144.256 156.56 142.699Q158.458 141.141 160.43 139.679Q162.401 138.217 164.443 136.853Q166.484 135.489 168.589 134.227Q170.695 132.965 172.86 131.808Q175.025 130.651 177.244 129.601Q179.463 128.551 181.731 127.612Q183.999 126.673 186.31 125.846Q188.622 125.019 190.971 124.306Q193.32 123.593 195.701 122.997Q198.082 122.4 200.49 121.921Q202.898 121.443 205.326 121.082Q207.754 120.722 210.197 120.482Q212.64 120.241 215.092 120.12Q217.544 120 219.999 120L219.999 120Z" id="Rectangle" fill="#5BBBFB" fill-rule="evenodd" stroke="none" />
    <path d="M510 414.2L490 414.2L490 508L358 508L358 508L357.999 508Q357.508 508 357.018 508.024Q356.527 508.048 356.039 508.096Q355.55 508.144 355.065 508.216Q354.579 508.288 354.097 508.384Q353.616 508.48 353.14 508.599Q352.663 508.719 352.194 508.861Q351.724 509.004 351.262 509.169Q350.799 509.334 350.346 509.522Q349.892 509.71 349.448 509.92Q349.004 510.13 348.572 510.361Q348.139 510.593 347.717 510.845Q347.296 511.098 346.888 511.37Q346.48 511.643 346.086 511.936Q345.691 512.228 345.312 512.54Q344.932 512.851 344.568 513.181Q344.205 513.51 343.858 513.858Q343.51 514.205 343.181 514.568Q342.851 514.932 342.54 515.312Q342.228 515.691 341.936 516.086Q341.643 516.48 341.37 516.888Q341.098 517.296 340.845 517.717Q340.593 518.138 340.361 518.571Q340.13 519.004 339.92 519.448Q339.71 519.892 339.522 520.346Q339.334 520.799 339.169 521.261Q339.004 521.724 338.861 522.194Q338.719 522.663 338.599 523.14Q338.48 523.616 338.384 524.097Q338.288 524.579 338.216 525.065Q338.144 525.55 338.096 526.039Q338.048 526.527 338.024 527.018Q338 527.508 338 527.999L338 583L358 583L358 528L641 528L641 583L661 583L661 527.999Q661 527.508 660.976 527.018Q660.952 526.527 660.904 526.039Q660.856 525.55 660.784 525.065Q660.711 524.579 660.616 524.097Q660.52 523.616 660.401 523.14Q660.281 522.663 660.139 522.194Q659.996 521.724 659.831 521.261Q659.665 520.799 659.478 520.346Q659.29 519.892 659.08 519.448Q658.87 519.004 658.638 518.571Q658.407 518.138 658.155 517.717Q657.902 517.296 657.629 516.888Q657.357 516.48 657.064 516.086Q656.772 515.691 656.46 515.312Q656.149 514.932 655.819 514.568Q655.49 514.205 655.142 513.858Q654.795 513.51 654.431 513.181Q654.068 512.851 653.688 512.54Q653.309 512.228 652.914 511.936Q652.52 511.643 652.112 511.37Q651.703 511.098 651.282 510.845Q650.861 510.593 650.428 510.361Q649.995 510.13 649.552 509.92Q649.108 509.71 648.654 509.522Q648.201 509.334 647.738 509.169Q647.276 509.004 646.806 508.861Q646.336 508.719 645.86 508.599Q645.384 508.48 644.903 508.384Q644.421 508.288 643.935 508.216Q643.45 508.144 642.961 508.096Q642.473 508.048 641.982 508.024Q641.492 508 641.001 508L510 508L510 414.2Z" id="Rectangle-2-Union" fill="#000000" fill-rule="evenodd" stroke="none" />
    <path d="M272 636.6C272 594.626 306.026 560.6 348 560.6C389.974 560.6 424 594.626 424 636.6C424 678.574 389.974 712.6 348 712.6C306.026 712.6 272 678.574 272 636.6Z" id="Ellipse-Copy-3" fill="#F81B1D" fill-rule="evenodd" stroke="none" />
    <path d="M424 348C424 306.026 458.026 272 500 272C541.974 272 576 306.026 576 348C576 389.974 541.974 424 500 424C458.026 424 424 389.974 424 348Z" id="Ellipse-Copy-2" fill="#F81B1D" fill-rule="evenodd" stroke="none" />
    <path d="M576 636.6C576 594.626 610.026 560.6 652 560.6C693.974 560.6 728 594.626 728 636.6C728 678.574 693.974 712.6 652 712.6C610.026 712.6 576 678.574 576 636.6Z" id="Ellipse" fill="#F0FF48" fill-rule="evenodd" stroke="none" />
  </g>
</svg>