<svg id="图层_1" data-name="图层 1" xmlns="http://www.w3.org/2000/svg" xmlns:xlink="http://www.w3.org/1999/xlink" viewBox="0 0 1000 1000"><defs><linearGradient id="未命名的渐变_5" x1="1.4704" y1="996.6" x2="-2.417" y2="1000.3414" gradientTransform="translate(400.042 199608.4128) rotate(180) scale(199.402 199.408)" gradientUnits="userSpaceOnUse"><stop offset="0" stop-color="#ff0844"/><stop offset="1" stop-color="#ff7348"/></linearGradient></defs><title>Logosc</title><path d="M499.9749,0A500,500,0,1,0,1000,500,498.8987,498.8987,0,0,0,499.9749,0Z" transform="translate(0 0)" style="fill:url(#未命名的渐变_5)"/><path d="M982.4317,632.3426l-402.35-402.3381A249.5751,249.5751,0,0,1,627.8572,377.224c0,138.47-112.2707,250.7422-250.75,250.7422a249.5633,249.5633,0,0,1-142.847-44.668l398.9122,398.9A498.9718,498.9718,0,0,0,982.4317,632.3426Z" transform="translate(0 0)" style="fill:#e72741"/><path d="M667.4708,417.9069c0-138.47-112.2707-250.7421-250.75-250.7421-138.469,0-250.75,112.2723-250.75,250.7421S278.252,668.6492,416.721,668.6492C555.2,668.6492,667.4708,556.3769,667.4708,417.9069ZM416.726,605.9586h-.005c-103.7,0-188.0623-84.35-188.0623-188.0517S313.0209,229.85,416.721,229.85c103.7051,0,188.0673,84.3547,188.0673,188.0566C604.7883,521.6139,520.4261,605.9586,416.726,605.9586Z" transform="translate(0 0)" style="fill:#fff"/><path d="M816.2606,728.737,662.7617,575.2326a295.46,295.46,0,0,1-88.7053,88.6926L727.5654,817.43a62.7143,62.7143,0,1,0,88.69-88.6926Z" transform="translate(0 0)" style="fill:#fff"/><path d="M274.14,417.902h40.7318A101.9694,101.9694,0,0,1,416.726,316.0605V275.325C338.1109,275.325,274.14,339.2943,274.14,417.902Z" transform="translate(0 0)" style="fill:#fff"/></svg>