<?xml version="1.0" encoding="utf-8"?>
<!-- Generator: Adobe Illustrator 23.0.1, SVG Export Plug-In . SVG Version: 6.00 Build 0)  -->
<svg version="1.1" id="图层_1" xmlns="http://www.w3.org/2000/svg" xmlns:xlink="http://www.w3.org/1999/xlink" x="0px" y="0px"
	 viewBox="0 0 24 24" style="enable-background:new 0 0 24 24;" xml:space="preserve">
<style type="text/css">
	.st0{fill:#FFFFFF;stroke:#000000;stroke-miterlimit:10;}
</style>
<circle class="st0" cx="12" cy="12" r="8.5"/>
<title>Mapbox icon</title>
<path d="M12,0C5.4,0,0,5.4,0,12s5.4,12,12,12s12-5.4,12-12S18.6,0,12,0z M17.7,14.9C13.6,19,6.3,17.7,6.3,17.7S4.9,10.4,9.1,6.3
	c2.3-2.3,6.1-2.2,8.4,0.2S20,12.7,17.7,14.9z M13.4,7l-1.2,2.4l-2.4,1.2l2.4,1.2l1.2,2.4l1.2-2.4l2.4-1.2l-2.4-1.2
	C14.6,9.4,13.4,7,13.4,7z"/>
</svg>
