<svg id="图层_1" data-name="图层 1" xmlns="http://www.w3.org/2000/svg" viewBox="0 0 1000 1000"><title>MaterialTools</title><path d="M726.0508,125H273.9492C192.0271,125,125,192.0271,125,273.9492V726.0508C125,807.9728,192.0271,875,273.9492,875H875V273.9492C875,192.0271,807.9728,125,726.0508,125Z" style="fill:#1f9dff"/><path d="M383.592,317.0732H649.6675a33.3566,33.3566,0,0,1,33.2593,33.2593v299.335L616.408,583.1486H383.592a33.3574,33.3574,0,0,1-33.2595-33.2594V350.3325a33.25,33.25,0,0,1,33.2411-33.2593Z" style="fill:#b3b3b3"/><path d="M372.5056,328.16H638.581A33.3569,33.3569,0,0,1,671.84,361.419V660.7539l-66.5189-66.5191H372.5056a33.3573,33.3573,0,0,1-33.2595-33.2594V361.419A33.25,33.25,0,0,1,372.4872,328.16Z" style="fill:#fff"/><path d="M361.4191,339.2461H627.4944a33.3573,33.3573,0,0,1,33.26,33.26V671.84l-66.5191-66.5189H361.4191A33.3573,33.3573,0,0,1,328.16,572.0621V372.5056a33.25,33.25,0,0,1,33.241-33.2595Z" style="fill:#b3b3b3"/><path d="M350.3327,350.3325H616.408a33.3575,33.3575,0,0,1,33.26,33.26V682.9268L583.1486,616.408H350.3327a33.3572,33.3572,0,0,1-33.2595-33.2594V383.592a33.25,33.25,0,0,1,33.241-33.2595Z" style="fill:#fff"/><rect x="355.8759" y="383.5919" width="254.9889" height="196.2307" rx="27.2152" style="fill:#1f9dff"/><rect width="1000" height="1000" style="fill:none"/></svg>