<svg id="图层_1" data-name="图层 1" xmlns="http://www.w3.org/2000/svg" viewBox="0 0 999.0073 1000"><title>Moage</title><path d="M500,0C234.5151,0,17.3594,206.9124.9927,468.2715,9.8465,453.076,52.8524,385.1925,133,374c34.557-4.8259,63.45,2.644,81,9,15.0958-79.8259,75.5-141.1992,148-153,90.4957-14.73,186.3726,49.968,209,153V612a52.3838,52.3838,0,0,0,13,21s13.06,12.6691,36,15c28.5793,2.9039,79.1426-53.9747,123-143l115,67c-5.4448,10.6451-13.3853,25.2709-24,42-42.4731,66.939-92.1008,145.1537-176,162-52.7822,10.5983-118.6668-3.1848-165-48-36.83-35.6238-48.1874-78.1663-52-97V407c-2.7794-30.5523-29.8087-52.0952-57-49-23.3778,2.6611-43.0023,23.0931-45,49V759H209V549c-3.47-26.08-26.1186-45.5007-52-45a51.8329,51.8329,0,0,0-50,45V759H72.2259C159.8859,903.4725,318.67,1000,500,1000c276.1424,0,500-223.8577,500-500S776.1424,0,500,0ZM855,512a70,70,0,1,1,70-70A70,70,0,0,1,855,512Z" transform="translate(-0.9927)" style="fill:#75d175"/></svg>