<svg id="图层_1" data-name="图层 1" xmlns="http://www.w3.org/2000/svg" xmlns:xlink="http://www.w3.org/1999/xlink" viewBox="0 0 1000 1000"><defs><linearGradient id="未命名的渐变_2" x1="151.3604" y1="151.3604" x2="848.6396" y2="848.6396" gradientUnits="userSpaceOnUse"><stop offset="0" stop-color="#1e9cd7"/><stop offset="0.25" stop-color="#1e9cd7"/><stop offset="0.5" stop-color="#0e87ca"/><stop offset="0.75" stop-color="#0075be"/><stop offset="1" stop-color="#005b97"/></linearGradient></defs><title>Moakt</title><rect x="125" y="125" width="750" height="750" rx="90" style="fill:url(#未命名的渐变_2)"/><rect width="1000" height="1000" style="fill:none"/><path d="M376.0228,527.5609a179.26,179.26,0,0,1,17.2851-77.5253q17.2891-36.5941,47.5108-57.8256,30.2176-21.2391,65.82-21.2391,47.6358,0,68.64,42.01h1.79l9.213-36.5083H631.58L601.8785,506.017q-11.2759,50.1792-11.2682,65.7961,0,10.76,5.1027,15.8708,5.1107,5.1222,13.2843,5.1183,20.1608,0,37.9148-17.5274,17.7462-17.5235,28.2095-48.23,10.4672-30.71,10.4711-67.0463,0-45.5376-19.184-79.8306-19.1878-34.2851-55.77-52.84-36.5824-18.5433-86.207-18.551-62.17,0-109.1027,27.3733-46.9443,27.3811-72.9071,77.3847-25.9629,50.0151-25.959,113.4475,0,49.37,19.4575,86.4648a134.4647,134.4647,0,0,0,56.4658,57.0519q37.0045,19.9382,87.7152,19.95,76.564,0,152.37-40.4153l15.1128,31.9837q-79.6352,45.0336-168.499,45.0336-59.6619,0-105.7582-23.9194-46.0886-23.9233-72.2117-69.9689Q275,587.1211,275,526.9905q0-72.9072,32.6167-131.3656,32.6089-58.4546,89.278-90.5673,56.6613-32.105,127.0287-32.1088,62.1585,0,107.6962,23.1615t69.461,65.3741q23.9115,42.22,23.9194,98.0065,0,47.0849-15.4644,85.2067-15.4606,38.13-43.0567,59.7479-27.592,21.6259-60.5527,21.622-23.7709,0-37.5631-12.4715-13.8078-12.4716-13.8-34.3437,0-11.0651,1.5-17.2383h-1.7895q-13.3272,29.327-37.9069,46.69-24.5916,17.371-52.7541,17.3632-40.72,0-64.1551-26.8654Q376.015,572.3367,376.0228,527.5609Zm186.042-70.11q0-23.2786-15.6442-38.243-15.6363-14.9682-40.5013-14.9721-22.0481,0-40.3763,15.7379-18.3322,15.73-30.2568,45.1586a163.3026,163.3026,0,0,0-11.9168,61.9124q0,30.1944,12.1746,47.3388,12.1785,17.1367,36.2816,17.1367,17.6759,0,34.6016-11.3853,16.9257-11.3816,29.7411-32.2339,12.8232-20.8522,19.3559-48.23,6.5406-27.3811,6.5406-42.2205Z" style="fill:#fff"/></svg>