<svg id="图层_1" data-name="图层 1" xmlns="http://www.w3.org/2000/svg" xmlns:xlink="http://www.w3.org/1999/xlink" viewBox="0 0 1000 1000"><defs><linearGradient id="未命名的渐变_6" x1="35.0066" y1="518.8505" x2="909.2772" y2="518.8505" gradientUnits="userSpaceOnUse"><stop offset="0" stop-color="#4b93e3"/><stop offset="1" stop-color="#3bc9ba"/></linearGradient></defs><title>MockupWorld</title><circle cx="500" cy="500" r="500" style="fill:none"/><circle cx="913.9196" cy="343.5125" r="51.087" style="fill:#3bc9ba"/><path d="M878.6626,425.6247h0a49.7693,49.7693,0,0,0-65.0979,26.7626l-32.4014,77.6413L713.648,368.2462a50.03,50.03,0,0,0-94.1635-6.9L549.02,530.1958l-67.5851-161.95a50.03,50.03,0,0,0-94.1635-6.9l-70.2226,168.27-67.8275-162.53a50.03,50.03,0,0,0-94.1635-6.9L38.8587,638.6245a49.7694,49.7694,0,0,0,26.7625,65.0979h0A49.7693,49.7693,0,0,0,130.7192,676.96L200.7,509.2706l69.3568,166.1949a50.4788,50.4788,0,0,0,93.9846,0l68.8722-165.0338,70.4649,168.85a51.67,51.67,0,0,0,46.5469,28.2253c21.3-.3859,40.4469-14.4352,47.6171-35.1278l67.5844-161.9478L732.9221,672.886a51.1477,51.1477,0,0,0,3.9347,7.9167c1.9456,3.1872,16.0246,25.4144,41.7984,26.7046,24.0317,1.203,42.5681-16.2024,48.7649-30.1878.0723-.1631,2.5171-5.71,2.5171-5.71s47.4985-113.8178,75.4879-180.8867A49.7693,49.7693,0,0,0,878.6626,425.6247Z" style="fill:url(#未命名的渐变_6)"/></svg>