<svg id="图层_1" data-name="图层 1" xmlns="http://www.w3.org/2000/svg" xmlns:xlink="http://www.w3.org/1999/xlink" viewBox="0 0 1000 1000"><defs><linearGradient id="未命名的渐变_45" x1="500.5066" y1="918.3709" x2="500.5066" y2="198.3823" gradientUnits="userSpaceOnUse"><stop offset="0" stop-color="#ff9e57"/><stop offset="0.1649" stop-color="#ff9856"/><stop offset="0.3806" stop-color="#ff8854"/><stop offset="0.6246" stop-color="#ff6d50"/><stop offset="0.8876" stop-color="#ff474b"/><stop offset="1" stop-color="#ff3549"/></linearGradient></defs><title>MojiDict</title><rect width="1000" height="1000" style="fill:#fff"/><circle cx="500.5066" cy="558.3766" r="359.9943" style="isolation:isolate;fill:url(#未命名的渐变_45)"/><path d="M102.0013,439.4947c11.1636,30.6716,22.4044,43.9177,30.9762,50.2318,4.0742,3.0011,10.6436,6.7183,16.744,15.07,4.0765,5.5807,5.6182,10.0472,11.7207,16.744a71.9312,71.9312,0,0,0,9.2092,8.3719c15.655,11.353,47.5543,3.9068,69.4872-10.0463a96.2973,96.2973,0,0,0,22.6043-20.0927c3.4788,9.0769,5.881,20.3243.8372,29.3018-13.94,24.8116-75.8382,16.4176-76.1848,22.6043-.218,3.8914,24.3612,5.5916,26.79,16.7439.99,4.5451-2.0265,9.1563-5.0231,12.558-4.3593-6.34-11.6049-14.6046-21.7671-15.9068-8.3814-1.0739-11.439,3.5242-19.2555,2.5116-16.7262-2.1667-29.3432-26.67-25.1159-31.8134,2.6579-3.2338,11.7977,1.4005,13.3951-1.6744,1.1158-2.1478-2.2333-6.5462-5.86-9.2092-6.9717-5.1186-13.4315-2.6956-20.0927-4.1859-14.947-3.3443-22.25-24.456-25.953-35.1623A86.3236,86.3236,0,0,1,102.0013,439.4947Z" style="fill:gray"/><path d="M597.6213,142.29c1.0451-2.32,29.3644.7456,40.1854,20.93a36.8819,36.8819,0,0,1,4.186,17.5811c8.2986-2.2153,22.867-4.69,38.511.8372,18.0516,6.3783,29.3733,20.5282,28.4647,21.7671-.8244,1.124-11.8009-8.2636-31.8135-13.3952-10.5054-2.6937-23.1486-4.1243-25.1158,0-1.1332,2.3757,2.0463,4.9791.8371,6.6976-2.0612,2.9294-15.0266.66-21.767-7.5348-5.6415-6.8586-2.373-12.3369-5.86-21.7671C618.4628,149.0567,596.684,144.3712,597.6213,142.29Z" style="fill:gray"/><path d="M849.6173,350.752c.7794-1.3363,9.8729.6991,17.5811,6.6975,6.019,4.6839,6.5247,8.1512,10.0464,8.372,5.5821.35,11.0491-7.9389,13.3951-14.2323,3.6843-9.8836.8564-18.0255,2.5116-18.4183,1.5955-.3788,5.8874,6.7916,6.6976,15.07.7822,7.9928-1.3579,20.3259-9.2092,24.2787-5.8159,2.928-9.7432-1.2708-16.7439,2.5116-5.6858,3.0719-7.5091,8.2263-9.2092,7.5347-1.913-.7782.9727-7.07-.8372-14.2323C860.9941,357.032,848.6746,352.3682,849.6173,350.752Z" style="fill:gray"/><path d="M1000,1000H0V730a2904.5717,2904.5717,0,0,0,498,43.4348A2904.4646,2904.4646,0,0,0,1000,730Z" style="fill:#5a6c7c;isolation:isolate"/><path d="M684.3558,726.4045l36.222-415.3318-11.6764-1.0183-1.099,12.6015c-17.8284,3.3807-150.6214,30.66-224.04,105.9553C397.5274,517.0506,378.276,656.3285,378.276,656.3285a106.8414,106.8414,0,0,1,25.953-20.0927c13.2735-7.2993,29.9012-12.66,56.9294-13.3951,49.1067-1.3366,89.0987,13.7747,98.7891,17.5811,56.6705,22.26,103.1461,60.9557,114.0307,70.072L672.8,724.0029,258.5569,637.91,284.51,802.8378H779.2928l35.1623-49.3946ZM657.8994,541.6327a590.8165,590.8165,0,0,1,49.4532-213.8194L674.455,705.0267A588.128,588.128,0,0,1,657.8994,541.6327Z"/></svg>