<svg id="图层_1" data-name="图层 1" xmlns="http://www.w3.org/2000/svg" viewBox="0 0 1000 1000"><title>MT</title><rect width="1000" height="1000"/><path d="M112,690.2022V450.7053c7.5768-20.9138,28.8116-70.2475,80.5031-105.66,17.0329-11.6689,53.8668-36.1735,104.6541-35.22,35.4534.6655,61.9515,13.4412,77.4843,21.1321a214.709,214.709,0,0,1,66.4151,51.3208l76.478-57.3585c-1.784,20.8765,2.8664,34.9207,8.05,44.2767,10.29,18.5711,31.4922,34.5715,34.2138,37.2327a89.7918,89.7918,0,0,0-74.4654,63.3962V690.2022a113.233,113.233,0,0,1-96.6037-62.39V472.8437c-1.57-4.97-15.7956-47.4568-60.3774-63.3962-3.3066-1.1822-42.2674-14.3954-80.5031,7.044-31.9267,17.9018-45.742,50.0921-44.9847,50.7378.0824.07.408-.1719.7079-.4233V621.7745A96.1687,96.1687,0,0,1,112,690.2022Z" style="fill:#fff"/><path d="M535.6478,321.9H912a101.5986,101.5986,0,0,1-60.3774,86.5409H764.0755v281.761a107.171,107.171,0,0,1-90.5661-58.3648V408.4412H580.9308A92.4962,92.4962,0,0,1,535.6478,321.9Z" style="fill:#fff"/></svg>