<?xml version="1.0" encoding="utf-8"?>
<svg width="1000px" height="1000px" viewBox="0 0 1000 1000" version="1.1" xmlns:xlink="http://www.w3.org/1999/xlink" xmlns="http://www.w3.org/2000/svg">
  <g id="notion-avatar">
    <path d="M0 0L1000 0L1000 1000L0 1000L0 0L0 0L0 0L0 0Z" id="背景" fill="none" fill-rule="evenodd" stroke="none" />
    <g id="编组" transform="translate(125.12501 78.75)">
      <path d="M383.394 179.87C552.79 179.87 690.112 317.19 690.112 486.586C690.112 655.98 629.469 844.422 460.075 844.422C332.993 844.422 180.804 738.364 112.705 613.854C109.265 614.205 105.773 614.384 102.239 614.384C45.7737 614.384 0 568.612 0 512.145C0 461.199 37.2645 418.956 86.0238 411.186C119.619 278.249 240.018 179.87 383.394 179.87L383.394 179.87L383.394 179.87L383.394 179.87L383.394 179.87L383.394 179.87Z" id="脸型" fill="#FFFFFF" fill-rule="evenodd" stroke="#000000" stroke-width="12" stroke-linecap="round" stroke-linejoin="round" />
      <path d="M518.583 456.915C540.818 510.455 550.74 547.487 548.35 568.015C545.962 588.542 531.02 594.626 503.527 586.268" id="鼻子" fill="none" fill-rule="evenodd" stroke="#000000" stroke-width="12" stroke-linecap="round" stroke-linejoin="round" />
      <path d="M405.121 665.504C438.515 684.248 474.298 693.62 512.473 693.62C550.646 693.62 576.206 684.248 589.151 665.504" id="嘴巴" fill="none" fill-rule="evenodd" stroke="#000000" stroke-width="12" stroke-linecap="round" stroke-linejoin="round" />
      <path d="M81.6106 493.672L92.1953 533.174" id="线条" fill="none" fill-rule="evenodd" stroke="#000000" stroke-width="30" stroke-linecap="round" stroke-linejoin="round" />
      <g id="眼镜" transform="translate(71.77583 324.28168)">
        <g id="眼镜中架" transform="translate(389.57678 16.879328)">
          <g id="中架弯桥" transform="translate(2.5127716 0)">
            <path d="M6.25159e-06 1.68884L114.266 1.68884" id="线条" fill="none" fill-rule="evenodd" stroke="#000000" stroke-width="5" stroke-linecap="round" stroke-linejoin="round" />
          </g>
          <path d="M0 46.72C0 46.72 29.0029 25.2945 57.5095 25.2945C86.0164 25.2945 114.268 46.72 114.268 46.72" id="中架横梁" fill="none" fill-rule="evenodd" stroke="#000000" stroke-width="5" stroke-linecap="round" stroke-linejoin="round" />
        </g>
        <g id="眼镜腿" transform="translate(0 63.348675)">
          <path d="M284.123 0L0 22.7585" id="线条" fill="none" fill-rule="evenodd" stroke="#000000" stroke-width="10" stroke-linecap="round" stroke-linejoin="round" />
        </g>
        <path d="M661.3 39.2046C619.459 -20.2024 497.915 -7.26028 470.728 46.4407C443.541 100.142 541.931 175.157 601.652 175.157C661.373 175.157 703.143 98.6131 661.3 39.2046L661.3 39.2046L661.3 39.2046L661.3 39.2046L661.3 39.2046L661.3 39.2046Z" id="右眼镜片底色" fill="#0C0C0C" fill-rule="evenodd" stroke="none" />
        <path d="M647.627 156.992L557.271 0.487981C571.592 -0.630293 586.218 0.154455 600.063 3.03872L670.439 124.934C665.308 137.399 657.445 148.455 647.627 156.992L647.627 156.992Z" id="右眼镜片反光" fill="#FFFFFF" fill-rule="evenodd" stroke="none" />
        <path d="M660.201 39.1324C618.358 -20.2749 496.814 -7.33271 469.627 46.3682C442.44 100.069 540.83 175.084 600.551 175.084C660.272 175.084 702.044 98.5406 660.201 39.1324L660.201 39.1324L660.201 39.1324L660.201 39.1324L660.201 39.1324L660.201 39.1324Z" id="右眼镜框" fill="none" fill-rule="evenodd" stroke="#000000" stroke-width="5" stroke-linecap="round" stroke-linejoin="round" />
        <path d="M232.694 39.3794C274.537 -20.0276 396.081 -7.08553 423.266 46.6155C450.455 100.316 352.065 175.331 292.342 175.331C232.623 175.331 190.851 98.7879 232.694 39.3794L232.694 39.3794L232.694 39.3794L232.694 39.3794L232.694 39.3794L232.694 39.3794Z" id="左眼镜片底色" fill="#0C0C0C" fill-rule="evenodd" stroke="none" />
        <path d="M389.952 131.256L314.314 0.247194C328.904 -0.575083 343.734 0.667937 357.667 3.77006L415.015 103.1C408.496 112.961 399.862 122.51 389.952 131.256L389.952 131.256Z" id="左眼镜片反光" fill="#FFFFFF" fill-rule="evenodd" stroke="none" />
        <path d="M232.694 39.1324C274.537 -20.2749 396.081 -7.33271 423.266 46.3682C450.455 100.069 352.065 175.084 292.342 175.084C232.623 175.084 190.851 98.5406 232.694 39.1324L232.694 39.1324L232.694 39.1324L232.694 39.1324L232.694 39.1324L232.694 39.1324Z" id="左眼镜框" fill="none" fill-rule="evenodd" stroke="#000000" stroke-width="5" stroke-linecap="round" stroke-linejoin="round" />
      </g>
      <path d="M499.693 32.9014C600.409 76.546 644.966 135.298 650.495 179.87C654.275 210.357 647.033 242.732 628.768 276.996C554.646 268.477 496.283 273.162 453.684 291.055C369.107 326.577 282.204 324.449 192.976 284.665C203.452 328.088 213.424 362.622 208.31 409.906C204.904 441.43 194.68 489.569 177.639 554.319C146.549 484.279 126.954 443.808 118.852 432.911C110.752 422.013 94.5637 414.344 70.2891 409.906C50.6526 336.963 34.5056 302.556 47.2854 246.325C60.0652 190.093 107.239 127.846 161.026 110.859C167.051 108.956 158.531 97.0277 135.466 75.075C199.706 55.9536 245.852 44.9295 273.905 42.0027C283.783 40.9722 280.237 28.1405 263.265 3.50783C353.738 -5.99274 432.546 3.80513 499.693 32.9014L499.693 32.9014L499.693 32.9014L499.693 32.9014L499.693 32.9014L499.693 32.9014Z" id="头发" fill="#000000" fill-rule="evenodd" stroke="#000000" stroke-width="12" stroke-linecap="round" stroke-linejoin="round" />
    </g>
  </g>
</svg>