<?xml version="1.0" encoding="utf-8"?>
<svg width="1000px" height="1000px" viewBox="0 0 1000 1000" version="1.1" xmlns:xlink="http://www.w3.org/1999/xlink" xmlns="http://www.w3.org/2000/svg">
  <g id="notion-avatar+body">
    <path d="M0 0L1000 0L1000 1000L0 1000L0 0L0 0L0 0Z" id="矩形" fill="none" fill-rule="evenodd" stroke="none" />
    <path d="M324.868 916.665L324.858 916.665C323.248 916.712 321.703 916.035 320.645 914.82C319.4 913.257 318.883 911.233 319.227 909.262C319.947 904.493 320.645 899.642 321.32 894.95L321.32 894.942L321.32 894.925C321.693 892.337 322.078 889.662 322.462 887.03C307.802 891.015 292.69 893.092 277.498 893.212C271.088 893.22 264.685 892.785 258.333 891.912C251.953 891.025 245.65 889.643 239.483 887.778C239.19 887.478 239.078 887.232 239.157 887.048C239.292 886.727 239.97 886.577 241.292 886.577C241.788 886.577 242.302 886.597 242.832 886.618L242.955 886.623C243.41 886.642 243.838 886.66 244.187 886.66C244.423 886.67 244.66 886.652 244.892 886.603C239.777 883.143 235.608 878.458 232.767 872.975C231.397 870.328 230.293 867.553 229.47 864.69C228.628 861.753 228.01 858.758 227.617 855.728C226.858 849.417 226.668 843.048 227.05 836.702C227.36 830.265 228.028 823.893 228.675 817.73L228.675 817.72C229.03 814.315 229.37 811.097 229.638 807.978C231.907 793.343 233.975 778.142 235.973 763.437L235.973 763.425C241.08 725.882 246.362 687.062 255.842 650.105C258.292 640.558 260.972 631.345 263.812 622.72C266.853 613.477 270.202 604.537 273.758 596.148C277.527 587.26 281.668 578.667 286.07 570.603C290.635 562.228 295.667 554.117 301.14 546.305C306.897 538.56 313.285 531.305 320.237 524.612C327.198 517.903 334.752 511.838 342.807 506.493C350.827 501.168 359.377 496.687 368.318 493.117C377.3 489.542 386.67 487.038 396.238 485.657L397.31 485.51C399.158 485.263 401.083 485.04 402.945 484.823C412.703 483.688 422.79 482.513 431.04 477.382C435.332 473.957 438.63 469.458 441.827 465.112C444.343 461.685 446.72 458.445 449.377 456.033C450.633 454.855 452.062 453.875 453.613 453.13C455.157 452.403 456.838 452.018 458.543 452L458.603 452C460.157 452.108 461.66 452.602 462.977 453.435C464.567 454.307 466.27 455.48 468.072 456.723C469.755 457.887 471.497 459.088 473.287 460.137C473.53 455.933 474.918 452.175 476.257 448.538C477.245 446.123 477.997 443.618 478.5 441.058L478.572 440.575C478.743 439.32 478.838 438.075 478.932 436.873C479.327 431.727 479.7 426.867 485.905 421.777C488.925 419.548 492.193 417.677 495.643 416.2C499.643 414.455 503.773 413.02 507.995 411.908C512.547 410.695 517.172 409.773 521.842 409.152C526.555 408.512 531.305 408.185 536.062 408.175C541.677 408.125 547.28 408.692 552.77 409.87C558.113 411.075 562.583 412.898 566.057 415.285C569.238 417.497 572.123 420.11 574.638 423.057C576.995 425.838 579.057 428.857 580.787 432.065C584.258 438.403 586.613 445.193 589.108 452.385C590.917 457.598 592.787 462.987 595.123 468.202C597.042 467.337 599.127 466.91 601.23 466.948C605.095 467.012 608.882 468.053 612.235 469.978C613.815 470.863 615.252 471.98 616.5 473.292C617.627 474.452 618.478 475.85 618.99 477.383C620.693 479.455 621.448 483.725 622.182 487.853L622.182 487.858C622.715 490.862 623.217 493.7 624.053 495.687C629.452 496.547 634.688 497.637 639.618 498.925C644.337 500.153 648.987 501.638 653.545 503.372C657.785 504.987 661.923 506.853 665.942 508.958C669.733 510.95 673.397 513.175 676.912 515.62C680.285 517.973 683.507 520.535 686.558 523.292C689.542 525.988 692.358 528.863 694.993 531.902C697.61 534.927 700.053 538.095 702.313 541.393C704.588 544.718 706.695 548.157 708.627 551.693C712.578 559 715.93 566.617 718.648 574.465C721.527 582.733 723.947 591.153 725.9 599.688C729.797 616.348 732.53 633.998 735.437 655.372C739.32 677.272 744.668 699.547 749.842 721.087L749.842 721.09L749.842 721.09C753.198 735.063 756.668 749.515 759.717 763.77C763.138 779.76 765.65 793.787 767.397 806.65C769.41 820.957 770.498 835.378 770.66 849.825C770.713 857.202 770.47 864.512 769.94 871.552C769.383 878.938 768.49 886.285 767.283 893.387C769.053 895.928 770.563 898.64 771.79 901.485C772.548 902.785 772.922 904.273 772.87 905.778C772.82 907.243 772.412 908.675 771.68 909.947C770.343 912.438 767.763 914.01 764.937 914.053L764.932 914.053C764.817 914.053 764.7 914.053 764.583 914.045C762.278 913.843 759.945 913.617 757.688 913.397L757.678 913.397C751.945 912.84 746.018 912.262 740.133 912.045C728.19 911.63 715.33 911.428 700.82 911.428C692.358 911.428 683.165 911.495 671.887 911.642L668.785 911.682C622.763 912.255 575.987 913.063 530.75 913.847C463.277 915.012 393.502 916.22 324.868 916.665L324.868 916.665L324.868 916.665L324.868 916.665Z" id="底色" fill="#FFC196" stroke="none" />
    <g id="身体和咖啡" transform="translate(223.33333 424.48688)">
      <path d="M356.387 253.37C353.703 247.532 351.168 242.017 352.74 235.238L352.74 235.238C352.212 235.443 351.652 235.552 351.087 235.558C350.348 235.572 349.625 235.345 349.03 234.91C348.542 234.565 348.205 234.048 348.087 233.462C347.942 232.547 348.538 231.777 349.672 231.405C351.383 231.162 353.11 230.925 354.802 230.7C356.073 228.692 357.138 228.065 358.905 227.028C359.543 226.655 360.267 226.232 361.117 225.67C361.492 225.425 365.88 224.683 372.83 223.987C378.813 223.387 388.187 222.67 398.867 222.67C408.407 222.578 417.935 223.3 427.352 224.83C437.385 226.587 445.253 229.41 450.737 233.218C453.203 234.932 454.442 241.47 454.512 253.203C454.578 263.768 453.685 277.308 452.843 289.17L452.118 299.272C450.898 301.653 449.265 305.968 447.373 310.97C444.297 319.098 440.468 329.215 437.042 334.312C434.978 337.273 432.405 339.847 429.442 341.91C426.167 344.222 422.628 346.133 418.898 347.602C411.013 350.738 402.608 352.37 394.122 352.41C391.335 352.42 388.55 352.207 385.797 351.777C383.253 351.383 380.757 350.73 378.348 349.827L378.307 349.812C369.82 346.973 356.997 342.682 352.742 334.312C351.772 332.088 351.242 329.697 351.182 327.27C351.137 324.887 351.433 322.508 352.06 320.208C353.28 315.493 355.633 310.667 357.91 305.998C360.582 300.52 363.345 294.853 364.38 289.212C364.822 286.81 363.527 284.142 362.275 281.562C361.29 279.537 360.273 277.442 360.155 275.542C360.163 274.55 360.247 273.33 360.335 272.038C360.55 268.87 360.793 265.278 360.155 262.953C359.165 259.66 357.905 256.457 356.388 253.372L356.387 253.37L356.387 253.37L356.387 253.37Z" id="杯子" fill="#FFE674" fill-rule="evenodd" stroke="none" />
      <path d="M101.525 492.177C99.9153 492.225 98.3693 491.548 97.3125 490.333C96.0662 488.768 95.5498 486.747 95.894 484.775C96.616 479.995 97.3125 475.145 97.9885 470.457L98.0047 470.342C98.3728 467.788 98.753 465.142 99.1325 462.543C84.4727 466.527 69.3605 468.605 54.1695 468.725C47.7585 468.733 41.3548 468.298 35.0038 467.425C28.6212 466.54 22.317 465.16 16.1488 463.297C15.8537 462.997 15.7438 462.75 15.8211 462.565C15.9558 462.245 16.6339 462.095 17.956 462.095C18.4525 462.095 18.966 462.115 19.4965 462.137L19.6192 462.142C20.0745 462.16 20.5043 462.178 20.8512 462.178C21.0873 462.188 21.3238 462.17 21.5555 462.122C16.4414 458.66 12.2743 453.973 9.43344 448.488C8.06399 445.842 6.95975 443.067 6.13679 440.203C5.29639 437.267 4.67782 434.27 4.28632 431.242C3.52629 424.928 3.3364 418.56 3.71894 412.213C4.02814 405.778 4.6977 399.405 5.34455 393.243C5.69917 389.835 6.04034 386.615 6.30772 383.492C8.57735 368.855 10.6449 353.653 12.6443 338.95L12.6443 338.938C17.751 301.395 23.0315 262.573 32.5122 225.617C34.9612 216.07 37.6422 206.857 40.4813 198.233C43.5242 188.99 46.8705 180.05 50.4282 171.66C54.1963 162.773 58.3385 154.179 62.7395 146.116C67.3045 137.742 72.3347 129.63 77.8063 121.818C83.5637 114.074 89.951 106.818 96.9032 100.125C103.864 93.4162 111.418 87.3518 119.473 82.006C127.494 76.6812 136.044 72.1988 144.986 68.6307C153.967 65.0552 163.339 62.551 172.907 61.1698L173.977 61.0238L175.055 60.8818C176.56 60.6905 178.113 60.5095 179.617 60.335C189.372 59.2003 199.46 58.0265 207.708 52.8935C211.998 49.4685 215.298 44.9703 218.495 40.6233C220.905 37.3402 223.182 34.2398 225.703 31.8617C226.895 30.7045 228.24 29.7175 229.702 28.9282C231.127 28.1667 232.692 27.7003 234.302 27.5572L241.343 31.878L282.238 52.092C286.183 53.197 289.185 54.4283 291.157 55.7525C293.13 57.0767 294.13 58.53 294.13 60.0733L294.13 91.6505C294.13 93.7533 296.008 97.2358 299.71 102.002C303.413 106.768 309.045 112.952 316.448 120.381L330.197 106.677L329.888 104.883C328.587 97.1855 327.925 91.966 327.925 89.3673C327.925 88.668 328.777 87.4637 330.447 85.7877C332.85 83.4778 335.375 81.2995 338.012 79.2623C344.705 73.955 354.887 66.5908 368.272 57.3747L380.04 46.296L378.785 42.4808C380.637 42.5767 382.468 42.9073 384.237 43.4645C386.003 44.0098 387.698 44.7653 389.287 45.715C392.565 47.6875 394.828 50.2373 395.658 52.8948C397.362 54.9667 398.117 59.2357 398.85 63.3643L398.85 63.3687C399.382 66.373 399.885 69.2108 400.722 71.1982C406.12 72.057 411.357 73.1472 416.285 74.4367C421.005 75.6645 425.655 77.1487 430.213 78.8823C434.452 80.4983 438.592 82.364 442.61 84.4692C446.402 86.4605 450.065 88.6855 453.58 91.1313C456.953 93.4842 460.173 96.046 463.227 98.8018C466.208 101.5 469.025 104.376 471.66 107.415C474.275 110.439 476.72 113.608 478.98 116.906C481.255 120.232 483.362 123.67 485.292 127.207C489.245 134.512 492.598 142.127 495.317 149.976C498.193 158.244 500.615 166.664 502.567 175.198C506.463 191.86 509.198 209.508 512.105 230.882C515.987 252.782 521.337 275.057 526.51 296.598L526.51 296.602L526.51 296.602C529.867 310.573 533.337 325.025 536.385 339.28C539.805 355.27 542.318 369.297 544.065 382.16C546.077 396.467 547.167 410.888 547.328 425.335C547.38 432.712 547.138 440.022 546.608 447.062C546.052 454.448 545.158 461.795 543.952 468.897C545.722 471.438 547.232 474.152 548.458 476.995C549.217 478.295 549.59 479.783 549.538 481.288C549.488 482.753 549.08 484.185 548.348 485.457C547.012 487.948 544.432 489.52 541.605 489.565L541.6 489.565C541.487 489.565 541.368 489.565 541.25 489.557C538.953 489.355 536.627 489.132 534.375 488.91L534.357 488.91C528.618 488.352 522.688 487.775 516.802 487.557C504.855 487.142 491.995 486.94 477.487 486.94C469.027 486.94 459.835 487.007 448.555 487.153L445.453 487.193C399.447 487.767 352.67 488.575 307.435 489.358L307.42 489.358C239.942 490.525 170.167 491.732 101.534 492.178L101.525 492.177L101.525 492.177L101.525 492.177ZM218.15 305.08L212.458 346.36L226.148 375.835L257.143 365.395L307.65 352.082L336.628 322.682L352.977 317.193C351.967 319.948 351.365 322.838 351.192 325.768C351.042 328.698 351.572 331.623 352.74 334.313C356.995 342.683 369.818 346.975 378.305 349.815L378.347 349.828C380.757 350.733 383.252 351.387 385.795 351.778C388.548 352.21 391.333 352.422 394.12 352.413C402.607 352.373 411.012 350.742 418.897 347.605C422.627 346.135 426.165 344.225 429.44 341.913C432.402 339.85 434.975 337.277 437.04 334.313C440.465 329.218 444.295 319.1 447.37 310.972C449.263 305.972 450.897 301.655 452.117 299.275L453.052 286.153C453.882 274.237 454.632 261.845 454.497 251.977C454.347 241.013 453.115 234.878 450.732 233.223C445.25 229.413 437.382 226.592 427.348 224.835C417.932 223.305 408.402 222.582 398.863 222.675C388.183 222.675 378.81 223.39 372.827 223.99C365.877 224.688 361.487 225.43 361.113 225.675C360.262 226.235 359.538 226.66 358.902 227.033C357.135 228.07 356.068 228.697 354.797 230.705L353.902 230.825L358.945 223.983L357.16 223.03C350.817 219.667 345.508 217.108 341.383 215.427C337.258 213.745 334.198 212.893 332.292 212.893C330.295 212.893 327.21 214.465 323.122 217.565C317.663 221.893 312.495 226.575 307.647 231.578L306.553 232.085C300.142 234.998 293.893 238.258 287.837 241.85C282.887 244.862 279.147 247.68 276.718 250.232L276.545 250.415C271.638 255.68 261.792 269.868 247.27 292.587L226.143 305.082L218.15 305.08L218.15 305.08L218.15 305.08ZM359.772 261.665L352.135 247.043L352.135 235.428C352.34 235.377 352.542 235.313 352.74 235.238C351.168 242.018 353.703 247.533 356.387 253.373C357.69 256.062 358.82 258.832 359.772 261.663L359.772 261.665L359.772 261.665L359.772 261.665Z" id="衣服" fill="#FF6D6D" fill-rule="evenodd" stroke="none" />
      <path d="M102.901 487.612C102.071 487.612 101.253 487.412 100.516 487.027L100.344 486.933L100.054 486.767C99.0145 486.133 98.201 485.188 97.7302 484.065C97.2107 482.958 97.1345 481.695 97.5173 480.533C98.5367 477.568 99.3797 474.545 100.042 471.482C100.666 468.843 101.311 466.118 102.187 463.51L100.698 464.175L98.738 465.025C90.7472 468.583 82.5247 471.597 74.1268 474.043C64.8303 476.652 56.4235 477.922 48.4258 477.922C42.5178 477.942 36.633 477.182 30.924 475.662C25.8065 474.328 20.9577 472.12 16.5913 469.137C12.2173 466.16 8.61428 462.185 6.08001 457.542C3.66068 452.865 2.04378 447.817 1.29674 442.605C0.54149 437.397 0.135148 432.143 0.0803693 426.88C-0.249843 413.958 0.437845 401.03 2.13704 388.217C3.20361 379.553 4.75228 370.958 6.77579 362.468C5.59481 361.423 4.84384 359.978 4.66856 358.412C3.85434 351.838 4.86433 345.022 5.84026 338.428L5.84026 338.41C6.06156 336.915 6.29064 335.368 6.49136 333.865C7.60633 325.515 8.75676 317.822 10.01 310.348C12.7364 294.082 15.8657 278.218 19.3107 263.205C22.4462 249.537 26.1628 235.653 30.3573 221.942C34.4583 208.537 39.1223 194.942 44.222 181.538L45.1093 179.218C50.3827 165.508 55.451 153.774 60.6032 143.347C66.3087 131.629 72.9252 120.376 80.3915 109.693C83.8972 104.63 87.7075 99.7848 91.8015 95.1847C95.8985 90.5925 100.472 86.4482 105.443 82.8215C114.151 76.5282 124.44 71.4023 136.899 67.1468C142.453 65.257 148.101 63.6545 153.82 62.3458C159.366 61.0692 165.188 60.0173 171.127 59.2087C172.887 58.969 174.69 58.7398 176.435 58.5178C186.585 57.2263 197.078 55.8937 206.473 51.7607C205.808 50.5065 205.688 49.033 206.145 47.6882C206.567 46.319 207.442 45.1342 208.627 44.3283C215.503 39.7892 221.93 34.0525 228.147 28.5075C229.057 27.6962 229.998 26.8572 230.928 26.0322C231.302 25.688 231.79 25.4947 232.298 25.4897C233.013 25.498 233.675 25.8728 234.05 26.4827C234.412 27.0867 234.415 27.8393 234.062 28.4473C231.757 33.0092 229.02 37.3397 225.888 41.38C223.862 43.8928 221.697 46.254 219.657 48.4315C225.048 53.0927 229.625 58.7867 234.055 64.292L234.327 64.6295C235.707 66.3432 237.083 68.0958 238.415 69.7908C242.61 75.131 246.948 80.6518 251.798 85.5657C254.83 88.6685 258.203 91.4178 261.853 93.7603C265.507 96.0823 269.415 97.974 273.502 99.3977L275.203 99.9885C279.56 101.428 283.758 103.308 287.735 105.599C292.125 108.263 295.317 111.335 297.493 114.992C297.828 115.548 297.828 116.243 297.493 116.799C297.163 117.401 296.538 117.784 295.853 117.807C295.532 117.805 295.217 117.713 294.945 117.54C289.657 114.265 283.668 112.628 277.872 111.045C274.567 110.142 271.15 109.208 267.88 107.979C263.58 106.358 259.467 104.281 255.61 101.784C251.757 99.2767 248.152 96.4087 244.842 93.2192C239.278 87.8877 234.368 81.8392 229.622 75.9905L229.598 75.9608C228.628 74.7663 227.627 73.5315 226.633 72.3215C220.882 65.4218 214.548 59.0282 207.703 53.2105C202.46 56.6528 196.792 59.4003 190.842 61.384C185.152 63.3635 179.26 64.8687 172.7 66.4907L171.357 66.8233C164.175 68.6015 158.344 70.2235 153.008 71.93C146.948 73.8315 141.011 76.1023 135.229 78.7298C130.092 81.0508 125.096 83.67 120.264 86.5742C115.43 89.4702 110.892 92.8355 106.717 96.6215C97.643 104.949 90.6327 115.705 84.7733 125.134C77.8278 136.436 71.71 148.227 66.4678 160.413C61.7868 171.123 57.2433 182.922 52.175 197.535C47.696 210.453 43.5072 223.727 39.7253 236.992C35.9755 250.145 32.527 263.63 29.4772 277.073C26.4763 290.302 23.9592 303.823 21.7817 318.408C20.7958 325.012 19.9007 331.77 19.1205 338.5C18.919 340.237 18.7532 342.015 18.5922 343.735L18.5922 343.75C18.0878 349.142 17.5665 354.715 15.9019 359.932C15.5504 361.165 14.8125 362.253 13.7968 363.037C12.9179 363.678 11.8554 364.022 10.7668 364.012C10.6796 364.012 10.5916 364.012 10.5051 364.005L10.0526 369.665C9.47524 376.922 8.89576 384.65 8.70498 392.35C8.36241 406.153 8.60284 418.522 9.44191 430.153L9.57028 431.872C9.84879 436.62 10.6148 441.328 11.8562 445.922C13.379 451.073 15.6472 455.065 18.7913 458.125C22.0937 461.342 26.46 463.77 31.7667 465.338C36.5967 466.703 41.5907 467.403 46.6102 467.415C46.9178 467.418 47.2243 467.422 47.5215 467.422C52.8175 467.393 58.0978 466.843 63.2863 465.782C68.5135 464.71 73.661 463.283 78.6928 461.507C88.829 457.995 98.6493 453.385 108.147 448.927L110.605 447.773C120.668 443.06 130.868 437.958 140.919 432.608C150.707 427.402 160.645 421.805 170.455 415.978C180.252 410.163 190.133 404.032 199.825 397.765C204.532 394.72 209.287 391.568 213.96 388.402C214.893 387.77 215.822 387.105 216.722 386.463L216.722 386.463C218.395 385.268 220.127 384.032 221.9 382.983C221.233 382.377 220.77 381.582 220.572 380.702C220.382 379.793 220.567 378.845 221.087 378.075C219.107 376.328 217.397 374.3 216.01 372.057C214.582 369.752 213.405 367.302 212.5 364.747C210.732 359.723 209.733 354.463 209.538 349.142C209.272 342.28 210.115 335.338 210.93 328.627L210.935 328.59C211.065 327.517 211.2 326.405 211.328 325.313C211.81 321.207 212.403 317.157 212.972 313.387C213.072 312.728 213.158 312.073 213.25 311.378C213.375 310.433 213.505 309.455 213.665 308.49C203.138 314.275 192.245 319.86 181.29 325.092C170.48 330.253 159.291 335.222 148.032 339.86C136.891 344.45 125.443 348.677 113.034 352.778L110.637 353.568C103.855 355.787 98.6168 357.393 93.6527 358.77C87.3892 360.508 81.7407 361.825 76.3842 362.795C76.3497 362.8 76.3145 362.803 76.2793 362.803C75.9608 362.79 75.6915 362.563 75.6232 362.252C75.566 362.018 75.6958 361.78 75.9232 361.7C83.4137 358.395 91.2 355.388 98.7295 352.475C102.542 351.002 106.486 349.477 110.341 347.937L112.223 347.17C111.996 347.157 111.77 347.125 111.549 347.072C106.797 345.923 102.006 344.317 97.3748 342.762L97.3635 342.758C95.4633 342.12 93.4987 341.462 91.5767 340.848C89.6545 340.233 87.6203 339.682 85.6515 339.145C81.298 337.963 76.7957 336.742 72.8742 334.718C72.7015 334.64 72.6087 334.45 72.6522 334.265C72.6977 334.042 72.8832 333.873 73.1095 333.852C73.7535 333.807 74.4282 333.783 75.1147 333.783C79.5035 333.783 84.0683 334.685 88.4828 335.557C89.9802 335.853 91.3908 336.132 92.8093 336.38L95.1755 336.793C98.8018 337.432 103.016 338.2 107.136 339.223C107.29 337.868 107.987 336.632 109.067 335.798C118.679 328.68 119.485 315.55 120.196 303.967L120.196 303.96C120.342 301.587 120.48 299.347 120.688 297.2L121.605 287.735C123.16 271.758 124.897 254.77 127.514 238.165C127.556 237.837 127.845 237.597 128.175 237.617C128.613 237.597 128.986 237.932 129.016 238.368C129.109 252.332 128.403 266.488 127.721 280.177C127.407 286.468 127.082 292.973 126.84 299.383L126.721 302.723L126.703 303.248C126.284 315.64 125.852 328.452 118.05 337.978C118.533 337.693 119.083 337.542 119.643 337.535C120.375 337.522 121.074 337.838 121.546 338.397C122.608 339.552 123.218 341.052 123.263 342.62C130.143 339.737 137.324 336.638 144.603 333.415C155.783 328.462 167.145 323.08 178.375 317.422C189.302 311.915 200.395 305.998 211.347 299.832C212.295 299.26 213.432 299.092 214.505 299.365C215.577 299.638 216.497 300.328 217.055 301.285L217.222 301.26C217.25 301.257 217.278 301.253 217.308 301.253L217.473 301.245L217.492 301.245C218.473 300.718 219.573 300.448 220.688 300.465C223.163 300.53 225.528 301.508 227.327 303.21C227.39 303.272 227.448 303.338 227.5 303.397L227.538 303.442C230.913 301.923 234.027 299.882 236.765 297.393C239.657 294.745 242.332 291.87 244.768 288.798C247.015 286.002 249.263 282.882 251.642 279.265C253.588 276.302 255.495 273.203 257.338 270.207C260.135 265.662 263.027 260.962 266.158 256.562C269.24 252.13 272.767 248.025 276.683 244.312C280.955 240.395 285.743 237.085 290.917 234.475C296.087 231.873 301.503 229.797 307.087 228.275C307.047 227.943 307.157 227.61 307.39 227.37C307.648 227.028 308.035 226.807 308.46 226.76C308.688 226.768 308.913 226.828 309.115 226.935C309.165 226.96 309.207 226.998 309.233 227.048L310.322 225.187C311.115 223.838 311.565 223.11 311.742 222.89C313 221.305 314.312 219.713 315.642 218.158C317.848 215.42 320.47 213.045 323.413 211.118C325.793 209.65 328.542 208.89 331.338 208.927C335.31 208.927 339.377 210.255 343.307 211.538L343.397 211.567C346.025 212.425 348.69 213.317 351.27 214.178L351.34 214.202C352.695 214.655 354.097 215.125 355.473 215.582L355.888 215.717C356.137 215.797 356.385 215.875 356.665 215.962C358.093 216.355 359.478 216.895 360.797 217.572C363.36 218.865 364.723 221.73 364.11 224.535C375.038 221.83 386.263 220.493 397.522 220.558C406.822 220.585 416.105 221.355 425.283 222.862C434.347 224.338 443.3 226.432 452.078 229.125C453.227 229.44 454.122 230.335 454.437 231.483C456.05 239.66 457.158 247.927 457.755 256.24C458.348 264.553 458.297 272.9 457.6 281.205C457 288.358 455.855 295.453 454.173 302.432C452.485 309.407 450.147 316.21 447.187 322.748L446.847 323.49C443.285 331.187 439.658 337.282 435.755 342.12C433.502 344.968 430.905 347.53 428.025 349.743C425.225 351.892 422.05 353.498 418.662 354.483C415.072 355.425 411.367 355.865 407.655 355.788C404.43 355.788 401.153 355.555 397.985 355.33C396.322 355.212 394.602 355.09 392.942 355.007C391.108 354.915 389.233 354.838 387.42 354.765L387.415 354.765C381.132 354.51 374.633 354.248 368.37 353.253C364.868 352.732 361.483 351.6 358.37 349.91C355.272 348.198 352.565 345.857 350.427 343.037C346.565 337.957 344.535 331.758 342.917 325.822C342.045 326.1 341.33 326.35 340.665 326.61C337.6 327.88 334.823 329.753 332.497 332.12C330.208 334.337 328.118 336.807 326.097 339.197C323.68 342.197 321.052 345.018 318.228 347.637C313.423 351.815 307.99 355.207 302.128 357.687C297.157 359.788 292.032 361.503 286.798 362.82C281.59 364.177 276.215 365.287 271.02 366.36L270.975 366.368C268.738 366.83 266.427 367.308 264.157 367.8L263.262 367.995C259.22 368.882 253.928 370.113 248.815 371.778C244.08 373.265 239.52 375.265 235.22 377.745C235.078 379.203 234.392 380.557 233.297 381.53C234.052 382.225 234.567 383.14 234.767 384.147C234.955 385.233 234.723 386.353 234.117 387.277C231.03 392.175 226.03 395.337 221.202 398.393L221.195 398.397C220.26 398.988 219.293 399.603 218.358 400.213L217.987 400.458C212.398 404.163 206.683 407.845 200.998 411.402C189.863 418.372 178.263 425.143 165.525 432.102C155.634 437.505 145.778 442.67 136.229 447.45C126.166 452.485 116.114 457.267 106.353 461.655C106.932 464.928 107.264 468.242 107.346 471.563C107.436 474.282 107.663 476.992 108.024 479.685L108.166 480.537C108.631 482.542 107.998 484.643 106.503 486.058L106.341 486.207L106.341 486.187L106.2 486.318L106.151 486.358L106.168 486.345C105.997 486.505 105.815 486.652 105.625 486.785L105.389 486.937C104.637 487.385 103.777 487.618 102.901 487.612L102.901 487.612L102.901 487.612L102.901 487.612ZM218.182 309.855C218.19 310.347 218.19 310.853 218.193 311.298C218.193 312.025 218.198 312.71 218.217 313.392C218.298 316.49 218.34 319.792 218.34 323.207C218.34 325.68 218.292 328.195 218.245 330.627C218.162 334.935 218.077 339.388 218.258 343.763C218.357 346.832 218.695 349.888 219.272 352.903C219.838 355.923 220.852 358.84 222.277 361.562C223.272 363.423 224.517 365.142 225.973 366.668C227.402 368.138 228.957 369.478 230.622 370.675C234.82 368.15 239.253 366.038 243.862 364.372C248.498 362.688 253.228 361.273 258.03 360.137C261.815 359.215 265.695 358.38 269.448 357.573L269.453 357.573C277.203 355.905 285.215 354.18 292.853 351.602C298.332 349.827 303.535 347.292 308.31 344.07C312.942 340.878 316.633 336.572 320.202 332.412L320.242 332.363C320.552 332.002 320.862 331.642 321.173 331.28L321.792 330.565C325.728 326.05 330.172 321.522 335.972 318.968C337.963 318.162 340.013 317.502 342.102 316.997C345.512 316.08 349.035 315.132 351.693 313.062C353.9 311.342 354.122 308.895 354.355 306.307L354.368 306.153C353.745 306.24 353.115 306.283 352.485 306.28C350.913 306.242 349.345 306.093 347.792 305.84L347.782 305.84C347.175 305.753 346.55 305.667 345.943 305.595L344.518 305.428C341.927 305.165 339.355 304.728 336.823 304.118C336.612 304.053 336.467 303.858 336.467 303.638C336.467 303.417 336.612 303.222 336.823 303.157C339.702 302.478 342.625 301.998 345.57 301.723L345.943 301.68L346.672 301.59C347.027 301.542 347.393 301.492 347.747 301.443L347.755 301.443C349.308 301.192 350.877 301.047 352.45 301.008C353.367 300.998 354.28 301.092 355.175 301.285C355.677 299.377 356.417 297.54 357.382 295.818C357.808 295.053 358.338 294.27 358.903 293.44C360.205 291.525 361.55 289.54 361.8 287.487C361.895 286.558 361.717 285.622 361.288 284.792L361.147 284.527C360.988 284.202 360.753 283.918 360.463 283.703C360.39 283.768 360.3 283.813 360.203 283.835C358.298 284.457 356.218 283.63 355.26 281.868C352.447 282.16 349.618 282.3 346.788 282.287C345.342 282.305 343.973 282.325 342.655 282.383L338.71 282.573C337.412 282.633 335.702 282.702 333.992 282.702C331.352 282.748 328.715 282.513 326.125 282C325.837 281.918 325.633 281.662 325.62 281.362C325.578 281.098 325.717 280.837 325.958 280.723C330.187 278.915 335.108 278.19 339.86 277.488C340.55 277.387 341.265 277.282 341.952 277.175C343.89 276.878 345.87 276.623 347.785 276.377L347.832 276.37C348.778 276.248 349.757 276.123 350.718 275.993C351.342 275.91 351.99 275.805 352.617 275.705L352.623 275.705C353.987 275.463 355.362 275.292 356.742 275.195C357.977 273.658 358.803 271.833 359.142 269.892C359.47 268.015 359.383 266.088 358.885 264.248C358.413 262.483 357.567 260.84 356.402 259.433C355.242 258.023 353.738 256.937 352.037 256.277C351.022 256.717 349.922 256.935 348.815 256.915C347.893 256.895 346.973 256.82 346.06 256.69L346.05 256.69C345.51 256.625 344.952 256.557 344.375 256.507C341.265 256.24 338.69 256.117 336.272 256.117L335.977 256.117C333.648 256.17 331.325 256.34 329.013 256.627C326.627 256.925 324.227 257.097 321.823 257.143C320.825 257.147 319.828 257.093 318.838 256.983C318.283 256.9 317.823 256.512 317.648 255.978C317.53 255.595 317.668 255.178 317.992 254.94C320.205 253.222 322.742 251.963 325.448 251.24C328.175 250.483 330.955 249.932 333.765 249.59L334.885 249.44C335.375 249.377 335.898 249.303 336.407 249.232C337.863 249.03 339.51 248.802 341.188 248.65C341.738 247.555 342.808 246.815 344.027 246.688C344.4 246.638 344.78 246.605 345.148 246.573L345.272 246.563L345.265 246.522C346.133 246.492 346.922 246.015 347.353 245.263C348.512 243.418 348.27 240.033 347.585 238.415C346.757 236.46 345.052 235.037 342.515 234.188C340.167 233.488 337.723 233.162 335.275 233.223C334.212 233.223 333.103 233.265 331.8 233.353C325.475 233.775 319.202 234.778 313.06 236.347C306.915 237.88 300.967 240.12 295.335 243.022C289.878 245.933 284.952 249.748 280.767 254.305C276.598 258.865 272.852 263.793 269.57 269.028L269.252 269.525C268.155 271.227 267.042 273.023 265.963 274.76L265.957 274.77C263.175 279.255 260.297 283.892 257.038 288.135C253.898 292.398 250.1 296.135 245.785 299.203C239.487 303.505 233.453 306.317 227.855 307.563C227.412 308.368 226.652 308.95 225.758 309.168L225.322 309.268C223.502 309.68 221.643 309.903 219.777 309.935C219.243 309.937 218.712 309.91 218.182 309.855L218.182 309.855L218.182 309.855L218.182 309.855ZM116.074 345.812C115.781 346.457 115.462 347.075 115.118 347.667L114.592 348.538L117.32 346.957L116.074 345.812L116.074 345.812L116.074 345.812ZM382.628 224.963C376.338 224.963 369.933 225.133 363.912 225.307C363.268 227.252 362.055 228.958 360.427 230.205C358.862 231.497 356.925 232.257 354.9 232.378C356.398 234.708 357.273 237.385 357.443 240.15C357.645 242.877 357.192 245.613 356.118 248.13C358.38 249.02 360.473 250.292 362.307 251.888C364.187 253.537 365.738 255.525 366.88 257.748C367.675 259.295 368.272 260.937 368.653 262.632C369.017 264.263 369.175 265.935 369.123 267.605C369.002 270.932 368.1 274.185 366.488 277.098C367.895 278.403 368.992 280.008 369.698 281.793C370.437 283.595 370.783 285.535 370.715 287.483C370.553 291.252 368.558 294.523 366.628 297.685C366.378 298.093 366.122 298.513 365.877 298.925C364.022 302.028 363.623 304.827 363.163 308.065C363.057 308.812 362.95 309.583 362.815 310.387C362.373 313.253 361.09 315.925 359.128 318.06C357.152 320.115 354.77 321.735 352.133 322.817L352.422 323.952C353.085 326.728 353.953 329.452 355.02 332.098C356.063 334.722 357.608 337.115 359.57 339.145C364.338 343.897 371.588 344.208 377.983 344.483C378.533 344.507 379.027 344.53 379.517 344.555L379.845 344.57C384.922 344.825 390.08 345.118 395.07 345.403L395.08 345.403L395.118 345.403L398.533 345.598L403.205 345.858C404.67 345.94 406.397 346.022 408.1 346.022C410.74 346.075 413.375 345.785 415.942 345.16C418.567 344.493 421.017 343.265 423.12 341.558C427.513 338.002 431.605 333.093 435.28 326.965C438.517 321.467 441.228 315.677 443.38 309.672C445.535 303.742 447.202 297.645 448.367 291.443C449.525 285.25 450.255 278.983 450.55 272.688C450.843 266.377 450.778 260.055 450.352 253.752C449.952 247.687 449.225 241.368 448.193 234.968C434.765 230.613 420.925 227.643 406.892 226.102C398.832 225.285 390.732 224.905 382.628 224.963L382.628 224.963L382.628 224.963L382.628 224.963ZM334.985 223.722C337.85 223.688 340.708 224.008 343.497 224.675C346.168 225.317 348.687 226.487 350.898 228.12C350.907 228.105 350.915 228.088 350.923 228.075C350.93 228.06 350.947 228.028 350.962 228.003C351.655 227.012 352.442 226.09 353.313 225.25L353.34 225.22C353.42 225.145 353.502 225.065 353.587 224.977L354.06 224.472L352.977 224.097C351.325 223.512 349.47 222.813 348.362 222.395C347.913 222.225 347.592 222.105 347.467 222.06L347.437 222.05L345.925 221.538L345.92 221.538C343.508 220.722 341.008 219.878 338.563 219.012C338.128 218.857 337.698 218.697 337.243 218.525C335.272 217.785 333.233 217.02 331.175 217.02C330.772 217.018 330.368 217.05 329.97 217.113C327.91 217.525 325.965 218.383 324.272 219.628C322.455 220.927 320.718 222.332 319.068 223.837L319.063 223.842C318.155 224.638 317.297 225.392 316.448 226.08L318.452 225.69C323.783 224.67 329.473 223.722 334.985 223.722L334.985 223.722L334.985 223.722L334.985 223.722ZM470.198 486.943C469.713 486.945 469.243 486.783 468.862 486.483C468.443 486.148 468.182 485.657 468.135 485.123L467.817 482.053C467.517 478.16 466.778 474.313 465.618 470.585C464.192 466.18 463.253 461.632 462.82 457.022C462 449.76 461.635 442.313 461.33 435.308L461.118 430.295C460.44 414.63 460.152 399.322 460.258 384.795C460.375 369.2 460.953 353.9 461.977 339.318L462.132 337.157C462.775 328.4 463.403 321.695 464.168 315.412C465.148 307.367 466.338 300.238 467.81 293.618C471.385 277.513 476.68 264.277 483.997 253.15C484.093 252.995 484.263 252.9 484.447 252.9C484.615 252.9 484.775 252.977 484.882 253.108C484.98 253.237 485.013 253.403 484.97 253.56C481.29 268.635 477.553 284.835 475.158 301.152C474.217 307.562 473.497 314.123 472.955 321.212C472.472 327.525 472.143 334.115 471.952 341.355C471.597 354.802 471.773 368.487 471.945 381.722L471.945 381.852C471.975 384.085 472.005 386.395 472.032 388.665L472.05 390.175C472.208 404.14 472.445 420.662 472.997 437.335C473.06 439.25 473.138 441.205 473.217 443.095C473.46 449.053 473.713 455.213 473.497 461.243C473.357 463.677 473.05 466.098 472.58 468.492C472.275 470.248 471.96 472.067 471.787 473.892C471.57 476.997 471.583 480.115 471.827 483.218C471.858 483.81 471.897 484.48 471.925 485.127C471.968 485.603 471.812 486.077 471.492 486.433C471.15 486.775 470.68 486.96 470.197 486.943L470.198 486.943L470.198 486.943L470.198 486.943ZM548.517 485.628C546.802 485.652 545.152 484.98 543.943 483.763C543.058 482.828 542.612 481.562 542.715 480.278C543.807 463.682 544.705 445.852 543.892 427.935C543.107 410.648 541.462 393.055 539.005 375.645C537.48 364.825 535.363 353.925 533.317 343.383C532.603 339.705 531.865 335.903 531.158 332.132L530.732 329.843C528.608 318.338 526.385 306.65 524.237 295.35L524.232 295.33L523.77 292.9L520.273 274.467C515.495 249.313 509.877 220.11 503.648 191.818L503.293 190.205C499.76 174.43 496.028 161.871 491.548 150.678C489.012 144.278 486.037 138.061 482.643 132.07C479.263 126.112 475.347 120.473 470.942 115.226C468.715 112.599 466.348 110.095 463.848 107.727C461.448 105.45 458.85 103.219 456.125 101.097C450.765 96.9647 445.098 93.2457 439.175 89.9723C433.857 86.9933 427.875 84.0208 420.887 80.8895C414.477 78.0168 407.87 75.2962 402.042 72.8953C401.618 72.7382 401.373 72.2972 401.463 71.8555C401.523 71.4707 401.858 71.1895 402.248 71.1967C402.333 71.1972 402.417 71.2073 402.498 71.2272L404.52 71.7095C418.613 75.0855 433.56 78.944 447.723 85.7103C454.577 88.9915 461.003 93.0997 466.857 97.943C472.702 102.792 477.982 108.285 482.595 114.318C490.88 125.113 497.533 137.724 502.935 152.864C508.07 167.257 511.488 182.342 514.155 195.198C517.302 210.372 520.365 225.827 523.327 240.772C526.575 257.167 529.935 274.118 533.418 290.758L534.653 296.683C538.353 314.473 541.077 328.195 543.487 341.175C546.497 357.387 548.925 372.028 550.913 385.928L551.222 388.103C553.755 406.183 555.183 421.048 555.712 434.887C556.025 443.048 556.013 450.958 555.678 458.395C555.34 466.21 554.588 473.998 553.427 481.732C553.275 482.915 552.643 483.985 551.682 484.69C550.75 485.328 549.643 485.657 548.515 485.628L548.517 485.628L548.517 485.628L548.517 485.628ZM334.822 459.598C333.362 459.61 332.058 458.68 331.597 457.293C330.523 453.568 330.01 449.703 330.073 445.827C330.057 441.872 330.398 437.888 330.73 434.038L330.73 434.028C330.828 432.897 330.92 431.828 331.003 430.757L331.517 424.15C331.973 418.223 332.492 411.233 332.893 404.317C333.425 395.168 333.87 385.857 334.27 377.153C334.4 374.355 334.543 371.468 334.708 368.328L334.947 363.918C334.973 363.433 334.997 362.935 335.017 362.453C335.172 359.15 335.332 355.733 336.663 352.768C336.873 352.33 337.328 352.06 337.813 352.085C338.327 352.07 338.808 352.332 339.075 352.768C340.718 355.803 341.052 359.675 341.343 363.092L341.343 363.11C341.377 363.477 341.408 363.857 341.442 364.223L341.478 364.615C342.007 370.198 342.335 374.495 342.542 378.547C342.992 387.382 343.207 396.287 343.18 405.015C343.148 415.162 342.92 424.038 342.482 432.148L342.35 434.572C342.173 438.63 341.763 442.673 341.12 446.685C340.512 450.65 339.263 454.492 337.423 458.057C336.917 459.02 335.91 459.617 334.822 459.598L334.822 459.598L334.822 459.598L334.822 459.598ZM28.7757 396.677C28.7375 396.677 28.6993 396.672 28.663 396.66C27.7215 396.432 26.9262 395.805 26.4848 394.942C25.9968 393.87 26.162 392.378 26.9763 390.508C28.9558 385.963 32.217 381.805 35.3712 377.782L35.4257 377.712C35.735 377.317 36.0423 376.925 36.3478 376.537C39.6763 372.273 43.296 368.247 47.1812 364.485L48.3202 363.383C48.7607 362.953 49.2088 362.5 49.684 362.018C51.2842 360.312 53.0205 358.738 54.8758 357.313C57.037 355.753 59.025 354.998 60.9522 354.998C61.1053 354.998 61.26 355.003 61.4132 355.013C62.3615 355.033 63.2492 355.483 63.8235 356.238C64.398 356.993 64.5963 357.97 64.3622 358.888C63.648 362.277 60.8073 364.382 58.0597 366.417C57.2753 366.998 56.5355 367.545 55.8383 368.125C52.3338 371.038 49.0797 374.107 45.7775 377.257C42.944 379.957 40.1813 382.76 37.3315 385.828L36.3095 386.937C36.1365 387.125 35.7683 387.485 35.303 387.94L35.2967 387.947C33.0858 390.108 28.4877 394.608 29.107 395.955L29.148 396.025C29.229 396.147 29.2337 396.305 29.1602 396.432C29.0852 396.577 28.937 396.672 28.7728 396.677L28.7757 396.677L28.7757 396.677L28.7757 396.677ZM298.255 308.957C296.565 308.938 294.95 308.253 293.763 307.05C292.508 305.783 291.608 304.208 291.155 302.485C290.77 300.737 290.637 298.943 290.757 297.158C290.797 295.063 290.838 292.895 290.065 291.042C289.63 290.083 289.112 289.167 288.513 288.302C287.93 287.455 287.418 286.562 286.985 285.63C286.19 283.742 285.73 281.73 285.627 279.683C285.648 277.965 285.962 276.262 286.552 274.648C287.285 272.19 288.042 269.648 286.903 267.555C286.685 267.107 286.708 266.578 286.965 266.152C287.15 265.808 287.507 265.593 287.895 265.59L287.922 265.59L288.027 265.598C289.432 265.763 290.733 266.417 291.707 267.442C292.688 268.482 293.382 269.762 293.717 271.152C294.027 272.463 294.26 273.792 294.412 275.132C294.758 277.747 295.087 280.215 296.768 282.695C299.44 286.632 300.958 289.645 301.328 294.283C301.377 294.882 301.4 295.49 301.428 296.075L301.428 296.083C301.448 297.418 301.587 298.75 301.843 300.06L302.157 301.39C302.553 302.79 302.703 304.248 302.597 305.7C302.55 307.045 301.658 308.215 300.375 308.617C299.69 308.838 298.975 308.953 298.255 308.957L298.255 308.957L298.255 308.957L298.255 308.957ZM163.47 239.173C160.738 239.195 158.01 239.005 155.308 238.605C154.974 238.563 154.722 238.283 154.717 237.947C154.68 237.535 154.922 237.15 155.308 237.002C160.557 235.413 166.249 234.763 171.752 234.137C173.01 233.995 174.31 233.845 175.582 233.688C181.468 232.957 189.205 231.965 196.888 230.767C204.555 229.568 211.482 228.39 218.068 227.165C221.23 226.577 224.437 225.953 227.598 225.312C228.272 225.173 228.947 225.002 229.667 224.82C231.267 224.343 232.918 224.063 234.587 223.987C235.477 223.972 236.363 224.127 237.195 224.445C238.017 224.753 238.63 225.45 238.833 226.302C238.983 227.025 238.747 227.773 238.208 228.278C236.293 230.2 233.617 230.605 231.03 230.998C230.533 231.073 230.017 231.152 229.518 231.238L229.247 231.288C225.655 231.952 221.973 232.598 218.302 233.207C211.308 234.365 204.35 235.373 197.625 236.207C189.667 237.192 182.683 237.927 176.272 238.455L173.51 238.683C170.305 238.935 166.872 239.173 163.47 239.173L163.47 239.173L163.47 239.173L163.47 239.173ZM335.36 206.313C334.467 206.318 333.638 205.843 333.192 205.068C330.405 200.438 328.985 195.098 327.613 189.932C326.923 187.33 326.208 184.642 325.328 182.078C324.182 178.735 322.937 175.362 321.732 172.1L321.732 172.095C320.252 168.083 318.72 163.939 317.358 159.808C315.712 154.954 314.472 149.972 313.65 144.913C312.82 139.874 312.668 134.747 313.198 129.668L313.167 129.615C313.14 129.575 313.117 129.534 313.095 129.491L312.285 127.718C310.107 122.988 307.973 118.758 303.92 114.902C302.898 113.93 301.84 112.971 300.817 112.042C297.647 109.169 294.372 106.199 291.875 102.542C290.582 100.663 289.59 98.5942 288.932 96.4102C288.325 94.3508 287.975 92.2237 287.895 90.0778C287.697 85.8025 288.357 81.349 288.995 77.0423C289.392 74.3657 289.802 71.5995 290.007 68.8858L290.105 67.4787C290.285 64.7608 290.268 61.772 288.792 60.2073C287.545 58.8853 285.11 58.266 282.963 57.72C282.095 57.4993 281.278 57.2945 280.61 57.0547C274.58 54.9613 268.712 52.4298 263.052 49.4803C257.665 46.6985 252.515 43.4818 247.653 39.8622L245.2 38.018C241.317 35.0867 237.307 31.8943 234.725 27.9358C234.605 27.736 234.605 27.486 234.725 27.2862C234.828 27.0727 235.038 26.9322 235.275 26.9195C235.343 26.9178 235.412 26.9295 235.475 26.9535C238.722 28.389 241.838 30.1015 244.792 32.0717L244.8 32.0773C245.785 32.6937 246.803 33.332 247.81 33.9362C247.875 33.783 247.95 33.6332 248.03 33.4873C250.5 29.0283 252.292 24.2268 253.348 19.2403C254.39 14.2503 254.712 9.13698 254.305 4.05576C254.18 3.02403 254.502 1.9882 255.187 1.20735C255.98 0.406565 257.07 -0.0299373 258.197 0.00159753C259.28 -0.00715085 260.333 0.350845 261.187 1.01725C262.115 1.76275 262.682 2.86735 262.747 4.05576C263.628 15.7731 261.047 27.4908 255.323 37.7528C255.295 37.8025 255.265 37.8485 255.237 37.8947L255.19 37.9655C259.328 40.1197 262.775 41.7785 266.032 43.1843C271.092 45.3673 275.798 47.1518 280.422 48.6385C281.672 49.0407 282.975 49.367 284.355 49.7117C287.787 50.5705 291.333 51.4578 293.995 53.5785C295.748 54.989 297.093 56.8417 297.89 58.9455C298.69 61.096 299.122 63.366 299.167 65.6602C299.353 70.3895 298.413 75.5033 297.658 79.612C297.565 80.1185 297.468 80.6405 297.378 81.144L297.145 82.4682C296.408 86.7062 295.842 91.1922 297.672 95.3563C299.453 99.4147 302.868 102.478 306.172 105.44L306.21 105.474C306.493 105.727 306.773 105.979 307.05 106.23L307.76 106.868C311.08 109.893 314.458 113.21 316.693 116.972C318.533 113.166 320.983 109.95 323.58 106.55L323.588 106.538C323.92 106.103 324.263 105.653 324.603 105.203C326.333 102.919 325.658 101.857 324.537 100.096C324.275 99.6842 323.978 99.2167 323.687 98.6905C322.955 97.4052 322.417 96.019 322.088 94.5768C321.773 93.132 321.725 91.6415 321.947 90.1793C322.16 88.8173 322.585 87.4973 323.208 86.2678C323.828 85.054 324.593 83.919 325.485 82.8873C327.315 80.828 329.412 79.0208 331.718 77.5133C334.805 75.4857 337.992 73.6143 341.265 71.9067C343.585 70.6477 345.982 69.3462 348.267 67.944C359.533 61.0965 370.18 53.2762 380.085 44.5723C380.145 44.5177 380.225 44.4875 380.307 44.488C380.44 44.4878 380.562 44.5587 380.628 44.6738C380.68 44.7702 380.672 44.8873 380.607 44.9752C373.068 56.6573 363.618 66.989 352.653 75.538C348.797 78.5233 344.687 81.1313 340.71 83.6535C339.96 84.1293 339.283 84.5585 338.607 84.9903L337.233 85.872C335.027 87.3018 332.87 88.9005 332.055 90.8928C331.39 92.5142 332.327 93.854 333.232 95.1485C333.517 95.5533 333.808 95.9712 334.047 96.3918C334.79 97.6707 335.31 99.0662 335.588 100.519C335.825 101.834 335.827 103.181 335.592 104.496C335.007 107.252 333.745 109.818 331.922 111.964L331.745 112.182C327.943 116.867 325.137 121.181 323.795 127.002C322.472 132.747 322.475 139.023 323.807 146.187C325.003 152.629 327.105 158.935 329.197 164.791L329.365 165.26C329.923 166.82 330.5 168.398 331.058 169.927L331.067 169.945C332.807 174.71 334.603 179.635 336.117 184.563L336.667 186.367C338.488 192.395 339.955 198.308 337.932 204.445C337.568 205.56 336.532 206.313 335.36 206.313L335.36 206.313L335.36 206.313L335.36 206.313ZM358.042 120.38C357.485 120.38 356.918 120.359 356.355 120.317C353.015 120.119 349.76 119.185 346.822 117.583C345.613 116.807 344.487 115.908 343.46 114.902C341.315 112.956 339.095 110.944 336.642 110.944C336.173 110.945 335.71 111.019 335.265 111.164C335.227 111.177 335.185 111.184 335.143 111.184C334.937 111.171 334.758 111.033 334.693 110.837C334.628 110.677 334.677 110.494 334.812 110.386C335.845 109.513 337.155 109.036 338.508 109.039C340.963 109.039 343.48 110.495 345.913 111.903C347.35 112.812 348.877 113.567 350.47 114.156C357.618 116.434 365.425 113.973 369.975 108.008C374.888 101.694 379.413 95.0878 383.528 88.226C385.633 84.8165 387.523 81.2783 389.187 77.6323C390.053 75.5513 390.723 73.394 391.188 71.1882C391.567 69.5007 392.037 67.8353 392.598 66.2C392.968 65.1805 393.672 64.3153 394.593 63.7445C395.465 63.2078 396.47 62.9235 397.493 62.9232C398.733 62.8917 399.935 63.3682 400.815 64.2423C401.6 65.118 401.982 66.2823 401.868 67.4525C401.648 71.3995 400.075 75.0487 398.553 78.578C398.408 78.9145 398.263 79.2512 398.118 79.5878L397.94 80.0078C396.233 84.0615 394.185 87.9632 391.82 91.671C387.192 98.7957 381.958 105.509 376.18 111.738C373.863 114.33 371.083 116.466 367.98 118.035C364.893 119.575 361.492 120.378 358.042 120.38L358.042 120.38L358.042 120.38L358.042 120.38ZM399.287 60.0762C398.162 60.0435 397.093 59.5723 396.312 58.7633C393.038 55.6887 390.017 52.3565 387.275 48.7988C384.497 45.276 382.317 41.3202 380.822 37.0897C380.748 36.8663 380.792 36.6218 380.935 36.4357C381.092 36.2153 381.343 36.082 381.615 36.0753C381.75 36.075 381.882 36.1142 381.993 36.1882C384.223 37.718 386.345 39.4005 388.342 41.2238L388.342 41.224C389.297 42.0552 390.282 42.914 391.27 43.722C394.697 46.5228 398.167 49.2797 401.588 51.916C402.435 52.5302 403.063 53.4005 403.378 54.3985C403.623 55.2472 403.598 56.1512 403.307 56.9852C402.75 58.758 401.143 59.993 399.287 60.0762L399.287 60.0762L399.287 60.0762L399.287 60.0762ZM375.375 46.2958C374.368 46.289 373.395 45.9363 372.618 45.2972C368.107 41.6567 364.777 36.7595 363.048 31.2255C362.178 28.4925 361.692 25.652 361.603 22.7853C361.51 19.8912 361.83 16.9988 362.555 14.1954C362.937 12.4035 364.545 11.1409 366.377 11.1952C367.782 11.1925 369.115 11.8135 370.017 12.8903C370.78 13.8447 371.047 15.1028 370.737 16.2841L370.698 16.4402C369.627 20.5522 369.793 24.8893 371.178 28.9068C372.575 32.9108 375.053 36.449 378.342 39.128L378.588 39.3288C379.22 39.8015 379.685 40.4615 379.92 41.2147C380.098 41.8665 380.072 42.5578 379.84 43.1928C379.113 45.0337 377.353 46.2577 375.375 46.2958L375.375 46.2958L375.375 46.2958L375.375 46.2958Z" id="衣服轮廓" fill="#000000" fill-rule="evenodd" stroke="none" />
    </g>
    <g id="头部" transform="translate(397.0967 83.33333)">
      <path d="M244.288 118.311C239.268 100.225 239.987 98.2712 232.503 80.9985C207.693 30.8182 41.8973 47.6198 24.9737 97.7108C15.7936 124.885 17.9518 163.157 15.561 186.723C14.8318 199.215 14.1018 211.708 13.3708 224.2C13.114 228.515 12.8539 232.828 12.5906 237.143C12.0738 245.542 11.578 253.94 11.1032 262.34C7.98249 288.217 20.9912 290.852 43.2982 290.083C49.1957 304.312 58.7473 316.19 70.5458 325.853C67.6982 333.6 78.025 337.61 83.5963 340.707C113.905 357.63 151.135 367.953 184.707 358.438C194.572 355.643 235.307 345.955 247.832 315.982C253.982 301.26 266.485 225.025 249.997 156.448L244.288 118.311L244.288 118.311L244.288 118.311Z" id="头部颜色" fill="#FFC196" stroke="none" />
      <path d="M166.622 366.87C158.539 366.865 150.479 366.027 142.568 364.367C138.055 363.417 133.633 362.073 129.354 360.353C124.945 358.592 121.224 356.02 116.991 352.7C116.071 351.922 115.702 350.668 116.053 349.515C116.203 348.883 116.506 348.297 116.934 347.808C117.348 347.327 117.909 346.995 118.53 346.862C119.112 346.745 119.696 346.623 120.262 346.507C121.379 346.275 122.531 346.035 123.673 345.828C123.801 345.805 123.93 345.793 124.06 345.793C124.884 345.82 125.655 346.21 126.165 346.858C126.573 347.325 126.747 347.953 126.638 348.563L129.96 349.418C130.87 349.653 132.071 349.965 133.276 350.288L134.929 350.74C139.645 352.07 144.43 353.142 149.263 353.947C154.574 354.798 159.945 355.222 165.323 355.212C169.948 355.208 174.57 354.917 179.158 354.338C187.582 353.318 195.845 351.255 203.758 348.198C211.688 345.173 219.065 340.863 225.593 335.443C231.93 330.167 237.168 323.698 241.013 316.405C243.36 311.762 245.088 306.832 246.15 301.738C247.215 296.645 248.02 291.502 248.562 286.327C250.267 271.442 251 256.462 250.762 241.483C250.605 227.94 249.787 213.27 248.263 196.633C246.835 181.03 244.837 165.378 243.072 152.127C242.788 150.005 242.493 147.846 242.208 145.757L242.203 145.716L242.203 145.708C241.47 140.34 240.713 134.785 240.067 129.317C238.028 128.78 236.113 127.852 234.427 126.586C233.408 125.868 232.655 124.833 232.285 123.643C230.447 123.293 228.807 122.262 227.693 120.757L227.54 120.544C224.295 115.847 218.565 113.244 213.937 111.501C211.287 110.502 208.55 109.602 205.905 108.735L204.687 108.334C203.798 108.038 202.877 107.696 201.987 107.367C199.64 106.391 197.188 105.687 194.682 105.27C194.033 105.195 193.382 105.159 192.73 105.162C191.437 105.162 190.118 105.286 188.845 105.405L188.83 105.405C187.547 105.525 186.222 105.649 184.917 105.649C184.312 105.652 183.708 105.622 183.107 105.559C179.66 105.291 176.42 103.814 173.957 101.389C173.067 100.504 172.305 99.4992 171.695 98.403C168.217 99.1052 164.674 99.4382 161.127 99.396C157.557 99.396 153.887 99.142 150.338 98.8995L150.281 98.8952C146.707 98.6477 143.012 98.3917 139.354 98.3917C137.883 98.3917 136.528 98.4313 135.209 98.5143C131.438 98.7527 127.818 99.9897 124.316 101.185C120.428 102.513 116.409 103.886 112.188 103.886C112.079 103.886 111.97 103.886 111.863 103.886C109.685 103.871 107.581 103.099 105.911 101.702C99.2207 102.979 92.5062 105.252 86.0192 107.452L85.9937 107.46C85.0595 107.777 84.0943 108.104 83.1567 108.418C79.0237 109.804 74.9143 111.494 70.9403 113.13C68.0402 114.323 65.0435 115.556 62.0632 116.66C62.056 116.667 62.056 116.667 62.056 116.674C61.7162 117.842 60.9913 118.861 59.9992 119.564C59.0285 120.218 57.881 120.559 56.711 120.54C56.2888 120.54 55.8675 120.501 55.4522 120.426C50.3455 119.516 45.5933 117.34 41.0023 115.237C36.9837 113.397 32.828 111.494 28.4718 110.461C27.9823 112.246 27.4788 114.052 26.9908 115.799C24.924 123.208 22.7863 130.868 21.2593 138.591C19.3727 148.229 17.9922 157.959 17.1237 167.742C16.2561 177.262 15.805 187.207 15.783 197.303C15.7766 201.623 15.8667 206.273 16.0738 212.383C16.1029 213.267 16.1597 214.182 16.2207 215.148C16.4426 218.713 16.6952 222.753 15.4937 225.952L15.3575 226.295L15.3504 226.295C15.2186 226.685 14.8573 226.953 14.4453 226.963C14.2217 226.965 14.0095 226.865 13.8673 226.693C11.326 223.74 10.5139 219.278 9.79684 215.342C9.70747 214.848 9.62237 214.385 9.53444 213.92C8.69535 209.518 8.05492 204.797 7.457 198.613C6.9605 193.507 6.65622 188.318 6.54345 183.192C6.43069 178.097 6.50659 172.898 6.76827 167.74C7.26769 157.365 8.40467 147.03 10.1728 136.795C11.9181 126.549 14.544 116.473 18.0215 106.678C17.9505 106.684 17.8902 106.686 17.8307 106.686C17.2157 106.686 16.3299 106.387 15.6036 104.961C15.1479 104.012 14.8689 102.989 14.7801 101.94C14.5064 98.33 15.073 94.5447 15.6767 90.9772L16.315 87.2627C16.8337 83.7563 17.6477 80.3002 18.7485 76.9308C21.6317 68.7515 25.717 61.0472 30.8698 54.0713C36.0865 46.9863 42.3162 40.7063 49.3588 35.4327C56.4002 30.1562 64.156 25.9077 72.3935 22.8148C72.8998 22.6195 73.4375 22.5173 73.9802 22.5133C74.4202 22.5122 74.8573 22.5842 75.2738 22.7262C90.3813 14.6574 106.367 8.35322 122.915 3.93778C127.454 2.71507 132.831 1.33271 138.314 0.355342C139.563 0.127424 140.83 0.00853312 142.1 0C146.235 0 149.206 1.49796 150.93 4.45203C151.479 5.37077 151.86 6.37927 152.057 7.43093C159.561 5.76133 167.227 4.9257 174.913 4.93932C180.382 4.94557 185.842 5.34213 191.252 6.12592C192.85 6.379 194.208 7.4297 194.853 8.91258C195.78 10.7898 195.762 12.9945 194.805 14.8562C194.638 15.1399 194.458 15.4492 194.258 15.7499C198.398 16.0892 202.498 16.8037 206.507 17.8848C208.278 18.4533 209.738 19.7255 210.543 21.4027C211.218 22.6547 211.313 24.1383 210.807 25.4668C210.698 25.7213 210.583 25.9803 210.47 26.2307L210.47 26.2357L210.453 26.2747C213.645 26.8073 216.763 27.7118 219.745 28.9698C222.772 30.2525 225.628 31.9063 228.248 33.8935C228.912 34.3968 229.492 35.0025 229.965 35.688C232.09 35.4507 234.227 35.3322 236.365 35.3333C246.283 35.3545 256.043 37.836 264.767 42.5557C266.378 43.5077 267.52 45.091 267.912 46.922C268.35 48.5483 268.078 50.2843 267.163 51.6988C266.515 52.6252 265.86 53.472 265.163 54.2877C267.465 55.1153 269.635 56.2747 271.602 57.729C273.613 59.2417 275.322 61.1205 276.637 63.267C278.138 65.7405 279.122 68.4943 279.522 71.3603C279.94 74.189 279.745 77.0745 278.948 79.8212C282.527 83.5057 284.003 88.7475 282.872 93.7573C281.96 98.0445 279.06 101.64 275.062 103.439C275.815 105.829 275.207 108.438 273.475 110.249C270.843 112.984 267.662 115.131 264.14 116.547C264.127 117.487 263.892 118.411 263.453 119.242C261.823 122.267 259.412 124.8 256.47 126.576C253.507 128.417 250.155 129.539 246.682 129.852C249.023 139.674 250.957 149.719 252.738 159.166C254.41 168.027 255.867 176.838 257.07 185.357C258.328 194.272 259.348 203.143 260.102 211.728L260.29 213.91C261.653 229 262.233 244.152 262.028 259.303C261.873 267.197 261.428 274.847 260.703 282.038C259.962 289.543 258.835 297.005 257.328 304.393C256.37 309.022 254.925 313.533 253.018 317.857C251.13 322.127 248.825 326.2 246.133 330.015C243.437 333.837 240.393 337.402 237.042 340.667C233.665 343.957 230.012 346.947 226.118 349.608C218.127 355.013 209.357 359.172 200.113 361.94C190.88 364.732 181.333 366.35 171.697 366.757C170.02 366.83 168.315 366.87 166.622 366.87L166.622 366.87L166.622 366.87L166.622 366.87ZM81.2437 340.905C79.2393 340.905 76.9492 340.153 74.2418 338.607C72.1122 337.335 70.0677 335.925 68.1217 334.387L67.5422 333.947C62.4947 330.265 57.8788 326.025 53.7825 321.308C49.6255 316.498 46.1572 311.135 43.4768 305.37C41.9987 302.173 40.9677 298.787 40.4128 295.307C36.9737 296.765 33.2737 297.507 29.5385 297.487C23.7217 297.517 18.0277 295.813 13.1836 292.593C8.46482 289.377 4.95614 284.667 2.75742 278.59C0.844959 272.942 -0.0855981 267.005 0.00618352 261.042L0.00618352 260.347C0.0193315 257.405 0.244525 254.468 0.680012 251.56C1.11631 248.592 1.84594 245.675 2.8581 242.852C5.12777 236.648 8.6677 232.005 13.3829 229.048C15.0992 228.008 16.9572 227.223 18.8988 226.717C21.026 226.138 23.2197 225.842 25.424 225.833C28.04 225.78 30.6338 226.322 33.0088 227.42C35.316 228.508 37.1362 230.417 38.1157 232.772C38.1692 232.895 38.1552 233.037 38.0787 233.147C37.9732 233.3 37.8008 233.392 37.6155 233.395C37.5785 233.395 37.5415 233.392 37.5057 233.382L36.5737 233.147C34.7517 232.635 32.8737 232.348 30.9818 232.295C29.3527 232.293 27.7387 232.608 26.2298 233.223C22.9118 234.473 19.9813 236.573 17.7328 239.315C16.4956 240.943 15.4878 242.733 14.7376 244.635C13.9928 246.538 13.4461 248.513 13.1063 250.53C12.4692 254.585 12.304 258.702 12.614 262.797L12.6367 263.182C12.7799 266.877 13.5012 270.528 14.7745 274.002C15.4257 275.705 16.3346 277.297 17.4697 278.725C18.6262 280.158 20.0725 281.332 21.7138 282.167C24.6532 283.652 27.8753 283.777 30.6648 283.777C31.1507 283.777 31.6457 283.772 32.1245 283.767L32.2047 283.767L32.701 283.763L33.062 283.763C37.2657 283.705 41.4528 284.298 45.4742 285.525C46.6623 285.925 47.5575 286.913 47.8388 288.135C48.0968 289.207 47.7535 290.332 46.9423 291.078C46.3168 291.667 45.6535 292.213 44.9565 292.715C47.453 295.375 49.3347 297.477 51.0562 299.532C54.4223 303.552 58.0068 307.437 61.7022 311.077C65.2795 314.677 69.1357 317.987 73.2348 320.978C74.8185 322.105 76.5463 323.128 78.2165 324.117C81.114 325.832 84.1098 327.603 86.483 329.995C87.6067 331.085 88.2149 332.6 88.1562 334.165C88.0655 335.707 87.4787 337.177 86.483 338.357C85.2367 339.985 83.2945 340.93 81.2437 340.905L81.2437 340.905L81.2437 340.905L81.2437 340.905ZM47.041 264.403C44.9067 264.363 42.839 263.653 41.13 262.375C39.8773 261.392 38.7297 260.282 37.705 259.062C36.7232 257.9 35.6328 256.833 34.4487 255.878C31.9948 254.123 29.0397 253.208 26.0233 253.268C23.041 253.245 20.111 254.053 17.5618 255.602C17.4932 255.648 17.4078 255.665 17.3268 255.647C17.2457 255.627 17.1765 255.573 17.1363 255.502C17.0672 255.395 17.0575 255.262 17.1108 255.147C17.8277 253.668 18.7503 252.298 19.8513 251.078C20.9172 249.905 22.1465 248.89 23.5012 248.067C26.3038 246.397 29.5115 245.527 32.7742 245.555L32.845 245.555L33.1613 245.555C36.495 245.627 39.8022 246.69 43.5733 248.888L43.9067 249.087C44.6478 249.527 45.4515 249.937 46.3018 250.378L46.3018 250.378L46.3018 250.378C47.6848 251.047 49.0168 251.815 50.2873 252.678C51.5187 253.498 52.5198 254.62 53.1952 255.937C54.2847 258.248 53.9825 260.59 52.3867 262.198C50.9803 263.632 49.0492 264.428 47.041 264.403L47.041 264.403L47.041 264.403L47.041 264.403Z" id="头发和面部轮廓" fill="#000000" fill-rule="evenodd" stroke="none" />
      <path d="M217.468 184.81C214.675 180.902 207.068 181.478 206.048 186.848C204.213 196.525 214.502 196.82 221.777 197.028C222.388 197.047 222.98 197.063 223.54 197.085L225.222 197.16C233.417 197.5 241.427 197.007 249.572 195.947C250.15 195.87 250.315 195.108 249.713 194.902C243.878 192.903 238.085 190.76 232.148 189.068C229.282 188.253 226.42 187.41 223.562 186.562C221.922 186.077 219.273 185.428 217.468 184.81L217.468 184.81L217.468 184.81L217.468 184.81ZM170.597 185.855C174.44 184.458 178.435 187.727 178.933 191.41C179.508 195.655 176.447 198.45 172.567 198.957L172.372 198.98C163.807 199.923 155.306 201.648 146.73 202.623C142.835 203.065 138.91 203.357 134.989 203.462L132.187 203.523C128.753 203.612 125.07 203.69 121.9 202.507L121.912 202.485C121.07 202.242 120.682 201.027 121.619 200.363C124.995 197.977 129.545 197.075 133.474 195.94C137.424 194.798 141.404 193.747 145.395 192.76C153.774 190.687 162.478 188.805 170.597 185.855L170.597 185.855L170.597 185.855L170.597 185.855ZM227.297 210.43L227.078 210.452C223.24 210.822 216.693 210.927 214.038 214.087C213.39 214.857 213.293 215.695 213.713 216.595C215.108 219.587 220.367 220.27 224.155 220.605L225.422 220.712C225.182 221.412 224.98 222.118 224.757 222.752L224.703 222.913C223.555 226.563 227.183 229.967 230.685 229.497C234.453 228.99 236.308 225.027 234.745 221.708C237.805 221.992 240.873 222.135 243.785 221.84C251.718 221.037 251.732 210.293 243.785 209.485C239.48 209.047 234.825 209.58 230.392 210.088C229.345 210.207 228.31 210.325 227.297 210.43L227.297 210.43L227.297 210.43L227.297 210.43ZM158.697 213.695L159.644 213.617C160.102 213.575 160.561 213.533 161.021 213.49C164.675 213.15 168.357 212.807 171.952 213.632C177.39 214.88 176.992 222.792 171.952 224.245C168.597 225.213 164.968 225.133 161.417 225.057L161.417 225.057C160.267 225.032 159.126 225.005 158.004 225.017C157.283 225.023 156.563 225.042 155.842 225.053C155.701 226.768 155.138 228.247 154.277 229.723C153.66 230.783 152.873 231.79 152.098 232.73C150.257 234.968 145.914 234.917 144.056 232.73C142.682 231.112 141.587 229.25 141.569 227.06C141.565 226.498 141.633 225.902 141.767 225.317L139.265 225.36C133.14 225.453 126.969 225.412 120.955 224.44C118.816 224.882 117.066 221.022 120.018 219.867C128.045 216.727 137.012 215.803 145.53 214.86C149.907 214.375 154.308 214.042 158.697 213.695L158.697 213.695L158.697 213.695L158.697 213.695ZM210.478 263.873C216.24 255.802 208.078 248.212 202.723 244.955C201.32 243.948 202.433 240.612 205.432 241.128C232.665 245.807 218.555 292.718 183.785 266.975C179.645 263.637 184.658 256.28 189.12 259.14C189.345 259.313 189.583 259.498 189.83 259.688C194.843 263.563 204.015 270.655 210.478 263.873L210.478 263.873L210.478 263.873L210.478 263.873ZM210.988 294.39C211.395 294.028 210.962 293.367 210.47 293.5C208.758 293.963 206.873 293.727 205.125 294.098C203.417 294.463 201.782 295.092 200.208 295.842C196.642 297.547 193.453 299.873 190.605 302.607C187.348 305.73 184.145 309.942 184.262 314.668C184.408 320.677 189.687 325.728 195.838 323.873C199.435 322.79 202.623 318.478 201.105 314.598L201.06 314.482C200.907 314.072 200.698 313.445 200.432 312.812L200.608 312.363C201.498 310.142 202.602 308.05 203.743 305.95C204.763 304.075 205.88 302.303 207.038 300.513C208.258 298.632 209.318 295.872 210.988 294.39L210.988 294.39L210.988 294.39L210.988 294.39ZM198.873 310.628C199.935 311.062 200.84 312.122 201.602 313.357C201.222 312.308 200.437 311.267 198.873 310.628L198.873 310.628L198.873 310.628L198.873 310.628Z" id="面相" fill="#000000" fill-rule="evenodd" stroke="none" />
      <g id="眼镜" transform="translate(2.1340144 192.2102)">
        <path d="M269.225 3.85898C265.743 3.5801 256.243 0 239.595 0C228.735 0 213.658 3.32592 204.005 7.73367L203.433 7.99288C199.043 9.9745 194.463 11.8071 189.702 12.6193C183.853 13.6235 178.047 12.3422 172.397 10.8609L171.323 10.5817C165.958 9.20013 160.625 8.03552 155.262 7.32845C152.266 6.62977 149.249 6.09562 146.205 5.68255C138.979 4.69262 131.689 4.37997 124.42 5.07077C117.372 5.74737 110.429 7.00723 103.75 9.38595C103.035 9.64237 102.299 9.91435 101.557 10.1957C97.913 11.2498 93.3007 12.8244 90.004 15.1753C86.0208 15.6097 81.2545 15.2338 78.5898 17.9813C74.2832 18.7978 14.4464 18.3008 14.4464 18.3008C10.7384 19.0315 2.38787 21.339 0.577909 25.1752C-0.621686 27.7248 0.0952222 29.9753 2.27436 31.6638C5.41831 34.0923 12.8649 30.9582 12.8649 30.9582C16.7387 30.9582 65.2718 29.5072 73.3633 27.796C74.3775 27.7233 75.3953 27.6487 76.4153 27.5702C76.5117 29.0175 76.9053 30.4368 77.6713 31.706C79.4183 34.613 82.168 35.3918 85.1477 35.951L86.5363 36.2005C93.0658 37.3645 94.7128 44.3928 96.7788 49.8098L96.9498 50.2513C99.8103 57.5377 112.223 74.5847 133.697 76.4173C144.275 77.3203 155.8 74.9223 164.284 68.3908C166.618 66.596 168.542 64.5237 170.097 62.2018C174.69 57.5947 176.847 51.3915 178.188 44.8963C179.097 40.4943 179.687 35.994 179.942 31.5072L180.035 29.711C181.397 28.4805 182.87 27.7035 184.43 27.2327C185.858 26.9407 187.283 26.7263 188.725 26.5653C190.2 26.4998 191.718 26.549 193.26 26.6038C196.483 26.7178 199.612 26.962 202.312 28.2533L202.235 28.9055C201.718 33.6395 202.162 38.487 203.11 43.1443C205.112 52.9148 211.28 61.1478 219.585 66.5042C225.548 70.3472 232.518 72.554 239.568 72.8172C243.7 73.7633 248.312 73.4065 252.202 72.51C259.952 70.7247 273.583 65.8327 275.492 36.8443C276.56 32.0923 276.46 26.7995 276.363 21.7203L276.363 21.719C276.322 19.4488 276.278 17.2222 276.342 15.1055C279.267 11.7931 278.45 6.53718 273.438 4.60715C272.077 4.08013 270.777 3.95905 269.33 3.86648L269.225 3.85898L269.225 3.85898L269.225 3.85898L269.225 3.85898Z" id="形状-小路" fill="#000000" fill-rule="evenodd" stroke="none" />
        <path d="M154.681 16.1162C151.119 15.3328 149.598 20.8245 153.171 21.61C155.702 22.1663 157.846 23.4423 159.295 25.604L159.447 25.839C161.391 28.9327 166.308 26.0768 164.35 22.9632C162.147 19.4592 158.724 17.005 154.681 16.1162L154.681 16.1162L154.681 16.1162L154.681 16.1162Z" id="形状-小路#1" fill="#FFFFFF" fill-rule="evenodd" stroke="none" />
        <path d="M255.118 13.7332C255.848 12.4832 257.748 11.8266 259.003 12.7111C261.87 14.7295 263.952 17.7313 264.09 21.3243C264.232 24.9972 258.552 24.9785 258.412 21.3243L258.4 21.1497C258.267 19.7533 257.217 18.3905 256.138 17.6302L256.018 17.5423C254.842 16.6419 254.317 15.1095 255.118 13.7332L255.118 13.7332L255.118 13.7332L255.118 13.7332Z" id="形状-小路#2" fill="#FFFFFF" fill-rule="evenodd" stroke="none" />
      </g>
    </g>
  </g>
</svg>