<?xml version="1.0" encoding="utf-8"?>
<svg width="1000px" height="1000px" viewBox="0 0 1000 1000" version="1.1" xmlns:xlink="http://www.w3.org/1999/xlink" xmlns="http://www.w3.org/2000/svg">
  <path d="M0 500C0 223.858 223.858 0 500 0C776.142 0 1000 223.858 1000 500C1000 776.142 776.142 1000 500 1000C223.858 1000 0 776.142 0 500Z" id="椭圆" fill="none" fill-rule="evenodd" stroke="none" />
  <g id="编组" transform="translate(25 375)">
    <path d="M564.286 0L475 89.286L385.714 0L350 35.714L439.286 125L350 214.286L385.714 250L475 160.714L564.286 250L600 214.286L510.714 125L600 35.714L564.286 0L564.286 0Z" id="多边形" fill="#000000" fill-rule="evenodd" stroke="none" />
    <path d="M700 0L950 0L950 250L700 250L700 0Z" id="矩形" fill="#000000" fill-rule="evenodd" stroke="none" />
    <path d="M0 125C0 55.9644 55.9644 0 125 0C194.036 0 250 55.9644 250 125C250 194.036 194.036 250 125 250C55.9644 250 0 194.036 0 125Z" id="圆" fill="#000000" fill-rule="evenodd" stroke="none" />
  </g>
</svg>