<svg id="图层_1" data-name="图层 1" xmlns="http://www.w3.org/2000/svg" viewBox="0 0 1000 1000"><title>OCRmaker</title><circle cx="500" cy="500" r="500"/><circle cx="500" cy="500" r="462.5" style="fill:#fff"/><path d="M500,419.2391c-118.9512,0-215.38,96.4291-215.38,215.38S381.0488,850,500,850s215.38-96.4291,215.38-215.38H500Z"/><path d="M500,446.1617c-104.0825,0-188.4579,84.3754-188.4579,188.4579S395.9175,823.0774,500,823.0774,688.4579,738.702,688.4579,634.62H500Z" style="fill:#fff"/><path d="M500,473.0842A161.5354,161.5354,0,1,0,661.5353,634.62H500Z"/><path d="M500,500.0068A134.6128,134.6128,0,1,0,634.6128,634.62H500Z" style="fill:#fff"/><path d="M500,526.9293A107.69,107.69,0,1,0,607.69,634.62H500Z"/><path d="M500,553.8519A80.7677,80.7677,0,1,0,580.7677,634.62H500Z" style="fill:#fff"/><path d="M500,580.7744A53.8452,53.8452,0,1,0,553.8451,634.62H500Z"/><path d="M500,607.697A26.9226,26.9226,0,1,0,526.9226,634.62H500Z" style="fill:#fff"/><path d="M715.38,365.38v-.0135C715.38,246.4231,618.9512,150,500,150S284.62,246.4231,284.62,365.3669H500v.0135Z"/><path d="M688.4578,365.38v-.0135c0-104.0759-84.3754-188.446-188.4579-188.446s-188.4579,84.37-188.4579,188.446H500v.0135Z" style="fill:#fff"/><path d="M661.5353,365.38v-.0135a161.5353,161.5353,0,0,0-323.0706,0H500v.0135Z"/><path d="M634.6127,365.38v-.0135a134.6128,134.6128,0,0,0-269.2256,0H500v.0135Z" style="fill:#fff"/><path d="M607.69,365.38v-.0135a107.69,107.69,0,0,0-215.38,0H500v.0135Z"/><path d="M580.7675,365.38l0-.0135a80.7677,80.7677,0,0,0-161.5354,0H500v.0135Z" style="fill:#fff"/><path d="M553.8449,365.38l0-.0135a53.8451,53.8451,0,0,0-107.69,0H500v.0135Z"/><rect x="526.9226" y="362.6882" width="26.9226" height="274.6101"/><rect x="580.7677" y="362.6882" width="26.9226" height="274.6101"/><rect x="634.6128" y="362.6882" width="26.9226" height="274.6101"/><rect x="688.4579" y="362.6882" width="26.9226" height="274.6101"/><rect x="500" y="362.6882" width="26.9226" height="274.6101" style="fill:#fff"/><rect x="553.8451" y="362.6882" width="26.9226" height="274.6101" style="fill:#fff"/><rect x="607.6902" y="362.6882" width="26.9226" height="274.6101" style="fill:#fff"/><rect x="661.5353" y="362.6882" width="26.9226" height="274.6101" style="fill:#fff"/><path d="M311.5421,362.6882H284.62V523.5A242.6016,242.6016,0,0,1,311.5421,482.3Z"/><path d="M365.3872,362.6882H338.4647v91.3181a243.33,243.33,0,0,1,26.9225-20.896Z"/><path d="M419.2323,362.6882H392.31V417.49a240.8269,240.8269,0,0,1,26.9225-11.3975Z"/><path d="M473.0774,362.6882H446.1549v35.623a241.5985,241.5985,0,0,1,26.9225-4.5253Z"/><path d="M338.4647,362.6882H311.5421v91.3181a243.3215,243.3215,0,0,1,26.9226-20.896Z" style="fill:#fff"/><path d="M392.31,362.6882H365.3872V417.49A240.8364,240.8364,0,0,1,392.31,406.0921Z" style="fill:#fff"/><path d="M446.1549,362.6882H419.2323v35.623a241.6,241.6,0,0,1,26.9226-4.5253Z" style="fill:#fff"/><circle cx="500" cy="365.3804" r="26.9226" style="fill:#fff"/></svg>