<svg id="图层_1" data-name="图层 1" xmlns="http://www.w3.org/2000/svg" xmlns:xlink="http://www.w3.org/1999/xlink" viewBox="0 0 1000 1000"><defs><linearGradient id="未命名的渐变_3" x1="775.858" y1="18" x2="775.858" y2="737.2422" gradientUnits="userSpaceOnUse"><stop offset="0" stop-color="#38a734"/><stop offset="1" stop-color="#009de0"/></linearGradient><linearGradient id="未命名的渐变_10" x1="558.8646" y1="-10.5071" x2="558.8646" y2="708.7352" gradientTransform="translate(-34.8678 625.2508) rotate(-72)" gradientUnits="userSpaceOnUse"><stop offset="0" stop-color="#ebe310"/><stop offset="1" stop-color="#38a734"/></linearGradient><linearGradient id="未命名的渐变_12" x1="383.2611" y1="-263.1933" x2="383.2611" y2="456.0489" gradientTransform="translate(463.9789 738.6295) rotate(-144)" gradientUnits="userSpaceOnUse"><stop offset="0" stop-color="#d20711"/><stop offset="1" stop-color="#efdf0f"/></linearGradient><linearGradient id="未命名的渐变_5" x1="1301.9879" y1="623.0079" x2="1301.9879" y2="1342.2501" gradientTransform="translate(1234.0573 -819.292) rotate(72)" gradientUnits="userSpaceOnUse"><stop offset="0" stop-color="#0890cb"/><stop offset="1" stop-color="#322782"/></linearGradient><linearGradient id="未命名的渐变_7" x1="994.0151" y1="1061.7635" x2="994.0151" y2="1781.0057" gradientTransform="translate(1990.8011 1321.2101) rotate(144)" gradientUnits="userSpaceOnUse"><stop offset="0" stop-color="#322782"/><stop offset="1" stop-color="#e11b71"/></linearGradient></defs><title>OnlineImageTool</title><circle cx="500" cy="500" r="500" style="fill:none"/><path d="M579,18c87.47,28.5652,133.1218,74.2784,155,101,138.7912,169.517,37.256,449.7722-26,531-22.7418,29.2029-69,87-69,87,21.69.8959,148.9412,4.07,245-94,73.6857-75.2281,84.4221-164.5023,87-189,18.8307-178.95-122.9743-304.6952-147-326C732.3329,46.7145,629.7826,24.9087,579,18Z" style="fill:url(#未命名的渐变_3)"/><path d="M67.0055,277.7154c54.1967-74.3616,111.78-103.6531,143.9543-116.2031C415.0689,81.8976,650.2314,265.067,707.9364,350.3278c20.746,30.6529,61.42,92.5074,61.42,92.5074,7.5546-20.3514,49.8959-140.3938-13.69-262.0565C706.89,87.4527,625.3029,49.6545,602.8008,39.6326c-164.3724-73.2076-327.7836,22.8-355.47,39.0658C141.6971,140.76,89.2688,231.5529,67.0055,277.7154Z" style="fill:url(#未命名的渐变_10)"/><path d="M158.4746,841.9925c-53.9743-74.5232-64.038-138.34-66.0313-172.8174C79.7984,450.4535,326.672,283.4031,425.5917,254.8694c35.5635-10.2584,106.9595-29.8273,106.9595-29.8273-17.0208-13.4737-118.1038-90.8379-253.461-67.96-103.831,17.5495-164.991,83.463-181.4759,101.7669-120.4184,133.7049-79.607,318.7861-72.6925,350.144C51.3035,728.635,121.4513,806.5538,158.4746,841.9925Z" style="fill:url(#未命名的渐变_12)"/><path d="M983.0455,424.2688c-.1375,92.0158-29.5061,149.56-48.1591,178.6245C816.555,787.2752,518.64,777.3131,421.8409,742.2538c-34.8012-12.6045-104.064-38.7384-104.064-38.7384,5.85,20.9051,42.1547,142.9091,165.1084,203.9613,94.3164,46.8324,182.5389,29.4562,206.6342,24.3377C865.53,894.4249,941.3007,720.7028,954.1384,691.27,1003.1189,578.9705,992.1676,474.7011,983.0455,424.2688Z" style="fill:url(#未命名的渐变_5)"/><path d="M721.7987,930.7824c-87.5547,28.3037-151.3575,18.1545-184.7639,9.396-211.9241-55.5627-294.51-341.9749-291.08-444.87,1.2334-36.9929,4.6849-110.9416,4.6849-110.9416C232.5661,396.39,127.7521,468.6192,107.6828,604.4212,92.2878,708.5934,136.0759,787.1285,148.39,808.4628c89.95,155.8418,278.5837,174.2211,310.5435,177.3351C580.8717,997.6788,676.6537,955.0425,721.7987,930.7824Z" style="fill:url(#未命名的渐变_7)"/></svg>