<?xml version="1.0" encoding="utf-8"?>
<!-- Generator: Adobe Illustrator 23.0.1, SVG Export Plug-In . SVG Version: 6.00 Build 0)  -->
<svg version="1.1" id="图层_1" xmlns="http://www.w3.org/2000/svg" xmlns:xlink="http://www.w3.org/1999/xlink" x="0px" y="0px"
	 viewBox="0 0 1000 1000" style="enable-background:new 0 0 1000 1000;" xml:space="preserve">
<style type="text/css">
	.st0{fill:#EB5129;enable-background:new    ;}
	.st1{fill:#EB5129;}
	.st2{fill:none;}
</style>
<title>Onlinedoc-translator</title>
<polygon class="st0" points="100,246.9 618,246.9 618,610.6 483.3,610.6 483.3,553.1 563.9,553.1 563.9,306.8 151.8,306.8 
	151.8,550.8 250.8,550.8 250.8,639.4 351.5,538.7 351.5,603.7 196.4,758.8 196.4,603.7 100,603.7 "/>
<polygon class="st1" points="391.2,383.9 520.1,383.9 520.1,439.1 445.3,439.1 445.3,687.8 849.4,687.8 849.4,440.3 764.2,440.3 
	764.2,356.3 666.3,454.1 666.3,378.1 803.3,241.2 803.3,393.1 900,393.1 900,736.1 391.2,736.1 "/>
<rect class="st2" width="1000" height="1000"/>
</svg>
