<?xml version="1.0" encoding="utf-8"?>
<!-- Generator: Adobe Illustrator 23.0.1, SVG Export Plug-In . SVG Version: 6.00 Build 0)  -->
<svg version="1.1" id="图层_1" xmlns="http://www.w3.org/2000/svg" xmlns:xlink="http://www.w3.org/1999/xlink" x="0px" y="0px"
	 viewBox="0 0 1000 1000" style="enable-background:new 0 0 1000 1000;" xml:space="preserve">
<style type="text/css">
	.st0{fill:none;}
	.st1{fill:#0364B8;}
	.st2{fill:#0A2767;}
	.st3{fill:#28A8EA;}
	.st4{fill:#35B8F1;}
	.st5{fill:#50D9FF;}
	.st6{fill:#0078D4;}
	.st7{opacity:0.5;fill:#0A2767;enable-background:new    ;}
	.st8{fill:#1490DF;}
	.st9{opacity:0.1;enable-background:new    ;}
	.st10{opacity:0.5;enable-background:new    ;}
	.st11{fill:#FFFFFF;}
</style>
<title>Outlook</title>
<circle class="st0" cx="500" cy="500" r="500"/>
<path class="st1" d="M762.5,179.2H383.3c-17.5,0-29.2,11.7-29.2,29.2v29.2l233.3,72.9l204.2-72.9v-29.2
	C791.7,190.8,780,179.2,762.5,179.2z"/>
<path class="st2" d="M850,497.1c0.1-6.1-3.3-11.8-8.8-14.6L590.4,339.6c-1.6,0-2.9-1.2-2.9-2.8c0,0,0-0.1,0-0.1
	c-5.8-2.9-8.8-2.9-14.6-2.9s-11.7,0-14.6,2.9c-1.6,0-2.9,1.2-2.9,2.8c0,0,0,0.1,0,0.1L304.6,482.5c-8.1,4.3-11.1,14.3-6.8,22.4
	c1.5,2.9,3.9,5.3,6.8,6.8l250.8,142.9c1.6,0,2.9,1.2,2.9,2.8c0,0,0,0.1,0,0.1c5.8,2.9,8.8,2.9,14.6,2.9s11.7,0,14.6-2.9
	c1.6,0,2.9-1.2,2.9-2.8c0,0,0-0.1,0-0.1l250.8-142.9C846.7,508.9,850.1,503.2,850,497.1L850,497.1z"/>
<path class="st3" d="M587.5,237.5H354.2v204.2L587.5,675h204.2V441.7L587.5,237.5z"/>
<path class="st4" d="M838.3,815L304.6,511.7"/>
<path class="st5" d="M587.5,237.5h204.2v204.2H587.5V237.5z"/>
<path class="st6" d="M354.2,441.7h233.3v291.7H354.2V441.7z"/>
<path class="st7" d="M572.9,718.8L304.6,511.7l14.6-26.3c0,0,247.9,142.9,250.8,142.9h5.8c2.9-2.9,247.9-140,247.9-140l14.6,26.3
	L572.9,718.8L572.9,718.8z"/>
<path class="st8" d="M841.2,511.7L593.3,654.6l-5.8,2.9c-5.8,2.9-8.8,2.9-14.6,2.9s-11.7-2.9-14.6-2.9L640,771.2l198.3,46.7
	c8.8-5.8,11.7-14.6,11.7-23.3V497.1C850.1,503.2,846.7,508.9,841.2,511.7z"/>
<path class="st9" d="M850,791.7L602.1,648.8l-8.8,5.8l-5.8,2.9c-5.8,2.9-8.8,2.9-14.6,2.9s-8.8-2.9-11.7-2.9l116.7,105L841.2,815
	C844.2,809.2,850,800.4,850,791.7z"/>
<path class="st3" d="M555.4,654.6L354.2,535l-49.6-23.3c-5.5-2.8-8.9-8.4-8.8-14.6v294.6c0,17.5,14.6,29.2,29.2,29.2h490
	c8.8,0,14.6,0,23.3-5.8L555.4,654.6z"/>
<path class="st10" d="M546.7,733.3c20.4,0,40.8-20.4,40.8-40.8V360c0-20.4-14.6-35-35-35H354.2v131.3l-49.6,29.2
	c-5.8,2.9-8.8,5.8-8.8,11.7v236.3L546.7,733.3z"/>
<path class="st6" d="M523.3,704.2H185c-20.4,0-35-14.6-35-35V330.8c0-20.4,14.6-35,35-35h341.3c17.5,0,32.1,14.6,32.1,35v341.3
	C558.3,689.6,543.8,704.2,523.3,704.2z"/>
<path class="st11" d="M257.9,441.7c8.8-17.5,20.4-32.1,37.9-43.8c19-9.6,40-14.6,61.3-14.6c20.4,0,40.8,5.8,55.4,14.6
	c17.5,8.8,29.2,23.3,37.9,40.8s11.7,37.9,11.7,58.3c0,21.3-5,42.3-14.6,61.3c-5.8,20.4-20.4,35-35,43.8
	c-17.5,8.8-37.9,14.6-58.3,14.6c-23.3,0-40.8-5.8-58.3-14.6s-29.2-23.3-37.9-40.8s-14.6-37.9-14.6-58.3
	C243.3,481.6,248.3,460.7,257.9,441.7L257.9,441.7z M298.8,540.8c5.8,11.7,11.7,20.4,20.4,29.2c8.8,5.8,20.4,8.8,35,8.8
	c14.6,0,26.3-2.9,35-11.7c8.8-5.8,17.5-17.5,20.4-29.2c5.8-8.8,8.8-23.3,8.8-37.9s-2.9-26.3-5.8-37.9s-11.7-20.4-20.4-29.2
	c-11.7-8.8-23.3-11.7-37.9-11.7s-26.3,2.9-35,11.7c-8.8,5.8-17.5,17.5-23.3,29.2c-3.8,12.3-5.8,25.1-5.8,37.9
	C290,514.6,292.9,529.2,298.8,540.8z"/>
</svg>
