<?xml version="1.0" encoding="utf-8"?>
<svg width="1000px" height="1000px" viewBox="0 0 1000 1000" version="1.1" xmlns:xlink="http://www.w3.org/1999/xlink" xmlns="http://www.w3.org/2000/svg">
  <path d="M0 500C0 223.858 223.858 0 500 0C776.142 0 1000 223.858 1000 500C1000 776.142 776.142 1000 500 1000C223.858 1000 0 776.142 0 500Z" id="圆" fill="none" fill-rule="evenodd" stroke="none" />
  <g id="编组" transform="translate(17 231.095)">
    <path d="M642.177 118.811C644.175 111.705 669.711 113.056 674.877 113.361C708.248 115.328 735.579 116.939 744.638 134.071C748.435 141.253 746.236 145.894 752.268 152.601C754.953 155.587 757.865 157.421 776.248 164.591C792.291 170.85 794.882 171.329 799.157 174.855C806.386 180.819 806.029 185.265 811.128 191.842C823.665 208.011 849.728 212.03 867.809 208.192C880.285 205.543 878.422 201.607 895.059 195.112C915.139 187.271 948.513 181.033 961.549 196.202C965.064 200.512 966.988 205.9 966.999 211.462C966.835 224.818 954.023 233.834 951.739 235.442C926.985 252.863 888.821 237.537 880.889 234.352C871.922 230.751 872.73 229.683 860.178 224.542C855.318 222.551 847.566 219.585 819.848 210.372C805.476 205.595 799.433 202.68 795.868 196.202C792.684 190.416 795.45 188.585 792.598 183.121C788.254 174.799 779.999 175.252 756.628 164.591C748.529 160.897 744.48 159.05 741.368 155.871C733.839 148.182 734.958 140.932 728.288 136.251C723.205 132.684 717.299 133.204 709.758 134.071C673.424 138.248 651.152 144.495 646.537 137.341C645.651 134.846 644.923 132.298 644.357 129.711C642.672 123.269 641.829 120.048 642.177 118.811L642.177 118.811Z" id="形状" fill="#8B898A" stroke="none" />
    <path d="M651.789 440.933C596.241 416.738 538.6 419.782 506.07 445.067C489.02 437.585 470.655 433.56 452.038 433.226C395.418 431.792 348.736 461.519 347.771 499.623C346.807 537.727 391.923 569.779 448.544 571.214C467.822 571.859 487.026 568.512 504.95 561.383C521.801 582.425 546.347 601.286 576.268 614.319C647.412 645.308 721.993 631.615 742.847 583.736C763.702 535.857 722.934 471.922 651.789 440.933L651.789 440.933Z" id="形状" fill="#CCCCCC" stroke="none" />
    <path d="M527.514 178.467C502.249 146.237 505.427 101.565 534.611 78.688C563.795 55.8111 607.933 63.3928 633.198 95.6221C658.462 127.852 655.284 172.524 626.101 195.401C596.917 218.278 552.778 210.696 527.514 178.467Z" id="椭圆" fill="#4B4C4B" fill-rule="evenodd" stroke="none" />
    <path d="M532.479 174.574C509.589 145.373 512.468 104.899 538.909 84.1716C565.351 63.4445 605.342 70.3137 628.232 99.5146C651.122 128.715 648.243 169.19 621.802 189.917C595.361 210.644 555.369 203.775 532.479 174.574Z" id="椭圆" fill="#FFFFFF" fill-rule="evenodd" stroke="none" />
    <path d="M559.503 174.243C590.492 168.888 622.138 168.52 653.243 173.153C690.32 178.633 801.291 199.135 842.904 287.603C847.506 297.386 871.977 348.893 852.714 404.234C827.785 475.856 748.16 500.717 725.017 507.943C694.387 517.507 668.103 518.195 643.267 518.844C593.112 520.154 562.013 511.067 554.052 506.695C553.585 506.438 547.926 503.984 536.612 499.065C532.763 497.391 530.802 496.561 528.982 496.885C522.156 498.099 519.266 507.884 515.902 513.235C506.655 527.941 480.366 527.577 467.942 527.405C425.484 526.817 378.694 488.266 352.235 444.723C346.266 434.901 304.309 365.854 329.51 322.484C339.033 306.096 365.228 281.183 367.661 278.883C368.248 278.329 378.557 268.623 390.551 259.263C481.991 187.903 559.502 174.243 559.503 174.243L559.503 174.243Z" id="形状" fill="#4B4C4B" stroke="none" />
    <path d="M459.056 224.542C528.576 177.567 707.809 153.152 799.138 255.062C808.728 265.764 855.348 317.786 844.918 377.143C830.691 458.108 718.782 513.325 637.817 506.854C568.885 501.345 553.886 495.954 553.886 495.954C538.052 487.375 516.129 478.206 503.746 487.234C495.365 493.344 498.38 502.664 490.666 509.034C474.061 522.745 432.701 502.179 408.915 483.964C377.997 460.288 364.447 431.147 358.775 418.564C347.681 393.955 335.304 366.5 343.515 336.813C349.513 315.123 370.486 296.988 412.185 261.602C416.128 258.257 443.716 234.907 459.056 224.542L459.056 224.542Z" id="形状" fill="#E6CA98" stroke="none" />
    <path d="M507.016 509.034C503.734 505.876 499.638 501.837 495.026 497.044C468.522 469.499 439.056 437.415 432.896 401.123C431.996 395.821 429.865 380.191 420.906 377.143C416.168 375.531 411.061 377.912 410.006 376.053C408.554 373.492 417.187 366.406 418.726 365.153C437.426 349.926 473.523 328.48 480.857 336.813C482.121 338.327 482.531 340.379 481.947 342.263C479.983 347.817 468.65 345.834 461.236 349.893C448.38 356.931 449.06 381.351 449.246 388.043C450.099 418.661 466.837 455.782 498.297 473.063C515.333 482.422 536.965 486.166 536.447 488.324C536.154 489.544 529.429 487.512 522.277 490.504C514.396 493.799 509.813 501.595 507.016 509.034L507.016 509.034Z" id="形状" fill="#4B4C4B" stroke="none" />
    <path d="M349.435 200.424C325.412 145.596 352.576 80.7137 410.108 55.5059C467.64 30.2982 533.754 54.3104 557.777 109.139C581.8 163.967 554.635 228.849 497.103 254.057C439.571 279.264 373.458 255.252 349.435 200.424Z" id="椭圆" fill="#4B4C4B" fill-rule="evenodd" stroke="none" />
    <path d="M359.224 196.135C337.458 146.459 362.07 87.6737 414.195 64.8346C466.321 41.9957 526.222 63.7515 547.988 113.428C569.754 163.104 545.142 221.889 493.016 244.728C440.89 267.567 380.989 245.811 359.224 196.135Z" id="椭圆" fill="#FFFFFF" fill-rule="evenodd" stroke="none" />
    <path d="M654.167 88.2908C652.45 93.9194 649.021 98.8726 644.357 102.461C643.244 99.0229 641.625 93.7444 639.997 87.2008C637.493 77.144 637.947 76.0783 636.727 71.9407C631.549 54.3762 616.852 51.439 618.197 41.4206C618.842 36.6115 622.952 31.9024 626.917 31.6105C633.018 31.1613 637.924 41.2348 645.447 56.6807C652.87 71.9226 656.534 79.7185 654.167 88.2908L654.167 88.2908Z" id="形状" fill="#4B4C4B" stroke="none" />
    <path d="M372.945 15.2603C372.702 20.8393 367.766 24.1719 363.135 28.3405C357.317 33.578 351.627 43.8223 340.245 64.3107C332.821 77.6812 326.267 91.5168 320.625 105.731C319.554 97.7856 319.19 89.7609 319.535 81.751C321.056 46.9223 335.564 25.4014 344.604 11.9905C349.827 4.24241 353.747 0.0480468 358.774 0.000424214C365.885 -0.0677082 373.255 8.17378 372.945 15.2603L372.945 15.2603Z" id="形状" fill="#4B4C4B" stroke="none" />
    <path d="M364.382 227.571C364.845 220.155 338.377 211.663 333.011 209.974C298.35 199.065 269.963 190.131 254.721 202.709C248.332 207.982 248.94 213.167 240.443 217.141C236.659 218.911 233.051 219.515 211.82 219.204C193.289 218.933 190.484 218.392 184.893 220.06C175.438 222.881 174.239 227.18 166.737 231.389C148.293 241.737 120.35 235.541 103.295 225.039C91.5251 217.792 94.8047 214.82 80.1525 202.381C62.4672 187.369 30.6869 168.776 12.0868 177.997C7.07283 180.585 3.18851 184.93 1.17635 190.201C-3.35017 202.768 6.5229 216.104 8.28308 218.482C27.359 244.25 71.5928 244.484 80.7869 244.533C91.18 244.588 90.7328 243.28 105.316 243.262C110.964 243.255 119.897 243.44 151.349 245.405C167.657 246.424 174.833 246.005 180.739 241.301C186.013 237.101 183.841 234.331 188.664 230.305C196.011 224.173 204.254 227.751 231.791 226.701C241.333 226.337 246.104 226.155 250.389 224.368C260.755 220.045 262.164 212.831 270.599 210.997C277.026 209.599 282.855 212.343 290.227 216.036C325.744 233.829 346.22 248.187 353.432 243.253C355.206 241.263 356.843 239.154 358.332 236.943C362.312 231.555 364.301 228.862 364.382 227.571L364.382 227.571Z" id="形状" fill="#8B898A" stroke="none" />
    <path d="M484.126 8.71995C450.737 -1.58018 419.443 5.56378 404.555 9.80999C348.789 25.7157 310.84 61.5362 288.551 90.1049C286.907 89.7516 285.241 89.5096 283.565 89.3805C258.536 87.4643 236.181 111.404 225.794 129.711C216.392 146.283 211.397 167.758 217.074 182.031C219.41 187.93 223.152 193.169 227.974 197.291C231.281 199.699 234.964 201.541 238.874 202.741C248.274 205.506 263.997 200.244 280.664 188.127C281.363 190.907 282.335 193.612 283.565 196.201C289.293 208.379 319.951 215.146 358.775 207.101L352.235 200.561C341.016 204.327 329.079 205.446 317.355 203.831C308.123 202.512 292.318 200.255 285.745 188.571C285.169 187.566 284.657 186.525 284.212 185.455C287.259 183.079 290.323 180.487 293.375 177.67L291.195 174.4C288.961 175.873 286.127 177.653 282.755 179.566C282.576 177.447 282.852 175.314 283.565 173.31C285.01 169.601 287.71 166.515 291.195 164.59L287.924 162.411C285.184 164.415 282.945 167.027 281.384 170.041L281.384 170.041C279.927 173.598 279.329 177.449 279.639 181.28C277.176 182.601 274.495 183.957 271.574 185.302C255.062 192.904 242.506 198.684 233.424 194.022C221.222 187.757 221.398 165.78 221.434 161.321C221.749 121.932 261.164 93.8847 274.844 93.741C275.551 93.7336 282.244 93.7371 285.771 93.7395C270.509 114.064 263.506 129.923 263.945 130.801L263.952 130.816C263.983 130.879 264.074 131.06 265.035 132.981C275.77 110.771 290.138 90.5096 307.545 73.0309C329.454 50.9694 355.846 33.8704 384.935 22.8906C384.935 22.8906 432.331 5.34751 481.946 14.1705C496.89 16.828 505.882 21.7525 511.376 29.4307C514.126 33.3408 515.986 37.8053 516.826 42.5107C518.933 40.4019 521.171 37.3956 521.186 33.7906C521.244 20.1773 489.765 10.4598 484.126 8.71995L484.126 8.71995Z" id="形状" fill="#4B4C4B" stroke="none" />
    <path d="M479.773 176.657C484.478 176.372 488.057 169.849 488.493 164.667C489.385 154.051 477.582 143.153 472.143 145.047C466.933 146.86 465.425 161.15 471.053 170.117C471.92 171.499 475.327 176.926 479.773 176.657L479.773 176.657Z" id="形状" fill="#4B4C4B" stroke="none" />
    <path d="M573.412 151.58C576.895 151.63 580.016 149.433 581.144 146.137C582.509 141.858 578.824 137.689 575.694 134.146C573.114 131.227 570.183 127.912 567.874 128.637C564.342 129.746 562.773 140.143 567.083 146.833C567.917 148.128 569.967 151.31 573.412 151.58L573.412 151.58Z" id="形状" fill="#4B4C4B" stroke="none" />
  </g>
</svg>