<svg id="图层_1" data-name="图层 1" xmlns="http://www.w3.org/2000/svg" viewBox="0 0 741.2378 750"><title>PDFcandy</title><path d="M585.7532,866.2291c-9.36.57-211.1573,9.4165-319.37-152.4676C185.71,593.0759,214.137,462.904,219.47,440.4025c7.6885-32.4394,28.2851-119.34,109.1631-178.6307,65.8916-48.3043,135.204-51.4587,162.3915-52.3261,30.949-.9875,118.1482-3.77,193.9677,60.4457,14.0986,11.9408,87.6183,76.8583,91.12,184.0437.532,16.2847,2.5321,141.2636-97.4349,204.7937-80.482,51.1473-194.4841,41.7662-258.022-22.5544-8.6884-8.7954-55.59-58.2571-48.7175-126.3045,7.4524-73.79,75.5114-143.4317,140.7393-138.0327,38.6136,3.196,66.8381,31.9114,73.9784,39.6957,10.6146,11.5719,32.0109,34.8978,27.0652,62.25-2.8538,15.7835-13.3475,26.65-19.8478,33.3805-8.6222,8.9281-20.3017,21.0221-36.9892,20.75-13.3773-.2181-28.5346-8.3594-31.5761-19.8478-2.0048-7.5724,4.5109-19.8479,4.5109-19.8479l-38.7936-74.88c-9.4436,4.3953-38.6428,19.4475-52.3261,52.3262-21.96,52.7667,16.2307,102.9425,21.6522,110.0653,1.9577,2.572,41.23,52.4951,102.8479,51.424,70.8308-1.2313,121.9506-68.99,135.3263-128.1089C712.5526,437.0443,684.64,386.436,675.0685,370.935,624.52,289.0746,527.2862,282.3823,512.677,281.62c-99.0227-5.169-162.9919,61.9754-173.2176,73.0761-79.2906,86.0763-57.29,199.3715-53.2283,218.3264,19.0848,89.0627,83.1237,153.3212,147.9567,184.0437,134.8474,63.9,310.0665.2251,388.8374-120.8915,63.1858-97.1531,46.33-203.6149,43.3044-221.0328-13.88-79.9157-55.803-131.7848-76.6848-156.9785-64.9189-78.3235-143.1519-107.15-165.0981-114.5762-19.7576-6.6855-104.9694-33.6108-209.3046-7.2174-23.6049,5.9713-188.2286,50.6407-258.022,216.522-59.9934,142.5891-6.3952,271.298,7.2174,301.3264,9.527,21.016,60.2557,127.7888,176.8263,184.0437,50.44,24.3415,97.69,31.7361,119.9893,34.2827A381.4074,381.4074,0,0,0,585.7532,866.2291Z" transform="translate(-129.3811 -125)" style="fill:#ed6d50;isolation:isolate"/></svg>