<svg id="图层_1" data-name="图层 1" xmlns="http://www.w3.org/2000/svg" viewBox="0 0 1000 1000"><title>Petalica-Paint</title><path d="M518.8286,402.1427c13.8558,6.9279,30.021,1.1547,34.64-11.5465,31.1757-108.5375,51.9594-222.8483-124.7026-286.3542a13.6587,13.6587,0,0,0-18.4745,8.0826c-5.7733,19.6291-9.2372,32.33-9.2372,32.33-21.9385-15.0105-58.8874-21.9385-76.2072-25.4024-5.7732-1.1547-11.5465,1.1546-13.8558,4.6186C252.1035,207.0062,234.7837,272.8215,518.8286,402.1427Z" style="fill:#ea5c5a"/><path d="M463.4052,439.0916C346.7851,403.2974,289.0524,323.6262,214,328.2449c-76.2072,5.7732-90.0631,102.7642-133.94,145.4863-6.9279,6.928-6.9279,18.4745,1.1547,26.5571,41.5676,40.4129,53.1141,150.105,168.58,103.9189,109.6921-45.0316,147.7957-101.61,217.075-132.7853C480.725,464.494,479.57,444.8649,463.4052,439.0916Z" style="fill:#645ea8"/><path d="M623.9021,448.3289c30.021,11.5465,100.4549,33.4849,203.2191,43.8768C980.69,508.3709,899.8644,277.44,771.6978,247.4191c-124.7026-27.7117-151.26,63.5059-162.8062,180.126C607.7369,436.7823,613.51,444.8649,623.9021,448.3289Z" style="fill:#f9bc3c"/><path d="M546.54,546.4745c-2.3093-15.0106-21.9384-25.4024-32.33-16.1652C398.7446,627.3,248.64,672.3317,249.7942,727.7551c1.1547,60.042,33.485,75.0525,70.4339,76.2072-26.557,63.5059,136.2491,146.6411,169.7341,46.1861,17.32,43.8769,144.3318,42.7223,99.3-118.9293C563.86,636.5375,552.3136,578.8048,546.54,546.4745Z" style="fill:#31a8e1"/><path d="M918.3388,624.9909c-26.557-71.5885-190.5179-90.063-286.3541-115.4654-10.3919-2.3093-19.6292,5.7733-15.01,16.1652,30.021,73.8978,24.2477,181.2806,69.2792,252.8692,49.65,79.6711,162.8062,34.64,144.3318-46.1862C875.6167,745.0749,947.2052,701.1981,918.3388,624.9909Z" style="fill:#7dc05a"/><circle cx="500" cy="500" r="500" style="fill:none"/></svg>