<svg id="图层_1" data-name="图层 1" xmlns="http://www.w3.org/2000/svg" viewBox="0 0 1000 1000"><title>Pexels</title><rect x="125" y="125" width="750" height="750" rx="100" style="fill:#05a081"/><path d="M346.4635,298.2966,340,298.6044l.0616,200.6772c.0615,110.3724.1231,201.108.1846,201.662.0616.9234,9.9723.9849,113.2041.9849H566.5312l-.0615-54.9707c-.0616-49.7384.0615-55.0324.9233-55.2786.9234-.2462,2.77-.6156,6.0942-1.2927,18.5288-3.5088,41.9822-14.3429,58.91-27.3315a168.7308,168.7308,0,0,0,25.6078-25.3c4.4322-5.7248,10.4032-14.3428,10.4032-15.0815a6.101,6.101,0,0,1,1.17-2.0314c1.7852-2.5239,6.34-11.5113,8.8027-17.3592,4.9246-11.819,8.7412-25.177,10.0339-35.0877.1847-1.539.4925-3.4472.6156-4.3091,1.2927-7.51,1.2927-28.44,0-35.7032-.1231-.8618-.4309-2.77-.6156-4.3091a34.44,34.44,0,0,0-.7387-4.0012,17.1841,17.1841,0,0,1-.4925-2.77c-.2462-2.2776-2.5238-10.7725-4.6168-17.2976A165.1476,165.1476,0,0,0,667.67,367.9181c-2.4623-4.0013-11.2651-15.9434-14.22-19.3291a150.1451,150.1451,0,0,0-32.1945-27.5777c-2.3392-1.4774-4.8631-3.0779-5.54-3.4472-2.9548-1.9083-15.2662-7.6947-20.2524-9.603a154.5529,154.5529,0,0,0-31.0865-8.1255,124.8721,124.8721,0,0,0-16.3127-1.2927C536.3681,298.112,355.1431,297.8657,346.4635,298.2966Z" style="fill:#fff"/><path d="M551.504,356.2394c1.17.1847,3.57.554,5.2324.7387,1.7236.2462,3.6319.554,4.309.7387.6771.1231,1.8467.3693,2.647.554,3.6934.7387,13.3579,4.3706,18.2825,6.8329a89.6891,89.6891,0,0,1,43.0286,45.06c2.2777,5.1092,4.6168,12.1268,5.1093,15.1431.1231.9849.554,2.8316.8618,4.0628,2.0314,7.8793,1.8467,24.3767-.3693,34.7184-7.5716,35.5186-35.7649,63.5272-70.4833,70.1138-7.7562,1.4774-12.4346,1.7852-32.5638,1.8468l-18.6519.0615V644.1434H498.934c-10.711.0615-91.1665.0615-97.4454,0h-3.8781V500.2222c0-79.1629.1231-144.1059.2462-144.229C398.2876,355.6238,549.0417,355.87,551.504,356.2394Z" style="fill:#05a081"/><rect width="1000" height="1000" style="fill:none"/></svg>