<svg id="图层_1" data-name="图层 1" xmlns="http://www.w3.org/2000/svg" viewBox="0 0 1000 1000"><title>Aipix</title><circle cx="500" cy="500" r="500" style="fill:none"/><path d="M188.3932,740.35H138.0611a25.3431,25.3431,0,0,1-25.4489-25.4489V664.5691a25.4489,25.4489,0,0,1,50.8977,0v25.4488h25.4488a25.4489,25.4489,0,1,1,0,50.8977Z" style="fill:#5f55af"/><path d="M138.0611,589.3537a25.3431,25.3431,0,0,1-25.4489-25.4489V513.5727a25.4489,25.4489,0,0,1,50.8977,0v50.3321A25.343,25.343,0,0,1,138.0611,589.3537Z" style="fill:#5f55af"/><path d="M138.0611,437.7917a25.343,25.343,0,0,1-25.4489-25.4488V362.0108a25.4489,25.4489,0,1,1,50.8977,0v50.3321A25.343,25.343,0,0,1,138.0611,437.7917Z" style="fill:#5f55af"/><path d="M138.0611,286.7953a25.343,25.343,0,0,1-25.4489-25.4488V211.0144a25.3431,25.3431,0,0,1,25.4489-25.4489h50.3321a25.4489,25.4489,0,0,1,0,50.8977H162.9444V261.912a25.3431,25.3431,0,0,1-25.4489,25.4489Z" style="fill:#5f55af"/><path d="M339.39,236.4632H289.0575a25.4489,25.4489,0,1,1,0-50.8977H339.39c14.1382,0,27.1454,11.3106,27.1454,25.4489S353.5278,236.4632,339.39,236.4632Z" style="fill:#5f55af"/><path d="M492.0826,236.4632H441.7505a25.4489,25.4489,0,1,1,0-50.8977h50.3321a25.4489,25.4489,0,0,1,0,50.8977Z" style="fill:#5f55af"/><path d="M794.0754,286.7953a25.343,25.343,0,0,1-25.4488-25.4488V235.8977H743.1777a25.4489,25.4489,0,0,1,0-50.8977H793.51a25.343,25.343,0,0,1,25.4488,25.4488V260.781A25.343,25.343,0,0,1,793.51,286.23Z" style="fill:#453d83"/><path d="M643.079,186.1311H592.1813a25.4488,25.4488,0,0,0,0,50.8976H643.079a25.4488,25.4488,0,1,0,0-50.8976Z" style="fill:#5f55af"/><path d="M668.5278,211.58a25.343,25.343,0,0,0-25.4488-25.4488H617.63v50.3321H643.079a25.343,25.343,0,0,0,25.4488-25.4488Z" style="fill:#453d83"/><path d="M861.9389,307.1544H257.9533a25.343,25.343,0,0,0-25.4488,25.4488v456.948A25.343,25.343,0,0,0,257.9533,815H861.9389a25.343,25.343,0,0,0,25.4489-25.4488V332.6032A25.343,25.343,0,0,0,861.9389,307.1544Z" style="fill:#edf5ff"/><path d="M887.3878,788.9856V332.0377a25.343,25.343,0,0,0-25.4489-25.4488H559.9461v507.28H861.9389A25.343,25.343,0,0,0,887.3878,788.42Z" style="fill:#d5e8fe"/><path d="M559.9461,357.4865H282.8366V726.2118l277.11-3.9587L779.3716,718.86l57.684-93.3124V357.4865Z" style="fill:#6aa9ff"/><path d="M837.0557,626.1131V358.0521H559.9462V722.8187l219.4255-3.3932Z" style="fill:#4895ff"/><path d="M729.04,517.5314a25.6111,25.6111,0,0,0-35.6284,0l-133.465,133.465L509.614,701.3285l-83.1328-83.1328a25.6111,25.6111,0,0,0-35.6284,0L282.8366,726.2118v37.325H837.0557V625.5475Z" style="fill:#97de3d"/><path d="M837.0557,626.1131,729.04,518.0969a25.6111,25.6111,0,0,0-35.6284,0l-133.465,133.465v113.106h277.11V626.1131Z" style="fill:#59c36a"/><path d="M459.2819,561.0772a75.781,75.781,0,1,1,75.7809-75.781A75.7855,75.7855,0,0,1,459.2819,561.0772Z" style="fill:#fed843"/></svg>