<svg id="图层_1" data-name="图层 1" xmlns="http://www.w3.org/2000/svg" viewBox="0 0 1000 1000"><title>PicToGram2</title><rect width="1000" height="1000" style="fill:none"/><path d="M308.6317,322.46q-32.064-34.0756-64.1278-68.1514a31.4226,31.4226,0,0,1,0-44.308h0a31.4226,31.4226,0,0,1,44.308,0l64.8848,63.3709a88.5347,88.5347,0,0,0-45.065,49.0886Z" style="fill:#1c8b42"/><path d="M601.5542,421.4423,831.7076,264.52c6.4013-14.0478,2.3967-30.2327-8.852-38.6271-8.9969-6.714-21.4887-7.5943-32.1893-2.4142C633.3944,310.4794,519.2925,376.72,491.3059,394.8861c-8.4287,5.4711-24.0114,16.1608-31.3846,35.4083a67.1632,67.1632,0,0,0-4.0236,30.58l34.6035,119.9051c.3941,2.3957,3.22,21.42-9.6568,33.7988a32.3365,32.3365,0,0,1-12.071,7.2425L147.6852,691.8324c-14.9917,7.0462-23.9833,22.1371-22.5325,37.0176,1.8092,18.5559,19.5876,34.0312,41.0414,32.9941l352.4727-50.6982,67.5975-.8047,132.7808,85.3016a36.2458,36.2458,0,0,0,24.142,2.4142c15.5741-3.9975,22.3522-17.2981,23.3372-19.3136l105.42-121.5145c6.6-16.0876,2.2353-34.4044-10.4616-45.065-10.9737-9.214-26.5756-11.369-40.2366-5.6332L731.9208,684.59,656.276,597.6787Z" style="fill:#1c8b42"/><circle cx="394.3357" cy="356.6614" r="74.4377" style="fill:#1c8b42"/></svg>