<svg id="图层_1" data-name="图层 1" xmlns="http://www.w3.org/2000/svg" viewBox="0 0 1000 1000"><title>PiGai</title><circle cx="500" cy="500" r="500" style="fill:none"/><path d="M793.4214,428.3521a179.0438,179.0438,0,0,0-234.7176-114.32c-9.6257-10.75-67.3975-73.24-155.3675-72.09-86.9593,1.1367-167.78,63.9933-198.2213,157.313a177.6373,177.6373,0,0,0-103.46,60.5171c-38.6921,46.081-41.0212,97.032-41.56,114.2306-1.2142,38.7756,9.3754,73.43,21.2429,95.0342,39.386,71.6987,152.1688,107.6347,276.1582,79.3815l-34.66-44.722a229.9247,229.9247,0,0,1-90.5621,2.2361C211.9927,702.3294,186.7622,697.8467,162,680c-6.1327-4.42-56.5688-42.0662-57.1829-105.9969-.5991-62.3717,45.7912-114.92,95.0475-127.5315,20.88-5.3462,44.7682-5.3463,44.7683-5.3463h0a143.8073,143.8073,0,0,1,7.5377-44.3164c18.4941-54.4146,75.748-110.1149,151.1657-110.1445,58.1762-.0228,112.3026,33.1022,140.8981,85.5452,6.0819-4.25,56.6486-38.32,118.0349-19.1684,46.65,14.5543,81.901,54.3391,92.0936,103.4667,6.13,4.065,70.4889,48.1747,69.36,117.4952-1.1975,73.5358-75.2846,122.8651-134.1659,134.1659-37.0454,7.11-68.5235-.7481-86.09-6.7082q-6.7085,23.4789-13.4167,46.958c21.7657,5.9278,57.6217,12.505,99.5064,4.4722,79.2121-15.1916,177.9772-81.9688,178.8879-178.8879C869.238,489.5874,802.7344,435.6608,793.4214,428.3521Z" style="fill:#7dcef4"/><path d="M260.226,599.7182l137.52-43.6039,81.0585,81.0586c21.7612-50.4869,75.1562-155.6788,189.5094-243.1757A612.23,612.23,0,0,1,940,276.602,817.2578,817.2578,0,0,0,732.0428,437.6011C623.66,554.0135,573.9765,676.1153,550.9188,748.4188H395.51Z" style="fill:#ea5413"/></svg>