<svg id="图层_1" data-name="图层 1" xmlns="http://www.w3.org/2000/svg" viewBox="0 0 1000 1000"><title>Pixiv</title><circle cx="500" cy="500" r="500" style="fill:none"/><path d="M264.5,100A164.1332,164.1332,0,0,0,100,263.7661q-.0007.3671,0,.7341v471A164.1333,164.1333,0,0,0,263.7661,900q.3671.0008.7341,0h471A164.1333,164.1333,0,0,0,900,736.2339q.0008-.367,0-.7341v-471A164.1332,164.1332,0,0,0,736.2339,100q-.367-.0007-.7341,0ZM524.8333,251.5669c72.7,0,135.2665,22.5333,179.9665,61.5666A203.933,203.933,0,0,1,775.333,468.4667c.1667,61.8-29.3332,115.8665-75.2332,152.1-45.8333,36.4-107.5,56.5666-175.2665,56.5666-77.1332,0-148.6665-28.0667-148.6665-28.0667v90.6C389.4,743.5331,411.1,751.8331,397.3335,765.633H293c-13.6666-13.6666,6.3333-21.6666,21.4667-25.9666V355.5335c-35.1,27-53.1,50.3332-62.2666,67.7,10.6666,34-9.4667,32.3-9.4667,32.3L206.4,397.8667s128.9332-146.3331,318.433-146.3331ZM518.5,283.9336c-47.4333-.1-106.1332,15.7666-142.3332,41.4666V613.6c32.9333,16.2333,82.8,27.7333,142,27.7333H518.5c53.2,0,99.3332-19.7667,131-51.1,31.7332-31.6,49.5332-72.7666,49.7333-122.7665C699.0665,416.1334,682.4332,372,651.9,338.8,621.3,305.7335,576.1,283.9669,518.5,283.9336Z" style="fill:#0096fa"/></svg>