<svg id="图层_1" data-name="图层 1" xmlns="http://www.w3.org/2000/svg" viewBox="0 0 1100 1100"><title>ProcessLibrary</title><rect width="1100" height="1100" style="fill:none"/><rect x="296.5" y="370" width="435" height="435" style="fill:#70c2ea"/><rect x="209.5" y="281.5" width="78" height="78" style="fill:#db66ad"/><rect x="175" y="812.5" width="112.5" height="112.5" style="fill:#ff8c00"/><rect x="740.5" y="175" width="184.5" height="184.5" style="fill:#c1d43a"/><path d="M606.89,680.82q0,18.7365-8.4457,32.9311t-24.5564,22.1434q-16.1106,7.9517-38.1122,7.9489H505.6835V819.5H471.3329v-200h63.0234q34.9184,0,53.726,15.9688T606.89,680.82Zm-34.6345.2839q0-17.3172-10.4329-26.9695t-31.4408-9.6522H505.6835V719.145h25.8339q19.3044,0,30.0213-9.8651t10.7168-28.1759Z" transform="translate(-82 -132)" style="fill:#fff"/><path d="M675.7331,619.5V792.1047h76.934V819.5H641.0987v-200Z" transform="translate(-82 -132)" style="fill:#fff"/></svg>