<svg id="图层_1" data-name="图层 1" xmlns="http://www.w3.org/2000/svg" viewBox="0 0 1000 1000"><title>Removebg</title><path d="M84.48,435.3712,491.8349,647.8271a17.7614,17.7614,0,0,0,16.3295,0L915.4119,435.3712a17.6642,17.6642,0,0,0,7.6281-23.7879l-.0284-.0551a18.3317,18.3317,0,0,0-7.6-7.5889L508.1536,191.4834a17.9549,17.9549,0,0,0-16.4264,0L84.48,403.9394a17.858,17.858,0,0,0-7.5027,23.9291A18.428,18.428,0,0,0,84.48,435.3712Z" style="fill:#54616c"/><path d="M915.4012,564.63,848.06,529.4839,524.4833,698.2581a53.2839,53.2839,0,0,1-48.9025,0L151.9184,529.4839,84.48,564.63a17.7611,17.7611,0,0,0-7.5027,23.7461,17.3844,17.3844,0,0,0,7.5027,7.5889L491.8349,808.5173a17.7614,17.7614,0,0,0,16.3295,0l407.2475-212.542a17.6642,17.6642,0,0,0,7.6214-23.79l-.0217-.0422a18.0416,18.0416,0,0,0-7.6-7.5027Z" style="fill:#bac0c4"/><circle cx="500" cy="500" r="500" style="fill:none"/></svg>