<svg id="图层_1" data-name="图层 1" xmlns="http://www.w3.org/2000/svg" viewBox="0 0 1000 1000"><title>Runoob</title><rect width="1000" height="1000" style="fill:#91c951"/><path d="M273,778.2667A43.4607,43.4607,0,0,0,316.3333,821.6H879.6667A43.4607,43.4607,0,0,0,923,778.2667V339.1617H273Z" transform="translate(-98 -33)" style="fill:#e7e6e2"/><path d="M879.6667,244.4H316.3333A43.4607,43.4607,0,0,0,273,287.7333v51.4284H923V287.7333A43.4607,43.4607,0,0,0,879.6667,244.4Z" transform="translate(-98 -33)" style="fill:#2d4b59"/><path d="M511.57,670.0954,500.9144,683.119,381.3333,575.3777,499.73,466.4524l11.84,11.84L405.0128,575.3777Z" transform="translate(-98 -33)"/><path d="M665.4863,466.4524l-125.5009,223.77-11.84-7.1039,125.5009-223.77Z" transform="translate(-98 -33)"/><path d="M814.6667,575.3777,695.0856,683.119,684.43,670.0954l106.5573-94.7177L684.43,478.2921l11.84-11.84Z" transform="translate(-98 -33)"/><circle cx="627.2143" cy="263.2143" r="21.2333" style="fill:#b1a24c"/><circle cx="692.2143" cy="263.2143" r="21.2333" style="fill:#208895"/><circle cx="757.2143" cy="263.2143" r="21.2333" style="fill:#a1515b"/></svg>