<svg id="图层_1" data-name="图层 1" xmlns="http://www.w3.org/2000/svg" viewBox="0 0 1000 1000"><title>Screenzy</title><path d="M468.9867,1.0027c-2.7335.1429-12.5164,1.1431-21.58,2-58.6978,5.43-123.15,24.8628-177.9636,53.4408C68.7486,161.325-36.706,386.6623,11.6334,607.2841,34.6521,711.88,92.1989,808.7588,172.4767,877.6317c43.7356,37.58,97.398,70.016,148.327,89.449,115.0936,44.153,245.0055,43.8672,360.3869-.7144,19.9975-7.7161,57.1152-26.006,76.25-37.4372,123.5817-74.3027,209.7581-198.9026,235.2226-340.2206,9.7829-54.5839,9.7829-122.5995,0-177.1834C954.8257,201.1913,784.7749,36.1536,574.8729,5.718,540.4886.7169,493.1564-1.4265,468.9867,1.0027ZM645.2239,117.8865c57.9784,8.8592,95.8154,36.0083,109.3389,78.3037,4.316,13.2887,7.0495,40.4378,5.7547,55.1554-3.4528,36.8656-25.3206,69.5874-53.6624,80.1612-22.2994,8.43-52.08,3.4294-69.7755-11.717l-5.467-4.7153,8.632-6.1443c14.9622-10.4309,27.047-28.8637,32.514-49.5828,3.3089-12.7171,5.0353-35.2937,3.4528-45.4389-1.5825-9.7165-9.0636-25.0057-16.4008-33.4362-5.6109-6.573-18.2712-13.5746-29.4928-16.29-11.6532-2.8578-45.6058-2.572-57.5468.5716-30.6437,8.1447-51.36,27.4348-59.8487,56.1557-3.5967,12.0027-3.3089,40.8665.7193,59.8708,4.7477,23.2911,17.5518,46.2963,39.5635,71.8736,5.6108,6.43,28.63,28.2922,51.0728,48.5825,74.8108,67.3011,94.3768,91.1637,113.08,137.0314,14.2428,35.008,18.5588,56.7272,18.5588,94.7359,0,38.1516-4.0282,63.7289-15.25,94.3073-25.896,71.1591-90.78,125.6-175.23,147.3194-35.2475,9.1449-83.1552,13.003-120.8484,10.0023-65.4595-5.43-108.62-23.0053-141.8529-57.4417-29.205-30.4356-42.2969-65.0149-42.2969-112.0256,0-51.1546,13.9551-89.7348,43.16-119.313,20.1414-20.29,41.29-33.5791,65.7473-41.0094,11.5093-3.4294,14.8183-3.858,37.1177-3.858,27.6224-.1429,35.9667,1.4289,53.3746,9.8594,19.1344,9.2878,34.24,28.8637,36.1107,46.7249l.7193,7.859-13.38.8573c-43.304,2.8578-74.5232,19.29-92.3627,48.44-8.3443,13.86-11.2216,24.72-11.2216,43.2956.1439,47.2965,24.7451,82.0187,66.3227,93.45,22.731,6.2872,53.0869,5.0011,73.66-3.2865,33.5211-13.4316,58.5539-42.4382,68.4808-79.3038,3.165-12.2885,3.5966-16.4323,3.5966-38.7231,0-42.01-4.8915-65.3007-20.4291-96.4507-17.4079-34.8651-37.2616-61.5855-77.2566-104.1666-55.5327-59.1564-73.3722-81.59-88.3344-111.597-16.5447-33.0075-22.1555-59.585-18.8466-89.1632,4.1722-38.2945,18.1273-67.73,44.8866-94.1644,39.42-39.1518,92.7942-62.8715,154.657-68.73C585.2313,114.0285,627.2405,115.1716,645.2239,117.8865Z" transform="translate(0 0)" style="fill:#4d32ff"/></svg>