<svg id="图层_1" data-name="图层 1" xmlns="http://www.w3.org/2000/svg" viewBox="0 0 1415 1415"><title>ShapeFactory</title><rect x="207.5" y="207.5" width="1000" height="1000"/><path d="M421.7854,466.8872l150.4-260.7515L722.6047,466.8872ZM706.0342,674.8983c0,87.9733-71.5084,159.5378-159.3972,159.5378-80.1448,0-146.4775-59.5626-157.5776-136.7689H566.1368V516.6884C644.8344,526.3644,706.0342,593.5491,706.0342,674.8983ZM247.7227,657.0955V371.3967H430.0571l-78.48,136.0545H525.593V657.0955ZM572.1854,125,453.4523,330.8328H207.1866V697.6672H348.0811C359.445,797.32,444.0942,875,546.6215,875,656.8656,875,746.57,785.2406,746.57,674.8983c0-70.023-36.1985-131.6863-90.787-167.4471h137.03Z" transform="translate(207.5 207.5)" style="fill:#fff"/><circle cx="707.5" cy="707.5" r="707.5" style="fill:none"/></svg>