<svg id="图层_1" data-name="图层 1" xmlns="http://www.w3.org/2000/svg" viewBox="0 0 1415 1415"><title>SkyPixel</title><rect x="207.5" y="207.5" width="1000" height="1000"/><circle cx="707.5" cy="707.5" r="707.5" style="fill:none"/><path d="M792.4181,358.5a130.5429,130.5429,0,0,0-103-113h-385c-9.0749,0-28.5085,3.1858-48,16-52.841,34.7391-54.5354,113.4239-55,135-.3877,18.0047-2.334,108.3884,55,145,19.3854,12.3789,38.6342,15,48,15h327a46.536,46.536,0,0,1,0,87h-431c.3306,12.2747,2.792,35.7922,18,59,31.0475,47.3793,87.7729,51.5829,95,52h376c14.333-1.0044,37.4276-4.7788,59-20,53.1146-37.4769,51.6148-112.322,51-143-.6512-32.5-1.9839-99.0019-51-133-21.3825-14.8312-44.3312-18.2692-59-19h-314c-19.6111-5.2308-32.9184-23.3565-32-43,.8536-18.2567,13.8254-34.1965,32-39Z" transform="translate(207.5 207.5)" style="fill:#fff"/></svg>