<svg id="图层_1" data-name="图层 1" xmlns="http://www.w3.org/2000/svg" viewBox="0 0 1000 1000"><title>Sordum</title><rect width="1000" height="1000" style="fill:none"/><path d="M791.0616,172.7716V396.5161C780.2209,368.2622,757.17,319.452,709.7,275.4422c-18.4824-17.1353-93.8441-82.8445-203.4041-83.2988-19.2155-.08-134.1951-.5564-161.7546,63.927-13.0782,30.6-.2884,62.8329.9685,65.8642C391.6228,433.143,632.3748,347.201,766.8468,490.4694c12.1609,12.9564,82.6352,89.9909,67.8014,186.9381-8.812,57.5911-41.5278,96.1576-57.1469,112.3565,4.8685-20.5042,18.2407-87.8895-14.5289-159.8175-27.3074-59.9391-73.2151-93.5286-88.1417-103.6392-.0637-.0431-1.4389-.974-2.9058-1.9372-59.6376-39.1587-123.8887-35.2332-208.2471-52.3039-104.5225-21.1511-143.7145-55.0688-161.7546-74.5815-5.368-5.8062-11.974-13.0376-18.4033-24.2148-29.6057-51.4691-17.8-120.5328,3.8744-157.88,74.089-127.6659,335.96-84.68,373.8761-78.4559A634.38,634.38,0,0,1,791.0616,172.7716Z" style="fill:#6d6e6c"/><path d="M208.9384,827.2284V603.4839c10.8407,28.2539,33.8921,77.0641,81.3617,121.0739,18.4824,17.1353,93.8441,82.8445,203.4041,83.2988,19.2155.08,134.1951.5564,161.7546-63.927,13.0782-30.6.2884-62.8329-.9685-65.8642C608.3772,566.857,367.6252,652.799,233.1532,509.5306c-12.1609-12.9564-82.6352-89.9909-67.8014-186.9381,8.812-57.5911,41.5278-96.1576,57.1469-112.3565-4.8685,20.5042-18.2407,87.89,14.5289,159.8175,27.3074,59.9391,73.2151,93.5286,88.1417,103.6392.0637.0431,1.4389.974,2.9058,1.9372,59.6376,39.1587,123.8887,35.2332,208.2471,52.3039,104.5225,21.1511,143.7145,55.0688,161.7546,74.5815,5.368,5.8062,11.974,13.0376,18.4033,24.2148,29.6057,51.4691,17.8,120.5328-3.8744,157.88-74.089,127.6659-335.96,84.68-373.8761,78.4559A634.38,634.38,0,0,1,208.9384,827.2284Z" style="fill:#0c91ce"/></svg>