<svg id="图层_1" data-name="图层 1" xmlns="http://www.w3.org/2000/svg" viewBox="0 0 1000 1000"><title>StickPNG</title><path d="M556.49,3.1608A505.3733,505.3733,0,0,0,500,0C223.8576,0,0,223.8576,0,500s223.8576,500,500,500,500-223.8577,500-500a503.571,503.571,0,0,0-6.3933-80.1154Z"/><path d="M581.3669,26.8771A483.12,483.12,0,0,0,500,20C234.9033,20,20,234.9033,20,500S234.9033,980,500,980,980,765.0967,980,500a481.715,481.715,0,0,0-11.2654-103.827Z" style="fill:#fff"/><path d="M892.01,323.0276A428.4522,428.4522,0,0,1,930,500c0,237.4824-192.5175,430-430,430S70,737.4824,70,500,262.5176,70,500,70A428.869,428.869,0,0,1,658.0427,99.9758L623.6746,67.2111A450.28,450.28,0,0,0,500,50C251.4719,50,50,251.4719,50,500S251.4719,950,500,950,950,748.5281,950,500a449.4693,449.4693,0,0,0-23.5956-144.1824Z"/><path d="M322.33,411.239q-22.1261-18.7834-63.1968-18.7834H185V627.7105h40.4061v-88.993h35.3971q25.8777,0,44.83-9.35,18.9475-9.3492,28.8857-26.0473,9.9312-16.6929,9.9342-38.7358Q344.4528,430.0233,322.33,411.239ZM291.107,498.0622q-12.6083,11.6055-35.3129,11.6035h-30.388v-87.824h29.0518q24.708,0,36.9834,11.3533,12.2711,11.3563,12.272,31.724Q303.7133,486.4572,291.107,498.0622Z"/><path d="M551.6586,537.8829q0,15.1959.5,26.2135.5013,11.02,1.1689,20.2035L433.1124,392.4556H384.6918V627.7105h36.7331V480.1125q0-10.8505-.4174-21.4546-.4192-10.6012-.9188-21.4556l118.88,190.5082h49.59V392.4556H551.6586Z"/><path d="M741.4993,536.7139h55.4325v41.4079q-21.7068,20.7056-54.2645,20.704-31.3917,0-49.0042-23.7094-17.6179-23.7065-17.6154-66.1182,0-42.4079,16.4464-65.0334,16.4436-22.623,48.1695-22.6245,41.24,0,54.2646,35.397l37.4006-11.3533q-10.5192-28.5519-33.2263-42.4928-22.71-13.94-57.9375-13.9415-51.0913,0-78.6414,30.9714-27.5491,30.9739-27.55,89.0771,0,57.7709,28.134,89.9107T742.334,631.05a133.4166,133.4166,0,0,0,52.427-10.4355Q819.47,610.182,835,592.6478v-85.82H741.4993Z"/><path d="M992.51,418.8392,555.3933,2.1154C590.7914,221.9019,769.4393,393.7557,992.51,418.8392Z" style="fill:#616c7b"/></svg>