<svg id="图层_1" data-name="图层 1" xmlns="http://www.w3.org/2000/svg" viewBox="0 0 1415 1415"><title>Strobe</title><circle cx="707.5" cy="707.5" r="707.5" style="fill:none"/><rect x="207.5" y="207.5" width="1000" height="1000" style="fill:#fff"/><polygon points="1207.5 1207.5 1207.5 1120.572 1120.572 1207.5 1207.5 1207.5"/><path d="M499.3913,749,749,998.6087,998.6087,749,749,499.3913Zm333.0473,0L749,832.4386,665.5614,749,749,665.5614Z" transform="translate(207.5 207.5)"/><polygon points="541.428 956.5 956.5 541.428 1207.5 792.428 1207.5 627.672 956.5 376.672 376.672 956.5 627.672 1207.5 792.428 1207.5 541.428 956.5"/><polygon points="1121.082 207.5 1111.564 207.5 791.918 207.5 207.5 791.918 207.5 1121.082 207.51 1121.092 207.5 1207.5 293.918 1207.5 299.521 1207.5 462.21 1207.5 211.21 956.5 956.5 211.21 1207.5 462.21 1207.5 304.755 1207.5 293.918 1207.5 207.5 1121.082 207.5"/><polygon points="627.869 207.5 459.578 207.5 207.5 459.578 207.5 627.869 627.869 207.5"/></svg>