<?xml version="1.0" encoding="utf-8"?>
<svg width="1000px" height="1000px" viewBox="0 0 1000 1000" version="1.1" xmlns:xlink="http://www.w3.org/1999/xlink" xmlns="http://www.w3.org/2000/svg">
  <defs>
    <linearGradient gradientUnits="objectBoundingBox" x1="4392" y1="8" x2="4392" y2="136" id="gradient_1">
      <stop offset="0%" stop-color="#2AABEE" />
      <stop offset="100%" stop-color="#229ED9" />
    </linearGradient>
  </defs>
  <g id="编组">
    <path d="M500 1.49012e-05C367.42 1.49012e-05 240.158 52.7109 146.484 146.445C52.7344 240.18 0 367.445 0 500C0 632.555 52.7344 759.82 146.484 853.555C240.158 947.289 367.42 1000 500 1000C632.58 1000 759.842 947.289 853.516 853.555C947.266 759.82 1000 632.555 1000 500C1000 367.445 947.266 240.18 853.516 146.445C759.842 52.7109 632.58 0 500 0L500 1.49012e-05Z" id="background" fill="url(#gradient_1)" stroke="none" />
    <path d="M224.823 498.41C370.605 434.91 467.793 393.042 516.384 372.816C655.289 315.058 684.12 305.027 702.946 304.691C707.085 304.621 716.305 305.644 722.321 310.511C727.322 314.613 728.725 320.16 729.431 324.05C730.057 327.941 730.915 336.808 730.213 343.73C722.714 422.792 690.136 614.652 673.573 703.206C666.618 740.677 652.79 753.239 639.431 754.466C610.367 757.138 588.337 735.278 560.211 716.847C516.228 687.996 491.383 670.042 448.65 641.894C399.277 609.363 431.305 591.48 459.431 562.261C466.774 554.613 594.742 438.245 597.164 427.691C597.477 426.371 597.79 421.449 594.822 418.855C591.93 416.253 587.635 417.144 584.511 417.847C580.059 418.847 509.823 465.316 373.573 557.246C353.653 570.949 335.606 577.628 319.355 577.277C301.544 576.894 267.166 567.183 241.619 558.886C210.369 548.707 185.448 543.324 187.634 526.035C188.728 517.035 201.149 507.824 224.819 498.41L224.823 498.41Z" id="telegram" fill="#FFFFFF" stroke="none" />
  </g>
</svg>