<svg id="图层_1" data-name="图层 1" xmlns="http://www.w3.org/2000/svg" viewBox="0 0 1000 1000"><title>TempMail</title><path d="M991.6844,613.0856q-.1785,1.6206-.369,3.2379Q991.5076,614.7068,991.6844,613.0856Z" style="fill:#39b54a"/><circle cx="500" cy="500" r="500" style="fill:#39b54a"/><circle cx="500" cy="500" r="450"/><path d="M593.2449,432.3469,863.8571,567.653l96.7313-48.3655C960.8516,512.89,961,506.4625,961,500c0-3.7743-.0609-7.5341-.151-11.2868l-96.9919,48.496L593.2449,401.9031V297.0408H914.062q-5.9716-12.1719-12.619-23.9388H572.4286V726.898H901.4429q6.6523-11.757,12.6191-23.9388H593.2449Z" style="fill:#39b54a"/><rect x="208.1429" y="337.2858" width="291.4286" height="34" style="fill:#39b54a"/><rect x="111" y="483" width="388.5714" height="34" style="fill:#39b54a"/><rect x="253.8" y="628.7143" width="242.8571" height="34" style="fill:#39b54a"/></svg>