<svg id="图层_1" data-name="图层 1" xmlns="http://www.w3.org/2000/svg" viewBox="0 0 1000 1000"><title>Tencent-Document</title><path d="M760.6339,157.317H260.054a14.23,14.23,0,0,0-14.0015,11.75L130.2215,825.9888a14.2222,14.2222,0,0,0,14.026,16.6942H420.1906l21.859-6.78H570.1932l17.9181,6.78H800.7047a14.2331,14.2331,0,0,0,14.026-11.75L910,290.6254,760.6583,157.317Z" style="fill:#1e6fff;fill-rule:evenodd"/><path d="M754.0982,290.601H909.9755L760.6583,157.317,740.0966,273.8824a14.2254,14.2254,0,0,0,14.0016,16.7186" style="fill:#00dcff;fill-rule:evenodd"/><path d="M536.1685,185.4425,508.1654,344.7468l-273.0792.4651L353.7322,473.6H485.4251L420.1906,842.6585H588.1113L653.4192,473.6H851.6929l6.8783-.1468Z" style="fill:#fff;fill-rule:evenodd"/><circle cx="500" cy="500" r="500" style="fill:none"/></svg>