<svg id="图层_1" data-name="图层 1" xmlns="http://www.w3.org/2000/svg" viewBox="0 0 1000 1000"><title>Tencent-Cloud</title><path d="M810.95,672.6007c-13.6681,13.5159-41.0044,33.79-88.8428,33.79H428.2424C517.0852,621.9163,592.26,550.9582,599.0938,544.2s23.9192-23.6527,41.0043-37.1685c34.17-30.4106,61.5066-33.79,85.4257-33.79,34.17,0,61.5066,13.5158,85.4258,33.79,47.8384,43.9265,47.8384,121.6426,0,165.569Zm58.0895-219.6324c-34.17-37.1685-85.4258-60.8213-140.0982-60.8213-47.8384,0-88.8428,16.8948-126.43,43.9265-13.6681,13.5159-34.17,27.0317-51.2554,47.3054-13.6681,13.5159-307.5325,297.3486-307.5325,297.3486,17.0851,3.3789,37.5873,3.3789,54.6724,3.3789H670.8514c27.3362,0,47.8384,0,68.3406-3.3789a211.1981,211.1981,0,0,0,126.43-54.0634C944.2137,652.327,944.2137,527.3054,869.0391,452.9683Z" style="fill:#00a3ff"/><path d="M390.6551,432.6946c-37.5873-27.0317-75.1746-40.5476-119.596-40.5476-54.6724,0-105.9279,23.6528-140.0981,60.8213C55.7863,530.6844,55.7863,652.327,134.378,730.043c34.17,30.4107,68.3406,47.3055,109.3449,50.6845L322.3145,706.39H277.8932c-44.4214-3.3789-71.7576-16.8948-88.8428-33.79-47.8384-47.3054-47.8384-121.6425-3.417-168.948,23.9192-23.6527,51.2554-33.79,85.4257-33.79,20.5022,0,51.2554,3.379,82.0087,33.79,13.6681,13.5159,51.2554,40.5475,64.9235,54.0634h3.4171l51.2554-50.6844v-3.379C448.7446,480,411.1573,449.5894,390.6551,432.6946" style="fill:#00c8dc"/><path d="M749.4431,348.2206C711.8557,246.8518,612.7619,175.8936,500,175.8936c-133.2641,0-239.192,97.99-259.6941,219.6324,10.251,0,20.5021-3.379,34.17-3.379s30.7533,3.379,44.4214,3.379h0C335.9827,311.052,411.1573,250.2307,500,250.2307c75.1746,0,140.0981,43.9265,170.8514,108.1267,0,0,3.4171,3.379,3.4171,0,23.9191-3.3789,51.2553-10.1368,75.1746-10.1368h0" style="fill:#006eff"/><rect width="1000" height="1000" style="fill:none"/></svg>