<?xml version="1.0" encoding="utf-8"?>
<svg width="1000px" height="1000px" viewBox="0 0 1000 1000" version="1.1" xmlns:xlink="http://www.w3.org/1999/xlink" xmlns="http://www.w3.org/2000/svg">
  <path d="M0 0L1000 0L1000 1000L0 1000L0 0Z" id="矩形" fill="none" fill-rule="evenodd" stroke="none" />
  <g id="编组" transform="translate(199 150.00005)">
    <path d="M322 700L511.231 700C601.555 662.989 661.5 597.857 661.5 523.687C661.5 408.432 516.748 315 338.188 315C332.759 315 327.362 315.086 322 315.257L322 700Z" id="椭圆-3-减去-减去" fill="#0052D9" fill-rule="evenodd" stroke="none" />
    <path d="M322 264.25L322 264.25L322 700L250 700C111.91 700 0 588.09 0 450L0 264.25L322 264.25Z" id="矩形-复制" fill="#1E6FFF" stroke="none" />
    <path d="M495.25 273.876C495.25 273.876 427.887 378.831 329.875 363.563C263.848 353.278 276.491 356.663 171.063 318.063C92.241 289.204 0 301.001 0 301.001L0 188.125L495.25 188.125L495.25 273.876Z" id="矢量图-2" fill="#5399FF" fill-rule="evenodd" stroke="none" />
    <path d="M5.34058e-05 188.126C5.34058e-05 188.126 3.69019 0 261.626 0C519.562 0 525.001 188.126 525.001 188.126C525.001 188.126 524.562 212.078 517.125 233.625C509.688 255.172 495.251 274.315 495.251 274.315C495.251 274.315 422.925 212.653 339.063 212.626C256.503 212.6 5.34058e-05 301.001 5.34058e-05 301.001L5.34058e-05 188.126Z" id="矢量图" fill="#98CFFF" fill-rule="evenodd" stroke="none" />
  </g>
</svg>