<svg id="图层_1" data-name="图层 1" xmlns="http://www.w3.org/2000/svg" viewBox="0 0 1415 1415"><title>Tholman</title><rect x="207.5" y="207.5" width="1000" height="1000"/><polygon points="967.5 312.5 367.5 312.5 367.5 432.5 600 432.5 600 1022.5 735 1022.5 735 432.5 967.5 432.5 967.5 312.5" style="fill:#ea8b8a"/><circle cx="707.5" cy="707.5" r="707.5" style="fill:none"/><polygon points="1047.5 392.5 447.5 392.5 447.5 512.5 680 512.5 680 1102.5 815 1102.5 815 512.5 1047.5 512.5 1047.5 392.5" style="fill:#53a2be"/><polygon points="1007.5 352.5 407.5 352.5 407.5 472.5 640 472.5 640 1062.5 775 1062.5 775 472.5 1007.5 472.5 1007.5 352.5" style="fill:#fff"/></svg>