<?xml version="1.0" encoding="utf-8"?>
<svg width="759.28723px" height="1000.00006px" viewBox="0 0 759.28723 1000.00006" version="1.1" xmlns:xlink="http://www.w3.org/1999/xlink" xmlns="http://www.w3.org/2000/svg">
  <g id="编组">
    <path d="M258.337 1.12031C256.386 2.89386 256.918 20.452 259.756 45.1044C268.446 122.254 256.741 190.181 219.851 275.666C199.277 323.198 196.262 329.76 195.198 329.582C194.666 329.582 190.764 322.311 186.508 313.62C181.187 302.624 175.866 294.821 169.482 288.436C164.338 283.293 157.599 274.602 154.406 268.927C145.184 252.61 135.784 241.969 126.916 237.535C119.113 233.81 118.403 233.81 114.324 236.471C108.826 240.018 96.2339 265.734 74.4192 318.054C65.5514 339.337 53.3139 367.714 47.4612 381.015C26.7106 427.837 6.49211 495.41 1.70352 533.718C-3.43979 575.397 3.29972 630.022 18.7296 671.169C26.5333 691.919 42.1405 720.474 55.2648 738.032C62.1817 747.077 73.1777 762.507 79.9172 772.261C116.807 826.532 171.787 866.082 243.084 889.848C285.649 904.036 305.868 907.051 357.301 906.874C395.964 906.874 401.995 906.342 424.164 902.085C467.793 893.572 515.147 875.837 546.184 856.682C637.168 800.106 680.974 709.655 680.974 578.589C680.974 525.028 672.461 483.527 648.164 417.728C613.934 324.971 586.799 270.523 549.732 219.977C543.347 211.286 531.109 194.26 522.241 182.2C501.846 154.355 490.317 141.94 487.125 145.133C485.706 146.552 484.642 157.548 483.933 179.54C482.691 213.592 479.676 230.263 469.567 256.867L465.31 268.217L462.118 256.867C457.507 240.373 440.481 196.389 432.322 180.072C422.923 161.45 408.379 138.393 396.319 123.141C390.999 116.224 381.776 103.986 376.101 95.6507C348.256 56.2778 312.962 24.3538 276.427 6.08624C264.19 -0.121194 260.465 -1.18533 258.337 1.12029L258.337 1.12031Z" id="1" fill="#6ACACA" stroke="none" />
    <path d="M336.648 94.237C334.698 96.0106 335.23 113.569 338.067 138.221C346.758 215.371 335.052 283.298 298.162 368.784C277.589 416.315 274.574 422.877 273.51 422.7C272.978 422.7 269.076 415.428 264.819 406.738C259.499 395.742 254.178 387.938 247.793 381.553C242.65 376.41 235.91 367.72 232.718 362.044C223.495 345.727 214.096 335.086 205.228 330.652C197.424 326.928 196.715 326.928 192.636 329.588C187.138 333.135 174.545 358.852 152.73 411.172C143.863 432.454 131.625 460.831 125.772 474.133C105.022 520.955 84.8032 588.527 80.0146 626.836C74.8713 668.515 81.6108 723.141 97.0408 764.287C104.844 785.038 120.452 813.592 133.576 831.15C140.493 840.195 151.489 855.625 158.229 865.38C195.118 919.651 250.099 959.201 321.396 982.967C363.961 997.155 384.18 1000.17 435.613 999.993C474.276 999.993 480.307 999.461 502.476 995.204C546.106 986.691 593.46 968.956 624.497 949.801C715.48 893.225 759.287 802.773 759.287 671.707C759.287 618.146 750.774 576.645 726.476 510.846C692.247 418.089 665.111 363.64 628.044 313.094C621.659 304.404 609.422 287.377 600.554 275.317C580.158 247.472 568.63 235.057 565.437 238.25C564.019 239.669 562.954 250.665 562.245 272.657C561.004 306.709 557.989 323.381 547.879 349.984L543.623 361.335L540.43 349.984C535.819 333.49 518.793 289.506 510.635 273.189C501.235 254.567 486.691 231.51 474.631 216.258C469.311 209.341 460.088 197.103 454.413 188.768C426.568 149.395 391.274 117.471 354.739 99.2029C342.501 92.9955 338.777 91.9314 336.649 94.237L336.648 94.237Z" id="2" fill="#F0284E" stroke="none" />
    <path d="M300.898 49.9737C298.947 51.7472 299.479 69.3054 302.316 93.9578C311.007 171.107 299.301 239.034 262.411 324.52C241.838 372.051 238.823 378.613 237.759 378.436C237.227 378.436 233.325 371.164 229.069 362.474C223.748 351.478 218.427 343.674 212.043 337.289C206.899 332.146 200.16 323.456 196.967 317.78C187.745 301.464 178.345 290.822 169.477 286.388C161.674 282.664 160.964 282.664 156.885 285.324C151.387 288.871 138.795 314.588 116.98 366.908C108.112 388.19 95.8748 416.567 90.0221 429.869C69.2715 476.691 49.053 544.263 44.2644 582.572C39.1211 624.25 45.8606 678.876 61.2905 720.022C69.0942 740.773 84.7014 769.327 97.8257 786.885C104.743 795.93 115.739 811.36 122.478 821.115C159.368 875.385 214.348 914.936 285.645 938.701C328.21 952.89 348.429 955.905 399.862 955.727C438.525 955.727 444.555 955.195 466.725 950.939C510.354 942.426 557.708 924.69 588.745 905.536C679.729 848.959 723.535 758.508 723.535 627.443C723.535 573.881 715.022 532.38 690.725 466.581C656.495 373.824 629.36 319.376 592.292 268.83C585.908 260.14 573.67 243.114 564.802 231.053C544.406 203.209 532.878 190.794 529.686 193.986C528.267 195.405 527.203 206.401 526.494 228.393C525.252 262.445 522.237 279.117 512.128 305.72L507.871 317.071L504.679 305.72C500.068 289.226 483.042 245.242 474.883 228.925C465.483 210.303 450.94 187.247 438.88 171.994C433.56 165.077 424.337 152.84 418.662 144.504C390.817 105.131 355.523 73.2072 318.988 54.9396C306.75 48.7322 303.026 47.668 300.898 49.9737L300.898 49.9737Z" id="3" fill="#000000" stroke="none" />
    <path d="M378.487 351.976C387 386.028 402.43 409.439 430.63 431.431C438.079 437.284 447.833 444.91 452.267 448.457C463.795 457.68 473.905 463.178 487.384 467.789L499.266 471.868L499.798 504.324C499.976 522.237 499.976 537.667 499.444 538.731C498.557 541.214 474.791 539.086 456.701 535.007C432.226 529.331 399.77 515.675 385.404 504.856C382.389 502.551 379.374 500.6 378.842 500.6C378.31 500.6 377.778 555.225 377.778 622.088L377.778 743.576L455.814 743.576L405.091 801.572C377.069 833.673 352.593 861.518 350.465 863.823L346.741 867.725L326.345 844.492C315.171 831.545 303.643 818.243 300.628 814.873C297.791 811.326 287.327 799.621 277.572 788.802C267.818 778.161 254.871 763.44 248.663 756.523L237.49 743.576L276.153 743.222L314.817 742.69L315.349 546.18L315.704 349.848L346.741 349.848C370.152 349.848 377.955 350.38 378.487 351.976L378.487 351.976Z" id="4" fill="#6ACACA" stroke="none" />
    <path d="M430.173 391.37C438.686 423.833 454.116 446.151 482.315 467.117C489.764 472.696 499.519 479.966 503.953 483.348C515.481 492.14 525.59 497.382 539.069 501.778L550.952 505.666L551.484 536.608C551.661 553.684 551.661 568.394 551.129 569.409C550.242 571.776 526.477 569.747 508.386 565.858C483.911 560.448 451.455 547.429 437.089 537.115C434.074 534.917 431.059 533.057 430.527 533.057C429.995 533.057 429.463 585.133 429.463 648.875L429.463 764.694L507.5 764.694L456.776 819.982C428.754 850.585 404.278 877.131 402.15 879.329L398.426 883.048L378.03 860.899C366.856 848.557 355.328 835.876 352.313 832.663C349.475 829.282 339.012 818.122 329.257 807.809C319.502 797.664 306.555 783.63 300.348 777.036L289.175 764.694L327.838 764.356L366.502 763.848L367.034 576.51L367.388 389.341L398.426 389.341C421.837 389.341 429.64 389.848 430.172 391.37L430.173 391.37Z" id="5" fill="#F0284E" stroke="none" />
    <path d="M410.326 364.779C418.839 398.832 434.269 422.242 462.468 444.235C469.917 450.087 479.672 457.714 484.106 461.261C495.634 470.483 505.743 475.981 519.222 480.592L531.105 484.672L531.637 517.128C531.814 535.041 531.814 550.47 531.282 551.535C530.395 554.017 506.63 551.889 488.539 547.81C464.064 542.135 431.608 528.478 417.243 517.66C414.228 515.354 411.213 513.403 410.68 513.403C410.148 513.403 409.616 568.029 409.616 634.892L409.616 756.38L487.653 756.38L436.929 814.375C408.907 846.476 384.432 874.321 382.304 876.627L378.579 880.529L358.183 857.295C347.01 844.348 335.482 831.047 332.467 827.677C329.629 824.13 319.165 812.424 309.41 801.606C299.656 790.964 286.709 776.244 280.502 769.327L269.328 756.38L307.992 756.025L346.655 755.493L347.187 558.983L347.542 362.651L378.579 362.651C401.99 362.651 409.794 363.183 410.326 364.779L410.326 364.779Z" id="6" fill="#FFFFFF" stroke="none" />
  </g>
</svg>