<svg id="图层_1" data-name="图层 1" xmlns="http://www.w3.org/2000/svg" viewBox="0 0 1000 1000"><title>Tmp.link</title><rect x="125.075" y="125" width="749.925" height="750" rx="90.0638" style="fill:#188adf"/><path d="M667.2708,125,556.2819,237.5c1.8748-10.725,4.2-24.675,6.7493-41.25,1.8748-12.375,2.7-18.3-.75-24.75A26.8992,26.8992,0,0,0,541.2834,158c-10.724-.9-18.5232,5.4-20.9979,7.5-10.874,9.075-11.9988,21.75-15.7485,46.5-5.2494,34.575,16.7984-121.65-11.9988,70.5-4.7245,31.35-6.9743,47.1-1.5,53.25,3.3,3.675,7.7992,5.85,44.9955,7.5,21.1479.9,29.5471.675,55.4944.75,40.121.15,48.8952.9,57.7443-6.75,1.5748-1.35,12.8987-11.475,11.2488-24.75-1.5-12.15-12.8987-18.75-14.2485-19.5-7.3493-4.125-13.4237-3.15-34.4966-2.25-11.8488.525-21.4478.675-27.7472.75L751.2624,125Z" style="fill:#fff"/><path d="M875,257C741.8133,393.5,641.8483,493.1,608.0267,524c-4.7995,4.35-15.0735,13.35-30.7469,18-28.0472,8.325-65.6934.75-88.4912-21-8.9241-8.475-13.6486-17.4-25.4974-19.5a31.1549,31.1549,0,0,0-26.9973,8.25c-1.05,1.05-9.8241,9.975-8.9991,22.5.5249,7.95,4.7245,14.1,12.7487,22.5a169.5568,169.5568,0,0,0,41.2459,31.5,162.5992,162.5992,0,0,0,71.2428,17.25A153.37,153.37,0,0,0,608.7766,593a149.8608,149.8608,0,0,0,30.7469-16.5L875,340.25Z" style="fill:#fff"/><path d="M332.7292,875,443.7181,762.5c-1.8748,10.725-4.1995,24.75-6.7493,41.25-1.8748,12.375-2.7,18.3.75,24.75A26.8992,26.8992,0,0,0,458.7166,842c10.724.9,18.5232-5.4,20.9979-7.5,10.874-9.075,11.9988-21.75,15.7485-46.5,5.2494-34.575-16.7984,121.65,11.9988-70.5,4.7245-31.35,6.9743-47.1,1.5-53.25-3.3-3.675-7.7992-5.85-44.9955-7.5-21.1479-.9-29.547-.675-55.4944-.75-40.121-.15-48.8952-.9-57.7443,6.75-1.5748,1.35-12.8987,11.475-11.2488,24.75,1.5,12.15,12.8987,18.75,14.2485,19.5,7.3493,4.125,13.4237,3.15,34.4966,2.25,11.8488-.525,21.4478-.675,27.7472-.75L248.7376,875Z" style="fill:#bbdff6"/><path d="M125,743C258.1867,606.5,358.1517,506.9,391.9733,476c4.8-4.35,15.0735-13.35,30.7469-18,28.0472-8.325,65.6935-.75,88.4912,21,8.9241,8.475,13.6486,17.4,25.4974,19.5a31.1549,31.1549,0,0,0,26.9973-8.25c1.05-1.05,9.824-9.975,8.9991-22.5-.5249-7.95-4.7245-14.1-12.7487-22.5a169.5568,169.5568,0,0,0-41.2459-31.5,162.5992,162.5992,0,0,0-71.2428-17.25A153.37,153.37,0,0,0,391.2234,407a149.8608,149.8608,0,0,0-30.7469,16.5L125,659.75Z" style="fill:#bbdff6"/><rect width="1000" height="1000" style="fill:none"/></svg>