<?xml version="1.0" encoding="utf-8"?>
<svg width="1000px" height="1000px" viewBox="0 0 1000 1000" version="1.1" xmlns:xlink="http://www.w3.org/1999/xlink" xmlns="http://www.w3.org/2000/svg">
  <path d="M0 500C0 223.858 223.858 0 500 0C776.142 0 1000 223.858 1000 500C1000 776.142 776.142 1000 500 1000C223.858 1000 0 776.142 0 500Z" id="椭圆" fill="none" fill-rule="evenodd" stroke="none" />
  <g id="编组" transform="translate(50.999977 121.1526)">
    <path d="M182.542 552.343L61.5255 552.343L61.5255 554.886C61.5255 565.056 64.5764 572.682 71.1865 577.767C77.511 582.446 85.1841 584.944 93.051 584.885C99.8767 584.799 106.682 584.118 113.39 582.852C122.034 581.326 131.695 577.259 141.864 569.631L174.915 612.343C168.806 618.265 161.972 623.391 154.576 627.597C148.261 631.113 141.62 634.008 134.746 636.241C128.306 638.325 121.655 639.689 114.915 640.309C108.305 640.817 101.695 641.326 95.0847 641.326C82.9053 641.34 70.7738 639.802 58.9831 636.75C47.9611 634.099 37.5855 629.258 28.4746 622.512C19.713 616.118 12.5727 607.759 7.62712 598.106C2.54237 588.444 0 576.75 0 563.529L0 510.14C0 496.411 2.54237 484.716 7.62712 474.547C12.4746 464.687 19.2124 455.876 27.4576 448.615C36.0557 441.606 45.8844 436.26 56.4407 432.852C67.802 429.352 79.6378 427.637 91.5253 427.767C103.944 427.728 116.295 429.614 128.135 433.36C138.7 436.749 148.532 442.096 157.119 449.123C165.471 456.163 172.083 465.038 176.44 475.055C181.285 486.289 183.711 498.416 183.559 510.648L183.559 552.343L182.542 552.343ZM120 511.157C120 502.513 116.949 496.411 111.356 491.835C105.516 487.401 98.348 485.071 91.0169 485.225C83.3802 485.197 75.9855 487.902 70.1696 492.852C64.1904 497.671 60.8049 505.006 61.017 512.682L61.017 514.207L119.491 514.207L119.491 511.157L120 511.157ZM356.441 348.953C372.712 348.953 386.949 351.496 398.136 356.58C409.067 361.313 418.797 368.437 426.61 377.428C433.783 386.186 439.297 396.181 442.881 406.919C446.344 417.94 448.06 429.436 447.966 440.987C448.008 452.618 445.941 464.16 441.865 475.054C437.866 486.044 431.634 496.086 423.56 504.546C415.266 513.447 405.227 520.544 394.068 525.393C382.373 530.478 369.153 533.02 354.407 533.02L296.441 533.02L296.441 638.783L229.322 638.783L229.322 348.953L356.441 348.953ZM296.441 474.547L345.763 474.547C358.475 474.547 367.627 471.496 372.712 464.886C378.305 458.275 380.848 450.648 380.848 441.496C381.054 433.056 378.362 424.801 373.22 418.106C368.136 411.496 358.983 408.445 345.763 408.445L296.441 408.445L296.441 474.547ZM537.966 430.309L537.966 557.936C537.971 562.136 538.836 566.289 540.509 570.141C541.953 572.966 543.841 575.541 546.102 577.768C548.151 579.895 550.821 581.319 553.729 581.836C556.18 582.671 558.771 583.017 561.356 582.853C567.413 582.789 573.42 581.759 579.153 579.802C585.254 577.768 593.39 573.7 603.559 567.09L603.559 429.801L666.102 429.801L666.102 639.292L610.17 639.292L606.102 622.513C599.704 626.757 592.889 630.335 585.763 633.19C580.016 635.601 574.059 637.474 567.966 638.783C562.959 640.043 557.857 640.893 552.712 641.326C548.657 641.729 544.583 641.898 540.509 641.834C528.305 641.834 518.136 639.8 510 635.732C502.075 631.679 495.266 625.743 490.17 618.445C484.896 610.797 481.261 602.141 479.492 593.021C477.218 582.664 476.025 572.099 475.932 561.495L475.932 429.292L537.966 429.292L537.966 430.309ZM900 564.547C900 590.479 893.39 610.309 880.678 622.513C867.966 635.224 850.17 641.326 827.797 641.326C818.764 641.091 809.831 639.373 801.356 636.242C791.186 633.191 781.525 628.615 772.373 624.038L768.305 639.801L712.373 639.801L712.373 337.767L774.915 337.767L774.915 445.055C786.61 438.445 797.288 433.869 806.949 431.326C815.245 429.097 823.784 427.901 832.373 427.767C843.144 427.573 853.851 429.472 863.898 433.36C872.542 436.919 879.661 442.004 884.746 449.123C890.339 455.733 893.898 463.868 896.441 473.021C898.983 482.173 900 492.343 900 504.038L900 564.547ZM837.458 512.174C837.458 502.513 835.424 495.902 831.356 492.343C827.24 488.881 821.986 487.069 816.61 487.259C811.017 487.259 804.407 488.784 796.78 491.835C788.926 494.923 781.425 498.843 774.407 503.53L774.407 572.682C777.028 574.534 779.954 575.911 783.051 576.75C786.61 578.275 790.17 579.292 794.237 580.818C798.305 581.835 801.865 583.36 805.932 583.869C809.261 584.662 812.682 585.005 816.102 584.886C821.643 584.943 826.968 582.739 830.848 578.784C834.916 574.716 836.95 568.106 836.95 559.462L836.95 512.174L837.458 512.174Z" id="形状" fill="#E37863" fill-rule="evenodd" stroke="none" />
    <path d="M484.068 130.678C478.231 135.344 473.094 140.823 468.814 146.949C469.619 137.949 472.03 129.166 475.932 121.016C478.017 115.985 480.94 111.343 484.576 107.288C488.089 103.176 492.007 99.4279 496.271 96.1012C504.407 89.491 514.576 84.4062 526.271 80.3383L533.898 78.813L541.525 77.2875L541.525 108.813C533.39 109.83 526.271 110.847 520.17 112.881C507.054 116.306 494.772 122.361 484.068 130.678L484.068 130.678ZM632.034 96.1017C648.814 110.339 657.458 130.678 657.458 157.119L657.458 207.966C657.497 214.27 656.987 220.565 655.933 226.78C654.778 232.358 653.075 237.808 650.848 243.051C646.482 252.918 639.864 261.626 631.526 268.475C622.692 275.699 612.487 281.061 601.526 284.237C597.07 285.736 592.469 286.759 587.797 287.288C583.221 287.797 578.136 288.814 573.052 289.322C576.103 286.78 579.153 284.237 581.696 281.695C584.34 279.048 586.723 276.153 588.814 273.051C597.128 262.598 602.563 250.152 604.577 236.949C605.2 234.626 605.542 232.236 605.594 229.831C606.016 227.311 606.187 224.757 606.103 222.204C606.097 218.983 605.927 215.758 605.595 212.549C604.977 205.849 603.786 199.215 602.036 192.718C601.46 191.433 601.115 190.056 601.019 188.65C600.51 187.633 600.51 186.108 600.002 184.583L632.036 152.549L554.747 75.7691C556.235 75.3496 557.781 75.1778 559.324 75.2606L563.9 75.2606C591.865 74.7457 614.746 81.8642 632.034 96.1017L632.034 96.1017Z" id="形状" fill="#556A72" fill-rule="evenodd" stroke="none" />
    <path d="M593.898 231.864C593.451 233.968 592.769 236.015 591.864 237.966C591.329 239.8 590.468 241.522 589.322 243.051C588.305 245.593 586.271 249.661 583.729 254.746C580.999 260.642 577.207 265.985 572.543 270.509C567.543 275.696 561.697 279.995 555.255 283.221C548.136 286.78 540.509 287.797 531.356 286.271C516.102 283.221 503.39 277.627 493.221 268.983C486.77 263.679 481.268 257.318 476.95 250.17C475.933 248.136 474.916 245.593 473.899 243.559C472.882 241.526 472.373 238.983 471.356 236.441L471.356 234.916L470.339 229.831C469.885 228.703 469.711 227.482 469.831 226.272C469.831 225.255 469.322 223.729 469.322 222.712L469.322 216.611C468.903 215.123 468.731 213.577 468.814 212.034L468.814 204.916C468.598 192.892 470.848 180.952 475.424 169.831C479.79 159.963 486.408 151.256 494.746 144.407C503.704 137.372 513.87 132.03 524.746 128.644C535.678 125.561 546.951 123.853 558.305 123.56L558.305 102.712L608.136 152.542L558.305 202.373L558.305 179.491C555.362 179.87 552.465 180.551 549.661 181.525C546.761 182.466 544.018 183.838 541.526 185.593C534.916 190.169 531.356 198.305 531.356 208.983C531.286 209.542 531.473 210.103 531.864 210.508C531.864 211.017 532.373 212.542 532.881 214.576L533.39 214.576C533.419 215.83 533.769 217.055 534.406 218.136C534.406 218.644 534.915 219.153 535.424 219.661L535.424 221.186C535.932 221.695 536.441 222.203 536.441 222.712L537.457 223.729L538.474 224.746C539.491 225.763 540 226.271 540.508 226.271C546.916 230.727 554.57 233.041 562.373 232.881C570.018 233.039 577.509 230.72 583.728 226.271C590.339 222.203 593.898 214.068 593.898 202.881L593.898 183.051C594.407 185.085 594.407 188.644 594.915 192.203C595.359 196.595 595.529 201.011 595.424 205.424C595.534 208.991 595.364 212.561 594.915 216.102C594.407 219.153 594.407 221.695 593.898 224.237C594.158 226.773 594.158 229.329 593.898 231.865L593.898 231.864Z" id="形状" fill="#47A4A5" stroke="none" />
    <path d="M383.898 60.5085L383.898 290.847L316.78 290.847L316.78 60.5085L242.543 60.5085L242.543 0L457.119 0L457.119 60.5085L383.898 60.5085Z" id="形状" fill="#47A4A5" stroke="none" />
  </g>
</svg>