<svg id="图层_1" data-name="图层 1" xmlns="http://www.w3.org/2000/svg" viewBox="0 0 1000 1000"><title>Toolfk</title><path d="M950,500c0,248.5281-201.4719,450-450,450S50,748.5281,50,500,251.4719,50,500,50A449.6121,449.6121,0,0,1,640,72.209V19.8746A500.18,500.18,0,0,0,500,0C223.8576,0,0,223.8576,0,500s223.8576,500,500,500,500-223.8577,500-500a500.18,500.18,0,0,0-19.8746-140H927.791A449.6121,449.6121,0,0,1,950,500Z" style="fill:#70d8f1"/><path d="M767.7439,674.7282,467.8471,391.7754s10.8043-70.8608,32.1634-88.1792c21.4827-17.4373,58.9217-39.2981,58.9217-39.2981V225c-39.2818,0-72.18,10.1939-118.9519,33.5269-46.6489,23.2124-82.0017,58.7027-91.3313,68.0362s-22.22,23.9477-30.3206,35.491c-8.1043,11.5463-6.5069,24.6846-6.5069,24.6846l-24.1826,20.88-4.9126-4.914a7.4808,7.4808,0,0,0-10.4322,0L227.12,447.8969a7.4872,7.4872,0,0,0,0,10.44l72.9176,72.9477a7.4807,7.4807,0,0,0,10.4321,0l45.1773-45.1929a7.492,7.492,0,0,0,0-10.44l-12.644-12.65,17.9219-17.5609c8.3468-4.5424,31.1813-10.9284,47.9976-6.2632L672.73,767.4467c9.9442,10.0711,24.92,10.0711,34.9868,0l57.45-57.8431C777.8116,699.7789,777.8116,682.218,767.7439,674.7282Z" style="fill:gray"/><rect width="1000" height="1000" style="fill:none"/></svg>