<svg id="图层_1" data-name="图层 1" xmlns="http://www.w3.org/2000/svg" viewBox="0 0 1000 1000"><title>Toplinks</title><circle cx="500" cy="500" r="500" style="fill:#fff"/><path d="M692.9686,254.145q39.6658,0,61.0714,12.277,21.3962,12.277,31.7942,36.5162,10.3882,24.2441,12.277,55.7187Q800,390.1461,800,470.41q0,80.2727-5.6663,169.0448T771.0389,755.6136Q753.4055,783.0008,727.5972,791.5,701.7742,800,654.8784,800q-46.9094,0-69.8844-8.8143-22.99-8.8241-30.5351-23.9244-7.5551-15.11-13.2214-45.33-1.269-6.9354-5.6663-6.9255H470.7241q-38.41,0-56.6637-11.3326a10.5506,10.5506,0,0,0-4.7219-1.2592c-1.4756,0-3.05,1.0428-4.7219,3.148q-37.7754,57.9173-58.8666,76.18Q324.6489,799.9948,296.3272,800q-28.3315,0-61.07-23.2948-32.7435-23.3-32.7386-58.5518a75.2518,75.2518,0,0,1,3.1479-21.4061,95.0307,95.0307,0,0,1,9.4438-21.406l33.9979-50.9968q27.0625-40.9184,34.9422-53.5151,7.8649-12.5868,16.6841-20.1468a5.7038,5.7038,0,0,0,1.8888-4.0924,4.7078,4.7078,0,0,0-1.2592-3.4627q-1.269-1.2543-24.554-15.11-23.3-13.8411-33.3682-18.8876Q200,486.4641,200,442.3929q0-22.0308,11.6474-44.0719Q223.29,376.29,238.405,361.1752a5.7038,5.7038,0,0,0,1.8887-4.0923c0-1.4658-.846-3.04-2.5183-4.7219q-33.3781-28.3315-33.3683-58.2371,0-29.8956,23.9244-62.0145Q252.251,200,290.9757,200q38.72,0,107.345,41.5529a5.0932,5.0932,0,0,0,3.7775,1.2592,4.0413,4.0413,0,0,0,3.7776-2.5184q11.9523-23.285,29.2759-31.7942Q452.4614,200,487.0934,200q34.6167,0,56.6625,12.5918,22.0307,12.6017,25.8131,34.6274,1.2543,6.9354,8.8143,6.9255ZM392.6544,508.5a8.9851,8.9851,0,0,0-1.2592-5.0368q-10.0783-13.2213-10.0734-27.7019,0-3.7774-7.87-6.6107-7.88-2.833-17.3137-10.0734a56.5442,56.5442,0,0,1-15.11-17.3137q-5.6663-10.0637-6.9254-16.6841-1.2691-6.6117-1.2592-22.3511,0-15.73-23.2948-23.9244-23.3-8.1749-32.7387-8.1846-19.5222,0-36.2014,24.5539-16.689,24.5541-16.6841,46.59,0,30.8547,30.22,46.59,15.73,7.555,71.7732,42.1825,11.9523,6.9352,21.0912,6.9255a83.9353,83.9353,0,0,1,12.5918.63,31.7689,31.7689,0,0,0,5.3515.63q8.1748,0,17.9433-10.7031Q392.6495,517.319,392.6544,508.5Zm1.2592,150.4719v-76.81q0-15.11-16.0546-20.4616a101.194,101.194,0,0,0-32.109-5.3515q-16.0547,0-27.0724,9.4438-11.0227,9.4438-16.3693,19.2025-5.3565,9.7684-36.2014,55.4039-30.8548,45.655-35.5718,55.7186a49.7973,49.7973,0,0,0-4.7219,21.4061q0,25.1738,24.554,41.8677,24.5539,16.6743,42.4972,16.6841,17.9433,0,30.22-7.24,12.2771-7.2451,24.2392-22.0356,11.9524-14.8,27.0724-37.1458,15.11-22.3554,17.3137-27.3871Q393.9087,677.2346,393.9136,658.9717ZM338.51,371.2486q3.1429,0,5.9811-3.4627,2.8332-3.4529,19.8321-33.3682,16.9989-29.8958,23.2948-42.4973,6.286-12.5869,6.2959-17.9433,0-5.3417-5.0368-10.3883-5.0465-5.0317-28.6463-17.3137-23.61-12.2769-40.2937-17.3137-16.689-5.0318-29.2759-5.0367-27.0773,0-44.3861,23.9244-17.3235,23.9343-17.3137,43.1269,0,19.2123,17.3137,37.4606,17.3088,18.2679,43.1269,24.554a160.9828,160.9828,0,0,1,42.8121,15.74Q335.9913,371.2536,338.51,371.2486Zm342.4967,269.465q0,32.7435-20.4617,51.3115-20.4666,18.5631-61.385,18.5729-17.6334,0-25.1836,2.8331-7.5551,2.8332-7.555,12.277t5.6663,24.554q5.6663,15.11,24.2392,20.7765,18.563,5.6663,55.0891,5.6663,36.5062,0,56.979-5.0367,20.4519-5.0466,33.3683-18.8877,12.8967-13.856,19.5172-39.6642,6.6108-25.823,11.0179-100.4195,4.3972-74.6063,4.4071-152.99,0-78.3849-2.5184-103.5681-2.5233-25.1738-10.703-43.1269-8.19-17.9433-24.554-26.7575-16.3791-8.8093-45.9612-8.8143H552.57q-4.4121,0-5.9811-1.574c-1.0526-1.0427-1.2592-3.1479-.63-6.2959a46.4983,46.4983,0,0,0,.9444-9.129q0-37.1409-63.5879-37.1458-24.554,0-38.405,7.5551-13.8569,7.555-23.2954,31.48-19.5222,49.1079-59.1814,112.0669-10.7129,16.3791-10.703,34.6274,0,18.2679,10.3882,29.2765,10.3883,11.0228,16.9989,11.0179,6.6107,0,12.277-12.5918,10.6982-23.286,21.406-44.7015,10.6981-21.3961,27.073-28.9611,16.3644-7.555,38.405-7.5551,29.5848,0,50.9961,19.5173a16.7234,16.7234,0,0,0,10.0734,3.7775h76.81q34.6176,0,48.4784,12.277,13.8413,12.2771,13.851,39.35,0,27.0772-8.8143,43.4416a9.7839,9.7839,0,0,0-1.2591,3.4628c0,.63,1.0427,1.574,3.1479,2.8331q20.142,8.8242,20.1469,41.2381,0,32.4338-11.3326,41.2382-3.7776,1.8886-1.574,8.4994,2.1987,6.6107,2.2036,21.7209Zm-18.8877-47.2193q0-21.3961-11.0178-30.22-11.0228-8.8092-33.6831-8.8142-22.6652,0-31.7942,9.7586-9.1341,9.7686-9.1291,25.4984,0,15.7446-2.5184,17.9433c-1.6821,1.4756-4.7219,2.2036-9.129,2.2036s-6.8271-.63-7.24-1.8888q-.6345-1.8888-.63-10.0734,0-32.1092,13.2214-47.2192t42.1825-15.11q28.9514,0,39.9789,5.0367,11.0081,5.0466,12.9066,5.0367,7.5551,0,7.5551-18.2581,0-18.253-7.5551-26.1279-7.5551-7.8649-28.3315-7.87H594.7526c-2.5184,0-4.2005-.4132-5.0367-1.2592-.846-.8361-1.2592-3.1479-1.2592-6.9254s.3148-6.1877.9444-7.24c.63-1.0428,2.2036-1.574,4.7219-1.574h32.1091q33.3633,0,33.3682-40.2937,0-22.6662-10.3882-30.5357-10.3882-7.865-38.09-7.87H529.2753q-6.3008,0-8.1847-2.5184-4.4119-8.8092-16.6841-14.7953-12.276-5.9762-23.2942-5.9811a121.9639,121.9639,0,0,0-18.8877,1.2592,51.1344,51.1344,0,0,0-14.7953,4.7219,30.0059,30.0059,0,0,0-10.3882,7.87q-3.4686,4.4119-16.6848,32.4238Q407.135,448.694,404.3018,457.503a53.7607,53.7607,0,0,0-2.8332,16.3693q0,17.6336,17.6285,25.8132a84.3325,84.3325,0,0,0,35.8873,8.1847q27.0624,0,40.9233-21.4061,4.3963-6.9205,13.2207-6.9255,9.4439,0,9.4439,3.7776,0,8.19-16.0546,25.8132-16.0536,17.6334-46.2742,17.6285a89.4209,89.4209,0,0,1-35.2576-6.9255,24.7009,24.7009,0,0,0-8.1847-1.8888q-10.0783,0-10.0734,14.4806,0,14.49,6.9255,14.4805,6.9205,0,19.2025-3.7775a95.264,95.264,0,0,1,28.0173-3.7776q31.4746,0,43.4411,14.1658,11.9523,14.1658,11.9622,47.534c0,4.2006-.5312,6.7189-1.574,7.5551-1.0526.846-3.6792,1.2592-7.87,1.2592-4.2,0-6.8265-.4132-7.8692-1.2592q-1.5789-1.2543-1.574-7.5551,0-22.6651-7.87-32.7386-7.88-10.0636-30.535-10.0735-42.1884,0-42.1832,32.1091v43.4417q0,36.5211,13.5362,47.2192,13.5313,10.7128,44.3867,10.703H603.5669q27.6969,0,43.1268-13.5362,15.42-13.5312,15.425-37.46Z" style="fill:#238d7c"/></svg>