<svg id="图层_1" data-name="图层 1" xmlns="http://www.w3.org/2000/svg" viewBox="0 0 1000 1000"><title>Torlock</title><circle cx="500" cy="500" r="500" style="fill:none"/><path d="M202.148,193.5714c0,74.02-1.5918,83.5715-13.5306,83.5715-30.2449,0-95.51,39-127.347,74.8163-39,44.5714-58.102,94.7143-58.102,154.4081,0,91.5307,43.7755,163.9592,123.3674,204.5511,39.7959,20.6938,55.7142,23.8775,106.653,23.8775,129.7347-.7959,220.4694-84.3673,230.02-211.7143,7.9592-116.204-62.0816-214.102-173.51-242.7551l-35.8163-8.7551-2.3878-81.1836L249.1072,110H202.148Zm82.7755,134.51C386.0051,358.3265,437.74,459.4082,408.2909,567.6531c-11.9388,42.1836-72.4286,102.6734-114.6123,114.6122-72.4286,19.898-136.102,5.5714-186.2449-41.3877-101.0816-96.3062-61.2857-270.6123,72.4286-312C224.4337,314.551,239.5562,314.551,284.9235,328.0816Z" style="fill:#017b9f"/><path d="M671.74,293.8571C592.148,329.6735,544.3929,399.7143,538.0255,488.0612c-3.9795,69.2449,7.1633,112.2245,40.5919,156.7959,28.653,37.4082,98.6939,83.5715,132.1224,87.5511,20.6939,2.3877,20.6939,2.3877,23.0817,79.5918l2.3877,78h46.9592V740.3673l39.7959-9.551c78-19.102,147.2449-85.1632,167.9388-162.3673,11.9388-42.98,4.7755-129.7347-11.9388-162.3674-23.0816-43.7755-70.0408-90.7347-112.2245-109.8367C813.4133,270.7755,724.27,269.98,671.74,293.8571ZM858.7807,347.98c105.0612,58.102,122.5714,201.3673,36.6122,287.3265-148.8367,148.0408-381.2449-21.49-292.102-211.7143C648.6582,326.49,760.0868,293.0612,858.7807,347.98Z" style="fill:#ff4900"/></svg>