<?xml version="1.0" encoding="utf-8"?>
<!-- Generator: Adobe Illustrator 23.0.1, SVG Export Plug-In . SVG Version: 6.00 Build 0)  -->
<svg version="1.1" id="图层_1" xmlns="http://www.w3.org/2000/svg" xmlns:xlink="http://www.w3.org/1999/xlink" x="0px" y="0px"
	 viewBox="0 0 1000 1000" style="enable-background:new 0 0 1000 1000;" xml:space="preserve">
<style type="text/css">
	.st0{fill:none;}
	.st1{fill:url(#SVGID_1_);}
	.st2{fill:#009FA8;}
	.st3{fill:#8EC31F;}
	.st4{fill:#F39800;}
	.st5{fill:#EA5520;}
	.st6{fill:#E60012;}
	.st7{fill:#6B1686;}
	.st8{fill:#00479D;}
	.st9{fill:#0081CC;}
	.st10{opacity:9.000000e-02;fill:#009FA8;enable-background:new    ;}
	.st11{opacity:9.000000e-02;fill:#8EC31F;enable-background:new    ;}
	.st12{opacity:9.000000e-02;fill:#F39800;enable-background:new    ;}
	.st13{opacity:9.000000e-02;fill:#EA5520;enable-background:new    ;}
	.st14{opacity:9.000000e-02;fill:#E60012;enable-background:new    ;}
	.st15{opacity:9.000000e-02;fill:#6B1686;enable-background:new    ;}
	.st16{opacity:9.000000e-02;fill:#00479D;enable-background:new    ;}
	.st17{opacity:9.000000e-02;fill:#0081CC;enable-background:new    ;}
	.st18{fill:#FFFFFF;}
</style>
<circle class="st0" cx="500" cy="500" r="500"/>
<g>
	<linearGradient id="SVGID_1_" gradientUnits="userSpaceOnUse" x1="40" y1="620.95" x2="960" y2="620.95">
		<stop  offset="0" style="stop-color:#00A29C"/>
		<stop  offset="6.660000e-02" style="stop-color:#27B169"/>
		<stop  offset="0.1333" style="stop-color:#94C31B"/>
		<stop  offset="0.2" style="stop-color:#D2B300"/>
		<stop  offset="0.2666" style="stop-color:#F29103"/>
		<stop  offset="0.3333" style="stop-color:#ED6C15"/>
		<stop  offset="0.4" style="stop-color:#E9471A"/>
		<stop  offset="0.4666" style="stop-color:#E71414"/>
		<stop  offset="0.5333" style="stop-color:#C4123F"/>
		<stop  offset="0.6" style="stop-color:#8C1871"/>
		<stop  offset="0.6666" style="stop-color:#5B268B"/>
		<stop  offset="0.7333" style="stop-color:#2D3B95"/>
		<stop  offset="0.8" style="stop-color:#004FA2"/>
		<stop  offset="0.8666" style="stop-color:#006FBD"/>
		<stop  offset="0.9333" style="stop-color:#0081CC"/>
		<stop  offset="1" style="stop-color:#0081CC"/>
	</linearGradient>
	<rect x="40" y="615.9" class="st1" width="920" height="10.1"/>
	<rect x="40" y="478.8" class="st2" width="38.6" height="137.1"/>
	<rect x="96.1" y="389.6" class="st3" width="38.6" height="226.3"/>
	<rect x="153.2" y="321.5" class="st4" width="38.6" height="294.4"/>
	<rect x="210.2" y="239.6" class="st5" width="38.6" height="376.3"/>
	<rect x="266.3" y="359.2" class="st6" width="38.6" height="256.7"/>
	<rect x="323.4" y="290.2" class="st7" width="38.6" height="325.7"/>
	<rect x="379.5" y="174.3" class="st8" width="38.6" height="441.6"/>
	<rect x="435.6" y="230.4" class="st9" width="38.6" height="385.5"/>
	<rect x="492.6" y="269.1" class="st2" width="38.6" height="346.8"/>
	<rect x="549.7" y="362" class="st3" width="38.6" height="253.9"/>
	<rect x="605.8" y="380.4" class="st4" width="38.6" height="235.5"/>
	<rect x="662.8" y="353.7" class="st5" width="38.6" height="262.2"/>
	<rect x="719.9" y="303.1" class="st6" width="38.6" height="312.8"/>
	<rect x="776" y="407.1" class="st7" width="38.6" height="208.8"/>
	<rect x="833" y="441.1" class="st8" width="38.6" height="174.8"/>
	<rect x="889.2" y="534" class="st9" width="38.6" height="81.9"/>
	<rect x="40" y="626" class="st10" width="38.6" height="62"/>
	<rect x="96.1" y="626" class="st11" width="38.6" height="102.3"/>
	<rect x="153.2" y="626" class="st12" width="38.6" height="133.1"/>
	<rect x="210.2" y="626" class="st13" width="38.6" height="170.1"/>
	<rect x="266.3" y="626" class="st14" width="38.6" height="116"/>
	<rect x="323.4" y="626" class="st15" width="38.6" height="147.2"/>
	<rect x="379.5" y="626" class="st16" width="38.6" height="199.6"/>
	<rect x="435.6" y="626" class="st17" width="38.6" height="174.3"/>
	<rect x="492.6" y="626" class="st10" width="38.6" height="156.8"/>
	<rect x="549.7" y="626" class="st11" width="38.6" height="114.8"/>
	<rect x="605.8" y="626" class="st12" width="38.6" height="106.5"/>
	<rect x="662.8" y="626" class="st13" width="38.6" height="118.5"/>
	<rect x="719.9" y="626" class="st14" width="38.6" height="141.4"/>
	<rect x="776" y="626" class="st15" width="38.6" height="94.4"/>
	<rect x="833" y="626" class="st16" width="38.6" height="79"/>
	<rect x="889.2" y="626" class="st17" width="38.6" height="37"/>
	<path class="st18" d="M55.2,489.9c5.3,0,9.6,4.3,9.7,9.6c0,1.1-0.2,2.2-0.6,3.3l45.9,25.8c3.3-4.2,9.4-4.9,13.5-1.6l0.1,0.1
		l47.4-34.3c-1.8-5,0.8-10.5,5.8-12.4c5-1.8,10.5,0.8,12.4,5.8c0.7,2,0.8,4.1,0.2,6.1l32.9,25.1c3.8-3.7,10-3.6,13.6,0.3
		c1.5,1.6,2.5,3.7,2.6,5.9l38,3.4c1.1-5.2,6.2-8.6,11.4-7.5c0.2,0,0.4,0.1,0.6,0.1l47.4-84.4c-4.1-3.4-4.7-9.5-1.3-13.6
		c3.4-4.1,9.5-4.7,13.6-1.3c3.4,2.8,4.5,7.4,2.7,11.4l40.3,22.7c2.2-3.2,6.2-4.7,10-3.9l47.7-99.2c-4.1-3.5-4.6-9.6-1.1-13.6
		c3.5-4.1,9.6-4.6,13.6-1.1c4.1,3.5,4.6,9.6,1.1,13.6c-0.1,0.1-0.2,0.2-0.3,0.3l46.5,86.5c5-1.9,10.5,0.6,12.4,5.6
		c1,2.5,0.8,5.3-0.4,7.8l42.4,27.7c3.8-3,9.2-2.7,12.7,0.6l41-36.1c-2.7-4.6-1.1-10.5,3.6-13.2c4.6-2.7,10.5-1.1,13.2,3.6
		c2.1,3.7,1.6,8.3-1.3,11.4l47.7,66.8c5.2-1.3,10.4,1.8,11.7,7c0.4,1.6,0.4,3.2,0,4.7l38.4,16.8c2.6-4.6,8.5-6.3,13.1-3.6
		c0.9,0.5,1.7,1.1,2.4,1.9l41.5-34.8c-2.6-4.7-0.9-10.6,3.8-13.1c4.7-2.6,10.6-0.9,13.1,3.8c2.1,3.9,1.3,8.8-1.9,11.8l46.6,66.8
		c4.4-1.9,9.5-0.4,12.1,3.7l38.3-14c0.4-5.3,5-9.3,10.3-8.9c5.3,0.4,9.3,5,8.9,10.3c-0.4,5.3-5,9.3-10.3,8.9
		c-3.9-0.3-7.2-2.9-8.4-6.6l-37.5,13.7c0.9,5.3-2.6,10.3-7.8,11.2c-5.3,0.9-10.3-2.6-11.2-7.8c-0.5-3.1,0.4-6.2,2.6-8.4l-46.8-67
		c-3.2,1.2-6.8,0.6-9.5-1.6l-41.9,35.2c1.9,5-0.6,10.6-5.6,12.5s-10.6-0.6-12.5-5.6c-0.6-1.5-0.8-3.2-0.5-4.8l-38.8-17
		c-3.1,4.3-9.2,5.3-13.5,2.1c-4.3-3.1-5.3-9.2-2.1-13.5c0.6-0.8,1.3-1.5,2.1-2.1l-47.3-66.3c-3.3,1.5-7.2,1.1-10-1.2l-41.3,36.4
		c2.2,4.9,0,10.6-4.9,12.7c-4.9,2.2-10.6,0-12.7-4.9c-1.2-2.8-1.1-6,0.4-8.7l-42.3-27.6c-4,3.5-10.1,3.2-13.6-0.8
		c-3.5-3.9-3.2-9.9,0.7-13.5l-46.4-86.3c-2.2,1-4.8,1.2-7.1,0.4l-47.5,99c4.4,3,5.5,9.1,2.5,13.5s-9.1,5.5-13.5,2.5
		c-3.3-2.3-4.8-6.3-3.9-10.2L349,434.7c-2.5,2.5-6.2,3.3-9.6,2.3L292,521.3c4.2,3.2,5.1,9.3,1.8,13.5s-9.3,5.1-13.5,1.8
		c-1.9-1.5-3.2-3.6-3.7-6l-38.3-3.4c-1.6,5.1-7,8-12.1,6.4s-8-7-6.4-12.1c0.1-0.4,0.3-0.8,0.4-1.1l-32.5-24.9
		c-3.4,4.1-9.5,4.7-13.6,1.3c-0.4-0.3-0.7-0.6-1.1-1l-46.9,34c2.6,4.7,0.9,10.6-3.8,13.1c-4.7,2.6-10.6,0.9-13.1-3.8
		c-1.2-2.3-1.5-4.9-0.8-7.4l-46.1-25.9c-3.5,4-9.6,4.4-13.6,0.9s-4.4-9.6-0.9-13.6C49.8,491.1,52.4,489.9,55.2,489.9z"/>
</g>
</svg>
