<svg id="图层_1" data-name="图层 1" xmlns="http://www.w3.org/2000/svg" viewBox="0 0 1000 1000"><title>Unlock-Music-ix</title><circle cx="500" cy="500" r="500" style="fill:#2674fd"/><path d="M790,500c0-160.1626-129.8374-290-290-290S210,339.8374,210,500H80c0,231.96,188.04,420,420,420S920,731.96,920,500Z" style="fill:#fff"/><circle cx="500" cy="500" r="207.5" style="fill:#ffe41f"/><path d="M521,390,488.5073,499.8386a67.1383,67.1383,0,1,0,14.8985,61.5207Q520.2028,501.68,537,442l63,1a69.689,69.689,0,0,0,23-24,68.8969,68.8969,0,0,0,8-22Z" style="fill:#fff"/></svg>