<svg id="图层_1" data-name="图层 1" xmlns="http://www.w3.org/2000/svg" viewBox="0 0 1000 1000"><title>Unscreen</title><path d="M209.3008,693.22a47.6544,47.6544,0,0,1-47.6544-47.6543h0V341.4366H122.6543A47.6544,47.6544,0,0,0,75,389.091V732.2124a47.6544,47.6544,0,0,0,47.6543,47.6544H756.04a47.6543,47.6543,0,0,0,47.6543-47.6544V693.22Z" style="fill:#bac0c4"/><path d="M877.3458,220.1332H243.96a47.6544,47.6544,0,0,0-47.6543,47.6544h0V610.909a48.5225,48.5225,0,0,0,48.5225,48.5225H877.3457A47.6544,47.6544,0,0,0,925,611.7771V267.7876a47.6544,47.6544,0,0,0-47.6542-47.6544" style="fill:#54616c"/><polygon points="503.034 519.93 503.034 358.766 670.261 439.347 503.034 519.93" style="fill:#fff"/><circle cx="500" cy="500" r="500" style="fill:none"/></svg>