<?xml version="1.0" encoding="utf-8"?>
<svg width="260px" height="255px" viewBox="0 0 260 255" version="1.1" xmlns:xlink="http://www.w3.org/1999/xlink" xmlns="http://www.w3.org/2000/svg">
  <defs>
    <linearGradient x1="0.5" y1="0" x2="0.5" y2="1" id="gradient_1">
      <stop offset="0%" stop-color="#212121" />
      <stop offset="100%" stop-color="#4F4F4F" />
    </linearGradient>
  </defs>
  <g id="V2EX">
    <path d="M0 127.5C0 57.0837 58.203 0 130 0C201.797 0 260 57.0837 260 127.5C260 197.916 201.797 255 130 255C58.203 255 0 197.916 0 127.5Z" id="Ellipse" fill="none" fill-rule="evenodd" stroke="none" />
    <path d="M53.999 31L206.001 31Q206.492 31 206.982 31.0241Q207.473 31.0482 207.961 31.0963Q208.45 31.1444 208.935 31.2165Q209.421 31.2885 209.903 31.3843Q210.384 31.4801 210.86 31.5993Q211.337 31.7186 211.806 31.8611Q212.276 32.0037 212.738 32.1691Q213.201 32.3345 213.654 32.5223Q214.108 32.7102 214.552 32.9201Q214.995 33.13 215.428 33.3615Q215.861 33.5929 216.283 33.8453Q216.704 34.0977 217.112 34.3704Q217.52 34.6432 217.914 34.9356Q218.309 35.2281 218.688 35.5396Q219.068 35.851 219.432 36.1807Q219.795 36.5104 220.142 36.8576Q220.49 37.2047 220.819 37.5685Q221.149 37.9323 221.46 38.3118Q221.772 38.6913 222.064 39.0856Q222.357 39.4799 222.63 39.8881Q222.902 40.2964 223.155 40.7175Q223.407 41.1386 223.639 41.5715Q223.87 42.0045 224.08 42.4483Q224.29 42.8921 224.478 43.3457Q224.666 43.7993 224.831 44.2615Q224.996 44.7238 225.139 45.1936Q225.281 45.6634 225.401 46.1396Q225.52 46.6159 225.616 47.0974Q225.711 47.5789 225.784 48.0645Q225.856 48.5502 225.904 49.0388Q225.952 49.5273 225.976 50.0177Q226 50.5081 226 50.999L226 203.001Q226 203.492 225.976 203.982Q225.952 204.473 225.904 204.961Q225.856 205.45 225.784 205.935Q225.711 206.421 225.616 206.903Q225.52 207.384 225.401 207.86Q225.281 208.337 225.139 208.806Q224.996 209.276 224.831 209.738Q224.666 210.201 224.478 210.654Q224.29 211.108 224.08 211.552Q223.87 211.995 223.639 212.428Q223.407 212.861 223.155 213.283Q222.902 213.704 222.63 214.112Q222.357 214.52 222.064 214.914Q221.772 215.309 221.46 215.688Q221.149 216.068 220.819 216.431Q220.49 216.795 220.142 217.142Q219.795 217.49 219.432 217.819Q219.068 218.149 218.688 218.46Q218.309 218.772 217.914 219.064Q217.52 219.357 217.112 219.63Q216.704 219.902 216.283 220.155Q215.861 220.407 215.428 220.639Q214.995 220.87 214.552 221.08Q214.108 221.29 213.654 221.478Q213.201 221.666 212.738 221.831Q212.276 221.996 211.806 222.139Q211.337 222.281 210.86 222.401Q210.384 222.52 209.903 222.616Q209.421 222.711 208.935 222.784Q208.45 222.856 207.961 222.904Q207.473 222.952 206.982 222.976Q206.492 223 206.001 223L53.999 223Q53.5081 223 53.0177 222.976Q52.5273 222.952 52.0388 222.904Q51.5502 222.856 51.0645 222.784Q50.5789 222.711 50.0974 222.616Q49.6159 222.52 49.1396 222.401Q48.6634 222.281 48.1936 222.139Q47.7238 221.996 47.2615 221.831Q46.7993 221.666 46.3457 221.478Q45.8921 221.29 45.4483 221.08Q45.0045 220.87 44.5715 220.639Q44.1386 220.407 43.7175 220.155Q43.2964 219.902 42.8881 219.63Q42.4799 219.357 42.0856 219.064Q41.6913 218.772 41.3118 218.46Q40.9323 218.149 40.5685 217.819Q40.2047 217.49 39.8576 217.142Q39.5104 216.795 39.1807 216.431Q38.851 216.068 38.5396 215.688Q38.2281 215.309 37.9356 214.914Q37.6432 214.52 37.3704 214.112Q37.0977 213.704 36.8453 213.283Q36.5929 212.861 36.3615 212.428Q36.13 211.995 35.9201 211.552Q35.7102 211.108 35.5223 210.654Q35.3344 210.201 35.1691 209.738Q35.0037 209.276 34.8611 208.806Q34.7186 208.337 34.5993 207.86Q34.48 207.384 34.3843 206.903Q34.2885 206.421 34.2165 205.935Q34.1444 205.45 34.0963 204.961Q34.0482 204.473 34.0241 203.982Q34 203.492 34 203.001L34 50.999Q34 50.5081 34.0241 50.0177Q34.0482 49.5273 34.0963 49.0388Q34.1444 48.5502 34.2165 48.0645Q34.2885 47.5789 34.3843 47.0974Q34.48 46.6159 34.5993 46.1396Q34.7186 45.6634 34.8611 45.1936Q35.0037 44.7238 35.1691 44.2615Q35.3344 43.7993 35.5223 43.3457Q35.7102 42.8921 35.9201 42.4483Q36.13 42.0045 36.3615 41.5715Q36.5929 41.1386 36.8453 40.7175Q37.0977 40.2964 37.3704 39.8881Q37.6432 39.4799 37.9356 39.0856Q38.2281 38.6913 38.5396 38.3118Q38.851 37.9323 39.1807 37.5685Q39.5104 37.2047 39.8576 36.8576Q40.2047 36.5104 40.5685 36.1807Q40.9323 35.851 41.3118 35.5396Q41.6913 35.2281 42.0856 34.9356Q42.4799 34.6432 42.8881 34.3704Q43.2964 34.0977 43.7175 33.8453Q44.1386 33.5929 44.5715 33.3615Q45.0045 33.13 45.4483 32.9201Q45.8921 32.7102 46.3457 32.5223Q46.7993 32.3345 47.2615 32.1691Q47.7238 32.0037 48.1936 31.8612Q48.6634 31.7186 49.1396 31.5993Q49.6159 31.4801 50.0974 31.3843Q50.5789 31.2885 51.0645 31.2165Q51.5502 31.1444 52.0388 31.0963Q52.5273 31.0482 53.0177 31.0241Q53.5081 31 53.999 31Z" id="Rectangle" fill="#E9E9E9" fill-rule="evenodd" stroke="none" />
    <path d="M81 79C81 79 79.9989 79.0027 79 80.0001C78.0011 80.9974 78 82.0001 78 82.0001L78 115.001L141 115.001L152 126C152 126 152.5 126.457 152.5 127.001C152.5 127.545 152 128 152 128L141 139.001L78 139.001L78 172.002C78 172.002 77.9977 173 79 174.002C80.0023 175.004 81 175.001 81 175.001L148 175.001C148 175.001 150.001 175.002 151 174C150.995 174.003 153 172.002 153 172.002L193 129.001C193 129.001 194 128 194 127.001C194 126.002 193 125.001 193 125.001L153 82.0001C153 82.0001 151.999 80.9992 151 80.0001C150.001 79.0009 148 79 148 79L81 79Z" id="New-shape" fill="url(#gradient_1)" fill-rule="evenodd" stroke="none" />
  </g>
</svg>