<svg id="图层_1" data-name="图层 1" xmlns="http://www.w3.org/2000/svg" viewBox="0 0 1000 1000"><title>Wangyi-JianWai</title><rect width="1000" height="1000" style="fill:none"/><rect x="89.7441" y="536.2018" width="163.1188" height="8.5537" rx="3.7516" transform="translate(293.19 -13.2412) rotate(30)" style="fill:#1a4be8"/><rect x="124.522" y="523.4873" width="222.4845" height="18.6567" rx="8.1828" transform="translate(445.8113 -10.6524) rotate(45)" style="fill:#004be3"/><rect x="181.7755" y="506.5502" width="262.6961" height="23.8144" rx="10.4449" transform="translate(614.7721 -6.7594) rotate(61.0001)" style="fill:#0060e3"/><rect x="476.6301" y="342.1105" width="46.7399" height="315.7791" rx="20.5" style="fill:#0089e5"/><rect x="385.5402" y="360.7744" width="34.1999" height="289.5154" rx="15" transform="matrix(0.9677, -0.2521, 0.2521, 0.9677, -114.4275, 117.8172)" style="fill:#0074e4"/><rect x="747.1372" y="536.2018" width="163.1188" height="8.5537" rx="3.7516" transform="translate(1816.6082 594.1978) rotate(150)" style="fill:#00fdff"/><rect x="652.9935" y="523.4873" width="222.4845" height="18.6567" rx="8.1828" transform="translate(1681.3897 369.177) rotate(135)" style="fill:#00d8f9"/><rect x="555.5284" y="506.5502" width="262.6961" height="23.8144" rx="10.4449" transform="translate(1473.3332 169.0537) rotate(118.9999)" style="fill:#00bef2"/><rect x="580.2599" y="360.7744" width="34.1999" height="289.5154" rx="15" transform="matrix(-0.9677, -0.2521, 0.2521, -0.9677, 1048.0014, 1145.3163)" style="fill:#00a3ec"/></svg>