<svg id="图层_1" data-name="图层 1" xmlns="http://www.w3.org/2000/svg" viewBox="0 0 1415 1415"><title>WaterEffect</title><rect x="207.5" y="207.5" width="1000" height="1000"/><path d="M864.0318,289.3164c-36.0086,0-54.35-16.7865-70.5328-31.5972-14.6113-13.3751-26.1542-23.94-50.8193-23.94s-36.208,10.5649-50.8216,23.94c-16.1806,14.8107-34.5218,31.5972-70.5328,31.5972s-54.35-16.7865-70.5329-31.5972c-14.6112-13.3751-26.1517-23.94-50.8168-23.94-24.6626,0-36.2031,10.5649-50.8143,23.94-16.1806,14.8107-34.5219,31.5972-70.5329,31.5972-36.0061,0-54.3424-16.7865-70.523-31.5972-14.6088-13.3751-26.1493-23.94-50.8095-23.94-24.6627,0-36.2032,10.5649-50.8144,23.94-16.1806,14.8107-34.5219,31.5972-70.53,31.5972-36.0109,0-54.3522-16.7865-70.5352-31.5972-14.6113-13.3751-26.1518-23.94-50.8169-23.94a14.599,14.599,0,0,1,0-29.198c36.0086,0,54.35,16.7864,70.5328,31.5972,14.6112,13.3751,26.1542,23.94,50.8193,23.94,24.6626,0,36.2032-10.5648,50.8144-23.9375,16.1806-14.8132,34.5218-31.6,70.53-31.6,36.0061,0,54.3449,16.7889,70.5256,31.6,14.6087,13.3751,26.1468,23.9375,50.807,23.9375,24.6651,0,36.2057-10.5648,50.8168-23.9375,16.1806-14.8132,34.5219-31.6,70.53-31.6,36.011,0,54.35,16.7864,70.5328,31.6,14.6112,13.3727,26.1542,23.9375,50.8168,23.9375,24.6675,0,36.2081-10.5648,50.8193-23.9375,16.183-14.8132,34.5242-31.6,70.5352-31.6s54.3523,16.7864,70.5353,31.6c14.6112,13.3727,26.1517,23.9375,50.8169,23.9375,24.67,0,36.2129-10.5648,50.829-23.94,16.183-14.8108,34.5267-31.5972,70.54-31.5972a14.599,14.599,0,1,1,0,29.198c-24.67,0-36.2129,10.5649-50.829,23.94C918.3888,272.53,900.0476,289.3164,864.0318,289.3164Z" transform="translate(207.5 207.5)" style="fill:#fff"/><path d="M864.0318,415.8414c-36.0086,0-54.35-16.7865-70.5328-31.5972-14.6113-13.3751-26.1542-23.94-50.8193-23.94s-36.208,10.5648-50.8216,23.94c-16.1806,14.8108-34.5218,31.5972-70.5328,31.5972s-54.35-16.7865-70.5329-31.5972c-14.6112-13.3751-26.1517-23.94-50.8168-23.94-24.6626,0-36.2031,10.5648-50.8143,23.94-16.1806,14.8108-34.5219,31.5972-70.5329,31.5972-36.0061,0-54.3424-16.7865-70.523-31.5972-14.6088-13.3751-26.1493-23.94-50.8095-23.94-24.6627,0-36.2032,10.5648-50.8144,23.94-16.1806,14.8108-34.5219,31.5972-70.53,31.5972-36.0109,0-54.3522-16.7865-70.5352-31.5972-14.6113-13.3752-26.1518-23.94-50.8169-23.94a14.5991,14.5991,0,0,1,0-29.1981c36.0086,0,54.35,16.7865,70.5328,31.5972,14.6112,13.3752,26.1542,23.94,50.8193,23.94,24.6626,0,36.2032-10.5648,50.8144-23.9375,16.1806-14.8132,34.5218-31.6,70.53-31.6,36.0061,0,54.3449,16.7889,70.5256,31.6,14.6087,13.3751,26.1468,23.9375,50.807,23.9375,24.6651,0,36.2057-10.5648,50.8168-23.9375,16.1806-14.8132,34.5219-31.6,70.53-31.6,36.011,0,54.35,16.7864,70.5328,31.6,14.6112,13.3727,26.1542,23.9375,50.8168,23.9375,24.6675,0,36.2081-10.5648,50.8193-23.9375,16.183-14.8132,34.5242-31.6,70.5352-31.6s54.3523,16.7864,70.5353,31.6c14.6112,13.3727,26.1517,23.9375,50.8169,23.9375,24.67,0,36.2129-10.5648,50.829-23.94,16.183-14.8107,34.5267-31.5971,70.54-31.5971a14.5991,14.5991,0,0,1,0,29.1981c-24.67,0-36.2129,10.5648-50.829,23.94C918.3888,399.0549,900.0476,415.8414,864.0318,415.8414Z" transform="translate(207.5 207.5)" style="fill:#fff"/><path d="M864.0318,542.3688c-36.0086,0-54.35-16.7865-70.5328-31.5972-14.6113-13.3751-26.1542-23.94-50.8193-23.94s-36.208,10.5649-50.8216,23.9376c-16.1806,14.8131-34.5218,31.6-70.5328,31.6s-54.35-16.7865-70.5329-31.6c-14.6112-13.3727-26.1517-23.9376-50.8168-23.9376-24.6626,0-36.2031,10.5649-50.8143,23.9376-16.1806,14.8131-34.5219,31.6-70.5329,31.6-36.0061,0-54.3424-16.7865-70.523-31.6-14.6088-13.3727-26.1493-23.9376-50.8095-23.9376-24.6627,0-36.2032,10.5649-50.8144,23.9376-16.1806,14.8131-34.5219,31.6-70.53,31.6-36.0109,0-54.3522-16.7865-70.5352-31.6-14.6112-13.3727-26.1542-23.9376-50.8168-23.9376a14.599,14.599,0,1,1,0-29.198c36.0085,0,54.35,16.7864,70.5328,31.5972,14.6112,13.3751,26.1541,23.94,50.8192,23.94,24.6626,0,36.2032-10.5649,50.8144-23.94,16.1806-14.8108,34.5218-31.5972,70.53-31.5972,36.0061,0,54.3449,16.7865,70.5255,31.6,14.6087,13.3727,26.1468,23.9376,50.807,23.9376,24.6651,0,36.2057-10.5649,50.8168-23.94,16.1806-14.8108,34.5219-31.5972,70.53-31.5972,36.011,0,54.35,16.7865,70.5328,31.5972,14.6112,13.3751,26.1542,23.94,50.8168,23.94,24.6675,0,36.2081-10.5649,50.8193-23.94,16.183-14.8108,34.5242-31.5972,70.5352-31.5972S797.032,474.42,813.215,489.2308c14.6112,13.3751,26.1517,23.94,50.8169,23.94,24.67,0,36.2129-10.5649,50.829-23.94,16.183-14.8108,34.5267-31.5972,70.54-31.5972a14.5991,14.5991,0,0,1,0,29.1981c-24.67,0-36.2129,10.5648-50.829,23.94C918.3888,525.5823,900.0476,542.3688,864.0318,542.3688Z" transform="translate(207.5 207.5)" style="fill:#fff"/><path d="M864.0318,668.8938c-36.0086,0-54.35-16.7864-70.5328-31.5972-14.6113-13.3752-26.1542-23.94-50.8193-23.94s-36.208,10.5648-50.8216,23.9376c-16.1806,14.8132-34.5218,31.6-70.5328,31.6s-54.35-16.7864-70.5329-31.6c-14.6112-13.3728-26.1517-23.9376-50.8168-23.9376-24.6626,0-36.2031,10.5648-50.8143,23.9376-16.1806,14.8132-34.5219,31.6-70.5329,31.6-36.0061,0-54.3424-16.7864-70.523-31.6-14.6088-13.3728-26.1493-23.9376-50.8095-23.9376-24.6627,0-36.2032,10.5648-50.8144,23.9376-16.1806,14.8132-34.5219,31.6-70.53,31.6-36.0109,0-54.3522-16.7864-70.5352-31.6-14.6112-13.3728-26.1542-23.9376-50.8168-23.9376a14.5991,14.5991,0,1,1,0-29.1981c36.0085,0,54.35,16.7865,70.5328,31.5972,14.6112,13.3752,26.1541,23.94,50.8192,23.94,24.6626,0,36.2032-10.5649,50.8144-23.94,16.1806-14.8107,34.5218-31.5972,70.53-31.5972,36.0061,0,54.3449,16.7865,70.5255,31.6,14.6087,13.3727,26.1468,23.9376,50.807,23.9376,24.6651,0,36.2057-10.5649,50.8168-23.94,16.1806-14.8107,34.5219-31.5972,70.53-31.5972,36.011,0,54.35,16.7865,70.5328,31.5972,14.6112,13.3751,26.1542,23.94,50.8168,23.94,24.6675,0,36.2081-10.5648,50.8193-23.94,16.183-14.8107,34.5242-31.5972,70.5352-31.5972s54.3523,16.7865,70.5353,31.5972c14.6112,13.3752,26.1517,23.94,50.8169,23.94,24.67,0,36.2129-10.5649,50.829-23.94,16.183-14.8108,34.5267-31.5972,70.54-31.5972a14.599,14.599,0,1,1,0,29.198c-24.67,0-36.2129,10.5649-50.829,23.94C918.3888,652.1073,900.0476,668.8938,864.0318,668.8938Z" transform="translate(207.5 207.5)" style="fill:#fff"/><path d="M864.0318,795.4188c-36.0086,0-54.35-16.7865-70.5328-31.5972-14.6113-13.3752-26.1542-23.94-50.8193-23.94s-36.208,10.5649-50.8216,23.9376c-16.1806,14.8132-34.5218,31.6-70.5328,31.6s-54.35-16.7864-70.5329-31.6c-14.6112-13.3727-26.1517-23.9376-50.8168-23.9376-24.6626,0-36.2031,10.5649-50.8143,23.9376-16.1806,14.8132-34.5219,31.6-70.5329,31.6-36.0061,0-54.3424-16.7864-70.523-31.6-14.6088-13.3727-26.1493-23.9376-50.8095-23.9376-24.6627,0-36.2032,10.5649-50.8144,23.9376-16.1806,14.8132-34.5219,31.6-70.53,31.6-36.0109,0-54.3522-16.7864-70.5352-31.6-14.6112-13.3727-26.1542-23.9376-50.8168-23.9376a14.599,14.599,0,1,1,0-29.198c36.0085,0,54.35,16.7864,70.5328,31.5971,14.6112,13.3752,26.1541,23.94,50.8192,23.94,24.6626,0,36.2032-10.5649,50.8144-23.94,16.1806-14.8107,34.5218-31.5971,70.53-31.5971,36.0061,0,54.3449,16.7864,70.5255,31.6,14.6087,13.3727,26.1468,23.9376,50.807,23.9376,24.6651,0,36.2057-10.5649,50.8168-23.94,16.1806-14.8107,34.5219-31.5972,70.53-31.5972,36.011,0,54.35,16.7865,70.5328,31.5972,14.6112,13.3752,26.1542,23.94,50.8168,23.94,24.6675,0,36.2081-10.5649,50.8193-23.94,16.183-14.8107,34.5242-31.5972,70.5352-31.5972S797.032,727.47,813.215,742.2808c14.6112,13.3752,26.1517,23.94,50.8169,23.94,24.67,0,36.2129-10.5649,50.829-23.94,16.183-14.8107,34.5267-31.5972,70.54-31.5972a14.5991,14.5991,0,0,1,0,29.1981c-24.67,0-36.2129,10.5649-50.829,23.94C918.3888,778.6323,900.0476,795.4188,864.0318,795.4188Z" transform="translate(207.5 207.5)" style="fill:#fff"/><circle cx="707.5" cy="707.5" r="707.5" style="fill:none"/></svg>