<svg id="图层_1" data-name="图层 1" xmlns="http://www.w3.org/2000/svg" viewBox="0 0 1000 1000"><title>WebGradients</title><rect width="1000" height="1000" style="fill:none"/><rect x="125" y="125" width="750" height="750" rx="280" style="fill:#4ec4ff"/><path d="M587,768c-1.9758-20.8506-15.5048-145.0557-112-241-35.19-34.9893-54.697-39.6557-149-94-79.6031-45.8732-143.223-87.22-186.6711-116.6249A279.6829,279.6829,0,0,0,125,405V595c0,154.64,125.36,280,280,280H582.3617A392.251,392.251,0,0,0,587,768Z" style="fill:#9adcff"/><path d="M566,465a671.6867,671.6867,0,0,0-66,86V875h95c154.64,0,280-125.36,280-280V405a278.8061,278.8061,0,0,0-30.1755-126.5521C765.1238,308.3439,658.2646,363.0573,566,465Z" style="fill:#4e95ff"/></svg>