<svg id="图层_1" data-name="图层 1" xmlns="http://www.w3.org/2000/svg" viewBox="0 0 1415 1415"><title>Wenshushu</title><rect x="207.5" y="207.5" width="1000" height="1000" style="fill:#5189ff"/><path d="M344.9083,274.2484l34.9147-35.7143q3.998,3.1983,11.4606,8.7953,44.7761,33.8487,78.6247,66.6312l-32.516,33.3155H593.3092a383.0334,383.0334,0,0,0,61.3006-5.597v53.0384a362.14,362.14,0,0,0-60.2345-5.33H546.9339q-36.2473,113.0064-89.5522,188.6994Q549.3326,652.4467,673,679.6322A147.5312,147.5312,0,0,0,629.823,734.27,739.9773,739.9773,0,0,1,425.1322,615.9328q-73.0277,65.8315-204.6908,125.5331A165.5916,165.5916,0,0,0,173,694.5576q138.5873-37.8465,216.6844-114.8721Q322.2537,499.9947,280.1429,389.387H251.0917a517.4462,517.4462,0,0,0-61.5672,4.7974V341.6791a341.4741,341.4741,0,0,0,59.435,5.597H428.064Q383.8209,299.3018,344.9083,274.2484ZM336.9126,389.387q30.6447,79.4242,85.5544,150.5863,42.3774-60.7677,69.2963-150.5863Z" transform="translate(284.5 217.5)" style="fill:#fff"/><circle cx="707.5" cy="707.5" r="707.5" style="fill:none"/></svg>