<svg id="图层_1" data-name="图层 1" xmlns="http://www.w3.org/2000/svg" viewBox="0 0 1000 1000"><title>Whois</title><rect width="1000" height="1000" style="fill:#fff"/><path d="M162.0411,99.8448c22.487,11.2082-26,120.2833-62.7171,300.7568C65.3083,567.7976,65.6421,677.0841,49.4354,677.1268c-15.9825.0428-28.0695-106.2029-29.9331-122.5833a718.9977,718.9977,0,0,1,1.4254-172.472c10.6-83.8849,22.6464-170.3032,86.9487-242.3159C122.4557,123.4281,149.22,93.4543,162.0411,99.8448Z" style="fill:#f5893a"/><path d="M217.6312,621.5367c21.7515-85.0529,45.2339-111.8671,89.8-210.9574C388.26,230.8587,428.6742,140.9982,439.9917,84.1655c3.53-17.7266,10.073-54.7267,38.4855-71.2694,26.1188-15.2074,53.8047-3.2793,108.33,9.9777,102.4284,24.9039,98.742,5.6682,162.4942,27.0824,37.02,12.4348,99.294,33.3523,146.815,91.2248,32.59,39.6888,71.8452,113.3255,45.6124,152.5165-14.8625,22.2043-36.5377,12.1236-69.844,32.7839-43.1238,26.75-44.434,67.0022-85.5233,176.7481-9.414,25.1439-30.5076,71.4025-72.6948,163.92,0,0-21.0193,46.0959-81.2471,129.71-14.2554,19.7909-32.9134,44.3116-59.8663,45.6124-1.7006.082-27.6191,1.0121-37.06-14.2538-13.9708-22.5907,20.0474-61.3956,79.8218-161.0689,44.8206-74.7379,49.83-93.1659,42.7616-109.7548-12.4536-29.2292-56.8372-39.6892-84.0979-39.9109-11.28-.0918-41.0746,1.3952-66.9932,21.3808-30.4556,23.484-30.786,53.4072-48.4632,109.7549-13.0546,41.6128-40.73,126.5726-108.3295,182.45-19.1068,15.7934-43.12,35.0861-69.844,29.9332-37.809-7.29-55.7975-58.6429-62.7171-78.3964C196.2836,721.6637,206.6211,664.588,217.6312,621.5367Z" style="fill:#f5893a"/><path d="M425.7379,929.4205c37.7561-6.0163,54.464,18.9933,96.9263,25.657,42.7409,6.7072,77.6016-10.5042,111.18-27.0824,158.3-78.1552,257.5889-289.8878,280.8014-340.6677,31.9429-69.8786,52.431-134.0334,64.1425-131.1357,9.3866,2.3224,6.2255,46.0091,2.8508,92.65-4.6895,64.81-8.2934,114.6179-27.0824,178.1735-23.85,80.6769-36.3112,122.8265-74.12,161.0689-34.2157,34.6084-103.1073,52.53-240.8906,88.374-63.9517,16.6369-88.3858,19.29-115.4564,17.1047-38.2218-3.0859-52.6773-13.4751-104.0533-14.2539-36.0633-.5468-54.1806,4.19-57.0155-2.8508C358.8848,966.1863,389.0607,935.2647,425.7379,929.4205Z" style="fill:#f5893a"/></svg>