<svg id="图层_1" data-name="图层 1" xmlns="http://www.w3.org/2000/svg" viewBox="0 0 1000 1000"><title>Windy</title><rect width="1000" height="1000" style="fill:#a51e25"/><path d="M811.0978,342.8515c-4.6134-2.1281-43.0813,85.2126-116.8809,198.77C630.206,640.1162,571.5688,727.761,536.0146,716.586c-44.8633-14.1009-44.8634-183.33-44.8634-291.6081v0c.01-.2911,5.0436-153.5959-4.7224-235.6667-.5236-4.4-1.91-14.81-9.4449-23.8047C463.5308,149.4472,440.5327,149.9,436.843,150.033c-4.4083.1585-24.61,1.4177-37.78,16.6633-12.2163,14.1419-11.9242,32.8426-11.8061,40.4681,2.4776,160.104,4.0986,240.7514,7.0836,270.1839,5.94,58.5642,3.0731,81.6,12.6742,125.28,5.2634,23.9449,11.75,53.4565,28.0372,89.6385,21.4387,47.6265,43.4826,70.4332,38.268,75.6-6.0145,5.9591-42.6793-17.1074-71.8691-45.7334-46.1931-45.301-65.7571-96.7684-73.2247-118.62C288.6937,487.8323,291.56,334.16,285.7243,211.9254c-.4911-10.2886-1.9846-34.6343-18.89-48.8-15.3465-12.8593-35.7593-10.9322-37.78-10.7121-16.63,1.8116-27.2689,11.2618-31.8766,15.4731-13.8064,12.6188-18.4752,28.0531-20.07,33.3266-17.094,56.51,1.6151,165.8856,4.7224,183.2966,7.1111,39.8445,12.7088,70.849,23.6123,114.2628,2.9594,11.7832,17.09,68.0461,33.0572,111.8823,29.769,81.7277,61.3949,168.0646,136.9513,211.8623,109.8778,63.6928,244.2871-2.8532,250.29-5.9512C725.579,765.0428,764.4408,666.7687,813.459,542.8114c45.67-115.491,60.9319-217.4159,55.4889-219.0037-5.53-1.6134-26.6531,102.0481-96.81,229.7158C706.372,673.1992,628.3945,757.7842,622.2,753.4834c-5.8368-4.0521,53.2547-86.17,122.7839-238.0475C786.3839,425.0016,815.4506,344.8594,811.0978,342.8515Z" style="fill:#fff"/></svg>