<svg id="图层_1" data-name="图层 1" xmlns="http://www.w3.org/2000/svg" viewBox="0 0 1000 1000"><title>Woodo</title><rect x="125" y="125" width="750" height="750" rx="90.9043" style="fill:#0d7bf7"/><rect width="1000" height="1000" style="fill:none"/><path d="M240,375.9786c4.52-4.7868,11.11-11.5666,19.3943-19.3948,12.48-11.7929,18.8309-17.7234,24.2429-19.3943,20.5439-6.3429,42.4627,14.6062,43.6371,15.7579,1.4161,1.3883,22.5958,22.839,16.97,50.91-5.82,29.0418-36.01,43.605-58.1828,46.0613-22.3134,2.472-39.6442-6.97-46.0615-10.9093Z" style="fill:#fff"/><rect x="190.4027" y="463.9966" width="356.4805" height="73.1944" rx="21.905" transform="translate(-250.3748 558.1159) rotate(-58.9406)" style="fill:#fff"/><path d="M746.676,436.5852c-16.6567-34.5167-43.71-52.5639-66.6682-67.88-37.1395-24.7762-66.1406-28.2837-75.1529-29.0914-9.969-.8935-34.9461-3.2052-45.0125,4.3147a28.5876,28.5876,0,0,0-9.6493,9.7013l-154.28,256.1645a28.7224,28.7224,0,0,0,9.7858,39.4227l13.4921,8.1259a28.7224,28.7224,0,0,0,39.4227-9.7858L606.9076,401.3331c.1244.0312.2473.07.3719.1,2.7876.68,2.3611.3682,6.0607,1.2121,28.9374,6.601,47.828,24.27,53.3344,29.0914,7.1584,6.2685,34.6083,30.3056,36.3642,69.0923,1.56,34.469-18.1706,58.5054-23.0307,64.2436-5.4456,6.4292-23.6249,26.1215-52.1222,32.7278-23.3065,5.4031-38.0648-1.5284-50.91,10.9093-1.3725,1.329-9.8948,9.83-9.6975,21.8187.2219,13.4456,11.2663,22.54,13.3336,24.2428,23.9459,19.7184,71.4993,2.4313,95.7593-10.9093,34.2658-18.8421,52.5639-46.5813,59.395-58.1828C739.4553,579.4152,780.6119,506.91,746.676,436.5852Z" style="fill:#fff"/></svg>