<svg id="图层_1" data-name="图层 1" xmlns="http://www.w3.org/2000/svg" viewBox="0 0 1000 1000"><title>WordArt</title><rect x="125" y="125" width="750" height="750" rx="83.25" style="fill:#fb6f7e"/><path d="M196.25,265.25h25.5c-.0844,1.5008-2.2959,32.12-27,45C172.6735,321.76,142.2066,314.1141,125,290V207.5c3.969-6.75,10.9458-16.3623,22.5-23.25,29.5861-17.6369,66.2222-3.723,78,.75,19.3114,7.3342,79.1762,38.8466,132.75,309,10.3808,52.3466,22.3173,122.6889,30.75,207L491.75,467h27L653,747.5l80.25-519.75-45-3v-19.5L875,222.5v21l-19.5-3.75L695,824H654.5L533.75,597.5,451.25,824h-97.5C347.2325,698.73,330.2537,486.9559,281,327.5c-19.6072-63.4773-45.3426-121.9445-86.25-128.25-16.1921-2.4959-37.8937,2.6979-49.5,18-15.313,20.1892-11.038,55.314,8.25,68.25,9.4643,6.3475,27.1348,10.3027,36.75.75C197.365,279.1813,196.5585,268.2042,196.25,265.25Z" style="fill:#fff"/><rect width="1000" height="1000" style="fill:none"/></svg>