<?xml version="1.0" encoding="utf-8"?>
<!-- Generator: Adobe Illustrator 23.0.1, SVG Export Plug-In . SVG Version: 6.00 Build 0)  -->
<svg version="1.1" id="图层_1" xmlns="http://www.w3.org/2000/svg" xmlns:xlink="http://www.w3.org/1999/xlink" x="0px" y="0px"
	 viewBox="0 0 1000 1000" style="enable-background:new 0 0 1000 1000;" xml:space="preserve">
<style type="text/css">
	.st0{fill:none;}
	.st1{fill:#2951C2;enable-background:new    ;}
	.st2{fill:#2952C2;enable-background:new    ;}
	.st3{fill:#2952C2;}
</style>
<title>Xiezuocat</title>
<rect class="st0" width="1000" height="1000"/>
<path class="st1" d="M876.7,731.1L854.4,744c-24.5,14.2-56.2,5.7-70.4-18.9L645.6,485.5c-14.2-24.5-5.7-56.2,18.9-70.4l22.3-12.9
	c24.5-14.2,56.2-5.7,70.4,18.9l138.4,239.7C909.7,685.3,901.2,717,876.7,731.1z"/>
<path class="st2" d="M642.9,650.2l-210-363.8c-11.5-20-32.3-31.4-53.9-32.1c-0.2,0-0.3,0-0.5,0c-0.5,0-1,0-1.6,0c-0.5,0-1,0-1.6,0
	c-0.2,0-0.3,0-0.5,0c-21.6,0.7-42.4,12.1-53.9,32.1L111,650.2c-17.7,30.7-7.1,70.2,23.6,88h0c30.7,17.7,70.2,7.1,88-23.6L376.9,447
	l154.5,267.6c17.7,30.7,57.3,41.3,88,23.6h0C650,720.4,660.6,680.8,642.9,650.2z"/>
<circle class="st3" cx="622" cy="315.8" r="62.5"/>
</svg>
