<svg id="图层_1" data-name="图层 1" xmlns="http://www.w3.org/2000/svg" viewBox="0 0 1000 1000"><title>Xoihazard</title><circle cx="500" cy="500" r="500" style="fill:#fff"/><path d="M871.1686,500,798.1963,373.6082,866.23,334.3289,826.59,265.671,758.5566,304.95,685.5843,178.5586H539.64V100H460.36v78.5586H314.4157L241.4434,304.95,173.41,265.671l-39.64,68.6579,68.0336,39.2793L128.8314,500l72.9723,126.3917L133.77,665.671l39.64,68.6579L241.4434,695.05l72.9723,126.3918H460.36V900H539.64V821.4414H685.5843L758.5566,695.05,826.59,734.3289l39.64-68.6579-68.0336-39.2793Zm-71.5707,0-55.08,95.4007L579.2793,500l165.2389-95.4007ZM649.799,240.5405l55.08,95.4008L539.64,431.3421V240.5405Zm-299.598,0H460.36V431.3421l-165.239-95.4008ZM200.4021,500l55.08-95.4008L420.7207,500l-165.239,95.4008ZM350.201,759.46l-55.08-95.4009L460.36,568.6578V759.46Zm299.598,0H539.64V568.6578l165.2391,95.4008Z" style="fill:#6d7a7c"/></svg>