<svg id="图层_1" data-name="图层 1" xmlns="http://www.w3.org/2000/svg" viewBox="0 0 1000 1000"><title>Xunlei</title><rect width="1000" height="1000" style="fill:none"/><rect x="125" y="125" width="750" height="750" rx="90.0638" style="fill:#2f71f1"/><path d="M576.1029,471.4614c41.2955-14.2974,80.86-.1683,125.7353,16.5441A451.61,451.61,0,0,1,781.25,526.8842c-44.7291,4.4752-82.9434,10.6717-113.3272,16.5441-56.475,10.9151-84.7125,16.3725-99.2647,23.9889-13.4311,7.0295-22.2877,13.692-30.6066,9.9265-16.4175-7.4314-20.6444-50.9086-1.6544-78.5846C548.3482,481.3416,566.285,474.8607,576.1029,471.4614Z" style="fill:#f7f7f7"/><path d="M218.75,303.5386c51.2293,13.4175,85.8581,23.09,95.9559,27.2978a29.6859,29.6859,0,0,0,12.4081,2.4816c7.5043-.1863,12.5958-3.4125,15.7169-4.9632,16.6125-8.256,38.4225.614,43.0147,2.4816,9.9894,4.0626,16.3857,10.6333,28.9522,23.9889,22.0911,23.4785,23.6714,33.1891,33.0882,34.7427C462.3252,391.95,475.9,371.9355,485.11,360.6158c20.1207-24.7281,58.6343-42.68,135.6618-78.5846a920.7028,920.7028,0,0,1,126.5625-47.9779q-36.8108,58.7316-73.6214,117.4633l23.1618-1.6545c-7.8589,8.7306-17.9151,20.4241-28.9522,34.7427-11.685,15.1593-28.3821,36.82-43.8419,65.3493-27.9343,51.5485-19.934,66.6606-42.1875,81.8933-16.3085,11.1634-34.1,12.2843-38.0515,26.4706-2.8773,10.3289,3.7033,20.3419,5.79,23.989,16.8225,29.3948,46.4237,92.9793,86.8566,183.64a783.1852,783.1852,0,0,0-68.6581-67.0037c-29.7705-25.6734-56.9286-49.079-97.61-71.14-35.3325-19.16-39.5647-14.9866-61.2133-30.6066-9.0847-6.555-44.1891-32.4982-62.8677-76.1029C316.5975,452.1281,359.4137,411.98,325.46,371.37c-10.0914-12.07-27.6835-22.66-62.8676-43.8419C244.7975,316.8153,229.4845,308.8459,218.75,303.5386Z" style="fill:#fff"/></svg>