<?xml version="1.0" encoding="utf-8"?>
<svg width="1415px" height="1415px" viewBox="0 0 1415 1415" version="1.1" xmlns:xlink="http://www.w3.org/1999/xlink" xmlns="http://www.w3.org/2000/svg">
  <g id="Yandex-Webmaster">
    <path d="M0 707.5C0 316.759 316.759 0 707.5 0C1098.24 0 1415 316.759 1415 707.5C1415 1098.24 1098.24 1415 707.5 1415C316.759 1415 0 1098.24 0 707.5Z" id="Ellipse" fill="#FFFFFF" fill-rule="evenodd" stroke="none" />
    <g id="Group" transform="translate(207 250)">
      <path d="M244.544 595.635L191.592 648.909L0 457.317L191.592 266.367L244.544 319.32L106.547 457.638L244.544 595.956L244.544 595.635ZM755.135 318.999L808.729 266.367L1000 457.638L808.729 649.23L755.456 595.956L893.774 457.959L755.777 319.32L755.135 318.999Z" id="Shape" fill="#DA0E16" fill-rule="evenodd" stroke="none" />
      <path d="M755.135 148.588C755.253 108.725 739.421 70.4752 711.166 42.3599L666.239 169.448L545.892 127.086L590.822 0C533.495 6.07592 484.795 44.6275 465.723 99.0293C446.652 153.431 460.62 213.952 501.605 254.493L377.728 617.779C320.457 623.962 271.859 662.555 252.864 716.936C233.868 771.317 247.867 831.775 288.832 872.272L333.44 745.186L453.787 787.548L409.178 914.634C466.505 908.558 515.205 870.007 534.277 815.605C553.348 761.203 539.38 700.682 498.395 660.141L621.951 296.855C697.801 288.652 755.249 224.559 755.135 148.267L755.135 148.588Z" id="Shape" fill="#393837" fill-rule="evenodd" stroke="none" />
    </g>
  </g>
</svg>