<svg id="图层_1" data-name="图层 1" xmlns="http://www.w3.org/2000/svg" viewBox="0 0 1000 984.3941"><title>YTS</title><g id="g3349"><path id="path3351" d="M216.16,642.4318l25.3224-134.0756L177.6367,313.8374H252.722l34.6117,126.6241,82.872-126.6241h83.8407l-141.85,193.0658L286.3526,631.6024Z" transform="translate(0 -7.8029)" style="fill:#6ac045"/><path id="path3353" d="M514.0054,375.2742H394.2613L441.0189,313.85H710.2753s-46,28.4644-52.756,61.4244H584.2348L534.0124,631.6024l-70.18-5.4022Z" transform="translate(0 -7.8029)" style="fill:#6ac045"/><path id="path3355" d="M650.9745,566.3654c19.4854,11.6863,47.304,20.9633,77.5319,20.9633,27.2845,0,52.1474-12.68,52.1474-38.5114,0-18.5043-14.1329-30.7-44.3731-46.298-35.1086-19.0135-68.2549-44.3607-68.2549-87.2684,0-66.3174,58.0465-106.7661,129.6793-106.7661,39.9892,0,63.3865,8.7678,77.5069,16.5545L853.28,383.5453c-10.7424-5.837-34.1275-15.1016-61.4-14.6172-32.6868,0-49.7754,16.5794-49.7754,34.6366,0,18.9887,19.97,30.7,47.7883,46.298,39.9892,20.9633,65.324,47.7759,65.324,86.7716,0,73.1231-60.4681,110.6409-133.5911,110.6409-45.8014,0-78.4757-11.6739-94.074-23.3974Z" transform="translate(0 -7.8029)" style="fill:#6ac045"/></g><path d="M252.279,7.8029C12.8431,219.126,15.5948,590.4486,233.7514,788.609,447.7939,983.0326,808.88,955.9776,1000,707.8816c-25.7147,47.0728-110.1016,187.0768-280.5608,251.446-218.6536,82.5686-486.13,5.6441-624.6449-186.5994C-27.1555,603.4748.864,414.24,7.45,375.7082,46.9807,144.4282,222.9077,26.7486,252.279,7.8029Z" transform="translate(0 -7.8029)" style="fill:#6ac045"/></svg>