<svg id="图层_1" data-name="图层 1" xmlns="http://www.w3.org/2000/svg" viewBox="0 0 1415 1415"><title>ZDic</title><circle cx="707.5" cy="707.5" r="707.5" style="fill:none"/><rect x="207.5" y="207.5" width="1000" height="1000" style="fill:#b10a0a"/><path d="M756.1232,626.3849H521.7514V483.664a490.7811,490.7811,0,0,0,56.8959-4.9873,379.7445,379.7445,0,0,0,11.967,57.4533c5.4557,18.6118,14.162,42.6458,27.1893,43.5029,6.869.4519,15.5122-5.502,18.4888-13.0509,3.0116-7.6376-.3286-15.51-1.0876-17.4012-4.6012-11.4616-10.2727-42.046-14.8372-78.1854,17.2713-3.82,35.0167-8.501,53.4188-14.0551,7.2886,67.4393,20.4781,123.23,38.5907,136.975,3.8894,2.9514,14.7808,11.2164,22.8391,7.613,8.827-3.9472,9.6019-20.0547,9.7881-23.9266a64.1544,64.1544,0,0,0-7.613-32.6272c-17.7777-33.1609-31.12-132.8554-31.54-201.2008-.0963-15.6944-.2072-33.7578.3387-52.0493a25.3227,25.3227,0,0,0,.0833-2.6283c1.3146-39.4388,5.8252-79.4611,20.2419-98.67,2.0505-2.7321,11.5668-14.7238,8.7006-27.1893-1.9041-8.281-9.1731-16.3383-17.4012-17.4012-11.1849-1.4447-21.0407,10.4361-25.0142,15.2261-12.2954,14.8218-19.931,54.3318-23.382,103.8662-18.3478-5.4029-36.0555-9.9326-53.3012-13.59,1.45-24.7874,3.3766-47.9149,6.0363-64.3186.8513-5.25,3.7166-21.77-5.4378-30.452-5.2291-4.9593-13.9331-6.938-20.6639-4.35-11.5263,4.4315-14.8024,21.3071-16.3136,30.452-3.3841,20.48-5.5984,41.4024-7.0247,61.1787A486.33,486.33,0,0,0,521.7514,239.8V121.7514a21.7514,21.7514,0,1,0-43.5028,0V240.71a504.5133,504.5133,0,0,0-50.756,6.0687c-1.4158-20.6325-3.6795-42.6156-7.2312-64.11-1.5112-9.1449-4.7873-26.02-16.3136-30.452-6.7308-2.5877-15.4348-.609-20.6639,4.35-9.1544,8.6823-6.2891,25.2018-5.4378,30.452,2.82,17.3938,4.8159,42.347,6.2937,68.8238-17.2254,4.242-34.883,9.3088-53.1592,15.1834-3.2377-52.3742-10.9856-94.54-23.7814-109.9649-3.9735-4.79-13.8293-16.6708-25.0142-15.2261-8.2281,1.0629-15.4971,9.12-17.4012,17.4012-2.8662,12.4655,6.65,24.4572,8.7006,27.1893,21.43,28.5531,20.9722,103.0943,20.6639,153.3477-.4194,68.3454-13.7619,168.04-31.54,201.2008a64.1544,64.1544,0,0,0-7.613,32.6272c.1862,3.8719.9611,19.9794,9.7881,23.9266,8.0583,3.6034,18.95-4.6616,22.8391-7.613C306.2235,579.8,319.6321,521.3429,326.79,451.4645c18.3517,5.9676,36.0709,11.1236,53.35,15.4594-4.646,37.9006-10.5709,70.3671-15.344,82.2569-.759,1.8909-4.0992,9.7636-1.0876,17.4012,2.9766,7.5489,11.62,13.5028,18.4888,13.0509,13.0273-.8571,21.7336-24.8911,27.1893-43.5029a382.38,382.38,0,0,0,12.3193-60.2348,507.3877,507.3877,0,0,0,56.5436,6.9574V626.3849H243.8768a21.7514,21.7514,0,0,0-21.7515,21.7514h0a21.7514,21.7514,0,0,0,21.7515,21.7514H405.806c-7.6536,74.5736-20.95,151.0281-38.004,183.2951-2.76,5.2222-14.4711,26.0356-6.5255,38.065,3.1937,4.835,9.4205,8.0357,15.226,8.7006,0,0,9.3295,1.0684,19.5763-6.5255,26.6741-19.7682,47.8532-177.2741,47.8532-177.2742s2.543-18.9171,5.3461-46.261H563.7727c2.8032,27.3439,5.3461,46.261,5.3461,46.261S590.298,873.6548,616.972,893.423c10.2469,7.5939,19.5762,6.5255,19.5763,6.5255,5.8056-.6649,12.0324-3.8656,15.226-8.7006,7.9457-12.0294-3.7652-32.8428-6.5254-38.065-17.0543-32.267-30.35-108.7215-38.004-183.2951H756.1232a21.7514,21.7514,0,0,0,21.7515-21.7514h0A21.7514,21.7514,0,0,0,756.1232,626.3849ZM667.4726,309.6377c-.6718,33.3007.1925,68.8065,2.4817,103.1024-18.8523,5.9065-36.851,10.8429-54.2416,14.8309-2.6386-29.9071-4.0972-60.0209-3.3469-83.9413.4513-14.3879.9752-31.0625,1.6544-48.3455C631.1754,299.1327,648.9128,303.9109,667.4726,309.6377ZM570.6362,287.372c-.88,35.5405.4018,60.6079.4018,60.608,1.5932,31.11,1.9928,59.665,3.6361,87.4054a446.846,446.846,0,0,1-52.9227,4.78V283.2922A443.12,443.12,0,0,1,570.6362,287.372Zm-240.2139,119.51c1.8661-30.2027,2.63-61.1865,2.2176-90.6464,18.5733-6.1436,36.3369-11.4578,53.5342-15.9194.5863,15.4772,1.0528,30.3273,1.46,43.3134.7127,22.72-.5681,51.0279-2.9593,79.4388C367.2571,418.5383,349.2574,413.1351,330.4223,406.8821Zm95.0864,25.3792c1.4948-26.7611,1.92-54.3388,3.4533-84.2813,0,0,1.2022-23.5077.479-57.2681a471.4324,471.4324,0,0,1,48.8076-6.3453V439.2117A473.1975,473.1975,0,0,1,425.5087,432.2613Z" transform="translate(207.5 207.5)" style="fill:#fff"/></svg>