<svg id="图层_1" data-name="图层 1" xmlns="http://www.w3.org/2000/svg" viewBox="0 0 1000 1000"><title>ZhenBao-CN</title><circle cx="500" cy="500" r="500" style="fill:#ba9e78"/><path id="路径" d="M739.71,394.005a147.1712,147.1712,0,0,0-2.94-17.64c-2.205-13.23-5.145-27.195-7.35-40.425-1.47-7.35-2.205-15.435-3.675-22.785-4.41-17.64-17.64-31.605-37.485-33.075-6.615-.735-13.965-1.47-21.315-2.205-13.965-1.47-27.93-2.94-41.8949-5.145-20.58-2.94-41.16-5.88-61.74-5.145h-9.555c-11.025-.735-19.845-5.88-25.725-16.17-2.205-3.675-4.41-8.085-5.145-12.4949-2.94-8.085-5.1449-16.17-7.35-23.52-3.675-11.025-8.0849-21.315-12.4949-32.34-1.47-3.675-3.675-6.615-8.82-6.615-4.41,0-6.6149,2.94-8.0849,7.35-1.47,2.94-2.205,5.88-3.675,8.82-1.47,5.145-2.94,9.555-4.41,14.7-3.675,14.7-7.35,29.4-11.76,43.3649s-13.965,22.785-28.665,24.99c-11.025,1.47-22.05,2.205-33.075,2.94-22.785,1.47-46.305,2.94-69.09,4.41a207.6536,207.6536,0,0,1-21.315,1.47c-9.555.735-16.905,5.145-22.785,12.495-12.495,16.905-19.11,35.28-22.785,55.125L261.96,394.005c-4.41,30.87-8.085,61.74-11.76,93.345-.735,4.41.735,9.555,1.47,13.965.735,3.675,3.675,5.145,6.615,5.88,3.675.7351,5.145-1.47,6.615-3.675a84.1343,84.1343,0,0,0,11.025-26.46c3.675-18.375,7.35-36.75,11.76-55.125,3.675-17.64,8.82-34.5449,13.23-52.1849,2.94-11.025,7.35-21.315,13.965-30.135,10.29-13.23,23.52-21.315,40.425-22.785,17.64-1.47,36.0149-2.94,53.6549-3.675,27.93-.735,55.86-1.47,83.055-2.205,29.4-.735,58.0649-.735,87.4649-.735,17.64,0,36.015,0,53.655.735,9.555,0,19.11,2.205,28.665,3.675,19.8449,2.94,31.6049,14.7,36.0149,33.81C705.9,384.45,715.455,419.73,719.13,456.48c1.47,11.76,5.145,22.785,9.555,33.81,2.94,7.35,8.085,8.085,13.965,2.94a11.43,11.43,0,0,0,4.41-5.88c1.47-3.675,2.205-8.085,2.94-11.025-1.47-8.82-2.205-16.905-3.675-24.255C745.59,432.96,742.65,413.85,739.71,394.005Z" style="fill:#fff"/><path d="M708.84,624.06c-.735-2.94-2.94-5.88-5.88-6.615a4.6856,4.6856,0,0,0-4.41,0c-2.94,1.47-5.145,5.145-5.88,8.085s-1.47,5.88-2.2049,8.085c-7.35,27.195-15.4351,54.39-22.7851,82.32-1.47,3.675-2.2049,8.085-4.41,11.76-2.94,5.88-7.35,10.29-14.7,11.025s-14.7,2.205-22.05,2.205c-19.845,0-38.955-.735-58.065-1.47-5.145,0-9.555-.735-13.965-.735-8.82-.735-14.7-5.145-19.11-12.495a56.7006,56.7006,0,0,1-7.35-18.375c-2.94-11.025-2.94-22.05-2.205-33.0749.735-19.845,1.47-38.955,0-58.8A48.1116,48.1116,0,0,1,529.5,593.19c2.205-6.615,6.6151-10.29,13.965-10.29,15.435,0,31.605-.735,47.04-1.47h10.29a71.438,71.438,0,0,0,27.93-3.675,25.9024,25.9024,0,0,0,14.7-10.29c2.2049-2.94,5.1449-6.615,4.41-11.025-1.47-5.145-4.41-10.29-9.5551-13.23a22.013,22.013,0,0,0-7.35-2.94c-5.88-2.2049-12.4949-2.2049-19.11-1.47-19.845,2.2051-40.425,1.47-60.27,1.47-5.88,0-10.29-1.47-16.17-3.675-4.41-1.47-6.6149-4.41-8.085-8.82a171.1747,171.1747,0,0,1-.735-58.065c1.47-8.085,5.88-13.23,13.965-14.7,2.205,0,3.675-.735,5.88-.735,16.17-.735,31.605-1.47,47.775-2.205,8.82-.735,17.64-.735,27.195-1.47A41.0133,41.0133,0,0,0,647.1,439.575c1.47-1.47,2.94-3.675,2.94-5.88.735-3.675,1.47-7.35.735-11.76,0-7.35-2.94-10.29-9.555-12.495-12.495-2.94-24.99-5.145-38.22-2.205a25.0042,25.0042,0,0,1-7.35.735c-23.52.735-46.305,1.47-69.825,2.205-37.4849.735-75.7049,1.47-113.19,2.94-12.495.735-24.99,1.47-37.4849,2.94a77.5255,77.5255,0,0,0-17.64,4.41c-7.35,2.94-9.555,10.29-5.88,17.64,1.47,2.205,2.94,5.145,4.41,7.35,3.675,5.88,9.555,8.82,16.905,8.82,22.05-.735,44.1-1.47,66.15-1.47a153.63,153.63,0,0,1,18.375.735c8.085.735,12.495,5.88,16.17,12.495a28.8282,28.8282,0,0,1,2.94,13.23v35.28c0,13.23-5.88,21.315-18.375,25.725a63.0164,63.0164,0,0,1-19.845,3.675c-8.085,0-16.905,0-24.99.7351-9.555.735-19.845,2.2049-29.4,2.94-7.35.7351-12.4949,5.145-16.17,11.025s-3.675,9.555,0,14.7c2.94,3.675,6.6149,6.615,11.76,7.35a41.91,41.91,0,0,0,9.555.735c5.145.735,11.025.735,16.17,1.47,6.9885.8736,13.977,1.7471,22.2.1526l16.02-1.6225h7.35c13.23,2.205,21.315,10.29,24.99,22.05,2.205,5.88,2.205,11.025,2.205,16.905v54.39c0,15.4349-3.675,30.1349-8.82,44.1-3.675,11.025-11.76,16.905-23.52,18.375a249.8207,249.8207,0,0,1-42.6632,3.6693l-38.0517-.0128c-14.0329-.3926-24.5694-7.0449-30.27-21.2965-2.94-8.085-5.88-15.435-7.35-23.52-1.47-9.5551-2.94-19.11-3.675-28.665-1.47-13.965-5.145-27.93-9.555-41.16A31.6945,31.6945,0,0,0,304.59,612.3c-2.205-2.205-5.145-2.205-8.085-1.47-5.145,2.205-7.35,5.88-6.615,13.23.735,13.965,1.47,27.195,2.205,41.16a461.1808,461.1808,0,0,0,8.085,70.56c4.41,22.05,17.64,36.75,38.955,42.63a165.6857,165.6857,0,0,0,26.46,4.41c16.17.735,31.605.735,47.775.735,30.87-.735,61.74-.735,93.345-1.47H648.57a43.0817,43.0817,0,0,0,22.785-6.615c8.0851-5.145,14.7-11.76,18.375-19.845a104.7335,104.7335,0,0,0,8.085-25.725c3.675-25.725,8.085-52.1849,11.025-77.91.735-7.35,0-14.7,0-22.05C710.31,629.2049,709.575,626.2649,708.84,624.06Z" style="fill:#fff"/></svg>